<svg xmlns="http://www.w3.org/2000/svg" xmlns:xlink="http://www.w3.org/1999/xlink" viewBox="0 0 972.68 1000.25"><defs><style>.cls-1{fill:none;}.cls-2{clip-path:url(#clip-path);}.cls-3{fill:#c10230;}.cls-4{fill:#fff;}</style><clipPath id="clip-path"><rect id="SVGID" class="cls-1" width="972.68" height="1000"/></clipPath></defs><title>UniversityOfSoutchWales_logo</title><g id="Layer_2" data-name="Layer 2"><g id="Layer_1-2" data-name="Layer 1"><g class="cls-2"><g class="cls-2"><path class="cls-3" d="M0,0V1000.25H621.22c194.1,0,351.46-157.34,351.46-351.46V0H0"/></g><path class="cls-4" d="M126.47,358.63v52.79c0,17.73,7.4,25.93,18.55,25.93,11.94,0,19.06-8.2,19.06-25.93V358.63H180.6v51.71c0,27.94-14.37,40.3-36.14,40.3C123.52,450.64,110,439,110,410.49V358.63h16.5"/><path class="cls-4" d="M199.53,403.22c0-7.51-.13-13.84-.53-19.46h14.49l.82,9.81h.41c2.81-5.12,9.94-11.3,20.79-11.3,11.44,0,23.26,7.4,23.26,28.07v38.82H242.24V412.23c0-9.4-3.5-16.52-12.48-16.52-6.6,0-11.15,4.7-12.9,9.67a17,17,0,0,0-.66,5.38v38.4H199.53V403.22"/><path class="cls-4" d="M294.61,365.48c0,5-3.61,8.87-9.4,8.87-5.49,0-9.14-3.9-9.14-8.87s3.78-9,9.28-9a8.81,8.81,0,0,1,9.26,9M277,383.76h16.65v65.4H277Z"/><path class="cls-4" d="M322.56,383.76l10.62,33.16c1.86,5.79,3.22,11,4.41,16.39H338c1.21-5.38,2.68-10.48,4.44-16.39l10.35-33.16h17.44l-25,65.4H329l-24.31-65.4h17.87"/><path class="cls-4" d="M390.91,421.11c.4,11.81,9.67,16.91,20.16,16.91a49.2,49.2,0,0,0,18.13-3l2.41,11.43a62.18,62.18,0,0,1-22.83,4c-21.22,0-33.71-13-33.71-33,0-18.13,11-35.19,32-35.19,21.22,0,28.19,17.46,28.19,31.84a43.91,43.91,0,0,1-.51,7h-43.8m28.75-11.58c.13-6-2.55-16-13.58-16-10.21,0-14.49,9.26-15.17,16Z"/><path class="cls-4" d="M449.21,404.84c0-8.87-.13-15.17-.55-21.08H463l.53,12.48h.53c3.22-9.27,10.89-14,17.88-14a17.2,17.2,0,0,1,3.89.41v15.58a22.78,22.78,0,0,0-4.85-.55c-7.91,0-13.29,5.12-14.76,12.5a27.44,27.44,0,0,0-.54,5.11v33.84H449.21V404.84"/><path class="cls-4" d="M496.88,434a36.94,36.94,0,0,0,16.79,4.69c7.24,0,10.48-3,10.48-7.26s-2.7-6.72-10.74-9.53c-12.78-4.44-18.14-11.41-18-19.07,0-11.55,9.53-20.56,24.7-20.56a38.55,38.55,0,0,1,17.34,3.89l-3.24,11.69a29.39,29.39,0,0,0-13.83-3.77c-5.91,0-9.13,2.84-9.13,6.87s3.09,6.18,11.41,9.12c11.81,4.3,17.32,10.35,17.47,20,0,11.8-9.28,20.41-26.59,20.41-7.92,0-15-1.88-19.87-4.56L496.88,434"/><path class="cls-4" d="M572,365.48c0,5-3.63,8.87-9.41,8.87-5.5,0-9.14-3.9-9.14-8.87s3.78-9,9.29-9a8.81,8.81,0,0,1,9.26,9m-17.59,18.28H571v65.4H554.36Z"/><path class="cls-4" d="M608.34,365.09v18.67h15.72v12.35H608.34V425c0,7.93,2.16,12.08,8.46,12.08a25.3,25.3,0,0,0,6.47-.8l.26,12.62c-2.42.95-6.73,1.61-12,1.61-6.05,0-11.15-2-14.24-5.36-3.5-3.76-5.1-9.67-5.1-18.28V396.11h-9.41V383.76h9.41V369l16.11-3.89"/><path class="cls-4" d="M648.5,383.76l11.82,35c1.34,4,2.68,9,3.63,12.76h.41c1.06-3.75,2.27-8.58,3.47-12.89L678,383.76h17.74l-16.39,44.58c-9,24.44-15,35.32-22.83,42a33.08,33.08,0,0,1-17.33,8.47l-3.75-13.95A29.8,29.8,0,0,0,654.15,450a6.57,6.57,0,0,0,1.07-2.95,7,7,0,0,0-.93-3.21l-23.92-60H648.5"/><path class="cls-4" d="M796.63,415.86c0,24-16.93,34.78-33.57,34.78-18.54,0-32.76-12.76-32.76-33.72,0-21.48,14.09-34.65,33.82-34.65,19.49,0,32.51,13.7,32.51,33.59m-49.3.66c0,12.63,6.2,22.17,16.26,22.17,9.41,0,16-9.28,16-22.44,0-10.2-4.56-21.89-15.83-21.89C752.05,394.36,747.33,405.65,747.33,416.52Z"/><path class="cls-4" d="M812.74,449.16V396.11h-8.85V383.76h8.85v-2.83c0-8.47,2.29-16.93,7.94-22.3,4.83-4.57,11.4-6.3,17.06-6.3a32.47,32.47,0,0,1,10.61,1.6l-1.22,12.76a19.53,19.53,0,0,0-7-1.21c-8.2,0-11,6.85-11,14.93v3.35h14.36v12.35H829.26v53.05H812.74"/><path class="cls-4" d="M109.69,571.06a45.81,45.81,0,0,0,21.9,5.78c10.61,0,16.5-5,16.5-12.38,0-6.84-4.55-10.85-16.11-15-14.89-5.37-24.44-13.3-24.44-26.31,0-14.79,12.36-26.07,32-26.07,9.79,0,17.05,2.14,21.75,4.58l-4,13.29a38.26,38.26,0,0,0-18-4.32c-10.48,0-15,5.66-15,10.9,0,7,5.24,10.21,17.32,14.9,15.71,5.9,23.37,13.83,23.37,26.86,0,14.5-11,27.13-34.38,27.13-9.54,0-19.48-2.68-24.45-5.65l3.63-13.69"/><path class="cls-4" d="M242.77,555.77c0,24-16.92,34.77-33.57,34.77-18.53,0-32.77-12.77-32.77-33.71,0-21.49,14.11-34.66,33.84-34.66,19.49,0,32.5,13.7,32.5,33.6m-49.28.65c0,12.63,6.19,22.17,16.25,22.17,9.4,0,16-9.28,16-22.44,0-10.21-4.58-21.88-15.85-21.88C198.18,534.27,193.49,545.55,193.49,556.42Z"/><path class="cls-4" d="M315.58,569.44c0,7.8.26,14.24.53,19.62H301.6l-.79-9.94h-.28c-2.82,4.69-9.28,11.42-21,11.42-12,0-22.81-7.12-22.81-28.48V523.65h16.5v35.59c0,10.89,3.49,17.87,12.23,17.87,6.58,0,10.87-4.7,12.61-8.86a14.77,14.77,0,0,0,.94-5.12V523.65h16.54v45.79"/><path class="cls-4" d="M353.05,505v18.66h15.71V536H353.05v28.88c0,7.92,2.15,12.08,8.45,12.08a24.14,24.14,0,0,0,6.45-.8l.27,12.63c-2.42.93-6.72,1.61-12,1.61-6.07,0-11.14-2-14.25-5.38-3.5-3.76-5.1-9.66-5.1-18.26V536h-9.41V523.65h9.41V508.87L353.05,505"/><path class="cls-4" d="M381.92,493.71h16.65v38.94h.28a22,22,0,0,1,8.18-7.51,22.41,22.41,0,0,1,11.28-3c11.15,0,22.84,7.38,22.84,28.34v38.55H424.61V552.38c0-9.51-3.47-16.64-12.61-16.64A13.49,13.49,0,0,0,399.23,545a14.09,14.09,0,0,0-.66,5v39.08H381.92V493.71"/><path class="cls-4" d="M498.35,589.06l-22.16-90.53h17.59l8.59,41.1c2.3,11,4.44,22.56,5.93,31.56h.26c1.47-9.54,4-20.28,6.58-31.69l9.81-41h17.31l9,41.65c2.29,10.73,4.17,20.8,5.52,30.62H557c1.62-10,3.77-20.29,6.18-31.3l9.4-41h16.8l-24.33,90.53H547.37L538,546.48a262.45,262.45,0,0,1-5-28.73h-.27c-1.6,9.66-3.35,18.39-6,28.73l-10.48,42.58H498.35"/><path class="cls-4" d="M632.12,589.06,631,581.8h-.41c-4,5.11-10.88,8.74-19.32,8.74-13.17,0-20.55-9.54-20.55-19.48,0-16.51,14.63-24.84,38.8-24.71v-1.07c0-4.31-1.74-11.42-13.28-11.42a34.58,34.58,0,0,0-17.61,4.85L595.44,528c4.84-3,13.3-5.78,23.64-5.78,21,0,27,13.29,27,27.53v23.64a106.54,106.54,0,0,0,.94,15.72h-14.9m-2.16-32c-11.69-.27-22.84,2.27-22.84,12.21,0,6.46,4.18,9.41,9.42,9.41a13.37,13.37,0,0,0,12.87-9,11.7,11.7,0,0,0,.55-3.63Z"/><rect class="cls-4" x="664.23" y="493.71" width="16.64" height="95.35"/><path class="cls-4" d="M711.08,561c.4,11.82,9.67,16.93,20.15,16.93A49.35,49.35,0,0,0,749.37,575l2.41,11.41a61.62,61.62,0,0,1-22.84,4c-21.21,0-33.71-13-33.71-33,0-18.15,11-35.2,31.95-35.2,21.23,0,28.23,17.46,28.23,31.85a39.92,39.92,0,0,1-.55,7H711.08m28.75-11.54c.13-6-2.57-16-13.58-16-10.21,0-14.5,9.25-15.17,16Z"/><path class="cls-4" d="M768.56,573.88a36.86,36.86,0,0,0,16.79,4.71c7.25,0,10.47-3,10.47-7.27s-2.68-6.7-10.74-9.52c-12.76-4.43-18.13-11.42-18-19.09,0-11.54,9.54-20.54,24.7-20.54a38.5,38.5,0,0,1,17.34,3.9l-3.21,11.68A29.6,29.6,0,0,0,792.05,534c-5.91,0-9.13,2.83-9.13,6.85S786,547,794.35,550c11.82,4.29,17.31,10.33,17.45,20,0,11.82-9.25,20.42-26.59,20.42-7.92,0-15-1.88-19.88-4.56l3.23-12"/><path class="cls-4" d="M111.45,639.67a144.46,144.46,0,0,1,25.3-1.89c12.11,0,20.87,2.55,26.66,7.39,5.37,4.47,8.88,11.59,8.88,20.07s-2.67,15.61-7.68,20.45c-6.73,6.6-17,9.85-28.66,9.85a36.24,36.24,0,0,1-8.09-.67v34.31H111.45V639.67m16.41,42.13a27.88,27.88,0,0,0,8.09.8c12.38,0,19.92-6.17,19.92-16.69,0-10.1-7-15.34-18.44-15.34a45.2,45.2,0,0,0-9.57.82Z"/><path class="cls-4" d="M184.4,684.76c0-8.89-.13-15.34-.54-21.14h14.27l.68,12.39h.4c3.23-9.15,10.9-13.86,18-13.86a18.69,18.69,0,0,1,3.91.39v15.51a25.58,25.58,0,0,0-5-.41c-7.81,0-13.33,5-14.81,12.51a28.43,28.43,0,0,0-.41,5v34H184.4V684.76"/><path class="cls-4" d="M249.94,645.31c0,4.87-3.64,8.88-9.41,8.88a8.78,8.78,0,0,1-9.17-8.88c0-5.11,3.79-9,9.3-9a8.84,8.84,0,0,1,9.28,9M232.3,663.62h16.57v65.56H232.3Z"/><path class="cls-4" d="M268.65,729.18V676h-8.88V663.62h8.88v-2.83c0-8.48,2.3-16.95,7.94-22.34,4.85-4.57,11.3-6.32,17.1-6.32a33.92,33.92,0,0,1,10.49,1.62l-1.06,12.78a20,20,0,0,0-7.15-1.22c-8.21,0-10.9,6.87-10.9,15v3.35h14.29V676H285.21v53.17H268.65"/><path class="cls-4" d="M320.21,663.62l11.69,35.15c1.35,4,2.82,9,3.79,12.64h.41c.93-3.62,2.13-8.62,3.49-12.78l10.23-35h17.63L351,708.31c-9,24.51-15.08,35.41-22.76,42.15a34.74,34.74,0,0,1-17.36,8.34l-3.77-13.87A30.49,30.49,0,0,0,325.84,730a6.21,6.21,0,0,0,1-3,8,8,0,0,0-.83-3.23l-24.08-60.17h18.32"/><path class="cls-4" d="M374.71,713.84a35.71,35.71,0,0,0,16.7,4.84c7.27,0,10.5-3.09,10.5-7.42s-2.7-6.58-10.77-9.55c-12.8-4.3-18.05-11.31-18.05-19.11,0-11.56,9.56-20.45,24.77-20.45,7.27,0,13.6,1.75,17.51,3.89L412,677.64a28.83,28.83,0,0,0-13.88-3.79c-5.91,0-9.15,3-9.15,7,0,4.18,3.1,6.06,11.46,9.17,12,4.16,17.37,10.22,17.5,19.91,0,12-9.29,20.59-26.66,20.59-7.95,0-15.09-1.87-19.94-4.57l3.38-12.11"/><path class="cls-4" d="M490.88,719.62c0,13.73-2.84,23.56-9.69,29.76-6.73,6-16.3,7.93-25.31,7.93-8.36,0-17.23-1.88-22.89-5.24l3.63-12.53a39.42,39.42,0,0,0,19.13,5c10.77,0,18.83-5.64,18.83-19.78v-5.65h-.26c-3.78,5.79-10.36,9.68-19.11,9.68-16.31,0-27.87-13.45-27.87-32,0-21.55,14-34.6,29.75-34.6,10.09,0,15.89,4.84,19,10.23h.28l.68-8.76h14.39c-.27,4.45-.53,9.83-.53,18.85v37.15m-16.56-29.75a15.47,15.47,0,0,0-.55-4.45c-1.74-6-6.46-10.63-13.47-10.63-9.28,0-16.15,8.09-16.15,21.41,0,11.18,5.66,20.2,16,20.2a14.09,14.09,0,0,0,13.47-10.1,20.09,20.09,0,0,0,.68-5.79Z"/><path class="cls-4" d="M571,695.79c0,24.11-17,34.86-33.64,34.86-18.45,0-32.85-12.63-32.85-33.77,0-21.55,14.12-34.73,33.92-34.73,19.52,0,32.57,13.72,32.57,33.64m-49.39.68c0,12.66,6.32,22.21,16.28,22.21,9.43,0,16-9.16,16-22.48,0-10.22-4.58-22.07-15.89-22.07C526.25,674.13,521.56,685.56,521.56,696.47Z"/><rect class="cls-4" x="584.55" y="633.61" width="16.56" height="95.57"/><path class="cls-4" d="M111.45,780.78a184.33,184.33,0,0,1,26.38-1.9c17,0,28.53,3.5,36.89,10.51,8.87,7.14,14.26,18,14.26,33.38,0,16.29-5.51,28.27-14.14,36.08-9,8.21-23.42,12.38-41.06,12.38a187.2,187.2,0,0,1-22.33-1.2V780.78m16.56,77a62,62,0,0,0,9.15.4c21.53.13,34.32-11.85,34.32-34.88.14-19.9-11.45-31.5-32.16-31.5a53.54,53.54,0,0,0-11.31,1Z"/><path class="cls-4" d="M214.41,842.16c.4,11.84,9.55,17,20.2,17a52.87,52.87,0,0,0,18.18-3l2.41,11.31c-5.67,2.44-13.47,4.18-22.9,4.18-21.24,0-33.77-13.07-33.77-33.11,0-18.18,11-35.28,32-35.28,21.27,0,28.27,17.51,28.27,31.91a41.64,41.64,0,0,1-.54,7H214.41m28.79-11.58c.16-6.06-2.54-16-13.57-16-10.24,0-14.56,9.3-15.22,16Z"/><path class="cls-4" d="M365.7,867.74c-3.89,1.88-12.52,4-23.56,4-28.81,0-46.3-18-46.3-45.77,0-29.88,20.87-47.93,48.6-47.93,10.9,0,18.57,2.29,21.92,4l-3.48,13.19a44.94,44.94,0,0,0-17.77-3.51c-18.44,0-31.78,11.6-31.78,33.39,0,20.06,11.58,32.71,31.63,32.71A50.21,50.21,0,0,0,363,854.67l2.69,13.07"/><path class="cls-4" d="M386,804.74l11.71,35.13c1.35,4,2.82,9,3.77,12.65h.41c.93-3.63,2.13-8.61,3.48-12.78l10.24-35h17.63l-16.41,44.68c-9,24.5-15.07,35.42-22.75,42.14a34.88,34.88,0,0,1-17.38,8.34L373,886a30.7,30.7,0,0,0,18.71-14.94,6.08,6.08,0,0,0,.94-3,8.47,8.47,0,0,0-.79-3.24L367.7,804.74H386"/><path class="cls-4" d="M442.81,824.26c0-7.55-.28-13.87-.54-19.52h14.14l.81,9.68h.41c3.08-5.11,9-11.17,20.18-11.17,8.61,0,15.35,4.84,18.17,12.12h.27a26.07,26.07,0,0,1,7.94-8.21,22.75,22.75,0,0,1,13.47-3.91c10.77,0,21.82,7.42,21.82,28.41v38.62H523.31V834.07c0-10.9-3.77-17.36-11.7-17.36-5.67,0-9.84,4-11.59,8.75a17.88,17.88,0,0,0-.79,5.53v39.29H483.07v-38c0-9.15-3.65-15.61-11.3-15.61-6.21,0-10.39,4.85-12,9.3a19.59,19.59,0,0,0-.79,5.52v38.75H442.81v-46"/><path class="cls-4" d="M557,825.86c0-8.89-.15-15.34-.53-21.12h14.26l.66,12.38h.43c3.22-9.17,10.9-13.87,18-13.87a17.7,17.7,0,0,1,3.88.41v15.49a26.31,26.31,0,0,0-5-.4c-7.79,0-13.31,5-14.8,12.51a29.48,29.48,0,0,0-.39,5v34H557V825.86"/><path class="cls-4" d="M663.56,850.64c0,7.8.27,14.26.55,19.64H649.68l-.79-9.81h-.41c-2.82,4.57-9.29,11.31-21.13,11.31s-22.76-7.13-22.76-28.54v-38.5h16.55v35.67c0,10.89,3.5,17.9,12.25,17.9a13.48,13.48,0,0,0,12.67-8.89,12,12,0,0,0,1-5.12V804.74h16.55v45.9"/></g></g></g></svg>