<svg id="Layer_1" data-name="Layer 1" xmlns="http://www.w3.org/2000/svg" viewBox="0 0 1325.98 397.99"><defs><style>.cls-1{fill:#3f403e;}.cls-2{fill:#22aee4;}.cls-3{fill:#992065;}.cls-4{fill:#8cb53f;}.cls-5{font-size:43.7px;fill:#fff;font-family:Bariol-Bold, Bariol;font-weight:700;}.cls-6{letter-spacing:-0.01em;}.cls-7{letter-spacing:0.34em;}.cls-8{letter-spacing:2.77em;}.cls-9{letter-spacing:1.71em;}.cls-10{letter-spacing:0em;}.cls-11{letter-spacing:-0.04em;}.cls-12{letter-spacing:0em;}.cls-13{letter-spacing:-0.07em;}.cls-14{letter-spacing:2.33em;}.cls-15{letter-spacing:-0.04em;}.cls-16{letter-spacing:0em;}.cls-17{letter-spacing:-0.05em;}.cls-18{letter-spacing:-0.01em;}.cls-19{letter-spacing:0em;}.cls-20{letter-spacing:0.03em;}.cls-21{letter-spacing:1.71em;}.cls-22{letter-spacing:1.61em;}.cls-23{letter-spacing:-0.03em;}.cls-24{letter-spacing:2.02em;}.cls-25{letter-spacing:-0.03em;}.cls-26{letter-spacing:1.01em;}.cls-27{letter-spacing:-0.09em;}.cls-28{letter-spacing:2.16em;}.cls-29{letter-spacing:-0.02em;}.cls-30{letter-spacing:-0.05em;}.cls-31{letter-spacing:-0.04em;}.cls-32{letter-spacing:1.58em;}.cls-33{letter-spacing:-0.11em;}.cls-34{letter-spacing:0.54em;}.cls-35{letter-spacing:1.95em;}.cls-36{letter-spacing:2.21em;}.cls-37{letter-spacing:-0.07em;}</style></defs><rect class="cls-1" y="302.01" width="1325.98" height="100"/><rect class="cls-2" y="202.01" width="1325.98" height="100"/><rect class="cls-3" y="102.01" width="1325.98" height="100"/><rect class="cls-4" y="2.01" width="1325.98" height="100"/><text class="cls-5" transform="translate(24.88 63.81)">G<tspan class="cls-6" x="29.5" y="0">r</tspan><tspan x="43.22" y="0">een</tspan><tspan class="cls-7" x="106.19" y="0">	</tspan><tspan class="cls-8" x="131.1" y="0">	</tspan><tspan x="262.21" y="0">#8DB403</tspan><tspan class="cls-9" x="439.63" y="0">	</tspan><tspan class="cls-10" x="524.41" y="0">rgb( 1</tspan><tspan class="cls-11" x="621.16" y="0">41,</tspan><tspan class="cls-12" x="665.74" y="0" xml:space="preserve"> 18</tspan><tspan class="cls-13" x="716.21" y="0">0</tspan><tspan class="cls-11" x="739.85" y="0">,</tspan><tspan x="747.94" y="0" xml:space="preserve"> 3 )</tspan><tspan class="cls-14" x="806.06" y="0">	</tspan><tspan x="917.72" y="0">cmky( 22</tspan><tspan class="cls-11" x="1083.69" y="0">,</tspan><tspan x="1091.78" y="0"> </tspan><tspan class="cls-13" x="1101.65" y="0">0</tspan><tspan class="cls-15" x="1125.29" y="0">,</tspan><tspan class="cls-16" x="1133.38" y="0" xml:space="preserve"> 9</tspan><tspan class="cls-17" x="1168.95" y="0">8</tspan><tspan class="cls-11" x="1191.9" y="0">,</tspan><tspan x="1199.98" y="0" xml:space="preserve"> 29 )</tspan></text><text class="cls-5" transform="translate(24.81 163.51)">Ras<tspan class="cls-18" x="63.67" y="0">p</tspan><tspan x="85.7" y="0">be</tspan><tspan class="cls-19" x="128.17" y="0">r</tspan><tspan class="cls-20" x="142.11" y="0">r</tspan><tspan x="157.8" y="0">y</tspan><tspan class="cls-21" x="177.55" y="0">	</tspan><tspan x="262.2" y="0">#9A0A63</tspan><tspan class="cls-22" x="444.39" y="0">	</tspan><tspan class="cls-12" x="524.41" y="0">rgb( 15</tspan><tspan class="cls-23" x="646.33" y="0">4</tspan><tspan class="cls-11" x="669.54" y="0">,</tspan><tspan x="677.62" y="0" xml:space="preserve"> 1</tspan><tspan class="cls-13" x="702.97" y="0">0</tspan><tspan class="cls-11" x="726.61" y="0">,</tspan><tspan x="734.69" y="0" xml:space="preserve"> 99 )</tspan><tspan class="cls-24" x="819.6" y="0">	</tspan><tspan x="917.72" y="0">cmky( </tspan><tspan class="cls-13" x="1035.36" y="0">0</tspan><tspan class="cls-15" x="1059" y="0">,</tspan><tspan x="1067.09" y="0" xml:space="preserve"> 9</tspan><tspan class="cls-25" x="1102.66" y="0">4</tspan><tspan class="cls-11" x="1125.86" y="0">,</tspan><tspan x="1133.95" y="0" xml:space="preserve"> 3</tspan><tspan class="cls-13" x="1168.43" y="0">6</tspan><tspan class="cls-15" x="1191.06" y="0">,</tspan><tspan x="1199.15" y="0" xml:space="preserve"> 40 )</tspan></text><text class="cls-5" transform="translate(24.91 263.11)">Blue<tspan class="cls-26" x="77.22" y="0">	</tspan><tspan class="cls-8" x="131.1" y="0">	</tspan><tspan x="262.21" y="0">#1</tspan><tspan class="cls-27" x="302.63" y="0">F</tspan><tspan x="321.55" y="0">AFE6</tspan><tspan class="cls-28" x="420.23" y="0">	</tspan><tspan class="cls-12" x="524.41" y="0">rgb( </tspan><tspan class="cls-29" x="605.69" y="0">3</tspan><tspan class="cls-11" x="629.42" y="0">1,</tspan><tspan class="cls-12" x="651.23" y="0" xml:space="preserve"> 17</tspan><tspan class="cls-30" x="698.73" y="0">5</tspan><tspan class="cls-31" x="721.72" y="0">,</tspan><tspan class="cls-16" x="729.8" y="0" xml:space="preserve"> 230 )</tspan><tspan class="cls-32" x="838.79" y="0">	</tspan><tspan x="917.72" y="0" xml:space="preserve">cmky(  8</tspan><tspan class="cls-33" x="1070.37" y="0">7</tspan><tspan class="cls-15" x="1087.72" y="0">,</tspan><tspan x="1095.8" y="0" xml:space="preserve"> 42</tspan><tspan class="cls-11" x="1154.36" y="0">,</tspan><tspan x="1162.44" y="0"> </tspan><tspan class="cls-13" x="1172.32" y="0">0</tspan><tspan class="cls-11" x="1195.96" y="0">,</tspan><tspan x="1204.04" y="0" xml:space="preserve"> 10 )</tspan></text><text class="cls-5" transform="translate(24.47 363.25)">Legacy Bla<tspan class="cls-18" x="189.66" y="0">c</tspan><tspan x="208.93" y="0">k</tspan><tspan class="cls-34" x="228.73" y="0">	</tspan><tspan x="262.21" y="0">#3F3F3E</tspan><tspan class="cls-35" x="429.53" y="0">	</tspan><tspan class="cls-12" x="524.41" y="0">rgb( 6</tspan><tspan class="cls-17" x="631.39" y="0">3</tspan><tspan class="cls-11" x="653.81" y="0">,</tspan><tspan x="661.89" y="0" xml:space="preserve"> 6</tspan><tspan class="cls-17" x="697.47" y="0">3</tspan><tspan class="cls-15" x="719.88" y="0">,</tspan><tspan x="727.97" y="0" xml:space="preserve"> 62 )</tspan><tspan class="cls-36" x="811.35" y="0">	</tspan><tspan x="917.72" y="0" xml:space="preserve">cmky(  </tspan><tspan class="cls-37" x="1045.24" y="0">0</tspan><tspan class="cls-15" x="1068.88" y="0">,</tspan><tspan x="1076.96" y="0"> </tspan><tspan class="cls-13" x="1086.84" y="0">0</tspan><tspan class="cls-11" x="1110.48" y="0">,</tspan><tspan x="1118.57" y="0"> </tspan><tspan class="cls-13" x="1128.44" y="0">0</tspan><tspan class="cls-11" x="1152.09" y="0">,</tspan><tspan x="1160.17" y="0" xml:space="preserve"> 75 )</tspan></text></svg>