<svg id="Layer_1" data-name="Layer 1" xmlns="http://www.w3.org/2000/svg" viewBox="0 0 1325.98 400"><defs><style>.cls-1,.cls-5{fill:#fff;}.cls-2{fill:#95918f;}.cls-3{fill:#4b4a48;}.cls-4{fill:#e7cb1d;}.cls-20,.cls-5{font-size:43.7px;font-family:Bariol-Bold, Bariol;font-weight:700;}.cls-6{letter-spacing:-0.01em;}.cls-7{letter-spacing:1.63em;}.cls-8{letter-spacing:2em;}.cls-9{letter-spacing:0em;}.cls-10{letter-spacing:-0.07em;}.cls-11{letter-spacing:-0.04em;}.cls-12{letter-spacing:-0.05em;}.cls-13{letter-spacing:1.2em;}.cls-14{letter-spacing:-0.04em;}.cls-15{letter-spacing:-0.03em;}.cls-16{letter-spacing:1.78em;}.cls-17{letter-spacing:1.84em;}.cls-18{letter-spacing:-0.08em;}.cls-19{letter-spacing:2.72em;}.cls-21{letter-spacing:-0.02em;}.cls-22{letter-spacing:0.22em;}.cls-23{letter-spacing:2.77em;}.cls-24{letter-spacing:2.04em;}.cls-25{letter-spacing:0em;}.cls-26{letter-spacing:-0.02em;}.cls-27{letter-spacing:1.44em;}.cls-28{letter-spacing:-0.01em;}.cls-29{letter-spacing:0.45em;}.cls-30{letter-spacing:2.07em;}.cls-31{letter-spacing:-0.07em;}.cls-32{letter-spacing:-0.04em;}.cls-33{letter-spacing:-0.07em;}.cls-34{letter-spacing:-0.04em;}.cls-35{letter-spacing:0.86em;}.cls-36{letter-spacing:2.77em;}</style></defs><rect class="cls-1" y="300" width="1325.98" height="100"/><rect class="cls-2" y="200" width="1325.98" height="100"/><rect class="cls-3" y="100" width="1325.98" height="100"/><rect class="cls-4" width="1325.98" height="100"/><text class="cls-5" transform="translate(24.47 261.43)">Light G<tspan class="cls-6" x="126.91" y="0">r</tspan><tspan x="140.63" y="0">ey</tspan><tspan class="cls-7" x="180.96" y="0">	</tspan><tspan x="262.21" y="0">#95918F</tspan><tspan class="cls-8" x="427.17" y="0">	</tspan><tspan class="cls-9" x="524.41" y="0">rgb( 14</tspan><tspan class="cls-10" x="645.68" y="0">9</tspan><tspan class="cls-11" x="668.32" y="0">,</tspan><tspan x="676.4" y="0" xml:space="preserve"> 14</tspan><tspan class="cls-12" x="726.26" y="0">5</tspan><tspan class="cls-11" x="749.25" y="0">,</tspan><tspan x="757.33" y="0" xml:space="preserve"> 143 )</tspan><tspan class="cls-13" x="855.44" y="0">	</tspan><tspan x="917.72" y="0">c</tspan><tspan class="cls-6" x="937.43" y="0">m</tspan><tspan x="971.73" y="0">yk( </tspan><tspan class="cls-10" x="1034.92" y="0">0</tspan><tspan class="cls-11" x="1058.57" y="0">,</tspan><tspan x="1066.65" y="0"> </tspan><tspan class="cls-12" x="1076.53" y="0">3</tspan><tspan class="cls-14" x="1098.94" y="0">,</tspan><tspan x="1107.03" y="0"> </tspan><tspan class="cls-15" x="1116.91" y="0">4</tspan><tspan class="cls-14" x="1140.11" y="0">,</tspan><tspan x="1148.19" y="0" xml:space="preserve"> 42 )</tspan></text><text class="cls-5" transform="translate(25 161.43)">Dark G<tspan class="cls-6" x="120.66" y="0">r</tspan><tspan x="134.38" y="0">ey</tspan><tspan class="cls-16" x="174.71" y="0">	</tspan><tspan x="262.21" y="0">#4A494</tspan><tspan class="cls-11" x="413.67" y="0">7</tspan><tspan class="cls-17" x="434.08" y="0">	</tspan><tspan class="cls-9" x="524.41" y="0">rgb( </tspan><tspan class="cls-18" x="605.69" y="0">7</tspan><tspan class="cls-15" x="624.13" y="0">4</tspan><tspan class="cls-14" x="647.34" y="0">,</tspan><tspan x="655.42" y="0" xml:space="preserve"> 7</tspan><tspan class="cls-12" x="687.45" y="0">3</tspan><tspan class="cls-11" x="709.87" y="0">,</tspan><tspan x="717.96" y="0" xml:space="preserve"> 71 )</tspan><tspan class="cls-19" x="789.1" y="0">	</tspan><tspan x="917.72" y="0">c</tspan><tspan class="cls-6" x="937.43" y="0">m</tspan><tspan x="971.73" y="0">yk( </tspan><tspan class="cls-10" x="1034.92" y="0">0</tspan><tspan class="cls-11" x="1058.56" y="0">,</tspan><tspan x="1066.65" y="0"> </tspan><tspan class="cls-11" x="1076.52" y="0">1,</tspan><tspan x="1098.33" y="0"> </tspan><tspan class="cls-15" x="1108.21" y="0">4</tspan><tspan class="cls-14" x="1131.41" y="0">,</tspan><tspan x="1139.5" y="0" xml:space="preserve"> 71 )</tspan></text><text class="cls-20" transform="translate(25 61.43)"><tspan class="cls-10">Y</tspan><tspan x="21.15" y="0">ell</tspan><tspan class="cls-21" x="62.97" y="0">o</tspan><tspan x="83.99" y="0">w</tspan><tspan class="cls-22" x="111.78" y="0">	</tspan><tspan class="cls-23" x="131.1" y="0">	</tspan><tspan x="262.2" y="0">#E7CB1B</tspan><tspan class="cls-24" x="425.25" y="0">	</tspan><tspan class="cls-25" x="524.41" y="0">rgb( 2</tspan><tspan class="cls-26" x="629.86" y="0">3</tspan><tspan class="cls-14" x="653.59" y="0">1,</tspan><tspan class="cls-9" x="675.4" y="0" xml:space="preserve"> 20</tspan><tspan class="cls-12" x="736.14" y="0">3</tspan><tspan class="cls-11" x="758.56" y="0">,</tspan><tspan x="766.64" y="0" xml:space="preserve"> 2</tspan><tspan class="cls-14" x="800.68" y="0">7</tspan><tspan x="821.09" y="0" xml:space="preserve"> )</tspan><tspan class="cls-27" x="844.73" y="0">	</tspan><tspan x="917.72" y="0">c</tspan><tspan class="cls-28" x="937.43" y="0">m</tspan><tspan x="971.73" y="0">yk( </tspan><tspan class="cls-10" x="1034.92" y="0">0</tspan><tspan class="cls-14" x="1058.57" y="0">,</tspan><tspan x="1066.65" y="0" xml:space="preserve"> 12</tspan><tspan class="cls-11" x="1116.16" y="0">,</tspan><tspan x="1124.25" y="0" xml:space="preserve"> 8</tspan><tspan class="cls-12" x="1159.25" y="0">8</tspan><tspan class="cls-11" x="1182.19" y="0">,</tspan><tspan x="1190.28" y="0" xml:space="preserve"> 9 )</tspan></text><text class="cls-20" transform="translate(24.88 361.8)">White<tspan class="cls-29" x="101.69" y="0">	</tspan><tspan class="cls-23" x="131.1" y="0">	</tspan><tspan x="262.21" y="0">#FFFFFF</tspan><tspan class="cls-30" x="424.29" y="0">	</tspan><tspan class="cls-9" x="524.41" y="0">rgb( </tspan><tspan class="cls-31" x="605.69" y="0">0</tspan><tspan class="cls-32" x="629.34" y="0">,</tspan><tspan class="cls-25" x="637.42" y="0"> </tspan><tspan class="cls-33" x="647.3" y="0">0</tspan><tspan class="cls-34" x="670.94" y="0">,</tspan><tspan class="cls-25" x="679.02" y="0" xml:space="preserve"> 0 )</tspan><tspan class="cls-35" x="739.24" y="0">	</tspan><tspan class="cls-36" x="786.62" y="0">	</tspan><tspan x="917.72" y="0">cmky( </tspan><tspan class="cls-10" x="1035.36" y="0">0</tspan><tspan class="cls-14" x="1059" y="0">,</tspan><tspan x="1067.09" y="0"> </tspan><tspan class="cls-10" x="1076.96" y="0">0</tspan><tspan class="cls-11" x="1100.61" y="0">,</tspan><tspan x="1108.69" y="0"> </tspan><tspan class="cls-10" x="1118.57" y="0">0</tspan><tspan class="cls-11" x="1142.21" y="0">,</tspan><tspan x="1150.29" y="0" xml:space="preserve"> 0 )</tspan></text></svg>