<svg xmlns="http://www.w3.org/2000/svg" viewBox="0 0 421.8 400.7"><defs><style>.cls-1{fill:#020203;}</style></defs><title>welshGov_logo_portrait_black</title><g id="Layer_2" data-name="Layer 2"><g id="Layer_1-2" data-name="Layer 1"><path class="cls-1" d="M53.5,94.8s1.5-3.7,4.4-5.2,7-1.8,11.8-1.2c4.1.4,12.6,4.2,24.8,14.3,17.1,14.1,23.2,22.8,23.3,22.4,1.1-3.4,5.1-10.1,5.1-10.1-8.1-7-36.2-25.4-45-28.8-9.7-3.9-23.3-4.9-24.4,8.6m10.2-17c11.9-3,13.2,4.8,15.7,6.7L88.5,90C76.2,62.8,63.7,77.8,63.7,77.8"/><path class="cls-1" d="M69,91.6c28.3,20.6,4.6,30.3,4.6,30.3,5.6,2.3,10,.7,12.4-2.9a25.06,25.06,0,0,0,2.2-4.3,15.79,15.79,0,0,0,.9-4.1c10,9.8,21,26.5,28.1,35.4-2.2-8.6-.5-12.5-1.2-13.3-8.5-10.2-11.4-13.8-16.9-20C82.2,94.2,69,91.6,69,91.6m117-2.2c-1.3-3.4-.9-13.2-.6-15a76.19,76.19,0,0,0,3.4-11l.6.3,4.4,2.8c-1.8-2.3-3.6-8.4-4.5-12-.1-.5-.2-1-.3-1.4a32.47,32.47,0,0,0-5.9-12.4s2.9,7.5,2,13.6c-.9,12.7-18.9,27.3-14.8,49.5,2.3,12.3,14.6,22,14.6,22s-3.9-8.1-6.7-23.3c-1.1-6,.8-10.7,3.5-17.9l1,.9Z"/><path class="cls-1" d="M310,2.3s-31.9,5.2-47.7,10.3-38.8,15.2-49.2,28.2-1.6,33.8-4.2,47.6-23.1,27.8-23.1,27.8,23.8-6.2,32.5-25.4c6.4-14.1-1.8-23.9,8.1-45.7S310,2.3,310,2.3"/><path class="cls-1" d="M310.9,3.9s-26.3,8.2-34.6,34l11.8-2.6c0-.1.1-16.1,22.8-31.4m41.8,35.5s-41.5-8.2-82.2,3.9-35,33.3-35.4,45.2-10.4,38.3-46.3,34.9c0,0,21.3,11.6,45-7.6s7.1-42.3,26.1-53.3c18.9-11.2,33.7-20.4,92.8-23.1"/><path class="cls-1" d="M249.4,98.5s16.2,2.2,25.8,13.4c0,0-13.1-10.1-27.9-7.5a32.74,32.74,0,0,0,2.1-5.9m70.1-17.8s-39.1,1-39.5,33.9c-.7-1.2-21.6-37.4,39.5-33.9m30.3-39.2c-39.4,8.2-30.3,39.2-30.3,39.2-20.1-39.8,30.3-39.2,30.3-39.2M240.7,143.9c10.2-27.8,38.1-28.9,39.1-29-29.6-5.8-37.1,9.2-38.8,19.7a314.77,314.77,0,0,0-47-5.4c30.4,4.3,46.7,14.7,46.7,14.7M81,226.8a26.19,26.19,0,0,1,13.6-2.7c4.5.4,13.2-2.9,13.2-2.9-3.7,0-12.3-4.3-20-3.4s-6.8,9-6.8,9m145.6-20s-.6-6,5.1-6.7,12.2,2.5,15,2.5c0,0-6.5,2.5-9.9,2.2a20.24,20.24,0,0,0-10.2,2m55.9,22.7a23.56,23.56,0,0,1,12.2-2.5,67.34,67.34,0,0,0,10.3-.2c-3.3,0-8.5-6.8-16.4-5.4-6.8,1.1-6.1,8.1-6.1,8.1M316.3,79.2c-47.7-11.4-62.5-3.1-62.5-3.1s1-2.7,1.7-4.2c1.1-2.4,1.4-3,1.7-3.6,34.9-1.4,59.1,10.9,59.1,10.9M133.7,49.3s-5.4-5.7-11.7-5.7c-9.1,0-16.7,9.7-24.7,9.8s-12.2-2.7-12.2-2.7,4.9,6.6,12.6,6.6c10,0,17.4-9.9,24.1-9.9a35.14,35.14,0,0,1,11.9,1.9m20.8,10.3s1.4,5.1.6,14.3c-.8,15.9-31.8,37.8-31.3,64.1.2,15.7,11.9,25.1,11.9,25.1s-5.2-13.9-2.9-27.7c3.2-19.3,27.4-41.3,26.6-60.2-.5-11.2-4.9-15.6-4.9-15.6"/><path class="cls-1" d="M139.8,162.9s-4.7-11-1.2-20.9c2.3-6.3,8.3-11.7,20.1-14.7,0,0-20.6,18.9-5.4,35.1,0,0-10.8,11.5-14.9,21.3s-13.1,30.4-16,35.1-7.2,10.9-19,16.2c-13.1,1.2-27.4,3.4-28.3,13.5,0,0-2.5-2.5-2.3-8.9s10.8-13.5,21.8-13.2,20.9-2.5,26.1-15.8,16.4-45.4,19.1-47.7"/><path class="cls-1" d="M157.4,163.9s-16.7,51.7-46.2,70.7c0,0,18-2.6,23.5-.4s11.3,6,5.9,14.7c0,0,10.7-5.9,7.7-14.7-2.3-7-12.8-7.5-12.8-7.5s-3-1.3-1.3-5.8,13-19.4,14.8-22.1,16.4-24.8,17-26.1c0,0,12.9,1.8,19-10.5,6.4-12.8-7.3-25.1-7.3-25.1s6.1,13.7-.9,20.5c-8.3,7.9-19.4,6.3-19.4,6.3"/><path class="cls-1" d="M171.7,175.9s6.2-1.3,8.3-2.9c0,0,2.9,3.1,14.8,2.8h2c13.2-1.7,29.3-6.4,54.6-17l2.8,4.5c-19.7,6.7-43.5,25.5-73.4,22.6-2.1-.2-11.9-2.2-14-2.8,1.2-1.6,4.9-7.2,4.9-7.2m85.2,24.9c-2.6,4.3-6.4,10-14.6,12.7-8.9-.2-19.5,2-20.2,9.6,0,0-1.9-1.9-1.7-6.7s6.7-10,16.4-9.5c8.3.4,13.6-3,17.2-12.1,2.4-6.1-.2-19.2,3.1-27.5,0,0,4.5,3.5,6.5,5.1,0,0,.2-.1-.8,2.2-3.2,7.4-1.7,18-5.9,26.2"/><path class="cls-1" d="M269.4,175.2a57.48,57.48,0,0,0,5,3c-2,4.9-2.7,8.1-3.1,9.1-.8,2.3-3.6,11.8-4.9,15.1s.9,4.3.9,4.3,7.9.4,9.6,5.7c2.2,6.6-5.8,11-5.8,11,4-6.5-.2-9.3-4.4-11s-16.4.3-16.4.3c12.9-7,17.1-32.7,19.1-37.5"/><path class="cls-1" d="M318,227.3s3.4,7.1,1.5,9.7c-7.7.2-13,0-24.4,1.2-10.6,1.1-17.4,1.8-18.2,10.9,0,0-2.3-2.3-2.1-8s9.7-12.2,19.7-11.8c0,0,12.5.2,13.9-.5,3-1.6-4.6-16.1-5.9-18.7-11.1-22.1-10.8-29.3-11.3-30.4,0,0-31-5.7-38.6-26.8,24.6,20.8,45,20.6,45,20.6,2.4,9.9,13,39.6,20.4,53.8m7.8-116.4a89.74,89.74,0,0,1,9,.1C348.2,82.3,371,52.5,371,35c0-11.3-7.8-18.9-7.8-18.9l-1.3,4.3s-6.4-14.5-11-18.1l.1.1s14.6,5.8,19.5,9.8v-.1l-3.7,1h-.2c9.3,8.5,8.8,22.1,8.8,22.1.8,20.8-21.7,44.8-34.7,76.4,29.5,3.6,50.1,21.9,50.1,41.8.1,27.9-17,37.8-32.5,38a33.75,33.75,0,0,1-18.7-5c-8.3-4.9-15.2-14-15.3-31.7a90.11,90.11,0,0,1,6.3-34.3l-.1-.1a123,123,0,0,0-20.1,2.4s-5.5,1.6-7.9,2.4c6.6,3.8,13,10.1,15.3,19.9,1.4,7,.8,16-2.7,27.4-.7,11.1,4.2,27.7,8,39.9l4.2,11.2c2.3,5,5.7,6.3,5.7,6.3s8.6,1.2,11.1,6.5c3.3,7-2.3,10.5-2.3,10.5,2-8.4-5.3-9.3-9.5-9.9H332a27.26,27.26,0,0,0-7-.2c.5-2.8-4.9-17.9-4.6-16.9,0,0-7-20-9.9-28.8-3.1-9-5.2-21.9-5.2-21.9s20.8-34.8-25.9-50.4a33.54,33.54,0,0,1,5.8,0,86.15,86.15,0,0,1,12.1-3.5,117.1,117.1,0,0,1,28.5-4.3m11.6,9.4a102.46,102.46,0,0,0-5.6,36.9c.4,12.2,8.4,29.2,27.7,27.4,10-.9,16.3-7.4,19.5-14a36.51,36.51,0,0,0,3.5-15.7s.2-12.6-11.9-23.3c-6.7-6-17-10.7-33.2-11.3M130.7,31s-16.2-5.1-26.2,3.1l5.3,9.1s15.3-12.5,26.7,5.4c0,0-8.4,11.1-26.2,8,0,0,4.9,8.3,16.7,8.2s23.3-12,27-8c0,0-1.3-16.9,19.4-23,0,0,4.7,3.8,5.6,6,0,0,6.8-5.4,6.4-18.5A27.21,27.21,0,0,0,175,0a26.46,26.46,0,0,1-1.9,15.1c-2,4.2-6.5,9.5-13.3,9.8a38.06,38.06,0,0,1-9.3-1c-3.9-1.1-18.7-6.1-19.8,7.1m18-1.2s-4.9,8.5-12.6,3.6c0,0,.2-5,4.5-4.6s3.8,2.3,8.1,1M7.4,297.4h4.9l.1,35H25.3v4.2l-17.8.1Z"/><path class="cls-1" d="M29.17,294.48h4.7v42.2h-4.7Z"/><path class="cls-1" d="M52.1,342.4c-1.4,4.9-3.4,6.7-7,6.7a15.14,15.14,0,0,1-3.2-.3l.2-4.3a6.64,6.64,0,0,0,2.6.6c1.4,0,2.4-.6,3.1-3.6l1.1-4.4L39.8,308h5l6.5,23.4h.1L57.3,308H62l-9.9,34.4Zm43.3-5.9H90l-6.1-24.3h-.1l-5.5,24.3H72.9l-7.6-28.7h4.9l5.5,24h.1l5.4-24h5.7l5.7,24h.1l5.4-24h4.7Zm21.5-29.2c7.6,0,11.5,5.7,11.6,14.7s-3.9,14.8-11.5,14.8-11.6-5.7-11.6-14.7,3.9-14.7,11.5-14.8m0,25.7c4.5,0,6.6-3.7,6.6-10.9s-2.1-10.9-6.6-10.9-6.6,3.7-6.6,10.9,2.1,10.9,6.6,10.9m37.7-1.9c0,1.7.2,3.5.2,5.3h-4.6l-.2-4.2h-.1a8,8,0,0,1-7.5,4.6c-5.9,0-9.9-4.8-9.9-14.7s4-14.8,9.9-14.8c3.3,0,5.4,1.3,7.3,4.3h.1V294.1h4.7l.1,37Zm-11.1-20c-4.3,0-6.3,3.7-6.3,10.9s2,10.9,6.3,10.9,6.3-3.7,6.3-10.9-2-10.9-6.3-10.9m17.4,2.7c0-2.1-.2-4.2-.2-6.2h4.6l.2,4.5h.1c1.5-3.5,3.9-4.9,8.2-4.9v4.7a11,11,0,0,0-1.8-.2c-3.7,0-6.2,3.2-6.2,9.4v15.2h-4.7l-.2-22.5Zm17.8-4.2a15.62,15.62,0,0,1,8.1-2.4,11.08,11.08,0,0,1,7.7,2.7c1.2,1.2,2.5,3,2.5,7v15c0,1.7.1,3.4.2,4.4h-4.3l-.3-3.9a8.7,8.7,0,0,1-8,4.3c-4.7,0-8.3-2.7-8.3-8.3s3.6-9.7,13.5-9.7h2.8v-1.3c0-2.1-.2-3.4-1.1-4.6s-2.8-1.8-4.8-1.8a10.41,10.41,0,0,0-7.4,3l-.6-4.4Zm13.8,12.6a31.19,31.19,0,0,0-3.3-.1c-5.6,0-8.2,2.7-8.2,6,0,3,1.6,5,4.9,5,4.1,0,6.7-3.3,6.7-7.3l-.1-3.6Zm14.7,1.1c0,6.6,2.6,9.7,7.8,9.7a12.27,12.27,0,0,0,6.6-2.4l.2,4.3a18.78,18.78,0,0,1-8,1.7c-7.6,0-11.6-5.7-11.6-14.7s3.9-14.8,11.1-14.8c6.5,0,10.1,5.2,10.1,13.6v2.5l-16.2.1Zm11.5-3.6c0-6-1.9-8.9-5.6-8.9-3,0-5.7,2.3-5.8,9l11.4-.1Zm22.7,16.1a12.9,12.9,0,0,1-4,.7c-4.3,0-6.6-1.7-6.7-6.8V311.2h-4.6v-3.8h4.6v-5.8l4.7-1.4v7.3h5.9v3.8h-5.9v16.9c0,3.3.9,4.5,3,4.5a6.53,6.53,0,0,0,2.9-.7Zm3.9-41.9H250v17.5h.1a7.73,7.73,0,0,1,7-4.3c5,0,8.4,2.9,8.4,9.2v19.9h-4.7V317.7c0-4.6-1.7-6.5-4.7-6.5-3.7,0-6.1,2.6-6.1,7.8v17.3h-4.7V293.9Zm64.8,41.3a25.77,25.77,0,0,1-7.1,1.2c-12.4,0-17.7-9.4-17.7-20.1,0-12.3,7.1-20,17.4-20a17.75,17.75,0,0,1,7.4,1.4v4.8a13.88,13.88,0,0,0-7.4-2c-6.4,0-12.3,5.1-12.2,14.7,0,10.1,4.1,16.8,12.6,16.8a13.84,13.84,0,0,0,7-1.9v5.1Zm15.2,6.6c-1.4,4.9-3.4,6.7-7,6.7a15.14,15.14,0,0,1-3.2-.3l.2-4.3a6.64,6.64,0,0,0,2.6.6c1.4,0,2.4-.6,3.1-3.6l1.1-4.4L313,307.4h5l6.5,23.4h.1l5.9-23.4h4.7l-9.9,34.4Zm13.8-28.4c0-2.1-.2-4.2-.2-6.2h4.6l.2,4.3h.1a7.23,7.23,0,0,1,7.1-4.7c3,0,5.3,1.6,6.8,4.5,1.5-2.8,3.7-4.5,7-4.5,5,0,8.3,2.9,8.4,9.2v19.9h-4.7V316.2c0-3.7-1.6-5.3-4.4-5.3-3.5,0-5.4,2.1-5.4,7.3v17.7h-4.7V316.2c0-3.7-1.6-5.3-4.4-5.3-3.5,0-5.4,2.1-5.4,7.3v17.7h-4.7l-.3-22.5Zm39.5-.1c0-2.1-.2-4.2-.2-6.2H383l.2,4.5h.1c1.5-3.5,3.9-4.9,8.2-4.9v4.7a11,11,0,0,0-1.8-.2c-3.7,0-6.2,3.2-6.2,9.4v15.2h-4.7l-.2-22.5Zm37,16.3c0,2.1.2,4.2.2,6.2h-4.6l-.2-4.3h-.1a7.32,7.32,0,0,1-7.3,4.7c-5,0-8.4-2.9-8.4-9.2V307.1h4.7v18.5c0,4.6,1.7,6.5,4.7,6.5,3.7,0,6.1-2.6,6.1-7.8V307h4.7l.2,22.6ZM8,361.1h5.2L19.7,393h.1l6.9-31.9H33l7.1,31.8h.2l6.8-31.8,4.7-.1-8.5,39.4H37.5L30,366.7h-.2l-7.3,33.7H16.6Zm49.9,26.3c0,6.6,2.6,9.7,7.8,9.7a12.27,12.27,0,0,0,6.6-2.4l.2,4.3a18.78,18.78,0,0,1-8,1.7c-7.6,0-11.6-5.7-11.6-14.7s3.9-14.8,11.1-14.8c6.5,0,10.1,5.2,10.1,13.6v2.5l-16.2.1Zm11.5-3.7c0-6-1.9-9-5.6-8.9-3,0-5.7,2.3-5.8,9Z"/><path class="cls-1" d="M80,358.19h4.7v42.2H80Z"/><path class="cls-1" d="M92.9,394.7a12.94,12.94,0,0,0,6.8,2.1c3.6,0,5.5-1.9,5.5-4.1,0-2-1-3.3-3.7-4.5l-3.2-1.4c-4.1-1.8-5.6-3.7-5.6-7.4,0-4.7,3.6-8.3,9.2-8.4a18.1,18.1,0,0,1,6.1,1l-.2,4.1a13.6,13.6,0,0,0-5.6-1.2c-3.1,0-4.7,1.7-4.7,4s1.7,3.6,4.9,4.8l1.7.7c3.5,1.4,5.7,3.8,5.7,7.3,0,5-2.6,8.9-9.2,8.9a17,17,0,0,1-7.8-1.7l.1-4.2Zm22-36.7h4.7v17.4h.1a7.73,7.73,0,0,1,7-4.3c5,0,8.4,2.9,8.4,9.2v19.9h-4.7V381.7c0-4.6-1.7-6.5-4.7-6.5-3.7,0-6.1,2.6-6.1,7.8v17.3h-4.7Zm67.4,40.4a31.71,31.71,0,0,1-9.7,2.1c-12.4,0-17.7-9.4-17.7-20.1,0-12.3,7.1-20,17.3-20a21,21,0,0,1,9.2,1.7V367a21.37,21.37,0,0,0-9.2-2.4c-6.4,0-12.3,5.1-12.2,14.7,0,10.1,4.1,16.8,12.6,16.8a11.36,11.36,0,0,0,4.9-1.1V382.6h-6.6v-4.3h11.3l.1,20.1Zm17.8-27.5c7.6,0,11.6,5.7,11.6,14.7s-3.9,14.8-11.5,14.8-11.6-5.7-11.6-14.7,3.9-14.8,11.5-14.8m.1,25.7c4.5,0,6.6-3.7,6.6-10.9s-2.1-10.9-6.6-10.9-6.6,3.7-6.6,10.9,2.1,10.9,6.6,10.9m14-25.3h5.2l6.3,23.9h.1l6.4-24h4.9l-8.5,28.7-5.6.1ZM244.7,387c0,6.6,2.6,9.7,7.8,9.7a12,12,0,0,0,6.6-2.4l.2,4.3a18.78,18.78,0,0,1-8,1.7c-7.6,0-11.6-5.7-11.6-14.7s3.9-14.8,11.1-14.8c6.5,0,10.1,5.2,10.1,13.6v2.5l-16.2.1Zm11.4-3.7c0-6-1.9-9-5.6-8.9-3,0-5.7,2.3-5.8,9Zm10-5.9c0-2.1-.2-4.2-.2-6.2h4.6l.2,4.5h.1c1.5-3.5,3.9-4.9,8.2-4.9v4.7a11,11,0,0,0-1.8-.2c-3.7,0-6.2,3.2-6.2,9.4v15.2h-4.7Zm16.6-.1c0-2.1-.2-4.2-.2-6.2h4.6l.2,4.3h.1a7.32,7.32,0,0,1,7.3-4.7c5,0,8.4,2.9,8.4,9.2v19.9h-4.7V381.3c0-4.6-1.7-6.5-4.7-6.5-3.7,0-6.1,2.6-6.1,7.8v17.3h-4.7l-.2-22.6Zm27.2,0c0-2.1-.2-4.2-.2-6.2h4.6l.2,4.3h.1a7.23,7.23,0,0,1,7.1-4.7c3,0,5.3,1.6,6.8,4.5,1.5-2.8,3.7-4.5,7-4.5,5,0,8.3,2.9,8.4,9.2v19.9h-4.7V380.1c0-3.7-1.6-5.3-4.4-5.3-3.5,0-5.4,2.2-5.4,7.3v17.7h-4.7V380.1c0-3.7-1.6-5.3-4.4-5.3-3.5,0-5.4,2.2-5.4,7.3v17.7h-4.7Zm44.2,9.4c0,6.6,2.6,9.7,7.8,9.7a12.27,12.27,0,0,0,6.6-2.4l.2,4.3a18.78,18.78,0,0,1-8,1.7c-7.6,0-11.6-5.7-11.6-14.7s3.9-14.8,11.1-14.8c6.5,0,10.1,5.2,10.1,13.6v2.5l-16.2.1Zm11.5-3.6c0-6-1.9-9-5.6-8.9-3,0-5.7,2.3-5.8,9Zm9.9-6c0-2.1-.2-4.2-.2-6.2h4.6l.2,4.3h.1a7.32,7.32,0,0,1,7.3-4.7c5,0,8.4,2.9,8.4,9.2v19.9h-4.7V381.1c0-4.6-1.7-6.5-4.7-6.5-3.7,0-6.1,2.6-6.1,7.8v17.3h-4.7l-.2-22.6Zm39.9,22.1a12.9,12.9,0,0,1-4,.7c-4.3,0-6.6-1.7-6.7-6.8V374.6h-4.6v-3.8h4.6V365l4.7-1.4v7.3h5.9v3.8h-5.9v16.9c0,3.3.9,4.5,3,4.5a6.53,6.53,0,0,0,2.9-.7l.1,3.8Zm4.9-125.4-418.8.9A1.47,1.47,0,0,1,0,273.2a1.54,1.54,0,0,1,1.5-1.5l418.8-.9a1.5,1.5,0,0,1,0,3"/></g></g></svg>