<svg xmlns="http://www.w3.org/2000/svg" viewBox="0 0 138.1 34.4"><defs><style>.cls-1{fill:#1f1f1f;}</style></defs><title>welshGov_logo_landscape_black</title><g id="Layer_2" data-name="Layer 2"><g id="Layer_1-2" data-name="Layer 1"><path class="cls-1" d="M5.6,14a21.11,21.11,0,0,1,3.2,3.1,5.78,5.78,0,0,1,.7-1.4,37.58,37.58,0,0,0-6.1-4C2,11.2.2,11.1,0,12.9a1.49,1.49,0,0,1,.6-.7A3.9,3.9,0,0,1,2.2,12,8.48,8.48,0,0,1,5.6,14Z"/><path class="cls-1" d="M3.5,11.5l1.2.8C3,8.6,1.3,10.6,1.3,10.6,3,10.2,3.2,11.3,3.5,11.5Z"/><path class="cls-1" d="M2.7,16.6a1.29,1.29,0,0,0,1.7-.4l.3-.6a2.14,2.14,0,0,0,.1-.6,37.84,37.84,0,0,1,3.8,4.8A11.15,11.15,0,0,1,8.4,18c-1.2-1.4-1.6-1.9-2.3-2.7C3.8,12.8,2,12.4,2,12.4,6,15.3,2.7,16.6,2.7,16.6Z"/><path class="cls-1" d="M18,7.4c-.1,1.7-2.6,3.7-2,6.8a5.73,5.73,0,0,0,2,3A11.93,11.93,0,0,1,17,14a4.34,4.34,0,0,1,.5-2.4l.1.1.5.5a7.17,7.17,0,0,1-.1-2,8.8,8.8,0,0,0,.5-1.5h.1l.6.4a3.82,3.82,0,0,1-.6-1.6V7.3a4.83,4.83,0,0,0-.8-1.7A5.25,5.25,0,0,1,18,7.4Z"/><path class="cls-1" d="M18.1,15.9s3.3-.8,4.5-3.5c.9-1.9-.2-3.3,1.1-6.2S35.1.4,35.1.4a57.16,57.16,0,0,0-6.5,1.4c-2.2.7-5.3,2.1-6.7,3.8s-.2,4.6-.6,6.5S18.1,15.9,18.1,15.9Z"/><path class="cls-1" d="M30.5,5.2l1.6-.4s0-2.2,3.1-4.3C35.2.6,31.6,1.7,30.5,5.2Z"/><path class="cls-1" d="M29.7,5.9c-5.6,1.6-4.8,4.5-4.9,6.2s-1.4,5.2-6.3,4.7a5.59,5.59,0,0,0,6.1-1c3.2-2.6,1-5.8,3.6-7.3s4.6-2.8,12.7-3.1A27,27,0,0,0,29.7,5.9Z"/><path class="cls-1" d="M26.5,14.3a5.26,5.26,0,0,1,3.8,1,6.3,6.3,0,0,0-3.5-1.8A4.54,4.54,0,0,1,26.5,14.3Z"/><path class="cls-1" d="M40.5,5.7s-6.9-.1-4.2,5.4c-8.3-.5-5.5,4.5-5.4,4.6.1-4.5,5.4-4.6,5.4-4.6h0C36.3,11,35.1,6.8,40.5,5.7Z"/><path class="cls-1" d="M19.2,17.7a17.4,17.4,0,0,1,6.4,2,6,6,0,0,1,5.3-3.9c-4-.8-5.1,1.3-5.3,2.7A32,32,0,0,0,19.2,17.7Z"/><path class="cls-1" d="M3.7,31a3.64,3.64,0,0,1,1.9-.4,4.76,4.76,0,0,0,1.8-.4,13.09,13.09,0,0,0-2.7-.5A1.21,1.21,0,0,0,3.7,31Z"/><path class="cls-1" d="M23.6,28.3A3.44,3.44,0,0,1,25,28a6.12,6.12,0,0,0,1.4-.3,9.43,9.43,0,0,0-2-.3A.81.81,0,0,0,23.6,28.3Z"/><path class="cls-1" d="M32.9,31a5.88,5.88,0,0,0,1.4,0c-.5,0-1.2-.9-2.2-.7a1,1,0,0,0-.8,1.1A3.55,3.55,0,0,1,32.9,31Z"/><path class="cls-1" d="M27.8,9.4c0,.1-.1.2-.2.5a3.93,3.93,0,0,0-.2.6s2-1.1,8.5.4A17.57,17.57,0,0,0,27.8,9.4Z"/><path class="cls-1" d="M6.1,7.8c1.4,0,2.4-1.3,3.3-1.3a4.48,4.48,0,0,1,1.6.3A2.44,2.44,0,0,0,9.4,6C8.1,5.9,7.1,7.3,6,7.3a3.25,3.25,0,0,1-1.7-.4A2.49,2.49,0,0,0,6.1,7.8Z"/><path class="cls-1" d="M14.5,10.3a3.37,3.37,0,0,0-.7-2.1,6.26,6.26,0,0,1,.1,2c-.1,2.2-4.4,5.2-4.3,8.8a4.73,4.73,0,0,0,1.6,3.4,8.61,8.61,0,0,1-.4-3.8C11.3,15.8,14.6,12.8,14.5,10.3Z"/><path class="cls-1" d="M9.4,29.9c.4-.7,1.6-3.5,2.2-4.8a15.47,15.47,0,0,1,2-2.9c-2.1-2.2.8-4.8.8-4.8-1.6.4-2.4,1.1-2.7,2a4.42,4.42,0,0,0,.2,2.9c-.4.3-1.9,4.7-2.6,6.5A3.4,3.4,0,0,1,5.7,31c-1.5-.1-3,.9-3,1.8A1.75,1.75,0,0,0,3,34c0-1.5,2-1.8,3.8-1.9A6,6,0,0,0,9.4,29.9Z"/><path class="cls-1" d="M17.9,22.2c.9-1.7-1-3.4-1-3.4s.8,1.9-.1,2.8a3.34,3.34,0,0,1-2.6.9s-2.3,7.1-6.3,9.6c0,0,2.5-.4,3.2,0s1.5.8.8,2c0,0,1.5-.8,1.1-2-.3-1-1.8-1-1.8-1s-.4-.2-.2-.8,1.8-2.6,2-3,2.2-3.4,2.3-3.6A3.12,3.12,0,0,0,17.9,22.2Z"/><path class="cls-1" d="M27,21.7A30.62,30.62,0,0,1,19.5,24h-.3c-1.6,0-2-.4-2-.4-.2.3-1.1.4-1.1.4a9.82,9.82,0,0,1-.7,1,12.86,12.86,0,0,0,1.9.4c4.1.4,7.3-2.2,10-3.1Z"/><path class="cls-1" d="M27.8,27.5c.6-1.1.4-2.6.8-3.6l.1-.3c-.3-.2-.9-.7-.9-.7-.4,1.1-.1,2.9-.4,3.8A2.34,2.34,0,0,1,25,28.4c-1.3-.1-2.2.6-2.2,1.3a1.72,1.72,0,0,0,.2.9c.1-1,1.6-1.3,2.8-1.3A5.14,5.14,0,0,0,27.8,27.5Z"/><path class="cls-1" d="M30.5,29c-.2-.7-1.3-.8-1.3-.8s-.3-.1-.1-.6.6-1.7.7-2.1c.1-.1.1-.6.4-1.2a7.76,7.76,0,0,0-.7-.4c-.3.7-.9,4.2-2.6,5.1a5.28,5.28,0,0,1,2.2,0c.6.2,1.2.6.6,1.5A1.25,1.25,0,0,0,30.5,29Z"/><path class="cls-1" d="M33.3,23.7s-2.8,0-6.1-2.8c1,2.9,5.3,3.7,5.3,3.7A13.84,13.84,0,0,0,34,28.8c.2.4,1.2,2.3.8,2.6a13.43,13.43,0,0,1-1.9.1c-1.4,0-2.7.8-2.7,1.6a1.59,1.59,0,0,0,.3,1.1c.1-1.2,1-1.3,2.5-1.5s2.3-.1,3.3-.2c.3-.4-.2-1.3-.2-1.3A60.4,60.4,0,0,1,33.3,23.7Z"/><path class="cls-1" d="M39.2,15.3C41,11,44.1,7.7,44,4.9a4,4,0,0,0-1.2-3h0l.5-.1A19.5,19.5,0,0,0,40.6.5h0A10.67,10.67,0,0,1,42.1,3l.2-.6A3.77,3.77,0,0,1,43.4,5c0,2.4-3.1,6.5-5,10.4H37.2a11.42,11.42,0,0,0-3.9.6,14.68,14.68,0,0,0-1.7.5h-.8c6.4,2.1,3.5,6.9,3.5,6.9a24.55,24.55,0,0,0,.7,3c.4,1.2,1.4,3.9,1.4,3.9a14.6,14.6,0,0,1,.6,2.3h1c.6.1,1.6.2,1.3,1.4a1,1,0,0,0,.3-1.4c-.3-.7-1.5-.9-1.5-.9a1.67,1.67,0,0,1-.8-.9L36.8,29a18.53,18.53,0,0,1-1.1-5.5,7.38,7.38,0,0,0,.4-3.7A4.21,4.21,0,0,0,34,17.1c.3-.1,1.1-.3,1.1-.3a11.76,11.76,0,0,1,2.7-.3h0a12.22,12.22,0,0,0-.9,4.7c0,2.4.9,3.7,2.1,4.3a4.54,4.54,0,0,0,2.5.7c2.1,0,4.5-1.4,4.5-5.2C46.1,18.3,43.3,15.8,39.2,15.3Zm5.2,8.1a3.17,3.17,0,0,1-2.7,1.9c-2.6.2-3.7-2.1-3.8-3.8a13.47,13.47,0,0,1,.8-5,6.48,6.48,0,0,1,4.5,1.6,4.28,4.28,0,0,1,1.6,3.2A3.38,3.38,0,0,1,44.4,23.4Z"/><path class="cls-1" d="M11.3,6.6A3.83,3.83,0,0,1,7.7,7.7,2.76,2.76,0,0,0,10,8.8c1.6,0,3.2-1.6,3.7-1.1,0,0-.2-2.3,2.7-3.1a5.72,5.72,0,0,1,.8.8,3.16,3.16,0,0,0,.9-2.5A3.65,3.65,0,0,0,16.6,0a3.73,3.73,0,0,1-.3,2.1,2.12,2.12,0,0,1-1.8,1.3,8.47,8.47,0,0,1-1.3-.1c-.5-.2-2.5-.8-2.7,1,0,0-2.2-.7-3.6.4l.7,1.2A2.45,2.45,0,0,1,11.3,6.6Zm.6-2.7c.6.1.5.3,1.1.2,0,0-.7,1.2-1.7.5C11.3,4.5,11.3,3.9,11.9,3.9Z"/><polygon class="cls-1" points="63.3 13.8 60.8 13.8 60.8 7.2 59.8 7.2 59.8 14.7 63.3 14.7 63.3 13.8"/><rect class="cls-1" x="64.1" y="6.6" width="0.9" height="8.1"/><path class="cls-1" d="M69.4,9.2l-1.1,4.5h0L67,9.2h-.9l1.7,5.6-.2.8c-.1.6-.3.7-.6.7a.75.75,0,0,1-.5-.1V17c.2,0,.4.1.6.1.7,0,1.1-.3,1.3-1.3l1.9-6.6Z"/><polygon class="cls-1" points="78.1 9.2 77.2 9.2 76.2 13.8 76.1 13.8 75.1 9.2 74 9.2 72.9 13.8 72.9 13.8 71.9 9.2 70.9 9.2 72.4 14.7 73.4 14.7 74.5 10 74.5 10 75.6 14.7 76.7 14.7 78.1 9.2"/><path class="cls-1" d="M83,11.9c0-1.7-.8-2.8-2.2-2.8s-2.2,1.1-2.2,2.8.8,2.8,2.2,2.8S83,13.6,83,11.9Zm-3.5,0c0-1.4.4-2.1,1.3-2.1s1.3.7,1.3,2.1S81.7,14,80.8,14,79.5,13.3,79.5,11.9Z"/><path class="cls-1" d="M88,13.7V6.6h-.9V9.9h0a1.51,1.51,0,0,0-1.4-.8c-1.1,0-1.9.9-1.9,2.8s.8,2.8,1.9,2.8a1.5,1.5,0,0,0,1.4-.9h0v.8H88Zm-2.1.3q-1.2,0-1.2-2.1t1.2-2.1q1.2,0,1.2,2.1T85.9,14Z"/><path class="cls-1" d="M89.2,14.7h.9V11.8c0-1.2.5-1.8,1.2-1.8h.3V9.1A1.6,1.6,0,0,0,90,10h0V9.1h-.9v5.6Z"/><path class="cls-1" d="M95.3,13.9h0l.1.7h.8V11c0-.8-.2-1.1-.5-1.3a2.15,2.15,0,0,0-1.5-.5,3.32,3.32,0,0,0-1.6.5l.1.9a2.25,2.25,0,0,1,1.4-.6,1.22,1.22,0,0,1,.9.3c.2.2.2.5.2.9v.2h-.5c-1.9,0-2.6.8-2.6,1.9a1.47,1.47,0,0,0,1.6,1.6A2.47,2.47,0,0,0,95.3,13.9Zm-1.3.2c-.6,0-.9-.4-.9-1s.5-1.1,1.6-1.1h.6v.7A1.34,1.34,0,0,1,94,14.1Z"/><path class="cls-1" d="M100.8,13.6a2.54,2.54,0,0,1-1.3.5c-1,0-1.5-.6-1.5-1.9h3.1v-.5c0-1.6-.7-2.6-1.9-2.6-1.4,0-2.1,1.1-2.1,2.8s.8,2.8,2.2,2.8a3.65,3.65,0,0,0,1.5-.3ZM99.2,9.8c.7,0,1.1.6,1.1,1.7H98.1C98.1,10.2,98.6,9.8,99.2,9.8Z"/><path class="cls-1" d="M104.6,13.9a1.08,1.08,0,0,1-.6.1c-.4,0-.6-.2-.6-.9V9.9h1.1V9.2h-1.1V7.8l-.9.3V9.2h-.9v.7h.9v3.5c0,1,.4,1.3,1.3,1.3.2,0,.5-.1.8-.1Z"/><path class="cls-1" d="M107.7,9.1a1.51,1.51,0,0,0-1.3.8h0V6.6h-.9v8.1h.9V11.4c0-1,.5-1.5,1.2-1.5s.9.4.9,1.2v3.5h.9V10.8A1.62,1.62,0,0,0,107.7,9.1Z"/><path class="cls-1" d="M117.8,13.6a3.26,3.26,0,0,1-1.3.4c-1.6,0-2.4-1.3-2.4-3.2S115.2,8,116.4,8a2.3,2.3,0,0,1,1.4.4V7.3a2.9,2.9,0,0,0-1.4-.3c-2,0-3.3,1.5-3.3,3.8,0,2,1,3.8,3.4,3.8a7.84,7.84,0,0,0,1.4-.2v-.8Z"/><path class="cls-1" d="M119.8,15.6c-.2.6-.3.7-.6.7a.75.75,0,0,1-.5-.1V17c.2,0,.4.1.6.1.7,0,1.1-.3,1.3-1.3l1.9-6.6h-.9l-1.1,4.5h0l-1.2-4.5h-.9l1.7,5.6Z"/><path class="cls-1" d="M128.2,9.1a1.38,1.38,0,0,0-1.3.9,1.38,1.38,0,0,0-1.3-.9,1.51,1.51,0,0,0-1.4.9h0V9.2h-.9v5.5h.9V11.3c0-1,.4-1.4,1-1.4s.8.3.8,1v3.8h.9V11.3c0-1,.4-1.4,1-1.4s.8.3.8,1v3.8h.9V10.9C129.8,9.6,129.1,9.1,128.2,9.1Z"/><path class="cls-1" d="M130.9,14.7h.9V11.8c0-1.2.5-1.8,1.2-1.8h.3V9.1a1.6,1.6,0,0,0-1.6.9h0V9.1h-.9v5.6Z"/><path class="cls-1" d="M137.1,13.8h0l.1.8h.9V9.2h-.9v3.3c0,1-.5,1.5-1.2,1.5s-.9-.4-.9-1.3V9.2h-.9V13c0,1.2.6,1.8,1.6,1.8A1.6,1.6,0,0,0,137.1,13.8Z"/><polygon class="cls-1" points="66.1 25.4 66.1 25.4 64.7 19.4 63.5 19.4 62.2 25.4 62.2 25.4 60.9 19.4 59.9 19.4 61.6 26.9 62.7 26.9 64.1 20.4 64.1 20.4 65.6 26.9 66.7 26.9 68.3 19.4 67.4 19.4 66.1 25.4"/><path class="cls-1" d="M70.7,21.3c-1.4,0-2.1,1.1-2.1,2.8s.8,2.8,2.2,2.8a3.65,3.65,0,0,0,1.5-.3v-.8a2.54,2.54,0,0,1-1.3.5c-1,0-1.5-.6-1.5-1.9h3.1v-.5C72.6,22.3,71.9,21.3,70.7,21.3Zm-1.2,2.4c0-1.3.5-1.7,1.1-1.7s1.1.6,1.1,1.7Z"/><polygon class="cls-1" points="73.9 26.9 74.8 26.9 74.8 26.9 74.8 18.8 73.9 18.8 73.9 26.9"/><path class="cls-1" d="M78.3,23.8l-.3-.1q-.9-.3-.9-.9A.82.82,0,0,1,78,22a3.59,3.59,0,0,1,1.1.2v-.8a3.73,3.73,0,0,0-1.2-.2,1.64,1.64,0,0,0-1.8,1.6c0,.7.3,1.1,1.1,1.4l.6.3a.93.93,0,0,1,.7.9.92.92,0,0,1-1,.8,2.84,2.84,0,0,1-1.3-.4l-.1.8a3.34,3.34,0,0,0,1.5.3,1.6,1.6,0,0,0,1.8-1.7A1.57,1.57,0,0,0,78.3,23.8Z"/><path class="cls-1" d="M82.7,21.3a1.51,1.51,0,0,0-1.3.8h0V18.8h-.9v8.1h.9V23.6c0-1,.5-1.5,1.2-1.5s.9.4.9,1.3v3.5h.9V23.1C84.3,21.9,83.6,21.3,82.7,21.3Z"/><path class="cls-1" d="M91.1,23.6h1.3V26a2.39,2.39,0,0,1-.9.2c-1.6,0-2.4-1.3-2.4-3.2s1.1-2.8,2.3-2.8a4.46,4.46,0,0,1,1.8.5v-.9a4.84,4.84,0,0,0-1.8-.3c-2,0-3.3,1.5-3.3,3.8,0,2,1,3.8,3.4,3.8a5.33,5.33,0,0,0,1.9-.4V22.9H91.2v.7Z"/><path class="cls-1" d="M96.7,21.3c-1.5,0-2.2,1.1-2.2,2.8s.8,2.8,2.2,2.8,2.2-1.1,2.2-2.8S98.2,21.3,96.7,21.3Zm0,4.9c-.9,0-1.3-.7-1.3-2.1s.4-2.1,1.3-2.1,1.3.7,1.3,2.1S97.6,26.2,96.7,26.2Z"/><polygon class="cls-1" points="101.6 26 101.6 26 100.4 21.4 99.4 21.4 101.1 26.9 102.1 26.9 103.8 21.4 102.8 21.4 101.6 26"/><path class="cls-1" d="M106.4,21.3c-1.4,0-2.1,1.1-2.1,2.8s.8,2.8,2.2,2.8a3.65,3.65,0,0,0,1.5-.3v-.8a2.54,2.54,0,0,1-1.3.5c-1,0-1.5-.6-1.5-1.9h3.1v-.5C108.3,22.3,107.6,21.3,106.4,21.3Zm-1.2,2.4c0-1.3.5-1.7,1.1-1.7s1.1.6,1.1,1.7Z"/><path class="cls-1" d="M110.2,22.2h0l-.1-.9h-.9v5.5h.9V24c0-1.2.5-1.8,1.2-1.8h.3v-.9A1.51,1.51,0,0,0,110.2,22.2Z"/><path class="cls-1" d="M114.8,21.3a1.51,1.51,0,0,0-1.4.9h0v-.8h-.9v5.5h.9V23.6c0-1,.5-1.5,1.2-1.5s.9.4.9,1.3v3.5h.9V23.1A1.58,1.58,0,0,0,114.8,21.3Z"/><path class="cls-1" d="M122.6,21.3a1.38,1.38,0,0,0-1.3.9,1.38,1.38,0,0,0-1.3-.9,1.51,1.51,0,0,0-1.4.9h0v-.8h-.9v5.5h.9V23.5c0-1,.4-1.4,1-1.4s.8.3.8,1v3.8h.9V23.5c0-1,.4-1.4,1-1.4s.8.3.8,1v3.8h.9V23.1A1.38,1.38,0,0,0,122.6,21.3Z"/><path class="cls-1" d="M127.3,21.3c-1.4,0-2.1,1.1-2.1,2.8s.8,2.8,2.2,2.8a3.65,3.65,0,0,0,1.5-.3v-.8a2.54,2.54,0,0,1-1.3.5c-1,0-1.5-.6-1.5-1.9h3.1v-.5C129.3,22.3,128.6,21.3,127.3,21.3Zm-1.1,2.4c0-1.3.5-1.7,1.1-1.7s1.1.6,1.1,1.7Z"/><path class="cls-1" d="M132.5,21.3a1.51,1.51,0,0,0-1.4.9h0v-.8h-.9v5.5h.9V23.6c0-1,.5-1.5,1.2-1.5s.9.4.9,1.3v3.5h.9V23.1C134.1,21.9,133.5,21.3,132.5,21.3Z"/><path class="cls-1" d="M136.8,20l-.9.3v1.1H135v.7h.9v3.5c0,1,.4,1.3,1.3,1.3.2,0,.5-.1.8-.1v-.7a1.08,1.08,0,0,1-.6.1c-.4,0-.6-.2-.6-.9V22.1h1.1v-.7h-1.1V20Z"/><rect class="cls-1" x="52.1" width="0.8" height="34.4"/></g></g></svg>