<svg xmlns="http://www.w3.org/2000/svg" viewBox="0 0 370 268.5"><defs><style>.cls-1{fill:#004995;}.cls-2,.cls-5{fill:#fff;}.cls-3{fill:#ffec00;}.cls-4{fill:none;stroke:#fff;stroke-miterlimit:10;}.cls-5{font-size:11px;font-family:GillSans, Gill Sans;}.cls-6{letter-spacing:-0.03em;}</style></defs><title>WEFO_logo</title><g id="Layer_2" data-name="Layer 2"><g id="Layer_1-2" data-name="Layer 1"><rect class="cls-1" width="370" height="268.5"/><path class="cls-2" d="M233,46.13a3.13,3.13,0,0,1,1.26-1.47,6.06,6.06,0,0,1,3.38-.35c1.18.13,3.6,1.2,7.11,4.11a57.34,57.34,0,0,1,6.66,6.44A18.28,18.28,0,0,1,252.84,52c-2.3-2-10.35-7.28-12.86-8.28-2.82-1.14-6.7-1.44-7,2.44Z"/><path class="cls-2" d="M235.89,41.25c3.41-.85,3.78,1.4,4.5,1.94L243,44.78c-3.52-7.8-7.11-3.53-7.11-3.53Z"/><path class="cls-2" d="M237.39,45.22c8.08,5.92,1.31,8.66,1.31,8.66a2.69,2.69,0,0,0,3.54-.81,6,6,0,0,0,.62-1.24,4.59,4.59,0,0,0,.26-1.16c2.86,2.81,6,7.61,8,10.16-.62-2.47-.14-3.58-.33-3.81-2.44-2.93-3.25-4-4.84-5.74-4.81-5.32-8.58-6.06-8.58-6.06"/><path class="cls-2" d="M270.89,44.65a13.25,13.25,0,0,1-.15-4.29,22.46,22.46,0,0,0,1-3.13l.18.09,1.26.79a12,12,0,0,1-1.29-3.44c0-.14-.05-.28-.08-.41a9.29,9.29,0,0,0-1.69-3.56,8.92,8.92,0,0,1,.55,3.88c-.28,3.63-5.43,7.79-4.27,14.16.64,3.51,4.16,6.31,4.16,6.31a28.26,28.26,0,0,1-1.91-6.68c-.32-1.72.24-3.07,1-5.13l.28.27,1,1.14Z"/><path class="cls-2" d="M306.46,19.8a129.68,129.68,0,0,0-13.66,2.93c-4.52,1.45-11.13,4.3-14.12,8s-.47,9.67-1.23,13.62-6.63,8-6.63,8,6.82-1.75,9.33-7.24c1.85-4-.49-6.85,2.34-13.09s24-12.22,24-12.22Z"/><path class="cls-2" d="M306.7,20.24s-7.54,2.33-9.92,9.7l3.38-.74s0-4.6,6.54-9Z"/><path class="cls-2" d="M318.64,30.44s-11.87-2.38-23.55,1-10,9.53-10.16,12.93-3,10.94-13.27,9.95c0,0,6.09,3.33,12.87-2.14S286.58,40.13,292,37s9.68-5.78,26.6-6.53Z"/><path class="cls-2" d="M289.05,47.31s4.64.65,7.37,3.84c0,0-3.74-2.9-8-2.16a10,10,0,0,0,.61-1.68Z"/><path class="cls-2" d="M309.12,42.25s-11.2.26-11.32,9.68c-.2-.35-6.16-10.73,11.32-9.68Z"/><path class="cls-2" d="M317.83,31h0c-11.29,2.33-8.71,11.22-8.71,11.22h0C303.38,30.83,317.83,31,317.83,31Z"/><path class="cls-2" d="M286.52,60.3A12.8,12.8,0,0,1,297.73,52c-8.47-1.67-10.63,2.62-11.13,5.63a89.37,89.37,0,0,0-13.44-1.57c8.71,1.22,13.36,4.21,13.36,4.21Z"/><path class="cls-2" d="M240.76,83.92a7.54,7.54,0,0,1,3.88-.77,12.19,12.19,0,0,0,3.78-.81c-1,0-3.53-1.24-5.72-1a2.27,2.27,0,0,0-1.94,2.55Z"/><path class="cls-2" d="M282.43,78.3a1.72,1.72,0,0,1,1.47-1.92c1.64-.2,3.49.73,4.28.74a9.07,9.07,0,0,1-2.84.61,5.72,5.72,0,0,0-2.91.57Z"/><path class="cls-2" d="M298.43,84.82a6.77,6.77,0,0,1,3.5-.7,20.31,20.31,0,0,0,2.94-.05c-.95,0-2.44-1.94-4.69-1.56a2.1,2.1,0,0,0-1.75,2.31Z"/><path class="cls-2" d="M308.2,41.81c-13.64-3.29-17.89-.93-17.89-.93s.3-.77.49-1.2c.31-.69.39-.86.48-1a37.05,37.05,0,0,1,16.92,3.16Z"/><path class="cls-2" d="M255.94,33.14a5.33,5.33,0,0,0-3.33-1.65c-2.61,0-4.78,2.78-7.09,2.78a6.61,6.61,0,0,1-3.48-.78,5,5,0,0,0,3.61,1.89c2.88,0,5-2.83,6.91-2.83a10.09,10.09,0,0,1,3.38.59Z"/><path class="cls-2" d="M261.9,36.11a12.88,12.88,0,0,1,.17,4.11c-.22,4.54-9.11,10.8-9,18.33a10.08,10.08,0,0,0,3.38,7.19,17.43,17.43,0,0,1-.82-7.95c.91-5.52,7.87-11.81,7.65-17.23-.13-3.19-1.38-4.45-1.38-4.45Z"/><path class="cls-2" d="M257.61,65.66a9.38,9.38,0,0,1-.34-6c.66-1.81,2.38-3.35,5.76-4.2,0,0-5.92,5.39-1.58,10a26.23,26.23,0,0,0-4.27,6.1c-1.18,2.8-3.76,8.68-4.61,10a11.06,11.06,0,0,1-5.44,4.64c-3.74.33-7.83,1-8.1,3.84a3.52,3.52,0,0,1-.66-2.55c.07-1.82,3.1-3.86,6.26-3.75s6-.7,7.48-4.51,4.72-13,5.5-13.68Z"/><path class="cls-2" d="M262.65,66s-4.82,14.78-13.27,20.21c0,0,5.15-.74,6.73-.09s3.23,1.73,1.68,4.2c0,0,3.06-1.68,2.21-4.21-.66-2-3.67-2.16-3.67-2.16s-.86-.38-.36-1.66,3.73-5.53,4.25-6.31,4.7-7.1,4.87-7.46a5.47,5.47,0,0,0,5.46-3c1.85-3.65-2.09-7.19-2.09-7.19s1.73,3.93-.27,5.86A7.11,7.11,0,0,1,262.65,66Z"/><path class="cls-2" d="M266.76,69.41a8.82,8.82,0,0,0,2.38-.82s.83.9,4.23.82H274c3.78-.47,8.39-1.82,15.63-4.84l.78,1.29c-5.65,1.91-12.47,7.28-21,6.43-.61-.06-3.42-.62-4-.81.36-.47,1.42-2.07,1.42-2.07Z"/><path class="cls-2" d="M291.12,76.6a7.55,7.55,0,0,1-4.18,3.63c-2.54,0-5.6.58-5.8,2.74a2.63,2.63,0,0,1-.5-1.9c.05-1.38,1.93-2.87,4.7-2.72,2.38.13,3.91-.85,4.94-3.46.7-1.75,0-5.5.89-7.88,0,0,1.28,1,1.85,1.46,0,0,.05,0-.23.63-.88,2.11-.46,5.15-1.67,7.5Z"/><path class="cls-2" d="M294.72,69.26s.73.49,1.43.87a26,26,0,0,0-.88,2.6c-.24.67-1,3.37-1.43,4.33s.27,1.23.27,1.23,2.26.13,2.76,1.63c.63,1.9-1.66,3.16-1.66,3.16,1.15-1.85-.07-2.66-1.26-3.15s-4.69.06-4.69.06c3.67-2,4.87-9.35,5.46-10.73Z"/><path class="cls-2" d="M308.6,84.22s1,2,.42,2.79c-2.22.06-3.72,0-7,.33-3,.3-5,.5-5.22,3.11a3.15,3.15,0,0,1-.6-2.3c.06-1.64,2.79-3.48,5.65-3.37a26.89,26.89,0,0,0,4-.15c.85-.46-1.32-4.61-1.69-5.36-3.17-6.34-3.09-8.39-3.21-8.73,0,0-8.87-1.66-11.05-7.7,7,6,12.87,5.94,12.87,5.94a105.92,105.92,0,0,0,5.86,15.44Z"/><path class="cls-2" d="M310.9,50.91a24.27,24.27,0,0,1,2.57,0c3.85-8.23,10.41-16.73,10.41-21.75a8.18,8.18,0,0,0-2.24-5.42L321.27,25s-1.81-4.15-3.15-5.19l0,0a31.31,31.31,0,0,1,5.59,2.81v0l-1.05.27h0a9,9,0,0,1,2.5,6.34c.22,6-6.25,12.83-10,21.85,8.43,1,14.32,6.3,14.32,12,0,8-4.89,10.81-9.34,10.87a9.79,9.79,0,0,1-5.35-1.44c-2.37-1.4-4.35-4-4.35-9.1a25.91,25.91,0,0,1,1.81-9.82v0a34.76,34.76,0,0,0-5.75.67l-2.28.69a8.84,8.84,0,0,1,4.37,5.7,16.09,16.09,0,0,1-.78,7.83c-.21,3.19,1.18,7.93,2.26,11.45l1.2,3.21A3.52,3.52,0,0,0,312.91,85s2.48.36,3.17,1.86a2.28,2.28,0,0,1-.66,3c.57-2.4-1.51-2.66-2.73-2.84h-.1a7.66,7.66,0,0,0-2-.07c.15-.81-1.4-5.14-1.3-4.86,0,0-2-5.72-2.83-8.24A48.67,48.67,0,0,1,305,67.54s6-10-7.39-14.46a8.73,8.73,0,0,1,1.66,0,26,26,0,0,1,3.47-1,35.52,35.52,0,0,1,8.16-1.16Zm3.32,2.69a29.63,29.63,0,0,0-1.63,10.56c.12,3.5,2.39,8.36,7.9,7.87a6.83,6.83,0,0,0,5.59-4,10.52,10.52,0,0,0,1-4.49,9.4,9.4,0,0,0-3.39-6.69c-1.9-1.74-4.84-3.07-9.48-3.26"/><path class="cls-2" d="M255.1,27.89s-4.63-1.48-7.5.86l1.51,2.61s4.39-3.58,7.63,1.56c0,0-2.42,3.16-7.52,2.27A5.5,5.5,0,0,0,254,37.56c3.39,0,6.68-3.43,7.74-2.28,0,0-.36-4.85,5.56-6.56a7.43,7.43,0,0,1,1.6,1.72s1.93-1.53,1.83-5.28a7.67,7.67,0,0,0-3-6.1,7.65,7.65,0,0,1-.55,4.33,4.56,4.56,0,0,1-3.8,2.79,11,11,0,0,1-2.67-.3c-1.07-.32-5.31-1.75-5.63,2Zm5.15-.31s-1.41,2.42-3.6,1c0,0,.05-1.44,1.29-1.3s1.08.65,2.31.29Z"/><path class="cls-2" d="M219.62,104.09H221v10h3.69v1.22h-5.11Z"/><path class="cls-2" d="M226.05,103.25h1.35v12.09h-1.35Z"/><path class="cls-2" d="M232.4,117c-.41,1.4-1,1.9-2,1.9a3.71,3.71,0,0,1-.92-.1l.07-1.22a1.84,1.84,0,0,0,.74.16c.39,0,.68-.18.9-1l.32-1.26-2.59-8.35h1.42l1.84,6.71h0l1.71-6.71h1.35Z"/><path class="cls-2" d="M244.79,115.34h-1.55l-1.72-6.94h0l-1.58,6.94h-1.55l-2.18-8.22h1.42l1.57,6.87h0l1.56-6.87h1.61L244,114h0l1.55-6.87h1.35Z"/><path class="cls-2" d="M251,107c2.18,0,3.31,1.64,3.31,4.22s-1.13,4.22-3.31,4.22-3.3-1.64-3.3-4.22S248.79,107,251,107Zm0,7.35c1.29,0,1.89-1.06,1.89-3.13s-.6-3.12-1.89-3.12-1.88,1.06-1.88,3.12S249.67,114.36,251,114.36Z"/><path class="cls-2" d="M261.75,113.83c0,.5,0,1,.06,1.51H260.5l0-1.21h0a2.3,2.3,0,0,1-2.16,1.32c-1.69,0-2.83-1.38-2.83-4.22s1.14-4.22,2.83-4.22a2.27,2.27,0,0,1,2.1,1.24h0v-5h1.36Zm-3.16-5.72c-1.25,0-1.81,1.06-1.81,3.12s.56,3.13,1.81,3.13,1.8-1.06,1.8-3.13S259.83,108.11,258.59,108.11Z"/><path class="cls-2" d="M263.58,108.89c0-.59-.05-1.19-.06-1.77h1.3l.05,1.29h0a2.21,2.21,0,0,1,2.34-1.4v1.34a2.19,2.19,0,0,0-.52,0c-1,0-1.78.9-1.78,2.69v4.35h-1.36Z"/><path class="cls-2" d="M268.67,107.69A4.36,4.36,0,0,1,271,107a3.19,3.19,0,0,1,2.2.77,2.56,2.56,0,0,1,.71,2v4.29c0,.48,0,1,.06,1.25h-1.22l-.08-1.11h0a2.46,2.46,0,0,1-2.3,1.22,2.18,2.18,0,0,1-2.37-2.36c0-1.6,1.05-2.78,3.87-2.78h.79v-.37a2,2,0,0,0-.31-1.32,1.67,1.67,0,0,0-1.37-.51,2.89,2.89,0,0,0-2.11.85Zm3.94,3.62a8.84,8.84,0,0,0-.95,0c-1.6,0-2.36.76-2.36,1.71a1.28,1.28,0,0,0,1.39,1.43,1.94,1.94,0,0,0,1.92-2.07Z"/><path class="cls-2" d="M276.83,111.64c0,1.9.74,2.78,2.24,2.78a3.37,3.37,0,0,0,1.88-.68L281,115a5.51,5.51,0,0,1-2.31.48c-2.17,0-3.3-1.64-3.3-4.22s1.13-4.22,3.17-4.22c1.86,0,2.89,1.48,2.89,3.9v.73Zm3.29-1c0-1.71-.54-2.56-1.62-2.56-.86,0-1.64.65-1.67,2.56Z"/><path class="cls-2" d="M286.59,115.25a3.84,3.84,0,0,1-1.14.2c-1.24,0-1.9-.5-1.9-2v-5.28h-1.31v-1.1h1.31v-1.67l1.35-.41v2.08h1.69v1.1H284.9v4.85c0,.93.24,1.29.86,1.29a1.92,1.92,0,0,0,.83-.21Z"/><path class="cls-2" d="M287.74,103.25h1.35v5h0a2.25,2.25,0,0,1,2-1.24c1.43,0,2.4.82,2.4,2.63v5.7h-1.35V110c0-1.31-.49-1.87-1.36-1.87-1.06,0-1.74.74-1.74,2.22v5h-1.35Z"/><path class="cls-2" d="M306.27,115.12a7.31,7.31,0,0,1-2,.33c-3.56,0-5.06-2.7-5.06-5.75,0-3.51,2-5.72,5-5.72a5.06,5.06,0,0,1,2.13.4v1.39a3.84,3.84,0,0,0-2.11-.57c-1.84,0-3.51,1.47-3.51,4.21,0,2.9,1.16,4.82,3.61,4.82a4,4,0,0,0,2-.53Z"/><path class="cls-2" d="M310.61,117c-.41,1.4-1,1.9-2,1.9a3.65,3.65,0,0,1-.92-.1l.07-1.22a1.84,1.84,0,0,0,.74.16c.39,0,.68-.18.9-1l.32-1.26-2.59-8.35h1.42l1.84,6.71h0l1.71-6.71h1.35Z"/><path class="cls-2" d="M314.59,108.89c0-.59,0-1.19-.07-1.77h1.31l.05,1.23h0a2.15,2.15,0,0,1,4,0,2.17,2.17,0,0,1,2-1.29c1.42,0,2.39.82,2.39,2.63v5.7H322.9V109.7c0-1-.45-1.53-1.25-1.53-1,0-1.55.61-1.55,2.1v5.07h-1.35V109.7c0-1-.46-1.53-1.26-1.53-1,0-1.55.61-1.55,2.1v5.07h-1.35Z"/><path class="cls-2" d="M325.9,108.89c0-.59,0-1.19-.06-1.77h1.3l.05,1.29h0a2.21,2.21,0,0,1,2.34-1.4v1.34a2.19,2.19,0,0,0-.52,0c-1,0-1.79.9-1.79,2.69v4.35H325.9Z"/><path class="cls-2" d="M336.47,113.57c0,.6,0,1.19.07,1.77h-1.31l-.05-1.22h0a2.11,2.11,0,0,1-2.08,1.33c-1.43,0-2.4-.82-2.4-2.62v-5.71H332v5.3c0,1.31.49,1.88,1.36,1.88,1.06,0,1.74-.75,1.74-2.23v-4.95h1.35Z"/><path class="cls-2" d="M219.76,122.35h1.48l1.84,9.12h0l2-9.12h1.81l2,9.12h0l2-9.12h1.35l-2.45,11.25h-1.67L226,124h0l-2.13,9.64H222.2Z"/><path class="cls-2" d="M234,129.89c0,1.9.75,2.79,2.24,2.79a3.51,3.51,0,0,0,1.89-.68l.06,1.23a5.62,5.62,0,0,1-2.3.48c-2.18,0-3.3-1.64-3.3-4.22s1.12-4.23,3.17-4.23c1.85,0,2.89,1.49,2.89,3.9v.73Zm3.29-1c0-1.71-.53-2.57-1.61-2.57-.87,0-1.64.65-1.68,2.57Z"/><path class="cls-2" d="M240.62,121.51H242V133.6h-1.36Z"/><path class="cls-2" d="M244,132a3.76,3.76,0,0,0,1.94.61c1,0,1.56-.53,1.56-1.16s-.29-.95-1-1.29l-.9-.4c-1.18-.53-1.61-1.06-1.61-2.11a2.42,2.42,0,0,1,2.64-2.39,5.14,5.14,0,0,1,1.74.29l-.06,1.16a4,4,0,0,0-1.62-.35c-.88,0-1.35.48-1.35,1.13s.48,1,1.39,1.38l.48.2a2.23,2.23,0,0,1,1.63,2.09,2.36,2.36,0,0,1-2.65,2.55,5,5,0,0,1-2.22-.48Z"/><path class="cls-2" d="M250.36,121.51h1.35v5h0a2.25,2.25,0,0,1,2-1.24c1.43,0,2.4.83,2.4,2.63v5.71h-1.35v-5.31c0-1.3-.49-1.87-1.36-1.87-1.06,0-1.74.75-1.74,2.23v4.95h-1.35Z"/><path class="cls-2" d="M269.63,133.13a8.9,8.9,0,0,1-2.78.58c-3.57,0-5.06-2.71-5.06-5.76,0-3.51,2-5.72,5-5.72a6.15,6.15,0,0,1,2.65.5v1.42a6.14,6.14,0,0,0-2.63-.69c-1.84,0-3.51,1.46-3.51,4.21s1.16,4.81,3.61,4.81a3.41,3.41,0,0,0,1.4-.3v-3.55h-1.89v-1.22h3.24Z"/><path class="cls-2" d="M274.76,125.26c2.17,0,3.3,1.65,3.3,4.23s-1.13,4.22-3.3,4.22-3.31-1.64-3.31-4.22S272.58,125.26,274.76,125.26Zm0,7.35c1.29,0,1.88-1.06,1.88-3.12s-.59-3.13-1.88-3.13-1.89,1.06-1.89,3.13S273.47,132.61,274.76,132.61Z"/><path class="cls-2" d="M278.79,125.38h1.48l1.8,6.86h0l1.83-6.86h1.42l-2.46,8.22h-1.62Z"/><path class="cls-2" d="M287.51,129.89c0,1.9.74,2.79,2.23,2.79a3.51,3.51,0,0,0,1.89-.68l.07,1.23a5.71,5.71,0,0,1-2.31.48c-2.17,0-3.3-1.64-3.3-4.22s1.13-4.23,3.17-4.23c1.86,0,2.89,1.49,2.89,3.9v.73Zm3.28-1c0-1.71-.53-2.57-1.61-2.57-.87,0-1.64.65-1.67,2.57Z"/><path class="cls-2" d="M293.65,127.15c0-.6,0-1.19-.07-1.77h1.31l.05,1.28h0a2.2,2.2,0,0,1,2.33-1.4v1.34a2.76,2.76,0,0,0-.51,0c-1.05,0-1.79.91-1.79,2.7v4.35h-1.35Z"/><path class="cls-2" d="M298.42,127.15c0-.6-.05-1.19-.07-1.77h1.31l0,1.22h0a2.12,2.12,0,0,1,2.08-1.34c1.43,0,2.4.83,2.4,2.63v5.71h-1.36v-5.31c0-1.3-.48-1.87-1.35-1.87-1.06,0-1.74.75-1.74,2.23v4.95h-1.35Z"/><path class="cls-2" d="M306.18,127.15c0-.6-.05-1.19-.06-1.77h1.3l.05,1.22h0a2.11,2.11,0,0,1,2-1.34,2.09,2.09,0,0,1,1.93,1.29,2.17,2.17,0,0,1,2-1.29c1.42,0,2.38.83,2.38,2.63v5.71H314.5V128c0-1-.45-1.53-1.26-1.53-1,0-1.54.62-1.54,2.1v5.08h-1.36V128c0-1-.45-1.53-1.26-1.53-1,0-1.54.62-1.54,2.1v5.08h-1.36Z"/><path class="cls-2" d="M318.83,129.89c0,1.9.75,2.79,2.24,2.79A3.51,3.51,0,0,0,323,132l.06,1.23a5.62,5.62,0,0,1-2.3.48c-2.18,0-3.3-1.64-3.3-4.22s1.12-4.23,3.17-4.23c1.85,0,2.89,1.49,2.89,3.9v.73Zm3.29-1c0-1.71-.53-2.57-1.61-2.57-.87,0-1.64.65-1.68,2.57Z"/><path class="cls-2" d="M325,127.15c0-.6,0-1.19-.06-1.77h1.3l.05,1.22h0a2.1,2.1,0,0,1,2.07-1.34c1.44,0,2.41.83,2.41,2.63v5.71h-1.36v-5.31c0-1.3-.48-1.87-1.35-1.87-1.06,0-1.74.75-1.74,2.23v4.95H325Z"/><path class="cls-2" d="M336.37,133.5a3.91,3.91,0,0,1-1.15.21c-1.24,0-1.9-.5-1.9-2v-5.29H332v-1.09h1.3V123.7l1.36-.4v2.08h1.69v1.09h-1.69v4.85c0,.94.24,1.29.85,1.29a1.86,1.86,0,0,0,.84-.21Z"/><path class="cls-2" d="M337.86,97.59H218a.44.44,0,0,1-.44-.44.44.44,0,0,1,.44-.44h119.9a.44.44,0,0,1,.44.44A.44.44,0,0,1,337.86,97.59Z"/><polygon class="cls-3" points="69.37 79.81 72.1 77.73 68.74 77.76 67.26 74.11 66.12 77.73 62.64 77.73 65.3 79.78 64.41 82.91 67.23 81.26 70.34 82.94 69.37 79.81"/><polygon class="cls-3" points="120.96 82.97 117.8 81.13 114.93 82.97 115.74 79.64 113.05 77.76 116.42 77.67 117.75 73.95 119.08 77.41 122.5 77.55 119.98 79.55 120.96 82.97"/><polygon class="cls-3" points="110.61 91.09 111.58 94.25 108.56 92.34 105.6 94.25 106.45 90.92 103.86 88.89 107.31 88.72 108.53 85.22 109.88 88.81 113.26 88.87 110.61 91.09"/><polygon class="cls-3" points="82.71 88.69 80.08 90.68 80.98 94.08 77.97 92.17 75.04 94.06 75.83 90.72 73.27 88.82 76.73 88.8 77.95 85.24 79.25 88.56 82.71 88.69"/><polygon class="cls-3" points="121.3 52.93 118.11 51.17 115.19 52.91 116.02 49.72 113.46 47.76 116.86 47.59 118.14 44.04 119.4 47.59 122.84 47.65 120.27 49.81 121.3 52.93"/><path class="cls-3" d="M95,38.37l-3.1-1.9-3,1.88,1-3.24L87.27,33l3.43-.13,1.22-3.56,1.26,3.56,3.46.07c-.06,0-2.67,2-2.67,2Z"/><polygon class="cls-3" points="110.34 42.16 107.17 40.38 104.25 42.16 105.23 38.91 102.5 36.92 105.94 36.79 107.28 33.25 108.65 36.84 111.9 36.86 109.27 38.99 110.34 42.16"/><polygon class="cls-3" points="125.06 67.95 121.93 66.22 118.94 67.95 119.88 64.73 117.25 62.68 120.67 62.66 122.02 59.06 123.24 62.51 126.54 62.54 124.06 64.71 125.06 67.95"/><polygon class="cls-3" points="79.9 42.84 76.9 41.07 73.83 42.84 74.81 39.77 72.21 37.61 75.67 37.54 76.93 33.93 78.17 37.52 81.63 37.59 79.06 39.38 79.9 42.84"/><polygon class="cls-3" points="70.19 52.91 67.25 51 64.25 52.84 65.13 49.63 62.52 47.67 65.88 47.59 67.2 44.02 68.51 47.41 71.92 47.48 69.36 49.48 70.19 52.91"/><polygon class="cls-3" points="66.63 67.95 63.59 66.19 60.51 67.93 61.51 64.6 58.94 62.74 62.16 62.66 63.5 59.06 64.9 62.68 68.34 62.71 65.66 64.6 66.63 67.95"/><polygon class="cls-3" points="96.54 98.35 93.44 96.41 90.42 98.21 91.39 94.93 88.68 93.03 92.13 92.8 93.41 89.35 94.63 92.88 98.08 92.94 95.46 94.93 96.54 98.35"/><rect class="cls-4" x="25.37" y="21.21" width="134.74" height="85.49"/><text class="cls-5" transform="translate(38.45 120.64)">UNDEB EW<tspan class="cls-6" x="55.77" y="0">R</tspan><tspan x="61.96" y="0">OPEAIDD</tspan><tspan x="6.83" y="13">EU</tspan><tspan class="cls-6" x="20" y="13">R</tspan><tspan x="26.19" y="13">OPEAN UNION</tspan></text><path class="cls-2" d="M111.4,164.84a11.74,11.74,0,0,1-5.89,1.5c-5.83,0-8.74-3.81-8.74-7.66s3-7.74,9.07-7.74a10.77,10.77,0,0,1,5.39,1.32v3.45a9,9,0,0,0-5.13-1.63c-3.12,0-5.43,1.81-5.43,4.56,0,3,2.51,4.6,5.32,4.6a8.67,8.67,0,0,0,4-1l1.43-.81Z"/><path class="cls-2" d="M117.25,158.9c1.08-2.26,2.14-3.1,3.28-3.1a3.56,3.56,0,0,1,2.12.93l-.88,2.81a3.54,3.54,0,0,0-1.87-.75c-1.19,0-1.81,1-2.38,2.23,0,.11-.22.66-.27.74v4.38h-3.19V156h3.19Z"/><path class="cls-2" d="M128.74,166.34c-3.1,0-5.74-1.91-5.74-5.21s2.57-5.33,5.76-5.33c2.31,0,5.66,1.3,5.66,5.3S131.07,166.34,128.74,166.34Zm-.09-8.58c-2.22,0-2.22,2.51-2.22,3.43,0,.62,0,3.17,2.31,3.17s2.27-2.64,2.27-3.45S131,157.76,128.65,157.76Z"/><path class="cls-2" d="M139.78,157.45a4.13,4.13,0,0,1,3.3-1.65,3.55,3.55,0,0,1,3.33,2,5,5,0,0,1,.39,2.38v6h-3.21v-5.72a4,4,0,0,0-.15-1.45A1.47,1.47,0,0,0,142,158c-1.27,0-2.09,1.37-2.22,1.59v6.53h-3.19V156h3.19Z"/><path class="cls-2" d="M154.59,156v2.13h-1.45v8H150v-8h-1.46V156H150c.06-1.54.15-2.77,1.16-3.83a4.41,4.41,0,0,1,3.28-1.23,10,10,0,0,1,1.78.17l.16,0v2.57a8.82,8.82,0,0,0-1.43-.13c-1.76,0-1.76,1.21-1.76,2.42Z"/><path class="cls-2" d="M165.81,165a7.89,7.89,0,0,1-4.62,1.34c-4.49,0-5.79-3.08-5.79-5.26a5.19,5.19,0,0,1,5.37-5.28c2.11,0,5.28,1.26,5.22,5.79H158.7c.13,1.85,1.39,2.77,3.37,2.77a5.57,5.57,0,0,0,3.74-1.41Zm-2.64-5.08a2.23,2.23,0,0,0-2.2-2.18,2.2,2.2,0,0,0-2.2,2.18Z"/><path class="cls-2" d="M171.07,171h-3.39l3-6.51-4-8.49h3.41l2.13,5,2.29-5h3.35Z"/><path class="cls-2" d="M188.82,166.14h-3.17v-.81a4.25,4.25,0,0,1-2.81,1c-2.18,0-4.73-1.67-4.73-5.28,0-3.37,2.26-5.26,4.9-5.26a5.73,5.73,0,0,1,2.64.64v-5.3h3.17Zm-3.17-7.61a3.29,3.29,0,0,0-1.78-.59,2.41,2.41,0,0,0-1.72.7,3.16,3.16,0,0,0-.77,2.46c0,2.8,1.9,3,2.4,3a2.92,2.92,0,0,0,1.87-.73Z"/><path class="cls-2" d="M201.49,166.14h-3.17v-.81a4.25,4.25,0,0,1-2.81,1c-2.18,0-4.73-1.67-4.73-5.28,0-3.37,2.26-5.26,4.9-5.26a5.73,5.73,0,0,1,2.64.64v-5.3h3.17Zm-3.17-7.61a3.29,3.29,0,0,0-1.78-.59,2.37,2.37,0,0,0-1.71.7,3.12,3.12,0,0,0-.77,2.46c0,2.8,1.89,3,2.39,3a2.92,2.92,0,0,0,1.87-.73Z"/><path class="cls-2" d="M213.31,171h-3.39l3-6.51-4-8.49h3.41l2.13,5,2.29-5h3.35Z"/><path class="cls-2" d="M224.68,158.9c1.08-2.26,2.13-3.1,3.28-3.1a3.54,3.54,0,0,1,2.11.93l-.88,2.81a3.54,3.54,0,0,0-1.87-.75c-1.19,0-1.8,1-2.38,2.23,0,.11-.22.66-.26.74v4.38h-3.19V156h3.19Z"/><path class="cls-2" d="M252.67,159.3a7,7,0,0,1-1.3,4.62c-1.54,1.85-4,2.42-6.32,2.42-1.16,0-4.29,0-6.31-2.66a6.33,6.33,0,0,1-1.15-4.27v-8.27h3.79v7.43a7.89,7.89,0,0,0,.26,2.34,3.45,3.45,0,0,0,3.48,2.42,3.64,3.64,0,0,0,3.5-2.2,6.62,6.62,0,0,0,.26-2.56v-7.43h3.79Z"/><path class="cls-2" d="M267,166.14H255.9v-15h10.91v2.79h-7.13v3h6.8v2.81h-6.8v3.61H267Z"/><path class="cls-2" d="M271.12,159.87a1.9,1.9,0,1,1,1.92-2A1.94,1.94,0,0,1,271.12,159.87Zm0,6.47a1.92,1.92,0,1,1,1.9-1.91A1.92,1.92,0,0,1,271.14,166.34Z"/><path class="cls-2" d="M66,176.14a10.17,10.17,0,0,1,2.93.28,3.72,3.72,0,0,1,2.86,3.46,3.45,3.45,0,0,1-2,3,3.92,3.92,0,0,1,3.17,3.87,4,4,0,0,1-2.13,3.68,6.59,6.59,0,0,1-3.61.7H60.25v-15Zm-1.91,2.68v3.28h1.41c.85,0,2.53,0,2.53-1.65s-1.65-1.63-2.47-1.63Zm0,6v3.6h1.85c1.29,0,3.14,0,3.14-1.78s-1.78-1.82-3.32-1.82Z"/><path class="cls-2" d="M85.4,191.14H82.19v-1.45A3.75,3.75,0,0,1,79,191.34a3.57,3.57,0,0,1-3.47-2.24,5,5,0,0,1-.22-1.76V181h3.21v5.41c0,1.23,0,2.71,1.54,2.71a2.56,2.56,0,0,0,2.16-1.43V181H85.4Z"/><path class="cls-2" d="M98.36,191.14H95.19v-.81a4.3,4.3,0,0,1-2.82,1c-2.18,0-4.73-1.67-4.73-5.28,0-3.37,2.27-5.26,4.91-5.26a5.76,5.76,0,0,1,2.64.64v-5.3h3.17Zm-3.17-7.61a3.29,3.29,0,0,0-1.78-.59,2.4,2.4,0,0,0-1.72.7,3.16,3.16,0,0,0-.77,2.46c0,2.8,1.89,3,2.4,3a3,3,0,0,0,1.87-.73Z"/><path class="cls-2" d="M111,191.14h-3.17v-.81a4.3,4.3,0,0,1-2.82,1c-2.17,0-4.73-1.67-4.73-5.28,0-3.37,2.27-5.26,4.91-5.26a5.73,5.73,0,0,1,2.64.64v-5.3H111Zm-3.17-7.61a3.29,3.29,0,0,0-1.78-.59,2.4,2.4,0,0,0-1.72.7,3.16,3.16,0,0,0-.77,2.46c0,2.8,1.89,3,2.4,3a2.92,2.92,0,0,0,1.87-.73Z"/><path class="cls-2" d="M120.62,183.82a6.88,6.88,0,0,0-3.15-1c-.28,0-1.4,0-1.4.7,0,.4.22.55,1.25,1,2,.79,3.81,1.54,3.81,3.59s-1.54,3.23-4.14,3.23a8.84,8.84,0,0,1-3.63-.75v-2.24a6.91,6.91,0,0,0,3.23.94c1.06,0,1.54-.35,1.54-.77,0-.57-.39-.72-1.93-1.36a13.69,13.69,0,0,1-1.7-.79,2.79,2.79,0,0,1-1.34-2.42c0-1.72,1.45-3.15,4.14-3.15a6.72,6.72,0,0,1,3.32.75Z"/><path class="cls-2" d="M128.28,191.34c-3.11,0-5.75-1.91-5.75-5.21s2.58-5.33,5.77-5.33c2.31,0,5.65,1.3,5.65,5.3S130.61,191.34,128.28,191.34Zm-.09-8.58c-2.23,0-2.23,2.51-2.23,3.43,0,.62,0,3.17,2.32,3.17s2.26-2.64,2.26-3.45S130.54,182.76,128.19,182.76Z"/><path class="cls-2" d="M146.36,191.14h-3.17v-.81a4.25,4.25,0,0,1-2.81,1c-2.18,0-4.74-1.67-4.74-5.28,0-3.37,2.27-5.26,4.91-5.26a5.73,5.73,0,0,1,2.64.64v-5.3h3.17Zm-3.17-7.61a3.29,3.29,0,0,0-1.78-.59,2.41,2.41,0,0,0-1.72.7,3.16,3.16,0,0,0-.77,2.46c0,2.8,1.89,3,2.4,3a2.92,2.92,0,0,0,1.87-.73Z"/><path class="cls-2" d="M159,191.14h-3.17v-.81a4.25,4.25,0,0,1-2.81,1c-2.18,0-4.73-1.67-4.73-5.28,0-3.37,2.26-5.26,4.9-5.26a5.73,5.73,0,0,1,2.64.64v-5.3H159Zm-3.17-7.61a3.29,3.29,0,0,0-1.78-.59,2.41,2.41,0,0,0-1.72.7,3.16,3.16,0,0,0-.77,2.46c0,2.8,1.9,3,2.4,3a2.92,2.92,0,0,0,1.87-.73Z"/><path class="cls-2" d="M165,177.65a1.75,1.75,0,1,1-3.5,0,1.75,1.75,0,0,1,3.5,0Zm-.29,13.49h-3.06V181h3.06Z"/><path class="cls-2" d="M176.76,196h-3.39l3-6.51-4-8.49h3.41l2.14,5,2.29-5h3.34Z"/><path class="cls-2" d="M188.14,182.45a4.1,4.1,0,0,1,3.3-1.65,3.53,3.53,0,0,1,3.32,2,5.05,5.05,0,0,1,.4,2.38v6h-3.22v-5.72a4,4,0,0,0-.15-1.45,1.45,1.45,0,0,0-1.43-.95c-1.28,0-2.09,1.37-2.22,1.59v6.53H185V181h3.19Z"/><path class="cls-2" d="M207.76,183.11h-1.47a2.94,2.94,0,0,1,.5,1.72,3.33,3.33,0,0,1-2.79,3.23,7.36,7.36,0,0,1-1.85.24c-.83.07-1,.51-1,.69,0,.52.77.61,2.29.72s3.94.64,3.94,3.13a3.12,3.12,0,0,1-2.07,2.86,7.35,7.35,0,0,1-3.15.5,10.43,10.43,0,0,1-3.25-.39,2.91,2.91,0,0,1-2.23-2.56c0-.85.49-2,2.73-2.55-.7-.22-1.25-.61-1.25-1.34,0-1.08,1.21-1.36,1.87-1.52a3.3,3.3,0,0,1-2.84-3.17,3.41,3.41,0,0,1,2-3.12,6.46,6.46,0,0,1,2.95-.55h5.63Zm-5.63,8.8c-.4,0-2.49,0-2.49,1.23,0,.31.22,1.17,2.45,1.17a3.2,3.2,0,0,0,1.87-.37,1.18,1.18,0,0,0,.59-.9C204.55,191.91,202.48,191.91,202.13,191.91Zm-.13-9a1.83,1.83,0,0,0,0,3.65,1.88,1.88,0,0,0,1.85-1.87A1.83,1.83,0,0,0,202,182.89Z"/><path class="cls-2" d="M230.93,191.14H227.8l-8.29-9.28v9.28h-3.72v-15h3.41l8,8.84v-8.84h3.7Z"/><path class="cls-2" d="M244.28,183.11h-1.47a2.94,2.94,0,0,1,.5,1.72,3.33,3.33,0,0,1-2.79,3.23,7.43,7.43,0,0,1-1.85.24c-.84.07-1,.51-1,.69,0,.52.77.61,2.29.72s3.94.64,3.94,3.13a3.12,3.12,0,0,1-2.07,2.86,7.35,7.35,0,0,1-3.15.5,10.4,10.4,0,0,1-3.25-.39,2.91,2.91,0,0,1-2.23-2.56c0-.85.49-2,2.73-2.55-.7-.22-1.25-.61-1.25-1.34,0-1.08,1.21-1.36,1.87-1.52a3.3,3.3,0,0,1-2.84-3.17,3.41,3.41,0,0,1,2-3.12,6.46,6.46,0,0,1,3-.55h5.63Zm-5.63,8.8c-.4,0-2.49,0-2.49,1.23,0,.31.22,1.17,2.44,1.17a3.16,3.16,0,0,0,1.87-.37,1.17,1.17,0,0,0,.6-.9C241.07,191.91,239,191.91,238.65,191.91Zm-.13-9a1.83,1.83,0,0,0,0,3.65,1.88,1.88,0,0,0,1.85-1.87A1.83,1.83,0,0,0,238.52,182.89Z"/><path class="cls-2" d="M249.14,182.5a3.91,3.91,0,0,1,3.24-1.7,3.41,3.41,0,0,1,3,1.5A4.3,4.3,0,0,1,256,185v6.16h-3.17v-5.48c0-.79,0-2.53-1.63-2.53a2.6,2.6,0,0,0-2.09,1.54v6.47h-3.25v-15h3.25Z"/><path class="cls-2" d="M261.35,196H258l3-6.51L257,181h3.41l2.14,5,2.29-5h3.34Z"/><path class="cls-2" d="M272.7,182.3a5.19,5.19,0,0,1,3.57-1.5,4.08,4.08,0,0,1,2.71.93,3.55,3.55,0,0,1,.92,1.23,5.25,5.25,0,0,1,4-2.16,3.82,3.82,0,0,1,3.15,1.43,4.09,4.09,0,0,1,.84,2.8v6.11h-3.22v-5.48c0-.88,0-2.59-1.89-2.59a3.2,3.2,0,0,0-2.51,1.58v6.49h-3.19v-5.65a3,3,0,0,0-.26-1.52,1.93,1.93,0,0,0-1.67-.93,3.35,3.35,0,0,0-2.45,1.3v6.8h-3.16V181h3.16Z"/><path class="cls-2" d="M293.8,183.9c1.08-2.26,2.14-3.1,3.28-3.1a3.51,3.51,0,0,1,2.11.93l-.88,2.81a3.51,3.51,0,0,0-1.87-.75c-1.19,0-1.8,1-2.37,2.23-.05.11-.22.66-.27.74v4.38h-3.19V181h3.19Z"/><path class="cls-2" d="M310.52,191.14h-3.21v-1.45a3.73,3.73,0,0,1-3.21,1.65,3.59,3.59,0,0,1-3.48-2.24,5,5,0,0,1-.22-1.76V181h3.21v5.41c0,1.23,0,2.71,1.54,2.71a2.56,2.56,0,0,0,2.16-1.43V181h3.21Z"/><path class="cls-2" d="M145.6,223.14H134.54v-15h10.91v2.79h-7.13v3h6.8v2.81h-6.8v3.61h7.28Z"/><path class="cls-2" d="M163.4,216.3a6.92,6.92,0,0,1-1.3,4.62c-1.54,1.85-4,2.42-6.31,2.42-1.17,0-4.29,0-6.32-2.66a6.4,6.4,0,0,1-1.14-4.27v-8.27h3.78v7.43a7.61,7.61,0,0,0,.27,2.34,3.45,3.45,0,0,0,3.48,2.42,3.62,3.62,0,0,0,3.49-2.2,6.39,6.39,0,0,0,.27-2.56v-7.43h3.78Z"/><path class="cls-2" d="M183.09,211h-6.55v3.17h6.55V217h-6.55v6.16h-3.79v-15h10.34Z"/><path class="cls-2" d="M195.5,223.14h-3.21v-1.45a3.75,3.75,0,0,1-3.22,1.65,3.57,3.57,0,0,1-3.47-2.24,5,5,0,0,1-.22-1.76V213h3.21v5.41c0,1.23,0,2.71,1.54,2.71a2.56,2.56,0,0,0,2.16-1.43V213h3.21Z"/><path class="cls-2" d="M201.42,214.45a4.1,4.1,0,0,1,3.3-1.65,3.53,3.53,0,0,1,3.32,2,5.05,5.05,0,0,1,.4,2.38v6h-3.22v-5.72a4,4,0,0,0-.15-1.45,1.45,1.45,0,0,0-1.43-.95c-1.28,0-2.09,1.37-2.22,1.59v6.53h-3.19V213h3.19Z"/><path class="cls-2" d="M221.39,223.14h-3.17v-.81a4.25,4.25,0,0,1-2.81,1c-2.18,0-4.73-1.67-4.73-5.28,0-3.37,2.26-5.26,4.9-5.26a5.73,5.73,0,0,1,2.64.64v-5.3h3.17Zm-3.17-7.61a3.29,3.29,0,0,0-1.78-.59,2.37,2.37,0,0,0-1.71.7,3.12,3.12,0,0,0-.77,2.46c0,2.8,1.89,3,2.39,3a2.92,2.92,0,0,0,1.87-.73Z"/><path class="cls-2" d="M231,215.82a6.85,6.85,0,0,0-3.14-1c-.29,0-1.41,0-1.41.7,0,.4.22.55,1.25,1,2,.79,3.81,1.54,3.81,3.59s-1.54,3.23-4.14,3.23a8.89,8.89,0,0,1-3.63-.75v-2.24a6.94,6.94,0,0,0,3.24.94c1,0,1.54-.35,1.54-.77,0-.57-.4-.72-1.94-1.36a14.07,14.07,0,0,1-1.69-.79,2.79,2.79,0,0,1-1.34-2.42c0-1.72,1.45-3.15,4.13-3.15a6.66,6.66,0,0,1,3.32.75Z"/><path class="cls-2" d="M235.05,216.87a1.89,1.89,0,0,1-1.91-1.89,1.91,1.91,0,0,1,1.89-1.91,1.89,1.89,0,0,1,1.94,1.84A1.94,1.94,0,0,1,235.05,216.87Zm0,6.47a1.92,1.92,0,1,1,1.89-1.91A1.92,1.92,0,0,1,235.08,223.34Z"/><path class="cls-2" d="M98.16,248.14H94.37v-15h3.79Z"/><path class="cls-2" d="M104.38,239.45a4.14,4.14,0,0,1,3.31-1.65,3.53,3.53,0,0,1,3.32,2,5,5,0,0,1,.39,2.38v6h-3.21v-5.72A4,4,0,0,0,108,241a1.45,1.45,0,0,0-1.43-.95c-1.28,0-2.09,1.37-2.23,1.59v6.53h-3.19V238h3.19Z"/><path class="cls-2" d="M118.75,248.34h-1.94L112.15,238h3.39l2.2,5.39,2.13-5.39h3.39Z"/><path class="cls-2" d="M133.78,247a7.91,7.91,0,0,1-4.62,1.34c-4.49,0-5.79-3.08-5.79-5.26a5.19,5.19,0,0,1,5.37-5.28c2.11,0,5.28,1.26,5.21,5.79h-7.28c.13,1.85,1.39,2.77,3.37,2.77a5.59,5.59,0,0,0,3.74-1.41Zm-2.64-5.08a2.23,2.23,0,0,0-2.2-2.18,2.2,2.2,0,0,0-2.2,2.18Z"/><path class="cls-2" d="M143.26,240.82a6.88,6.88,0,0,0-3.15-1c-.28,0-1.41,0-1.41.7,0,.4.22.55,1.26,1,2,.79,3.81,1.54,3.81,3.59s-1.54,3.23-4.14,3.23a8.8,8.8,0,0,1-3.63-.75v-2.24a6.91,6.91,0,0,0,3.23.94c1.06,0,1.54-.35,1.54-.77,0-.57-.39-.72-1.93-1.36a13.69,13.69,0,0,1-1.7-.79A2.79,2.79,0,0,1,135.8,241c0-1.72,1.45-3.15,4.14-3.15a6.72,6.72,0,0,1,3.32.75Z"/><path class="cls-2" d="M152.7,240.2H149v2.22a14.25,14.25,0,0,0,.09,2.47,1.34,1.34,0,0,0,1.43,1.1,4.59,4.59,0,0,0,2.14-.6v2.31a7.59,7.59,0,0,1-3,.64,4,4,0,0,1-3.3-1.52,4.62,4.62,0,0,1-.62-2.95V240.2h-1.45v-.59l4.24-4.8H149V238h3.66Z"/><path class="cls-2" d="M158.06,234.65a1.75,1.75,0,1,1-1.73-1.73A1.72,1.72,0,0,1,158.06,234.65Zm-.28,13.49h-3.06V238h3.06Z"/><path class="cls-2" d="M163.83,239.45a4.12,4.12,0,0,1,3.3-1.65,3.53,3.53,0,0,1,3.32,2,4.93,4.93,0,0,1,.4,2.38v6h-3.22v-5.72a4,4,0,0,0-.15-1.45,1.45,1.45,0,0,0-1.43-.95c-1.28,0-2.09,1.37-2.22,1.59v6.53h-3.19V238h3.19Z"/><path class="cls-2" d="M183.45,240.11H182a2.94,2.94,0,0,1,.5,1.72,3.33,3.33,0,0,1-2.79,3.23,7.36,7.36,0,0,1-1.85.24c-.83.07-1,.51-1,.69,0,.52.77.61,2.29.72s3.94.64,3.94,3.13A3.12,3.12,0,0,1,181,252.7a7.35,7.35,0,0,1-3.15.5,10.43,10.43,0,0,1-3.25-.39,2.9,2.9,0,0,1-2.22-2.56c0-.85.48-2,2.72-2.55-.7-.22-1.25-.61-1.25-1.34,0-1.08,1.21-1.36,1.87-1.52a3.3,3.3,0,0,1-2.84-3.17,3.42,3.42,0,0,1,2-3.12,6.46,6.46,0,0,1,2.95-.55h5.63Zm-5.63,8.8c-.4,0-2.49,0-2.49,1.23,0,.31.22,1.17,2.45,1.17a3.2,3.2,0,0,0,1.87-.37,1.18,1.18,0,0,0,.59-.9C180.24,248.91,178.17,248.91,177.82,248.91Zm-.13-9a1.83,1.83,0,0,0,0,3.65,1.88,1.88,0,0,0,1.85-1.87A1.83,1.83,0,0,0,177.69,239.89Z"/><path class="cls-2" d="M194.52,234.65a1.75,1.75,0,1,1-1.74-1.73A1.72,1.72,0,0,1,194.52,234.65Zm-.29,13.49h-3.06V238h3.06Z"/><path class="cls-2" d="M200.28,239.45a4.13,4.13,0,0,1,3.3-1.65,3.56,3.56,0,0,1,3.33,2,5,5,0,0,1,.39,2.38v6h-3.21v-5.72a3.73,3.73,0,0,0-.16-1.45,1.45,1.45,0,0,0-1.43-.95c-1.27,0-2.09,1.37-2.22,1.59v6.53h-3.19V238h3.19Z"/><path class="cls-2" d="M233.83,248.34h-1.6l-4.62-9.79L223,248.34h-1.6l-6.6-15.2h4l3.54,8.29,3.85-8.29h3.06l3.76,8.29,3.57-8.29h4Z"/><path class="cls-2" d="M250.84,247.42a6.56,6.56,0,0,1-3,.92c-1.5,0-1.7-.73-1.81-1.12a5.84,5.84,0,0,1-3.34,1.12,2.68,2.68,0,0,1-2.84-2.66c0-2,2.07-2.75,2.82-3,.5-.17,2.75-.9,3.21-1,0-.53,0-1.72-1.74-1.72a5.49,5.49,0,0,0-3.76,1.72V239a8.21,8.21,0,0,1,4.42-1.23c.51,0,3.08,0,4,1.65a3.28,3.28,0,0,1,.31,1.85v4c0,.36,0,.82.51.82a2.87,2.87,0,0,0,1.23-.49Zm-5-4.18c-.22.08-1.37.52-1.61.63s-1.19.58-1.19,1.48a1.06,1.06,0,0,0,1,1.08,2.74,2.74,0,0,0,1.78-.75Z"/><path class="cls-2" d="M255.39,248.14h-3.21v-15h3.21Z"/><path class="cls-2" d="M268,247a7.91,7.91,0,0,1-4.62,1.34c-4.49,0-5.79-3.08-5.79-5.26a5.19,5.19,0,0,1,5.37-5.28c2.11,0,5.28,1.26,5.21,5.79h-7.28c.13,1.85,1.39,2.77,3.37,2.77A5.59,5.59,0,0,0,268,245Zm-2.64-5.08a2.24,2.24,0,0,0-2.2-2.18,2.19,2.19,0,0,0-2.2,2.18Z"/><path class="cls-2" d="M277.46,240.82a6.88,6.88,0,0,0-3.15-1c-.28,0-1.41,0-1.41.7,0,.4.22.55,1.26,1,2,.79,3.8,1.54,3.8,3.59s-1.54,3.23-4.13,3.23a8.8,8.8,0,0,1-3.63-.75v-2.24a6.91,6.91,0,0,0,3.23.94c1.06,0,1.54-.35,1.54-.77,0-.57-.39-.72-1.93-1.36a13.69,13.69,0,0,1-1.7-.79A2.79,2.79,0,0,1,270,241c0-1.72,1.45-3.15,4.14-3.15a6.72,6.72,0,0,1,3.32.75Z"/><text/></g></g></svg>