<svg xmlns="http://www.w3.org/2000/svg" viewBox="0 0 213.62 63"><defs><style>.cls-1{fill:#002e52;}</style></defs><title>CardfiffMet_logo</title><g id="Layer_2" data-name="Layer 2"><g id="Layer_1-2" data-name="Layer 1"><path class="cls-1" d="M12.15,13.38Z"/><path class="cls-1" d="M12.6,16.13a.53.53,0,0,0-.54.52h0a.54.54,0,1,0,1.08,0,.52.52,0,0,0-.54-.52Z"/><polygon class="cls-1" points="10.52 9.97 10.62 9.86 10.84 9.89 10.81 9.52 10.73 9.52 10.76 9.76 10.54 9.76 10.52 9.97"/><polygon class="cls-1" points="9.9 10.01 10.01 9.9 10.22 9.93 10.19 9.55 10.11 9.55 10.14 9.79 9.93 9.79 9.9 10.01"/><polygon class="cls-1" points="12.42 9.36 12.16 9.36 12.13 9.54 11.97 9.54 11.86 9.41 11.92 9.33 11.97 9.2 11.74 9.2 11.79 9.54 11.52 9.36 11.34 9.57 11.28 9.39 11.18 9.39 11.2 9.76 11.39 9.7 11.55 9.54 11.68 9.68 11.89 9.68 12.18 9.68 12.32 9.49 12.45 9.63 12.55 9.44 12.42 9.36"/><path class="cls-1" d="M13.15,9.56h.27V9.2h-.11v.2h-.2V9.24L13,9.16,12.9,9v.25h-.12v.11H13v.18Z"/><path class="cls-1" d="M13.7,9.7V9.32l-.12-.05v.42S13.7,9.74,13.7,9.7Z"/><polygon class="cls-1" points="13.48 10.44 13.6 10.61 13.62 9.93 13.43 10.05 13.21 10.04 13.2 10.23 13.46 10.23 13.48 10.44"/><polygon class="cls-1" points="13.13 10.56 13.25 10.65 13.19 10.45 12.98 10.49 12.96 10.25 12.88 10.27 12.93 10.63 13.13 10.56"/><polygon class="cls-1" points="11.85 10.63 12.05 10.59 12.16 10.44 12.35 10.56 12.54 10.58 12.49 10.21 12.39 10.23 12.37 10.42 12.15 10.25 11.93 10.48 11.91 10.14 11.68 10.18 11.75 10.3 11.82 10.37 11.74 10.52 11.59 10.55 11.53 10.38 11.27 10.43 11.15 10.53 11.29 10.69 11.39 10.54 11.57 10.69 11.85 10.63"/><path class="cls-1" d="M10.38,10.46h-.1l.07.41h.1l.14-.09h.16V10.6H11v-.1h-.12s-.06-.21-.06-.24l-.09.18,0,.09v.16h-.2Z"/><polygon class="cls-1" points="10.57 11.45 10.46 11.28 10.43 11.96 10.62 11.84 10.84 11.85 10.86 11.66 10.59 11.66 10.57 11.45"/><polygon class="cls-1" points="11.08 11.41 11.1 11.64 11.17 11.63 11.13 11.26 10.93 11.33 10.81 11.24 10.87 11.44 11.08 11.41"/><polygon class="cls-1" points="11.53 12.52 11.32 12.34 11.08 12.55 11.09 12.21 10.86 12.23 10.92 12.36 10.99 12.43 10.9 12.58 10.74 12.6 10.69 12.42 10.43 12.45 10.31 12.54 10.44 12.72 10.55 12.57 10.7 12.73 10.99 12.7 11.2 12.67 11.32 12.52 11.5 12.66 11.69 12.69 11.66 12.32 11.68 12.2 11.53 12.52"/><polygon class="cls-1" points="10.67 13.65 10.78 13.56 10.96 13.6 10.97 13.27 10.9 13.26 10.9 13.48 10.71 13.46 10.67 13.65"/><path class="cls-1" d="M29,6.22h1.1a11.27,11.27,0,0,0-1.54-.1A17,17,0,0,0,24,6.78v.15h.09A17.2,17.2,0,0,1,29,6.22Z"/><path class="cls-1" d="M24.22,8.06v.19h.27a7.88,7.88,0,0,1,4.45,1.86A6.62,6.62,0,0,0,24.22,8.06Z"/><path class="cls-1" d="M23,10.68l-.11.09a6.63,6.63,0,0,1,.35,3.15A6.85,6.85,0,0,0,23,10.68Z"/><path class="cls-1" d="M23,14.68a3.29,3.29,0,0,1,3.44-.8l-.1-.35s-.06-.21-.18-.53a11.05,11.05,0,0,0-2.44-3,1.87,1.87,0,0,1-.58.54c.12.41.83,3,0,3.94l-.14.15Zm3-1.27a1.94,1.94,0,0,0-2.2.39c.81-2.21,2.19-.39,2.19-.39Z"/><path class="cls-1" d="M23.92,9.7h0a6.3,6.3,0,0,1,2,2.23,4,4,0,0,1,.33.65l.05.13v.08A7,7,0,0,0,24,9.55Z"/><path class="cls-1" d="M20.29,5.6h0c0,.07-.08.25,0,.36a.37.37,0,0,0,.26.16.32.32,0,0,0,.32-.2.36.36,0,0,0,0-.32h0a.33.33,0,0,1,0,.14.26.26,0,0,1-.26.25.25.25,0,0,1-.25-.25.33.33,0,0,1,0-.14Z"/><polygon class="cls-1" points="20.97 5.03 21.14 5.04 21.28 4.24 20.61 3.41 20.73 4.93 20.97 5.03"/><path class="cls-1" d="M22.89,6.13a16.79,16.79,0,0,1,6.35-3.2A5,5,0,0,1,30.77,0a18,18,0,0,0-7.54,5v.31h0A.84.84,0,0,0,22.89,6.13Z"/><path class="cls-1" d="M9.33,10.5a3.78,3.78,0,0,1,.34,1.36,2.9,2.9,0,0,1-.24,1.23,3.18,3.18,0,0,0-.28,1.17,1.23,1.23,0,0,0,.35,1,.8.8,0,0,0,.53.19h.12a15.19,15.19,0,0,1,2-.34h0a2.88,2.88,0,0,1-.06.83h0a.87.87,0,0,0-.47.76.89.89,0,0,0,1.78,0,.85.85,0,0,0-.3-.65h0a1.8,1.8,0,0,0,.11-1h1.25s.27-.14.27-.67a.54.54,0,0,0-.17-.41.86.86,0,0,0-.58-.18h-.1a.61.61,0,0,0,0-.19h.27a1.49,1.49,0,0,0,.47-.07h0a1.64,1.64,0,0,0,.93.75,2.6,2.6,0,0,1,2.07.86,3.25,3.25,0,0,1,1.74-.47,2.48,2.48,0,0,1,1.71-1,2.34,2.34,0,0,1,1.8,1l.05-.15a1.31,1.31,0,0,0,.06-.27A6.37,6.37,0,0,0,22.3,11a4.9,4.9,0,0,1-1.27.14h0a3.16,3.16,0,0,0,2.15-1.31,3.21,3.21,0,0,0,0-3h0A7.63,7.63,0,0,1,24.86,5.5,19.32,19.32,0,0,1,31,3.33h0a31.26,31.26,0,0,0-7,3.28h0a17.52,17.52,0,0,1,4.6-.67,10.79,10.79,0,0,1,3,.39h0a.69.69,0,0,1-.44.15c-4,.16-4.15.2-6.51.84l-.47.12v.4a6.55,6.55,0,0,1,5.44,2.94h0a.64.64,0,0,1-.41-.16,13.28,13.28,0,0,0-5-2,3.08,3.08,0,0,1-.16.73c.3.24,2.49,2.05,2.47,4.08v.4l.2.09a2.67,2.67,0,0,1,.57-2,2.75,2.75,0,0,1,2-.75,4.17,4.17,0,0,1,.71.06,3.16,3.16,0,0,1,.64-3.42,6.53,6.53,0,0,1,1.55-1.27,2.51,2.51,0,0,1-1.34-2,2.88,2.88,0,0,1,1.33-2l-1,.18c-2.13.48-6,1.6-8.29,3.78l-.18.16-.09-.22A1.35,1.35,0,0,1,22.83,5V5a.67.67,0,0,1-.22-.46.69.69,0,0,1,.18-.43A2.65,2.65,0,0,1,21.73,3l-.36,1.41-.14.76h-.38l-.27-.11A3.74,3.74,0,0,0,19.83,5c-.16,0-.61-.15-.6.14l.33.19a5.45,5.45,0,0,0,1.66.08h0a.08.08,0,0,1,.08.08.08.08,0,0,1,0,0h-.43a.72.72,0,0,1,0,.46.41.41,0,0,1-.43.27A.54.54,0,0,1,20,6a.69.69,0,0,1,0-.49H19.9c-.24.16-.06.67-.06.67v.06h0a.67.67,0,0,1-.21-.75l-.21-.06h0l-.27-.1a.62.62,0,0,1,0,.38s0,.06-.08.06H19a.06.06,0,0,1,0-.06.51.51,0,0,0-.05-.4h-.2a.75.75,0,0,1,0,.42.08.08,0,0,1-.1.06h-.05a.06.06,0,0,1,0-.06.46.46,0,0,0-.05-.41h-.14a.34.34,0,0,1,0,.28s-.07.07-.1,0h-.05a.06.06,0,0,1,0-.06c.05-.15-.05-.21-.06-.21h-.14a.56.56,0,0,1-.21.55.43.43,0,0,1-.35.17h-.23c0,.15-.09.42.07.52a.22.22,0,0,0,.11,0c.07,0,.11-.07.12-.13V6.39h.14a.49.49,0,0,0,.24,0,.21.21,0,0,0,.14-.1h0a.8.8,0,0,0,.34.18.86.86,0,0,0,.39,0l.22-.09h0l.13.12.15.08.27.09a2.14,2.14,0,0,0,.43.07h.24l-.31.1a.25.25,0,0,1-.17.06h-.26a1.62,1.62,0,0,1-.28-.11l-.1-.24h-.07a.65.65,0,0,1-.2,0h-.14a.8.8,0,0,1-.45-.14l-.14-.12h0a1.06,1.06,0,0,1-.39.13h-.08l.18.52.26-.59h0a.76.76,0,0,0,.19.21h0l.16.44.19-.41h.15l.18.5.19-.42h0a.72.72,0,0,0,.36.2h0l.11.32h0A4.48,4.48,0,0,0,19,7.16H17.82a4.31,4.31,0,0,1-2.56-.91h0a1.59,1.59,0,0,0,.8-.39A2.34,2.34,0,0,1,14.51,5a11.15,11.15,0,0,0,.34,2,3.91,3.91,0,0,1,.33-.82h0A4.52,4.52,0,0,0,18,7.12h0l-.16.28h-.3a2.07,2.07,0,0,0-.77.15l-.14.08a2.07,2.07,0,0,1-.77.3.93.93,0,0,0,.6.19,1.68,1.68,0,0,0,.45-.06h0a.9.9,0,0,1-.39.56.52.52,0,0,0,.27.07,1.26,1.26,0,0,0,.78-.44H18a3.72,3.72,0,0,1,1,.14.8.8,0,0,1,.3-.06c.06,0,.53,0,.52.09s-.47.12-.53.12h0a.44.44,0,0,0-.32.13.52.52,0,0,0,.2.54h0s0,.23-.11.23H19a.5.5,0,0,1-.18-.52h0a.71.71,0,0,0-.29,0H18.4L18.23,9h0a.49.49,0,0,0,.18.68h0a.35.35,0,0,1,.08.26.25.25,0,0,1-.11.17.31.31,0,0,1-.19.06.42.42,0,0,1-.39-.42h0a.83.83,0,0,0-.59.33h0a.31.31,0,0,0,0,.23.56.56,0,0,0,.36.26s.22,0,.26.13a.18.18,0,0,1-.06.19c-.06.08-.11.11-.17.11a.44.44,0,0,1-.19-.07h0a.39.39,0,0,1-.25-.17h-.08a.68.68,0,0,0-.51.29v.09a.76.76,0,0,0,.51.46h0a.19.19,0,0,1,.13.05.23.23,0,0,1,0,.2.18.18,0,0,1-.17.14.83.83,0,0,1-.21-.06h0a.71.71,0,0,1-.18-.12H16.6a.43.43,0,0,0-.16.5,1.43,1.43,0,0,1,1,0,.86.86,0,0,1,.56-.73,1,1,0,0,1,.09-.65.74.74,0,0,1,.34-.29.89.89,0,0,1,.72-.76.12.12,0,0,1,.14.09.09.09,0,0,1,0,.1h-.07a.67.67,0,0,0-.53.61v.1a1.81,1.81,0,0,0,.48.29h-.05c-.4,0-.52-.15-.54-.29a.43.43,0,0,0-.26.2,1,1,0,0,0,0,.58v.14h-.15a.49.49,0,0,0-.41.33,1.41,1.41,0,0,0-.07.41v.14a.47.47,0,0,0,.25.11.24.24,0,0,0,.12,0,.28.28,0,0,1,.22-.22.09.09,0,0,1,.12,0c.09.09.07.33.07.34h0a.62.62,0,0,1-.39.14.55.55,0,0,1-.42-.22h0l-.15-.17a0,0,0,0,0,0-.05h0c-.32-.22-.91,0-.92,0h-.07l-.05-.06-.32.06h0a.76.76,0,0,0-.42-.11,1.5,1.5,0,0,0-.47.08.77.77,0,0,1-.68.46h-.07a.82.82,0,0,0,.58-.49h0a3.54,3.54,0,0,0-.79-.59h0a2.27,2.27,0,0,0-.26-.28H14l-.21-.14h0v-.18h-.08l-.12.06h0a1.7,1.7,0,0,0-.42-.33l.19.33h-.19v.07h.12l.05.19.07-.14.12.22-.91-.25h.17l.1-.08-.11-.13-.1.15-.17-.17-.48.09-.11.17-.2-.14h-.15v.32h.06v-.22l.24.19.24-.25v.37h.18l-.06-.09-.08-.08.07-.12.28.51h-.85a1.33,1.33,0,0,0,.45.37h.05l.18.08h0a.21.21,0,0,1-.08.11h-.11v-.24h0l.05.32h0a.92.92,0,0,1-.32.14,1.84,1.84,0,0,0,.68.17.49.49,0,0,0,.24,0h0a4.76,4.76,0,0,1-.49.28H12.2v.08H12l-.1-.15L12,13v-.09h-.15v.33l-.24-.2-.2.19v-.19h-.06v.29h.14l.17-.14.11.14h.43l.12-.14h.06l.07.09v-.07h0a2.11,2.11,0,0,0,1,0h0a1.06,1.06,0,0,0,.34.12h0v.27h0a15.38,15.38,0,0,1-2.35.15h-1.2l.06.1s.24.37.12.62-.19.19-.41.22H9.9a.59.59,0,0,1-.34-.08l-.25-.13h0a2.16,2.16,0,0,1,0-.36A2.93,2.93,0,0,1,9.54,13h0a3.45,3.45,0,0,0,.24-1.27,4,4,0,0,0-.35-1.4h0a3.9,3.9,0,0,1-.34-1.58,1.49,1.49,0,0,1,1-1.41h0c.08,0,.51.1,1.1.17a10.74,10.74,0,0,0,2.19.19h.78a.39.39,0,0,1,.17.25.3.3,0,0,1-.08.24h0A5.56,5.56,0,0,0,13,8.08a11.8,11.8,0,0,0-2.37.28h0V8.25a.54.54,0,0,0-.47-.6h0c-.5,0-.7.57-.74.87h0a.74.74,0,0,0,0,.21.67.67,0,0,0,.45.43.59.59,0,0,0,.23.05,1.85,1.85,0,0,0,.41-.07h.1c.19-.05.39-.08.58-.11a10.69,10.69,0,0,1,1.6,0h0a8.26,8.26,0,0,1,1,.06h0a18.42,18.42,0,0,1,.15,2.35h.21v-.5l1.24,1.3a1.22,1.22,0,0,1,.82,0,.6.6,0,0,1,.21-.48,1.08,1.08,0,0,1,0-.75.66.66,0,0,1,.21-.23,1.23,1.23,0,0,0-.81-.24h-.29l-.41-.42L14.66,10,14,9.51h0A4,4,0,0,0,14,8.89h.34a.76.76,0,0,0,.58-.76.58.58,0,0,0-.51-.64h0a6.85,6.85,0,0,1-1.57.15,15,15,0,0,1-2.67-.27h0A1.64,1.64,0,0,0,9,8.89a3.84,3.84,0,0,0,.36,1.63Zm19.12.29a1.64,1.64,0,0,0-1.32.59,1.91,1.91,0,0,0-.42.81h0A1.59,1.59,0,0,1,26.85,11a1.26,1.26,0,0,1,1-.3,2.15,2.15,0,0,1,.62.08h0Zm.9-.94V10l-.05-.09A2.19,2.19,0,0,1,29,8.1c.44-1,2-1.2,2-1.2h0A2.83,2.83,0,0,0,29.35,9.85ZM31,5.92l.1.09h-.12c-.55-.25-1-.54-1-.9-.07-.6.68-1.15.71-1.17l.16-.12L30.67,4C29.84,4.91,30.94,5.91,31,5.92Zm-14,2a.5.5,0,0,1-.39.14A.7.7,0,0,1,16.25,8h0a1.13,1.13,0,0,0,.5-.22h0s.18,0,.2.13,0,0,0,0Zm4.65,5c.78,0,1,1.11,1,1.12v.09L22.52,14a1.67,1.67,0,0,0-1.43-.71,2.31,2.31,0,0,0-.52.06h-.09l.07-.06a1.65,1.65,0,0,1,1-.39ZM21.78,5V4.92a1.61,1.61,0,0,0,.1-.75V4s.71,1.13.24,1.62h0a.34.34,0,0,1-.28-.12A.62.62,0,0,1,21.78,5Zm-.56,1.86H21a.92.92,0,0,0,.3-.18h0l.12.18-.15-.36h0a.59.59,0,0,0,.26-.39.82.82,0,0,0-.13-.37V5.53h0a1.25,1.25,0,0,1,.13,1.21,1.31,1.31,0,0,1,.21.36h0a3.55,3.55,0,0,0-.26.84v0A2.76,2.76,0,0,0,21,7.07L20.85,7,21,7a1.24,1.24,0,0,1,.43.39V7.37a1.18,1.18,0,0,0-.2-.54Zm-.3,1.46h0a.8.8,0,0,0,.26,0,.35.35,0,0,0,.35-.21h.06a.11.11,0,0,1,.12.06.5.5,0,0,1-.1.31v.53l-.19.15V8.64h-.27a1.13,1.13,0,0,1-.58,1.16h-.19a1.25,1.25,0,0,0,.54-1.51Zm-.45-1.58h0a3.77,3.77,0,0,1,.07,1.34h0a2.61,2.61,0,0,0-.28-1.31h0ZM20,6.85h0l.11,0h0a1.72,1.72,0,0,1,.18.54h0a2.25,2.25,0,0,0-.44-.14h0Zm-.49.43a2.21,2.21,0,0,1,.84.25h0a1.41,1.41,0,0,1,0,.29h0l-.77-.15h0l-.1-.42Zm-.61-.06.51,0h0l-.21.37H18.9l-.09-.37Zm-.68,0h.53l-.19.32h-.37V7.15Zm1,.73H17.56a.42.42,0,0,0-.18-.11h1.15A1.24,1.24,0,0,1,19,7.9h.13l.49.09a2.05,2.05,0,0,1,.76.28h0a4.41,4.41,0,0,0-1.23-.39Zm.59,1.54c.76-.12,1-1.38,1-1.39h0c0,1.3-.64,1.44-.9,1.44h-.22ZM19,12.35H19c1.46-.26,1.83-2.61,1.83-2.64h0V10h.32a2.4,2.4,0,0,0,1.38-.38,1.28,1.28,0,0,1,.58-1.33,2.49,2.49,0,0,0-.08-.61c-.88.26-.93.86-.93.86v0a1.4,1.4,0,0,1,.14-1.18A1.18,1.18,0,0,1,23.09,7h0a1.29,1.29,0,0,1,.12.38A2.31,2.31,0,0,1,23,9.55a2.24,2.24,0,0,1-1.7.64h-.35c-.11,1.93-1,2.22-1.48,2.22a1.48,1.48,0,0,1-.46-.08l-.12-.05ZM18.38,14c0-.07.1-.12.25-.13h0a2,2,0,0,0,1.6-1l.09-.13v.14s-.49,1.39-1.6,1.39H18.5S18.34,14.13,18.38,14Zm-.73.25h0a.6.6,0,0,1-.49-.17.31.31,0,0,1-.05-.28v0c.09.27.58.48.59.48ZM15.5,12.59a1.28,1.28,0,0,1,.77.49h.23a2,2,0,0,1,.55.08h0a.2.2,0,0,1,.05.22c-.07.16-.4.19-.42.19h0a.52.52,0,0,0-.45-.21H16a.94.94,0,0,0-.48-.72l-.09-.05ZM13.34,16.7a.77.77,0,1,1-1.54.06.78.78,0,0,1,.74-.8h0a.75.75,0,0,1,.77.73ZM12.46,15a1.31,1.31,0,0,0-.09-.28h.15l.31.14h0V15a1.43,1.43,0,0,1,0,.65h0l-.38.2h-.1A1.19,1.19,0,0,0,12.46,15Zm-1.94-1h.29a1.09,1.09,0,0,0,.36,0c.46,0,1.24-.06,1.93-.12l1-.07h0l.49.46-1.85.11h-.22a7.33,7.33,0,0,0-1.92.25h0a.73.73,0,0,0-.06-.61h0Zm3.63-5.41h0A6.63,6.63,0,0,0,13,8.51a6.45,6.45,0,0,0-2.6.48h0V8.7h0a9.59,9.59,0,0,1,2.87-.37h1A.41.41,0,0,1,14.15,8.59Z"/><path class="cls-1" d="M22.15,7.88s.34-.67.84-.64V7.13A.89.89,0,0,0,22.15,7.88Z"/><path class="cls-1" d="M17.29,5.73h.14a.35.35,0,0,0,.29-.12.4.4,0,0,0,.16-.41h0c-.23-.14-.95-.47-1.43.72A.84.84,0,0,1,17.29,5.73Zm.31-.53a.64.64,0,0,1,.19.08v.16a.47.47,0,0,0-.32-.12,1.55,1.55,0,0,0-.63.13A.76.76,0,0,1,17.6,5.2Z"/><path class="cls-1" d="M11.75,22.76a23.7,23.7,0,0,1,2.79-.14h.31L15,22H13c-1.12-.05-.19-.39-.1-.43a4.81,4.81,0,0,0,1.28-1,6.16,6.16,0,0,1-3,1h-.54A1.15,1.15,0,0,1,9.73,21a1.51,1.51,0,0,1-.14-1,2,2,0,0,0-.44,1.44,1.8,1.8,0,0,0,.09.45,2.91,2.91,0,0,0,1.57,1.32l.41.11h0l-.42.15a3.31,3.31,0,0,0-1,.86l-.11.16h0a5.32,5.32,0,0,1-.68.9l.42.07h.41A5.64,5.64,0,0,0,13,24.17l-.35-.51a1.86,1.86,0,0,0-.59-.44L11.71,23C11.15,22.81,11.62,22.77,11.75,22.76Z"/><path class="cls-1" d="M5.15,17.41a1.69,1.69,0,0,1,1.42-1.14,1.31,1.31,0,0,1,.44.07,1.48,1.48,0,0,1,1.15.95,2.33,2.33,0,0,1,.24,1.1l.15-.07c0-.45.1-3.06-1.79-3.6H6.35a1.54,1.54,0,0,0-1.4.61,2,2,0,0,0-.16,1.58A1.13,1.13,0,0,0,5.15,17.41Z"/><path class="cls-1" d="M2.15,32l1.36.64A2.67,2.67,0,0,0,3,30.27L2.5,29.8h0a12.7,12.7,0,0,1-1.35-1.49,2.85,2.85,0,0,1-.54-1,2.76,2.76,0,0,1-.17-.9,4.41,4.41,0,0,0,0,3.85A6.74,6.74,0,0,0,2.15,32Z"/><path class="cls-1" d="M5.85,44.34a1,1,0,0,1,.38.53,2.09,2.09,0,0,0,.19-.4,3,3,0,0,0,0-1.47,7.65,7.65,0,0,0-2.51-3.2,2.41,2.41,0,0,0-.3.94v.5l-.27-.41a4.48,4.48,0,0,1-.6-1.71h0c-.18-.15-.34-.31-.5-.46l-.32-.36A5.13,5.13,0,0,1,.67,35.58a12.27,12.27,0,0,0,0,2.1,7.33,7.33,0,0,0,2,4.12l.16.19A29.19,29.19,0,0,0,5.15,43.8Z"/><path class="cls-1" d="M10.37,53.33a2,2,0,0,0-.45-1.1,2.1,2.1,0,0,1-.39.81,1.47,1.47,0,0,1-1.17.62,2,2,0,0,1-1.55-1,5.25,5.25,0,0,0-.22.67,3.85,3.85,0,0,0,.1,1.51c.32.92,1.18,1.45,2.78,1.69a13.35,13.35,0,0,1,2.64.7A6.36,6.36,0,0,0,9.79,55l-.21,0,.16-.17A1.93,1.93,0,0,0,10.37,53.33ZM7.6,54.75a.23.23,0,0,1-.24-.22.24.24,0,0,1,.22-.24.23.23,0,0,1,.24.22v0A.22.22,0,0,1,7.6,54.75Zm.62.23a.27.27,0,0,1-.28-.26.28.28,0,0,1,.26-.28.26.26,0,0,1,.28.26h0a.27.27,0,0,1-.25.29h0Zm.7.18a.32.32,0,0,1-.3-.32.31.31,0,1,1,.31.32Z"/><path class="cls-1" d="M5.56,47.58h.32l-.15.3a4.55,4.55,0,0,0-.1,3.44h0a5.79,5.79,0,0,0,.52,2.6,6,6,0,0,1,.1-.61,6.61,6.61,0,0,1,.45-1.22l.17-.32c.07-.15.14-.27.18-.37l.84-1.92.18-.41.15.41c.45,1.15,1,1.75,1.71,1.75a1.18,1.18,0,0,0,.46-.09c-.66-.65-1-1.65-1.35-3.37a9.41,9.41,0,0,0-1.25-3h0a5.32,5.32,0,0,0-2-3.66l.43.53a3.3,3.3,0,0,1,.65,2.66,2.59,2.59,0,0,1-.72,1.17H6.09A1.63,1.63,0,0,1,5,45.91a2.18,2.18,0,0,1-1.67-1.19,3.12,3.12,0,0,0,.16,2c.3.76,1.4.84,1.86.84Z"/><path class="cls-1" d="M3.38,32.87h0c-.22-.09-.44-.2-.66-.31L2,32.23a5.36,5.36,0,0,0-.69,1.18C2,34.09,2.66,33.92,3.38,32.87Z"/><path class="cls-1" d="M1.23,35.11c-.09-.14-.18-.28-.26-.43H1a4.46,4.46,0,0,0,1,3.06,4.43,4.43,0,0,1,.63-2h0A1.47,1.47,0,0,1,1.23,35.11Z"/><path class="cls-1" d="M3.15,39h0v.17a5.76,5.76,0,0,0,.3,1c.08-.21.17-.42.27-.62l.08-.14a7.28,7.28,0,0,1,.56-.88c.28-.36.93-1.51.93-1.52l.17-.31.16.32a1.73,1.73,0,0,0,1.63,1h.34l-.29-.31a3.66,3.66,0,0,1-.91-2.25,5.25,5.25,0,0,0-.32-1.41,7,7,0,0,0-.62-1.3H5.11v-.11s-.13-.29-.3-.61a6.9,6.9,0,0,0-1.13-1.45,3.21,3.21,0,0,1,.18,2.2h0L3.75,33c-.5.74-1,1.11-1.55,1.11a1.44,1.44,0,0,1-1-.49l-.06-.06-.06-.06v0a.77.77,0,0,0,.07.39c.07.13,0,.1.05.14v.13a3.56,3.56,0,0,0,.41.8,1.25,1.25,0,0,0,1.26.5h.22a3.56,3.56,0,0,0,.72-.23l.56-.29-.56,1A5.33,5.33,0,0,0,3.15,39Z"/><path class="cls-1" d="M16,21.9h-.51l-.14.81h.57l.14-.82Z"/><path class="cls-1" d="M17.22,22.75c.17-.57.09-.76.05-.81a.11.11,0,0,0-.09-.05h-.64l-.14.83Z"/><path class="cls-1" d="M17.53,30.65v-.12h0c-1.21-2.62-2.81-5.34-3-5.73a2.6,2.6,0,0,1,.36-.3c.45.76,2.23,3.83,2.72,5l.12-1c-.75-1.38-1.92-3.38-2.4-4.18a.64.64,0,0,1,.47-.17c.34.71,2.11,3.69,2.11,3.69s.07-.51.09-.62l-1.54-3.14c.2,0,.4,0,.6.05l1.09,2.28.16-.58-.68-1.62a3.36,3.36,0,0,1,1.18.55l.09-.05a4.93,4.93,0,0,0,1.62-1.46l-.37-.08L18.38,23h-.63c-.75,0-1.51-.06-2.28-.07H11.93l.14.06h.06a4.88,4.88,0,0,1,.65.43s1.9,2.75,2.55,3.86c0,.06.65,1.37,1.07,2.27l.46,1A1.54,1.54,0,0,0,17.53,30.65Z"/><path class="cls-1" d="M19.49,22a1.35,1.35,0,0,0-.47.78l1.2.09.41.1a2.41,2.41,0,0,0,.23-.78,2.29,2.29,0,0,0,0-.37A1.69,1.69,0,0,0,19.49,22Zm.47.68a.29.29,0,0,1-.34-.23.29.29,0,0,1,.24-.34H20a.29.29,0,0,1,.23.34A.28.28,0,0,1,20,22.68Z"/><path class="cls-1" d="M19.89,19.64h-.57a28.06,28.06,0,0,0-4.09.32,9.18,9.18,0,0,1-.83.93h0a7.65,7.65,0,0,1-.74.65l-.09.06h3.58a.34.34,0,0,1,.32.16,1.16,1.16,0,0,1,0,.93h.28l.92.06a1.67,1.67,0,0,1,.59-1,2,2,0,0,1,1.55-.24A3.79,3.79,0,0,0,19.89,19.64Z"/><path class="cls-1" d="M40.07,35.86a4.36,4.36,0,0,1-1.86,2.66l-.4.16a4.61,4.61,0,0,1-.71,2.7l-.28.41v-.68a2.9,2.9,0,0,0-.3-1,6.72,6.72,0,0,0-1.86,2.46,2.15,2.15,0,0,0,.23,1.92,7.17,7.17,0,0,1,2.52-2.25,5.72,5.72,0,0,0,2.62-4h0a15.67,15.67,0,0,0,.12-2.74A1.55,1.55,0,0,1,40.07,35.86Z"/><path class="cls-1" d="M30.64,19.15A2,2,0,0,0,30,20.23a2.18,2.18,0,0,1,.82-.29H31a1.07,1.07,0,0,1,.93.53c.38.34.58.77.4,1.84A2.55,2.55,0,0,1,31,24.07h0a8.83,8.83,0,0,0,1,.3h0a9.9,9.9,0,0,0,2.56-1.74,5.93,5.93,0,0,1,3.51-2h.12A1.73,1.73,0,0,0,36.72,20a4,4,0,0,0-2.12.78l-.14.09.06-.17a4.23,4.23,0,0,0,.13-2.06,5.33,5.33,0,0,1-.22-1.43,3.64,3.64,0,0,0-.76.33,6.61,6.61,0,0,0-.6.44v0c-.11.12-.22.24-.32.37l-.3.64v.06a2.26,2.26,0,0,0-.92-.22A1.13,1.13,0,0,0,30.64,19.15Z"/><path class="cls-1" d="M41.07,27.54a1.32,1.32,0,0,0-.29-.48l-.13-.15-.07-.08-.16-.18-.18-.2-.19-.22A2.47,2.47,0,0,1,39.83,28l-.21.34h0l-.25.31a10.84,10.84,0,0,0-2.15,3,2.14,2.14,0,0,0,.1,1.75h0a3.17,3.17,0,0,1,1.25-1.59l.28-.19.36-.27.07-.06.41-.35a5.65,5.65,0,0,0,.71-.83,5.46,5.46,0,0,0,.54-.94,2.28,2.28,0,0,0,.24-.92A1.92,1.92,0,0,0,41.07,27.54Z"/><path class="cls-1" d="M38.65,34.08a1.15,1.15,0,0,0,.5-.2,2.47,2.47,0,0,0,.49-.36h0A6.08,6.08,0,0,0,38.81,32a2.87,2.87,0,0,0-1.3,1.69,1.28,1.28,0,0,0,.64.31A2.89,2.89,0,0,0,38.65,34.08Z"/><path class="cls-1" d="M38.2,38.17l.21-.2.11-.11c.18-.17.33-.33.47-.48l.17-.22a5.71,5.71,0,0,0,.61-1.3,1.86,1.86,0,0,1,.1-.39v-.1a3.39,3.39,0,0,0,0-.78,2.42,2.42,0,0,1-.5.9,2.22,2.22,0,0,1-1.38.7,2.52,2.52,0,0,1,0,2.08Z"/><path class="cls-1" d="M36.28,45.61a1.52,1.52,0,0,1-.63-.14,2.49,2.49,0,0,1-1-.82,1.13,1.13,0,0,1-.19-.32,2.52,2.52,0,0,1-.08-1.89,7.46,7.46,0,0,1,.55-1,10.16,10.16,0,0,0-2.26,4.07v.07h-.05a4.61,4.61,0,0,0-1.23,2.72,3,3,0,0,1-1.24,2.13,2.08,2.08,0,0,1-.47.24h0a2.21,2.21,0,0,0,.62.13h.3a1.79,1.79,0,0,0,1.12-.36,1.4,1.4,0,0,0,.53-.67l.15-.72.22.74a6,6,0,0,0,.81,1.89,4.06,4.06,0,0,1,0,3.31,3.92,3.92,0,0,0,1-2,2.9,2.9,0,0,1,.28-.65,2.17,2.17,0,0,0,.19-.41,4.88,4.88,0,0,0,.29-2.59,10.63,10.63,0,0,0-.56-1.82l-.12-.3h1.32a1.9,1.9,0,0,0,1.35-.67,2.39,2.39,0,0,0,.41-1.7A1.77,1.77,0,0,1,36.28,45.61Zm-3.71.56a.24.24,0,0,1,.23.23.23.23,0,0,1-.23.23.23.23,0,1,1,0-.46Zm-.06.6a.23.23,0,0,1,.28.18.24.24,0,0,1-.18.27h-.1a.22.22,0,0,1-.22-.22h0a.23.23,0,0,1,.21-.23Zm-.06.63a.26.26,0,0,1,.26.26.26.26,0,0,1-.31.21.24.24,0,1,1,0-.47Zm.06,1.4a.32.32,0,0,1-.26-.37.33.33,0,0,1,.26-.26.31.31,0,0,1,.37.26.32.32,0,0,1-.25.37A.24.24,0,0,1,32.51,48.8Zm1.28-4.12a.22.22,0,0,1,.22.22h0a.22.22,0,0,1-.21.23h0a.23.23,0,1,1,0-.46Zm-.17.8a.24.24,0,0,1,.18-.27.22.22,0,0,1,.27.17.17.17,0,0,1,0,.1.22.22,0,0,1-.17.27.23.23,0,0,1-.28-.17Zm.15.65a.26.26,0,0,1,.26-.26.26.26,0,1,1,0,.52A.26.26,0,0,1,33.77,46.13Zm.53.93a.32.32,0,0,1-.3-.32.31.31,0,1,1,.31.32Z"/><path class="cls-1" d="M38.27,29.38l-.48.3-.17.1c-.19.12-.37.25-.55.39l-.08.07-.17.13-.33.27-.16.16c-.16.17-.3.35-.44.53h0c-.13.17-.28.37-.43.59l-.22.33-.08.13A10.87,10.87,0,0,0,34,35a20.59,20.59,0,0,1-1.33,3H33a2.22,2.22,0,0,0,1.77-1l.25-.46.12.46a7.83,7.83,0,0,0,1.29,2.24l.18.25.09.15h0v.07l.09.2h0a3,3,0,0,1,.26.76,4.74,4.74,0,0,0,.37-1.93,9.47,9.47,0,0,0-.28-2.6l-.08-.25h.79a2,2,0,0,0,1.29-.61,2.42,2.42,0,0,0,.55-1.41,3,3,0,0,1-.41.28,1.37,1.37,0,0,1-.64.25,2.62,2.62,0,0,1-.56,0,1.54,1.54,0,0,1-.74-.4l-.11-.1-.09-.06h0a1.38,1.38,0,0,1-.17-.25,2.45,2.45,0,0,1-.12-2A8.83,8.83,0,0,1,38.27,29.38ZM35,34.78a.27.27,0,1,1-.27.27.27.27,0,0,1,.27-.27Zm0,1.5a.36.36,0,0,1,0-.72h0a.36.36,0,1,1,0,.72Zm.14-1.87a.22.22,0,0,1-.22-.22h0a.22.22,0,0,1,.22-.18.23.23,0,0,1,.28.18.24.24,0,0,1-.18.27h-.1Zm.1-.76a.23.23,0,0,1-.09-.45.14.14,0,0,1,.09,0,.23.23,0,0,1,.28.18.24.24,0,0,1-.18.27Zm1-.94a.22.22,0,0,1,.22.22h0a.22.22,0,0,1-.22.22h0a.23.23,0,0,1-.09-.45Zm-.1,1.07a.24.24,0,0,1,.18-.27.22.22,0,0,1,.27.17.17.17,0,0,1,0,.1.22.22,0,0,1-.22.22h0a.22.22,0,0,1-.23-.21Zm1.12,1.43a.35.35,0,0,1-.34.36h0a.36.36,0,0,1,0-.72.35.35,0,0,1,.31.36Zm-.49-.65a.27.27,0,1,1-.27-.27A.27.27,0,0,1,36.78,34.56Z"/><path class="cls-1" d="M32.89,17.65a4.21,4.21,0,0,1,.64-.47A3,3,0,0,1,35,16.72a1.42,1.42,0,0,1,1.18.55,2.43,2.43,0,0,1,.37.59c0,.11.1.22.14.33l.07-.09a3.88,3.88,0,0,0,.3-.48,2.06,2.06,0,0,0,.28-1,1.23,1.23,0,0,0-.17-.62,1.58,1.58,0,0,0-1.39-.77,2.32,2.32,0,0,0-1.12.3,4,4,0,0,0-1.81,2.21h0Z"/><path class="cls-1" d="M36.15,59.93h0a7.72,7.72,0,0,0-6-2.62,12.89,12.89,0,0,0-1.52.07h-.54c.72-.29,2-.7,2.09-.72a6.14,6.14,0,0,0,.95-.29,8.36,8.36,0,0,0,1.1-.37c.13-.09.26-.18.38-.28l.07-.06a3.67,3.67,0,0,0,.69-3.27,2.07,2.07,0,0,1-1.81,1.15,1,1,0,0,1-.92-.28,1.46,1.46,0,0,1-.18-1.06h0a1.41,1.41,0,0,0-.74,1,2.09,2.09,0,0,0,.52,1.45h0a7.58,7.58,0,0,0-2.37,2.81h-.15a18.42,18.42,0,0,0-3.16,1,10.93,10.93,0,0,1-4.06,1,11,11,0,0,1-4.07-1,15,15,0,0,0-4-1.17h-1.6a7.73,7.73,0,0,0-5.94,2.58h0a.08.08,0,0,0,0,.1s1.12.42,1.72,2.47h0a1.33,1.33,0,0,0,1,.24c.61-.07,1.61-.51,2.85-2.21h.63a11.66,11.66,0,0,1,4.53,1.15A13.93,13.93,0,0,0,20.46,63h0a13.83,13.83,0,0,0,4.85-1.28,11.71,11.71,0,0,1,4.53-1.15h.63c1.24,1.7,2.24,2.14,2.86,2.21a1.28,1.28,0,0,0,1-.24h0a3.67,3.67,0,0,1,1.72-2.47.07.07,0,0,0,0-.1ZM7.58,62.64a1.48,1.48,0,0,1-.69-.08c1.62.13,2.82-1.47,3.13-1.93h.22C9.07,62.16,8.15,62.57,7.58,62.64Zm25.77,0c-.57-.07-1.49-.48-2.66-2h.22c.31.46,1.51,2.06,3.13,1.93A1.35,1.35,0,0,1,33.35,62.64Zm.89-.19h-.08A2.79,2.79,0,0,0,32,60.65a7.07,7.07,0,0,0-2.15-.3,11.83,11.83,0,0,0-4.59,1.16,13.72,13.72,0,0,1-4.79,1.27,13.83,13.83,0,0,1-4.8-1.27,11.74,11.74,0,0,0-4.59-1.16,7.12,7.12,0,0,0-2.15.3,2.82,2.82,0,0,0-2.16,1.8H6.69A3.77,3.77,0,0,0,5,60a7.6,7.6,0,0,1,5.78-2.47,12.62,12.62,0,0,1,1.63.07h.06a14.78,14.78,0,0,1,3.91,1.15,11.6,11.6,0,0,0,4.12,1h0a11.49,11.49,0,0,0,4.12-1,17.6,17.6,0,0,1,3-1H28a10.84,10.84,0,0,1,2.19-.27A7.64,7.64,0,0,1,36,60,3.84,3.84,0,0,0,34.24,62.45Z"/><path class="cls-1" d="M7.15,60c-.05,0-.08.13-.1.24a.33.33,0,0,1,.32.14c.07.11,0,.2,0,.25a.87.87,0,0,1-.75-.3c-.23-.3-.13-.38,0-.46a.28.28,0,0,1,.28,0L7,59.65H7c0-.06-.15,0-.24,0a.75.75,0,0,0-.2,1c.18.26.56.43.78.28a.63.63,0,0,0,.21-.4.49.49,0,0,0-.06-.41A.22.22,0,0,0,7.19,60Z"/><path class="cls-1" d="M7.82,58.82a.63.63,0,0,0-.28.3h0l.11-.07c.24-.1.53.11.66.42s.1.38-.06.45-.49-.16-.58-.39a.39.39,0,0,1,0-.26h0a.63.63,0,0,0-.09.55c.08.2.34.46.6.35a.68.68,0,0,0,.32-.42.71.71,0,0,0,0-.57A.56.56,0,0,0,7.82,58.82Z"/><path class="cls-1" d="M10.91,59.4a4.54,4.54,0,0,1-.55-1.18l-.22.15a.89.89,0,0,1,0,.23,6.78,6.78,0,0,1-.3.9h0a.15.15,0,0,1-.12-.07A4.4,4.4,0,0,1,9.37,59a.47.47,0,0,0,.14-.37.29.29,0,0,0-.15-.19.55.55,0,0,0-.4,0,2,2,0,0,0-.32.11l-.11.19H8.7l.12.51s.1.48.13.64c.07-.1.16-.19.19-.23l-.23-1h.2a.2.2,0,0,1,.19.18.27.27,0,0,1-.16.31c.14.18.28.35.43.52h.09s0,0,.07-.06l.07-.08a.19.19,0,0,1-.05.13l.28-.17v-.24h.49a1.35,1.35,0,0,0,.15.26c.05.09.08.09.1.09h.05l.18-.15h0Zm-.84-.25.16-.57a3.25,3.25,0,0,0,.23.54Z"/><path class="cls-1" d="M12,58.58a.67.67,0,0,1,0,.2c0,.31-.26.69-.41.66s-.34-.82-.29-1.13v-.08l-.19.1c-.09,0-.1.06-.11.11a2.64,2.64,0,0,0,.14.84c.06.17.15.39.29.41a3.08,3.08,0,0,0,.94-1.28Z"/><path class="cls-1" d="M14.51,59l-.38.09c0,.2-.36.71-.55.64,0,0-.08,0-.12-.13a1.27,1.27,0,0,1-.12-.39,1.72,1.72,0,0,1,0-.64l-.22.08s0,0-.06.06v.34a3.48,3.48,0,0,1-.22.38l-.23.41.33-.1a3,3,0,0,1,.19-.41.61.61,0,0,0,.09.34c.09.16.11.25.19.28s.24-.07.36-.16a1.75,1.75,0,0,0,.24-.23,7,7,0,0,1-.1.74l.28-.09a3.56,3.56,0,0,1,.11-.92Z"/><path class="cls-1" d="M15.25,59.53a.14.14,0,0,0,.15,0l.23-.12a2.91,2.91,0,0,1-.39-.12l-.09,0-.19-.1-.3.11.2.1a.58.58,0,0,1-.06.17l-.05.14-.27.11.19.09a2.58,2.58,0,0,1-.23.54l.36.11.23.1.26-.14L15,60.39l-.31-.11.14-.35L15,60a.17.17,0,0,0,.12,0l.22-.13a1.18,1.18,0,0,1-.31-.08h-.13l.11-.3Z"/><path class="cls-1" d="M16,59.55l-.21-.06-.28.13h.22l-.11.3V60l-.16.39a1,1,0,0,1-.09.21,1.07,1.07,0,0,0,.28.19H16a.79.79,0,0,0,.54-.45.66.66,0,0,0-.47-.8Zm.22,1a.36.36,0,0,1-.13.21.26.26,0,0,1-.21,0,.78.78,0,0,1-.24-.16l.3-.81a.54.54,0,0,1,.28.71Z"/><path class="cls-1" d="M17.15,59.94h-.22l-.26.14h.22l-.1.3a.17.17,0,0,1,0,.1l-.13.4a.85.85,0,0,1-.09.22,1.11,1.11,0,0,0,.3.17,1.43,1.43,0,0,0,.31-.05.76.76,0,0,0,.51-.48A.66.66,0,0,0,17.2,60Zm.26,1a.45.45,0,0,1-.12.21.2.2,0,0,1-.21,0,.84.84,0,0,1-.24-.14l.26-.82a.54.54,0,0,1,.35.68v0Z"/><path class="cls-1" d="M18.27,60.24h-.11l-.24.11H18a2.63,2.63,0,0,1-.1.56,2.44,2.44,0,0,1-.16.57l.27-.12.27-1S18.31,60.25,18.27,60.24Z"/><path class="cls-1" d="M19.37,61.65a4.24,4.24,0,0,1-.22-1.27l-.25.09a.91.91,0,0,1-.11.22,6.47,6.47,0,0,1-.63,1l.32-.11a1.36,1.36,0,0,1,.1-.21l.48.08a.78.78,0,0,0,.08.29.17.17,0,0,0,.08.11h.06l.2-.11h0S19.39,61.7,19.37,61.65Zm-.76-.43.29-.52a5.81,5.81,0,0,0,.09.58Z"/><path class="cls-1" d="M20.58,61.13a1.22,1.22,0,0,1,0,.27,3.73,3.73,0,0,0-.54-.65c-.07-.08-.22-.25-.29-.25h-.06l-.21.16h.06c.06,0,.22.15.23.17a5.22,5.22,0,0,1-.06,1l.25-.21V61c.43.49.54.63.59.87l.18-.15.06-1.27-.25.18A1.64,1.64,0,0,1,20.58,61.13Z"/><path class="cls-1" d="M21.9,60.59l.1-.17a2.27,2.27,0,0,1-.52.09h-.4l-.23.23a1.69,1.69,0,0,0,.45,0,1.71,1.71,0,0,1,0,.32,7.56,7.56,0,0,1,.07.82l.24-.23v-.14a4.43,4.43,0,0,1-.06-.51v-.29C21.78,60.7,21.84,60.68,21.9,60.59Z"/><path class="cls-1" d="M23.23,60.7c-.07,0-.13.09-.19.19a.34.34,0,0,1,.26.24c0,.13,0,.21-.11.23a.69.69,0,0,1-.6-.54c-.06-.25,0-.41.15-.44a.27.27,0,0,1,.26.08l.15-.17h0a.34.34,0,0,0-.24-.06.75.75,0,0,0-.53.86c.08.31.37.59.63.53a.59.59,0,0,0,.34-.3.52.52,0,0,0,.09-.4C23.42,60.78,23.32,60.68,23.23,60.7Z"/><path class="cls-1" d="M26.23,60c0-.06.12-.83.15-.94h0l-.24.27h0a1.26,1.26,0,0,1,0,.61,4.72,4.72,0,0,0-.59-.5c-.05,0-.11-.07-.14-.06h0l-.3.32h0a1.69,1.69,0,0,1,0,.55v.25l-.57-.65-.11-.13-.17.22a1.22,1.22,0,0,1,0,.6v.25a6,6,0,0,0-.63-.71s-.1-.09-.13-.08h-.05l-.14.21h.09a5.74,5.74,0,0,1,.79.92l.16-.2a.06.06,0,0,1,0-.06c0-.27,0-.53,0-.8a6.7,6.7,0,0,1,.64.77l.15-.21v-.57a1.93,1.93,0,0,1,.07-.57l.14.07c.46.33.53.38.63.64a2.09,2.09,0,0,1,.08.23l.17-.27L26.17,60Z"/><path class="cls-1" d="M27.27,59.25a.23.23,0,0,0,.07-.26.33.33,0,0,0-.17-.18.61.61,0,0,0-.42,0l-.26.11-.12.26.2-.08.12.35c0,.16.15.49.19.69h.32c.09,0,.13-.07.28-.31s.13-.26.09-.36A.31.31,0,0,0,27.27,59.25Zm0,.64a.62.62,0,0,1-.27,0l-.28-.83c.08,0,.33-.11.4.09a.22.22,0,0,1-.12.28h0a.3.3,0,0,1,.37.19.16.16,0,0,1,0,.23l-.07,0Z"/><path class="cls-1" d="M28.15,58.42a.7.7,0,0,0-.33.26h0a.24.24,0,0,1,.11-.06c.26-.06.51.2.59.53,0,.16,0,.39-.14.43s-.45-.24-.51-.48a.57.57,0,0,1,0-.26h0a.65.65,0,0,0-.18.53.49.49,0,0,0,.53.45.68.68,0,0,0,.39-.37.76.76,0,0,0,.09-.55A.56.56,0,0,0,28.15,58.42Z"/><path class="cls-1" d="M29.27,58.25h-.22l-.2.22h.23v.84a1,1,0,0,1,0,.24,1,1,0,0,0,.34.06.49.49,0,0,0,.28-.15.75.75,0,0,0,.32-.62.67.67,0,0,0-.74-.59Zm.33,1.16a1,1,0,0,1-.28-.07v-.86a.55.55,0,0,1,.53.57h0a.49.49,0,0,1,0,.24A.23.23,0,0,1,29.6,59.41Z"/><path class="cls-1" d="M31.15,59.55a5,5,0,0,1-.32-1.26l-.25.11a.85.85,0,0,1-.09.22,7.65,7.65,0,0,1-.58,1l.31-.12a.92.92,0,0,1,.09-.23l.48.06a2.47,2.47,0,0,0,.1.29c0,.09.06.1.08.1H31l.2-.12h0S31.15,59.59,31.15,59.55Zm-.78-.4.26-.53a5.43,5.43,0,0,0,.13.58Z"/><path class="cls-1" d="M32.07,58.82a.19.19,0,0,0,.15,0l.21-.15a2.79,2.79,0,0,1-.4-.07H31.9a.86.86,0,0,1-.21-.07l-.28.15.21.06v.33l-.25.14.2.06a4.11,4.11,0,0,1-.17.57,1.69,1.69,0,0,1,.37.07L32,60l.24-.18H32l-.31-.08.09-.36h.16a.12.12,0,0,0,.14,0l.19-.15h-.44l.08-.3Z"/><path class="cls-1" d="M33.43,59.2l.16-.09a4.83,4.83,0,0,1-.5-.16l-.19-.08-.18-.1-.3.1a2.14,2.14,0,0,0,.4.2,1,1,0,0,1-.11.31c0,.1-.22.58-.31.76l.32-.1V59.9a2,2,0,0,1,.17-.48c0-.14,0-.13.11-.26C33.27,59.25,33.33,59.26,33.43,59.2Z"/><path class="cls-1" d="M34.62,59.74h-.3c.06,0,0,.16-.07.22l-.07.1-.45-.29.23-.34c0-.08.08-.14,0-.16h-.29s0,.07-.08.26l-.05.07h-.3l.2.13c-.16.25-.28.42-.36.53h.29l.26-.4.45.29-.14.21a3.15,3.15,0,0,1-.22.33H34l.61-1s.07-.1,0-.12Z"/><polygon class="cls-1" points="12.56 58.85 12.34 59 12.48 59.2 12.66 59.06 12.56 58.85"/><polygon class="cls-1" points="21.87 61.19 22.05 61.31 22.14 61.15 21.97 61.01 21.87 61.19"/><path class="cls-1" d="M17.86,41a1.73,1.73,0,0,0-.78-.38,5.23,5.23,0,0,1-1.65-.83,4.82,4.82,0,0,1-1.28-1.38,1.81,1.81,0,0,0-.59-.64,2.06,2.06,0,0,0-.77-.38,4.5,4.5,0,0,1-1.64-.81,5,5,0,0,1-1.26-1.33,2,2,0,0,0-.59-.64l-.15-.12v7.26A17,17,0,0,0,14.66,54.4a19.88,19.88,0,0,0,3.8,2.77V41.78c0-.09-.1-.18-.14-.27A1.25,1.25,0,0,0,17.86,41ZM14.77,52.19l-.4-.57v-.39h.78v.39Zm.42-1.1h-.87v-.36h-.91v-.42h-.54v-.44h-.52V48.68h.87v.41h.5V48.7h.6V45.83h.83Zm0-5.46H14.3v-.18h.89Zm1.72-2.21-1.76,1.73v.1h-.87v-.1l-1.73-1.73a.27.27,0,0,1,0-.37l2-2a.27.27,0,0,1,.37,0l2,2a.27.27,0,0,1,0,.37Z"/><path class="cls-1" d="M25.49,43.69A.57.57,0,0,0,26,44,.55.55,0,0,0,26,42.9a.49.49,0,0,0,0-.17.55.55,0,0,0-.55-.55.55.55,0,0,0-.55.55v.17a.55.55,0,1,0,.55.79Z"/><path class="cls-1" d="M15.26,42.9a.49.49,0,0,0,0-.17.55.55,0,0,0-.55-.55.55.55,0,0,0-.55.55v.17a.55.55,0,0,0-.5.55.56.56,0,0,0,.54.56.54.54,0,0,0,.51-.32.57.57,0,0,0,.5.31.55.55,0,0,0,0-1.1Z"/><path class="cls-1" d="M11,32.37a4.8,4.8,0,0,1,1.25,1.33,2,2,0,0,0,.6.64,1.8,1.8,0,0,0,.76.37,5.21,5.21,0,0,1,2.91,2.15,2,2,0,0,0,.59.64,2.23,2.23,0,0,0,.8.4,4.54,4.54,0,0,1,1.63.81,4.2,4.2,0,0,1,.63.56,4.42,4.42,0,0,1,.53-.44A4.6,4.6,0,0,1,22.36,38a2.09,2.09,0,0,0,.82-.4,1.75,1.75,0,0,0,.6-.64,4.88,4.88,0,0,1,1.29-1.35,4.62,4.62,0,0,1,1.7-.82,1.88,1.88,0,0,0,.78-.37,2,2,0,0,0,.61-.65,5,5,0,0,1,1.28-1.35,5.84,5.84,0,0,1,.53-.33H20.15c-2.32,1.48-3.68,1.7-4.29,1.7a1.34,1.34,0,0,1-.4,0h-.05a3.71,3.71,0,0,1-.4-1.6H10.59A2.87,2.87,0,0,1,11,32.37Z"/><path class="cls-1" d="M29.2,36.69a4.56,4.56,0,0,1-1.69.81,2.19,2.19,0,0,0-.8.38,2.15,2.15,0,0,0-.6.64,4.74,4.74,0,0,1-1.28,1.36,5.15,5.15,0,0,1-1.68.82,2,2,0,0,0-.81.38,1.36,1.36,0,0,0-.46.57l-.06.12V57.21a19.76,19.76,0,0,0,3.86-2.81,17,17,0,0,0,5.47-12.65V34.63l-.09.07a2,2,0,0,0-.6.64A4.64,4.64,0,0,1,29.2,36.69Zm-5.87,6.36,2-2a.28.28,0,0,1,.38,0l2,2a.25.25,0,0,1,0,.35l0,0L26,45.15v.1h-.94v-.1l-1.72-1.73a.24.24,0,0,1,0-.35ZM25,45.46h.89v.18H25Zm.83,6.16-.4.57-.4-.57v-.39h.8Zm2-1.75h-.52v.44h-.53v.42h-.91v.36h-.86V45.83h.88V48.7h.59v.39H27v-.41h.87Z"/><path class="cls-1" d="M24,27.79l.48-.67a5.32,5.32,0,0,0,.83-3c1.35.7,2.07,5,1.11,6.59v.05h.22a1.82,1.82,0,0,0,.52-.14,1.3,1.3,0,0,0,.52-.38,3.29,3.29,0,0,0,.47-.81,3,3,0,0,0,.18-.58,5.61,5.61,0,0,0,.14-.9,1,1,0,0,0,0-.24v-.17h0a.17.17,0,0,0,0-.1.54.54,0,0,1,0-.18h0l.07,0h0a1.42,1.42,0,0,1,.33.36c.15.21.28.43.41.63a6.24,6.24,0,0,1,.44.9,4.35,4.35,0,0,1,.27,1,2.6,2.6,0,0,1-.05,1h.62l.14-.11a1.79,1.79,0,0,0,.42-1.4V29l.35.61s1.35,2.4,3.22,2.75a10.49,10.49,0,0,1,1.57-2,11.05,11.05,0,0,1-4.72-3.19l-.3-.41.48.15a12,12,0,0,0,2.84.53h1.84c1.23,0,2.41.07,2.79.58a.75.75,0,0,1,.07.12,4.11,4.11,0,0,0,.24-.39,2,2,0,0,0,.18-1.46,1.24,1.24,0,0,0-1.22-.77h-.66l.36-.33a3.29,3.29,0,0,0,.7-1A2.36,2.36,0,0,0,39,22.7a1.66,1.66,0,0,0-.17-.47L38.72,22h0A4.94,4.94,0,0,1,36,24.46a7.84,7.84,0,0,1-5.44-.23L30.15,24l.4-.15A2.24,2.24,0,0,0,32,22.26a2,2,0,0,0,0-1.18.49.49,0,0,1,0,.17,1.36,1.36,0,0,1-.72,1,2.61,2.61,0,0,1-1.44.4,4.29,4.29,0,0,1-1.69-.38c-.35-.15-2-1.06-2.16-1.16h0L25.69,21l-.32-.19a7,7,0,0,0-1.47-.55l-.53-.13-.46-.1a18.69,18.69,0,0,0-2.59-.31,3.51,3.51,0,0,1,.83,2.48,2.39,2.39,0,0,1-.23.83h0l-.06.13-.08.13a4.72,4.72,0,0,1-1.57,1.51,2.4,2.4,0,0,0,1.53.67A1.85,1.85,0,0,0,22,25a4.17,4.17,0,0,0,.77-1,.8.8,0,0,1,.41-.34c.38-.1.28.62.28.62A18,18,0,0,0,22.94,28H23A6.07,6.07,0,0,1,24,27.79Zm13.19-2.41a.34.34,0,0,1,.28.39.35.35,0,0,1-.28.28.34.34,0,0,1-.11-.67Zm-.8.26a.28.28,0,0,1,.29.28.29.29,0,0,1-.57,0A.3.3,0,0,1,36.42,25.64Zm-.79.16a.26.26,0,1,1,0,.52h0a.26.26,0,0,1,0-.52Zm-.83,0a.26.26,0,0,1,0,.52.26.26,0,0,1-.26-.26h0a.26.26,0,0,1,.26-.22Zm-.83,0a.23.23,0,0,1,.22.23.22.22,0,0,1-.17.27.23.23,0,0,1-.28-.17V26a.23.23,0,0,1,.23-.18Zm-5.88.36a.29.29,0,0,1-.23-.34.28.28,0,0,1,.23-.23.29.29,0,0,1,.11.57A.21.21,0,0,1,28.09,26.16ZM29,25a.22.22,0,0,1-.22-.22h0a.22.22,0,0,1,.22-.22h0a.23.23,0,0,1,.28.18.24.24,0,0,1-.18.27A.17.17,0,0,1,29,25Zm1,2.27a.22.22,0,0,1-.22-.22h0a.24.24,0,0,1,.22-.24.23.23,0,0,1,0,.46Zm.81,1.5a.29.29,0,1,1,.29-.29.28.28,0,0,1-.31.26h0ZM30.9,26a.31.31,0,0,1,.3.3.3.3,0,0,1-.3.29.29.29,0,0,1-.29-.29h0A.31.31,0,0,1,30.9,26Zm-.32,1.76a.23.23,0,0,1-.23.23.23.23,0,0,1,0-.46.24.24,0,0,1,.23.22Zm-.43-2.2a.27.27,0,0,1,.27.27h0a.27.27,0,1,1-.27-.27Zm-.43-2.14a.27.27,0,1,1-.27.27A.27.27,0,0,1,29.72,23.42ZM29.56,25a.24.24,0,0,1,.23.23.23.23,0,0,1-.23.23.23.23,0,0,1-.23-.23A.26.26,0,0,1,29.56,25Zm-.41-1.78a.23.23,0,1,1,0,.46h0a.23.23,0,1,1,0-.46Zm-.44-.34A.2.2,0,0,1,29,23a.19.19,0,0,1-.15.24.14.14,0,0,1-.09,0,.19.19,0,0,1-.19-.19h0a.19.19,0,0,1,.16-.19Zm-.06,1.25a.23.23,0,0,1-.22.24.23.23,0,1,1,0-.46h0a.22.22,0,0,1,.19.22Zm-.55-1.66a.2.2,0,0,1,0,.39h0a.2.2,0,0,1-.24-.15.21.21,0,0,1,.15-.24Zm-.16.75a.23.23,0,0,1,.28.18.24.24,0,0,1-.18.27h-.1a.23.23,0,1,1-.09-.45Zm0,2a.28.28,0,0,1-.27.29h0a.29.29,0,0,1-.29-.29h0a.29.29,0,0,1,.28-.28h0a.27.27,0,0,1,.29.25v0Zm-.71-.94a.29.29,0,1,1-.29.29.3.3,0,0,1,.28-.3h0Zm-.49-.69a.23.23,0,0,1,0,.46.23.23,0,0,1-.23-.23.24.24,0,0,1,.24-.24ZM26.31,23a.23.23,0,0,1,.22.23.22.22,0,0,1-.17.27.23.23,0,0,1-.28-.17v-.1A.23.23,0,0,1,26.31,23Zm-.43-.65a.23.23,0,0,1,.22.23.22.22,0,0,1-.17.27.23.23,0,0,1-.28-.17v-.1a.22.22,0,0,1,.18-.27h.05Zm-.41-.69a.22.22,0,0,1,.22.22h0a.22.22,0,0,1-.17.27.23.23,0,0,1-.28-.17v-.1a.22.22,0,0,1,.18-.27h0Zm-.13,1.78a.33.33,0,0,1,0,.14.11.11,0,0,1,0,.08.14.14,0,0,1,0,.09h0a.24.24,0,0,1-.18.07h0a.3.3,0,0,1-.28-.2v-.09a.29.29,0,0,1,.29-.29h0a.28.28,0,0,1,.17.15Zm-.31-.6a.28.28,0,0,1-.55,0,.28.28,0,0,1,.22-.33.28.28,0,0,1,.33.22A.2.2,0,0,1,25,22.84Zm-.33-.68a.26.26,0,1,1-.25-.26h0a.26.26,0,0,1,.25.21Zm-.19-.69a.25.25,0,1,1-.25-.25.26.26,0,0,1,.25.2Zm-.42-.77a.2.2,0,0,1,.22.2.21.21,0,0,1-.2.22.21.21,0,0,1-.22-.2h0a.2.2,0,0,1,.16-.25h0Z"/><path class="cls-1" d="M23.15,24.25V24.2a.24.24,0,0,0,0-.12l-.06.05h0a3.74,3.74,0,0,1-1.36,1.46c.28,1.18.49,2,.64,2.58l.32-.12A16.74,16.74,0,0,1,23.15,24.25Z"/><path class="cls-1" d="M25.52,24.61v.28a5.76,5.76,0,0,1-.45,2,4.9,4.9,0,0,1-.62.89H25a1.71,1.71,0,0,1,1,.38l-.25-1A2.64,2.64,0,0,0,25.52,24.61Z"/><path class="cls-1" d="M31.66,14.56a14.62,14.62,0,0,1-3.21-1.08,12.5,12.5,0,0,0,.47,1.34h0l-1.77.67a7.07,7.07,0,0,1-2.39.86h0l-.28-.1-.23-.06h-.09a.46.46,0,0,1-.07-.16.86.86,0,0,1-.09-.39c0-.35.2-.64.46-.64s.47.29.47.64a.69.69,0,0,1-.21.54,5.32,5.32,0,0,0,1.7-.52,1.19,1.19,0,0,0-.27-1.54,3.13,3.13,0,0,0-3,.88l-.13.15L22.86,15a3.19,3.19,0,0,0-.94-.89A1.87,1.87,0,0,0,21.6,14h-.19A2.55,2.55,0,0,0,21,15.74h-.25a2.19,2.19,0,0,1,0-1.74,2.44,2.44,0,0,0-1.11.87l-.07.09h-.11a3,3,0,0,0-1.75.49l-.16.1-.07-.17a1.86,1.86,0,0,0-1.56-.8,1.41,1.41,0,0,0,0,.29V15a.49.49,0,0,0,.08.32,1.24,1.24,0,0,0,.25.35l.08.06-.09.12v.06a1.39,1.39,0,0,0-.12.28,1.2,1.2,0,0,0,.23,1h0l-.38.08h0l-.27-1.11h-.12c-.58.12-1.27.32-1.27.32h-.12v.11c.29.89.52,1.77.65,2.35.09.36.13.58.13.59v.1h.58c.47-.07.95-.12,1.41-.16l1.18-.09h2.44a4.31,4.31,0,0,1,1,.08l.66.08h.08l.4.07.43.08a12.44,12.44,0,0,1,1.59.43,5.31,5.31,0,0,1,.88.38l.12.07.06-.13.35-.94c.43-1,.79-1.83.93-2.14v-.08L27,17.22a4.27,4.27,0,0,0-.51-.3h.11l.41-.2.34-.18a14.18,14.18,0,0,0,1.76-.95h0v1.54A11.07,11.07,0,0,1,31.66,14.56ZM25.82,18.2h0l-.27.8h0a18.13,18.13,0,0,0-1.92-.52h0l.21-.8h0l.76.18A11.36,11.36,0,0,1,25.82,18.2Zm-2.5-2h0a6.48,6.48,0,0,1,1.38.34h0l-.23,1h0c-.44-.12-.9-.22-1.35-.31h0Zm.18,1.33h0l-.19.8h0A22.33,22.33,0,0,0,21,18h0v-.81h.27a18.7,18.7,0,0,1,2.24.38Zm-1.35-.85.22.19-.31-.08a.69.69,0,0,1-.21-.41h0v-.2A5.09,5.09,0,0,0,22.15,16.68Zm-.52-2.23h.13a.13.13,0,0,1,.12.06v.26h0a1.89,1.89,0,0,0-.1,1h-.27a1.41,1.41,0,0,1,.09-1.32Zm-1.48,1.49h1.46l-.07,1h0c-.47,0-.93-.08-1.39-.09h0v-.91Zm-.68.93h-.62V16.3a1.51,1.51,0,0,0,.58.57ZM18.35,16h.14v1h0a9.75,9.75,0,0,0-1.46.15h0l-.1-1h0A8.56,8.56,0,0,1,18.35,16Zm-2.15-.43a.42.42,0,0,1,0-.31h0a1.42,1.42,0,0,0,.57.12H17l-.08,0a1.31,1.31,0,0,1-.57.24.22.22,0,0,1-.16-.14Zm.51,1h0a.24.24,0,0,1-.32.14.28.28,0,0,1-.11-.08h0s0-.51.35-.66h0Zm-.34.9h.14c.35-.07.72-.12,1.09-.16h0l.09.77h0a13.18,13.18,0,0,0-2.16.37h0l-.21-.7h0a5.37,5.37,0,0,1,1.05-.3Zm-1.73.18h0c-.09-.31-.18-.61-.27-.88h0c.25-.08.62-.17,1-.25h0l.21.88h0c-.31.07-.62.16-.92.26Zm.25,1h0L14.71,18h0L15,17.9h0l.2.68h0l-.31.1Zm1.48.7h-.22l-.6.08h-.41c0-.07-.06-.27-.12-.54h0l.26-.09c.31-.09.65-.17,1-.24h0l.14.79Zm2.8-.17a14.68,14.68,0,0,0-2.16.11h-.33l-.14-.81h0a16.22,16.22,0,0,1,2.6-.24h0v.89ZM18,18h0l-.08-.77h0c.54-.05,1.1-.08,1.66-.08h1.09V18h0A17,17,0,0,0,18,18Zm3.84,1.27h0a22.59,22.59,0,0,0-2.33-.15h0v-.89h0a18.71,18.71,0,0,1,2.49.19h0Zm2.41.49h0a14.65,14.65,0,0,0-1.86-.4h-.23l.14-.86h0a20.66,20.66,0,0,1,2.21.47h0Zm1.65-.36c-.12.27-.24.55-.35.83h0a8.63,8.63,0,0,0-1-.39h0l.27-.83h0l.9.28h.18Zm.42-1-.3.69h-.19l.31-.79h.22Zm.45-1.07h0l-.34.75h0l-.81-.27h0l.28-1h0l.31.13a3.78,3.78,0,0,1,.56.4Zm2.51-1a4.76,4.76,0,0,1,.27-1.4h0s.85-.21,1.48-.31h.08l-.06.06a7.59,7.59,0,0,0-1.75,1.69v.08Z"/><path class="cls-1" d="M23.54,30.81l-.14-.34-.17-.34-.48.22a9.12,9.12,0,0,1,.35,1h.58v-.17A1.66,1.66,0,0,0,23.54,30.81Z"/><path class="cls-1" d="M20.46,5.84h-.07a.13.13,0,0,0,.12.08.13.13,0,1,0,0-.26h0a.09.09,0,0,1,0,.18Z"/><path class="cls-1" d="M22.06,28.27l-.63-2.4L18,30.54s.59.06,2.56-1.42a6.1,6.1,0,0,1,.87-.47l.36-.19Z"/><path class="cls-1" d="M31.79,31.39H25.92a2.7,2.7,0,0,0,.27-.66,3.15,3.15,0,0,0,.12-1.06A1.81,1.81,0,0,0,26,28.46,1.38,1.38,0,0,0,25,28a3.64,3.64,0,0,0-.66,0,6.56,6.56,0,0,0-1.24.21,7.82,7.82,0,0,0-2,.9l-.83.54a6.16,6.16,0,0,1-2.48,1.2h0c-.83.13-1,0-1.06-.09l-.6-1.28a4,4,0,0,0-.54,4c.28,0,1.78.16,5-2,.11-.1,3.14-2.65,4.56-1.76a1.33,1.33,0,0,1,.47,1.58h-.33A1.11,1.11,0,0,0,24.92,30a1.66,1.66,0,0,0-1.41,0A3.72,3.72,0,0,1,24,31.3v.06H21.15a4.23,4.23,0,0,0-.41.33H31.58v10a17.31,17.31,0,0,1-5.64,13,20,20,0,0,1-4.13,3,15.24,15.24,0,0,1-1.47.7h-.19a7.69,7.69,0,0,1-1.71-.76,21.47,21.47,0,0,1-4.08-2.94,17.47,17.47,0,0,1-5.64-13v-10H15a.76.76,0,0,1,.05-.33H11.41a5.73,5.73,0,0,1,1.37-4l.22-.24v.32a3,3,0,0,0,2,2.86,6.63,6.63,0,0,1,.19-2.47c-.36-.63-.78-1.33-1.25-2.08l-.88-1.26-.09.08c-.18.14-.36.28-.56.41a3.84,3.84,0,0,1-.79.45,4.46,4.46,0,0,1-1.87.44H9.29a2.67,2.67,0,0,1-.79-.18l-.35-.17.39-.11c.2-.05.5-.47.78-.88l.08-.1a3,3,0,0,1,1-1,2.35,2.35,0,0,1-1.26-1A2.59,2.59,0,0,1,9,22.05a1.89,1.89,0,0,1-.1-.41,2.82,2.82,0,0,1,.06-1c.3-1.17,1-1.41,1.58-1.41a1.22,1.22,0,0,1,.27,0,1.36,1.36,0,0,0-1.23-.8,2.27,2.27,0,0,0-.81.18,2.82,2.82,0,0,0-.38.21L8.14,19V18.7a2.74,2.74,0,0,0-.23-1.29,1.3,1.3,0,0,0-.71-.69,8.93,8.93,0,0,1-.1,1.71h0a1.38,1.38,0,0,1,0,.46,5,5,0,0,0,.26,1.67h0l-.22.14h0a2.66,2.66,0,0,0-1.94-1,2.57,2.57,0,0,0-1.34.41A4.65,4.65,0,0,1,6.08,21.9,15.66,15.66,0,0,0,8,23.82l.17.18H7.83a8.26,8.26,0,0,1-1,.06A4.79,4.79,0,0,1,2.15,21.2a2.53,2.53,0,0,0-.52,2,1.86,1.86,0,0,0,.87,1.09l.4.2-.44.07a2.84,2.84,0,0,0-1.5,1,2.65,2.65,0,0,0-.09,1.69,2.19,2.19,0,0,0,.46.83c.61-1.18,2.7-1.8,4.48-1.8a4.45,4.45,0,0,1,.73,0,11,11,0,0,0,1.28.07,15.92,15.92,0,0,0,2.39-.18h.11v.09c.09.18-.09.64-2.17,1.73-1.9,1-3.71,2.12-4.2,2.42a6.45,6.45,0,0,1,1,1.43c.14.25.23.46.28.56h.19a10.24,10.24,0,0,0,4.31-2.93l.23-.3v.37a2.38,2.38,0,0,0,.81,1.78H8.42V41.75a17.75,17.75,0,0,0,5.73,13.19,17.09,17.09,0,0,0,6,3.79h.14l.14-.06a19.54,19.54,0,0,0,5.72-3.73,18.38,18.38,0,0,0,3.35-4.16v-.05h0v-.08h0v-.08h0a17.63,17.63,0,0,0,2.23-8.72V31.39Z"/><rect class="cls-1" x="132.02" y="16.39" width="0.42" height="39.67"/><path class="cls-1" d="M63.05,39.42H60c-.11,0-.11-.09-.11-.09v-.06c0-.11.12-.11.12-.11.79,0,1.17-.23,1.17-.91v-.33l-.78-6.25-3.24,7.68a.12.12,0,0,1-.11.07h0a.16.16,0,0,1-.1-.08l-3.43-7.71-.77,6.29v.33c0,.68.39.86,1.19.92,0,0,.1,0,.1.08v.1s0,.06-.05.07H51.15s-.06,0-.07-.05v-.13c0-.07.08-.07.08-.07.64-.05,1-.21,1.05-.86l.85-6.78c0-.71-.24-1-1-1,0,0-.12,0-.12-.1v-.08a.09.09,0,0,1,.09-.08h1.8a.13.13,0,0,1,.13.1,2.21,2.21,0,0,0,.17.57l3.1,7,.07.16,3-7.16a2.26,2.26,0,0,0,.17-.56.11.11,0,0,1,.11-.11h1.71s.11,0,.11.1v.06c0,.1-.12.1-.12.1-.77.06-1,.33-1,1l.85,6.77c.08.63.39.8,1,.85a.11.11,0,0,1,.13.11h0v.06A.41.41,0,0,1,63.05,39.42Z"/><path class="cls-1" d="M69.25,35.68v-.06a2.29,2.29,0,0,0-2.14-2.43,2.41,2.41,0,0,0-.38,0c-1.79,0-3,1.36-3,3.38a2.84,2.84,0,0,0,2.67,3,1.82,1.82,0,0,0,.33,0,2.52,2.52,0,0,0,2.5-1.5v-.14h0a.17.17,0,0,0-.14,0,2.45,2.45,0,0,1-2.08,1,2.42,2.42,0,0,1-1.86-.76,2.94,2.94,0,0,1-.69-2.27v-.07h4.69C69.25,35.84,69.25,35.68,69.25,35.68Zm-4.74-.3a2,2,0,0,1,2-1.72,1.7,1.7,0,0,1,1.91,1.73v.08H64.49Z"/><path class="cls-1" d="M84.75,49.24v-.06a2.29,2.29,0,0,0-2.13-2.44,2.54,2.54,0,0,0-.39,0c-1.79,0-3,1.36-3,3.38a2.84,2.84,0,0,0,2.67,3h.33a2.52,2.52,0,0,0,2.5-1.5V51.5h0a.12.12,0,0,0-.14,0,2.64,2.64,0,0,1-3.9.26,3,3,0,0,1-.7-2.28v-.07h4.67C84.74,49.39,84.75,49.24,84.75,49.24ZM80,48.93a2,2,0,0,1,2-1.72,1.71,1.71,0,0,1,1.89,1.53,1.13,1.13,0,0,1,0,.26H80Z"/><path class="cls-1" d="M73.68,38.92h-.1a2.29,2.29,0,0,1-.82.15c-.83,0-1.26-.44-1.26-1.33v-4h1.82c.12,0,.11-.13.11-.13v-.13a.1.1,0,0,0-.11-.1H71.49V32h0l-.11.07A6.16,6.16,0,0,1,70,33.47a.15.15,0,0,0-.07.12h0a.06.06,0,0,0,.06.06h.86V38a1.41,1.41,0,0,0,1.28,1.53h.29A2,2,0,0,0,73.66,39,.08.08,0,0,0,73.68,38.92Z"/><path class="cls-1" d="M111.42,38.92h-.1a2.2,2.2,0,0,1-.81.15c-.83,0-1.26-.44-1.26-1.33v-4h1.82c.11,0,.11-.13.11-.13v-.13a.11.11,0,0,0-.12-.1h-1.81V32h0l-.1.07a6.2,6.2,0,0,1-1.42,1.38.15.15,0,0,0-.07.12h0a.06.06,0,0,0,.06.06h.86V38a1.41,1.41,0,0,0,1.28,1.53h.3a1.92,1.92,0,0,0,1.33-.52.08.08,0,0,0-.07-.09Z"/><path class="cls-1" d="M77.34,39.42H74.52c-.11,0-.1-.08-.1-.08v-.05c0-.09.1-.09.1-.09.49-.07.92-.18.92-.73V34.22l-.91-.3c-.06,0,0-.06,0-.06h0l.06-.07,1.32-.5h.24a.08.08,0,0,1,.08.08h0l-.08,1.77.16-.27c.46-.75,1-1.68,1.83-1.68h.21a.34.34,0,0,1,.19.09.15.15,0,0,1,0,.13v.43s0,.12-.15.12h-.14c-.92,0-1.34.42-2.13,1.4h0v3c0,.65.35.72,1.16.81a.09.09,0,0,1,.1.1h0S77.46,39.42,77.34,39.42Z"/><path class="cls-1" d="M88.58,53H85.75c-.11,0-.1-.09-.1-.09h0a.1.1,0,0,1,.1-.1c.49-.06.92-.17.92-.73V47.77l-.9-.29s0,0,0-.07h0a.1.1,0,0,1,.06-.08l1.31-.49a.33.33,0,0,1,.14,0h.17c.1,0,.08.08.08.08l-.06,1.85.17-.27c.46-.75,1-1.69,1.83-1.69a.74.74,0,0,1,.21,0,.28.28,0,0,1,.19.09.13.13,0,0,1,0,.12v.43s0,.13-.16.13h-.14c-.92,0-1.33.41-2.12,1.39h0v3c0,.65.34.73,1.16.81a.11.11,0,0,1,.09.1h0S88.7,53,88.58,53Z"/><path class="cls-1" d="M82,39.54a3.2,3.2,0,0,0,3.2-3.2v-.1a2.91,2.91,0,0,0-2.81-3h-.19a3.19,3.19,0,0,0-3.22,3.16v.14a2.91,2.91,0,0,0,2.8,3Zm-.11-5.86c1.59,0,2.53,1.09,2.53,2.9A2.21,2.21,0,0,1,82.45,39l-.19,0c-1.58,0-2.52-1.09-2.52-2.9a2.22,2.22,0,0,1,1.92-2.47Z"/><path class="cls-1" d="M88.52,42.21h0c0-.1-.12-.11-.12-.11-.49-.07-.9-.19-.9-.73V39l.12.09a2.91,2.91,0,0,0,1.65.44,3.33,3.33,0,0,0,3.37-3.29,1.93,1.93,0,0,0,0-.24,2.67,2.67,0,0,0-2.52-2.81h-.25a2.78,2.78,0,0,0-2.22,1.14l-.15.2.06-1.21a.11.11,0,0,0-.1-.11h-.29l-1.32.5a.06.06,0,0,0-.06.07h0a.11.11,0,0,0,.06.07l.9.3v7.12c0,.55-.42.66-.9.73,0,0-.12,0-.12.1h0s0,.09.11.09H88.4C88.51,42.29,88.52,42.21,88.52,42.21Zm-1-7.45h0a2.73,2.73,0,0,1,2-1c1.42,0,2.31,1,2.31,2.69a2.38,2.38,0,0,1-2.09,2.64h-.37c-1.27,0-1.89-.51-1.89-1.56Z"/><path class="cls-1" d="M96.8,33.2a3.19,3.19,0,0,0-3.23,3.15v.15a2.91,2.91,0,0,0,2.8,3h.2a3.19,3.19,0,0,0,3.23-3.17V36.2a2.9,2.9,0,0,0-2.79-3Zm.1,5.86c-1.58,0-2.52-1.09-2.52-2.9a2.22,2.22,0,0,1,1.92-2.47h.18c1.59,0,2.53,1.09,2.53,2.9A2.21,2.21,0,0,1,97.09,39Z"/><path class="cls-1" d="M100.62,30.49l1.35-.58a.33.33,0,0,1,.14,0h.14s.09,0,.09.11V38.5c0,.54.4.66.88.73,0,0,.13,0,.13.08v.06s0,.08-.12.08h-2.56c-.12,0-.11-.08-.11-.08h0c0-.09.11-.1.11-.1.49-.07.9-.18.9-.73V30.81l-.88-.17c-.08,0-.07-.06-.07-.06h0S100.56,30.52,100.62,30.49Z"/><path class="cls-1" d="M105.49,31.83a.61.61,0,0,0,.63-.59v0a.62.62,0,0,0-.54-.7.63.63,0,0,0-.71.54v.16a.62.62,0,0,0,.6.62Z"/><path class="cls-1" d="M107,39.29v.05a.08.08,0,0,1-.09.08h-2.6c-.11,0-.1-.09-.1-.09h0c0-.08.1-.09.1-.09.49-.07.92-.18.92-.73V34.22l-.89-.29a.07.07,0,0,1-.07-.07h0l.06-.07,1.34-.5h.29a.1.1,0,0,1,.08.11l0,1.09v4c0,.55.41.66.9.73C106.87,39.2,107,39.2,107,39.29Z"/><path class="cls-1" d="M103.15,52.47h0s-.1,0-.1,0a2.1,2.1,0,0,1-.82.16c-.83,0-1.26-.45-1.26-1.33v-4h1.83c.11,0,.1-.13.1-.13V47a.1.1,0,0,0-.09-.11H101V45.57h0l-.11.07A6.09,6.09,0,0,1,99.4,47a.19.19,0,0,0-.07.12h0a.08.08,0,0,0,0,.07h.87v4.33a1.41,1.41,0,0,0,1.26,1.53,1.69,1.69,0,0,0,.32,0,1.87,1.87,0,0,0,1.33-.52A.09.09,0,0,0,103.15,52.47Z"/><path class="cls-1" d="M97.25,45.38a.62.62,0,1,0-.62-.62h0a.61.61,0,0,0,.59.61Z"/><path class="cls-1" d="M98.74,52.85h0a.08.08,0,0,1-.09.08h-2.6c-.11,0-.1-.09-.1-.09h0c0-.09.1-.1.1-.1.49-.06.92-.17.92-.73V47.77l-.9-.29a.06.06,0,0,1-.06-.07h0a.09.09,0,0,1,.06-.08l1.34-.5h.28s.09,0,.09.11L97.72,48v4c0,.55.42.66.91.73C98.63,52.75,98.74,52.76,98.74,52.85Z"/><path class="cls-1" d="M70.74,45.38a.62.62,0,1,0-.62-.62h0a.61.61,0,0,0,.59.61Z"/><path class="cls-1" d="M72.23,52.85h0s0,.08-.1.08h-2.6c-.11,0-.09-.09-.09-.09h0c0-.09.1-.1.1-.1.49-.06.91-.17.91-.73V47.77l-.89-.29a.07.07,0,0,1-.07-.07h0c0-.06.07-.08.07-.08l1.33-.5h.26s.08,0,.08.11V52c0,.55.42.66.9.73A.08.08,0,0,1,72.23,52.85Z"/><path class="cls-1" d="M118.15,39a2.13,2.13,0,0,1-.44.07c-.44,0-.69-.34-.69-.92V35.3c0-1.74-1.22-2.1-2.25-2.1-1.3,0-2.25.59-2.25,1.42a.73.73,0,0,0,.09.35.26.26,0,0,0,.25.13h.35a.13.13,0,0,0,.15-.17,1.13,1.13,0,0,1,0-.26c0-.69.39-1,1.2-1a1.65,1.65,0,0,1,1.73,1.57,2.09,2.09,0,0,1,0,.25v.34l-2.4.7c-.91.25-1.69.48-1.69,1.55a1.56,1.56,0,0,0,1.57,1.55h.2a2.87,2.87,0,0,0,2.19-1.23l.12-.13v.18a1,1,0,0,0,1,1.1,1.49,1.49,0,0,0,1-.42V39h0Zm-1.89-1h0a3.09,3.09,0,0,1-2,1,1.11,1.11,0,0,1-1.19-1v-.2a1,1,0,0,1,.81-1l2.43-.75Z"/><path class="cls-1" d="M123.44,39.42H126c.12,0,.11-.09.11-.09h0c0-.08-.09-.08-.09-.08-.5-.07-.92-.18-.92-.73V35.09a1.68,1.68,0,0,0-1.45-1.9,1.81,1.81,0,0,0-.52,0,3.66,3.66,0,0,0-2.41,1.2l-.13.16.06-1.25a.09.09,0,0,0-.09-.09h-.28l-1.33.5a.07.07,0,0,0-.07.08h0l.08.08.88.29v4.25c0,.55-.42.66-.9.73,0,0-.12,0-.12.09h0a.09.09,0,0,0,.1.09h2.6a.07.07,0,0,0,.09-.07h0v0c0-.07-.09-.09-.09-.09-.49-.07-.92-.18-.92-.73V34.8h0a3.66,3.66,0,0,1,2.22-1c1,0,1.46.46,1.46,1.41v3.25c0,.55-.42.66-.91.73,0,0-.11,0-.11.09h0S123.32,39.42,123.44,39.42Z"/><path class="cls-1" d="M66,53h2.59c.12,0,.11-.1.11-.1h0c0-.08-.1-.08-.1-.08-.49-.07-.92-.18-.92-.74V48.64a1.68,1.68,0,0,0-1.46-1.89,1.77,1.77,0,0,0-.46,0A3.57,3.57,0,0,0,63.31,48l-.14.15.06-1.25a.07.07,0,0,0-.08-.08h-.28l-1.34.5a.15.15,0,0,0-.06.09h0s0,.05.07.07l.88.29V52c0,.55-.42.66-.9.73,0,0-.12,0-.12.09h0a.1.1,0,0,0,.11.1h2.64a.08.08,0,0,0,.1-.08h0c0-.07-.09-.08-.09-.08-.5-.07-.93-.18-.93-.74V48.35h0a3.78,3.78,0,0,1,2.22-1c1,0,1.46.46,1.46,1.4V52c0,.55-.42.66-.9.73,0,0-.12,0-.12.09h0a.09.09,0,0,0,0,.12A.09.09,0,0,0,66,53Z"/><path class="cls-1" d="M57.92,43.8H61c.13,0,.12.08.12.08V44c0,.09-.12.1-.12.1-.77,0-1.34.2-1.34,1v4.77c0,2.23-1.79,3.22-3.57,3.22-2.27,0-3.57-1.18-3.57-3.24V45.11c0-.84-.59-1-1.34-1,0,0-.15,0-.15-.12h0c0-.13.17-.11.17-.11h3.51a.09.09,0,0,1,.11.09v0h0c0,.08-.13.09-.13.09-.76,0-1.35.2-1.35,1v4.54a2.6,2.6,0,0,0,2.23,2.91,3.25,3.25,0,0,0,.54,0c2,0,3.09-1,3.09-2.94v-4.5c0-.86-.56-1-1.31-1,0,0-.12,0-.12-.1V43.9S57.79,43.8,57.92,43.8Z"/><path class="cls-1" d="M76.94,47h0a.08.08,0,0,1,.09-.08h2c.1,0,.09.08.09.08h0a.13.13,0,0,1-.09.12c-.35.12-.52.2-.64.46l-2.47,5.53h-.07l-2.7-5.52c-.13-.26-.27-.33-.63-.46a.12.12,0,0,1-.1-.12h0a.11.11,0,0,1,.12-.1h2.31s.09,0,.09.07h0a.09.09,0,0,1-.09.09c-.52.08-.81.16-.81.49a.73.73,0,0,0,.09.35l1.81,3.86.06.15,1.74-4v-.11a.45.45,0,0,0,0-.23c0-.34-.33-.42-.81-.49A.1.1,0,0,1,76.94,47Z"/><path class="cls-1" d="M94.55,47.35v1.22c0,.09-.1.09-.1.09h-.08c-.08,0-.1-.1-.1-.1a1.6,1.6,0,0,0-1.73-1.43c-.81,0-1.29.41-1.29,1.09s.41.9,1.08,1.1l.91.28c1.18.35,1.64.87,1.64,1.83S94,53.1,92.63,53.1a3.72,3.72,0,0,1-2-.52.22.22,0,0,1-.09-.17v-1.3a.1.1,0,0,1,.08-.09h0a.12.12,0,0,1,.12.09,1.92,1.92,0,0,0,2,1.61c1,0,1.53-.44,1.53-1.21s-.6-1-1.32-1.25L92.14,50c-.93-.28-1.51-.65-1.51-1.66s.8-1.59,2-1.59a4.11,4.11,0,0,1,1.86.44A.17.17,0,0,1,94.55,47.35Z"/><path class="cls-1" d="M109.75,47h0c0-.09-.1-.08-.1-.08h-2c-.11,0-.11.08-.11.08h0c0,.08.1.09.1.09.48.07.81.15.81.49a.73.73,0,0,1-.09.35l-1.66,4.31-1.92-4.31a.86.86,0,0,1-.09-.35c0-.33.32-.41.78-.48,0,0,.13,0,.13-.09h0c0-.1-.11-.1-.11-.1H103.2c-.15,0-.14.09-.14.09h0c0,.11.12.14.12.14.44.17.51.23.64.5l2.51,5.42-.44,1.13a1.31,1.31,0,0,1-1.4,1H104s-.17,0-.17.13v.23a.33.33,0,0,0,0,.14,1,1,0,0,0,.75.3c.5,0,1.08-.17,1.58-1.41l2.77-6.92c.12-.29.22-.35.67-.52a.12.12,0,0,0,.16,0A.1.1,0,0,0,109.75,47Z"/><path class="cls-1" d="M142.58,25.69c-1-.07-1.69-.22-1.69-1.06v-2.7h2.26c2.31,0,3.13-1.37,3.13-2.65,0-1.57-1.28-2.51-3.41-2.51h-4.13a.11.11,0,0,0-.12.08v.08c0,.1.11.09.11.09.77.05,1.38.2,1.38,1.06v6.55c0,.85-.59,1-1.33,1.06,0,0-.16,0-.16.11v.05a.1.1,0,0,0,.08.1h3.92c.12,0,.11-.09.11-.09v-.05a.11.11,0,0,0-.11-.12Zm-1.69-8.54h1.85c1.69,0,2.59.76,2.59,2.2s-.79,2.2-2.62,2.2h-1.82Z"/><path class="cls-1" d="M159.59,17.84h.25a.23.23,0,0,0,.18-.06.52.52,0,0,0,.19-.43c0-.59-.52-.94-1.38-.94-1.52,0-2.39,1-2.39,2.76v.53l-.82.32a.14.14,0,0,0-.1.1.1.1,0,0,0,.07.09h.85V25c0,.56-.43.67-.92.74,0,0-.1,0-.1.09h0s0,.09.11.09h2.83a.07.07,0,0,0,.09-.07v0h0c0-.09-.11-.09-.11-.09-.8-.08-1.14-.16-1.14-.81V20.21h1.58c.13,0,.12-.1.12-.1v-.17c0-.1-.13-.1-.13-.1H157.2v-1.1c0-1.3.44-2,1.32-2,.65,0,1,.3,1,.92C159.49,17.7,159.47,17.84,159.59,17.84Z"/><path class="cls-1" d="M177.46,20.29V20c0-.16-.17-.14-.17-.14h-2a2.84,2.84,0,0,0-1-.17,2.31,2.31,0,0,0-2.53,2.07c0,.08,0,.16,0,.24a2,2,0,0,0,.93,1.71l.11.07-.12.06c-.6.28-1,.58-1,1.16a.91.91,0,0,0,.68.9l.18.06-.17.08c-.65.3-1.08.63-1.08,1.28s.72,1.57,2.74,1.57,3.5-.82,3.5-2.06c0-1-.64-1.5-1.8-1.5H173a.59.59,0,0,1-.66-.5.49.49,0,0,1,0-.12c0-.39.36-.59.64-.81h0a3.48,3.48,0,0,0,1.19.18,2.15,2.15,0,0,0,2.51-1.71,1.55,1.55,0,0,0,0-.37,2,2,0,0,0-1-1.76h0l1.44.19h.23A.12.12,0,0,0,177.46,20.29Zm-4.91,1.45a1.44,1.44,0,0,1,1.26-1.6H174a1.79,1.79,0,0,1,1.85,1.73,1.22,1.22,0,0,1,0,.27,1.44,1.44,0,0,1-1.27,1.61h-.18A1.8,1.8,0,0,1,172.54,22,2.35,2.35,0,0,1,172.55,21.74Zm.17,4.31h2.86c1.08,0,1.3.53,1.3,1,0,1-1,1.58-2.62,1.58-1.35,0-2.22-.56-2.22-1.42a1.52,1.52,0,0,1,.68-1.16Z"/><path class="cls-1" d="M150.53,39.42h-3.06c-.11,0-.1-.09-.1-.09v-.06c0-.11.12-.11.12-.11.79,0,1.17-.23,1.17-.91a1.82,1.82,0,0,0,0-.33l-.77-6.25-3.21,7.68a.1.1,0,0,1-.1.07h-.05a.16.16,0,0,1-.1-.08L141,31.63l-.76,6.29v.33c0,.68.38.86,1.19.92,0,0,.1,0,.1.08v.1s0,.06-.05.07h-2.81a.06.06,0,0,1-.06-.06h0v-.11c0-.07.08-.07.08-.07.64-.05,1-.21,1-.86l.85-6.78c0-.71-.24-1-1-1,0,0-.12,0-.12-.1v-.08a.09.09,0,0,1,.09-.08h1.8a.11.11,0,0,1,.12.1h0a2.7,2.7,0,0,0,.18.57l3.1,7,.07.16,3-7.16a2.23,2.23,0,0,0,.16-.56.11.11,0,0,1,.12-.11h1.71s.11,0,.11.1v.06c0,.1-.12.1-.12.1-.77.06-1,.33-1,1l.85,6.77c.08.63.39.8,1,.85,0,0,.14,0,.14.12v.06A.59.59,0,0,1,150.53,39.42Z"/><path class="cls-1" d="M156.74,35.68v-.06a2.29,2.29,0,0,0-2.14-2.43,2.41,2.41,0,0,0-.38,0c-1.79,0-3,1.36-3,3.38a2.86,2.86,0,0,0,2.69,3,1.6,1.6,0,0,0,.31,0,2.52,2.52,0,0,0,2.5-1.5v-.14h0a.17.17,0,0,0-.14,0,2.45,2.45,0,0,1-2.08,1,2.36,2.36,0,0,1-1.82-.74,3,3,0,0,1-.7-2.27v-.07h4.67C156.73,35.84,156.74,35.68,156.74,35.68Zm-4.74-.3a2,2,0,0,1,2-1.72,1.7,1.7,0,0,1,1.91,1.73v.08H152Z"/><path class="cls-1" d="M161.15,38.92H161a2.2,2.2,0,0,1-.81.15c-.83,0-1.26-.44-1.26-1.33v-4h1.82c.12,0,.11-.13.11-.13v-.13a.1.1,0,0,0-.11-.1H159V32.09s0-.07-.05-.07h0l-.11.07a6.37,6.37,0,0,1-1.41,1.38.17.17,0,0,0-.08.12h0c0,.06.07.06.07.06h.86V38a1.41,1.41,0,0,0,1.28,1.53h.29a1.93,1.93,0,0,0,1.33-.53A.11.11,0,0,0,161.15,38.92Z"/><path class="cls-1" d="M198.91,38.92h-.1a2.29,2.29,0,0,1-.82.15c-.83,0-1.25-.44-1.25-1.33v-4h1.82c.11,0,.1-.13.1-.13v-.13a.1.1,0,0,0-.11-.1h-1.81V32.09s0-.07-.05-.07h0l-.1.07a6.29,6.29,0,0,1-1.44,1.38.15.15,0,0,0-.07.12h0a.06.06,0,0,0,.06.06H196V38a1.41,1.41,0,0,0,1.28,1.53h.3a2,2,0,0,0,1.33-.52A.07.07,0,0,0,198.91,38.92Z"/><path class="cls-1" d="M164.83,39.42H162c-.12,0-.1-.08-.1-.08v-.05c0-.09.1-.09.1-.09.49-.07.91-.18.91-.73V34.22l-.9-.3a0,0,0,0,1-.05-.06h0l.06-.07,1.32-.5h.3a.07.07,0,0,1,.09.07v0l-.07,1.84.17-.27c.46-.75,1-1.68,1.83-1.68h.21a.34.34,0,0,1,.19.09.21.21,0,0,1,.05.13v.43s0,.12-.16.12h-.13c-.92,0-1.34.42-2.13,1.4h0v3c0,.65.34.72,1.16.81a.09.09,0,0,1,.1.1h0S165,39.42,164.83,39.42Z"/><path class="cls-1" d="M149.85,26H147c-.1,0-.09-.08-.09-.08v-.05c0-.09.1-.09.1-.09.49-.07.91-.18.91-.73v-4.3l-.9-.3c-.06,0,0-.06,0-.06h0l.06-.07,1.32-.5a.33.33,0,0,1,.14,0h.16a.07.07,0,0,1,.09.07v0l-.07,1.84.17-.27c.46-.75,1-1.68,1.83-1.68H151a.34.34,0,0,1,.19.09.14.14,0,0,1,0,.11v.43s0,.12-.15.12h-.14c-.92,0-1.34.42-2.13,1.4h0v3c0,.65.34.72,1.16.81a.09.09,0,0,1,.1.1h0S150,26,149.85,26Z"/><path class="cls-1" d="M169.44,39.54a3.19,3.19,0,0,0,3.22-3.16v-.14a2.9,2.9,0,0,0-2.79-3h-.21a3.19,3.19,0,0,0-3.22,3.16v.14a2.91,2.91,0,0,0,2.8,3Zm-.11-5.86c1.58,0,2.53,1.09,2.53,2.9A2.21,2.21,0,0,1,169.94,39l-.19,0c-1.58,0-2.53-1.09-2.53-2.9a2.23,2.23,0,0,1,1.94-2.47Z"/><path class="cls-1" d="M176,42.21h0c0-.1-.11-.11-.11-.11-.49-.07-.9-.19-.9-.73V39l.12.09a2.91,2.91,0,0,0,1.65.44,3.33,3.33,0,0,0,3.4-3.26,2.44,2.44,0,0,0,0-.27,2.67,2.67,0,0,0-2.54-2.81h-.24a2.79,2.79,0,0,0-2.22,1.15l-.15.2.07-1.21a.11.11,0,0,0-.1-.11h-.29l-1.32.5a.06.06,0,0,0-.06.07h0a.11.11,0,0,0,.06.07l.9.3v7.12c0,.55-.42.66-.9.73,0,0-.12,0-.12.1h0s0,.09.11.09h2.57C176,42.29,176,42.21,176,42.21Zm-1-7.45h0a2.69,2.69,0,0,1,2-1c1.43,0,2.31,1,2.31,2.69a2.34,2.34,0,0,1-2.45,2.65c-1.27,0-1.89-.51-1.89-1.56Z"/><path class="cls-1" d="M184.28,33.2a3.19,3.19,0,0,0-3.22,3.16v.14a2.91,2.91,0,0,0,2.8,3h.2a3.19,3.19,0,0,0,3.22-3.16V36.2a2.9,2.9,0,0,0-2.79-3Zm.11,5.86c-1.58,0-2.53-1.09-2.53-2.9a2.23,2.23,0,0,1,1.94-2.47H184c1.58,0,2.53,1.09,2.53,2.9A2.21,2.21,0,0,1,184.58,39Z"/><path class="cls-1" d="M181.2,19.73A3.19,3.19,0,0,0,178,22.88V23a2.91,2.91,0,0,0,2.82,3H181a3.19,3.19,0,0,0,3.22-3.16v-.14a2.9,2.9,0,0,0-2.79-3Zm.1,5.86c-1.58,0-2.52-1.09-2.52-2.9a2.22,2.22,0,0,1,1.92-2.47h.18c1.59,0,2.53,1.09,2.53,2.9a2.21,2.21,0,0,1-1.92,2.46l-.19,0Z"/><path class="cls-1" d="M188.15,30.49l1.35-.58a.33.33,0,0,1,.14,0h.14s.08,0,.08.11V38.5c0,.54.41.66.88.73,0,0,.14,0,.14.08v.06s0,.08-.12.08h-2.61c-.12,0-.11-.08-.11-.08h0c0-.09.11-.1.11-.1.48-.07.9-.18.9-.73V30.81l-.89-.17c-.07,0-.06-.06-.06-.06h0S188.05,30.52,188.15,30.49Z"/><path class="cls-1" d="M185,17l1.35-.58a.33.33,0,0,1,.14,0h.15s.08,0,.08.11l-.05.85V25c0,.54.4.66.88.73,0,0,.13,0,.13.08v.06s0,.08-.11.08H185c-.12,0-.11-.08-.11-.08h0c0-.09.11-.1.11-.1.49-.07.91-.18.91-.73v-7.7l-.89-.17c-.08,0-.07-.06-.07-.06h0A.13.13,0,0,1,185,17Z"/><path class="cls-1" d="M193,31.83a.61.61,0,0,0,.63-.59v0a.62.62,0,0,0-.54-.7.63.63,0,0,0-.71.54v.16a.62.62,0,0,0,.6.62Z"/><path class="cls-1" d="M194.47,39.29v.05a.08.08,0,0,1-.09.08h-2.6c-.11,0-.1-.09-.1-.09h0c0-.08.1-.09.1-.09.49-.07.92-.18.92-.73V34.22l-.9-.29c-.06,0-.06-.07-.06-.07h0l.06-.07,1.34-.5h.29a.1.1,0,0,1,.08.11l0,1.09v4c0,.55.41.66.9.73C194.36,39.2,194.47,39.2,194.47,39.29Z"/><path class="cls-1" d="M153.15,18.36a.62.62,0,0,0,.63-.61h0a.63.63,0,0,0-.63-.63h0a.62.62,0,0,0-.62.62h0a.62.62,0,0,0,.6.62Z"/><path class="cls-1" d="M154.6,25.82v.06s0,.07-.09.07h-2.6c-.12,0-.1-.09-.1-.09h0c0-.09.1-.1.1-.1.49-.07.92-.18.92-.73V20.75l-.9-.29c-.07,0-.06-.08-.06-.08h0c0-.05.06-.07.06-.07l1.34-.5h.28a.1.1,0,0,1,.08.11V25c0,.55.42.66.91.73C154.49,25.73,154.6,25.73,154.6,25.82Z"/><path class="cls-1" d="M205.6,39a2.13,2.13,0,0,1-.44.07c-.44,0-.69-.34-.69-.92V35.3a2,2,0,0,0-1.88-2.11,1.53,1.53,0,0,0-.37,0c-1.3,0-2.25.59-2.25,1.42a.85.85,0,0,0,.08.35.26.26,0,0,0,.25.13h.36a.13.13,0,0,0,.15-.17,1.13,1.13,0,0,1,0-.26c0-.69.39-1,1.2-1a1.65,1.65,0,0,1,1.73,1.57,2.09,2.09,0,0,1,0,.25v.34l-2.41.7c-.9.25-1.68.48-1.68,1.55a1.56,1.56,0,0,0,1.57,1.55h.2a2.85,2.85,0,0,0,2.23-1.16l.12-.13v.18a1,1,0,0,0,1,1.1,1.49,1.49,0,0,0,1-.42.08.08,0,0,0,0-.09h0Zm-1.89-1h0a3.09,3.09,0,0,1-2,1,1.11,1.11,0,0,1-1.19-1v-.2a1,1,0,0,1,.8-1l2.44-.75Z"/><path class="cls-1" d="M210.93,39.42h2.58c.12,0,.11-.09.11-.09h0c0-.08-.09-.08-.09-.08-.5-.07-.93-.18-.93-.73V35.09a1.67,1.67,0,0,0-1.43-1.89,1.93,1.93,0,0,0-.48,0,3.6,3.6,0,0,0-2.42,1.2l-.14.16.06-1.25a.08.08,0,0,0-.07-.09h-.29l-1.33.5a.07.07,0,0,0-.07.08h0l.07.08.89.29v4.25c0,.55-.42.66-.9.73,0,0-.12,0-.12.09h0a.09.09,0,0,0,.1.09h2.6a.07.07,0,0,0,.09-.07h0v0c0-.07-.09-.09-.09-.09-.49-.07-.92-.18-.92-.73V34.8h0a3.67,3.67,0,0,1,2.21-1c1,0,1.47.46,1.47,1.41v3.25c0,.55-.42.66-.91.73,0,0-.11,0-.11.09h0S210.81,39.42,210.93,39.42Z"/><path class="cls-1" d="M170.15,20.32v1.22c0,.09-.1.1-.1.1H170c-.08,0-.1-.11-.1-.11a1.59,1.59,0,0,0-1.72-1.42c-.8,0-1.29.41-1.29,1.09s.41.9,1.08,1.1l.91.28c1.19.35,1.65.86,1.65,1.82s-.89,1.67-2.26,1.67a3.72,3.72,0,0,1-2-.52.22.22,0,0,1-.09-.17V24.09a.08.08,0,0,1,0-.09h0a.12.12,0,0,1,.12.09,1.92,1.92,0,0,0,2,1.61c1,0,1.53-.44,1.53-1.21s-.6-1-1.32-1.26l-.81-.25c-.93-.28-1.5-.66-1.5-1.66s.79-1.59,2-1.59a4,4,0,0,1,1.86.44A.17.17,0,0,1,170.15,20.32Z"/><path class="cls-1" d="M165.76,20V20c0-.09-.1-.08-.1-.08h-2c-.1,0-.1.08-.1.08h0c0,.09.1.1.1.1.48.07.81.15.81.49a.69.69,0,0,1-.09.34l-1.67,4.32-1.91-4.31a.73.73,0,0,1-.09-.35c0-.34.32-.42.78-.48,0,0,.13,0,.13-.09h0c0-.1-.11-.1-.11-.1h-2.26c-.15,0-.14.09-.14.09h0c0,.1.12.14.12.14.44.17.51.23.64.5l2.51,5.4-.44,1.13a1.32,1.32,0,0,1-1.4,1H160s-.17,0-.17.13v.23a.33.33,0,0,0,0,.14,1,1,0,0,0,.75.3c.5,0,1.08-.17,1.58-1.41L165,20.59c.12-.29.22-.34.67-.51A.13.13,0,0,0,165.76,20Z"/><polygon class="cls-1" points="76.77 26.47 76.77 26.48 76.77 26.47 76.77 26.47"/><path class="cls-1" d="M66.41,25.48h-.07a2,2,0,0,1-.42.05c-.33,0-.52-.27-.52-.77V22.13c0-1.57-.85-2.36-2.52-2.36-1.49,0-2.49.65-2.49,1.61,0,.33.14.69.46.69l.68-.08a.25.25,0,0,0,.16-.08.22.22,0,0,0,0-.16v-.41c0-.59.29-.85,1-.85.92,0,1.45.63,1.45,1.71v.19l-2.3.67h-.06a4.13,4.13,0,0,0-1,.41l-.28.2h0a8.35,8.35,0,0,1-2.41,1.57,5.43,5.43,0,0,1-1.87.39,3,3,0,0,1-1.68-.48,3.86,3.86,0,0,1-1.46-2.06,9.3,9.3,0,0,1-.4-2.09c0-1.39.44-3.73,3.41-3.73A2.74,2.74,0,0,1,59,19.14s.08.25.29.25h.17c.07,0,.18,0,.18-.22l-.07-1.75a.29.29,0,0,0-.14-.25,5.52,5.52,0,0,0-3.25-.76A4.87,4.87,0,0,0,51.05,21v.45a5.69,5.69,0,0,0,2.25,4.33,5.09,5.09,0,0,0,2.63.71h0A6,6,0,0,0,58.62,26a8.7,8.7,0,0,0,.83-.5l.38-.29.06-.05.17-.12a1.72,1.72,0,0,0,1.87,1.51,3,3,0,0,0,2.22-1.08c.23.73.59,1.05,1.16,1.05a1.76,1.76,0,0,0,1.29-.59.22.22,0,0,0,.07-.17.36.36,0,0,0-.13-.23A.21.21,0,0,0,66.41,25.48Zm-2.26-2.4v1.75h0a2.44,2.44,0,0,1-1.61.71.93.93,0,0,1-1-.85v-.15a.82.82,0,0,1,.63-.83Z"/><path class="cls-1" d="M71.62,21v-.88c0-.18-.18-.23-.3-.26h0a1.2,1.2,0,0,0-.33-.05c-.86,0-1.4.76-2,1.7L69.08,20a.15.15,0,0,0,0-.13.2.2,0,0,0-.11,0h-.41L67,20.4a.31.31,0,0,0-.17.2v.1a.24.24,0,0,0,.12.17l.79.37v4c0,.48-.32.56-.85.63a.14.14,0,0,0-.12.14v.3a.17.17,0,0,0,0,.1.14.14,0,0,0,.09,0h3.28a.12.12,0,0,0,.12-.12h0V26a.17.17,0,0,0-.12-.11h0c-.82-.11-1.06-.14-1.06-.68v-2.9a2.37,2.37,0,0,1,2-1.1h.33a.2.2,0,0,0,.2-.2Z"/><path class="cls-1" d="M91.22,16.39a2.64,2.64,0,0,0-2.79,2.48,3.23,3.23,0,0,0,0,.44v.63h-3.1V18.87c0-1.27.25-1.75.91-1.75.45,0,.65.23.65.74V18a.34.34,0,0,0,0,.2.23.23,0,0,0,.17.07h.54a.36.36,0,0,0,.23-.09.93.93,0,0,0,.27-.65c0-.76-.57-1.14-1.69-1.14-1.55,0-2.44,1.06-2.44,2.92v.49l-.78.34a.23.23,0,0,0-.15.21v.19a.18.18,0,0,0,.19.17H84v4.54c0,.43-.24.54-.76.61a.27.27,0,0,0-.21.2v.2a.33.33,0,0,0,0,.14.27.27,0,0,0,.17.06h3.09a.17.17,0,0,0,.19-.15v-.26c0-.12-.12-.17-.17-.18-.79-.08-1-.14-1-.67V20.71h3.1v4.54c0,.47-.33.55-.8.62a.21.21,0,0,0-.17.21v.19a.13.13,0,0,0,0,.12.21.21,0,0,0,.18.07h3.07a.23.23,0,0,0,.16-.06.21.21,0,0,0,0-.11v-.24c0-.12-.13-.17-.21-.18-.8-.09-1-.17-1-.67V20.71h1.47a.23.23,0,0,0,.16-.06.24.24,0,0,0,0-.12v-.42a.17.17,0,0,0-.17-.17h-1.5V18.87c0-1.19.38-1.75,1.18-1.75.36,0,.69.09.69.74v.19a.22.22,0,0,0,0,.16.2.2,0,0,0,.14.06h.66a.43.43,0,0,0,.23-.09,1,1,0,0,0,.26-.65C93,16.8,92.32,16.39,91.22,16.39Z"/><path class="cls-1" d="M82.53,25.87c-.52-.07-.77-.18-.77-.62V21.13L81.82,20a.16.16,0,0,0-.16-.16h-.21a.74.74,0,0,0-.21,0l-1.55.53a.24.24,0,0,0-.15.2v.06a.2.2,0,0,0,.11.2l.8.38v4c0,.48-.33.56-.8.62a.24.24,0,0,0-.17.18v.26a.17.17,0,0,0,0,.1.12.12,0,0,0,.12.05h2.9a.19.19,0,0,0,.19-.15V26.1A.23.23,0,0,0,82.53,25.87Z"/><path class="cls-1" d="M79.47,17.15a.79.79,0,0,1,.89.68.67.67,0,0,1,0,.2v.14a.38.38,0,0,0,.07.21.23.23,0,0,0,.16.06h.73a.32.32,0,0,0,.25-.09.92.92,0,0,0,.26-.65c0-.78-.81-1.28-2.07-1.28A2.85,2.85,0,0,0,76.69,19a3.69,3.69,0,0,0,0,.47v.75A3,3,0,0,0,75,19.76a3.47,3.47,0,0,0-3.47,3.46v.23a2.87,2.87,0,0,0,2.63,3.08h.37a2.89,2.89,0,0,0,2.2-1v.86a.29.29,0,0,0,0,.13.14.14,0,0,0,.09,0h.1l2-.4a.17.17,0,0,0,.14-.17v-.3a.15.15,0,0,0-.15-.14h-.22c-.53-.06-.64-.13-.66-.44V19C78,17.72,78.44,17.15,79.47,17.15ZM76.69,22v2.71a2.44,2.44,0,0,1-1.75.73c-1.52,0-2.06-1.26-2.06-2.43,0-1.56.77-2.5,2.06-2.5a1.57,1.57,0,0,1,1.74,1.38A.41.41,0,0,1,76.69,22Z"/><path class="cls-1" d="M153.72,52h-.07a1.84,1.84,0,0,1-.41,0c-.45,0-.52-.48-.52-.77V48.71c0-1.55-.85-2.34-2.51-2.34-1.47,0-2.46.64-2.46,1.6,0,.25.09.68.45.68h0l.67-.08a.24.24,0,0,0,.16-.07.18.18,0,0,0,.05-.16v-.42c0-.57.29-.83.95-.83.91,0,1.43.62,1.43,1.69V49l-2.27.67h-.07a4.13,4.13,0,0,0-1,.41l-.27.19h0a8.63,8.63,0,0,1-2.37,1.54,3.78,3.78,0,0,1-3.52-.1,3.66,3.66,0,0,1-1.45-2,9.43,9.43,0,0,1-.3-2.12c0-1.38.44-3.71,3.37-3.71a2.72,2.72,0,0,1,2.87,1.86.34.34,0,0,0,.28.25h.17c.07,0,.17-.05.17-.23L146.91,44a.31.31,0,0,0-.14-.23,5.43,5.43,0,0,0-3.2-.75,4.83,4.83,0,0,0-5.06,4.58c0,.14,0,.28,0,.42a5.63,5.63,0,0,0,2.23,4.29,5.15,5.15,0,0,0,2.62.71h0a5.74,5.74,0,0,0,2.61-.56,6.13,6.13,0,0,0,.82-.49l.39-.29.07-.06.15-.11a1.71,1.71,0,0,0,1.85,1.5,2.89,2.89,0,0,0,2.22-1c.23.72.59,1,1.15,1a1.74,1.74,0,0,0,1.28-.59.22.22,0,0,0,.07-.17.32.32,0,0,0-.12-.22A.27.27,0,0,0,153.72,52Zm-2.29-2.38v1.73a2.47,2.47,0,0,1-1.62.72.93.93,0,0,1-1-.83v-.17a.81.81,0,0,1,.62-.83Z"/><path class="cls-1" d="M164.74,46.5h0a.91.91,0,0,0-.33,0c-.85,0-1.38.75-1.93,1.69l.05-1.52a.13.13,0,0,0,0-.12H162l-1.53.53a.34.34,0,0,0-.18.19v.11a.3.3,0,0,0,.12.17l.78.37v4c0,.48-.31.52-.83.58a.17.17,0,0,0-.13.15v.29a.17.17,0,0,0,0,.1h3.3a.12.12,0,0,0,.13-.12v-.34a.14.14,0,0,0-.12-.11h0c-.8-.1-1-.1-1-.63V48.92a2.35,2.35,0,0,1,2-1.08h.32a.2.2,0,0,0,.22-.2h0v-.86A.41.41,0,0,0,164.74,46.5Z"/><path class="cls-1" d="M172.42,52.06h-.21c-.56-.06-.66-.13-.66-.5V43.27a.11.11,0,0,0,0-.11H171l-1.58.55a.16.16,0,0,0-.11.16V44a.23.23,0,0,0,.11.16l.73.26a.09.09,0,0,1,.06.09v2.35a2.84,2.84,0,0,0-1.68-.47,3.42,3.42,0,0,0-3.4,3.46V50a2.83,2.83,0,0,0,2.59,3h.33a2.88,2.88,0,0,0,2.19-1v.85a.15.15,0,0,0,0,.13h.19l2-.4a.18.18,0,0,0,.14-.17v-.3A.16.16,0,0,0,172.42,52.06Zm-2.17-3.33v2.58a2.42,2.42,0,0,1-1.74.73c-1.51,0-2-1.25-2-2.41,0-1.55.76-2.48,2-2.48a1.55,1.55,0,0,1,1.73,1.35A1.69,1.69,0,0,1,170.25,48.73Z"/><path class="cls-1" d="M186.47,52.06h-.22c-.55-.06-.65-.13-.65-.5V44.21l.05-.94a.11.11,0,0,0,0-.11h-.53l-1.59.55a.18.18,0,0,0-.1.16V44a.23.23,0,0,0,.11.17l.73.26a.09.09,0,0,1,.06.09v2.35a2.89,2.89,0,0,0-1.69-.47,3.42,3.42,0,0,0-3.49,3.34V50a2.83,2.83,0,0,0,2.56,3.07,2.17,2.17,0,0,0,.44,0,2.88,2.88,0,0,0,2.19-1v.85a.29.29,0,0,0,0,.13h.2l2-.4a.18.18,0,0,0,.14-.17v-.3A.38.38,0,0,0,186.47,52.06Zm-3.91-4.91a1.57,1.57,0,0,1,1.73,1.39,1.21,1.21,0,0,1,0,.19v2.58a2.42,2.42,0,0,1-1.74.73c-1.51,0-2-1.25-2-2.41C180.51,48.08,181.28,47.15,182.56,47.15Z"/><path class="cls-1" d="M194,52.06h-.21c-.55-.06-.65-.13-.65-.5V43.27a.11.11,0,0,0,0-.11h-.53l-1.58.55a.16.16,0,0,0-.11.16V44a.23.23,0,0,0,.11.17l.73.26a.09.09,0,0,1,.06.09v2.35a2.84,2.84,0,0,0-1.68-.47,3.42,3.42,0,0,0-3.42,3.44V50a2.83,2.83,0,0,0,2.59,3h.33a2.88,2.88,0,0,0,2.19-1l-.05.85a.29.29,0,0,0,0,.13h.2l2-.4a.18.18,0,0,0,.14-.17v-.3C194.15,52.11,194.09,52.07,194,52.06Zm-3.88-4.91a1.57,1.57,0,0,1,1.73,1.39,1.21,1.21,0,0,1,0,.19v2.58a2.44,2.44,0,0,1-1.74.69c-1.51,0-2-1.25-2-2.41C188.08,48.08,188.85,47.15,190.15,47.15Z"/><path class="cls-1" d="M157.15,46.37a3.24,3.24,0,0,0-3.24,3.26c0,.1,0,.2,0,.3a3,3,0,0,0,2.85,3.15H157a2.74,2.74,0,0,0,2.79-1.75.15.15,0,0,0-.05-.22h0l-.17-.08h-.07a.19.19,0,0,0-.16.09,2.5,2.5,0,0,1-1.94.83c-1.47,0-2.25-.89-2.26-2.58h4.47a.23.23,0,0,0,.24-.23V49a2.49,2.49,0,0,0-2.33-2.64Zm-.3.84a1.47,1.47,0,0,1,1.6,1.31v.13H155.2a1.62,1.62,0,0,1,1.69-1.44Z"/><path class="cls-1" d="M179.26,46.43h-2.18a.47.47,0,0,0-.15.06.24.24,0,0,0,0,.12v.23c0,.11.12.16.18.18.57.08.72.16.72.37a1.09,1.09,0,0,1-.08.31l-1.44,3.75-1.63-3.76a.61.61,0,0,1-.08-.3c0-.21.13-.28.64-.36,0,0,.25-.05.25-.23v-.13a.14.14,0,0,0,0-.15.27.27,0,0,0-.21-.09h-2.62a.22.22,0,0,0-.24.21v.14a.36.36,0,0,0,.18.28c.42.15.45.18.56.4L175.62,53l-.31.8a1.35,1.35,0,0,1-1.51,1h-.65a.19.19,0,0,0-.18.2h0v.43a.41.41,0,0,0,.09.26,1.26,1.26,0,0,0,.88.33c.73,0,1.34-.3,1.94-1.75l2.77-6.86c.09-.22.15-.26.59-.42a.23.23,0,0,0,.15-.2v-.25C179.43,46.48,179.32,46.44,179.26,46.43Z"/></g></g></svg>