<svg xmlns="http://www.w3.org/2000/svg" viewBox="0 0 624.46 127.8"><defs><style>.cls-1{fill:#13130a;}.cls-10,.cls-2,.cls-5,.cls-8,.cls-9{fill:none;stroke:#13130a;}.cls-2{stroke-width:1.68px;}.cls-3{fill:#fdf6d2;}.cls-4{fill:#7bad2f;}.cls-5{stroke-width:1.56px;}.cls-6{fill:#87221f;}.cls-7{fill:#fff;}.cls-8{stroke-width:0.62px;}.cls-9{stroke-width:0.46px;}.cls-10{stroke-width:0.93px;}.cls-11{fill:#a8a5a8;}</style></defs><title>AberystwythUniversity</title><g id="Layer_2" data-name="Layer 2"><g id="Layer_1-2" data-name="Layer 1"><path class="cls-1" d="M421,107.66h3.83v10.83c0,2.66.1,5.88,5.08,5.88s5.11-3.22,5.11-5.88V107.66h3.83V118.6c0,3.16-.11,8.78-8.94,8.78S421,121.76,421,118.6Z"/><polygon class="cls-1" points="445 107.66 449.39 107.66 460.25 122.06 460.3 122.06 460.3 107.66 463.97 107.66 463.97 126.84 459.66 126.84 448.73 112.44 448.68 112.44 448.68 126.84 445 126.84 445 107.66"/><rect class="cls-1" x="471.45" y="107.65" width="3.83" height="19.19"/><polygon class="cls-1" points="479.29 107.66 483.58 107.66 489.53 123.03 495.34 107.66 499.48 107.66 491.46 126.84 487.4 126.84 479.29 107.66"/><polygon class="cls-1" points="503.49 107.66 519.32 107.66 519.32 110.67 507.32 110.67 507.32 115.5 518.83 115.5 518.83 118.51 507.32 118.51 507.32 123.83 519.52 123.83 519.52 126.84 503.49 126.84 503.49 107.66"/><path class="cls-1" d="M526.15,107.66h11.54c4.65,0,6.16,2.22,6.16,5.21a4.51,4.51,0,0,1-3,4.62v.06c2.16.48,2.65,2.47,2.65,5.18,0,.92,0,3.07.77,4.12h-4.14a6.83,6.83,0,0,1-.46-2.91c0-2.74-.36-4.67-3.16-4.67H530v7.58h-3.83Zm10.45,8.6c2.11,0,3.27-.67,3.27-2.83,0-2-1.26-2.76-3.27-2.76H530v5.59Z"/><path class="cls-1" d="M557.78,107.12c2.81,0,8.42.54,8.91,6.1h-4.14c-.12-1.48-1.4-3.09-4.59-3.09-2.55,0-4.24.83-4.24,2.63,0,4.52,13.59.19,13.59,8.39,0,4.94-4.88,6.23-8.76,6.23-6.57,0-9.2-2.71-9.25-6.74h4.14c.1,2.52,2.1,3.73,5.24,3.73,2.32,0,4.49-.72,4.49-2.82,0-4.75-13.43-.62-13.43-8.49,0-4.28,3.6-5.94,8-5.94"/><rect class="cls-1" x="573.38" y="107.65" width="3.83" height="19.19"/><polygon class="cls-1" points="588.47 110.67 581.62 110.67 581.62 107.66 599.14 107.66 599.14 110.67 592.29 110.67 592.29 126.84 588.47 126.84 588.47 110.67"/><polygon class="cls-1" points="609.48 119.53 601.51 107.66 606.18 107.66 611.39 116.2 616.6 107.66 621.27 107.66 613.3 119.53 613.3 126.84 609.48 126.84 609.48 119.53"/><path class="cls-1" d="M164.23.54h11.23c4.47,0,5.93,2.87,5.93,6,0,2.93-1.77,5.92-5.88,5.92h-7.45v7.31h-3.83Zm3.83,8.87h6.15c2.17,0,3.35-.62,3.35-2.91S176,3.55,174.49,3.55h-6.43Z"/><path class="cls-1" d="M186.65.54h11.54c4.65,0,6.15,2.23,6.15,5.21a4.51,4.51,0,0,1-3,4.62v.06c2.17.48,2.65,2.47,2.65,5.19,0,.91,0,3.06.77,4.11h-4.14a6.84,6.84,0,0,1-.45-2.9c0-2.75-.37-4.68-3.17-4.68h-6.52v7.58h-3.82Zm10.44,8.6c2.12,0,3.27-.67,3.27-2.82,0-2-1.26-2.77-3.27-2.77h-6.62V9.14Z"/><rect class="cls-1" x="212.4" y="0.54" width="3.83" height="19.19"/><polygon class="cls-1" points="224.89 0.54 240.06 0.54 240.06 3.55 228.72 3.55 228.72 8.39 239.45 8.39 239.45 11.4 228.72 11.4 228.72 19.73 224.89 19.73 224.89 0.54"/><polygon class="cls-1" points="250.86 12.42 242.89 0.54 247.56 0.54 252.77 9.09 257.98 0.54 262.65 0.54 254.69 12.42 254.69 19.73 250.86 19.73 250.86 12.42"/><path class="cls-1" d="M274,0c2.81,0,8.43.54,8.91,6.1h-4.13c-.13-1.47-1.41-3.09-4.6-3.09-2.55,0-4.24.83-4.24,2.64,0,4.51,13.59.18,13.59,8.38,0,4.94-4.88,6.24-8.76,6.24-6.56,0-9.19-2.72-9.24-6.75h4.13c.1,2.52,2.09,3.74,5.24,3.74,2.32,0,4.49-.73,4.49-2.83,0-4.75-13.43-.61-13.43-8.49,0-4.27,3.6-5.94,8-5.94"/><path class="cls-1" d="M309,19.73h-2.25l-.53-2.5a8.85,8.85,0,0,1-6.95,3c-7.71,0-10.73-4.74-10.73-10.14S291.73,0,299.16,0c5.54,0,9.09,3,9.49,6.72h-4.13c-.69-2.61-3-3.71-5.46-3.71-4.73,0-6.54,3-6.54,7.26,0,5.1,3.12,7,6.33,7,3.91,0,5.7-1.89,6.3-5.06H300v-3h9Z"/><path class="cls-1" d="M314.25,10.13c0-5.4,3-10.13,10.72-10.13s10.72,4.73,10.72,10.13-3,10.14-10.72,10.14-10.72-4.74-10.72-10.14m17.46,0C331.71,5.91,329.26,3,325,3s-6.74,2.9-6.74,7.12,2.45,7.13,6.74,7.13,6.74-2.91,6.74-7.13"/><polygon class="cls-1" points="340.95 0.54 344.78 0.54 344.78 16.56 355.86 16.56 355.86 19.73 340.95 19.73 340.95 0.54"/><path class="cls-1" d="M162.94,57.77c0-10.65,0-12.58-.16-14.76-.16-2.34-.57-3.63-2.9-3.95a23.23,23.23,0,0,0-2.42-.16c-.25,0-.57-.16-.57-.4,0-.4.32-.56,1.13-.56,3.23,0,7.82.16,8.23.16,1.69,0,5-.16,8.3-.16,11.86,0,14.92,6.85,14.92,10.47,0,5.4-3.55,8.79-7.18,12,5.4,1.61,12.5,6.53,12.5,14.27S189.07,89.94,177,89.94c-1.29,0-3.87-.08-6.13-.24s-4.27-.17-4.59-.17c-.17,0-1.46.08-2.91.08s-3.14.17-4.27.17c-.73,0-1.13-.17-1.13-.57,0-.24.16-.4.56-.4a17.93,17.93,0,0,0,2.18-.33c1.38-.24,1.53-1.77,1.85-3.78.41-2.83.41-8.22.41-14.84Zm6.13,1.45c0,.48.16.65.48.73a22.23,22.23,0,0,0,4.35.32c4,0,5.49-.16,6.94-1.78a10.52,10.52,0,0,0,2.74-7.34c0-5.23-2.9-11-10-11a20.73,20.73,0,0,0-3.62.32c-.65.17-.89.32-.89.73Zm0,7.58c0,5.32,0,13.54.08,14.59.24,3.31.24,4.11,2.42,5.16a17,17,0,0,0,6.2,1c4.68,0,10.41-1.76,10.41-10.55a15,15,0,0,0-6.78-12.5C179,62.92,176.73,63,175,62.68c-.89-.15-4.43-.15-5.56-.15-.24,0-.4.15-.4.48Z"/><path class="cls-1" d="M207.13,57.77c0-10.65,0-12.58-.16-14.75-.16-2.34-.56-3.47-2.9-3.8a22.86,22.86,0,0,0-2.42-.16.68.68,0,0,1-.56-.56c0-.4.32-.57,1.13-.57,3.22,0,7.82.17,8.22.17s15.32.07,16.93,0c1.37-.09,2.66-.33,3.23-.41a4.41,4.41,0,0,1,1-.32c.24,0,.32.32.32.64,0,.49-.4,1.29-.57,3.23-.08.65-.24,3.7-.4,4.52-.08.31-.32.72-.65.72s-.56-.33-.56-.89a7.65,7.65,0,0,0-.4-2.42c-.48-1.12-1.22-1.6-5.08-2.09-1.21-.16-9.44-.24-10.24-.24-.32,0-.4.24-.4.73V60.18c0,.49,0,.73.4.73.89,0,10.24,0,11.85-.16s2.74-.25,3.47-1c.48-.48.81-.88,1.05-.88s.39.16.39.56-.39,1.54-.55,3.79c-.17,1.37-.33,4-.33,4.43s-.16,1.29-.64,1.29c-.33,0-.49-.24-.49-.64a6.13,6.13,0,0,0-.32-2.26c-.24-1-.89-1.77-3.63-2.09-1.93-.25-9.51-.33-10.72-.33-.4,0-.48.24-.48.49v5.72c0,2.34-.09,10.32,0,11.7.15,4.59,1.45,5.48,8.46,5.48,1.85,0,5.24,0,7.1-.73s2.82-2,3.22-4.75c.16-.81.32-1,.73-1s.48.56.48,1a58,58,0,0,1-1,6.61c-.48,1.77-1.21,1.77-4,1.77-5.32,0-9.43-.16-12.34-.24s-4.83-.16-5.88-.16c-.16,0-1.53,0-3.06.07-1.37.09-3,.17-4.12.17-.72,0-1.12-.17-1.12-.57a.54.54,0,0,1,.56-.56,20.84,20.84,0,0,0,2.18-.32c1.37-.25,1.53-1.62,1.85-3.63.4-2.82.4-8.22.4-14.84Z"/><path class="cls-1" d="M299.8,89.64H287.52c-4,0-5.8-.4-7.57-1.36-3.05-1.62-5.63-4.91-9.66-10.06-3-3.71-6.11-8.13-7.64-10a1.1,1.1,0,0,0-1-.41l-9-.16c-.32,0-.48.16-.48.57v1.61c0,6.59,0,11.91.33,14.72.24,2,.64,3.31,2.81,3.63a28.51,28.51,0,0,0,3.14.32.51.51,0,0,1,.57.57c0,.32-.33.55-1.13.55-3.86,0-8.37-.23-8.7-.23-.07,0-4.82.23-7,.23-.73,0-1.13-.16-1.13-.55a.55.55,0,0,1,.56-.57,10.93,10.93,0,0,0,2.18-.32c1.36-.32,1.52-1.62,1.84-3.63.41-2.81.41-8.21.41-14.81V57.69c0-10.62,0-12.55-.16-14.73s-.57-3.46-2.9-3.78c-.57-.07-1.77-.16-2.42-.16a.69.69,0,0,1-.56-.56c0-.41.32-.56,1.13-.56,3.22,0,8,.15,8.37.15.72,0,6.68-.15,8.85-.15,4.51,0,9.5.4,13.2,3a12,12,0,0,1,4.91,9.34c0,5.07-2.1,10-8.69,15.61,5.79,7.24,10.7,13.44,14.81,17.71,3.78,3.86,6.11,4.5,7.88,4.75,1.37.24,8.14.21,8.54.21m-46.85-25a1,1,0,0,0,.48.89c1.06.57,4.67,1,7.82,1a9.21,9.21,0,0,0,5.3-1.2c2.42-1.62,4.27-5.24,4.27-10.47,0-8.53-4.67-13.44-12.23-13.44a31,31,0,0,0-5.07.4.87.87,0,0,0-.57.81Z"/><path class="cls-1" d="M332,88.81c-1-.48-1-.73-1-2.58,0-3.38.33-6.13.41-7.26,0-.72.16-1.13.56-1.13s.65.25.65.81a10.39,10.39,0,0,0,.24,2.5c1.13,5,6.45,6.77,11.21,6.77,7,0,10.63-4,10.63-9.11,0-4.91-2.65-7.26-8.94-11.93l-3.23-2.42c-7.65-5.72-10.16-9.92-10.16-14.67,0-8.06,6.37-12.91,15.72-12.91a33.92,33.92,0,0,1,7.35.81,9.19,9.19,0,0,0,2.49.32c.57,0,.73.09.73.49s-.32,2.58-.32,7.26c0,1-.08,1.53-.57,1.53s-.56-.33-.64-.89A12.81,12.81,0,0,0,356,43c-.49-.8-2.82-3.38-9.19-3.38-5.16,0-9.44,2.58-9.44,7.41,0,4.36,2.18,6.86,9.2,11.62l2,1.37c8.63,5.88,11.61,10.64,11.61,16.52,0,4-1.53,8.39-6.61,11.69-3,1.94-7.42,2.42-11.28,2.42-3.31,0-7.42-.48-10.33-1.85"/><path class="cls-1" d="M482.76,39.06a11.79,11.79,0,0,0-2.42.32c-2.1.73-3.23,3.47-4.59,7.26-3.15,8.71-10.16,30.48-13,38.14-1.85,5.08-2.25,5.89-3.06,5.89s-1.37-.89-2.34-3.56L443.49,49.63c-2.42,6-12,31-14.59,37.41-1.21,2.9-1.69,3.63-2.5,3.63s-1.29-.73-2.74-5.41L411.08,44.62c-1.13-3.62-1.85-4.51-3.71-5.16a6.88,6.88,0,0,0-2.14-.4.64.64,0,0,1-.65-.64c0-.32.48-.49,1.12-.49,3.71,0,6.59.17,7.31.17s3.88-.17,7.43-.17c1,0,1.29.17,1.29.49a.71.71,0,0,1-.73.64,6,6,0,0,0-2.5.4,1.41,1.41,0,0,0-1,1.46,40.44,40.44,0,0,0,1.37,6.36c1.13,4.37,8.39,29.52,9.27,32.34h.17l14.83-38.3c1-2.75,1.54-3.15,1.94-3.15s1,.89,1.93,3.23l13.87,38.22h.32C463,74,469.37,54.14,471.87,45.35a14.29,14.29,0,0,0,.81-4.27c0-1.21-.56-2-3.79-2a.68.68,0,0,1-.64-.64c0-.32.32-.49,1.21-.49,3.62,0,6.61.17,7.26.17"/><path class="cls-1" d="M483.47,38.1c.48,0,3.38-.16,6.12-.16.81,0,1,.16,1,.48s-.48.48-1.13.72a1.2,1.2,0,0,0-.89,1.14,5.68,5.68,0,0,0,1,2.65l12.9,21.36c1.45-2.9,10.32-17.57,11.62-19.83a7.34,7.34,0,0,0,1.2-3.54c0-1-.32-1.54-1.12-1.78s-1.06-.48-1.06-.8.41-.4,1.13-.4c1.86,0,4.36.16,4.92.16s5.56-.16,6.93-.16c.49,0,.89.16.89.4a.82.82,0,0,1-.89.72,7.28,7.28,0,0,0-3.3.89,12.16,12.16,0,0,0-3.55,3.39c-2.34,2.73-12.33,18.86-13.79,21.76-1.2,2.42-.88,4.61-.88,6.85v5.89c0,1.14,0,4,.24,6.86.16,2,.64,3.3,2.74,3.63a29.68,29.68,0,0,0,3.23.32.54.54,0,0,1,.56.56c0,.32-.4.57-1.12.57-4,0-8.55-.25-9-.25s-4.85.25-6.94.25c-.81,0-1.14-.16-1.14-.57a.55.55,0,0,1,.57-.56,10.07,10.07,0,0,0,2.1-.32c1.45-.33,1.94-1.62,2.1-3.63.16-2.83.16-5.72.16-6.86V72c0-3.7-.48-5.07-1.53-7C496,63.89,486.3,48.71,484,45c-3.61-5.65-3.39-4.11-4.68-5a6.93,6.93,0,0,0-3-1"/><path class="cls-1" d="M402.28,38.09c0,2.1-.24,7.17-.24,8,0,.57-.32.89-.65.89s-.47-.24-.55-1.2l-.09-.73c-.23-2.1-1.77-3.63-8.54-3.79l-5.65-.16V69.86c0,6.62,0,12,.32,14.84.25,2,.57,3.3,2.75,3.63a29.52,29.52,0,0,0,3.22.32.5.5,0,0,1,.56.56c0,.33-.32.57-1.13.57-3.86,0-8.39-.24-8.79-.24s-5.23.24-7.33.24c-.8,0-1.12-.17-1.12-.57,0-.24.15-.48.55-.48a8.92,8.92,0,0,0,2.1-.33c1.45-.32,1.86-1.69,2.1-3.7.32-2.82.32-8.22.32-14.84V41.08l-7,.16c-4.44.08-6.14.57-7.18,2.18a11.58,11.58,0,0,0-1.13,2.17c-.16.56-.41.64-.72.64a.53.53,0,0,1-.49-.55c0-.73,1.45-7,1.54-7.59h37.16Z"/><path class="cls-1" d="M617.69,69.86c0,6.61.08,12,.4,14.83.24,2,.4,3.31,2.58,3.64a28,28,0,0,0,3.14.32.57.57,0,0,1,.65.56c0,.33-.4.57-1.21.57-3.87,0-8.38-.24-8.79-.24s-4.92.24-7,.24c-.81,0-1.13-.17-1.13-.57a.55.55,0,0,1,.57-.56,9.45,9.45,0,0,0,2.09-.32c1.45-.33,1.7-1.7,1.94-3.72.32-2.81.32-8,.32-14.59V63.17c0-.32-.16-.4-.4-.4H581.25c-.25,0-.4.08-.4.4V70c0,6.61,0,11.86.32,14.67.23,2,.48,3.31,2.58,3.64a28.92,28.92,0,0,0,3.22.32.55.55,0,0,1,.57.56c0,.33-.32.57-1.14.57-3.94,0-8.46-.24-8.78-.24s-4.92.24-7.1.24c-.72,0-1.12-.17-1.12-.57a.54.54,0,0,1,.56-.56,10.07,10.07,0,0,0,2.17-.32c1.37-.33,1.53-1.62,1.86-3.64.4-2.81.4-8.22.4-14.83V57.77c0-10.64,0-12.58-.16-14.76-.16-2.34-.57-3.46-2.9-3.79a23,23,0,0,0-2.42-.16.68.68,0,0,1-.56-.56c0-.41.32-.57,1.13-.57,3.22,0,7.73.16,8.14.16s4.84-.16,7-.16c.8,0,1.12.16,1.12.57a.68.68,0,0,1-.56.56,8,8,0,0,0-1.78.16c-1.93.41-2.34,1.38-2.5,3.79-.07,2.18-.07,4.28-.07,14.92v1.45c0,.4.15.4.4.4h29.59c.24,0,.4,0,.4-.4V57.93c0-10.64-.09-12.74-.16-14.92-.16-2.34-.48-3.46-2.82-3.79a23.24,23.24,0,0,0-2.43-.16.6.6,0,0,1-.56-.56c0-.41.32-.57,1.13-.57,3.14,0,7.74.16,8.06.16s4.92-.16,7-.16c.81,0,1.22.16,1.22.57a.7.7,0,0,1-.65.56,8.3,8.3,0,0,0-1.77.16c-1.86.41-2.26,1.38-2.42,3.79-.16,2.18-.16,4.12-.16,14.76Z"/><path class="cls-1" d="M298.8,88.49a20.89,20.89,0,0,0,2.31-.16c1.29-.16,1.93-1.62,2.09-3.64.17-2.81.17-5.72.17-6.85V72c0-3.71-.49-5.08-1.54-7-.56-1-10.16-16.28-12.58-19.91a17.79,17.79,0,0,0-4.67-5,6.93,6.93,0,0,0-3-1,.71.71,0,0,1-.72-.64c0-.32.24-.49.89-.49,1.37,0,6.69.17,7,.17.48,0,3.39-.17,6.13-.17.8,0,1,.17,1,.49s-.47.48-1.13.72a1.19,1.19,0,0,0-.88,1.13,5.63,5.63,0,0,0,1,2.66l12.9,21.37c1.45-2.91,10.31-17.58,11.61-19.84a7.24,7.24,0,0,0,1.21-3.54c0-1-.32-1.54-1.13-1.78-.64-.16-1.05-.48-1.05-.8s.41-.41,1.13-.41c1.85,0,4.36.17,4.92.17s5.56-.17,6.93-.17c.49,0,.89.17.89.41a.82.82,0,0,1-.89.72A7.21,7.21,0,0,0,328,40a12.25,12.25,0,0,0-3.55,3.38c-2.34,2.74-12.33,18.87-13.79,21.77-1.2,2.42-.89,4.6-.89,6.86v5.88c0,1.13,0,4,.24,6.85.17,2,.65,3.31,2.75,3.64a27.22,27.22,0,0,0,3.22.32.55.55,0,0,1,.57.56c0,.33-.4.57-1.13.57-3.95,0-8.55-.24-8.95-.24s-5,.1-7.07.1"/><path class="cls-1" d="M402.3,38.09c0,2.1-.24,7.17-.24,8,0,.57-.33.89-.65.89s-.48-.24-.56-1.2l-.08-.73c-.24-2.1-1.77-3.63-8.55-3.79l-5.64-.16V69.86c0,6.62,0,12,.32,14.84.24,2,.56,3.3,2.74,3.63a29.52,29.52,0,0,0,3.22.32.5.5,0,0,1,.57.56c0,.33-.32.57-1.13.57-3.86,0-8.39-.24-8.79-.24s-5.24.24-7.33.24c-.81,0-1.13-.17-1.13-.57,0-.24.16-.48.56-.48a9.08,9.08,0,0,0,2.1-.33c1.45-.32,1.85-1.69,2.1-3.7.32-2.82.32-8.22.32-14.84V41.08l-7,.16c-4.44.08-6.13.57-7.17,2.18a11,11,0,0,0-1.13,2.17c-.16.56-.41.64-.73.64a.53.53,0,0,1-.48-.55c0-.73,1.45-7,1.53-7.59H402.3Z"/><path class="cls-1" d="M566,38.09c0,2.1-.24,7.17-.24,8,0,.57-.33.89-.65.89s-.48-.24-.56-1.2l-.08-.73c-.24-2.1-1.78-3.63-8.55-3.79l-5.64-.16V69.86c0,6.62,0,12,.32,14.84.24,2,.56,3.3,2.74,3.63a29.52,29.52,0,0,0,3.22.32.5.5,0,0,1,.57.56c0,.33-.32.57-1.13.57-3.87,0-8.39-.24-8.79-.24s-5.24.24-7.34.24c-.8,0-1.12-.17-1.12-.57,0-.24.15-.48.56-.48a9.08,9.08,0,0,0,2.1-.33c1.45-.32,1.85-1.69,2.09-3.7.32-2.82.32-8.22.32-14.84V41.08l-7,.16c-4.44.08-6.13.57-7.18,2.18a11.3,11.3,0,0,0-1.12,2.17c-.17.56-.41.64-.73.64a.54.54,0,0,1-.49-.55c0-.73,1.46-7,1.54-7.59H566Z"/><path class="cls-1" d="M480.43,40.53l3.06-2.43s-1.89.09-3.57.09-3.18-.09-3.18-.09l1.53,3a1.56,1.56,0,0,1,1-.72,1.93,1.93,0,0,1,1.18.15"/><path class="cls-1" d="M144.16,60.65,129.61,22.77c-1.1-2.83-1.46-3.28-2-3.28s-.91.54-2,3.56L104.87,79.74c-1.64,4.56-3.47,8-7.67,8.58-.73.09-2,.18-2.65.18-.45,0-.81.19-.81.55,0,.55.54.73,1.73.73,4.29,0,9.31-.27,10.31-.27s4.93.27,7.13.27c.82,0,1.37-.18,1.37-.73,0-.36-.28-.55-.92-.55h-.91c-1.55,0-3.47-.82-3.47-2.65a19,19,0,0,1,1.28-6.11l5.47-16.17a1,1,0,0,1,.92-.72h19.62a.79.79,0,0,1,.83.55l.13.35c7.42,19.86,15.06,48.7,60,55l.26,0C162.1,112.36,152.92,82,144.16,60.65m-9.07-1.09H117.65c-.27,0-.45-.18-.27-.64l8-24.65q.69-2,1.38,0l8.67,24.65c.09.36.09.64-.37.64"/><path class="cls-1" d="M300,104c-40.89,0-60,14.09-92.81,15.33,46.94-1,58.24-9.35,92.81-9.35,36.71,0,96.25,15.56,96.25,15.56S342.81,104,300,104"/><path class="cls-2" d="M.84,29.52c15.25-14.63,77.11-14.63,92.81,0v36C89.33,109.61,47.53,126.87,47.24,127S5.19,109.67.84,65.47Z"/><path class="cls-3" d="M.84,29.52c15.25-14.63,77.11-14.63,92.81,0v36C89.33,109.61,47.53,126.87,47.24,127S5.19,109.67.84,65.47Z"/><path class="cls-2" d="M.84,29.52c15.25-14.63,77.11-14.63,92.81,0v36C89.33,109.61,47.53,126.87,47.24,127S5.19,109.67.84,65.47Z"/><path class="cls-4" d="M47.32,59l39,31.67c-13.14,25.1-38.78,36.29-39,36.36S21.45,116.46,8.23,90.65Z"/><path class="cls-5" d="M47.32,59l39,31.67c-13.14,25.1-38.78,36.29-39,36.36S21.45,116.46,8.23,90.65Z"/><path class="cls-6" d="M33,39.41a4.53,4.53,0,0,1,.8,2.52A29.36,29.36,0,0,0,39,33.78l.7-.11c2.3,1.15,3.11-.35,3.11-.35a1.81,1.81,0,0,1-2.72-1.85c.51-1.82.94-3.67,4.28-3-.12-1.32-.86-1.31-2-1.31a3.49,3.49,0,0,0-2.56,1.45L40,27.18c.61-.55,1.9-.83,2.25-1.48-1.12-.41-1.75.13-2.87.48-1.43.52-1.18,1.42-1.73,2.08a1.8,1.8,0,0,1,.86-2.17,1.42,1.42,0,0,0-2,.79c-1.16,2.24.25,3.16.56,4.86-.57,1.76-1.3,2.48-4,7.67m11.51,9.85A2.59,2.59,0,0,0,44.15,47a11,11,0,0,0-2.77-1c-.54-1.24,3,.07,3,.07.12-1.93-2.38-2.36-3.69-1.91-3,4-7.09.25-7.09-1.12a9.52,9.52,0,0,0-5.28-8C27,34.42,26,33.9,26,33.9a6.21,6.21,0,0,0,3.54.29c1-.29,3.25,1.85,3.65,2.31a21.13,21.13,0,0,1,0-2.87c-.65-.21-2.17.06-2.88-.32a.4.4,0,0,1-.27-.54,15.38,15.38,0,0,0,3.42.27c1-.2,1.78-.69,1.48-1.35-.06.76-1.09,1.09-2.17.88a12.94,12.94,0,0,1-2.46-.86s1.08-1.95,2.67-.7a3.55,3.55,0,0,1,.39-2,9.19,9.19,0,0,0,1.27-.58c-1.88-.6-3.74.6-4.16.34s-.42-.49-1.2-.49a23.46,23.46,0,0,0-4.51,1.45,4.4,4.4,0,0,1-4.5-2.53c-1.35,4.63,2.47,4.54,2.47,4.54-1.28.18-2.43,2.15-2.43,2.15a3.34,3.34,0,0,1,2.23-.42c-1,.18-1.51,2.07-1.33,1.88a1.8,1.8,0,0,1,1.49-.6c0,.71-.89,5.73-.64,6.29.53,1.19,1.77,2,1.82,3.27-4.14,4.11-9.52-3.07-3.93-8.56C13.11,26.1,6.69,29.14,4.66,29c1.72,1.41,4.87,7.46-.25,9.79,3.92,1,3.95,6.51,2.59,8.51,3.93-.25,7.18,3,7.48,4.58,2.43-.71,6.33-3.63,8.76-2.88-.64.1-2.46,3.09-2.46,3.09C16,60.15,10.49,60.21,9.88,58.76c-.37-1.08,1.63-2.94.77-6.15,0,0,1-.3,2.43,1.86a2,2,0,0,0,.09-1.73c-2-4-7.95-4.47-8.4-3.62,1.53.23,1.77,1.73,1.77,3.08-.1,1-.46,3-.16,3.46a4.22,4.22,0,0,1,2.86-2.73c.07,2.87-4.11,3.77-3.36,8a4.24,4.24,0,0,0,1.92,3c2.53,1.06,5,1.71,9.18-.39,0,0-.53.56-.93,2.9a5,5,0,0,0-2.77.6c2,.23,1.74.07,2.09.8,1.33,2.78-.43,3,.08,3.94,0,.5-.46-.82-.56-.41-.92.94-3.84.2-4.11,1.56.31-.12,2.84-.93,4.31.94-.61,2.16,1.72,3.72.41,5.58-.41.51,2.24-1.5,2.24-1.5-.1-1.21.15-2.36-.5-3.52l.68,0c1.3,1.22,2.89,1.65,2.63,3.76A2.08,2.08,0,0,0,22,76.17c-.2-1.06-1.17-1.34-1.62-2,.45-.4,2-.31,2.78,1.2.65-.5.25-1.46.35-2.16-.66-1.5-2.63-.8-3.89-1.35-2.44-.36-.41-1.35-.87-2.91-.15-2.47,2.83-2.56,4.15-4.12-.7-2.62-1.55-3.49-.84-4.54a2.06,2.06,0,0,0,.21,2c.7,1.25,3.18.42,3.18.42.39,1.64-2.16,6.79-.87,6.88,0-2.32,5.11-3.37,7.9-4l-.34.89a2.68,2.68,0,0,0,.46,2.35c.24-2.08.32-2.47,1-3,1.67-2.11,4.11-2.74,6.19-4.45.55-.4,1.61-.55,1.71-1.31-.71-.45-1.71-.14-2.57-.24-.81.3-1.42,1.5-2.28,1.3a7.79,7.79,0,0,1,3-2.51c-.36-1-1.47-.15-2-.76-.76-.19-.91.86-1.22,1.36-.55.71-1.16,2-2.07,1.91A8,8,0,0,1,36,58.93l.45-1.12c-3.64-.9-1.81,3.27-3.49,4.62-.86.1-1.77.76-2.58.35.31-1.8,1-3.46.87-5.42-.87-2.15-3.85-.5-5.47-.5,1.87-2.2,6.62-4.62,7.71-9.61a5.21,5.21,0,0,1-3.44-2.92c2,2.71,4.27,2.42,6.29,3.08,0,0-2.19.69-2.34,1.66,2.8-1.46,3-.35,4.55-.66,1.75-.33,2.76,1.07,3.42,2.82a4.56,4.56,0,0,0,.27-1.58A3.53,3.53,0,0,0,41,47.57c1.16-.66,2.23.69,3.55,1.69M27.21,29.91c1.05-.51,1.3-.13,1.3-.13s.1.9-.12.87a12.05,12.05,0,0,0-2.32.1s.1-.33,1.14-.84"/><path class="cls-6" d="M54.45,31.48a1.8,1.8,0,0,1-2.72,1.84s.81,1.51,3.11.36l.7.11a29.55,29.55,0,0,0,5.18,8.15,4.42,4.42,0,0,1,.8-2.52c-2.7-5.19-3.43-5.91-4-7.68.31-1.7,1.72-2.62.56-4.85a1.43,1.43,0,0,0-2-.8,1.81,1.81,0,0,1,.87,2.18c-.56-.66-.3-1.57-1.73-2.08-1.12-.36-1.75-.89-2.88-.48.36.64,1.64.93,2.25,1.48l.13,1.39a3.5,3.5,0,0,0-2.57-1.46c-1.09,0-1.83,0-1.95,1.31,3.34-.63,3.77,1.23,4.28,3.05m26.9,21.27a1.94,1.94,0,0,0,.09,1.72c1.45-2.15,2.43-1.86,2.43-1.86-.87,3.22,1.13,5.08.77,6.16-.61,1.44-6.17,1.38-10.9-6.68,0,0-1.82-3-2.46-3.1,2.43-.75,6.33,2.18,8.76,2.88.3-1.56,3.55-4.82,7.48-4.58-1.36-2-1.33-7.5,2.59-8.5-5.12-2.33-2-8.39-.25-9.79-2,.14-8.45-2.89-15.26,6.76,5.6,5.49.22,12.67-3.92,8.55,0-1.25,1.29-2.07,1.82-3.27.25-.55-.64-5.57-.64-6.28a1.74,1.74,0,0,1,1.48.6c.19.19-.35-1.71-1.32-1.88a3.27,3.27,0,0,1,2.23.42s-1.15-2-2.43-2.16c0,0,3.82.1,2.47-4.53a4.41,4.41,0,0,1-4.5,2.53,23.55,23.55,0,0,0-4.5-1.45c-.79,0-.8.23-1.21.49s-2.28-.94-4.16-.35a9.43,9.43,0,0,0,1.26.58,3.53,3.53,0,0,1,.39,2c1.6-1.25,2.68.69,2.68.69a12.67,12.67,0,0,1-2.46.87c-1.08.21-2.11-.12-2.17-.88-.3.65.45,1.15,1.48,1.34a14.78,14.78,0,0,0,3.42-.27.41.41,0,0,1-.27.55c-.71.38-2.23.1-2.89.32a19.64,19.64,0,0,1,0,2.87c.4-.46,2.64-2.6,3.65-2.31a6.31,6.31,0,0,0,3.54-.29s-1,.51-2.29,1A9.55,9.55,0,0,0,61,43c0,1.38-4.11,5.15-7.09,1.13-1.31-.46-3.8,0-3.69,1.91,0,0,3.49-1.31,3-.08a11.13,11.13,0,0,0-2.75,1A2.57,2.57,0,0,0,50,49.26c1.32-1,2.39-2.34,3.55-1.68a3.58,3.58,0,0,0-1.28,2.08,4.13,4.13,0,0,0,.27,1.58c.66-1.75,1.67-3.15,3.42-2.82,1.57.31,1.75-.81,4.55.66-.15-1-2.34-1.66-2.34-1.66,2-.66,4.32-.37,6.29-3.08A5.28,5.28,0,0,1,61,47.26c1.1,5,5.85,7.41,7.72,9.61-1.62,0-4.6-1.66-5.47.5-.1,2,.56,3.62.87,5.42-.81.4-1.72-.25-2.58-.35-1.68-1.36.15-5.52-3.5-4.62l.46,1.11a8.39,8.39,0,0,1,1.62,2.15c-.91.05-1.52-1.2-2.08-1.9-.3-.5-.45-1.55-1.21-1.36-.5.61-1.62-.19-2,.75a7.89,7.89,0,0,1,3,2.51c-.86.21-1.47-1-2.28-1.3-.86.1-1.87-.21-2.57.25.1.76,1.16.91,1.71,1.31,2.08,1.71,4.52,2.34,6.19,4.45.67.54.74.92,1,3a2.64,2.64,0,0,0,.47-2.35l-.34-.89c2.78.6,7.88,1.66,7.9,4,1.29-.08-1.26-5.23-.87-6.87,0,0,2.49.83,3.18-.42a2.06,2.06,0,0,0,.21-2c.7,1.05-.14,1.92-.84,4.54,1.31,1.56,4.3,1.65,4.15,4.12-.46,1.55,1.57,2.54-.87,2.9-1.26.55-3.23-.15-3.89,1.36.1.7-.3,1.66.35,2.16.77-1.52,2.33-1.6,2.78-1.2-.45.7-1.42,1-1.62,2A2.07,2.07,0,0,0,74,78.25c-.26-2.11,1.33-2.54,2.63-3.76l.68,0c-.65,1.16-.4,2.31-.5,3.51,0,0,2.65,2,2.24,1.51-1.31-1.86,1-3.42.41-5.58,1.47-1.87,4-1.07,4.31-.94-.27-1.36-3.19-.62-4.11-1.56-.1-.41-.56.91-.56.4.51-1-1.25-1.15.08-3.93.35-.73.1-.57,2.09-.8a5.07,5.07,0,0,0-2.77-.6c-.4-2.34-.93-2.91-.93-2.91,4.14,2.11,6.65,1.46,9.18.41a4.32,4.32,0,0,0,1.92-3c.75-4.23-3.43-5.14-3.36-8a4.22,4.22,0,0,1,2.86,2.73c.31-.47-.06-2.41-.16-3.47,0-1.35.24-2.84,1.77-3.07-.45-.85-6.38-.34-8.4,3.62M66.13,30.66c-.22,0-.12-.87-.12-.87s.26-.38,1.3.13,1.14.84,1.14.84a12.05,12.05,0,0,0-2.32-.1"/><path class="cls-7" d="M44.36,105.17c2.82,1.61,3.83.66,5.45,0,2.28-.89,20.75-.49,20.75-.49L62.93,81.28l-2.76-2s-5-2.91-8.8-2.91-4.27,2.39-4.27,2.39-.44-2.39-4.26-2.39S34,79.31,34,79.31l-2.69,2-7.69,23.3s20.71.52,20.76.54"/><path class="cls-8" d="M44.36,105.17c2.82,1.61,3.83.66,5.45,0,2.28-.89,20.75-.49,20.75-.49L62.93,81.28l-2.76-2s-5-2.91-8.8-2.91-4.27,2.39-4.27,2.39-.44-2.39-4.26-2.39S34,79.31,34,79.31l-2.69,2-7.69,23.3S44.31,105.15,44.36,105.17Z"/><path class="cls-9" d="M34,79.31s-5,21.59-5.07,21.54c-.72,1.31-5.31,3.7-5.31,3.7"/><line class="cls-10" x1="47.05" y1="78.2" x2="47.05" y2="102.75"/><path class="cls-9" d="M65.29,100.78s-17.63-3.88-18.19,2.9v.14c-.56-6.79-18.19-2.91-18.19-2.91M60.29,79.59s4.93,21.18,5,21.13c1,1.65,5.31,3.71,5.31,3.71"/><path class="cls-1" d="M50.15,105.67c.06,0,20.93-.59,21-.59a5.62,5.62,0,0,0-1.21-.67c-9.29,0-17.55-2.69-20.08.24-.06,0-2.76-1.1-2.76-1.1s-2.64,1.09-2.7,1.09c-2.53-2.93-10.79-.24-20.07-.24a4.57,4.57,0,0,0-1.21.67c.06,0,21,.51,21.1.57a4.88,4.88,0,0,0,5.93,0"/><path class="cls-11" d="M38,97.85a29.77,29.77,0,0,0-7,1s2.12-9.71,2.12-9.66a13.16,13.16,0,0,1,5.83-.75s-1,9.42-.93,9.45"/><path class="cls-11" d="M45.15,93.76a9,9,0,0,0-5.75-.41s1.28-15.14,1.28-15.09c.93-.18,3.55-.57,4.76.64Z"/><path class="cls-11" d="M39,87.88a13.86,13.86,0,0,0-5.73.66c.06-.05,1.65-8.34,1.65-8.28a20.51,20.51,0,0,1,5-1.84S39,87.88,39,87.88"/><path class="cls-11" d="M45.13,98.73a17.28,17.28,0,0,0-6.14-1s.39-3.94.39-4a8.44,8.44,0,0,1,5.75.43s0,4.47,0,4.48"/><path class="cls-11" d="M55.32,91.17a13.83,13.83,0,0,1,6.27.81c-.06-.06-2.48-11.53-2.48-11.47A19.34,19.34,0,0,0,54,78.42s1.23,12.75,1.29,12.75"/><path class="cls-11" d="M48.78,82.73c.58-.57,3.19-1,4.82-.44,0,0-.32-4-.33-4-.93-.17-3.41-.53-4.49.56,0,0,0,3.92,0,3.91"/><path class="cls-11" d="M48.86,98.76c2.24-1.14,3.92-.9,6.11-.93,0,0-1.39-15.17-1.39-15.11a6.07,6.07,0,0,0-4.76.42s.1,15.64,0,15.62"/><path class="cls-11" d="M56,97.83a42.92,42.92,0,0,1,7,.76c-.06-.06-1.3-6.13-1.3-6.08-1.32-.76-5.51-1.07-6.27-.84,0,0,.55,6.16.6,6.16"/><path class="cls-2" d="M8.23,90.65,47.32,59l39,31.67M.84,29.52c15.25-14.63,77.11-14.63,92.81,0v36C89.33,109.61,47.53,126.87,47.24,127S5.19,109.67.84,65.47Z"/></g></g></svg>