<svg xmlns="http://www.w3.org/2000/svg" viewBox="0 0 572.39 140.76"><defs><style>.cls-1{fill:#fff;}.cls-2{font-size:126.64px;font-family:Bariol-Bold, Bariol;font-weight:700;letter-spacing:-0.05em;}.cls-2,.cls-4{fill:#404041;}.cls-3{letter-spacing:-0.06em;}.cls-5{fill:#e7cb1b;}</style></defs><title>technoteach_logo_whiteGrey_forBlueBG</title><g id="Layer_2" data-name="Layer 2"><g id="whiteGrey_onBlue"><g id="technoteach"><path class="cls-1" d="M36.28,106.91c-4.75.29-22.42.22-28-.22S0,102.73,0,96.11V32.59H7.78a6.86,6.86,0,0,1,5,2.15,7.14,7.14,0,0,1,2.15,5.19v9.72h22v3A7,7,0,0,1,34.72,58,7.27,7.27,0,0,1,29.53,60H14.9V92c0,2.45,1.45,3.68,4.33,3.68H36.28v11.23"/><path class="cls-1" d="M77.21,89.19H88Q85.63,98.26,78.94,103q-6.7,5-16.86,5-12.31,0-19.23-8-6.91-7.78-6.91-22.26,0-13.81,6.7-21.6,6.9-8,19.22-8,13,0,20.1,7.78,6.92,8,6.92,22.26v2.37a3.69,3.69,0,0,1-.22,1.51H51.28q.21,6.7,3.24,9.94,2.81,3.47,8.43,3.46A12.22,12.22,0,0,0,69.21,94a3.13,3.13,0,0,0,1.19-.76c.36-.35.76-.75,1.19-1.19a4.65,4.65,0,0,1,1.62-1.72,6.39,6.39,0,0,1,4-1.09M51.28,72.34h22q-.43-5.84-3-8.65c-1.87-2-4.54-3-8-3a10.54,10.54,0,0,0-7.78,3Q51.49,66.74,51.28,72.34Z"/><path class="cls-1" d="M131.23,89.19H142Q139.64,98.26,133,103q-6.69,5-16.85,5-12.31,0-19.23-8Q90,92.22,90,77.74q0-13.81,6.7-21.6,6.91-8,19.23-8,13,0,20.1,7.78a29.83,29.83,0,0,1,5.62,11H126.47a12.82,12.82,0,0,0-2.16-3.25c-1.87-2-4.54-3-8-3a10.54,10.54,0,0,0-7.78,3Q104.64,68,104.65,78t3.89,14q2.8,3.47,8.42,3.46A12.23,12.23,0,0,0,123.23,94a3.13,3.13,0,0,0,1.19-.76c.36-.35.75-.75,1.19-1.19a9.13,9.13,0,0,1,1.73-1.72,5.88,5.88,0,0,1,3.89-1.09"/><path class="cls-1" d="M180.49,65.64a10.33,10.33,0,0,0-8.86-4.54,10.94,10.94,0,0,0-9.29,4.32q-3.24,4.33-3.24,11.89v29.6H144.4V32.59h7.35a7.36,7.36,0,0,1,7.35,7.34V57a17.15,17.15,0,0,1,11-8.21,22,22,0,0,1,13.61.86,24.34,24.34,0,0,1,10.16,8.22q4.1,5.61,4.1,15.55v33.49H183.51V77.09a30.42,30.42,0,0,0-.54-5.94,15.11,15.11,0,0,0-2.48-5.51"/><path class="cls-1" d="M250.71,106.91h-7.56a7,7,0,0,1-7.35-7.34V70.18q0-5.19-3.13-7.56a11.3,11.3,0,0,0-7-2.38,10.87,10.87,0,0,0-6.92,2.38c-2,1.58-3,4.1-3,7.56v36.73H200.58V73.2q0-14.69,7.67-19.66a33.55,33.55,0,0,1,17-5.4,32.59,32.59,0,0,1,17.51,5q8,5,8,20.09v33.71"/><path class="cls-1" d="M260.22,101.72a21.21,21.21,0,0,1-6.48-10.47,48.1,48.1,0,0,1-2-13.72,43.45,43.45,0,0,1,1.62-11.67,24,24,0,0,1,5.08-9.72A22.37,22.37,0,0,1,273,48.47a33.16,33.16,0,0,1,16,1.4,22,22,0,0,1,12.1,11.23,35.86,35.86,0,0,1,3.68,16.64,40.94,40.94,0,0,1-1.52,11.88,30.2,30.2,0,0,1-3.88,8.43,21.59,21.59,0,0,1-13.18,8.86,29.29,29.29,0,0,1-14.38.32,25,25,0,0,1-11.55-5.51m10.37-38q-4.54,5-4.11,14.81c.29,6.56,1.51,11.12,3.68,13.72a9.59,9.59,0,0,0,4.53,2.92,10.32,10.32,0,0,0,6.59.21,11,11,0,0,0,5.94-4.86Q289.81,86.61,290,78q0-7.78-2.48-11.67a11.19,11.19,0,0,0-5.73-5,10.55,10.55,0,0,0-6.48-.11A11.36,11.36,0,0,0,270.59,63.69Z"/><text class="cls-2" transform="translate(299.6 105.94)">tea<tspan class="cls-3" x="139.18" y="0">c</tspan><tspan x="188.69" y="0">h</tspan></text><g id="mortarboard"><path class="cls-4" d="M544.81,43.07l-.1-.14-7.94-11c-7.22,1.57-12.51,6.11-15.27,8.07-4.36,3.1.33,4.36.33,4.36s21.48-1.12,24,13c2.26,12.53,9.86.34,10.77-10.94Z"/><path class="cls-4" d="M550.24,36.12a2.18,2.18,0,0,1-1.39-2.76A2.18,2.18,0,0,1,551.61,32c.67.22,15.17,5.14,18.26,17.29l2.52.73L557.53,27.51l-27.65-6.78,15.54,21.48,19.29,5.57C561,39.76,550.76,36.29,550.24,36.12Z"/><path class="cls-5" d="M567.24,45.35S559.75,57,562.68,65.71C565.84,75.12,573.16,54.24,567.24,45.35Z"/><path class="cls-5" d="M569.43,52.81C568.58,38.76,552,33.15,551.3,32.92a1.22,1.22,0,0,0-.38-.07,1.25,1.25,0,0,0-.53.13,1.22,1.22,0,0,0-.59.69,1.18,1.18,0,0,0,.75,1.5c.65.22,15.75,5.34,16.5,17.79a1.19,1.19,0,0,0,1.19,1.11h.07A1.19,1.19,0,0,0,569.43,52.81Z"/></g></g></g></g></svg>