<svg xmlns="http://www.w3.org/2000/svg" xmlns:xlink="http://www.w3.org/1999/xlink" viewBox="0 0 572.39 159.24"><defs><style>.cls-1{fill:none;}.cls-2{clip-path:url(#clip-path);}.cls-3{fill:#e7cb1b;}.cls-4,.cls-6{fill:#fff;}.cls-5{fill:#00adee;}.cls-6{font-size:126.64px;font-family:Bariol-Bold, Bariol;font-weight:700;letter-spacing:-0.05em;}.cls-7{letter-spacing:-0.06em;}</style><clipPath id="clip-path"><rect class="cls-1" x="251.79" y="112.88" width="294.01" height="46.35"/></clipPath></defs><title>technoteach_logo_withTechnocamps_blueWhite_forDarkBG</title><g id="Layer_2" data-name="Layer 2"><g id="blueWhite_onGrey"><g id="technocamps"><g class="cls-2"><g class="cls-2"><path class="cls-3" d="M269.4,149c-2.31.14-10.88.11-13.57-.11s-4-1.92-4-5.13V112.88h3.78a3.33,3.33,0,0,1,2.41,1.05,3.48,3.48,0,0,1,1,2.52v4.72h10.66v1.47a3.39,3.39,0,0,1-1.05,2.57,3.52,3.52,0,0,1-2.51,1H259v15.53c0,1.18.7,1.78,2.09,1.78h8.28V149"/><path class="cls-3" d="M289.27,140.36h5.24a11.44,11.44,0,0,1-4.4,6.71,13.36,13.36,0,0,1-8.18,2.41q-6,0-9.34-3.87t-3.35-10.81q0-6.7,3.25-10.48t9.33-3.89c4.19,0,7.45,1.26,9.75,3.78s3.36,6.19,3.36,10.8v1.16a1.76,1.76,0,0,1-.11.73H276.68a7.29,7.29,0,0,0,1.57,4.83,5,5,0,0,0,4.09,1.67,6,6,0,0,0,3.05-.73,1.37,1.37,0,0,0,.57-.37l.58-.57a2.19,2.19,0,0,1,.79-.84,3,3,0,0,1,1.94-.53m-12.59-8.18h10.7a6.83,6.83,0,0,0-1.47-4.2,5.06,5.06,0,0,0-3.88-1.46,5.15,5.15,0,0,0-3.78,1.46,6.09,6.09,0,0,0-1.57,4.2"/><path class="cls-3" d="M315.49,140.36h5.24a11.4,11.4,0,0,1-4.41,6.71,13.32,13.32,0,0,1-8.18,2.41q-6,0-9.33-3.87t-3.36-10.81q0-6.7,3.25-10.48t9.34-3.88q6.3,0,9.75,3.77a14.37,14.37,0,0,1,2.73,5.35h-7.34a6.33,6.33,0,0,0-1.05-1.58,5.06,5.06,0,0,0-3.88-1.46,5.15,5.15,0,0,0-3.78,1.46c-1.26,1.41-1.88,3.71-1.88,6.93s.62,5.49,1.88,6.82a5,5,0,0,0,4.09,1.67,5.9,5.9,0,0,0,3-.73,1.4,1.4,0,0,0,.58-.37l.58-.57a4.31,4.31,0,0,1,.84-.84,2.84,2.84,0,0,1,1.89-.53"/><path class="cls-3" d="M339.4,128.93a5,5,0,0,0-4.3-2.2,5.31,5.31,0,0,0-4.51,2.09,9.43,9.43,0,0,0-1.57,5.77V149h-7.14V112.88h3.57a3.44,3.44,0,0,1,2.52,1.05,3.48,3.48,0,0,1,1,2.52v8.28a8.32,8.32,0,0,1,5.34-4,10.63,10.63,0,0,1,6.61.42,11.79,11.79,0,0,1,4.93,4q2,2.72,2,7.55V149h-7V134.49a14.41,14.41,0,0,0-.27-2.89,7.14,7.14,0,0,0-1.2-2.67"/><path class="cls-3" d="M373.48,149h-3.67a3.42,3.42,0,0,1-3.57-3.56V131.13a4.31,4.31,0,0,0-1.51-3.67,5.5,5.5,0,0,0-3.41-1.15,5.29,5.29,0,0,0-3.36,1.15,4.38,4.38,0,0,0-1.47,3.67V149h-7.34V132.6c0-4.75,1.24-7.94,3.73-9.54a16.19,16.19,0,0,1,8.23-2.62,15.77,15.77,0,0,1,8.49,2.41q3.88,2.41,3.88,9.75V149"/><path class="cls-3" d="M378.1,146.44a10.36,10.36,0,0,1-3.15-5.08,23.36,23.36,0,0,1-.94-6.66,21.29,21.29,0,0,1,.78-5.67,11.7,11.7,0,0,1,2.47-4.71,10.89,10.89,0,0,1,7-3.73,16.22,16.22,0,0,1,7.76.68,10.72,10.72,0,0,1,5.87,5.46,17.36,17.36,0,0,1,1.78,8.07,20,20,0,0,1-.73,5.77,14.76,14.76,0,0,1-1.89,4.09,10.47,10.47,0,0,1-6.4,4.3,14.3,14.3,0,0,1-7,.16,12.16,12.16,0,0,1-5.61-2.68m5-18.46q-2.2,2.42-2,7.19t1.78,6.66a4.74,4.74,0,0,0,2.2,1.42,5.08,5.08,0,0,0,3.2.1,5.33,5.33,0,0,0,2.89-2.36c.84-1.26,1.29-3.28,1.36-6.08a10.62,10.62,0,0,0-1.21-5.67,5.45,5.45,0,0,0-2.77-2.41,5.14,5.14,0,0,0-3.15,0,5.52,5.52,0,0,0-2.31,1.2"/><path class="cls-4" d="M420.26,140.36h5.24a11.44,11.44,0,0,1-4.4,6.71,13.36,13.36,0,0,1-8.18,2.41q-6,0-9.34-3.87t-3.35-10.81q0-6.7,3.25-10.48c2.23-2.59,5.35-3.88,9.33-3.88q6.3,0,9.75,3.77a14.37,14.37,0,0,1,2.73,5.35H418A6.33,6.33,0,0,0,416.9,128a5.74,5.74,0,0,0-7.65,0c-1.26,1.41-1.89,3.71-1.89,6.93s.63,5.49,1.89,6.82a5,5,0,0,0,4.09,1.67,6,6,0,0,0,3-.73,1.37,1.37,0,0,0,.57-.37l.58-.57a4.31,4.31,0,0,1,.84-.84,2.84,2.84,0,0,1,1.89-.53"/><path class="cls-4" d="M444.49,147.81a12.84,12.84,0,0,1-4.67,1.41,40.45,40.45,0,0,1-4.35.26,11,11,0,0,1-6.61-2c-1.89-1.36-2.83-3.62-2.83-6.76,0-2.94.85-5,2.57-6.3a14.87,14.87,0,0,1,6.55-2.52,6.45,6.45,0,0,0,1.26-.15,15.77,15.77,0,0,1,1.68-.26q4.61-.63,4.61-2.73a2,2,0,0,0-1.62-2,11,11,0,0,0-3-.47,7.58,7.58,0,0,0-2.62.42,2.82,2.82,0,0,0-1.68,1.58h-7a8.07,8.07,0,0,1,2.94-5.35c1.88-1.61,4.58-2.41,8.07-2.41,3.92,0,6.85.66,8.81,2a6.72,6.72,0,0,1,3,5.87v9.55a12.07,12.07,0,0,1-1.52,6.55,9.35,9.35,0,0,1-3.61,3.41m-1.68-12.9a20,20,0,0,1-4.09,1.36l-2.42.52a6.25,6.25,0,0,0-2.72,1.37,4.28,4.28,0,0,0-.74,2.31,3.39,3.39,0,0,0,1,2.51,3.94,3.94,0,0,0,2.72.84,5.81,5.81,0,0,0,6.3-6.29Z"/><path class="cls-4" d="M475,149h-7.23V131.13a4.32,4.32,0,0,0-1.52-3.67,5.5,5.5,0,0,0-3.41-1.15,5.29,5.29,0,0,0-3.36,1.15,4.38,4.38,0,0,0-1.47,3.67V149h-7.34V132.6c0-4.75,1.24-7.94,3.73-9.54a16.22,16.22,0,0,1,8.23-2.62,21.21,21.21,0,0,1,4.72.52,9.83,9.83,0,0,1,4.19,2.1,9.18,9.18,0,0,1,3.73-1.94,19.77,19.77,0,0,1,4.45-.68,15.78,15.78,0,0,1,8.5,2.41q3.87,2.41,3.88,9.75V149h-3.67a3.42,3.42,0,0,1-3.57-3.56V131.13a4.32,4.32,0,0,0-1.52-3.67,5.63,5.63,0,0,0-6.82,0,4.32,4.32,0,0,0-1.52,3.67V149"/><path class="cls-4" d="M501.22,155.67a3.57,3.57,0,0,1-3.56,3.57h-3.57V133.12q0-7.34,4.3-10a17.38,17.38,0,0,1,9.34-2.67,15.17,15.17,0,0,1,5.29,1,10,10,0,0,1,4.25,2.89,16.67,16.67,0,0,1,3.15,10.48q0,6.62-3.15,10.7a9.83,9.83,0,0,1-8.08,4,10.66,10.66,0,0,1-4.61-.94,7.84,7.84,0,0,1-3.36-3.25v10.38m12-20.55a10.81,10.81,0,0,0-1.57-6.3,5.23,5.23,0,0,0-4.51-2.2,5.13,5.13,0,0,0-4.41,2.2q-1.47,2-1.47,6.3c0,2.65.53,4.65,1.58,6a5.21,5.21,0,0,0,4.51,2.2,5,5,0,0,0,4.3-2.2,10.19,10.19,0,0,0,1.57-6"/><path class="cls-4" d="M521.05,139.73h7.13a3.87,3.87,0,0,0,1.57,3.15,7.45,7.45,0,0,0,4.19,1.05,6.79,6.79,0,0,0,3.26-.74,2.22,2.22,0,0,0,1.25-2c0-1.26-1.46-2.2-4.4-2.83a20,20,0,0,1-2.83-.63q-5.57-1.37-7.45-3.25a6.45,6.45,0,0,1-2.1-5,8.34,8.34,0,0,1,3.05-6.6,13,13,0,0,1,8.18-2.41q5.45,0,8.7,2.41a9.2,9.2,0,0,1,3.25,6.81h-4.51a3.33,3.33,0,0,1-3-1.78l-.84-.84a5.64,5.64,0,0,0-3.46-.94,6.25,6.25,0,0,0-3.15.63,2.11,2.11,0,0,0-.94,1.88q0,1.68,5.45,2.84a10.87,10.87,0,0,0,1.11.31,4,4,0,0,0,.89.1c3.56.92,6,2,7.44,3.15a6.62,6.62,0,0,1,2,5,8.38,8.38,0,0,1-3.36,7.13c-2.1,1.54-5.24,2.3-9.44,2.3q-6,0-8.91-2.41a8.4,8.4,0,0,1-3-7v-.32"/></g></g></g><g id="technoteach"><path class="cls-5" d="M36.28,106.91c-4.75.29-22.42.22-28-.22S0,102.73,0,96.11V32.59H7.78a6.86,6.86,0,0,1,5,2.15,7.14,7.14,0,0,1,2.15,5.19v9.72h22v3A7,7,0,0,1,34.72,58,7.27,7.27,0,0,1,29.53,60H14.9V92c0,2.45,1.45,3.68,4.33,3.68H36.28v11.23"/><path class="cls-5" d="M77.21,89.19H88Q85.63,98.26,78.94,103q-6.7,5-16.86,5-12.31,0-19.23-8-6.91-7.78-6.91-22.26,0-13.81,6.7-21.6,6.9-8,19.22-8,13,0,20.1,7.78,6.92,8,6.92,22.26v2.37a3.69,3.69,0,0,1-.22,1.51H51.28q.21,6.7,3.24,9.94,2.81,3.47,8.43,3.46A12.22,12.22,0,0,0,69.21,94a3.13,3.13,0,0,0,1.19-.76c.36-.35.76-.75,1.19-1.19a4.65,4.65,0,0,1,1.62-1.72,6.39,6.39,0,0,1,4-1.09M51.28,72.34h22q-.43-5.84-3-8.65c-1.87-2-4.54-3-8-3a10.54,10.54,0,0,0-7.78,3Q51.49,66.74,51.28,72.34Z"/><path class="cls-5" d="M131.23,89.19H142Q139.64,98.26,133,103q-6.69,5-16.85,5-12.31,0-19.23-8Q90,92.22,90,77.74q0-13.81,6.7-21.6,6.91-8,19.23-8,13,0,20.1,7.78a29.83,29.83,0,0,1,5.62,11H126.47a12.82,12.82,0,0,0-2.16-3.25c-1.87-2-4.54-3-8-3a10.54,10.54,0,0,0-7.78,3Q104.64,68,104.65,78t3.89,14q2.8,3.47,8.42,3.46A12.23,12.23,0,0,0,123.23,94a3.13,3.13,0,0,0,1.19-.76c.36-.35.75-.75,1.19-1.19a9.13,9.13,0,0,1,1.73-1.72,5.88,5.88,0,0,1,3.89-1.09"/><path class="cls-5" d="M180.49,65.64a10.33,10.33,0,0,0-8.86-4.54,10.94,10.94,0,0,0-9.29,4.32q-3.24,4.33-3.24,11.89v29.6H144.4V32.59h7.35a7.36,7.36,0,0,1,7.35,7.34V57a17.15,17.15,0,0,1,11-8.21,22,22,0,0,1,13.61.86,24.41,24.41,0,0,1,10.16,8.22q4.1,5.61,4.1,15.55v33.49H183.51V77.09a30.42,30.42,0,0,0-.54-5.94,15.11,15.11,0,0,0-2.48-5.51"/><path class="cls-5" d="M250.71,106.91h-7.56a7,7,0,0,1-7.35-7.34V70.18q0-5.19-3.13-7.56a11.3,11.3,0,0,0-7-2.38,10.87,10.87,0,0,0-6.92,2.38c-2,1.58-3,4.1-3,7.56v36.73H200.58V73.2q0-14.69,7.67-19.66a33.55,33.55,0,0,1,17-5.4,32.59,32.59,0,0,1,17.51,5q8,5,8,20.09v33.71"/><path class="cls-5" d="M260.22,101.72a21.21,21.21,0,0,1-6.48-10.47,48.1,48.1,0,0,1-2-13.72,43.45,43.45,0,0,1,1.62-11.67,24,24,0,0,1,5.08-9.72A22.37,22.37,0,0,1,273,48.47a33.16,33.16,0,0,1,16,1.4,22,22,0,0,1,12.1,11.23,35.86,35.86,0,0,1,3.68,16.64,40.94,40.94,0,0,1-1.52,11.88,30.2,30.2,0,0,1-3.88,8.43,21.59,21.59,0,0,1-13.18,8.86,29.29,29.29,0,0,1-14.38.32,25,25,0,0,1-11.55-5.51m10.37-38q-4.54,5-4.11,14.81c.29,6.56,1.51,11.12,3.68,13.72a9.59,9.59,0,0,0,4.53,2.92,10.32,10.32,0,0,0,6.59.21,11,11,0,0,0,5.94-4.86Q289.81,86.61,290,78q0-7.78-2.48-11.67a11.19,11.19,0,0,0-5.73-5,10.55,10.55,0,0,0-6.48-.11A11.36,11.36,0,0,0,270.59,63.69Z"/><text class="cls-6" transform="translate(299.6 105.94)">tea<tspan class="cls-7" x="139.18" y="0">c</tspan><tspan x="188.69" y="0">h</tspan></text><g id="mortarboard"><path class="cls-4" d="M544.81,43.07l-.1-.14-7.94-11c-7.22,1.57-12.51,6.11-15.27,8.07-4.36,3.1.33,4.36.33,4.36s21.48-1.12,24,13c2.26,12.53,9.86.34,10.77-10.94Z"/><path class="cls-4" d="M550.24,36.12a2.18,2.18,0,0,1-1.39-2.76A2.18,2.18,0,0,1,551.61,32c.67.22,15.17,5.14,18.26,17.29l2.52.73L557.53,27.51l-27.65-6.78,15.54,21.48,19.29,5.57C561,39.76,550.76,36.29,550.24,36.12Z"/><path class="cls-3" d="M567.24,45.35S559.75,57,562.68,65.71C565.84,75.12,573.16,54.24,567.24,45.35Z"/><path class="cls-3" d="M569.43,52.81C568.58,38.76,552,33.15,551.3,32.92a1.22,1.22,0,0,0-.38-.07,1.25,1.25,0,0,0-.53.13,1.22,1.22,0,0,0-.59.69,1.18,1.18,0,0,0,.75,1.5c.65.22,15.75,5.34,16.5,17.79a1.19,1.19,0,0,0,1.19,1.11h.07A1.19,1.19,0,0,0,569.43,52.81Z"/></g></g></g></g></svg>