<svg xmlns="http://www.w3.org/2000/svg" viewBox="0 0 1040.3 197.7"><defs><style>.cls-1{fill:#e7cb1b;}.cls-2{fill:#fff;}</style></defs><g id="Layer_2" data-name="Layer 2"><g id="Layer_5" data-name="Layer 5"><rect width="1040.3" height="197.7"/><path class="cls-1" d="M79.9,142.7c-7.8.5-37,.4-46.2-.4S20,135.8,20,124.9V20H32.8A11.24,11.24,0,0,1,41,23.6a11.63,11.63,0,0,1,3.6,8.6V48.3H80.9v5A11.24,11.24,0,0,1,77.3,62a11.84,11.84,0,0,1-8.6,3.4H44.6v52.8c0,4,2.4,6.1,7.1,6.1H79.9v18.4"/><path class="cls-1" d="M147.5,113.5h17.8q-3.9,15-15,22.8c-7.4,5.5-16.7,8.2-27.8,8.2-13.6,0-24.1-4.4-31.7-13.2-7.6-8.6-11.4-20.8-11.4-36.7q0-22.8,11.1-35.7c7.6-8.8,18.2-13.2,31.7-13.2,14.3,0,25.3,4.3,33.2,12.8,7.6,8.8,11.4,21,11.4,36.7v3.9a5.14,5.14,0,0,1-.4,2.5H104.7c.2,7.4,2,12.8,5.3,16.4,3.1,3.8,7.7,5.7,13.9,5.7a19.66,19.66,0,0,0,10.3-2.5,4.93,4.93,0,0,0,2-1.3c.6-.6,1.3-1.2,2-2,.2-.7,1.1-1.7,2.7-2.9q2.25-1.5,6.6-1.5M104.7,85.6H141c-.5-6.4-2.1-11.2-5-14.3-3.1-3.3-7.5-5-13.2-5a17.41,17.41,0,0,0-12.8,5C106.7,74.7,104.9,79.5,104.7,85.6Z"/><path class="cls-1" d="M236.6,113.5h17.8q-3.9,15-15,22.8c-7.4,5.5-16.6,8.2-27.8,8.2-13.6,0-24.1-4.4-31.7-13.2-7.6-8.6-11.4-20.8-11.4-36.7q0-22.8,11.1-35.7c7.6-8.8,18.2-13.2,31.7-13.2,14.3,0,25.3,4.3,33.2,12.8a48.37,48.37,0,0,1,9.3,18.2h-25a20.94,20.94,0,0,0-3.6-5.4c-3.1-3.3-7.5-5-13.2-5a17.41,17.41,0,0,0-12.8,5c-4.3,4.8-6.4,12.6-6.4,23.5s2.1,18.7,6.4,23.2c3.1,3.8,7.7,5.7,13.9,5.7a19.66,19.66,0,0,0,10.3-2.5,4.93,4.93,0,0,0,2-1.3l2-2a15.33,15.33,0,0,1,2.9-2.9q2.1-1.5,6.3-1.5"/><path class="cls-1" d="M318,74.6a17,17,0,0,0-14.6-7.5c-6.7,0-11.8,2.4-15.3,7.1s-5.3,11.3-5.3,19.6v48.9H258.5V20h12.1a11.79,11.79,0,0,1,8.6,3.6,11.63,11.63,0,0,1,3.6,8.6V60.4A28.26,28.26,0,0,1,301,46.9a36.71,36.71,0,0,1,22.5,1.4,40.79,40.79,0,0,1,16.8,13.6c4.5,6.2,6.8,14.7,6.8,25.7v55.3H323V93.5a49.53,49.53,0,0,0-.9-9.8,25.21,25.21,0,0,0-4.1-9.1"/><path class="cls-1" d="M433.9,142.7H421.4a11.45,11.45,0,0,1-8.7-3.4,11.76,11.76,0,0,1-3.4-8.7V82.1c0-5.7-1.7-9.9-5.2-12.5a18.87,18.87,0,0,0-11.6-3.9,17.9,17.9,0,0,0-11.4,3.9c-3.3,2.6-5,6.8-5,12.5v60.6h-25V87.1c0-16.2,4.2-27,12.7-32.5a55.18,55.18,0,0,1,28-8.9,53.35,53.35,0,0,1,28.9,8.2c8.8,5.5,13.2,16.5,13.2,33.2v55.6"/><path class="cls-1" d="M449.6,134.1a34.81,34.81,0,0,1-10.7-17.3,80.86,80.86,0,0,1-3.2-22.7,71.89,71.89,0,0,1,2.7-19.3,40.51,40.51,0,0,1,8.4-16.1A37.36,37.36,0,0,1,470.7,46c9.7-1.3,18.5-.5,26.4,2.3a37,37,0,0,1,20,18.5c4,7.9,6.1,17,6.1,27.5a66.24,66.24,0,0,1-2.5,19.6,51.19,51.19,0,0,1-6.4,13.9c-5.7,7.8-13,12.7-21.8,14.6a48.77,48.77,0,0,1-23.7.5c-8.1-1.4-14.4-4.5-19.2-8.8m17.1-62.7c-5,5.5-7.3,13.6-6.8,24.4s2.5,18.4,6.1,22.7q2.1,2.85,7.5,4.8a17.66,17.66,0,0,0,10.9.4c3.7-1.1,7-3.7,9.8-8s4.4-11.2,4.6-20.7c0-8.6-1.4-15-4.1-19.3s-5.9-7-9.5-8.2a17,17,0,0,0-10.7-.2A17.84,17.84,0,0,0,466.7,71.4Z"/><path class="cls-2" d="M593,113.5h17.8q-3.9,15-15,22.8c-7.4,5.5-16.7,8.2-27.8,8.2-13.6,0-24.1-4.4-31.7-13.2-7.6-8.6-11.4-20.8-11.4-36.7q0-22.8,11.1-35.7c7.6-8.8,18.2-13.2,31.7-13.2,14.3,0,25.3,4.3,33.2,12.8a48.37,48.37,0,0,1,9.3,18.2h-25a20.94,20.94,0,0,0-3.6-5.4c-3.1-3.3-7.5-5-13.2-5a17.41,17.41,0,0,0-12.8,5c-4.3,4.8-6.4,12.6-6.4,23.5s2.1,18.7,6.4,23.2c3.1,3.8,7.7,5.7,13.9,5.7a19.66,19.66,0,0,0,10.3-2.5,4.93,4.93,0,0,0,2-1.3l2-2a17.5,17.5,0,0,1,2.8-2.9c1.4-1,3.6-1.5,6.4-1.5"/><path class="cls-2" d="M675.4,138.8a44.43,44.43,0,0,1-15.9,4.8,140.39,140.39,0,0,1-14.8.9,37,37,0,0,1-22.5-7c-6.4-4.6-9.6-12.3-9.6-23,0-10,2.9-17.1,8.7-21.4s13.3-7.1,22.3-8.6a25.83,25.83,0,0,0,4.3-.5,42.66,42.66,0,0,1,5.7-.9c10.5-1.4,15.7-4.5,15.7-9.3,0-3.6-1.8-5.9-5.5-7a35.84,35.84,0,0,0-10.2-1.6,27.25,27.25,0,0,0-8.9,1.4A9.76,9.76,0,0,0,639,72H615.1a27.77,27.77,0,0,1,10-18.2c6.4-5.5,15.6-8.2,27.5-8.2,13.3,0,23.3,2.3,30,6.8,6.9,4.8,10.3,11.4,10.3,20v32.5c0,9.5-1.7,16.9-5.2,22.3a31.55,31.55,0,0,1-12.3,11.6m-5.7-43.9a64.12,64.12,0,0,1-13.9,4.6l-8.2,1.8c-4.3,1.2-7.4,2.7-9.3,4.6a14.15,14.15,0,0,0-2.5,7.9,11.86,11.86,0,0,0,3.2,8.6c2.1,1.9,5.2,2.9,9.3,2.9,6.7,0,11.9-1.9,15.7-5.7s5.7-9,5.7-15.7Z"/><path class="cls-2" d="M779.2,142.7H754.6V82.1c0-5.7-1.7-9.9-5.2-12.5a18.66,18.66,0,0,0-11.6-3.9,17.9,17.9,0,0,0-11.4,3.9c-3.3,2.6-5,6.8-5,12.5v60.6h-25V87.1c0-16.2,4.2-27,12.7-32.5a55.18,55.18,0,0,1,28-8.9,72.24,72.24,0,0,1,16.1,1.8,35,35,0,0,1,14.3,7.1A31.49,31.49,0,0,1,780.2,48a68.86,68.86,0,0,1,15.2-2.3,53.35,53.35,0,0,1,28.9,8.2c8.8,5.5,13.2,16.5,13.2,33.2v55.7H825a11.45,11.45,0,0,1-8.7-3.4,11.76,11.76,0,0,1-3.4-8.7V82.1c0-5.7-1.7-9.9-5.2-12.5a18.66,18.66,0,0,0-11.6-3.9,18.87,18.87,0,0,0-11.6,3.9c-3.4,2.6-5.2,6.8-5.2,12.5v60.6"/><path class="cls-2" d="M868.4,165.5a11.79,11.79,0,0,1-3.6,8.6,11.63,11.63,0,0,1-8.6,3.6H844.1V88.8c0-16.6,4.9-28,14.6-34.1a58.53,58.53,0,0,1,31.8-9.1,50.7,50.7,0,0,1,18,3.4c6.1,2.3,10.9,5.5,14.4,9.8,7.1,9.3,10.7,21.2,10.7,35.7,0,15-3.6,27.1-10.7,36.4-7.1,9-16.3,13.5-27.5,13.5a37,37,0,0,1-15.7-3.2,26.5,26.5,0,0,1-11.4-11.1v35.4m40.8-69.9c0-9.3-1.8-16.4-5.3-21.4s-8.7-7.5-15.3-7.5a17.45,17.45,0,0,0-15,7.5c-3.3,4.5-5,11.7-5,21.4,0,9,1.8,15.8,5.3,20.3q5.4,7.5,15.3,7.5a16.87,16.87,0,0,0,14.6-7.5C907.3,111,909.1,104.2,909.1,95.6Z"/><path class="cls-2" d="M935.8,111.3h24.3c.2,4.8,2,8.3,5.4,10.7,3.6,2.4,8.3,3.6,14.3,3.6a22.75,22.75,0,0,0,11.1-2.5c2.9-1.7,4.3-3.9,4.3-6.8q0-6.45-15-9.6a66.72,66.72,0,0,1-9.6-2.1c-12.6-3.1-21-6.8-25.3-11.1-4.8-4.3-7.1-10-7.1-17.1a28.54,28.54,0,0,1,10.3-22.5c7.1-5.5,16.4-8.2,27.8-8.2,12.4,0,22.2,2.7,29.6,8.2,6.9,5.9,10.6,13.7,11.1,23.2h-15.3A11.15,11.15,0,0,1,991.4,71c-1-1-1.9-1.9-2.8-2.9-2.9-2.1-6.8-3.2-11.8-3.2-4.8,0-8.3.7-10.7,2.1a7.28,7.28,0,0,0-3.2,6.4c0,3.8,6.2,7,18.5,9.6,1.4.5,2.7.8,3.8,1.1a17.75,17.75,0,0,0,3,.4c12.1,3.1,20.6,6.7,25.3,10.7,4.5,4.3,6.8,10,6.8,17.1q0,15.75-11.4,24.3-10.65,7.8-32.1,7.8c-13.6,0-23.7-2.7-30.3-8.2-6.9-5.5-10.3-13.4-10.3-23.9v-1"/></g></g></svg>