<svg xmlns="http://www.w3.org/2000/svg" viewBox="0 0 1040.3 197.7"><defs><style>.cls-1{fill:#fff;}.cls-2{fill:#e7cb1b;}.cls-3{fill:none;}.cls-4{fill:#4a4947;}</style></defs><g id="Layer_2" data-name="Layer 2"><g id="Layer_4" data-name="Layer 4"><rect class="cls-1" width="1040.3" height="197.7"/><path class="cls-2" d="M74.67,124.16H51.74c-3.56,0-5.79-1.13-6.69-3.41a7.39,7.39,0,0,1-.44-2.65h0V65.3H68.76c.37,0,.74,0,1.1,0l.39-.05.67-.08.47-.09.52-.12.54-.14.19-.07a9.92,9.92,0,0,0,1.4-.55.52.52,0,0,0,.13-.06c.24-.11.47-.24.71-.37l.14-.08c.23-.14.47-.29.7-.45h0c.28-.19.54-.39.81-.6a10,10,0,0,0,.79-.69c.27-.26.52-.53.77-.8l.26-.33.4-.51.3-.45.26-.42c.1-.18.21-.36.3-.55l.15-.31a11.89,11.89,0,0,0,1-3.63c0-.24.06-.49.08-.74s0-.65,0-1h0v-5H44.61v-16a11.73,11.73,0,0,0-1.4-5.69,11.88,11.88,0,0,0-1.33-2,12,12,0,0,0-.84-.92A11.28,11.28,0,0,0,32.84,20H20V124.87a30.35,30.35,0,0,0,.48,5.62,20.25,20.25,0,0,0,.86,3.14,14.58,14.58,0,0,0,1.29,2.66,12.36,12.36,0,0,0,1.71,2.19c.33.32.67.63,1,.91a12.4,12.4,0,0,0,2.37,1.47,17.12,17.12,0,0,0,6,1.49l1,.07.38,0,.8.05.46,0,.86,0,.49,0,1,0,.47,0,1.52.06h.13l1.51,0,.58,0,1.13,0,.69,0,1.12,0h.69l1.25,0h.61l1.89,0h.07l1.87,0h.6l1.37,0H70.69l1.3,0h.44l.85,0h.48l.74,0H75l.91,0h.24l1,0h.34l.61,0,.34,0,.56,0h.27l.67,0h.05V124.16Z"/><path class="cls-2" d="M158.23,128.55c.31-.42.62-.84.91-1.27s.61-.9.89-1.37.43-.7.64-1.06c.7-1.22,1.37-2.49,2-3.82.19-.43.37-.88.56-1.33.31-.76.62-1.54.9-2.34l.26-.78c.34-1,.66-2,.94-3.12H147.46a10.58,10.58,0,0,0-6.6,1.79,7.78,7.78,0,0,0-2.67,2.85l-2,2a5,5,0,0,1-2,1.26,20.29,20.29,0,0,1-10.35,2.49q-9.27,0-13.91-5.7-5-5.35-5.35-16.42h61.71a6,6,0,0,0,.36-2.49V95.27c0-1.13,0-2.23-.06-3.32,0-.34,0-.67,0-1,0-.76-.08-1.52-.14-2.27,0-.35,0-.71-.08-1.06q-.1-1.14-.24-2.25c0-.28-.06-.57-.1-.85-.13-1-.28-2-.45-3h0c-.17-1-.36-1.93-.58-2.86-.05-.26-.12-.51-.18-.76-.16-.69-.34-1.38-.53-2.06-.07-.27-.15-.53-.23-.8q-.32-1-.66-2.07c-.07-.19-.13-.39-.19-.58-.32-.88-.65-1.74-1-2.59h0c-.4-1-.84-1.87-1.29-2.77l-.29-.58a42.29,42.29,0,0,0-3.11-5.06l-.42-.58c-.58-.78-1.17-1.54-1.8-2.27q-11.79-12.84-33.19-12.84-20.32,0-31.74,13.2l-.3.37a42.89,42.89,0,0,0-8.18,15.62c0,.1,0,.2-.08.3-.24.82-.46,1.65-.66,2.5,0,.15-.07.3-.11.45-.21.92-.41,1.86-.58,2.82,0,0,0,0,0,.07-.18,1-.33,2-.47,3.08,0,.15,0,.32-.06.48-.1.83-.19,1.68-.27,2.54,0,.31,0,.62-.07.93-.06.76-.11,1.53-.15,2.32,0,.31,0,.62,0,.93,0,1.07-.06,2.16-.06,3.26s0,1.89,0,2.82c0,.4,0,.79.05,1.19s0,1,.07,1.51.07,1,.11,1.53l.09,1.06c0,.59.12,1.16.18,1.73l.09.77c.08.63.17,1.25.26,1.86l.09.53c.1.67.22,1.33.35,2l.06.33c.14.69.28,1.38.44,2.05,0,0,0,.1,0,.15.17.72.35,1.42.54,2.11h0a43.08,43.08,0,0,0,8.15,16.13h0c.28.34.56.68.85,1q11.4,13.19,31.75,13.19,16.75,0,27.82-8.2c.82-.58,1.6-1.2,2.36-1.84.24-.2.48-.42.71-.63.52-.46,1-.94,1.51-1.42.25-.25.5-.49.74-.74.62-.67,1.22-1.35,1.8-2.06C157.71,129.26,158,128.9,158.23,128.55ZM110,71.36a17.42,17.42,0,0,1,12.84-5q8.57,0,13.2,5c2.86,3.1,4.51,7.85,5,14.27H104.66Q105,76.36,110,71.36Z"/><path class="cls-2" d="M248.4,127.17c.28-.41.54-.82.8-1.24s.68-1.11,1-1.68c.23-.41.45-.83.67-1.25.37-.73.73-1.46,1.07-2.22l.33-.81c.38-.9.75-1.82,1.07-2.77,0-.12.08-.25.13-.38.36-1.09.7-2.2,1-3.36H236.65c-2.86,0-5,.59-6.43,1.79a15.47,15.47,0,0,0-2.85,2.85l-2,2a6,6,0,0,1-.46.42,4.8,4.8,0,0,1-1.51.84,17.12,17.12,0,0,1-3.46,1.52,22.78,22.78,0,0,1-6.88,1,24.83,24.83,0,0,1-4.34-.36c-.68-.12-1.33-.27-2-.44a15.88,15.88,0,0,1-3.48-1.43,14.34,14.34,0,0,1-4.13-3.47q-6.42-6.78-6.42-23.19t6.42-23.55a16.4,16.4,0,0,1,5.71-3.74,17.64,17.64,0,0,1,3.39-.94,21.57,21.57,0,0,1,3.75-.31,24.68,24.68,0,0,1,4,.31,18.36,18.36,0,0,1,3.54.94,15.72,15.72,0,0,1,3.06,1.56,14.35,14.35,0,0,1,2.56,2.18,21.35,21.35,0,0,1,3.57,5.35h25c-.29-1-.62-2.06-1-3.07-.08-.24-.17-.48-.26-.72-.3-.84-.62-1.66-1-2.48-.06-.15-.12-.31-.19-.47a49,49,0,0,0-3-5.86c-.54-.9-1.11-1.77-1.7-2.63l-.27-.39c-.62-.88-1.26-1.74-1.94-2.57a37.83,37.83,0,0,0-18.47-11,52.09,52.09,0,0,0-7-1.36c-.82-.1-1.65-.18-2.49-.25-1.69-.13-3.42-.2-5.2-.2s-3.35.07-4.95.21Q193.16,47,184.16,54.4a36.59,36.59,0,0,0-4.59,4.48c-.61.71-1.19,1.45-1.75,2.2l-.4.56c-.55.76-1.07,1.53-1.57,2.34h0c-.51.83-1,1.69-1.44,2.57l-.27.52c-.44.88-.86,1.77-1.25,2.7s-.68,1.69-1,2.56c-.05.14-.09.29-.14.43-.24.7-.47,1.42-.69,2.15-.06.23-.13.47-.2.7-.19.68-.37,1.38-.53,2.08l-.17.68c-.2.92-.39,1.84-.56,2.79h0c-.17,1-.32,1.95-.45,2.95,0,.25-.06.52-.09.78-.09.73-.17,1.48-.24,2.23,0,.34-.05.67-.08,1-.05.73-.1,1.48-.13,2.22,0,.32,0,.64-.05,1,0,1.06-.06,2.13-.06,3.22s0,2.35.07,3.49c0,.32,0,.63,0,.95,0,.86.1,1.71.16,2.55,0,.29.05.59.07.87.21,2.26.49,4.43.87,6.51,0,.08,0,.16.05.24.19,1,.39,2,.62,2.91,0,.1.05.2.07.3a51.07,51.07,0,0,0,2.94,8.7h0a42.59,42.59,0,0,0,2.89,5.39l.12.18c.45.7.93,1.39,1.43,2.06l.37.5c.55.72,1.12,1.42,1.72,2.1q11.41,13.19,31.74,13.19a52.73,52.73,0,0,0,17.06-2.59,39.4,39.4,0,0,0,10.77-5.61l0,0c.87-.62,1.71-1.28,2.52-2s1.39-1.26,2.05-1.93l.26-.24A37.2,37.2,0,0,0,248.4,127.17Z"/><path class="cls-2" d="M341.15,142.71h5.72V87.42h0c0-1.2,0-2.35-.09-3.49,0-.38,0-.75-.07-1.13,0-.76-.11-1.51-.19-2.25,0-.41-.07-.82-.12-1.22-.11-.91-.25-1.79-.4-2.65-.11-.61-.23-1.2-.36-1.79-.06-.3-.13-.59-.2-.89a37.61,37.61,0,0,0-2-6.13c-.32-.76-.67-1.49-1-2.21-.18-.36-.36-.73-.56-1.08s-.33-.56-.49-.84c-.42-.68-.84-1.36-1.3-2h0a44.71,44.71,0,0,0-5.54-6.26c-.67-.61-1.35-1.2-2.05-1.77a38.87,38.87,0,0,0-9.18-5.53h0c-.8-.32-1.61-.6-2.42-.86l-.45-.15q-1.18-.36-2.37-.63l-.46-.1c-.82-.18-1.65-.34-2.48-.46h0c-.83-.13-1.67-.21-2.51-.27l-.47,0q-1.19-.06-2.4-.06l-.81,0c-.61,0-1.22.05-1.83.1-.31,0-.61,0-.92.09-.61.06-1.23.14-1.85.24l-.83.12c-.89.16-1.78.34-2.68.55a30.78,30.78,0,0,0-5.55,1.92A27.42,27.42,0,0,0,292.78,50a29,29,0,0,0-10.11,10.3V32.13a11.65,11.65,0,0,0-2-6.69,13,13,0,0,0-1.57-1.88,11.71,11.71,0,0,0-6.15-3.34,11.54,11.54,0,0,0-1.18-.16q-.6-.06-1.23-.06H258.4V142.71h24.27V93.84q0-12.48,5.35-19.62t15.33-7.14h0c.77,0,1.53,0,2.26.11.37,0,.73.09,1.09.15a17.9,17.9,0,0,1,2.08.46,16.28,16.28,0,0,1,2,.7A16.66,16.66,0,0,1,318,74.57q.81,1.17,1.47,2.31a25.2,25.2,0,0,1,2.05,4.55,21.18,21.18,0,0,1,.59,2.24,47,47,0,0,1,.67,4.68c.14,1.64.22,3.35.22,5.13h0v49.23Z"/><path class="cls-2" d="M433.86,84c0-.61-.06-1.2-.09-1.79,0-.37,0-.74-.06-1.1-.06-.8-.13-1.57-.21-2.33,0-.14,0-.29,0-.44-.1-.87-.22-1.72-.35-2.55a.25.25,0,0,0,0-.08,44.75,44.75,0,0,0-2.42-9.27h0a28.87,28.87,0,0,0-4.13-7.34v0c-.39-.49-.8-1-1.21-1.4l-.09-.11c-.39-.41-.8-.8-1.21-1.18l-.2-.19c-.4-.36-.82-.7-1.25-1a2.52,2.52,0,0,1-.25-.21c-.52-.38-1-.74-1.59-1.08l0,0a56.57,56.57,0,0,0-5-2.78,51.64,51.64,0,0,0-5.22-2.21c-1.18-.43-2.37-.82-3.57-1.16a55.22,55.22,0,0,0-15.07-2,59.49,59.49,0,0,0-7.51.83c-1.22.21-2.43.47-3.62.76a52.86,52.86,0,0,0-5.29,1.59A54.61,54.61,0,0,0,370.31,51c-1.11.53-2.2,1.09-3.29,1.7s-2.15,1.25-3.2,1.93c-.54.35-1.07.73-1.58,1.12l-.32.28c-.39.32-.79.64-1.16,1l-.27.27c-.38.37-.76.75-1.11,1.14-.07.07-.13.15-.19.22-.38.43-.75.88-1.1,1.34l-.1.15q-.57.75-1.08,1.56l0,.07c-.36.57-.7,1.16-1,1.77h0a31.3,31.3,0,0,0-1.79,4.06,40.18,40.18,0,0,0-1.26,4.18v0c-.18.72-.34,1.46-.49,2.22,0,0,0,.1,0,.14-.14.73-.27,1.46-.38,2.21,0,.12,0,.25-.05.37-.1.69-.19,1.39-.27,2.11l-.06.71c-.06.62-.12,1.25-.17,1.89,0,.42,0,.86-.07,1.29s0,1-.07,1.45c0,.94-.05,1.91-.05,2.89v55.65h25V82.07q0-8.56,5-12.49a18.08,18.08,0,0,1,5.36-2.94c.47-.16.95-.31,1.45-.43a18.78,18.78,0,0,1,3-.49c.52,0,1.05-.06,1.58-.06s1.07,0,1.59.06a18.85,18.85,0,0,1,5.07,1.13,17.15,17.15,0,0,1,1.6.69,20.13,20.13,0,0,1,2,1.12c.45.29.89.6,1.32.92a12.35,12.35,0,0,1,2.26,2.25q2.89,3.81,2.9,10.24v48.51a14,14,0,0,0,.48,3.74,11.48,11.48,0,0,0,4.73,6.48,12.37,12.37,0,0,0,6.93,1.91h12.48V87.06C433.91,86,433.9,85,433.86,84Z"/><path class="cls-2" d="M522.92,89.74c0-.79-.1-1.57-.18-2.35,0-.46-.1-.91-.15-1.36-.08-.69-.17-1.38-.27-2.06-.07-.47-.15-.94-.23-1.4-.11-.65-.23-1.3-.37-1.93-.09-.47-.19-.93-.29-1.38-.15-.63-.31-1.25-.48-1.87-.11-.44-.23-.88-.35-1.31-.2-.65-.41-1.29-.62-1.93-.13-.37-.24-.76-.38-1.13-.35-1-.73-1.93-1.13-2.87h0c-.45-1-.93-2.06-1.45-3.06a36.33,36.33,0,0,0-20-18.54q-11.78-4.29-26.4-2.32a37,37,0,0,0-23.9,12.66c-.51.58-1,1.17-1.47,1.79l-.23.3c-.4.54-.8,1.09-1.18,1.66l-.12.18c-.41.63-.81,1.27-1.19,1.94l0,0c-.4.71-.79,1.43-1.15,2.18h0a45.57,45.57,0,0,0-3,8,71.55,71.55,0,0,0-2.68,19.27,79.24,79.24,0,0,0,3.22,22.65,38.78,38.78,0,0,0,5,10.85h0c.4.59.81,1.16,1.24,1.72a.76.76,0,0,1,.11.14c.4.51.8,1,1.23,1.48.15.17.3.34.46.5.33.37.66.73,1,1.07.53.53,1.08,1,1.65,1.53q7.13,6.44,19.08,9.1a48.51,48.51,0,0,0,23.73-.53q13.18-2.85,21.75-14.63c.38-.55.75-1.13,1.11-1.71l.3-.51c.26-.45.52-.9.78-1.37.09-.18.19-.36.29-.54.28-.53.55-1.08.82-1.64l.15-.32c.33-.7.65-1.42,1-2.17h0c.33-.8.64-1.62.94-2.46.07-.19.14-.37.2-.56.31-.86.6-1.73.87-2.63a68,68,0,0,0,2.5-19.62c0-1.23,0-2.43-.09-3.63C523,90.52,523,90.14,522.92,89.74ZM466,118.45Q460.65,112,460,95.8t6.77-24.44a18.87,18.87,0,0,1,7.86-4.1,17.25,17.25,0,0,1,10.7.19c3.57,1.18,6.71,3.91,9.45,8.19s4.1,10.71,4.1,19.27q-.36,14.28-4.64,20.69t-9.8,8a17.12,17.12,0,0,1-10.89-.35Q468.16,121.32,466,118.45Z"/><path class="cls-1" d="M593,113.46l-1,0a14.71,14.71,0,0,0-1.87.23,7.57,7.57,0,0,0-3.51,1.54,15.14,15.14,0,0,0-2.85,2.85l-2,2a5.57,5.57,0,0,1-.94.77,4.55,4.55,0,0,1-1,.49,17.12,17.12,0,0,1-3.46,1.52,22.9,22.9,0,0,1-6.89,1c-.77,0-1.52,0-2.24-.09s-1.43-.15-2.11-.27-1.33-.27-2-.44a15.88,15.88,0,0,1-3.48-1.43,14.21,14.21,0,0,1-4.13-3.47q-6.42-6.78-6.42-23.19t6.42-23.55a17.42,17.42,0,0,1,12.84-5c5.71,0,10.1,1.67,13.21,5a21.63,21.63,0,0,1,3.56,5.35h25c-.25-.91-.53-1.8-.82-2.67l-.13-.36c-.26-.77-.54-1.54-.83-2.29l-.07-.15A50.34,50.34,0,0,0,606,66.36h0q-1.1-2.07-2.38-4l-.24-.34c-.35-.53-.71-1.06-1.09-1.57s-1-1.28-1.47-1.9q-11.76-12.84-33.17-12.84-20.34,0-31.75,13.2c-.62.72-1.21,1.48-1.78,2.25-.13.18-.27.36-.4.55-.56.79-1.1,1.59-1.61,2.42h0c-.51.84-1,1.71-1.44,2.6l-.27.54c-.45.91-.89,1.83-1.28,2.79h0c-.33.8-.64,1.61-.93,2.44l-.21.63c-.21.64-.42,1.29-.61,2l-.21.75c-.19.68-.37,1.37-.53,2.07,0,.21-.11.42-.15.64q-.32,1.38-.57,2.82h0c-.16.94-.3,1.89-.43,2.86,0,.29-.06.58-.1.87-.08.7-.15,1.41-.22,2.13,0,.34-.06.68-.08,1-.05.72-.1,1.44-.13,2.17,0,.33,0,.64-.05,1,0,1-.06,2.11-.06,3.19s0,2.25.06,3.34c0,.33,0,.66.05,1,0,.77.08,1.53.14,2.28,0,.36,0,.7.08,1,.07.76.14,1.5.23,2.24,0,.29.06.58.1.87.13,1,.27,2,.43,2.93v0c.17,1,.37,2,.59,3,0,.15.07.29.1.44.19.8.39,1.59.6,2.36l.18.63c.21.73.44,1.44.67,2.15l.18.52c.3.86.61,1.7,1,2.52h0c.42,1,.88,2,1.36,3,.07.15.15.29.22.44.48.93,1,1.84,1.53,2.71h0c.53.86,1.1,1.69,1.69,2.49l.39.53c.6.79,1.21,1.56,1.86,2.29Q547.7,144.49,568,144.49a52.75,52.75,0,0,0,17.05-2.59,39.4,39.4,0,0,0,10.77-5.61h0c.85-.6,1.66-1.24,2.45-1.91.56-.48,1.1-1,1.63-1.51l.55-.52c.66-.67,1.3-1.37,1.9-2.09a.27.27,0,0,0,.07-.08c.64-.76,1.25-1.55,1.83-2.36h0c.7-1,1.35-2,2-3.06a1.4,1.4,0,0,0,.1-.16c.3-.53.6-1.07.88-1.62s.64-1.27.93-1.93c.18-.39.34-.78.51-1.17.34-.84.68-1.69,1-2.57.07-.2.13-.41.2-.62.35-1.05.68-2.12,1-3.22H593Z"/><path class="cls-1" d="M692.81,70.36c0-.3,0-.59-.07-.88s-.06-.48-.09-.71,0-.46-.09-.68-.09-.54-.14-.8-.07-.36-.1-.54-.13-.58-.2-.87c0-.14-.08-.28-.11-.42l-.27-.92-.1-.31c-.11-.33-.22-.65-.35-1,0-.07,0-.13-.07-.19-.14-.35-.28-.7-.44-1s-.43-.9-.66-1.34a1,1,0,0,1-.08-.14c-.22-.39-.44-.77-.68-1.14l-.15-.23c-.22-.34-.45-.67-.69-1l-.21-.28c-.23-.31-.47-.6-.72-.9l-.27-.32-.74-.81-.33-.33c-.25-.26-.52-.51-.79-.75l-.36-.34-.88-.73-.36-.29c-.42-.33-.86-.66-1.32-1q-10-6.76-30-6.78-17.85,0-27.47,8.2c-.62.52-1.2,1.06-1.77,1.61l-.54.55c-.38.39-.75.8-1.11,1.21s-.53.62-.79,1-.6.77-.89,1.17-.52.77-.77,1.16l-.3.49a27.06,27.06,0,0,0-2.2,4.53,29.87,29.87,0,0,0-1.62,6.53H639a9.73,9.73,0,0,1,5.71-5.35,26,26,0,0,1,8.92-1.43,36.28,36.28,0,0,1,10.16,1.61q5.52,1.61,5.53,7,0,7.14-15.69,9.27a57.46,57.46,0,0,0-5.71.9,21.47,21.47,0,0,1-4.29.53q-13.54,2.14-22.29,8.56c-.39.29-.77.6-1.15.92l-.31.29c-.26.24-.52.47-.77.72l-.32.34c-.23.25-.47.51-.69.77l-.27.34q-.36.44-.69.9l-.19.27c-.26.39-.51.78-.75,1.18l-.05.07a23.08,23.08,0,0,0-2,4.54h0a36,36,0,0,0-1.55,11.07,34.81,34.81,0,0,0,2.73,14.5c.2.44.41.86.63,1.27v0c.22.41.44.8.68,1.18,0,0,0,.05,0,.08.23.36.46.72.71,1.06l.1.15c.23.32.47.63.71.94l.2.23c.22.27.45.54.69.8l.33.34c.21.21.41.43.63.64l.54.48.5.44c.36.3.74.59,1.12.87a37.33,37.33,0,0,0,22.48,7,143.37,143.37,0,0,0,14.81-.89,44,44,0,0,0,15.87-4.81c.56-.28,1.11-.59,1.65-.91.19-.11.37-.23.55-.35.36-.22.71-.44,1-.68l.65-.47c.3-.22.6-.44.89-.68l.68-.56.8-.71.69-.65.74-.74c.23-.24.46-.48.68-.73s.47-.52.69-.79.45-.52.67-.79.45-.57.67-.86.43-.55.64-.84c.42-.59.84-1.2,1.25-1.84q5.16-8,5.18-22.29V72.43c0-.5,0-1,0-1.5C692.84,70.74,692.82,70.55,692.81,70.36Zm-23.1,33.47q0,10-5.72,15.69t-15.69,5.72q-6.07,0-9.28-2.86a11.58,11.58,0,0,1-3.21-8.56,14.49,14.49,0,0,1,2.5-7.85c1.9-1.9,5-3.45,9.27-4.64l8.21-1.78a67.54,67.54,0,0,0,13.92-4.64Z"/><path class="cls-1" d="M837.36,142.71V87.06c0-.91,0-1.79-.05-2.66,0-.27,0-.54,0-.8,0-.68-.07-1.34-.11-2l-.09-1.24c0-.48-.09-1-.14-1.43s-.09-.89-.15-1.32l-.09-.7c-.14-1-.29-1.92-.46-2.84l0-.15c-.11-.55-.22-1.08-.34-1.61h0c-.23-1-.5-2-.8-3l0-.13c-.15-.47-.3-.94-.46-1.39a1.07,1.07,0,0,0-.07-.19c-.28-.8-.59-1.58-.91-2.32l-.18-.42c-.17-.36-.33-.71-.51-1.05s-.2-.39-.3-.58q-.39-.74-.81-1.44c-.15-.24-.3-.49-.46-.73s-.31-.48-.47-.71-.45-.62-.68-.92-.34-.45-.52-.66-.55-.65-.83-1l-.42-.44c-.35-.37-.72-.73-1.09-1.07l-.18-.15c-.4-.35-.81-.69-1.23-1l-.36-.27c-.46-.34-.93-.66-1.41-1a53.78,53.78,0,0,0-28.89-8.2c-1.46.07-2.89.18-4.32.33a70.09,70.09,0,0,0-8.75,1.49c-.7.16-1.4.31-2.1.5a34.22,34.22,0,0,0-4.51,1.56c-.79.33-1.56.68-2.31,1.07a30.91,30.91,0,0,0-3,1.82,30.58,30.58,0,0,0-2.8,2.15h0a35.39,35.39,0,0,0-5-3.51,33.17,33.17,0,0,0-9.25-3.62,70.91,70.91,0,0,0-7.95-1.34,72.67,72.67,0,0,0-8.11-.45,57.63,57.63,0,0,0-12.91,2.06c-1.18.34-2.35.71-3.5,1.12s-2.29.86-3.42,1.35a54.41,54.41,0,0,0-5,2.46c-1.09.6-2.16,1.25-3.21,1.93-.47.3-.92.63-1.36,1l-.42.34c-.3.24-.6.49-.89.75L706,57c-.37.35-.73.71-1.07,1.08-.19.2-.36.4-.53.61s-.36.4-.53.62-.4.5-.59.76l-.36.5c-.46.66-.91,1.34-1.33,2.07h0a32.46,32.46,0,0,0-2.2,4.75l-.12.34c-.26.73-.5,1.49-.73,2.26l-.13.46c-.24.88-.47,1.78-.66,2.71l0,0c-.2,1-.38,2-.54,3,0,.17,0,.36-.07.54-.11.82-.21,1.65-.3,2.51l-.09,1c-.06.77-.12,1.57-.16,2.37,0,.33,0,.65-.05,1,0,1.12-.07,2.25-.07,3.43v55.65h25V82.07c0-.72,0-1.41.08-2.07a19.56,19.56,0,0,1,.62-3.7,15,15,0,0,1,.71-2,13.17,13.17,0,0,1,.95-1.79,11.82,11.82,0,0,1,1.89-2.27c.24-.22.49-.43.75-.64A19.72,19.72,0,0,1,729,67.86a17.82,17.82,0,0,1,2.76-1.22,18.07,18.07,0,0,1,2.94-.74,19.91,19.91,0,0,1,3.12-.24,20.27,20.27,0,0,1,3.14.24,18.45,18.45,0,0,1,5.79,2c.46.25.91.52,1.35.8s.88.6,1.31.92a12,12,0,0,1,3.88,5.08,19.14,19.14,0,0,1,1.3,7.41v60.64h24.61V82.07q0-1.08.09-2.07a19.19,19.19,0,0,1,.24-1.93,15.93,15.93,0,0,1,1-3.41,12.24,12.24,0,0,1,2.3-3.61,13.38,13.38,0,0,1,1-1c.19-.16.37-.34.57-.49a19.24,19.24,0,0,1,17.7-2.94,19.37,19.37,0,0,1,2.82,1.22,21.87,21.87,0,0,1,2.66,1.72,12,12,0,0,1,3.88,5.08,19.33,19.33,0,0,1,1.29,7.41v48.51a14,14,0,0,0,.48,3.74A11.48,11.48,0,0,0,818,140.8a10,10,0,0,0,1,.58,10.93,10.93,0,0,0,2.19.85,13.93,13.93,0,0,0,3.74.48h12.48Z"/><path class="cls-1" d="M931.34,113.64h0a67.42,67.42,0,0,0,2.06-12.31c.08-.93.14-1.88.18-2.83v0c0-.95.07-1.92.08-2.91,0-.33,0-.66,0-1,0-1.1,0-2.19-.07-3.27,0-.31,0-.61,0-.91,0-.84-.1-1.66-.16-2.47,0-.26,0-.53-.07-.79-.09-1-.21-2.08-.35-3.1a2.87,2.87,0,0,0-.05-.31c-.13-.92-.28-1.83-.45-2.72,0-.24-.09-.48-.14-.72-.16-.85-.35-1.69-.55-2.52l-.09-.41c-.25-1-.51-1.94-.8-2.88,0-.11-.08-.22-.11-.33-.26-.83-.54-1.64-.83-2.44-.07-.18-.13-.36-.2-.53-.34-.89-.69-1.76-1.07-2.62h0c-.37-.84-.77-1.66-1.18-2.47l-.18-.34c-.34-.65-.7-1.29-1.07-1.92-.12-.21-.24-.42-.37-.62q-.5-.82-1-1.62l-.4-.61q-.72-1.05-1.5-2.07a33.65,33.65,0,0,0-14.45-9.81,51.3,51.3,0,0,0-18-3.39,59,59,0,0,0-31.75,9.09A27.1,27.1,0,0,0,851,62.09a31,31,0,0,0-2.79,4.85,37.71,37.71,0,0,0-2.07,5.63,59.91,59.91,0,0,0-2,16.27v88.82h12.14a12.15,12.15,0,0,0,12.12-12.12V130.23a26.89,26.89,0,0,0,11.42,11.06,36.26,36.26,0,0,0,15.7,3.2q16.75,0,27.46-13.55c.41-.53.81-1.08,1.2-1.64.28-.39.54-.8.8-1.2l.28-.43c.33-.52.66-1,1-1.59l0-.06c.33-.57.65-1.14,1-1.73h0A52.38,52.38,0,0,0,931.34,113.64ZM903.71,116a17,17,0,0,1-14.63,7.48q-10,0-15.34-7.48-5.34-6.78-5.35-20.34,0-14.62,5-21.4,5.36-7.5,15-7.49,10,0,15.34,7.49t5.35,21.4Q909.06,108.46,903.71,116Z"/><path class="cls-1" d="M1013.22,95.27a24.55,24.55,0,0,0-2-1.5c-.49-.33-1-.67-1.56-1-1-.63-2.15-1.24-3.39-1.85-.94-.46-1.94-.91-3-1.36s-1.87-.76-2.87-1.14c-2.46-.92-5.19-1.82-8.18-2.68-1.4-.4-2.86-.79-4.38-1.18a13.35,13.35,0,0,1-3-.36c-.8-.17-1.71-.41-2.71-.73-.34-.1-.68-.22-1-.34Q966,80,963.22,75.58a3.88,3.88,0,0,1-.58-1.37,3.36,3.36,0,0,1-.08-.71,8.82,8.82,0,0,1,.45-2.9,6.72,6.72,0,0,1,1.36-2.31,5.62,5.62,0,0,1,.65-.64,7.38,7.38,0,0,1,.75-.57l.33-.17c2.37-1.3,5.82-2,10.37-2a27.77,27.77,0,0,1,4.92.42,16,16,0,0,1,6.86,2.8L991.1,71a14.27,14.27,0,0,0,1.82,2.46,1.46,1.46,0,0,0,.16.19A10.67,10.67,0,0,0,996.37,76a11.34,11.34,0,0,0,3.43,1,14.67,14.67,0,0,0,1.65.09h15.33c0-.59-.07-1.18-.12-1.76a36.4,36.4,0,0,0-.83-5,31.87,31.87,0,0,0-.93-3.15,28.05,28.05,0,0,0-1.24-3,30.56,30.56,0,0,0-1.53-2.81,31.67,31.67,0,0,0-6.41-7.45q-11-8.19-29.6-8.2-17.11,0-27.82,8.2c-.52.45-1,.9-1.49,1.37l-.4.39c-.35.36-.7.73-1,1.1l-.33.36a29.35,29.35,0,0,0-2.41,3.13l-.12.18c-.33.51-.65,1-.94,1.55l-.09.16a27.84,27.84,0,0,0-2.34,5.6,30.58,30.58,0,0,0-.88,4.11c0,.08,0,.16,0,.23-.08.58-.14,1.17-.19,1.76l0,.48c0,.67-.07,1.36-.07,2.06h0c0,.84,0,1.66.11,2.47,0,.29.07.57.1.86.06.5.11,1,.2,1.47s.14.69.22,1,.17.78.27,1.16.22.74.34,1.1.22.65.34,1,.31.76.48,1.14.25.53.39.79.4.78.63,1.16c.12.22.26.42.4.63.26.41.52.8.8,1.19l.36.44c.34.42.67.84,1,1.24h0c.46.5.94,1,1.46,1.46a19.15,19.15,0,0,0,1.8,1.58,28.33,28.33,0,0,0,3.43,2.26,45.57,45.57,0,0,0,4.31,2.14q2.37,1,5.18,2c1.74.6,3.61,1.18,5.59,1.75l1,.27c1.31.36,2.65.71,4.06,1.06a41.5,41.5,0,0,0,4,1.06l1.25.27c1.3.27,2.76.53,4.36.8a43.41,43.41,0,0,1,9.13,2.86q.58.28,1.11.57a13.84,13.84,0,0,1,1.88,1.2,9.85,9.85,0,0,1,.76.64A7,7,0,0,1,994.5,114a5.2,5.2,0,0,1,.53,2.29,7.07,7.07,0,0,1-1.07,3.84,7.87,7.87,0,0,1-1.34,1.58,11,11,0,0,1-1.87,1.36,20.65,20.65,0,0,1-6.5,2.15,28.89,28.89,0,0,1-4.56.35h0a36.1,36.1,0,0,1-6.19-.5,21.1,21.1,0,0,1-8.08-3.07,14,14,0,0,1-1.18-1,11.9,11.9,0,0,1-2.66-3.51,13.75,13.75,0,0,1-1.05-2.89,18.29,18.29,0,0,1-.46-3.35H935.81v1.07h0c0,.62,0,1.23,0,1.84,0,.24,0,.47,0,.7s0,.71.07,1.06l.09.89.09.81c0,.33.09.66.14,1s.07.43.11.65.13.71.2,1.05c0,.17.07.34.11.51.08.38.17.75.26,1.12,0,.12.07.24.1.36.11.4.23.8.35,1.19,0,.07.05.14.07.21.14.43.29.85.44,1.27s.43,1.07.67,1.6c0,.05,0,.1.07.16.22.46.44.92.68,1.36l.14.26c.23.41.46.81.7,1.2l.21.33c.23.36.47.71.72,1.06l.26.37.76,1,.31.39c.26.3.53.59.8.88l.36.38c.28.29.58.58.88.86l.36.33c.42.39.86.76,1.31,1.12a32.15,32.15,0,0,0,10.72,5.61,52.63,52.63,0,0,0,7.91,1.79,79.64,79.64,0,0,0,11.69.8q4,0,7.66-.28a61.83,61.83,0,0,0,14.92-2.79,37.1,37.1,0,0,0,3.51-1.34,31.51,31.51,0,0,0,6-3.44,30.94,30.94,0,0,0,2.68-2.25,26.64,26.64,0,0,0,6.17-8.75c.27-.62.52-1.25.75-1.9a33.74,33.74,0,0,0,1.82-11.35,24.63,24.63,0,0,0-2.65-11.7A20.79,20.79,0,0,0,1013.22,95.27Z"/><path class="cls-3" d="M174.14,67.08l.27-.52Z"/><path class="cls-3" d="M184.16,54.4q9-7.38,22.21-8.51Q193.16,47,184.16,54.4Z"/><path class="cls-3" d="M175.85,64h0Z"/><path class="cls-3" d="M177.42,61.64l.4-.56Z"/><path class="cls-3" d="M171.76,72.77c.05-.14.09-.29.14-.43C171.85,72.48,171.81,72.63,171.76,72.77Z"/><path class="cls-3" d="M169.61,81.18h0Z"/><path class="cls-3" d="M166.4,87.62c0,.35.06.71.08,1.06C166.46,88.33,166.43,88,166.4,87.62Z"/><path class="cls-3" d="M170.17,78.38l.17-.68Z"/><path class="cls-3" d="M254.48,113.46c-.31,1.16-.65,2.27-1,3.36C253.83,115.73,254.17,114.62,254.48,113.46Z"/><path class="cls-3" d="M203.32,121.57A15.88,15.88,0,0,0,206.8,123,15.88,15.88,0,0,1,203.32,121.57Z"/><path class="cls-3" d="M222.67,69.18a15.72,15.72,0,0,0-3.06-1.56A15.72,15.72,0,0,1,222.67,69.18Z"/><path class="cls-3" d="M211.32,45.68q-2.55,0-4.95.21,2.4-.21,4.95-.21Z"/><path class="cls-3" d="M220,122.83a17.12,17.12,0,0,0,3.46-1.52A17.12,17.12,0,0,1,220,122.83Z"/><path class="cls-3" d="M169.07,84.91c0-.26.05-.53.09-.78C169.12,84.38,169.1,84.65,169.07,84.91Z"/><path class="cls-3" d="M252.55,72.92c.09.24.18.48.26.72C252.73,73.4,252.64,73.16,252.55,72.92Z"/><path class="cls-3" d="M246.43,61.09l.27.39Z"/><path class="cls-3" d="M251.4,70c.07.16.13.32.19.47C251.53,70.29,251.47,70.13,251.4,70Z"/><path class="cls-3" d="M219.61,67.62a18.36,18.36,0,0,0-3.54-.94A18.36,18.36,0,0,1,219.61,67.62Z"/><path class="cls-3" d="M159.14,127.28c-.29.43-.6.85-.91,1.27C158.54,128.13,158.85,127.71,159.14,127.28Z"/><path class="cls-3" d="M155.64,131.66c.62-.67,1.22-1.35,1.8-2.06C156.86,130.31,156.26,131,155.64,131.66Z"/><path class="cls-3" d="M123.92,113.8a10.58,10.58,0,0,0,5.31-1.13l.57-.33.37-.37.2-.29H117.68l.08.11C118.21,112.34,119.4,113.8,123.92,113.8Z"/><path class="cls-3" d="M160.67,124.85c-.21.36-.42.72-.64,1.06C160.25,125.57,160.46,125.21,160.67,124.85Z"/><path class="cls-3" d="M165.3,113.46c-.28,1.07-.6,2.1-.94,3.12C164.7,115.57,165,114.53,165.3,113.46Z"/><path class="cls-3" d="M166.62,91c0,.33,0,.66,0,1C166.66,91.61,166.64,91.28,166.62,91Z"/><path class="cls-3" d="M168.75,88.15c0-.34.05-.67.08-1C168.8,87.48,168.78,87.81,168.75,88.15Z"/><path class="cls-3" d="M164.1,117.36c-.28.8-.59,1.58-.9,2.34Q163.68,118.56,164.1,117.36Z"/><path class="cls-3" d="M242.06,134.29c-.81.69-1.65,1.35-2.52,2C240.41,135.64,241.25,135,242.06,134.29Z"/><path class="cls-3" d="M169.77,109.16c0-.08,0-.16-.05-.24C169.74,109,169.75,109.08,169.77,109.16Z"/><path class="cls-3" d="M168.85,102.41c0-.28,0-.58-.07-.87C168.81,101.83,168.83,102.13,168.85,102.41Z"/><path class="cls-3" d="M168.62,99c0-.32,0-.63,0-.95C168.59,98.36,168.61,98.67,168.62,99Z"/><path class="cls-3" d="M168.57,91.33c0-.32,0-.64.05-1C168.6,90.69,168.58,91,168.57,91.33Z"/><path class="cls-3" d="M176.41,126.64l-.12-.18Z"/><path class="cls-3" d="M178.21,129.2l-.37-.5Z"/><polygon class="cls-3" points="173.4 121.07 173.4 121.07 173.4 121.07 173.4 121.07"/><path class="cls-3" d="M170.46,112.37c0-.1-.05-.2-.07-.3C170.41,112.17,170.44,112.27,170.46,112.37Z"/><path class="cls-3" d="M170.87,75.62c.07-.23.14-.47.2-.7C171,75.15,170.94,75.39,170.87,75.62Z"/><path class="cls-3" d="M303.53,46.2c-.89.16-1.78.34-2.68.55a30.78,30.78,0,0,0-5.55,1.92,30.78,30.78,0,0,1,5.55-1.92C301.75,46.54,302.64,46.36,303.53,46.2Z"/><path class="cls-3" d="M303.35,67.08c.77,0,1.53,0,2.26.11-.73-.07-1.49-.11-2.26-.11Z"/><path class="cls-3" d="M346.78,83.92c.05,1.14.09,2.29.09,3.49C346.87,86.21,346.83,85.06,346.78,83.92Z"/><path class="cls-3" d="M322.75,88.35c.14,1.64.22,3.35.22,5.13h0C323,91.7,322.89,90,322.75,88.35Z"/><path class="cls-3" d="M345.44,74c.07.3.14.59.2.89C345.58,74.58,345.51,74.29,345.44,74Z"/><path class="cls-3" d="M402.81,68.66a20.13,20.13,0,0,0-2-1.12A20.13,20.13,0,0,1,402.81,68.66Z"/><path class="cls-3" d="M346.52,80.54c.08.74.14,1.49.19,2.25C346.66,82,346.6,81.28,346.52,80.54Z"/><path class="cls-3" d="M346,76.67c.15.86.29,1.74.4,2.65C346.29,78.42,346.15,77.53,346,76.67Z"/><path class="cls-3" d="M352.27,74.14s0-.09,0-.14S352.28,74.1,352.27,74.14Z"/><path class="cls-3" d="M341.89,64.57c.2.35.38.72.56,1.08C342.27,65.29,342.09,64.92,341.89,64.57Z"/><path class="cls-3" d="M352.78,71.78v0Z"/><path class="cls-3" d="M351.84,76.72c0-.12,0-.25.05-.37C351.87,76.47,351.86,76.6,351.84,76.72Z"/><path class="cls-3" d="M399.19,66.85a18.85,18.85,0,0,0-5.07-1.13A18.85,18.85,0,0,1,399.19,66.85Z"/><path class="cls-3" d="M355.84,63.52h0Z"/><path class="cls-3" d="M351.15,87.06h0c0-1,0-2,.05-2.89C351.17,85.11,351.15,86.08,351.15,87.06Z"/><path class="cls-3" d="M351.27,82.72c0-.43,0-.87.07-1.29C351.31,81.85,351.3,82.29,351.27,82.72Z"/><path class="cls-3" d="M351.51,79.54l.06-.71Z"/><path class="cls-3" d="M320.91,47.32c.81.26,1.62.54,2.42.86C322.53,47.86,321.72,47.58,320.91,47.32Z"/><path class="cls-3" d="M244.37,132.12l-.26.24Z"/><path class="cls-3" d="M310.74,68.5a16.28,16.28,0,0,0-2-.7A16.28,16.28,0,0,1,310.74,68.5Z"/><path class="cls-3" d="M220,122.83a22.78,22.78,0,0,1-6.88,1,24.83,24.83,0,0,1-4.34-.36,24.83,24.83,0,0,0,4.34.36A22.78,22.78,0,0,0,220,122.83Z"/><path class="cls-3" d="M308.78,67.8a17.9,17.9,0,0,0-2.08-.46A17.9,17.9,0,0,1,308.78,67.8Z"/><path class="cls-3" d="M227.37,118.1l-2,2a6,6,0,0,1-.46.42,6,6,0,0,0,.46-.42Z"/><path class="cls-3" d="M292.78,50a27.42,27.42,0,0,1,2.52-1.33A27.42,27.42,0,0,0,292.78,50Z"/><path class="cls-3" d="M251.94,120.78c-.34.76-.7,1.49-1.07,2.22C251.24,122.27,251.6,121.54,251.94,120.78Z"/><path class="cls-3" d="M250.2,124.25c-.32.57-.65,1.13-1,1.68C249.55,125.38,249.88,124.82,250.2,124.25Z"/><path class="cls-3" d="M312.64,45.71c.84.06,1.68.14,2.51.27C314.32,45.85,313.48,45.77,312.64,45.71Z"/><path class="cls-3" d="M318.09,46.54q1.19.27,2.37.63Q319.28,46.81,318.09,46.54Z"/><path class="cls-3" d="M253.34,117.2c-.32,1-.69,1.87-1.07,2.77C252.65,119.07,253,118.15,253.34,117.2Z"/><path class="cls-3" d="M315.15,46c.83.12,1.66.28,2.48.46C316.81,46.26,316,46.1,315.15,46Z"/><path class="cls-3" d="M304.36,46.08c.62-.1,1.24-.18,1.85-.24C305.6,45.9,305,46,304.36,46.08Z"/><path class="cls-3" d="M307.13,45.75c.61,0,1.22-.08,1.83-.1C308.35,45.67,307.74,45.7,307.13,45.75Z"/><path class="cls-3" d="M310.1,45.61h-.33q1.22,0,2.4.06C311.48,45.64,310.79,45.61,310.1,45.61Z"/><path class="cls-3" d="M340.1,61.74c.46.63.88,1.31,1.3,2C341,63,340.56,62.37,340.1,61.74Z"/><path class="cls-3" d="M56.92,143h0Z"/><path class="cls-3" d="M46.57,142.83h0Z"/><path class="cls-3" d="M48.43,142.87h0Z"/><path class="cls-3" d="M50.39,142.9h0Z"/><path class="cls-3" d="M44.76,142.8l-.69,0Z"/><path class="cls-3" d="M58.89,143h0Z"/><path class="cls-3" d="M356.87,61.74l0-.07Z"/><path class="cls-3" d="M54.9,143h0Z"/><path class="cls-3" d="M52.86,142.93h0Z"/><path class="cls-3" d="M42.94,142.75l-.58,0Z"/><path class="cls-3" d="M78.75,60.27l-.4.51Z"/><path class="cls-3" d="M35.14,142.44l-.38,0Z"/><path class="cls-3" d="M80.89,53.18c0,.34,0,.67,0,1C80.87,53.85,80.89,53.52,80.89,53.18Z"/><path class="cls-3" d="M79.31,59.4l-.26.42Z"/><path class="cls-3" d="M79.76,58.54l-.15.31Z"/><path class="cls-3" d="M39.2,142.63l-.47,0Z"/><path class="cls-3" d="M36.4,142.51l-.46,0Z"/><path class="cls-3" d="M166.06,84.52c0,.28.07.57.1.85C166.13,85.09,166.1,84.8,166.06,84.52Z"/><path class="cls-3" d="M40.85,142.69h0Z"/><path class="cls-3" d="M79.85,142.71l-.67,0Z"/><path class="cls-3" d="M78.91,142.76l-.56,0Z"/><path class="cls-3" d="M78,142.8l-.61,0Z"/><path class="cls-3" d="M77.06,142.83l-1,0Z"/><path class="cls-3" d="M68.76,75.3H54.61v38.86H71.44a86.21,86.21,0,0,1-2.1-19.61,82.16,82.16,0,0,1,2.17-19.43A22.68,22.68,0,0,1,68.76,75.3Z"/><path class="cls-3" d="M75.87,142.86l-.91,0Z"/><path class="cls-3" d="M219.86,81.2a12.58,12.58,0,0,0-1.74-2.81l-.11-.11-.1-.1c-.41-.45-1.68-1.81-5.87-1.81-3.07,0-4.61,1-5.58,1.87C205,80,202.77,84.4,202.77,94.91c0,11.21,2.57,15.14,3.68,16.31l.26.28.24.29c.45.55,1.63,2,6.15,2a10.61,10.61,0,0,0,5.31-1.13l.58-.34.24-.24.57-.56a26.73,26.73,0,0,1,4-3.94c3.26-2.74,7.59-4.13,12.85-4.13H248.4V86.71H222.63Z"/><path class="cls-3" d="M61,143h0Z"/><path class="cls-3" d="M65.79,143h0Z"/><path class="cls-3" d="M67.27,143h0Z"/><path class="cls-3" d="M74.5,142.89l-.74,0Z"/><path class="cls-3" d="M68.78,143h0Z"/><path class="cls-3" d="M63,143h0Z"/><path class="cls-3" d="M70.48,143h0Z"/><path class="cls-3" d="M73.28,142.91l-.85,0Z"/><path class="cls-3" d="M72,142.93l-1.3,0Z"/><path class="cls-3" d="M37.75,142.57l-.49,0Z"/><path class="cls-3" d="M79.93,84.57c0-.16,0-.33.06-.48C80,84.24,80,84.41,79.93,84.57Z"/><path class="cls-3" d="M81.83,75.17c0-.1,0-.2.08-.3C81.88,75,81.86,75.07,81.83,75.17Z"/><path class="cls-3" d="M81.06,78.12c0-.15.07-.3.11-.45C81.13,77.82,81.1,78,81.06,78.12Z"/><path class="cls-3" d="M79.59,88c0-.31,0-.62.07-.93C79.63,87.42,79.61,87.73,79.59,88Z"/><path class="cls-3" d="M80.46,81s0-.05,0-.07S80.47,81,80.46,81Z"/><path class="cls-3" d="M79.4,91.29c0-.31,0-.62,0-.93C79.43,90.67,79.41,91,79.4,91.29Z"/><path class="cls-3" d="M79.7,102.66l-.09-1.06Z"/><path class="cls-3" d="M79.38,97.37c0-.93,0-1.86,0-2.82C79.34,95.51,79.35,96.44,79.38,97.37Z"/><path class="cls-3" d="M79.5,100.07c0-.5,0-1-.07-1.51C79.45,99.07,79.47,99.57,79.5,100.07Z"/><path class="cls-3" d="M163.23,72.37c.06.19.12.39.19.58C163.35,72.76,163.29,72.56,163.23,72.37Z"/><path class="cls-3" d="M164.84,77.88c.06.25.13.5.18.76C165,78.38,164.9,78.13,164.84,77.88Z"/><path class="cls-3" d="M164.08,75c.08.27.16.53.23.8C164.24,75.55,164.16,75.29,164.08,75Z"/><path class="cls-3" d="M165.6,81.5h0Z"/><path class="cls-3" d="M90.09,59.25h0l.3-.37Z"/><polygon class="cls-3" points="162.23 69.78 162.23 69.78 162.23 69.78 162.23 69.78"/><path class="cls-3" d="M157.12,60.79l.42.58Z"/><path class="cls-3" d="M160.65,66.43l.29.58Z"/><path class="cls-3" d="M77.32,61.91a10,10,0,0,1-.79.69A10,10,0,0,0,77.32,61.91Z"/><path class="cls-3" d="M74.17,64.1a.52.52,0,0,1-.13.06A.52.52,0,0,0,74.17,64.1Z"/><path class="cls-3" d="M69.86,65.26c-.36,0-.73,0-1.1,0C69.13,65.3,69.5,65.28,69.86,65.26Z"/><path class="cls-3" d="M72.64,64.71l-.19.07Z"/><path class="cls-3" d="M80,105.16l-.09-.77Z"/><path class="cls-3" d="M71.91,64.92l-.52.12Z"/><path class="cls-3" d="M78.09,61.11c-.25.27-.5.54-.77.8C77.59,61.65,77.84,61.39,78.09,61.11Z"/><path class="cls-3" d="M75,63.65l-.14.08Z"/><polygon class="cls-3" points="75.72 63.2 75.72 63.2 75.72 63.2 75.72 63.2"/><path class="cls-3" d="M70.92,65.13l-.67.08Z"/><path class="cls-3" d="M45.05,120.75a7.39,7.39,0,0,1-.44-2.65h0A7.39,7.39,0,0,0,45.05,120.75Z"/><path class="cls-3" d="M81.21,112.05s0-.1,0-.15S81.2,112,81.21,112.05Z"/><path class="cls-3" d="M80.32,107.55l-.09-.53Z"/><path class="cls-3" d="M80.73,109.85l-.06-.33Z"/><polygon class="cls-3" points="81.75 114.16 81.75 114.16 81.75 114.16 81.75 114.16"/><path class="cls-3" d="M154.9,132.4c-.49.48-1,1-1.51,1.42C153.91,133.36,154.41,132.89,154.9,132.4Z"/><path class="cls-3" d="M152.68,134.45c-.76.64-1.54,1.26-2.36,1.84C151.14,135.71,151.92,135.09,152.68,134.45Z"/><path class="cls-3" d="M937.06,122.36c0-.12-.06-.24-.1-.36C937,122.12,937,122.24,937.06,122.36Z"/><path class="cls-3" d="M943.6,134l-.36-.38Z"/><path class="cls-3" d="M944.84,135.17l-.36-.33Z"/><path class="cls-3" d="M976.47,144.49q4,0,7.66-.28-3.64.28-7.66.28Z"/><path class="cls-3" d="M942.44,132.72l-.31-.39Z"/><path class="cls-3" d="M1002.56,140.08a37.1,37.1,0,0,1-3.51,1.34A37.1,37.1,0,0,0,1002.56,140.08Z"/><path class="cls-3" d="M941.37,131.37l-.26-.37Z"/><polygon class="cls-3" points="927.2 124.29 927.2 124.29 927.2 124.29 927.2 124.29"/><path class="cls-3" d="M888.37,76.73c-3.18,0-5.17,1-6.85,3.3l-.08.12c-1.14,1.54-3.05,5.61-3.05,15.47,0,8.34,1.74,12.29,3.2,14.14l.29.38c1.23,1.72,3,3.3,7.2,3.3a7.06,7.06,0,0,0,6.5-3.3c2.31-3.23,3.48-8.12,3.48-14.52,0-7-1.21-12.4-3.49-15.6C894.35,78.32,892.63,76.73,888.37,76.73Z"/><path class="cls-3" d="M1018.18,123.74c-.23.65-.48,1.28-.75,1.9C1017.7,125,1018,124.39,1018.18,123.74Z"/><path class="cls-3" d="M940.39,129.94l-.21-.33Z"/><path class="cls-3" d="M936.39,119.32c0-.22-.07-.43-.11-.65C936.32,118.89,936.35,119.11,936.39,119.32Z"/><path class="cls-3" d="M936.14,117.69l-.09-.81Z"/><path class="cls-3" d="M936,116c0-.35-.05-.7-.07-1.06C935.91,115.29,935.93,115.64,936,116Z"/><path class="cls-3" d="M936.7,120.88c0-.17-.08-.34-.11-.51C936.62,120.54,936.66,120.71,936.7,120.88Z"/><path class="cls-3" d="M939.48,128.41l-.14-.26Z"/><path class="cls-3" d="M937.48,123.76c0-.07-.05-.14-.07-.21S937.46,123.69,937.48,123.76Z"/><path class="cls-3" d="M938.66,126.79c0-.06,0-.11-.07-.16S938.64,126.73,938.66,126.79Z"/><path class="cls-3" d="M927.33,65.72l.18.34Z"/><path class="cls-3" d="M935.85,114.23c0-.61,0-1.22,0-1.84C935.81,113,935.83,113.62,935.85,114.23Z"/><path class="cls-3" d="M925.89,63.18c.13.2.25.41.37.62C926.14,63.59,926,63.38,925.89,63.18Z"/><polygon class="cls-3" points="928.69 68.53 928.69 68.53 928.69 68.53 928.69 68.53"/><path class="cls-3" d="M929.76,71.15c.07.17.13.35.2.53C929.89,71.5,929.83,71.32,929.76,71.15Z"/><path class="cls-3" d="M924.47,61l.4.61Z"/><path class="cls-3" d="M930.79,74.12c0,.11.07.22.11.33C930.86,74.34,930.82,74.23,930.79,74.12Z"/><path class="cls-3" d="M924.17,129.3c-.39.56-.79,1.11-1.2,1.64C923.38,130.41,923.78,129.86,924.17,129.3Z"/><path class="cls-3" d="M848.2,66.94A31,31,0,0,1,851,62.09,31,31,0,0,0,848.2,66.94Z"/><path class="cls-3" d="M932.34,80.26c0,.24.1.48.14.72C932.44,80.74,932.39,80.5,932.34,80.26Z"/><path class="cls-3" d="M933.66,95.55c0-.33,0-.66,0-1,0,.34,0,.67,0,1Z"/><path class="cls-3" d="M931.7,77.33l.09.41Z"/><path class="cls-3" d="M933.58,98.46v0Z"/><path class="cls-3" d="M933.56,90.37c0,.3,0,.6,0,.91C933.59,91,933.58,90.67,933.56,90.37Z"/><path class="cls-3" d="M931.34,113.63h0Z"/><path class="cls-3" d="M933.33,87.11c0,.26,0,.53.07.79C933.38,87.64,933.36,87.37,933.33,87.11Z"/><path class="cls-3" d="M932.93,83.7A2.87,2.87,0,0,1,933,84,2.87,2.87,0,0,0,932.93,83.7Z"/><path class="cls-3" d="M938,74.3l0-.48Z"/><path class="cls-3" d="M1014.9,67.13a31.87,31.87,0,0,1,.93,3.15A31.87,31.87,0,0,0,1014.9,67.13Z"/><path class="cls-3" d="M1015.83,70.28a36.4,36.4,0,0,1,.83,5A36.4,36.4,0,0,0,1015.83,70.28Z"/><path class="cls-3" d="M999.8,77a11.34,11.34,0,0,1-3.43-1A11.34,11.34,0,0,0,999.8,77Z"/><path class="cls-3" d="M993.08,73.66a1.46,1.46,0,0,1-.16-.19A1.46,1.46,0,0,0,993.08,73.66Z"/><path class="cls-3" d="M1012.13,61.33a30.56,30.56,0,0,1,1.53,2.81A30.56,30.56,0,0,0,1012.13,61.33Z"/><path class="cls-3" d="M945,57.1l.33-.36Z"/><path class="cls-3" d="M962.64,74.21a3.88,3.88,0,0,0,.58,1.37A3.88,3.88,0,0,1,962.64,74.21Z"/><path class="cls-3" d="M946.41,55.64l.4-.39Z"/><path class="cls-3" d="M981.11,83.13c.36.12.7.24,1,.34-.34-.1-.68-.22-1-.34Q966,80,963.22,75.58,966,79.94,981.11,83.13Z"/><path class="cls-3" d="M966.1,66.91c2.37-1.3,5.82-2,10.37-2a27.77,27.77,0,0,1,4.92.42,27.77,27.77,0,0,0-4.92-.42C971.92,64.94,968.47,65.61,966.1,66.91Z"/><path class="cls-3" d="M942.51,60.41l.12-.18Z"/><path class="cls-3" d="M1000.45,88.42c1,.38,2,.76,2.87,1.14C1002.41,89.18,1001.45,88.8,1000.45,88.42Z"/><path class="cls-3" d="M1020,112.39h0a24.63,24.63,0,0,0-2.65-11.7A24.63,24.63,0,0,1,1020,112.39Z"/><path class="cls-3" d="M984.25,125.24a28.89,28.89,0,0,1-4.56.35h0A28.89,28.89,0,0,0,984.25,125.24Z"/><path class="cls-3" d="M992.27,85.74c-1.4-.4-2.86-.79-4.38-1.18a13.35,13.35,0,0,1-3-.36,13.35,13.35,0,0,0,3,.36C989.41,85,990.87,85.34,992.27,85.74Z"/><path class="cls-3" d="M1003.32,89.56c1,.45,2,.9,3,1.36C1005.37,90.46,1004.37,90,1003.32,89.56Z"/><path class="cls-3" d="M1006.31,90.92c1.24.61,2.36,1.22,3.39,1.85C1008.67,92.14,1007.55,91.53,1006.31,90.92Z"/><path class="cls-3" d="M940.4,87.36c-.14-.26-.27-.53-.39-.79C940.13,86.83,940.26,87.1,940.4,87.36Z"/><path class="cls-3" d="M945.09,93.48c-.52-.47-1-1-1.46-1.46C944.09,92.52,944.57,93,945.09,93.48Z"/><path class="cls-3" d="M950.32,97.32a28.33,28.33,0,0,1-3.43-2.26A28.33,28.33,0,0,0,950.32,97.32Z"/><path class="cls-3" d="M942.59,90.78l-.36-.44Z"/><path class="cls-3" d="M960.53,114.67a13.75,13.75,0,0,0,1.05,2.89A13.75,13.75,0,0,1,960.53,114.67Z"/><path class="cls-3" d="M941.43,89.15c-.14-.21-.28-.41-.4-.63C941.15,88.74,941.29,88.94,941.43,89.15Z"/><path class="cls-3" d="M992.62,121.73a7.87,7.87,0,0,0,1.34-1.58A7.87,7.87,0,0,1,992.62,121.73Z"/><path class="cls-3" d="M954.63,99.46a45.57,45.57,0,0,1-4.31-2.14A45.57,45.57,0,0,0,954.63,99.46Z"/><path class="cls-3" d="M941.48,62.12l.09-.16Z"/><path class="cls-3" d="M966.35,103.49l-1-.27Z"/><path class="cls-3" d="M925.25,127.67l-.28.43Z"/><polygon class="cls-3" points="937.95 76.36 937.95 76.36 937.95 76.36 937.95 76.36"/><path class="cls-3" d="M938.24,72.06c0-.07,0-.15,0-.23C938.25,71.91,938.25,72,938.24,72.06Z"/><path class="cls-3" d="M938.36,81.16c-.09-.48-.14-1-.2-1.47C938.22,80.19,938.27,80.68,938.36,81.16Z"/><path class="cls-3" d="M938.85,83.36c-.1-.38-.19-.77-.27-1.16C938.66,82.59,938.75,83,938.85,83.36Z"/><path class="cls-3" d="M938.06,78.83C938,78,938,77.2,938,76.36,938,77.2,938,78,938.06,78.83Z"/><path class="cls-3" d="M939.53,85.43c-.12-.32-.23-.64-.34-1C939.3,84.79,939.41,85.11,939.53,85.43Z"/><path class="cls-3" d="M449.61,134.14c-.57-.48-1.12-1-1.65-1.53C448.49,133.14,449,133.66,449.61,134.14Z"/><path class="cls-3" d="M517.62,122l-.15.32Z"/><path class="cls-3" d="M409.77,134.32a11.48,11.48,0,0,0,4.73,6.48,11.48,11.48,0,0,1-4.73-6.48Z"/><path class="cls-3" d="M404.13,69.58a12.35,12.35,0,0,1,2.26,2.25A12.35,12.35,0,0,0,404.13,69.58Z"/><polygon class="cls-3" points="518.58 119.82 518.58 119.82 518.58 119.82 518.58 119.82"/><path class="cls-3" d="M519.72,116.8c-.06.19-.13.37-.2.56C519.59,117.17,519.66,117,519.72,116.8Z"/><path class="cls-3" d="M433.46,78.36c0,.15,0,.3,0,.44C433.48,78.66,433.47,78.51,433.46,78.36Z"/><path class="cls-3" d="M433.91,87.06c0-1,0-2-.05-3,0,1,.05,2,.05,3Z"/><path class="cls-3" d="M420.74,53.9l0,0a56.57,56.57,0,0,0-5-2.78,56.57,56.57,0,0,1,5,2.78Z"/><path class="cls-3" d="M433.71,81.13c0,.36,0,.73.06,1.1C433.75,81.86,433.74,81.49,433.71,81.13Z"/><path class="cls-3" d="M445.05,61l.23-.3Z"/><path class="cls-3" d="M442.54,64.78l0,0Z"/><path class="cls-3" d="M443.75,62.81l.12-.18Z"/><path class="cls-3" d="M518.47,70.15c.4.94.78,1.9,1.13,2.87C519.25,72.05,518.87,71.09,518.47,70.15Z"/><path class="cls-3" d="M515.58,125.86l-.3.51Z"/><path class="cls-3" d="M520,74.15c.21.64.42,1.28.62,1.93C520.4,75.43,520.19,74.79,520,74.15Z"/><path class="cls-3" d="M516.65,124c-.1.18-.2.36-.29.54C516.45,124.31,516.55,124.13,516.65,124Z"/><path class="cls-3" d="M447,131.54c-.16-.16-.31-.33-.46-.5Z"/><path class="cls-3" d="M445.26,129.56a.76.76,0,0,0-.11-.14A.76.76,0,0,1,445.26,129.56Z"/><path class="cls-3" d="M367,52.67c1.09-.61,2.18-1.17,3.29-1.7C369.2,51.5,368.11,52.06,367,52.67Z"/><path class="cls-3" d="M370.31,51a54.61,54.61,0,0,1,5.09-2.11A54.61,54.61,0,0,0,370.31,51Z"/><path class="cls-3" d="M363.82,54.6c1.05-.68,2.12-1.33,3.2-1.93C365.94,53.27,364.87,53.92,363.82,54.6Z"/><path class="cls-3" d="M375.4,48.86a52.86,52.86,0,0,1,5.29-1.59A52.86,52.86,0,0,0,375.4,48.86Z"/><path class="cls-3" d="M361.92,56l.32-.28Z"/><path class="cls-3" d="M433.1,75.73a.25.25,0,0,1,0,.08A.25.25,0,0,0,433.1,75.73Z"/><path class="cls-3" d="M359.19,58.62c.06-.07.12-.15.19-.22S359.25,58.55,359.19,58.62Z"/><path class="cls-3" d="M360.49,57.26l.27-.27Z"/><path class="cls-3" d="M380.69,47.27c1.19-.29,2.4-.55,3.62-.76C383.09,46.72,381.88,47,380.69,47.27Z"/><path class="cls-3" d="M425.24,57.59l.09.11Z"/><path class="cls-3" d="M426.54,59.1v0Z"/><polygon class="cls-3" points="430.68 66.46 430.68 66.46 430.68 66.46 430.68 66.46"/><path class="cls-3" d="M423.83,56.22l.2.19Z"/><path class="cls-3" d="M410.46,48.89a51.64,51.64,0,0,1,5.22,2.21A51.64,51.64,0,0,0,410.46,48.89Z"/><path class="cls-3" d="M422.33,55a2.52,2.52,0,0,0,.25.21A2.52,2.52,0,0,1,422.33,55Z"/><polygon class="cls-3" points="441.39 66.96 441.39 66.96 441.39 66.96 441.39 66.96"/><path class="cls-3" d="M623.34,55.49c.57-.55,1.15-1.09,1.77-1.61C624.49,54.4,623.91,54.94,623.34,55.49Z"/><path class="cls-3" d="M646.1,112.56a3.35,3.35,0,0,0-.29,1.26,5,5,0,0,0,.12,1.16,8.78,8.78,0,0,0,2.37.26c5.84,0,7.93-2.1,8.61-2.79a8,8,0,0,0,2.06-3.38l-.85.2-.21,0L650,111A18.06,18.06,0,0,0,646.1,112.56Z"/><path class="cls-3" d="M610.13,86.71H579l-2.78-5.49a11.81,11.81,0,0,0-1.75-2.83l-.1-.1-.09-.1c-.42-.45-1.7-1.82-5.9-1.82-3.06,0-4.59,1-5.57,1.87-1.46,1.75-3.69,6.15-3.69,16.67,0,11.22,2.57,15.14,3.68,16.31l.26.28.24.3c.45.54,1.63,2,6.15,2a10.58,10.58,0,0,0,5.31-1.13l.58-.33.06-.07c.24-.24.49-.48.74-.74a27.72,27.72,0,0,1,4-3.94c3.27-2.74,7.59-4.13,12.86-4.13H603.8a30.9,30.9,0,0,1,9.61-16.75Z"/><polygon class="cls-3" points="606.03 66.36 606.03 66.35 606.03 66.36 606.03 66.36"/><path class="cls-3" d="M358,60.11l.1-.15Z"/><path class="cls-3" d="M576.35,122.83a17.12,17.12,0,0,0,3.46-1.52A17.12,17.12,0,0,1,576.35,122.83Z"/><path class="cls-3" d="M576.35,122.83a22.9,22.9,0,0,1-6.89,1c-.77,0-1.52,0-2.24-.09.72.06,1.47.09,2.24.09A22.9,22.9,0,0,0,576.35,122.83Z"/><path class="cls-3" d="M782.2,47.5A70.09,70.09,0,0,1,791,46,70.09,70.09,0,0,0,782.2,47.5Z"/><path class="cls-3" d="M818,140.8a11.05,11.05,0,0,1-1.81-1.48A11.05,11.05,0,0,0,818,140.8Z"/><path class="cls-3" d="M779.21,142.71h0V82.07q0-1.08.09-2.07-.09,1-.09,2.07Z"/><path class="cls-3" d="M807.57,69.58a12,12,0,0,1,3.88,5.08A12,12,0,0,0,807.57,69.58Z"/><path class="cls-3" d="M749.42,69.58c-.43-.32-.86-.63-1.31-.92.45.29.88.6,1.31.92a12,12,0,0,1,3.88,5.08A12,12,0,0,0,749.42,69.58Z"/><path class="cls-3" d="M521,77.39c.17.62.33,1.24.48,1.87C521.28,78.63,521.12,78,521,77.39Z"/><polygon class="cls-3" points="835.88 72.31 835.88 72.31 835.88 72.31 835.88 72.31"/><polygon class="cls-3" points="529.24 119.88 529.24 119.88 529.24 119.88 529.24 119.88"/><polygon class="cls-3" points="701.6 62.68 701.6 62.68 701.6 62.68 701.6 62.68"/><path class="cls-3" d="M522.32,84c.1.68.19,1.37.27,2.06C522.51,85.34,522.42,84.65,522.32,84Z"/><path class="cls-3" d="M522.74,87.39c.08.78.13,1.56.18,2.35C522.87,89,522.82,88.17,522.74,87.39Z"/><path class="cls-3" d="M926.25,126l0,.06Z"/><path class="cls-3" d="M521.72,80.64c.14.63.26,1.28.37,1.93C522,81.92,521.86,81.27,521.72,80.64Z"/><path class="cls-3" d="M474,112.39a10,10,0,0,0,3,1.49,7.08,7.08,0,0,0,4.66.14c1.67-.49,3.25-2.42,4.27-4,.81-1.21,2.69-5.09,3-15.28,0-8.54-1.59-12.28-2.53-13.75-1.41-2.22-2.89-3.67-4.17-4.09a7.32,7.32,0,0,0-4.69-.1,12.37,12.37,0,0,0-3.58,1.54c-2.94,3.46-4.26,9.17-3.92,17,.51,11.62,2.8,15.54,3.76,16.69Z"/><path class="cls-3" d="M523.09,94.55c0-1.23,0-2.43-.09-3.63C523.06,92.12,523.09,93.32,523.09,94.55Z"/><path class="cls-3" d="M610.84,113.46c-.29,1.1-.62,2.17-1,3.22C610.22,115.63,610.55,114.56,610.84,113.46Z"/><polygon class="cls-3" points="604.3 127.81 604.3 127.81 604.3 127.81 604.3 127.81"/><path class="cls-4" d="M136.05,71.36q-4.63-5-13.2-5a17.42,17.42,0,0,0-12.84,5q-5,5-5.35,14.27h36.39C140.56,79.21,138.91,74.46,136.05,71.36Z"/><path class="cls-4" d="M484.39,123.62q5.52-1.59,9.8-8t4.64-20.69q0-12.84-4.1-19.27c-2.74-4.28-5.88-7-9.45-8.19a17.25,17.25,0,0,0-10.7-.19,18.87,18.87,0,0,0-7.86,4.1Q459.24,79.58,460,95.8T466,118.45q2.13,2.86,7.48,4.82A17.12,17.12,0,0,0,484.39,123.62ZM473.86,78.38a12.37,12.37,0,0,1,3.58-1.54,7.32,7.32,0,0,1,4.69.1c1.28.42,2.76,1.87,4.17,4.09.94,1.47,2.52,5.21,2.53,13.75-.27,10.19-2.15,14.07-3,15.28-1,1.54-2.6,3.47-4.27,4a7.08,7.08,0,0,1-4.66-.14,10,10,0,0,1-3-1.49l-.27-.35c-1-1.15-3.25-5.07-3.76-16.69C469.6,87.55,470.92,81.84,473.86,78.38Z"/><path class="cls-4" d="M647.58,101.33c-4.27,1.19-7.37,2.74-9.27,4.64a14.49,14.49,0,0,0-2.5,7.85,11.58,11.58,0,0,0,3.21,8.56q3.21,2.87,9.28,2.86,10,0,15.69-5.72t5.72-15.69V94.91a67.54,67.54,0,0,1-13.92,4.64Zm10.54,7.94.85-.2a8,8,0,0,1-2.06,3.38c-.68.69-2.77,2.79-8.61,2.79a8.78,8.78,0,0,1-2.37-.26,5,5,0,0,1-.12-1.16,3.35,3.35,0,0,1,.29-1.26A18.06,18.06,0,0,1,650,111l7.9-1.71Z"/><path class="cls-4" d="M888.37,66.73q-9.63,0-15,7.49-5,6.78-5,21.4,0,13.56,5.35,20.34,5.35,7.49,15.34,7.48A17,17,0,0,0,903.71,116q5.34-7.5,5.35-20.34,0-13.91-5.35-21.4T888.37,66.73Zm7.21,43.41a7.06,7.06,0,0,1-6.5,3.3c-4.25,0-6-1.58-7.2-3.3l-.29-.38c-1.46-1.85-3.2-5.8-3.2-14.14,0-9.86,1.91-13.93,3.05-15.47l.08-.12c1.68-2.35,3.67-3.3,6.85-3.3,4.26,0,6,1.59,7.2,3.29,2.28,3.2,3.49,8.6,3.49,15.6C899.06,102,897.89,106.91,895.58,110.14Z"/><path class="cls-4" d="M1020.09,88l-.19-.19-.21-.17-.69-.58h8.3l-.53-10.49c-.61-12.32-5.5-22.5-14.52-30.27l-.27-.24-.3-.22c-9.09-6.75-21.06-10.17-35.56-10.17-13.61,0-25,3.46-33.91,10.27l-.22.17-.22.19a40.31,40.31,0,0,0-8.43,9.94c-.77-1.18-1.58-2.34-2.44-3.46l-.25-.31A43.77,43.77,0,0,0,912,39.69a61.74,61.74,0,0,0-21.5-4,69.16,69.16,0,0,0-37,10.6,36.86,36.86,0,0,0-12.06,12.15,33.49,33.49,0,0,0-12-13,63.76,63.76,0,0,0-34.18-9.72h-.45a81.43,81.43,0,0,0-17.3,2.65,43.14,43.14,0,0,0-10.09,4.1,43.19,43.19,0,0,0-12-4.72,83.08,83.08,0,0,0-18.28-2h-.46a65.5,65.5,0,0,0-33,10.52,32.09,32.09,0,0,0-7,6.18,35.08,35.08,0,0,0-8.51-8.21c-8.43-5.72-20.07-8.5-35.57-8.5-14.26,0-25.67,3.55-33.91,10.55a39.11,39.11,0,0,0-7.87,8.87c-.7-1-1.43-2-2.2-2.9l-.18-.23-.19-.2c-9.78-10.68-23.43-16.09-40.55-16.09-16.53,0-29.76,5.61-39.31,16.66a48.78,48.78,0,0,0-4.58,6.26,46,46,0,0,0-23.07-19.37l-.25-.09c-9.36-3.4-19.84-4.35-31.14-2.83a46.9,46.9,0,0,0-30.1,16,43.55,43.55,0,0,0-2.79,3.52A32.81,32.81,0,0,0,426,45.4a63.87,63.87,0,0,0-34.19-9.72h-.47a65.46,65.46,0,0,0-33,10.52,32.74,32.74,0,0,0-9.9,10.08l-.31-.45A50.32,50.32,0,0,0,327.27,39l-.11-.05-.12,0a45.62,45.62,0,0,0-16.94-3.28A49.6,49.6,0,0,0,298.5,37a41.37,41.37,0,0,0-5.83,1.88V32.13A22.19,22.19,0,0,0,270.53,10H248.4V48.37C239,40,226.51,35.68,211.32,35.68c-16.53,0-29.76,5.61-39.32,16.66a49.07,49.07,0,0,0-4.43,6,49.37,49.37,0,0,0-4.69-6.4l-.19-.22c-9.79-10.67-23.44-16.08-40.56-16.08-12.29,0-22.75,3.11-31.24,9.25V38.18H54.61v-6A21.73,21.73,0,0,0,48.13,16.5,21.31,21.31,0,0,0,32.84,10H10V124.87c0,7.74,1.87,14,5.57,18.76,2.81,3.57,8.1,8,17.4,8.69,6.35.49,20.12.67,30,.67,3.77,0,13,0,17.55-.3l9.4-.56v-7.9c8.72,6.8,19.64,10.26,32.6,10.26,13.27,0,24.61-3.4,33.69-10.1A45.78,45.78,0,0,0,168,132.06a46.85,46.85,0,0,0,4.4,5.83c9.55,11,22.76,16.6,39.26,16.6,13.28,0,24.62-3.4,33.7-10.11,1-.75,2.06-1.54,3-2.36v10.69h44.27V93.84c0-6.08,1.12-10.66,3.34-13.62,1.17-1.55,2.95-3.14,7.34-3.14,3,0,4.84.92,6.4,3.17a15.19,15.19,0,0,1,2.53,5.39,41.74,41.74,0,0,1,.69,7.84v59.23h73.15V82.07c0-1.12.11-3.79,1.17-4.62a7.94,7.94,0,0,1,5.24-1.79,8.76,8.76,0,0,1,5.55,1.89c1.06.8,1.21,3.17,1.21,4.52v48.51a21.6,21.6,0,0,0,22.14,22.13h22.48v-10.3c5.9,5,13.48,8.56,22.59,10.59a59.47,59.47,0,0,0,13,1.46,58.54,58.54,0,0,0,15.27-2c11.11-2.46,20.36-8.67,27.47-18.46l.15-.21c.53-.76,1-1.56,1.52-2.38a47.27,47.27,0,0,0,4.84,6.52c9.55,11,22.76,16.6,39.27,16.6,13.27,0,24.6-3.4,33.69-10.1a45.84,45.84,0,0,0,7.21-6.39,30.87,30.87,0,0,0,7.45,7.64,47.38,47.38,0,0,0,28.34,8.85,151.55,151.55,0,0,0,15.86-1A53.93,53.93,0,0,0,680,147.69a37.18,37.18,0,0,0,6.49-4.19v9.21h45V82.07c0-1.12.11-3.79,1.16-4.61a8,8,0,0,1,5.25-1.8,8.76,8.76,0,0,1,5.55,1.89c1.06.8,1.22,3.17,1.22,4.52v70.64h44.61V82.07c0-1.35.16-3.72,1.21-4.51a9.09,9.09,0,0,1,11.1,0c1.07.81,1.22,3.18,1.22,4.53v48.51a21.62,21.62,0,0,0,22.14,22.13h9.25v34.95h22.14a22.18,22.18,0,0,0,22.12-22.12v-14a47.84,47.84,0,0,0,17.12,3c14.34,0,26.22-5.84,35.31-17.35l.08-.11c.39-.51.77-1,1.14-1.55a35.94,35.94,0,0,0,7.83,8.59c8.58,7,20.55,10.42,36.6,10.42,16.61,0,29-3.2,38-9.78l0,0,0,0c10.09-7.56,15.42-18.72,15.42-32.26C1030,102.57,1026.57,94.14,1020.09,88ZM248.4,86.71v16.75H236.65c-5.26,0-9.59,1.39-12.85,4.13a26.73,26.73,0,0,0-4,3.94l-.57.56-.24.24-.58.34a10.61,10.61,0,0,1-5.31,1.13c-4.52,0-5.7-1.46-6.15-2l-.24-.29-.26-.28c-1.11-1.17-3.68-5.1-3.68-16.31,0-10.51,2.23-14.92,3.69-16.67,1-.91,2.51-1.87,5.58-1.87,4.19,0,5.46,1.36,5.87,1.81l.1.1.11.11a12.58,12.58,0,0,1,1.74,2.81l2.77,5.51H248.4Zm-177,27.45H54.61V75.3H68.76a22.68,22.68,0,0,0,2.75-.18,82.16,82.16,0,0,0-2.17,19.43A86.21,86.21,0,0,0,71.44,114.16Zm8.46,28.55h-.05l-.67,0h-.27l-.56,0-.34,0-.61,0h-.34l-1,0h-.24l-.91,0H74.5l-.74,0h-.48l-.85,0H72l-1.3,0H54.23l-1.37,0h-.6l-1.87,0h-.07l-1.89,0h-.61l-1.25,0h-.69l-1.12,0-.69,0-1.13,0-.58,0-1.51,0h-.13l-1.52-.06-.47,0-1,0-.49,0-.86,0-.46,0-.8-.05-.38,0-1-.07a17.12,17.12,0,0,1-6-1.49,12.4,12.4,0,0,1-2.37-1.47c-.35-.28-.69-.59-1-.91a12.36,12.36,0,0,1-1.71-2.19,14.58,14.58,0,0,1-1.29-2.66,20.25,20.25,0,0,1-.86-3.14,30.35,30.35,0,0,1-.48-5.62V20H32.84A11.28,11.28,0,0,1,41,23.56a12,12,0,0,1,.84.92,11.88,11.88,0,0,1,1.33,2,11.73,11.73,0,0,1,1.4,5.69v16H80.89v5h0c0,.34,0,.67,0,1s0,.5-.08.74a11.89,11.89,0,0,1-1,3.63l-.15.31c-.09.19-.2.37-.3.55l-.26.42-.3.45-.4.51-.26.33c-.25.28-.5.54-.77.8a10,10,0,0,1-.79.69c-.27.21-.53.41-.81.6h0c-.23.16-.47.31-.7.45l-.14.08c-.24.13-.47.26-.71.37a.52.52,0,0,1-.13.06,9.92,9.92,0,0,1-1.4.55l-.19.07-.54.14-.52.12-.47.09-.67.08-.39.05c-.36,0-.73,0-1.1,0H44.61v52.8a7.39,7.39,0,0,0,.44,2.65c.9,2.28,3.13,3.41,6.69,3.41H79.9v18.55Zm75.74-11.05c-.24.25-.49.49-.74.74-.49.49-1,1-1.51,1.42-.23.21-.47.43-.71.63-.76.64-1.54,1.26-2.36,1.84q-11.06,8.21-27.82,8.2-20.34,0-31.75-13.19c-.29-.33-.57-.67-.85-1h0a43.08,43.08,0,0,1-8.15-16.13h0c-.19-.69-.37-1.39-.54-2.11,0,0,0-.1,0-.15-.16-.67-.3-1.36-.44-2.05l-.06-.33c-.13-.64-.25-1.3-.35-2l-.09-.53c-.09-.61-.18-1.23-.26-1.86l-.09-.77c-.06-.57-.13-1.14-.18-1.73l-.09-1.06c0-.51-.08-1-.11-1.53s0-1-.07-1.51,0-.79-.05-1.19c0-.93,0-1.86,0-2.82s0-2.19.06-3.26c0-.31,0-.62,0-.93,0-.79.09-1.56.15-2.32,0-.31,0-.62.07-.93.08-.86.17-1.71.27-2.54,0-.16,0-.33.06-.48.14-1,.29-2.07.47-3.08,0,0,0-.05,0-.07.17-1,.37-1.9.58-2.82,0-.15.07-.3.11-.45.2-.85.42-1.68.66-2.5,0-.1,0-.2.08-.3a42.89,42.89,0,0,1,8.18-15.62h0l.3-.37q11.42-13.2,31.74-13.2,21.41,0,33.19,12.84c.63.73,1.22,1.49,1.8,2.27l.42.58a42.29,42.29,0,0,1,3.11,5.06l.29.58c.45.9.89,1.82,1.29,2.77h0c.35.85.68,1.71,1,2.59.06.19.12.39.19.58q.35,1,.66,2.07c.08.27.16.53.23.8.19.68.37,1.37.53,2.06.06.25.13.5.18.76.22.93.41,1.88.58,2.86h0c.17,1,.32,2,.45,3,0,.28.07.57.1.85q.14,1.11.24,2.25c0,.35.06.71.08,1.06.06.75.11,1.51.14,2.27,0,.33,0,.66,0,1,0,1.09.06,2.19.06,3.32v3.92a6,6,0,0,1-.36,2.49H104.66Q105,112.75,110,118.1q4.63,5.7,13.91,5.7a20.29,20.29,0,0,0,10.35-2.49,5,5,0,0,0,2-1.26l2-2a7.78,7.78,0,0,1,2.67-2.85,10.58,10.58,0,0,1,6.6-1.79H165.3c-.28,1.07-.6,2.11-.94,3.12l-.26.78q-.42,1.2-.9,2.34c-.19.45-.37.9-.56,1.33-.6,1.33-1.27,2.6-2,3.82-.21.36-.42.72-.64,1.06s-.58.92-.89,1.37-.6.85-.91,1.27-.52.71-.79,1C156.86,130.31,156.26,131,155.64,131.66Zm-25.27-20-.2.29-.37.37-.57.33a10.58,10.58,0,0,1-5.31,1.13c-4.52,0-5.71-1.46-6.16-2l-.08-.11Zm111.69,22.61c-.81.69-1.65,1.35-2.52,2l0,0a39.4,39.4,0,0,1-10.77,5.61,52.73,52.73,0,0,1-17.06,2.59q-20.32,0-31.74-13.19c-.6-.68-1.17-1.38-1.72-2.1l-.37-.5c-.5-.67-1-1.36-1.43-2.06l-.12-.18a42.59,42.59,0,0,1-2.89-5.39h0a51.07,51.07,0,0,1-2.94-8.7c0-.1-.05-.2-.07-.3-.23-.95-.43-1.92-.62-2.91,0-.08,0-.16-.05-.24-.38-2.08-.66-4.25-.87-6.51,0-.28,0-.58-.07-.87-.06-.84-.11-1.69-.16-2.55,0-.32,0-.63,0-.95,0-1.14-.07-2.3-.07-3.49s0-2.16.06-3.22c0-.32,0-.64.05-1,0-.74.08-1.49.13-2.22,0-.34.05-.67.08-1,.07-.75.15-1.5.24-2.23,0-.26.05-.53.09-.78.13-1,.28-2,.45-2.95h0c.17-1,.36-1.87.56-2.79l.17-.68c.16-.7.34-1.4.53-2.08.07-.23.14-.47.2-.7.22-.73.45-1.45.69-2.15.05-.14.09-.29.14-.43.31-.87.64-1.73,1-2.56s.81-1.82,1.25-2.7l.27-.52c.45-.88.93-1.74,1.44-2.57h0c.5-.81,1-1.58,1.57-2.34l.4-.56c.56-.75,1.14-1.49,1.75-2.2a36.59,36.59,0,0,1,4.59-4.48q9-7.38,22.21-8.51,2.4-.21,4.95-.21h0c1.78,0,3.51.07,5.2.2.84.07,1.67.15,2.49.25a52.09,52.09,0,0,1,7,1.36,37.83,37.83,0,0,1,18.47,11c.68.83,1.32,1.69,1.94,2.57l.27.39c.59.86,1.16,1.73,1.7,2.63a49,49,0,0,1,3,5.86c.07.16.13.32.19.47.34.82.66,1.64,1,2.48.09.24.18.48.26.72.34,1,.67,2,1,3.07h-25a21.35,21.35,0,0,0-3.57-5.35,14.35,14.35,0,0,0-2.56-2.18,15.72,15.72,0,0,0-3.06-1.56,18.36,18.36,0,0,0-3.54-.94,24.68,24.68,0,0,0-4-.31,21.57,21.57,0,0,0-3.75.31,17.64,17.64,0,0,0-3.39.94,16.4,16.4,0,0,0-5.71,3.74q-6.42,7.15-6.42,23.55t6.42,23.19a14.34,14.34,0,0,0,4.13,3.47A15.88,15.88,0,0,0,206.8,123c.63.17,1.28.32,2,.44a24.83,24.83,0,0,0,4.34.36,22.78,22.78,0,0,0,6.88-1,17.12,17.12,0,0,0,3.46-1.52,4.8,4.8,0,0,0,1.51-.84,6,6,0,0,0,.46-.42l2-2a15.47,15.47,0,0,1,2.85-2.85c1.43-1.2,3.57-1.79,6.43-1.79h17.83c-.31,1.16-.65,2.27-1,3.36-.05.13-.08.26-.13.38-.33,1-.69,1.87-1.07,2.77l-.33.81c-.34.76-.7,1.49-1.07,2.22-.22.42-.44.84-.67,1.25-.32.57-.65,1.13-1,1.68s-.52.83-.8,1.24a37.2,37.2,0,0,1-4,5l-.26.24C243.45,133,242.77,133.68,242.06,134.29Zm80.69-45.94a47,47,0,0,0-.67-4.68,21.18,21.18,0,0,0-.59-2.24,25.2,25.2,0,0,0-2.05-4.55q-.66-1.14-1.47-2.31a16.66,16.66,0,0,0-7.23-6.07,16.28,16.28,0,0,0-2-.7,17.9,17.9,0,0,0-2.08-.46c-.36-.06-.72-.11-1.09-.15-.73-.07-1.49-.11-2.26-.11h0q-10,0-15.33,7.14t-5.35,19.62v48.87H258.4V20h12.13q.63,0,1.23.06a11.54,11.54,0,0,1,1.18.16,11.71,11.71,0,0,1,6.15,3.34,13,13,0,0,1,1.57,1.88,11.65,11.65,0,0,1,2,6.69V60.3A29,29,0,0,1,292.78,50a27.42,27.42,0,0,1,2.52-1.33,30.78,30.78,0,0,1,5.55-1.92c.9-.21,1.79-.39,2.68-.55l.83-.12c.62-.1,1.24-.18,1.85-.24.31,0,.61-.07.92-.09.61,0,1.22-.08,1.83-.1l.81,0h.33c.69,0,1.38,0,2.07.07l.47,0c.84.06,1.68.14,2.51.27h0c.83.12,1.66.28,2.48.46l.46.1q1.19.27,2.37.63l.45.15c.81.26,1.62.54,2.42.86h0a38.87,38.87,0,0,1,9.18,5.53c.7.57,1.38,1.16,2.05,1.77a44.71,44.71,0,0,1,5.54,6.26h0c.46.63.89,1.3,1.3,2,.16.28.33.55.49.84s.38.72.56,1.08c.36.72.71,1.45,1,2.21a37.61,37.61,0,0,1,2,6.13c.07.3.14.59.2.89.13.59.25,1.18.36,1.79.15.86.29,1.75.4,2.65.05.4.08.81.12,1.22.08.74.14,1.49.19,2.25,0,.38.05.75.07,1.13.05,1.14.09,2.29.09,3.49h0v55.29H323V93.48C323,91.7,322.89,90,322.75,88.35Zm111.16,54.36H421.43a12.37,12.37,0,0,1-6.93-1.91,11.48,11.48,0,0,1-4.73-6.48,14,14,0,0,1-.48-3.74V82.07q0-6.42-2.9-10.24a12.35,12.35,0,0,0-2.26-2.25c-.43-.32-.87-.63-1.32-.92a20.13,20.13,0,0,0-2-1.12,17.15,17.15,0,0,0-1.6-.69,18.85,18.85,0,0,0-5.07-1.13q-.78-.06-1.59-.06c-.53,0-1.06,0-1.58.06a18.78,18.78,0,0,0-3,.49c-.5.12-1,.27-1.45.43a18.08,18.08,0,0,0-5.36,2.94q-5,3.92-5,12.49v60.64h-25V87.06h0c0-1,0-2,.05-2.89,0-.49.05-1,.07-1.45s0-.87.07-1.29c.05-.64.11-1.27.17-1.89l.06-.71c.08-.72.17-1.42.27-2.11,0-.12,0-.25.05-.37.11-.75.24-1.48.38-2.21,0,0,0-.09,0-.14.15-.76.31-1.5.49-2.22v0a40.18,40.18,0,0,1,1.26-4.18,31.3,31.3,0,0,1,1.79-4.06h0c.33-.61.67-1.2,1-1.77l0-.07q.51-.81,1.08-1.56l.1-.15c.35-.46.72-.91,1.1-1.34.06-.07.12-.15.19-.22.35-.39.73-.77,1.11-1.14l.27-.27c.37-.35.77-.67,1.16-1l.32-.28c.51-.39,1-.77,1.58-1.12,1.05-.68,2.12-1.33,3.2-1.93s2.18-1.17,3.29-1.7a54.61,54.61,0,0,1,5.09-2.11,52.86,52.86,0,0,1,5.29-1.59c1.19-.29,2.4-.55,3.62-.76a59.49,59.49,0,0,1,7.51-.83,55.22,55.22,0,0,1,15.07,2c1.2.34,2.39.73,3.57,1.16a51.64,51.64,0,0,1,5.22,2.21,56.57,56.57,0,0,1,5,2.78l0,0c.55.34,1.07.7,1.59,1.08a2.52,2.52,0,0,0,.25.21c.43.33.85.67,1.25,1l.2.19c.41.38.82.77,1.21,1.18l.09.11c.41.45.82.91,1.21,1.4v0a28.87,28.87,0,0,1,4.13,7.34h0a44.75,44.75,0,0,1,2.42,9.27.25.25,0,0,1,0,.08c.13.83.25,1.68.35,2.55,0,.15,0,.3,0,.44.08.76.15,1.53.21,2.33,0,.36,0,.73.06,1.1,0,.59.07,1.18.09,1.79,0,1,.05,2,.05,3h0v55.65Zm86.68-28.54c-.27.9-.56,1.77-.87,2.63-.06.19-.13.37-.2.56-.3.84-.61,1.66-.94,2.46h0c-.31.75-.63,1.47-1,2.17l-.15.32c-.27.56-.54,1.11-.82,1.64-.1.18-.2.36-.29.54-.26.47-.52.92-.78,1.37l-.3.51c-.36.58-.73,1.16-1.11,1.71q-8.55,11.78-21.75,14.63a48.51,48.51,0,0,1-23.73.53q-12-2.67-19.08-9.1c-.57-.48-1.12-1-1.65-1.53-.35-.34-.68-.7-1-1.07l-.46-.5c-.43-.48-.83-1-1.23-1.48a.76.76,0,0,0-.11-.14c-.43-.56-.84-1.13-1.24-1.72h0a38.78,38.78,0,0,1-5-10.85,79.24,79.24,0,0,1-3.22-22.65,71.55,71.55,0,0,1,2.68-19.27,45.57,45.57,0,0,1,3-8h0c.36-.75.75-1.47,1.15-2.18l0,0c.38-.67.78-1.31,1.19-1.94l.12-.18c.38-.57.78-1.12,1.18-1.66l.23-.3c.47-.62,1-1.21,1.47-1.79a37,37,0,0,1,23.9-12.66q14.63-2,26.4,2.32a36.33,36.33,0,0,1,20,18.54c.52,1,1,2,1.45,3.06h0c.4.94.78,1.9,1.13,2.87.14.37.25.76.38,1.13.21.64.42,1.28.62,1.93.12.43.24.87.35,1.31.17.62.33,1.24.48,1.87.1.45.2.91.29,1.38.14.63.26,1.28.37,1.93.08.46.16.93.23,1.4.1.68.19,1.37.27,2.06,0,.45.11.9.15,1.36.08.78.13,1.56.18,2.35,0,.4.06.78.08,1.18.06,1.2.09,2.4.09,3.63A68,68,0,0,1,520.59,114.17Zm89.28,2.51c-.07.21-.13.42-.2.62-.31.88-.65,1.73-1,2.57-.17.39-.33.78-.51,1.17-.29.66-.61,1.3-.93,1.93s-.58,1.09-.88,1.62a1.4,1.4,0,0,1-.1.16c-.61,1.06-1.26,2.08-2,3.06h0c-.58.81-1.19,1.6-1.83,2.36a.27.27,0,0,1-.07.08c-.6.72-1.24,1.42-1.9,2.09l-.55.52c-.53.51-1.07,1-1.63,1.51-.79.67-1.6,1.31-2.45,1.91h0a39.4,39.4,0,0,1-10.77,5.61A52.75,52.75,0,0,1,568,144.49q-20.34,0-31.75-13.19c-.65-.73-1.26-1.5-1.86-2.29l-.39-.53c-.59-.8-1.16-1.63-1.69-2.49h0c-.54-.87-1.05-1.78-1.53-2.71-.07-.15-.15-.29-.22-.44-.48-1-.94-1.94-1.36-3h0c-.34-.82-.65-1.66-1-2.52l-.18-.52c-.23-.71-.46-1.42-.67-2.15l-.18-.63c-.21-.77-.41-1.56-.6-2.36,0-.15-.07-.29-.1-.44-.22-1-.42-2-.59-3v0c-.16-1-.3-1.94-.43-2.93,0-.29-.07-.58-.1-.87-.09-.74-.16-1.48-.23-2.24,0-.35-.06-.69-.08-1-.06-.75-.1-1.51-.14-2.28,0-.33,0-.66-.05-1,0-1.09-.06-2.2-.06-3.34s0-2.14.06-3.19c0-.33,0-.64.05-1,0-.73.08-1.45.13-2.17,0-.35,0-.69.08-1,.07-.72.14-1.43.22-2.13,0-.29.07-.58.1-.87.13-1,.27-1.92.43-2.86h0q.25-1.44.57-2.82c0-.22.1-.43.15-.64.16-.7.34-1.39.53-2.07l.21-.75c.19-.66.4-1.31.61-2l.21-.63c.29-.83.6-1.64.93-2.44h0c.39-1,.83-1.88,1.28-2.79l.27-.54c.46-.89.93-1.76,1.44-2.6h0c.51-.83,1.05-1.63,1.61-2.42.13-.19.27-.37.4-.55.57-.77,1.16-1.53,1.78-2.25q11.42-13.2,31.75-13.2,21.41,0,33.17,12.84c.51.62,1,1.26,1.47,1.9s.74,1,1.09,1.57l.24.34q1.29,2,2.38,4h0a50.34,50.34,0,0,1,2.25,4.88l.07.15c.29.75.57,1.52.83,2.29l.13.36c.29.87.57,1.76.82,2.67h-25a21.63,21.63,0,0,0-3.56-5.35c-3.11-3.32-7.5-5-13.21-5a17.42,17.42,0,0,0-12.84,5q-6.42,7.15-6.42,23.55t6.42,23.19a14.21,14.21,0,0,0,4.13,3.47,15.88,15.88,0,0,0,3.48,1.43c.62.17,1.28.32,2,.44s1.38.21,2.11.27,1.47.09,2.24.09a22.9,22.9,0,0,0,6.89-1,17.12,17.12,0,0,0,3.46-1.52,4.55,4.55,0,0,0,1-.49,5.57,5.57,0,0,0,.94-.77l2-2a15.14,15.14,0,0,1,2.85-2.85,7.57,7.57,0,0,1,3.51-1.54,14.71,14.71,0,0,1,1.87-.23l1,0h17.83C610.55,114.56,610.22,115.63,609.87,116.68Zm-6.07-13.22H593c-5.27,0-9.59,1.39-12.86,4.13a27.72,27.72,0,0,0-4,3.94c-.25.26-.5.5-.74.74l-.06.07-.58.33a10.58,10.58,0,0,1-5.31,1.13c-4.52,0-5.7-1.46-6.15-2l-.24-.3-.26-.28c-1.11-1.17-3.68-5.09-3.68-16.31,0-10.52,2.23-14.92,3.69-16.67,1-.91,2.51-1.87,5.57-1.87,4.2,0,5.48,1.37,5.9,1.82l.09.1.1.1a11.81,11.81,0,0,1,1.75,2.83L579,86.71h34.4A30.9,30.9,0,0,0,603.8,103.46Zm89.09,1.44q0,14.26-5.18,22.29c-.41.64-.83,1.25-1.25,1.84-.21.29-.43.56-.64.84s-.44.58-.67.86-.44.53-.67.79-.45.54-.69.79-.45.49-.68.73l-.74.74-.69.65-.8.71-.68.56c-.29.24-.59.46-.89.68l-.65.47c-.34.24-.69.46-1,.68-.18.12-.36.24-.55.35-.54.32-1.09.63-1.65.91a44,44,0,0,1-15.87,4.81,143.37,143.37,0,0,1-14.81.89,37.33,37.33,0,0,1-22.48-7c-.38-.28-.76-.57-1.12-.87l-.5-.44-.54-.48c-.22-.21-.42-.43-.63-.64l-.33-.34c-.24-.26-.47-.53-.69-.8l-.2-.23c-.24-.31-.48-.62-.71-.94l-.1-.15c-.25-.34-.48-.7-.71-1.06,0,0,0-.05,0-.08-.24-.38-.46-.77-.68-1.18v0c-.22-.41-.43-.83-.63-1.27a34.81,34.81,0,0,1-2.73-14.5,36,36,0,0,1,1.55-11.07h0a23.08,23.08,0,0,1,2-4.54l.05-.07c.24-.4.49-.79.75-1.18l.19-.27q.33-.47.69-.9l.27-.34c.22-.26.46-.52.69-.77l.32-.34c.25-.25.51-.48.77-.72l.31-.29c.38-.32.76-.63,1.15-.92q8.75-6.42,22.29-8.56a21.47,21.47,0,0,0,4.29-.53,57.46,57.46,0,0,1,5.71-.9q15.69-2.13,15.69-9.27,0-5.34-5.53-7a36.28,36.28,0,0,0-10.16-1.61,26,26,0,0,0-8.92,1.43A9.73,9.73,0,0,0,639,72.08h-23.9a29.87,29.87,0,0,1,1.62-6.53,27.06,27.06,0,0,1,2.2-4.53l.3-.49c.25-.39.5-.78.77-1.16s.58-.79.89-1.17.52-.64.79-1,.73-.82,1.11-1.21l.54-.55c.57-.55,1.15-1.09,1.77-1.61q9.63-8.19,27.47-8.2,20,0,30,6.78c.46.31.9.64,1.32,1l.36.29.88.73.36.34c.27.24.54.49.79.75l.33.33.74.81.27.32c.25.3.49.59.72.9l.21.28c.24.33.47.66.69,1l.15.23c.24.37.46.75.68,1.14a1,1,0,0,0,.08.14c.23.44.45.88.66,1.34s.3.69.44,1c0,.06,0,.12.07.19.13.32.24.64.35,1l.1.31.27.92c0,.14.07.28.11.42.07.29.13.58.2.87s.07.36.1.54.1.53.14.8.06.45.09.68.07.47.09.71,0,.58.07.88,0,.38,0,.57c0,.5,0,1,0,1.5Zm132,37.81a13.93,13.93,0,0,1-3.74-.48,10.93,10.93,0,0,1-2.19-.85,10,10,0,0,1-1-.58,11.3,11.3,0,0,1-4.73-6.48,14,14,0,0,1-.48-3.74V82.07a19.33,19.33,0,0,0-1.29-7.41,12,12,0,0,0-3.88-5.08,21.87,21.87,0,0,0-2.66-1.72,19.37,19.37,0,0,0-2.82-1.22,19,19,0,0,0-17.7,2.94c-.2.15-.38.33-.57.49a13.38,13.38,0,0,0-1,1,12.24,12.24,0,0,0-2.3,3.61,15.93,15.93,0,0,0-1,3.41A19.19,19.19,0,0,0,779.3,80q-.09,1-.09,2.07v60.64H754.6V82.07a19.14,19.14,0,0,0-1.3-7.41,12,12,0,0,0-3.88-5.08c-.43-.32-.86-.63-1.31-.92s-.89-.55-1.35-.8a18.45,18.45,0,0,0-5.79-2,20.27,20.27,0,0,0-3.14-.24,19.91,19.91,0,0,0-3.12.24,18.07,18.07,0,0,0-2.94.74A17.82,17.82,0,0,0,729,67.86a19.72,19.72,0,0,0-2.59,1.72c-.26.21-.51.42-.75.64a11.82,11.82,0,0,0-1.89,2.27,13.17,13.17,0,0,0-.95,1.79,15,15,0,0,0-.71,2,19.56,19.56,0,0,0-.62,3.7c0,.66-.08,1.35-.08,2.07v60.64h-25V87.06c0-1.18,0-2.31.07-3.43,0-.33,0-.65.05-1,0-.8.1-1.6.16-2.37l.09-1c.09-.86.19-1.69.3-2.51,0-.18,0-.37.07-.54.16-1,.34-2,.54-3l0,0c.19-.93.42-1.83.66-2.71l.13-.46c.23-.77.47-1.53.73-2.26l.12-.34a32.46,32.46,0,0,1,2.2-4.75h0c.42-.73.87-1.41,1.33-2.07l.36-.5c.19-.26.39-.51.59-.76s.35-.42.53-.62.34-.41.53-.61c.34-.37.7-.73,1.07-1.08l.44-.39c.29-.26.59-.51.89-.75l.42-.34c.44-.33.89-.66,1.36-1,1-.68,2.12-1.33,3.21-1.93a54.41,54.41,0,0,1,5-2.46q1.69-.74,3.42-1.35c1.15-.41,2.32-.78,3.5-1.12a57.63,57.63,0,0,1,12.91-2.06,72.67,72.67,0,0,1,8.11.45,70.91,70.91,0,0,1,7.95,1.34,33.17,33.17,0,0,1,9.25,3.62,35.39,35.39,0,0,1,5,3.51h0a30.58,30.58,0,0,1,2.8-2.15,30.91,30.91,0,0,1,3-1.82c.75-.39,1.52-.74,2.31-1.07A34.22,34.22,0,0,1,780.1,48c.7-.19,1.4-.34,2.1-.5A70.09,70.09,0,0,1,791,46c1.43-.15,2.86-.26,4.32-.33a53.78,53.78,0,0,1,28.89,8.2c.48.31,1,.63,1.41,1l.36.27c.42.32.83.66,1.23,1l.18.15c.37.34.74.7,1.09,1.07l.42.44c.28.31.56.63.83,1s.35.43.52.66.46.6.68.92.32.47.47.71.31.49.46.73q.42.7.81,1.44c.1.19.21.38.3.58s.34.69.51,1.05l.18.42c.32.74.63,1.52.91,2.32a1.07,1.07,0,0,1,.07.19c.16.45.31.92.46,1.39l0,.13c.3,1,.57,2,.8,3h0c.12.53.23,1.06.34,1.61l0,.15c.17.92.32,1.87.46,2.84l.09.7q.09.65.15,1.32c0,.47.1.95.14,1.43l.09,1.24c0,.66.08,1.32.11,2,0,.26,0,.53,0,.8,0,.87.05,1.75.05,2.66v55.65H824.88ZM926.25,126l0,.06c-.31.54-.64,1.07-1,1.59l-.28.43c-.26.4-.52.81-.8,1.2-.39.56-.79,1.11-1.2,1.64q-10.71,13.56-27.46,13.55a36.26,36.26,0,0,1-15.7-3.2,26.89,26.89,0,0,1-11.42-11.06v35.31a12.15,12.15,0,0,1-12.12,12.12H844.13V88.84a59.91,59.91,0,0,1,2-16.27,37.71,37.71,0,0,1,2.07-5.63A31,31,0,0,1,851,62.09a27.1,27.1,0,0,1,7.77-7.32,59,59,0,0,1,31.75-9.09,51.3,51.3,0,0,1,18,3.39A33.65,33.65,0,0,1,923,58.88q.78,1,1.5,2.07l.4.61q.52.8,1,1.62c.13.2.25.41.37.62.37.63.73,1.27,1.07,1.92l.18.34c.41.81.81,1.63,1.18,2.47h0c.38.86.73,1.73,1.07,2.62.07.17.13.35.2.53.29.8.57,1.61.83,2.44,0,.11.07.22.11.33.29.94.55,1.91.8,2.88l.09.41c.2.83.39,1.67.55,2.52,0,.24.1.48.14.72.17.89.32,1.8.45,2.72A2.87,2.87,0,0,1,933,84c.14,1,.26,2,.35,3.1,0,.26,0,.53.07.79.06.81.12,1.63.16,2.47,0,.3,0,.6,0,.91,0,1.08.07,2.17.07,3.27,0,.34,0,.67,0,1h0c0,1,0,2-.08,2.91v0c0,1-.1,1.9-.18,2.83a67.42,67.42,0,0,1-2.06,12.31h0a52.38,52.38,0,0,1-4.14,10.65h0C926.9,124.88,926.58,125.45,926.25,126ZM1020,112.39a33.74,33.74,0,0,1-1.82,11.35c-.23.65-.48,1.28-.75,1.9a26.64,26.64,0,0,1-6.17,8.75,30.94,30.94,0,0,1-2.68,2.25,31.51,31.51,0,0,1-6,3.44,37.1,37.1,0,0,1-3.51,1.34,61.83,61.83,0,0,1-14.92,2.79q-3.64.28-7.66.28h0a79.64,79.64,0,0,1-11.69-.8,52.63,52.63,0,0,1-7.91-1.79,32.15,32.15,0,0,1-10.72-5.61c-.45-.36-.89-.73-1.31-1.12l-.36-.33c-.3-.28-.6-.57-.88-.86l-.36-.38c-.27-.29-.54-.58-.8-.88l-.31-.39-.76-1-.26-.37c-.25-.35-.49-.7-.72-1.06l-.21-.33c-.24-.39-.47-.79-.7-1.2l-.14-.26c-.24-.44-.46-.9-.68-1.36,0-.06,0-.11-.07-.16-.24-.53-.46-1.06-.67-1.6s-.3-.84-.44-1.27c0-.07-.05-.14-.07-.21-.12-.39-.24-.79-.35-1.19,0-.12-.06-.24-.1-.36-.09-.37-.18-.74-.26-1.12,0-.17-.08-.34-.11-.51-.07-.34-.14-.7-.2-1.05s-.07-.43-.11-.65-.1-.65-.14-1l-.09-.81L936,116c0-.35-.05-.7-.07-1.06s0-.46,0-.7c0-.61,0-1.22,0-1.84h0v-1.07h24.26a18.29,18.29,0,0,0,.46,3.35,13.75,13.75,0,0,0,1.05,2.89,11.9,11.9,0,0,0,2.66,3.51,14,14,0,0,0,1.18,1,21.1,21.1,0,0,0,8.08,3.07,36.1,36.1,0,0,0,6.19.5h0a28.89,28.89,0,0,0,4.56-.35,20.65,20.65,0,0,0,6.5-2.15,11,11,0,0,0,1.87-1.36,7.87,7.87,0,0,0,1.34-1.58,7.07,7.07,0,0,0,1.07-3.84,5.2,5.2,0,0,0-.53-2.29,7,7,0,0,0-1.58-2.07,9.85,9.85,0,0,0-.76-.64,13.84,13.84,0,0,0-1.88-1.2q-.53-.28-1.11-.57a43.41,43.41,0,0,0-9.13-2.86c-1.6-.27-3.06-.53-4.36-.8l-1.25-.27a41.5,41.5,0,0,1-4-1.06c-1.41-.35-2.75-.7-4.06-1.06l-1-.27c-2-.57-3.85-1.15-5.59-1.75s-3.6-1.32-5.18-2a45.57,45.57,0,0,1-4.31-2.14,28.33,28.33,0,0,1-3.43-2.26,19.15,19.15,0,0,1-1.8-1.58c-.52-.47-1-1-1.46-1.46h0c-.37-.4-.7-.82-1-1.24l-.36-.44c-.28-.39-.54-.78-.8-1.19-.14-.21-.28-.41-.4-.63-.23-.38-.43-.77-.63-1.16s-.27-.53-.39-.79-.33-.76-.48-1.14-.23-.64-.34-1-.24-.73-.34-1.1-.19-.77-.27-1.16-.16-.69-.22-1-.14-1-.2-1.47c0-.29-.08-.57-.1-.86C938,78,938,77.2,938,76.36h0c0-.7,0-1.39.07-2.06l0-.48c.05-.59.11-1.18.19-1.76,0-.07,0-.15,0-.23a30.58,30.58,0,0,1,.88-4.11,27.84,27.84,0,0,1,2.34-5.6l.09-.16c.29-.52.61-1,.94-1.55l.12-.18A29.35,29.35,0,0,1,945,57.1l.33-.36c.34-.37.69-.74,1-1.1l.4-.39c.48-.47,1-.92,1.49-1.37q10.69-8.19,27.82-8.2,18.54,0,29.6,8.2a31.67,31.67,0,0,1,6.41,7.45,30.56,30.56,0,0,1,1.53,2.81,28.05,28.05,0,0,1,1.24,3,31.87,31.87,0,0,1,.93,3.15,36.4,36.4,0,0,1,.83,5c.05.58.1,1.17.12,1.76h-15.33A14.67,14.67,0,0,1,999.8,77a11.34,11.34,0,0,1-3.43-1,10.67,10.67,0,0,1-3.29-2.34,1.46,1.46,0,0,1-.16-.19A14.27,14.27,0,0,1,991.1,71l-2.85-2.85a16,16,0,0,0-6.86-2.8,27.77,27.77,0,0,0-4.92-.42c-4.55,0-8,.67-10.37,2l-.33.17a7.38,7.38,0,0,0-.75.57,5.62,5.62,0,0,0-.65.64A6.72,6.72,0,0,0,963,70.6a8.82,8.82,0,0,0-.45,2.9,3.36,3.36,0,0,0,.08.71,3.88,3.88,0,0,0,.58,1.37q2.82,4.36,17.89,7.55c.36.12.7.24,1,.34,1,.32,1.91.56,2.71.73a13.35,13.35,0,0,0,3,.36c1.52.39,3,.78,4.38,1.18,3,.86,5.72,1.76,8.18,2.68,1,.38,2,.76,2.87,1.14s2,.9,3,1.36c1.24.61,2.36,1.22,3.39,1.85.55.33,1.07.67,1.56,1a24.55,24.55,0,0,1,2,1.5,20.79,20.79,0,0,1,4.13,5.42,24.63,24.63,0,0,1,2.65,11.7Z"/></g></g></svg>