<svg xmlns="http://www.w3.org/2000/svg" viewBox="0 0 1400 250"><defs><style>.cls-1{fill:#fff;}.cls-2{fill:none;stroke:#000;stroke-miterlimit:10;stroke-width:6px;}.cls-3{fill:#e7cb1b;}.cls-4{fill:#4a4947;}.cls-5{font-size:61px;font-family:MyriadPro-Regular, Myriad Pro;}</style></defs><g id="Layer_7" data-name="Layer 7"><rect class="cls-1" x="19.93" y="24.56" width="1200.07" height="202.66"/></g><g id="Layer_5" data-name="Layer 5"><line class="cls-2" x1="178.37" y1="71.08" x2="178.37" y2="150.74"/><polygon points="163.41 75.46 178.37 49.56 193.33 75.46 163.41 75.46"/><polygon points="163.41 146.36 178.37 172.26 193.33 146.36 163.41 146.36"/><rect x="59.9" y="44.56" width="200" height="5"/><rect x="59.9" y="172.26" width="200" height="5"/></g><g id="Layer_1" data-name="Layer 1"><path class="cls-3" d="M259.9,172.26c-7.84.48-37,.36-46.16-.36S200,165.37,200,154.43V49.56h12.84a11.24,11.24,0,0,1,8.2,3.56,11.73,11.73,0,0,1,3.57,8.56V77.74h36.28v5a11.55,11.55,0,0,1-3.57,8.74,12,12,0,0,1-8.56,3.39H224.61v52.79q0,6.07,7.13,6.07H259.9v18.54"/><path class="cls-3" d="M327.46,143H345.3q-3.93,15-15,22.84-11.06,8.19-27.82,8.2-20.34,0-31.75-13.2Q259.33,148,259.34,124.11q0-22.83,11.05-35.67,11.42-13.2,31.74-13.2,21.4,0,33.19,12.84,11.4,13.2,11.41,36.74v3.92a6,6,0,0,1-.36,2.5H284.66q.34,11.07,5.35,16.41,4.64,5.7,13.91,5.7a20.28,20.28,0,0,0,10.35-2.48,5,5,0,0,0,2-1.26l2-2a7.86,7.86,0,0,1,2.67-2.85,10.58,10.58,0,0,1,6.6-1.79m-42.8-27.82h36.39c-.49-6.42-2.14-11.18-5-14.27q-4.64-5-13.2-5a17.42,17.42,0,0,0-12.84,5Q285,105.93,284.66,115.19Z"/><path class="cls-3" d="M416.65,143h17.83q-3.93,15-15,22.84-11.06,8.19-27.83,8.2-20.32,0-31.74-13.2Q348.5,148,348.51,124.11q0-22.83,11.06-35.67,11.42-13.2,31.75-13.2,21.4,0,33.17,12.84a49.11,49.11,0,0,1,9.28,18.19h-25a21.17,21.17,0,0,0-3.57-5.35q-4.64-5-13.19-5a17.42,17.42,0,0,0-12.85,5q-6.42,7.14-6.42,23.54t6.42,23.19q4.63,5.7,13.91,5.7a20.2,20.2,0,0,0,10.34-2.48,5,5,0,0,0,2-1.26c.59-.58,1.24-1.25,2-2a15.78,15.78,0,0,1,2.85-2.85c1.43-1.2,3.57-1.79,6.43-1.79"/><path class="cls-3" d="M498,104.13a17,17,0,0,0-14.62-7.5c-6.66,0-11.77,2.4-15.33,7.14s-5.35,11.31-5.35,19.63v48.86H438.4V49.56h12.13a12.19,12.19,0,0,1,12.14,12.12V89.86a28.3,28.3,0,0,1,18.18-13.55,36.23,36.23,0,0,1,22.48,1.43A40.18,40.18,0,0,1,520.1,91.3q6.76,9.27,6.77,25.67v55.29H503V123a50.47,50.47,0,0,0-.89-9.8,24.63,24.63,0,0,0-4.11-9.1"/><path class="cls-3" d="M613.91,172.26H601.43a11.63,11.63,0,0,1-12.14-12.12V111.62q0-8.57-5.16-12.48a18.72,18.72,0,0,0-11.6-3.92,18,18,0,0,0-11.42,3.92q-5,3.92-5,12.48v60.64h-25V116.61q0-24.24,12.67-32.45a55.3,55.3,0,0,1,28-8.92,53.73,53.73,0,0,1,28.9,8.2q13.18,8.22,13.19,33.17v55.65"/><path class="cls-3" d="M629.61,163.7a35.14,35.14,0,0,1-10.7-17.3,79.24,79.24,0,0,1-3.22-22.65,71.42,71.42,0,0,1,2.68-19.26,39.75,39.75,0,0,1,8.38-16,37,37,0,0,1,23.9-12.66q14.63-2,26.4,2.31a36.4,36.4,0,0,1,20,18.54q6.08,11.79,6.07,27.48a67.9,67.9,0,0,1-2.5,19.61,50.15,50.15,0,0,1-6.42,13.92q-8.55,11.78-21.75,14.62a48.51,48.51,0,0,1-23.73.54q-12-2.67-19.08-9.1m17.12-62.78q-7.5,8.2-6.78,24.43T646,148q2.13,2.87,7.48,4.82a17.12,17.12,0,0,0,10.89.35q5.52-1.6,9.8-8t4.64-20.7q0-12.84-4.1-19.26c-2.74-4.28-5.88-7-9.45-8.2a17.24,17.24,0,0,0-10.7-.18C651,97.89,648.39,99.26,646.73,100.92Z"/><path class="cls-4" d="M773,143h17.83q-3.93,15-15,22.84Q764.79,174,748,174.05q-20.34,0-31.75-13.2Q704.88,148,704.87,124.11q0-22.83,11.06-35.67,11.42-13.2,31.75-13.2,21.41,0,33.17,12.84a49,49,0,0,1,9.28,18.19h-25a21.44,21.44,0,0,0-3.56-5.35c-3.11-3.32-7.5-5-13.21-5a17.42,17.42,0,0,0-12.84,5q-6.42,7.14-6.42,23.54t6.42,23.19c3.08,3.8,7.73,5.7,13.91,5.7a20.26,20.26,0,0,0,10.35-2.48,5.06,5.06,0,0,0,2-1.26l2-2a15.45,15.45,0,0,1,2.85-2.85C768,143.6,770.15,143,773,143"/><path class="cls-4" d="M855.41,168.34a43.57,43.57,0,0,1-15.87,4.81,140.87,140.87,0,0,1-14.81.9,37.4,37.4,0,0,1-22.48-7q-9.62-6.94-9.62-23,0-15,8.73-21.41t22.29-8.57a21.37,21.37,0,0,0,4.29-.52,57.46,57.46,0,0,1,5.71-.9q15.69-2.13,15.69-9.27c0-3.57-1.85-5.88-5.53-7a36.61,36.61,0,0,0-10.16-1.6,26.25,26.25,0,0,0-8.92,1.42,9.78,9.78,0,0,0-5.71,5.36h-23.9a27.53,27.53,0,0,1,10-18.2q9.63-8.2,27.47-8.2,20,0,30,6.77,10.35,7.15,10.35,20v32.47q0,14.26-5.18,22.29a31.54,31.54,0,0,1-12.3,11.59m-5.7-43.88a66.35,66.35,0,0,1-13.92,4.64l-8.21,1.78c-4.27,1.2-7.37,2.75-9.27,4.64a14.51,14.51,0,0,0-2.5,7.85,11.55,11.55,0,0,0,3.21,8.56q3.21,2.87,9.28,2.86,10,0,15.69-5.72t5.72-15.69Z"/><path class="cls-4" d="M959.21,172.26H934.6V111.62q0-8.57-5.18-12.48a18.67,18.67,0,0,0-11.59-3.92,17.93,17.93,0,0,0-11.41,3.92q-5,3.92-5,12.48v60.64h-25V116.61q0-24.24,12.66-32.45a55.36,55.36,0,0,1,28-8.92A72.86,72.86,0,0,1,933.18,77a33.85,33.85,0,0,1,14.26,7.14,31.51,31.51,0,0,1,12.66-6.6,70.17,70.17,0,0,1,15.17-2.32,53.67,53.67,0,0,1,28.89,8.2q13.19,8.22,13.2,33.17v55.65h-12.48a11.63,11.63,0,0,1-12.14-12.12V111.62q0-8.57-5.17-12.48a19.09,19.09,0,0,0-23.18,0q-5.17,3.92-5.18,12.48v60.64"/><path class="cls-4" d="M1048.39,195.1a12.17,12.17,0,0,1-12.12,12.12h-12.14V118.4q0-25,14.63-34.07a59,59,0,0,1,31.75-9.09,51.51,51.51,0,0,1,18,3.38A33.75,33.75,0,0,1,1103,88.44q10.69,13.92,10.7,35.67,0,22.47-10.7,36.39-10.71,13.56-27.46,13.55a36.26,36.26,0,0,1-15.7-3.21,26.77,26.77,0,0,1-11.42-11.06V195.1m40.67-69.92q0-13.92-5.35-21.41t-15.34-7.49q-9.63,0-15,7.49-5,6.8-5,21.41,0,13.56,5.35,20.33,5.35,7.49,15.34,7.49a17,17,0,0,0,14.63-7.49Q1089.05,138,1089.06,125.18Z"/><path class="cls-4" d="M1115.81,140.88h24.26q.35,7.13,5.35,10.69,5.36,3.57,14.27,3.58a23,23,0,0,0,11.06-2.51c2.85-1.66,4.28-3.91,4.28-6.77q0-6.42-15-9.63a69.66,69.66,0,0,1-9.63-2.14q-18.92-4.64-25.32-11.07-7.15-6.42-7.14-17.12a28.37,28.37,0,0,1,10.35-22.47q10.7-8.2,27.82-8.2,18.54,0,29.6,8.2,10.37,8.91,11.06,23.19h-15.33a11.34,11.34,0,0,1-10.35-6.06c-.95-.95-1.9-1.91-2.85-2.85q-4.29-3.23-11.78-3.22c-4.75,0-8.32.72-10.7,2.13a7.24,7.24,0,0,0-3.21,6.43q0,5.72,18.55,9.63a35.59,35.59,0,0,0,3.75,1.07,13.9,13.9,0,0,0,3,.35q18.19,4.67,25.33,10.71Q1200,131.24,1200,142q0,15.7-11.42,24.25-10.69,7.85-32.11,7.85-20.33,0-30.32-8.2-10.35-8.21-10.34-23.9v-1.07"/></g><g id="Layer_6" data-name="Layer 6"><text class="cls-5" transform="translate(32.11 128.49)">5mm</text></g></svg>