<svg xmlns="http://www.w3.org/2000/svg" viewBox="0 0 1161.01 255.75"><defs><style>.cls-1{fill:#fff;}.cls-2{fill:none;stroke:#000;stroke-miterlimit:10;stroke-width:2px;}.cls-3{fill:#e7cb1b;}.cls-4{fill:#4a4947;}.cls-5{font-size:22px;font-family:MyriadPro-Regular, Myriad Pro;}</style></defs><g id="Layer_3" data-name="Layer 3"><rect width="1161.01" height="255.75"/><rect class="cls-1" x="40.2" y="40.3" width="1080.61" height="175.14"/></g><g id="Layer_4" data-name="Layer 4"><rect class="cls-1" x="80.5" y="80.61" width="1000" height="94.53"/><path d="M1056.5,80.61h-12v2h12v-2Zm-24,0h-12v2h12v-2Zm-24,0h-12v2h12v-2Zm-24,0h-12v2h12v-2Zm-24,0h-12v2h12v-2Zm-24,0h-12v2h12v-2Zm-24,0h-12v2h12v-2Zm-24,0h-12v2h12v-2Zm-24,0h-12v2h12v-2Zm-24,0h-12v2h12v-2Zm-24,0h-12v2h12v-2Zm-24,0h-12v2h12v-2Zm-24,0h-12v2h12v-2Zm-24,0h-12v2h12v-2Zm-24,0h-12v2h12v-2Zm-24,0h-12v2h12v-2Zm-24,0h-12v2h12v-2Zm-24,0h-12v2h12v-2Zm-24,0h-12v2h12v-2Zm-24,0h-12v2h12v-2Zm-24,0h-12v2h12v-2Zm-24,0h-12v2h12v-2Zm-24,0h-12v2h12v-2Zm-24,0h-12v2h12v-2Zm-24,0h-12v2h12v-2Zm-24,0h-12v2h12v-2Zm-24,0h-12v2h12v-2Zm-24,0h-12v2h12v-2Zm-24,0h-12v2h12v-2Zm-24,0h-12v2h12v-2Zm-24,0h-12v2h12v-2Zm-24,0h-12v2h12v-2Zm-24,0h-12v2h12v-2Zm-24,0h-12v2h12v-2Zm-24,0h-12v2h12v-2Zm-24,0h-12v2h12v-2Zm-24,0h-12v2h12v-2Zm-24,0h-12v2h12v-2Zm-24,0h-12v2h12v-2Zm-24,0h-12v2h12v-2Zm-24,0h-12v2h12v-2Zm-14,8h-2v12h2v-12Zm0,24h-2v12h2v-12Zm0,24h-2v12h2v-12Zm0,24h-2v12h2v-12ZM102,173.14H90v2h12v-2Zm24,0H114v2h12v-2Zm24,0H138v2h12v-2Zm24,0H162v2h12v-2Zm24,0H186v2h12v-2Zm24,0H210v2h12v-2Zm24,0H234v2h12v-2Zm24,0H258v2h12v-2Zm24,0H282v2h12v-2Zm24,0H306v2h12v-2Zm24,0H330v2h12v-2Zm24,0H354v2h12v-2Zm24,0H378v2h12v-2Zm24,0H402v2h12v-2Zm24,0H426v2h12v-2Zm24,0H450v2h12v-2Zm24,0H474v2h12v-2Zm24,0H498v2h12v-2Zm24,0H522v2h12v-2Zm24,0H546v2h12v-2Zm24,0H570v2h12v-2Zm24,0H594v2h12v-2Zm24,0H618v2h12v-2Zm24,0H642v2h12v-2Zm24,0H666v2h12v-2Zm24,0H690v2h12v-2Zm24,0H714v2h12v-2Zm24,0H738v2h12v-2Zm24,0H762v2h12v-2Zm24,0H786v2h12v-2Zm24,0H810v2h12v-2Zm24,0H834v2h12v-2Zm24,0H858v2h12v-2Zm24,0H882v2h12v-2Zm24,0H906v2h12v-2Zm24,0H930v2h12v-2Zm24,0H954v2h12v-2Zm24,0H978v2h12v-2Zm24,0h-12v2h12v-2Zm24,0h-12v2h12v-2Zm24,0h-12v2h12v-2Zm18.53-3.47h-2v3.47H1074v2h6.53v-5.47Zm0-24h-2v12h2v-12Zm0-24h-2v12h2v-12Zm0-24h-2v12h2v-12Zm0-17.06h-12v2h10v3.06h2V80.61Z"/></g><g id="Layer_5" data-name="Layer 5"><line class="cls-2" x1="350.34" y1="153.25" x2="376.3" y2="153.25"/><polygon points="351.8 158.24 343.17 153.25 351.8 148.26 351.8 158.24"/><polygon points="374.84 158.24 383.47 153.25 374.84 148.26 374.84 158.24"/><line class="cls-2" x1="47.37" y1="127.87" x2="73.33" y2="127.87"/><polygon points="48.83 132.86 40.2 127.87 48.83 122.89 48.83 132.86"/><polygon points="71.87 132.86 80.5 127.87 71.87 122.89 71.87 132.86"/><line class="cls-2" x1="580.5" y1="47.48" x2="580.5" y2="73.43"/><polygon points="575.52 48.94 580.5 40.3 585.49 48.94 575.52 48.94"/><polygon points="575.52 71.97 580.5 80.61 585.49 71.97 575.52 71.97"/><line class="cls-2" x1="580.5" y1="182.31" x2="580.5" y2="208.27"/><polygon points="575.52 183.77 580.5 175.14 585.49 183.77 575.52 183.77"/><polygon points="575.52 206.81 580.5 215.44 585.49 206.81 575.52 206.81"/><line class="cls-2" x1="1087.68" y1="127.85" x2="1113.63" y2="127.85"/><polygon points="1089.14 132.84 1080.5 127.85 1089.14 122.87 1089.14 132.84"/><polygon points="1112.17 132.84 1120.81 127.85 1112.17 122.87 1112.17 132.84"/></g><g id="Layer_1" data-name="Layer 1"><path class="cls-3" d="M140.41,175.14c-7.85.47-37,.35-46.17-.36S80.5,168.24,80.5,157.3V52.43H93.34a11.28,11.28,0,0,1,8.2,3.56,11.69,11.69,0,0,1,3.57,8.57v16h36.28v5a11.5,11.5,0,0,1-3.57,8.73,11.93,11.93,0,0,1-8.56,3.39H105.11v52.8q0,6.06,7.14,6.06h28.16v18.55"/><path class="cls-3" d="M208,145.89H225.8q-3.93,15-15,22.83-11.07,8.21-27.83,8.2-20.34,0-31.75-13.19Q139.83,150.88,139.84,127q0-22.82,11-35.67,11.42-13.2,31.75-13.2Q204,78.11,215.82,91q11.42,13.22,11.42,36.75v3.92a5.94,5.94,0,0,1-.37,2.49H165.16q.34,11.07,5.35,16.42,4.63,5.7,13.92,5.7a20.27,20.27,0,0,0,10.34-2.49,5,5,0,0,0,2-1.26l2-1.95c.23-.72,1.12-1.66,2.67-2.85s3.74-1.79,6.6-1.79m-42.81-27.83h36.39q-.72-9.63-5-14.27-4.63-5-13.19-5a17.42,17.42,0,0,0-12.85,5Q165.52,108.8,165.16,118.06Z"/><path class="cls-3" d="M297.15,145.89H315q-3.92,15-15,22.83-11.06,8.21-27.82,8.2-20.34,0-31.75-13.19Q229,150.88,229,127q0-22.82,11.06-35.67,11.42-13.2,31.75-13.2,21.4,0,33.18,12.84a49,49,0,0,1,9.27,18.19h-25a21.35,21.35,0,0,0-3.57-5.35q-4.64-5-13.19-5a17.42,17.42,0,0,0-12.85,5q-6.42,7.15-6.42,23.55t6.42,23.19q4.63,5.7,13.92,5.7A20.25,20.25,0,0,0,284,153.74a5,5,0,0,0,2-1.26l2-1.95a15.6,15.6,0,0,1,2.86-2.85c1.43-1.2,3.56-1.79,6.42-1.79"/><path class="cls-3" d="M378.48,107a17,17,0,0,0-14.63-7.49q-10,0-15.33,7.14t-5.35,19.62v48.87H318.91V52.43H331a12.17,12.17,0,0,1,12.13,12.13V92.73a28.33,28.33,0,0,1,18.19-13.55,36.27,36.27,0,0,1,22.47,1.43A40.21,40.21,0,0,1,400.6,94.17q6.76,9.27,6.77,25.68v55.29h-23.9V125.91a50.5,50.5,0,0,0-.89-9.81,24.67,24.67,0,0,0-4.1-9.1"/><path class="cls-3" d="M494.42,175.14H481.93A11.62,11.62,0,0,1,469.8,163V114.5q0-8.56-5.17-12.49A18.69,18.69,0,0,0,453,98.09,17.94,17.94,0,0,0,441.62,102q-5,3.92-5,12.49v60.64h-25V119.49q0-24.26,12.66-32.46a55.39,55.39,0,0,1,28-8.92,53.82,53.82,0,0,1,28.9,8.2q13.18,8.22,13.2,33.18v55.65"/><path class="cls-3" d="M510.11,166.57a35.23,35.23,0,0,1-10.7-17.29,79.59,79.59,0,0,1-3.21-22.65,71.93,71.93,0,0,1,2.67-19.27,39.88,39.88,0,0,1,8.38-16,37,37,0,0,1,23.91-12.66q14.63-2,26.39,2.32a36.35,36.35,0,0,1,20,18.54q6.06,11.77,6.06,27.47a68.35,68.35,0,0,1-2.49,19.62,50.37,50.37,0,0,1-6.42,13.91q-8.56,11.78-21.76,14.63a48.5,48.5,0,0,1-23.73.53q-12-2.67-19.08-9.1m17.12-62.78q-7.49,8.22-6.77,24.44t6.06,22.65q2.13,2.87,7.49,4.82a17.09,17.09,0,0,0,10.88.35c3.68-1.06,7-3.74,9.81-8s4.39-11.17,4.64-20.69q0-12.84-4.11-19.27t-9.45-8.19a17.25,17.25,0,0,0-10.7-.19C531.52,100.76,528.89,102.14,527.23,103.79Z"/><path class="cls-4" d="M653.51,145.89h17.83q-3.93,15-15,22.83-11.05,8.21-27.82,8.2-20.34,0-31.75-13.19Q585.38,150.88,585.38,127q0-22.82,11-35.67,11.42-13.2,31.75-13.2,21.41,0,33.18,12.84a49.17,49.17,0,0,1,9.27,18.19h-25a21.36,21.36,0,0,0-3.56-5.35q-4.65-5-13.21-5a17.42,17.42,0,0,0-12.84,5q-6.42,7.15-6.41,23.55t6.41,23.19q4.63,5.7,13.92,5.7a20.22,20.22,0,0,0,10.34-2.49,5,5,0,0,0,2-1.26l2-1.95a15.14,15.14,0,0,1,2.85-2.85c1.42-1.2,3.57-1.79,6.42-1.79"/><path class="cls-4" d="M735.91,171.22A44,44,0,0,1,720,176a143,143,0,0,1-14.8.89,37.34,37.34,0,0,1-22.49-7q-9.62-6.94-9.62-23,0-15,8.74-21.41T704.16,117a21.46,21.46,0,0,0,4.28-.53,57.46,57.46,0,0,1,5.71-.9q15.71-2.13,15.7-9.27,0-5.34-5.53-7a36.4,36.4,0,0,0-10.17-1.61,25.94,25.94,0,0,0-8.91,1.43,9.68,9.68,0,0,0-5.71,5.35H675.62a27.5,27.5,0,0,1,10-18.2q9.61-8.19,27.46-8.2,20,0,30,6.78,10.34,7.14,10.34,20v32.47c0,9.51-1.74,16.94-5.17,22.29a31.74,31.74,0,0,1-12.31,11.6m-5.7-43.88A67.33,67.33,0,0,1,716.29,132l-8.2,1.78q-6.42,1.78-9.28,4.64a14.49,14.49,0,0,0-2.5,7.85,11.55,11.55,0,0,0,3.22,8.56c2.13,1.91,5.23,2.86,9.27,2.86,6.66,0,11.88-1.9,15.7-5.72s5.71-9,5.71-15.69Z"/><path class="cls-4" d="M839.72,175.14H815.1V114.5q0-8.56-5.17-12.49a18.67,18.67,0,0,0-11.59-3.92A17.91,17.91,0,0,0,786.93,102q-5,3.92-5,12.49v60.64H757V119.49Q757,95.23,769.62,87a55.45,55.45,0,0,1,28-8.92,72.27,72.27,0,0,1,16.06,1.79A33.71,33.71,0,0,1,827.94,87a31.55,31.55,0,0,1,12.67-6.6,70.7,70.7,0,0,1,15.16-2.32,53.73,53.73,0,0,1,28.89,8.2q13.19,8.22,13.2,33.18v55.65H885.38A11.62,11.62,0,0,1,873.25,163V114.5q0-8.56-5.18-12.49a19.09,19.09,0,0,0-23.18,0q-5.17,3.92-5.17,12.49v60.64"/><path class="cls-4" d="M928.9,198a12.17,12.17,0,0,1-12.13,12.12H904.64V121.27q0-25,14.63-34.07A59,59,0,0,1,951,78.11a51.34,51.34,0,0,1,18,3.39,33.65,33.65,0,0,1,14.45,9.81q10.69,13.92,10.7,35.67,0,22.47-10.7,36.39Q972.77,176.93,956,176.92a36.29,36.29,0,0,1-15.7-3.2,26.86,26.86,0,0,1-11.41-11.06V198m40.66-69.92q0-13.91-5.34-21.4c-3.57-5-8.7-7.49-15.34-7.49q-9.63,0-15,7.49-5,6.78-5,21.4,0,13.56,5.35,20.34,5.34,7.49,15.33,7.48a17,17,0,0,0,14.64-7.48Q969.56,140.89,969.56,128.05Z"/><path class="cls-4" d="M996.32,143.75h24.25c.24,4.76,2,8.32,5.35,10.7,3.57,2.37,8.32,3.57,14.27,3.57a23,23,0,0,0,11.06-2.5c2.85-1.67,4.28-3.92,4.28-6.78q0-6.42-15-9.63a68.27,68.27,0,0,1-9.62-2.13q-18.92-4.65-25.33-11.07-7.15-6.43-7.14-17.12a28.41,28.41,0,0,1,10.35-22.48q10.69-8.19,27.82-8.2,18.54,0,29.61,8.2,10.35,8.93,11.06,23.19H1062a11.32,11.32,0,0,1-10.35-6.06l-2.85-2.85q-4.27-3.23-11.77-3.22c-4.76,0-8.32.72-10.71,2.14a7.2,7.2,0,0,0-3.2,6.42q0,5.71,18.54,9.63a33.43,33.43,0,0,0,3.76,1.07,13.22,13.22,0,0,0,3,.36q18.18,4.65,25.32,10.71,6.78,6.42,6.78,17.12,0,15.7-11.42,24.25-10.69,7.86-32.1,7.85-20.34,0-30.32-8.2-10.35-8.21-10.34-23.9v-1.07"/></g><g id="Layer_6" data-name="Layer 6"><text class="cls-5" transform="translate(358.23 146.66)">x</text><text class="cls-5" transform="translate(563.01 66.46)">x</text><text class="cls-5" transform="translate(563.01 199.79)">x</text><text class="cls-5" transform="translate(55.26 122.08)">x</text><text class="cls-5" transform="translate(1095.56 122.08)">x</text></g></svg>