<svg xmlns="http://www.w3.org/2000/svg" viewBox="0 0 936.56 264.69"><defs><style>.cls-1{fill:#231f20;}.cls-2{fill:#b82234;}.cls-3{fill:#fdb515;}.cls-4{fill:#fff;}</style></defs><title>BangorLogo_landscape_colourCrest_blackText</title><g id="Layer_2" data-name="Layer 2"><g id="Layer_1-2" data-name="Layer 1"><path class="cls-1" d="M309.94,167H269.72v-3.23h.41c3.53,0,6-.92,7.33-2.74s2.06-5.27,2.06-10.17V98.5c0-5-.66-8.45-1.95-10.28s-3.77-2.7-7.44-2.7h-.41V82.29h33c9.37,0,16.87,1.91,22.27,5.68s8.21,8.9,8.21,15.15c0,9-5.68,15.39-16.89,19.14a29.61,29.61,0,0,1,15.49,8.42A21.76,21.76,0,0,1,338.14,146a18.11,18.11,0,0,1-7.8,15.25c-5.14,3.78-12,5.69-20.4,5.69Zm-18.2-41.89v24.19c0,5.33.6,9,1.78,10.9s3.42,2.78,6.75,2.78h7.16a16.1,16.1,0,0,0,12-4.77c3.08-3.18,4.64-7.49,4.64-12.85a18.19,18.19,0,0,0-6.68-14.7c-4.45-3.69-10.46-5.55-17.86-5.55Zm0-4h8.53c6.12,0,11.05-1.56,14.65-4.66s5.4-7.29,5.4-12.53c0-5.52-1.78-9.87-5.29-12.92s-8.59-4.62-15.06-4.62h-8.23V121Z"/><path class="cls-1" d="M451.6,167H420.38v-3.23h.41c4.73,0,7-1.51,7-4.62a9.12,9.12,0,0,0-.64-3.08l-7.93-23H392.08l-5.8,16.57c-1.45,4.2-2.18,7.26-2.18,9.11,0,3.31,2.1,5,6.43,5h.39V167H367.8v-3.18l.35-.05a13,13,0,0,0,7.23-3c1.71-1.57,3.48-4.91,5.27-9.94l23.89-69.18.09-.27h9.47l.09.27,25.08,72.26c1.45,4.16,3,6.87,4.48,8.06s4,1.78,7.45,1.78h.4V167ZM394,127.05h23.23l-11.68-33.9L394,127.05Z"/><path class="cls-1" d="M559.89,166.34h-3.24l-.12-.14L496,94.12v57.79c0,4,.84,6.94,2.5,8.63s4.5,2.57,8.44,2.57h.4v3.23h-27v-3.23h.4c4,0,6.76-1,8.15-3s2.13-5.74,2.13-11V100c0-5.17-1-8.92-2.88-11.15s-5.13-3.56-9.57-4l-.36,0v-3.2H501l.12.14,53.56,64.43V98.3c0-5-.73-8.57-2.16-10.52s-4.1-2.88-8-2.88h-.4V81.67H571V84.9h-.41c-4,0-6.85.92-8.38,2.72s-2.33,5.23-2.33,10.11v68.61Z"/><path class="cls-1" d="M656.1,169c-16,0-28.62-3.88-37.57-11.54S605,139.57,605,127a48.34,48.34,0,0,1,5.9-23.79,45.11,45.11,0,0,1,39-23,56,56,0,0,1,15.51,2.44,32.15,32.15,0,0,0,8,1.49c2.3,0,3.77-.83,4.5-2.55l.1-.24h3.39V106.9h-3.18l-.05-.34a23.91,23.91,0,0,0-9.46-16.22,30.31,30.31,0,0,0-18.79-6.1,27.54,27.54,0,0,0-22.15,10.47c-5.75,7-8.67,16.11-8.67,27.16,0,12.15,3.37,22.36,10,30.34s15.1,12,25.14,12c9.49,0,14.1-2.8,14.1-8.56v-9.1c0-5-.68-8.61-2-10.59s-3.69-2.91-7.06-2.91h-3.72v-3.24h35.79v3.24h-.41c-3.69,0-6.36.82-7.92,2.42s-2.35,4.47-2.35,8.5v22.88l-.31.08A79,79,0,0,1,669,168.39c-5.51.43-9.84.65-12.88.65Z"/><path class="cls-1" d="M773.16,169c-12.92,0-24-4.37-32.91-13a42.72,42.72,0,0,1-13.45-31.82c0-12.49,4.5-23.07,13.38-31.43s20.09-12.59,33.34-12.59c12.86,0,23.9,4.3,32.8,12.77a41.69,41.69,0,0,1,13.42,31.25,42.65,42.65,0,0,1-13.53,31.83c-9,8.61-20.09,13-33.05,13Zm.66-84.8c-9.94,0-18,3.67-24,10.93s-9,17.11-9,29.21,3,22,8.9,29.45A28.36,28.36,0,0,0,773,165a28.78,28.78,0,0,0,23.58-11.44c6-7.61,9.08-17.24,9.08-28.63,0-12.24-3-22.2-8.9-29.6a28.08,28.08,0,0,0-22.95-11.11Z"/><path class="cls-1" d="M936.56,167H918.3l-.12-.14A165.06,165.06,0,0,1,905,148.08c-5.44-8.55-9.76-14.09-12.83-16.44a16.31,16.31,0,0,0-10.1-3.5h-6.59v22.67c0,4.85.7,8.27,2.09,10.15s3.85,2.77,7.37,2.77h.41V167H853.42v-3.23h.4c3.67,0,6.18-.93,7.44-2.76s2-5.3,2-10.15V98.22c0-4.85-.65-8.23-1.92-10s-3.76-2.66-7.48-2.66h-.4V82.29h35.83c8.78,0,15.92,2.11,21.2,6.27a19.66,19.66,0,0,1,8,16.08c0,10.21-5.8,17.17-17.27,20.73a35.87,35.87,0,0,1,7,6.28,111.33,111.33,0,0,1,9.81,14.2c4.48,7.23,8,12,10.52,14.28a13,13,0,0,0,7.69,3.6l.37,0V167Zm-61.12-43.13h10.2c6.2,0,11.12-1.74,14.63-5.18s5.29-8,5.29-13.72a17.12,17.12,0,0,0-5.86-13.47c-3.91-3.42-9.16-5.15-15.61-5.15h-8.65v37.52Z"/><path class="cls-1" d="M286.77,243.76c-3.94,0-7.08-1.16-9.35-3.46a12.41,12.41,0,0,1-3.42-9.1V213.73c0-2-.26-3.47-.8-4.24s-1.52-1.1-3-1.1h-.32v-1.67h13.86v1.67h-.32c-1.53,0-2.56.36-3.08,1.07a7.81,7.81,0,0,0-.81,4.21v18a9.1,9.1,0,0,0,2.37,6.63,8.92,8.92,0,0,0,6.64,2.4c4.18,0,7.58-1.91,10.12-5.68V213.73a7.89,7.89,0,0,0-.79-4.16,3.38,3.38,0,0,0-2.8-1.18l-.31,0v-1.65H308.3v1.67H308a3.47,3.47,0,0,0-3,1.11,7.62,7.62,0,0,0-.85,4.23v22.16a7.74,7.74,0,0,0,.83,4.2,3.49,3.49,0,0,0,3,1.12h.32v1.67h-9.66v-4.46a15.93,15.93,0,0,1-11.87,5.34Z"/><path class="cls-1" d="M360.57,242.88H359l-.1-.12-25.35-30.21v24.07a5.05,5.05,0,0,0,1,3.55,4.77,4.77,0,0,0,3.47,1h.32v1.67H326.59v-1.67h.32c1.65,0,2.76-.41,3.32-1.21a8.59,8.59,0,0,0,.88-4.56v-20.8c0-2.15-.4-3.7-1.19-4.62a5.72,5.72,0,0,0-3.95-1.63l-.29,0v-1.64h9.86l.1.11,22.42,27V213.91c0-2.1-.3-3.57-.89-4.36s-1.66-1.16-3.25-1.16h-.32v-1.67h11.68v1.67H365c-1.66,0-2.82.37-3.43,1.1s-1,2.15-1,4.18v29.21Z"/><path class="cls-1" d="M397,242.88h-13.8v-1.67h.32c1.49,0,2.5-.36,3-1.08s.81-2.17.81-4.24V213.74c0-2.11-.27-3.55-.8-4.29s-1.53-1.06-3-1.06h-.32v-1.67H397v1.67h-.32a3.48,3.48,0,0,0-3,1.11c-.56.76-.84,2.19-.84,4.24v22.15c0,2.05.28,3.47.84,4.22a3.5,3.5,0,0,0,3,1.1H397v1.67Z"/><path class="cls-1" d="M434,243.36h-1.48l-.08-.2-11.33-28.83c-1-2.61-1.93-4.26-2.66-4.92a4.71,4.71,0,0,0-3.1-1H415v-1.66H429v1.67h-.32c-2.58,0-2.88,1.18-2.88,2.07a4.39,4.39,0,0,0,.39,1.66l8.65,22.16,8.2-21.36a6.89,6.89,0,0,0,.51-2.34c0-.94-.31-2.19-2.95-2.19h-.32v-1.67h11.31v1.73h-.33c-2.52,0-4.66,2.25-6.34,6.69l-10.8,28-.08.2Z"/><path class="cls-1" d="M492.71,242.88H465.78v-1.67h.32c1.52,0,2.54-.37,3-1.09a7.9,7.9,0,0,0,.79-4.17V213.74c0-2.09-.28-3.52-.81-4.27s-1.54-1.08-3-1.08h-.32v-1.67h27v6.57h-1.27l-.05-.25a5.65,5.65,0,0,0-1.5-3.19c-.63-.51-2.09-.77-4.34-.77H475.4v14.56h9.91A3.93,3.93,0,0,0,488,223a4.77,4.77,0,0,0,1-2.57l0-.27h1.69v9.27H489l-.07-.24c-.46-1.78-1-2.43-1.3-2.66s-1.24-.52-3.5-.52H475.4v12.4a2.13,2.13,0,0,0,.51,1.64,2.82,2.82,0,0,0,1.86.46h6.39a20.62,20.62,0,0,0,4.65-.35,4.27,4.27,0,0,0,2.07-1.26,12.64,12.64,0,0,0,1.88-3.11l.09-.18h1.7l-.1.4-1.68,6.63-.06.24Z"/><path class="cls-1" d="M549.51,242.88h-8l-.09-.11a69.4,69.4,0,0,1-5.62-8c-2.29-3.61-4.11-5.94-5.39-6.93a6.84,6.84,0,0,0-4.19-1.44h-2.64v9.45a7.61,7.61,0,0,0,.85,4.21,3.56,3.56,0,0,0,3,1.11h.33v1.67H514v-1.67h.32c1.5,0,2.52-.37,3-1.11a7.93,7.93,0,0,0,.8-4.21V213.62c0-2-.26-3.43-.78-4.17s-1.52-1.06-3.05-1.06H514v-1.67h15.33a14.33,14.33,0,0,1,9.07,2.68,8.49,8.49,0,0,1,3.44,6.93c0,4.31-2.39,7.28-7.12,8.83a16.13,16.13,0,0,1,2.73,2.51,46.78,46.78,0,0,1,4.17,6,30.82,30.82,0,0,0,4.43,6,5.36,5.36,0,0,0,3.17,1.49l.3,0v1.65Zm-25.89-18.57h4.17a8.35,8.35,0,0,0,6.09-2.15,7.66,7.66,0,0,0,2.19-5.7,7.1,7.1,0,0,0-2.43-5.59,9.52,9.52,0,0,0-6.51-2.15h-3.51v15.59Z"/><path class="cls-1" d="M576.24,243.76a21,21,0,0,1-6.46-1.35,8,8,0,0,0-1.92-.53c-.16,0-.68,0-1.1,1.15l-.08.21h-1.63V233h1.73v.32a8,8,0,0,0,2.56,6.12,8.58,8.58,0,0,0,5.93,2.31,7.58,7.58,0,0,0,5.13-1.65,5.48,5.48,0,0,0,1.9-4.36,6.06,6.06,0,0,0-1.58-3.92c-1.07-1.28-3.36-3-6.81-5a30.78,30.78,0,0,1-5.78-4.1,10.09,10.09,0,0,1-2.19-3.36,11.12,11.12,0,0,1-.7-4,8.94,8.94,0,0,1,2.86-6.87,10.53,10.53,0,0,1,7.41-2.63,17.68,17.68,0,0,1,5.4.95,6.83,6.83,0,0,0,1.77.41c.29,0,.35-.07.35-.07a2.18,2.18,0,0,0,.28-.7l.07-.23H585v9h-1.71l0-.29a7.7,7.7,0,0,0-2.46-5.18,7.8,7.8,0,0,0-5.32-1.86,7.16,7.16,0,0,0-4.58,1.38,4.42,4.42,0,0,0-1.69,3.63,6,6,0,0,0,1.43,3.89c1,1.19,3.12,2.77,6.4,4.68,3.88,2.25,6.54,4.25,7.89,6a9.34,9.34,0,0,1,2.06,5.95,10,10,0,0,1-3.15,7.38,10.51,10.51,0,0,1-7.57,3.06Z"/><path class="cls-1" d="M620.54,242.88h-13.8v-1.67h.32c1.48,0,2.5-.36,3-1.08a7.92,7.92,0,0,0,.81-4.24V213.74c0-2.11-.27-3.55-.8-4.29s-1.53-1.06-3-1.06h-.32v-1.67h13.8v1.67h-.32a3.48,3.48,0,0,0-3,1.11c-.56.77-.85,2.19-.85,4.24v22.15c0,2,.29,3.46.85,4.22a3.49,3.49,0,0,0,3,1.1h.32v1.67Z"/><path class="cls-1" d="M662.18,242.88H648.59v-1.67h.32a3.43,3.43,0,0,0,3-1.15,8,8,0,0,0,.81-4.17V209.08h-5c-2.46,0-4.26.38-5.36,1.13a4.64,4.64,0,0,0-1.81,3.66l0,.3h-1.71v-8.79h1.54l.09.08c.91.83,2.68,1.26,5.27,1.26h19.18c2.68,0,4.57-.43,5.6-1.27l.09-.07h1.59v8.79h-1.29l-.06-.25a5.79,5.79,0,0,0-2.3-3.81,10.16,10.16,0,0,0-5.13-1h-5.22v27c0,2.07.25,3.46.75,4.15s1.44,1,2.88,1h.33v1.67Z"/><path class="cls-1" d="M712.58,242.88h-14v-1.67h.32c1.69,0,2.82-.39,3.35-1.14a7.84,7.84,0,0,0,.82-4.18v-11.1l-7.74-11.7a16,16,0,0,0-3.08-3.77,5.7,5.7,0,0,0-3.19-.93l-.3,0v-1.65h15v1.67h-.32c-2.29,0-3.46.45-3.46,1.34a3.38,3.38,0,0,0,.7,1.7l7,10.36,5.53-8.51a6.43,6.43,0,0,0,1.22-3.24c0-.71-.21-1.65-2.1-1.65h-.32v-1.67h10.69v1.65l-.3,0a6,6,0,0,0-3,.81,11.4,11.4,0,0,0-2.61,3.07l-8.18,12.52v11.1c0,2.08.27,3.51.8,4.25a3.37,3.37,0,0,0,2.9,1.07h.33v1.67Z"/><path class="cls-1" d="M283.62,48.4H269.81V46.73h.32a3.42,3.42,0,0,0,3-1.14,7.4,7.4,0,0,0,.83-4.05V19.25a7.75,7.75,0,0,0-.83-4.23,3.46,3.46,0,0,0-3-1.11h-.32V12.23h13.67c4.42,0,8,1,10.57,2.89A9,9,0,0,1,298,22.64a8.19,8.19,0,0,1-3.48,7.07c-2.27,1.61-5.55,2.43-9.76,2.43a49.31,49.31,0,0,1-5.29-.33v9.6c0,2.06.28,3.49.83,4.24a3.51,3.51,0,0,0,3,1.08h.32V48.4Zm-4.15-18.79a14.64,14.64,0,0,0,4.2.52,9.35,9.35,0,0,0,6.29-2,6.73,6.73,0,0,0,2.28-5.39A8.6,8.6,0,0,0,290,16.64a8.3,8.3,0,0,0-6.29-2.4h-4.2V29.61Z"/><path class="cls-1" d="M351.39,48.4h-7.95l-.1-.11a69.54,69.54,0,0,1-5.61-8c-2.3-3.61-4.11-5.94-5.4-6.92A6.72,6.72,0,0,0,328.15,32H325.5v9.45a7.49,7.49,0,0,0,.86,4.21,3.56,3.56,0,0,0,3,1.11h.32V48.4H315.87V46.73h.33c1.5,0,2.52-.37,3-1.11a7.79,7.79,0,0,0,.81-4.21V19.13a7.79,7.79,0,0,0-.79-4.16c-.5-.7-1.52-1.06-3-1.06h-.33V12.23H331.2a14.31,14.31,0,0,1,9.07,2.69,8.5,8.5,0,0,1,3.45,6.94c0,4.3-2.4,7.27-7.13,8.82a16.25,16.25,0,0,1,2.74,2.52,47.85,47.85,0,0,1,4.17,6,30,30,0,0,0,4.43,6,5.37,5.37,0,0,0,3.16,1.49l.3,0V48.4ZM325.5,29.83h4.17a8.38,8.38,0,0,0,6.1-2.15A7.67,7.67,0,0,0,338,22a7.12,7.12,0,0,0-2.43-5.59A9.55,9.55,0,0,0,329,14.24H325.5V29.83Z"/><path class="cls-1" d="M382.83,48.4H369V46.73h.32c1.49,0,2.5-.36,3-1.08s.81-2.18.81-4.24V19.25c0-2.1-.26-3.54-.79-4.28s-1.53-1.06-3-1.06H369V12.23h13.81v1.68h-.33a3.47,3.47,0,0,0-3,1.11c-.56.77-.84,2.19-.84,4.23V41.41c0,2.05.28,3.47.84,4.22a3.49,3.49,0,0,0,3,1.1h.33V48.4Z"/><path class="cls-1" d="M418.15,48.4h-13.8V46.73h.32a3.5,3.5,0,0,0,3-1.1c.55-.75.83-2.17.83-4.22V19.25a7.87,7.87,0,0,0-.82-4.25c-.51-.72-1.52-1.09-3-1.09h-.32V12.23H430.1v7h-1.42l-.06-.26a6.92,6.92,0,0,0-1.46-3.52c-.4-.36-1.45-.79-4.18-.79h-9V28.83h9.22a3.58,3.58,0,0,0,2.64-.86A5.32,5.32,0,0,0,427,24.91l0-.29h1.61V35.26H427l0-.31c-.11-2.5-1.31-3.72-3.64-3.72H414V41.41c0,2,.28,3.46.84,4.22a3.53,3.53,0,0,0,3,1.1h.32V48.4Z"/><path class="cls-1" d="M472,48.4H458V46.73h.32c1.69,0,2.81-.38,3.34-1.14a7.73,7.73,0,0,0,.83-4.18V30.31l-7.74-11.7a16.12,16.12,0,0,0-3.08-3.76,5.64,5.64,0,0,0-3.19-.94l-.31,0V12.23h15v1.68h-.32c-2.29,0-3.45.45-3.45,1.34A3.35,3.35,0,0,0,460,17l7,10.36,5.53-8.51a6.46,6.46,0,0,0,1.22-3.25c0-.7-.21-1.64-2.1-1.64h-.32V12.23H482v1.66l-.3,0a6,6,0,0,0-3,.81,11.38,11.38,0,0,0-2.61,3.07L468,30.31v11.1c0,2.08.27,3.51.8,4.25a3.35,3.35,0,0,0,2.9,1.07H472V48.4Z"/><path class="cls-1" d="M508.17,49.28a21,21,0,0,1-6.46-1.35,8.25,8.25,0,0,0-1.92-.53c-.45,0-.82.39-1.1,1.15l-.07.22H497V38.52h1.73v.32A8,8,0,0,0,501.27,45a8.53,8.53,0,0,0,5.93,2.31,7.62,7.62,0,0,0,5.13-1.65,5.41,5.41,0,0,0,1.89-4.36,6.06,6.06,0,0,0-1.57-3.91c-1.07-1.28-3.36-3-6.81-5a30.25,30.25,0,0,1-5.78-4.11,10,10,0,0,1-2.19-3.36,11,11,0,0,1-.7-4A8.94,8.94,0,0,1,500,14a10.5,10.5,0,0,1,7.4-2.63,17.69,17.69,0,0,1,5.41,1,6.74,6.74,0,0,0,1.77.41c.28,0,.35-.07.35-.07a2.18,2.18,0,0,0,.28-.7l.06-.23h1.6v9h-1.71l0-.29a7.81,7.81,0,0,0-2.46-5.18,7.81,7.81,0,0,0-5.33-1.86,7.1,7.1,0,0,0-4.57,1.39,4.39,4.39,0,0,0-1.69,3.62,6.06,6.06,0,0,0,1.43,3.89c1,1.19,3.12,2.77,6.4,4.67,3.89,2.26,6.54,4.26,7.89,6a9.36,9.36,0,0,1,2.06,6,10,10,0,0,1-3.15,7.38,10.49,10.49,0,0,1-7.57,3.06Z"/><path class="cls-1" d="M560.08,49.28c-6.8,0-12.19-1.66-16-4.92a16.38,16.38,0,0,1-5.77-13,20.58,20.58,0,0,1,2.52-10.14,19.25,19.25,0,0,1,16.64-9.83,23.85,23.85,0,0,1,6.61,1,13.63,13.63,0,0,0,3.34.62,1.69,1.69,0,0,0,1.76-1l.09-.19h1.68V23h-1.63l0-.27a10,10,0,0,0-3.94-6.77,12.67,12.67,0,0,0-7.87-2.56,11.53,11.53,0,0,0-9.26,4.38c-2.42,2.93-3.64,6.77-3.64,11.41a19.38,19.38,0,0,0,4.21,12.76,13.18,13.18,0,0,0,10.53,5c3.92,0,5.82-1.13,5.82-3.47V39.61a8.38,8.38,0,0,0-.83-4.4,3.25,3.25,0,0,0-2.87-1.16H559.7V32.37h15.45v1.68h-.32a4.42,4.42,0,0,0-3.24,1,5,5,0,0,0-1,3.49v9.81l-.24.06a32.52,32.52,0,0,1-4.84.62c-2.34.18-4.18.27-5.47.27Z"/><path class="cls-1" d="M613.07,49.28a19.56,19.56,0,0,1-14-5.54,18.24,18.24,0,0,1-5.74-13.59A17.74,17.74,0,0,1,599,16.73a20,20,0,0,1,14.23-5.37,19.59,19.59,0,0,1,14,5.45A17.8,17.8,0,0,1,633,30.15a18.16,18.16,0,0,1-5.78,13.59,19.69,19.69,0,0,1-14.1,5.54Zm.28-35.92a12.36,12.36,0,0,0-10,4.58c-2.51,3.06-3.78,7.18-3.78,12.27s1.26,9.26,3.74,12.39A11.88,11.88,0,0,0,613,47.28a12.07,12.07,0,0,0,9.87-4.79,18.86,18.86,0,0,0,3.81-12c0-5.16-1.26-9.34-3.73-12.45a11.81,11.81,0,0,0-9.61-4.65Z"/><path class="cls-1" d="M679,48.4H651.92V46.73h.32a3.3,3.3,0,0,0,2.94-1.23,8,8,0,0,0,.89-4.39V18.74a6.45,6.45,0,0,0-.83-3.82,3.65,3.65,0,0,0-3-1h-.32V12.23h13.74v1.68h-.32a3.3,3.3,0,0,0-2.88,1.17,7.31,7.31,0,0,0-.88,4.11V42.93a3.17,3.17,0,0,0,.74,2.45,5.12,5.12,0,0,0,3.08.65h7.27c2.16,0,3.68-.35,4.5-1.06s1.66-2.3,2.43-4.74l.07-.22h1.76l-.12.41-2.25,7.75-.06.23Z"/><path d="M113.25,264.69c24.56,0,52.7-11.58,75.29-31,24.12-20.72,38-47.13,38-72.46V0H0V161.25C0,186.58,13.83,213,38,233.71c22.59,19.4,50.73,31,75.3,31Z"/><rect class="cls-2" x="152.82" y="4.25" width="69.35" height="111.87"/><path class="cls-2" d="M4.19,119.8H73.61V251.34C37.09,235.25,4.19,199.81,4.19,161.25Z"/><rect class="cls-3" x="4.25" y="4.25" width="69.35" height="111.87"/><path class="cls-3" d="M152.82,119.8V251.34c36.52-16.09,69.42-51.53,69.42-90.09V119.8Z"/><path class="cls-4" d="M119,237.53c.28,0,1.59-.75,1.59-2.91a2.62,2.62,0,0,0-2.74-2.85c-1.7,0-2.06,1.28-2.06,2.35C115.74,236.93,118.92,237.53,119,237.53Zm-13.37,2.65a11,11,0,0,0-2-.76,3.26,3.26,0,0,0-2.16,3.16c0,2.55,1.27,3.9,3.67,3.9,2.17,0,2.62-1.61,2.62-2.95A3.19,3.19,0,0,0,105.58,240.18Zm.17-2.65c.28,0,1.58-.75,1.58-2.9a2.62,2.62,0,0,0-2.73-2.86c-1.71,0-2.06,1.28-2.06,2.35C102.54,236.94,105.72,237.53,105.75,237.53ZM128.29,241c0,.22,0,.26.63.26h3.68c.18,0,.22,0,.22,0a1.36,1.36,0,0,0,0-.4V233a51.9,51.9,0,0,0-2.89,4.61A14.22,14.22,0,0,0,128.29,241ZM149.14,4.41V4.25H77.29v.16H77.1V252.78A103.67,103.67,0,0,0,105,260a71.78,71.78,0,0,0,28.77-2.14,112.28,112.28,0,0,0,15.39-5v-.31l.25-.1V4.41ZM96.68,247.78h-8v-1l.21-.06,1.76-.46c.74-.19.74-.23.74-.92V233.63c0-.89,0-.92-.77-.94l-2.09,0h-.23l0-.22-.1-.51-.05-.25.24-.07,4.89-1.46.14,0,.11.09.31.22.11.09v14.93c0,.52,0,.67.8.85l1.77.43.21.06Zm7.61.34c-3.19,0-5.09-1.93-5.09-5.16a4.27,4.27,0,0,1,2.52-4,2.36,2.36,0,0,0,.52-.35h0a1.72,1.72,0,0,1-.33-.17,3.76,3.76,0,0,1-1.94-3.7c0-3,2.62-4.61,5.2-4.61,2.86,0,4.44,1.53,4.44,4.31a4,4,0,0,1-2.17,3.52l-.27.19.43.21a4.05,4.05,0,0,1,2.75,4.09C110.34,246,108,248.12,104.29,248.12Zm13.21,0c-3.19,0-5.1-1.92-5.1-5.15a4.26,4.26,0,0,1,2.53-4,2.23,2.23,0,0,0,.51-.35h0a1.73,1.73,0,0,1-.34-.17,3.77,3.77,0,0,1-1.94-3.69c0-3,2.62-4.62,5.21-4.62,2.86,0,4.43,1.53,4.43,4.31a4,4,0,0,1-2.16,3.52,3.15,3.15,0,0,0-.27.19l.42.21a4,4,0,0,1,2.75,4.08C123.54,246,121.23,248.11,117.5,248.11Zm20.81-6.26-.92,1.28-.09.11h-1.67a.61.61,0,0,0-.24,0,1.8,1.8,0,0,0,0,.31v1.73c0,.88,0,.88.71,1.08l1.15.33.2.06v1h-6.55v-1l.2-.07,1.35-.4c.41-.11.41-.11.41-1v-1.68a2.14,2.14,0,0,0,0-.42h0a1.45,1.45,0,0,0-.28,0H126l-.08-.06-.2-.18-.13-.12,0-.16L126,241c.39-.64.75-1.27,1.15-2,.53-.93,1.13-2,1.84-3.07,1.59-2.43,3-4.38,3.45-5l.06-.08.08,0,2.17-.67.14,0,.12.09.23.18.11.08v10.31a1.94,1.94,0,0,0,0,.43h0a1.83,1.83,0,0,0,.27,0h2.38l.09.11.15.2.13.17Zm-19.53-1.67a11.21,11.21,0,0,0-1.94-.76,3.25,3.25,0,0,0-2.17,3.16c0,2.55,1.27,3.9,3.67,3.9,2.17,0,2.63-1.6,2.63-2.95A3.2,3.2,0,0,0,118.78,240.18Z"/><path d="M170.32,49.86c-.11,1.74-1.18.22-1.18.22a9.78,9.78,0,0,1-2.71-6.4c.79-.47,1.16-2.15,1.47-2.31s2.52-1.2,2.52-2.3-3.09-7.92-3.09-10.49l-2.63,3.67-2-3.56L161,32.93l-1.68-2s-.82,6.15-.52,7.26c.8,3,2.14,2.65,2.14,3.7,0,1.62-2.85,2.82-2.85,2.82.33.87,2,8.66,3.13,12.42,1.34,4.31,2.29,4.68,3.18,6.51.73,1.5,1.05,4.82,2.83,4.82s6.66-1.78,6.66-1.78c-1.63,1.58-2.36,17.46-5,17.46-1.78,0-6.29.13-6.29.13a35.59,35.59,0,0,0-3.56,9.36L163,91.38l-1.15,6.14L166.54,94l1.94,6,1.73-2.83s-.43-1.35,1-3.25c1.25-1.68,3.19-4.45,3.19-4.45l2.41.62a5.43,5.43,0,0,0,.95-3.66l.69-.17.75-1.65,1.08-2.93c.38-.9,4.47-11.5,5.7-14.71.22-.58,1-2.49.76-3.44a10,10,0,0,1-.25-2.22A7.45,7.45,0,0,1,189,56.93a.28.28,0,0,0,0,.09,1.29,1.29,0,0,0,1.26,1.42,1.72,1.72,0,0,0,1-.41,4.7,4.7,0,0,1,3-.91l.61,0c-1.71.66-3.79,2.73-3.79,6.63,0,2.74,1.14,5.81,2,8,.24.64.53,1.4.65,1.86l-.42.32c-1.72,1.33-3.46,2.74-4.05,4.15l0,.08c-2.65.42-5.31.73-5.31.73l-4,7.17,2.52-.83L180,90.65l4.82-2s-1.1,3.67,0,5l1.72-1.21A12.26,12.26,0,0,1,187.88,90c.52-.51,3.51-3.56,3.51-3.56l.73,1.83c3.63-1.8,10.29-10.34,10.49-11.85,0-1.46-2.63-3.77-2.63-7.18a4,4,0,0,1,.79-2.78c0,2.41,5.77,7.87,6.29,9.39-1.31.73-3.83,8.28-4.14,9.33a64.79,64.79,0,0,0-6.54,1.24,18.23,18.23,0,0,0-4,7.41l4.4-.89L196,98.11l1.95-.41s1.84-3.07,4.89-3.22L205.54,99l1.84-2s.21-5.82,1.2-6.5l2.15.84c5.93-4.33,6.74-19.93,5.93-20.41-.51-.31-.71.31-2.25-1.64-2.52-3.18-2.12-10.37-4.51-12.9,0,0,.25-.23,1.36-.23a6.31,6.31,0,0,0,5.34-6.5,9.15,9.15,0,0,0-5.07-8.43,5.53,5.53,0,0,0,.56-2.47c0-4.61-5.09-4.62-5.19-5.3,2.47-.52,5-3.36,5.25-5.45.57-5.91-6.05-9.25-8.86-6.44.89.78,3,1.67,3,3.87,0,3.78-4.14,5.72-4.14,5.72a8.22,8.22,0,0,0,.73-3.3,4.76,4.76,0,0,0-5-5,6.3,6.3,0,0,0-6.19,4.35c1.26,0,5.19-.42,5.19,1.94,0,3-5,4.77-5,9.69s4.31,8.54,9.17,8.86c1.3.09,1.53.17,2.47.17S205,49,207.06,49c2.52,0,3.1-1.15,3.93-1.15s.84.84.84,1.31.16,1.73-2.93,1.73c-3.31,0-9.23-1.68-14.58-1.68-4.2,0-4.77.08-5,.39a7.18,7.18,0,0,0,.91-2.88c-1-.51-1.83-3.27-2.35-3.27,4.51-4.09,3.85-7.69,3.9-8.5-.31-1-1-1.2-2.07-1.2a3.06,3.06,0,0,0-1.73.47s-.29-3.9-.92-5.21c-1.45-2.2-8.6-3.69-11.36.51,0,0-1,2.55-1.45,3.34a3.33,3.33,0,0,0-3.47.25s.09,1.12.11,2-.16,1.78-.16,2.73,1.94,4.4,1.94,4.4c-1.1,1.62-4.87,3.4-4.87,3.4A15.42,15.42,0,0,1,170.32,49.86Z"/><path class="cls-3" d="M171.59,49c.48-.39,1.8-2.43,3.06-2.43-.11.74-2,2.32-2.63,3.59s.42,2.53.94,3.48c-.1-.85,1.9-2.22,2.53-3s1.16-.48.74.43c-.52,1.16-2.18,2.36-2.21,4.11,0,.93.7,1.59,1.58,2.11,0,0,.32-3.06,1.58-2.22.51.34-2,5.06,0,6.85.32-1.37,3.37-3.68,3.37-4.32s-1.05-2.74,0-2.74c.64,0,1.16,1.9,1.59,1.9s1.26-.42,1.26-1.16-1.9-3.9-.74-3.9c.54,0,1.79,2.11,2.11,2.11s.63-.21.95-1.9-1.48-2.32-.84-4a6.4,6.4,0,0,1,2.21,1.79c.53.95,1.58-1.68,1.69-2.53-.33-.38-.7-1.72-1.27-2.53s-1.26-1-1.26-1.16c0-.42.63-.52,2.74-2.84a7.17,7.17,0,0,0,1.79-5.38c-1.26-1.16-2.32.53-3.37,0s-.53-3.79-.85-4.95c0,0-1.37,2.21-1.68,1.89S185,31,185.3,30s-1.48-1.59-1.48-1.59-.42,2.22-1.16,2.11-.52-2.21-.52-2.21a1.14,1.14,0,0,0-1.8.95c-.37,2.11-1.37.31-1.89-.64-.74.32-.43,2.75-.43,3.59s-1.47-.74-2.21-1.06c.21.74-.62,1.84-.62,2.68s-2.75-.46-3.39.18c0,.32-.39,3,.14,4.5.68,1.94,1.78,2.8,1.78,4S172,44,169,46C170.38,46.16,170.44,50,171.59,49ZM181.9,33.57c.55.75,1.85,1.71,2.81.89.42.14.55.27.07.82s-.48,1.94-1.44,1.86c-1.65-.14-1-2.54-1.58-3.09Zm-1.72-.21.21.48c-.48.14-.55,2.75-1.79,2.75-1.51,0-.34-1.86-1.51-2.2A6.77,6.77,0,0,0,180.18,33.36Zm-6.8,3.78a1.5,1.5,0,0,1,1.51-1.72c.9,0,.83,2.68,1.24,3.3s1.58.34,1.79.75c-.35.55-1.52,1.24-1.52,2.06a1.12,1.12,0,0,0,1.1,1.1c.48,0,2.54-.55,2.54-1.79,0-.61-.47-1-.68-1.37s-.17-.93-.35-1c.83-.07,1.65-.34,2.27-.34s.69.41.69,1-1.17,1-1.17,1.51,1.51,2,2,2,1.58-.41,1.58-1.17-.45-1.68,0-2.13c.27-.27.89.28.89.28.93-.93,1.51-2.82,3.37-3,1.85,3.23-2,4.46-2,4.46l-1.5-.62c.58,1.87-1,2.5-1,3.23.15,2.08-.27,2.74-1,3.43-.48-.13-1.51-.2-1.58.21,1,1.72-1.92,3.57-1.58,4.33a27.31,27.31,0,0,1-1.71-2.75c-.34-.41.3-1-.07-2-.21-.55-1.44.07-1.58-.9s.18-3-1-3.65C175.62,40.28,173.38,39,173.38,37.14Zm30.74,7.27c0,1.4.7,3.44,2.87,3.44,2.5,0,2.6-1.18,4-1.18s2.05,1.14,2.05,2.45S212.36,52,209,52c-6.06,0-7.65-1.64-14.88-1.64-6.83,0-6.27,2.71-10.66,7.1s-7.85,7.64-7.85,7.64l.26.7c-2.1,2.2-3.16,13-4.21,16.76s-6.85,5.36-6.85,5.36l-1.31,7.28,2.81-2.46a9.19,9.19,0,0,1-.27-2.1c-.08-1.58,4.3-4.83,6.41-6.15-.35,2-5.27,6-5.27,6a12.38,12.38,0,0,1,.53,2.81,19.7,19.7,0,0,0,1.14,4.21l.27-.44a10,10,0,0,1,.48-2.3c.7-1.4,4.34-6.3,4.34-6.3l2.37.35c1.23-1.93-.44-3.77-.88-4.91,1-1,1.49-.44,2.64.61.87-2.1.08-2.28-.62-4s.62-1.31,2.46-.35c.7-1.14.52-2.1-.53-4.47s1.23-1.23,2.28-.44c.79-1.23.44-1.49-.52-4s.52-2.11,2.19-.88c1.06-2.81.18-2.28-.52-4.12s1.05-1.67,2.37-.53c1.22-1.14.19-1.55.19-4.45,0-2.11,2.48-6.15,6.78-7.73,1.49,1.49-2,1.74-2,3.4,0,1,.7-1,4.12-1s3.6,1.67,4.48,1.67.08-2.46.08-2.46c4,0,2.64,3.95,2.64,8.87s6.75,9.56,6.93,12.28c-2.44,1.46-3.09,7.66-5.3,11-1.23,1.36-2.73,1.5-4.27,2.13l-1.49,6.23c1.23-1.32,4.39-2.2,4.39-2.2-1.49-3,.44-3.77,1.23-4.47s4.12-5,4.12-5l.53.53s-1.67,4.74-4.3,6c-.7,1.49,1.75,5.44,2.37,6.4a4,4,0,0,1,.57-.64s.27-5.3,1.1-6.2,1.22-1,3.07-.26c.79-.79.35-2.9-.35-4.22.79-1.49,2,1.46,2.41.94,1.4-1.89-1.27-3.39-.39-5.24,0,0,1.47,1.39,1.84,1.14s.17-1.31-.18-2.28c-1.83-4.38.93-1.48,1.23-1.66.61-.38-.08-3.2-.87-3.9-.44,1.23-3.08,6-4.48,9.34-.25.58-1.58.79.26-4.92,2.19-6.79,4.65-5.7,5.71-5.35-.09-3.16-3.25-3.42-3.51-5.53-3.16-1.32-.53-12.11-7-14.74l8.17-.62c-1.58,1.58-4.66,1.06-4.66,1.06s0,1,2.46,1,4.42-2.28,4.42-5.36c0-2.26-2.74-7.18-5.36-7.18-2.17,0-3.07,3.33-3.59,3.08-1.29-.65-.39-1.23.09-2,1.66-2.87,4.42-2.22,4.43-4.56,0-4.41-5.66-4.58-6.47-3.76-.67.67,2.6,0,2.54,2.8,0,.52,1.63-1.44,1.63-1.29C208.7,38.53,204.12,40.08,204.12,44.41Zm-6.26-1.8c.63,1.14,5.81.82,5.81-4,0-2.53-2.14-3.07-2.14-3.78,0-1.75,9.48-2.45,9.48-7a7.17,7.17,0,0,0-.7-3.51s.18,3.6-1,3.6c-1.76,0-.18-2.11-.18-3.16,0-3.86-4.13-3-4.13-3s2.46.09,2.46,4c0,4.91-7.19,7.89-7.72,7.37s1.93-2.2,1.93-4.92c0-1.31-.53-4.12-3.33-4.12-3.34,0-5.53,2.28-4.22,2.1s4,.71,4,3c0,3.86-5.09,4.82-5.09,9.74,0,6.14,6.23,7.63,8.16,7.63a5.75,5.75,0,0,0,2.37-.26,3.87,3.87,0,0,1-.35-1.93,8.07,8.07,0,0,1-2.28.35c-4.74,0-5.27-3.6-5.27-4.83s1.24-3.62,3.16-3.42C202.85,36.83,200.42,41.26,197.86,42.61Zm-4.57,40.21c.61-.79,1.58,1.93,1.58,1.93,2.45-2.2-.26-3.39.52-4,1.06-.88,2.81.53,2.81.53,1.32-1.15-.74-2.33-.17-3.08,1.14-1.49,1.49-.08,2.28-.43s1.66-1.06.79-2.2-3.69-6.14-1.23-9.83a3.16,3.16,0,0,0-1.93,1.85c-.35,1.31,1,8,1,9l-7.2,6.14s-.52-.53.44-1.76a71.13,71.13,0,0,1,5.53-5c-1.14-1.49.53-5.26-1.75-6.67-.62-.26-2.34-.78-.88-1.84,1-.7,2.55-.35,2.55-3.51a3.26,3.26,0,0,0-2.9-3.42c.35-1,2.89-.7,3.6-1.67-1.32-.61-1.32-.7-2.28-.7s-3.78,1.4-3.78,5.7,3.21,9.87,2.64,10.45S191,76.94,190.3,78.6s-4.57,4.15-4.57,4.15l-3.68,6,2.46-1.4s.9-2.94,2.35-3.81c2-1.23,3.95-3.42,4.26-3.09s-1.61,3-3.63,4c-.61,1.23-2.1,5.71-1.93,6.67,0,0,4.39-5.26,5.62-5.79s1.67,1,1.67,1C194.51,85.18,192.67,83.61,193.29,82.82Zm-8.38-1.47c.79-.7,2.5-1,3.46-2-2.09.53-4.07,1-4.07,1l-2.46,3.79,1.95-.82A4.72,4.72,0,0,1,184.91,81.35Zm-20.38,5.5a22,22,0,0,0,4.2-1.54c-1.94.2-5.19.2-5.19.2l-2.84,6,2.81-1.59S163.48,87.2,164.53,86.85Zm-4.15-37.56c0,2.14,2.72,3.07,2.89,4.13s-2.15-.67-2.1-.35c.39,2.93,2.82,3.23,3.68,4.82.53,1-2.24-.37-2.19-.09.59,3.44,4.18,2.14,4.82,4.39.36,1.26-2.24-.71-2.32.39,0,.74,1.36,4.61,2.15,4.79s3.33-.79,4.48-1.23,3.33-.88,3.59-1.93c-1.23-1.93-4.47-6.41-4.91-10.53-2.55-2.72-5.09-6.67-5.09-9.92a19.13,19.13,0,0,1,1-5.88l-3.59-6.75L162,34.2s3.34,3.16,3.25,4.21-1,4.3-1,4.3c-.62.88-.44-4.21-.44-4.21L160,33.58a28.66,28.66,0,0,0,0,4.24c.42,1.9,2.16,2.79,2.16,3.93a5.79,5.79,0,0,1-2.28,3.51c-.18,1.4,2.54,2.8,2.63,4C161.87,50.08,160.39,48.74,160.38,49.29Zm6.37-8.22c.55-1,2.67-1.37,2.6-2.26s-2.53-6.42-2.6-7.78l-1.57,2.87s2.32,3.27,2.32,4.37S166.62,39.63,166.75,41.07ZM202.53,86.4c-2.52.47-5.87,1.23-5.87,1.23l-2.87,4.73,3.42-.72c.31-1.62.49-2.54,1.22-3.19C199.85,87.19,202.08,87.12,202.53,86.4Z"/><path d="M23,151.83c-.11,1.74-1.17.22-1.17.22a9.75,9.75,0,0,1-2.71-6.4c.78-.47,1.15-2.15,1.47-2.31s2.51-1.2,2.51-2.3S20,133.12,20,130.55l-2.62,3.67-2.05-3.56-1.62,4.25-1.68-2s-.81,6.15-.52,7.26c.8,3,2.15,2.65,2.15,3.7,0,1.62-2.85,2.82-2.85,2.82.32.87,1.94,8.66,3.12,12.43,1.35,4.3,2.29,4.67,3.19,6.5.72,1.5,1,4.83,2.83,4.83s6.65-1.78,6.65-1.78c-1.62,1.57-2.36,17.45-5,17.45-1.77,0-6.28.13-6.28.13a35.34,35.34,0,0,0-3.57,9.36l3.88-2.25-1.16,6.13L19.25,196l1.94,6,1.73-2.84s-.43-1.35,1-3.25c1.26-1.67,3.2-4.45,3.2-4.45l2.41.63a5.43,5.43,0,0,0,.94-3.67l.69-.17.75-1.64L33,183.68c.38-.9,4.47-11.5,5.71-14.71.22-.58.95-2.49.75-3.44a10,10,0,0,1-.25-2.21,7.45,7.45,0,0,1,2.48-4.42V159a1.28,1.28,0,0,0,1.25,1.42,1.68,1.68,0,0,0,1-.4,4.69,4.69,0,0,1,3-.92,5.79,5.79,0,0,1,.61,0c-1.71.66-3.79,2.72-3.79,6.62,0,2.75,1.15,5.81,2,8,.24.64.53,1.41.66,1.86L46,176c-1.72,1.33-3.45,2.75-4.05,4.15l0,.08c-2.64.42-5.31.73-5.31.73l-4,7.17,2.52-.83-2.41,5.35,4.83-2s-1.1,3.67,0,5c.15-.12,1.72-1.21,1.72-1.21A11.75,11.75,0,0,1,40.6,192l3.5-3.56.73,1.83c3.63-1.8,10.3-10.34,10.49-11.85,0-1.46-2.62-3.77-2.62-7.18a4.05,4.05,0,0,1,.78-2.78c0,2.42,5.77,7.87,6.29,9.39-1.31.73-3.82,8.28-4.14,9.33a64.51,64.51,0,0,0-6.53,1.24A18.19,18.19,0,0,0,45,195.82l4.41-.89-.76,5.15,1.94-.41s1.85-3.07,4.9-3.22L58.25,201l1.84-2.05s.21-5.82,1.2-6.5l2.15.84c5.94-4.33,6.75-19.92,5.94-20.41-.52-.31-.72.31-2.26-1.64-2.51-3.18-2.12-10.37-4.5-12.9,0,0,.25-.22,1.35-.22a6.33,6.33,0,0,0,5.35-6.5,9.17,9.17,0,0,0-5.08-8.44,5.46,5.46,0,0,0,.57-2.47c0-4.61-5.1-4.62-5.19-5.29,2.46-.53,5-3.37,5.24-5.46.57-5.91-6-9.25-8.86-6.44.89.78,3,1.67,3,3.88,0,3.77-4.14,5.71-4.14,5.71a8.22,8.22,0,0,0,.73-3.3,4.76,4.76,0,0,0-5-5,6.3,6.3,0,0,0-6.19,4.35c1.26,0,5.2-.42,5.2,1.94,0,3-5,4.77-5,9.7s4.31,8.53,9.18,8.85c1.29.09,1.52.18,2.46.18S57.75,151,59.78,151c2.51,0,3.09-1.16,3.93-1.16s.83.84.83,1.31.16,1.73-2.93,1.73c-3.3,0-9.23-1.67-14.57-1.67-4.21,0-4.77.07-5,.38a7.18,7.18,0,0,0,.91-2.88c-1-.51-1.83-3.27-2.35-3.27,4.51-4.09,3.86-7.68,3.9-8.5-.31-1-1-1.2-2.07-1.2a3.06,3.06,0,0,0-1.73.47s-.28-3.9-.91-5.21c-1.46-2.2-8.61-3.68-11.37.51,0,0-1,2.55-1.45,3.34a3.33,3.33,0,0,0-3.47.25s.09,1.12.11,1.95c0,.68-.15,1.78-.15,2.73s1.93,4.4,1.93,4.4c-1.09,1.62-4.86,3.41-4.86,3.41A15.15,15.15,0,0,1,23,151.83Z"/><path class="cls-3" d="M24.31,151c.47-.39,1.79-2.43,3.05-2.43-.1.74-2,2.32-2.63,3.59s.42,2.53.95,3.48c-.11-.85,1.9-2.22,2.53-3s1.15-.49.74.42c-.53,1.16-2.19,2.37-2.22,4.11,0,.93.7,1.59,1.58,2.11,0,0,.32-3.06,1.58-2.22.52.34-2,5.06,0,6.86.32-1.37,3.38-3.69,3.38-4.33s-1.06-2.74,0-2.74c.63,0,1.16,1.9,1.58,1.9s1.26-.42,1.26-1.16-1.89-3.9-.73-3.9c.53,0,1.79,2.11,2.1,2.11s.64-.21,1-1.9-1.47-2.32-.84-4a6.26,6.26,0,0,1,2.21,1.8c.53.95,1.58-1.69,1.69-2.53-.33-.39-.7-1.73-1.26-2.53s-1.27-1-1.27-1.16c0-.42.63-.53,2.74-2.85a7.17,7.17,0,0,0,1.79-5.38c-1.26-1.16-2.32.53-3.37,0s-.53-3.79-.84-5c0,0-1.37,2.21-1.69,1.9s.11-1.27.42-2.32-1.47-1.59-1.47-1.59-.43,2.22-1.16,2.11-.53-2.21-.53-2.21a1.14,1.14,0,0,0-1.79.95c-.38,2.12-1.37.31-1.9-.63-.74.31-.42,2.74-.42,3.58s-1.48-.74-2.22-1c.21.74-.62,1.83-.62,2.68s-2.75-.47-3.38.17a13.19,13.19,0,0,0,.13,4.5c.69,1.94,1.78,2.8,1.78,4s-1.68,1.61-4.72,3.53C23.1,148.13,23.15,152,24.31,151Zm10.3-15.47c.55.75,1.85,1.71,2.81.89.42.14.55.28.07.82s-.48,1.94-1.44,1.86c-1.65-.14-1-2.54-1.58-3.09Zm-1.72-.21.21.48c-.48.14-.55,2.75-1.79,2.75-1.51,0-.34-1.85-1.51-2.2A6.64,6.64,0,0,0,32.89,135.33Zm-6.79,3.78c0-1.58,1.16-1.72,1.51-1.72.89,0,.82,2.68,1.23,3.3s1.58.34,1.79.75c-.34.55-1.51,1.24-1.51,2.06a1.1,1.1,0,0,0,1.1,1.1c.48,0,2.54-.55,2.54-1.78,0-.62-.47-1-.69-1.38s-.17-.93-.34-1c.82-.07,1.65-.34,2.26-.34s.69.41.69,1-1.17,1-1.17,1.51,1.51,2,2,2,1.58-.41,1.58-1.17-.44-1.68,0-2.12c.28-.28.89.27.89.27.93-.93,1.52-2.81,3.37-3,1.85,3.23-2,4.46-2,4.46l-1.51-.62c.59,1.87-1,2.5-1,3.23.14,2.08-.28,2.74-1,3.44-.48-.14-1.51-.21-1.58.2,1,1.72-1.92,3.57-1.58,4.33A27.35,27.35,0,0,1,31,150.78c-.34-.41.3-1-.07-2-.2-.55-1.44.07-1.58-.89s.18-3-1-3.66C28.34,142.25,26.1,141,26.1,139.11Zm30.73,7.27c0,1.4.7,3.44,2.87,3.44,2.51,0,2.6-1.18,4-1.18s2.05,1.14,2.05,2.46-.69,2.86-4.1,2.86c-6,0-7.65-1.64-14.87-1.64-6.84,0-6.28,2.72-10.66,7.1s-7.86,7.64-7.86,7.64l.27.7c-2.11,2.2-3.16,13-4.22,16.76s-6.84,5.36-6.84,5.36l-1.32,7.28L19,194.7a9.19,9.19,0,0,1-.27-2.1c-.08-1.58,4.31-4.83,6.41-6.14-.35,2-5.26,6-5.26,6a12.06,12.06,0,0,1,.52,2.81,19.7,19.7,0,0,0,1.14,4.21l.27-.44a9.61,9.61,0,0,1,.49-2.3c.7-1.4,4.33-6.3,4.33-6.3l2.37.36c1.23-1.94-.43-3.78-.87-4.92,1-1,1.49-.44,2.63.62.88-2.11.09-2.29-.62-4s.62-1.32,2.46-.36c.7-1.14.53-2.1-.53-4.47s1.23-1.23,2.29-.44c.79-1.23.44-1.49-.53-4s.53-2.1,2.19-.88c1.06-2.8.18-2.28-.52-4.12s1.05-1.67,2.37-.53c1.23-1.14.2-1.55.2-4.44,0-2.12,2.47-6.16,6.77-7.74,1.49,1.5-2,1.74-2,3.41,0,1,.7-1.06,4.12-1.06s3.6,1.67,4.48,1.67.09-2.46.09-2.46c4,0,2.63,4,2.63,8.87s6.76,9.56,6.93,12.28c-2.44,1.47-3.08,7.66-5.3,11-1.23,1.36-2.73,1.5-4.26,2.13L50,197.69c1.22-1.32,4.38-2.2,4.38-2.2-1.49-3,.44-3.77,1.23-4.47s4.13-5,4.13-5l.52.52s-1.67,4.74-4.3,6c-.7,1.49,1.76,5.44,2.37,6.41a3.81,3.81,0,0,1,.57-.65s.27-5.3,1.1-6.2,1.23-1,3.07-.26c.79-.79.35-2.9-.35-4.21.79-1.5,2,1.45,2.41.93,1.4-1.89-1.27-3.39-.39-5.24,0,0,1.48,1.39,1.84,1.15s.18-1.32-.17-2.29c-1.84-4.37.93-1.48,1.22-1.66.61-.38-.08-3.2-.87-3.9-.44,1.23-3.08,6-4.48,9.34-.24.58-1.58.79.26-4.92,2.2-6.78,4.66-5.7,5.71-5.35-.09-3.16-3.25-3.42-3.51-5.53-3.16-1.31-.53-12.11-7-14.74l8.16-.62c-1.58,1.58-4.65,1.06-4.65,1.06s0,1,2.45,1,4.43-2.28,4.43-5.35c0-2.27-2.74-7.19-5.36-7.19-2.17,0-3.08,3.33-3.59,3.08-1.3-.65-.39-1.23.08-2.05,1.66-2.87,4.42-2.22,4.43-4.56,0-4.41-5.66-4.57-6.47-3.76s2.61,0,2.54,2.8c0,.52,1.64-1.44,1.64-1.29C61.42,140.5,56.83,142.05,56.83,146.38Zm-6.26-1.8c.63,1.14,5.81.82,5.81-4,0-2.54-2.13-3.08-2.13-3.79,0-1.75,9.47-2.45,9.47-7a7.17,7.17,0,0,0-.7-3.51s.18,3.6-1,3.6c-1.76,0-.18-2.1-.18-3.16,0-3.86-4.12-3-4.12-3s2.45.09,2.45,4c0,4.91-7.19,7.9-7.72,7.37s1.93-2.2,1.93-4.92c0-1.31-.52-4.12-3.33-4.12-3.34,0-5.53,2.28-4.21,2.11s3.94.7,3.94,3c0,3.86-5.09,4.83-5.09,9.74,0,6.15,6.24,7.64,8.17,7.64a5.61,5.61,0,0,0,2.37-.27,3.8,3.8,0,0,1-.36-1.93,8.07,8.07,0,0,1-2.28.35c-4.74,0-5.26-3.59-5.26-4.82s1.24-3.63,3.16-3.43C55.56,138.8,53.13,143.23,50.57,144.58ZM46,184.79c.61-.79,1.58,1.93,1.58,1.93,2.46-2.2-.26-3.38.52-4,1.06-.88,2.81.53,2.81.53,1.32-1.14-.74-2.33-.17-3.07,1.14-1.5,1.49-.09,2.28-.44s1.67-1.06.79-2.2-3.69-6.14-1.23-9.82a3.13,3.13,0,0,0-1.93,1.84c-.35,1.31,1,8,1,8.95l-7.2,6.14s-.53-.52.44-1.75a67.91,67.91,0,0,1,5.53-5c-1.14-1.49.52-5.26-1.76-6.66-.61-.27-2.33-.79-.88-1.85,1-.7,2.55-.35,2.55-3.51a3.26,3.26,0,0,0-2.9-3.42c.35-1,2.9-.7,3.6-1.67-1.32-.61-1.32-.7-2.28-.7s-3.77,1.4-3.77,5.7,3.2,9.88,2.63,10.45-3.86,2.72-4.57,4.38-4.56,4.15-4.56,4.15l-3.68,6,2.45-1.41s.91-2.94,2.35-3.81c2-1.23,4-3.42,4.26-3.09s-1.61,3-3.63,4c-.61,1.22-2.1,5.7-1.92,6.66,0,0,4.38-5.26,5.61-5.79s1.67,1,1.67,1C47.23,187.16,45.38,185.58,46,184.79Zm-8.37-1.47c.79-.7,2.49-1,3.45-1.95l-4.07,1-2.46,3.78,2-.82A4.67,4.67,0,0,1,37.63,183.32Zm-20.38,5.5a21.49,21.49,0,0,0,4.2-1.54c-1.95.21-5.19.21-5.19.21l-2.85,6,2.81-1.58S16.19,189.17,17.25,188.82Zm-4.16-37.56c-.05,2.14,2.72,3.08,2.9,4.13s-2.15-.67-2.11-.35c.39,2.94,2.82,3.24,3.68,4.83.53,1-2.24-.38-2.19-.09.59,3.43,4.19,2.13,4.83,4.38.35,1.26-2.25-.71-2.33.39-.05.74,1.36,4.62,2.15,4.79s3.34-.79,4.48-1.23,3.33-.87,3.6-1.93c-1.23-1.93-4.48-6.4-4.92-10.53-2.54-2.72-5.09-6.67-5.09-9.91a18.87,18.87,0,0,1,1-5.88l-3.6-6.76-.7,3.07s3.33,3.16,3.24,4.21a41.61,41.61,0,0,1-1,4.3c-.62.88-.44-4.21-.44-4.21l-3.86-4.91a27.49,27.49,0,0,0,0,4.23c.41,1.9,2.15,2.79,2.15,3.93a5.79,5.79,0,0,1-2.28,3.51c-.18,1.4,2.55,2.81,2.63,4C14.58,152.05,13.1,150.71,13.09,151.26ZM19.47,143c.54-1,2.66-1.37,2.59-2.26s-2.52-6.41-2.59-7.78l-1.57,2.87s2.32,3.28,2.32,4.37S19.33,141.6,19.47,143Zm35.77,45.33c-2.51.47-5.87,1.23-5.87,1.23l-2.86,4.73,3.41-.71c.31-1.63.49-2.54,1.23-3.2C52.56,189.16,54.79,189.09,55.24,188.37Z"/><path d="M22,49.68c-.11,1.73-1.17.21-1.17.21a9.7,9.7,0,0,1-2.7-6.37c.78-.47,1.15-2.14,1.46-2.3s2.51-1.2,2.51-2.3S19,31,19,28.47l-2.61,3.66-2-3.55-1.62,4.23-1.67-2s-.81,6.12-.52,7.23c.8,3,2.14,2.64,2.14,3.68,0,1.62-2.84,2.82-2.84,2.82.33.86,1.94,8.62,3.11,12.38,1.34,4.28,2.29,4.65,3.18,6.48.72,1.49,1,4.8,2.82,4.8s6.63-1.77,6.63-1.77C24,68,23.22,83.84,20.61,83.84c-1.77,0-6.27.13-6.27.13a35.67,35.67,0,0,0-3.55,9.33l3.86-2.25L13.5,97.16l4.7-3.5,1.94,6,1.72-2.82s-.43-1.35,1-3.24C24.11,91.94,26,89.17,26,89.17l2.4.63a5.39,5.39,0,0,0,.94-3.66l.69-.17.75-1.64,1.08-2.92c.37-.9,4.45-11.46,5.68-14.65a8.47,8.47,0,0,0,.75-3.44,9.78,9.78,0,0,1-.25-2.2,7.46,7.46,0,0,1,2.47-4.4v.09a1.27,1.27,0,0,0,1.25,1.41,1.65,1.65,0,0,0,1-.4,4.7,4.7,0,0,1,3-.91,5.47,5.47,0,0,1,.6,0c-1.7.65-3.77,2.71-3.77,6.6,0,2.73,1.14,5.78,2,8,.24.64.52,1.4.65,1.86l-.42.32c-1.72,1.32-3.44,2.73-4,4.14a.2.2,0,0,0,0,.08c-2.63.41-5.29.72-5.29.72l-4,7.14L34,85l-2.4,5.33,4.8-2s-1.09,3.66,0,5l1.72-1.21a12.08,12.08,0,0,1,1.32-2.45L43,86.14,43.7,88c3.61-1.8,10.25-10.3,10.44-11.81,0-1.46-2.61-3.76-2.61-7.15a4,4,0,0,1,.78-2.77c0,2.4,5.75,7.83,6.27,9.35-1.3.73-3.81,8.25-4.13,9.3a64.91,64.91,0,0,0-6.51,1.23,18.2,18.2,0,0,0-4,7.39l4.39-.89-.75,5.13,1.93-.4s1.84-3.07,4.88-3.22l2.72,4.49,1.83-2s.2-5.8,1.2-6.48l2.14.84c5.91-4.32,6.71-19.86,5.91-20.34-.51-.31-.72.31-2.25-1.63-2.5-3.18-2.11-10.34-4.49-12.86,0,0,.25-.22,1.35-.22a6.3,6.3,0,0,0,5.33-6.48A9.11,9.11,0,0,0,63,41a5.44,5.44,0,0,0,.57-2.46c0-4.6-5.08-4.61-5.17-5.28,2.45-.52,5-3.35,5.22-5.43.57-5.9-6-9.23-8.83-6.43.89.79,3,1.67,3,3.87,0,3.76-4.13,5.69-4.13,5.69a8.05,8.05,0,0,0,.74-3.29,4.75,4.75,0,0,0-5-5,6.27,6.27,0,0,0-6.16,4.33c1.25,0,5.17-.41,5.17,1.94,0,3-5,4.75-5,9.66s4.3,8.5,9.15,8.83c1.29.08,1.51.17,2.45.17s1.53,1.13,3.55,1.13c2.51,0,3.08-1.15,3.92-1.15s.84.84.84,1.31.15,1.72-2.93,1.72c-3.29,0-9.19-1.67-14.52-1.67-4.19,0-4.75.08-5,.38a7.07,7.07,0,0,0,.91-2.86c-1-.51-1.82-3.26-2.35-3.26,4.5-4.08,3.85-7.66,3.89-8.47-.31-1-1-1.2-2.06-1.2a3,3,0,0,0-1.72.47,23.2,23.2,0,0,0-.91-5.19c-1.46-2.19-8.57-3.67-11.33.51,0,0-1,2.54-1.45,3.33a3.31,3.31,0,0,0-3.45.24s.09,1.12.11,1.95-.16,1.78-.16,2.72S24.32,42,24.32,42c-1.1,1.62-4.86,3.4-4.86,3.4A15.15,15.15,0,0,1,22,49.68Z"/><path class="cls-2" d="M23.24,48.86c.48-.39,1.79-2.42,3.05-2.42-.11.74-2,2.31-2.63,3.57s.42,2.52.95,3.47c-.11-.84,1.89-2.21,2.52-2.94s1.15-.49.73.42c-.52,1.15-2.17,2.36-2.2,4.09,0,.93.7,1.59,1.57,2.1,0,0,.32-3,1.58-2.2.51.34-2,5,0,6.83.32-1.37,3.36-3.68,3.36-4.31s-1.05-2.73,0-2.73c.63,0,1.16,1.89,1.58,1.89S35,56.21,35,55.47s-1.89-3.88-.74-3.88c.54,0,1.79,2.1,2.1,2.1s.63-.21,1-1.89-1.47-2.31-.84-4a6.12,6.12,0,0,1,2.2,1.78c.53.95,1.58-1.68,1.68-2.52-.32-.38-.69-1.72-1.26-2.52s-1.26-.95-1.26-1.16c0-.42.63-.52,2.73-2.83a7.12,7.12,0,0,0,1.79-5.36c-1.26-1.16-2.31.53-3.36,0s-.53-3.78-.84-4.94c0,0-1.37,2.21-1.68,1.89s.1-1.26.42-2.31-1.47-1.57-1.47-1.57-.42,2.2-1.16,2.1-.52-2.21-.52-2.21a1.14,1.14,0,0,0-1.79.95c-.37,2.11-1.37.31-1.89-.63-.74.31-.42,2.73-.42,3.57s-1.47-.74-2.21-1c.21.73-.62,1.83-.62,2.67s-2.74-.46-3.37.17c0,.33-.39,3,.14,4.49.68,1.93,1.77,2.79,1.77,3.94s-1.68,1.61-4.71,3.52C22,46,22.09,49.8,23.24,48.86ZM33.51,33.44c.54.75,1.85,1.71,2.8.89.41.14.55.27.07.82S35.9,37.08,34.94,37c-1.64-.14-.95-2.53-1.57-3.08Zm-1.71-.21.2.48c-.48.14-.55,2.74-1.78,2.74-1.5,0-.34-1.85-1.5-2.19A6.62,6.62,0,0,0,31.8,33.23ZM25,37c0-1.58,1.16-1.71,1.5-1.71.89,0,.82,2.67,1.23,3.28s1.57.34,1.78.75c-.34.55-1.5,1.24-1.5,2.06a1.1,1.1,0,0,0,1.09,1.09c.48,0,2.53-.55,2.53-1.78,0-.61-.47-.95-.68-1.37s-.17-.92-.35-1c.83-.07,1.65-.34,2.26-.34s.69.41.69.95-1.17,1-1.17,1.51,1.51,2,2,2S36,42,36,41.24s-.44-1.68,0-2.12c.28-.28.89.27.89.27.92-.92,1.51-2.8,3.35-3,1.85,3.22-2,4.45-2,4.45l-1.51-.62c.59,1.86-1,2.49-.95,3.22.14,2.07-.28,2.72-1,3.42-.48-.14-1.5-.21-1.57.2,1,1.71-1.92,3.56-1.58,4.31a25.9,25.9,0,0,1-1.71-2.73c-.34-.41.3-1-.07-2-.2-.54-1.43.07-1.57-.89s.18-3-1-3.64C27.26,40.13,25,38.84,25,37Zm30.62,7.24c0,1.4.7,3.43,2.86,3.43,2.5,0,2.59-1.18,4-1.18s2,1.14,2,2.45-.68,2.86-4.08,2.86c-6,0-7.62-1.64-14.82-1.64-6.81,0-6.25,2.71-10.62,7.08s-7.83,7.61-7.83,7.61l.26.7c-2.09,2.19-3.14,12.94-4.19,16.7s-6.82,5.33-6.82,5.33l-1.31,7.26,2.79-2.45a9.77,9.77,0,0,1-.26-2.09C17.57,88.72,22,85.49,24,84.17c-.35,2-5.24,6-5.24,6a12.53,12.53,0,0,1,.52,2.8,19.55,19.55,0,0,0,1.14,4.2l.27-.44a9.81,9.81,0,0,1,.48-2.29c.7-1.4,4.32-6.28,4.32-6.28l2.36.35c1.23-1.92-.44-3.76-.87-4.9,1-1,1.48-.44,2.62.61.88-2.09.09-2.27-.61-3.93s.61-1.31,2.45-.35c.7-1.14.52-2.1-.53-4.46s1.23-1.22,2.28-.44c.78-1.22.43-1.48-.53-3.93s.53-2.1,2.19-.88c1-2.79.17-2.27-.53-4.11s1-1.66,2.36-.52c1.23-1.14.2-1.55.2-4.43,0-2.11,2.47-6.13,6.75-7.7,1.49,1.48-2,1.72-2,3.39,0,1,.7-1.05,4.11-1.05s3.58,1.66,4.46,1.66.08-2.45.08-2.45c4,0,2.63,3.93,2.63,8.83s6.73,9.53,6.9,12.24c-2.42,1.46-3.07,7.63-5.28,11-1.22,1.36-2.72,1.5-4.25,2.12l-1.48,6.21c1.22-1.31,4.37-2.19,4.37-2.19-1.49-3,.44-3.76,1.22-4.46s4.11-5,4.11-5l.53.52S57.45,89,54.82,90.21c-.69,1.48,1.75,5.42,2.36,6.38a4,4,0,0,1,.57-.64s.27-5.28,1.1-6.18,1.22-1,3.06-.26c.78-.79.35-2.89-.35-4.2.78-1.49,2,1.45,2.4.93,1.39-1.88-1.27-3.38-.39-5.21,0,0,1.47,1.38,1.83,1.13s.18-1.31-.17-2.27c-1.83-4.36.93-1.48,1.22-1.66.61-.38-.08-3.19-.87-3.89-.43,1.23-3.06,6-4.46,9.31-.24.58-1.57.79.26-4.9C63.57,72,66,73.07,67.07,73.42c-.09-3.15-3.24-3.41-3.5-5.51-3.15-1.31-.53-12.07-7-14.69l8.13-.61c-1.57,1.57-4.63,1-4.63,1s0,1,2.45,1,4.4-2.28,4.4-5.34c0-2.26-2.73-7.16-5.34-7.16-2.16,0-3.06,3.32-3.57,3.07-1.29-.65-.39-1.22.08-2,1.66-2.86,4.4-2.22,4.41-4.55,0-4.39-5.63-4.55-6.44-3.74s2.6,0,2.53,2.79c0,.52,1.63-1.44,1.63-1.29C60.22,38.39,55.65,39.93,55.65,44.24Zm-6.24-1.79c.63,1.13,5.79.81,5.79-4,0-2.53-2.13-3.07-2.13-3.77,0-1.75,9.45-2.45,9.45-7a7.15,7.15,0,0,0-.7-3.5s.17,3.58-1,3.58c-1.75,0-.18-2.09-.18-3.14,0-3.85-4.11-3-4.11-3S59,21.74,59,25.59c0,4.89-7.17,7.87-7.69,7.34s1.92-2.18,1.92-4.89c0-1.31-.52-4.11-3.32-4.11-3.33,0-5.51,2.27-4.2,2.1s3.93.7,3.93,3c0,3.85-5.07,4.81-5.07,9.71,0,6.12,6.21,7.6,8.14,7.6a5.77,5.77,0,0,0,2.36-.26,3.73,3.73,0,0,1-.35-1.92,8.07,8.07,0,0,1-2.28.35c-4.72,0-5.24-3.59-5.24-4.81s1.23-3.62,3.14-3.41C54.38,36.69,52,41.1,49.41,42.45ZM44.86,82.51c.61-.78,1.57,1.93,1.57,1.93,2.45-2.19-.26-3.37.52-4,1-.87,2.8.53,2.8.53,1.31-1.14-.74-2.32-.17-3.06,1.13-1.49,1.48-.09,2.27-.44s1.66-1,.79-2.18-3.68-6.13-1.23-9.8a3.15,3.15,0,0,0-1.92,1.84c-.35,1.31,1,8,1,8.92l-7.17,6.12s-.52-.53.44-1.75a69.24,69.24,0,0,1,5.51-5c-1.14-1.48.52-5.24-1.75-6.64-.61-.26-2.33-.78-.88-1.84,1-.7,2.54-.35,2.54-3.49a3.25,3.25,0,0,0-2.89-3.41c.35-1,2.89-.7,3.59-1.67-1.31-.61-1.31-.7-2.27-.7s-3.76,1.4-3.76,5.69,3.19,9.83,2.62,10.4-3.85,2.71-4.55,4.38-4.55,4.13-4.55,4.13l-3.67,6,2.45-1.4s.9-2.93,2.34-3.8c2-1.22,3.94-3.4,4.25-3.07s-1.61,2.93-3.62,4c-.61,1.23-2.1,5.69-1.92,6.65,0,0,4.37-5.25,5.6-5.77s1.66,1,1.66,1C46.08,84.87,44.24,83.3,44.86,82.51Zm-8.35-1.46c.79-.7,2.49-1,3.45-2l-4.06,1-2.45,3.78,1.94-.82A4.72,4.72,0,0,1,36.51,81.05Zm-20.3,5.48A21.66,21.66,0,0,0,20.39,85c-1.94.2-5.17.2-5.17.2l-2.84,5.94,2.8-1.57S15.16,86.88,16.21,86.53ZM12.06,49.11c0,2.13,2.72,3.06,2.89,4.11s-2.14-.66-2.1-.35c.39,2.93,2.81,3.23,3.67,4.81.53,1-2.23-.38-2.18-.09.59,3.42,4.17,2.13,4.81,4.37.35,1.25-2.24-.71-2.32.39,0,.73,1.36,4.6,2.14,4.77s3.33-.78,4.46-1.22S26.75,65,27,64c-1.23-1.93-4.46-6.39-4.9-10.5-2.54-2.71-5.07-6.64-5.07-9.88a19,19,0,0,1,1-5.86L14.43,31l-.7,3.06s3.32,3.15,3.23,4.2a43.76,43.76,0,0,1-1,4.28c-.61.88-.44-4.2-.44-4.2l-3.85-4.89a28.71,28.71,0,0,0,0,4.22c.41,1.89,2.15,2.77,2.15,3.91s-1.49,3.06-2.27,3.5c-.18,1.4,2.53,2.8,2.62,4C13.55,49.9,12.08,48.56,12.06,49.11Zm6.36-8.2C19,40,21.07,39.55,21,38.67s-2.51-6.4-2.58-7.76l-1.57,2.86s2.32,3.27,2.32,4.35S18.28,39.48,18.42,40.91ZM54.07,86.09c-2.51.46-5.85,1.22-5.85,1.22L45.36,92l3.4-.71c.31-1.62.49-2.53,1.22-3.18C51.39,86.87,53.62,86.8,54.07,86.09Z"/><path d="M169.81,152c-.1,1.73-1.17.22-1.17.22a9.74,9.74,0,0,1-2.7-6.38c.79-.47,1.15-2.14,1.47-2.3s2.5-1.2,2.5-2.3-3.08-7.88-3.08-10.44l-2.61,3.65-2-3.55-1.62,4.23-1.67-2s-.81,6.13-.51,7.23c.79,3,2.13,2.64,2.13,3.68,0,1.62-2.84,2.82-2.84,2.82.33.86,1.94,8.63,3.11,12.38,1.34,4.28,2.29,4.65,3.18,6.48.72,1.49,1,4.81,2.82,4.81s6.63-1.78,6.63-1.78c-1.62,1.57-2.35,17.4-5,17.4-1.77,0-6.26.13-6.26.13a35.22,35.22,0,0,0-3.56,9.32l3.87-2.25-1.15,6.12,4.7-3.5,1.93,6,1.73-2.82s-.43-1.34,1-3.24c1.25-1.67,3.18-4.44,3.18-4.44l2.41.63a5.41,5.41,0,0,0,.93-3.66l.69-.17.75-1.63,1.08-2.92c.38-.9,4.45-11.47,5.68-14.66.22-.58,1-2.48.75-3.43a10,10,0,0,1-.25-2.21,7.42,7.42,0,0,1,2.47-4.39v.08a1.28,1.28,0,0,0,1.25,1.42,1.69,1.69,0,0,0,1-.41,4.76,4.76,0,0,1,3-.9,5.92,5.92,0,0,1,.61,0c-1.71.66-3.78,2.71-3.78,6.6,0,2.73,1.14,5.79,2,8,.24.64.53,1.4.66,1.85l-.42.32c-1.73,1.33-3.45,2.74-4,4.14l0,.08c-2.63.42-5.28.72-5.28.72l-4,7.15,2.52-.83-2.41,5.33,4.81-2s-1.1,3.65,0,5c.15-.12,1.71-1.21,1.71-1.21a12.25,12.25,0,0,1,1.33-2.45c.51-.5,3.49-3.55,3.49-3.55l.73,1.83c3.61-1.8,10.25-10.3,10.44-11.8,0-1.47-2.61-3.76-2.61-7.16a4,4,0,0,1,.79-2.77c0,2.4,5.74,7.84,6.26,9.35-1.3.73-3.81,8.26-4.12,9.3a64.36,64.36,0,0,0-6.51,1.23,18.07,18.07,0,0,0-4,7.39l4.38-.89-.75,5.14,1.94-.41s1.83-3.06,4.87-3.22l2.72,4.5,1.83-2s.21-5.8,1.2-6.48l2.14.84C216,189,216.8,173.45,216,173c-.51-.3-.71.31-2.24-1.63-2.51-3.17-2.12-10.33-4.49-12.86,0,0,.25-.22,1.34-.22a6.29,6.29,0,0,0,5.33-6.48,9.11,9.11,0,0,0-5.06-8.4,5.44,5.44,0,0,0,.57-2.46c0-4.6-5.08-4.6-5.17-5.28,2.45-.52,5-3.35,5.22-5.43.57-5.9-6-9.22-8.83-6.42.89.78,3,1.67,3,3.86,0,3.76-4.12,5.69-4.12,5.69a8.14,8.14,0,0,0,.73-3.29,4.76,4.76,0,0,0-5-5,6.27,6.27,0,0,0-6.16,4.34c1.25,0,5.17-.42,5.17,1.93,0,3-5,4.75-5,9.66s4.29,8.51,9.14,8.83c1.29.09,1.52.17,2.45.17s1.53,1.14,3.56,1.14c2.5,0,3.08-1.15,3.91-1.15s.84.83.84,1.3.15,1.73-2.93,1.73c-3.29,0-9.19-1.67-14.52-1.67-4.19,0-4.75.07-5,.38a7.18,7.18,0,0,0,.91-2.87c-1-.51-1.82-3.26-2.34-3.26,4.5-4.08,3.84-7.66,3.88-8.47-.3-1-1-1.19-2.06-1.19a3,3,0,0,0-1.72.47s-.28-3.89-.91-5.19c-1.46-2.2-8.57-3.68-11.33.51,0,0-1,2.53-1.44,3.32a3.32,3.32,0,0,0-3.46.25s.09,1.12.11,1.94-.15,1.78-.15,2.72,1.93,4.39,1.93,4.39c-1.1,1.61-4.85,3.39-4.85,3.39A15.29,15.29,0,0,1,169.81,152Z"/><path class="cls-2" d="M171.08,151.21c.48-.39,1.79-2.42,3-2.42-.1.74-2,2.31-2.63,3.58s.42,2.52.95,3.46c-.1-.84,1.89-2.21,2.52-2.94s1.15-.49.74.42c-.53,1.15-2.18,2.36-2.21,4.1,0,.93.7,1.59,1.58,2.1,0,0,.31-3,1.57-2.21.51.34-2,5,0,6.83.32-1.37,3.36-3.68,3.36-4.31s-1-2.73,0-2.73c.63,0,1.16,1.89,1.58,1.89s1.26-.42,1.26-1.15-1.89-3.89-.74-3.89c.54,0,1.79,2.1,2.1,2.1s.64-.21.95-1.89-1.47-2.31-.84-4a6.33,6.33,0,0,1,2.21,1.78c.52.95,1.57-1.68,1.68-2.52-.33-.38-.7-1.72-1.26-2.52s-1.26-1-1.26-1.15c0-.42.63-.53,2.73-2.84a7.14,7.14,0,0,0,1.78-5.36c-1.26-1.15-2.31.53-3.36,0s-.52-3.78-.84-4.93c0,0-1.37,2.2-1.68,1.89s.11-1.26.42-2.31-1.47-1.58-1.47-1.58-.42,2.21-1.16,2.1-.52-2.21-.52-2.21a1.14,1.14,0,0,0-1.79,1c-.37,2.11-1.36.32-1.89-.63-.73.32-.42,2.73-.42,3.57s-1.47-.73-2.2-1.05c.21.74-.63,1.83-.63,2.67s-2.74-.46-3.37.17c0,.33-.39,3,.14,4.49.68,1.94,1.77,2.79,1.77,3.95s-1.67,1.6-4.71,3.51C169.88,148.34,169.93,152.15,171.08,151.21Zm10.27-15.42c.55.76,1.85,1.71,2.8.89.42.14.55.28.07.82s-.48,1.93-1.43,1.85c-1.65-.14-1-2.53-1.58-3.08Zm-1.71-.2.21.48c-.48.13-.55,2.73-1.78,2.73-1.51,0-.35-1.84-1.51-2.19A6.69,6.69,0,0,0,179.64,135.59Zm-6.77,3.76c0-1.57,1.16-1.71,1.5-1.71.89,0,.82,2.67,1.24,3.28s1.57.35,1.77.76c-.34.54-1.5,1.23-1.5,2a1.1,1.1,0,0,0,1.09,1.09c.48,0,2.53-.54,2.53-1.78,0-.61-.47-.94-.68-1.36s-.17-.93-.34-1c.82-.07,1.64-.34,2.26-.34s.68.41.68,1-1.16.95-1.16,1.5,1.5,2,2,2,1.57-.42,1.57-1.17-.44-1.67,0-2.12c.28-.27.89.28.89.28.93-.93,1.51-2.81,3.36-3,1.84,3.21-2,4.44-2,4.44l-1.5-.61c.58,1.86-1,2.49-1,3.21.15,2.07-.28,2.73-1,3.42-.47-.13-1.5-.2-1.57.21,1,1.71-1.92,3.55-1.57,4.31a29.1,29.1,0,0,1-1.72-2.74c-.34-.41.3-1-.06-2-.21-.55-1.44.07-1.58-.89s.18-3-1-3.65C175.1,142.48,172.87,141.2,172.87,139.35Zm30.63,7.25c0,1.4.69,3.42,2.85,3.42,2.5,0,2.6-1.17,4-1.17s2,1.13,2,2.44-.69,2.86-4.09,2.86c-6,0-7.62-1.64-14.82-1.64-6.81,0-6.25,2.71-10.62,7.08S175,167.2,175,167.2l.26.7c-2.1,2.19-3.15,12.94-4.2,16.7s-6.82,5.34-6.82,5.34L163,197.2l2.8-2.45a9.35,9.35,0,0,1-.27-2.1c-.08-1.58,4.29-4.81,6.39-6.12-.35,2-5.25,5.94-5.25,5.94a12.37,12.37,0,0,1,.53,2.8,19.13,19.13,0,0,0,1.13,4.2l.27-.44a9.91,9.91,0,0,1,.48-2.29c.7-1.4,4.32-6.28,4.32-6.28l2.36.35c1.23-1.92-.43-3.76-.87-4.89,1-1,1.49-.44,2.62.61.88-2.1.09-2.28-.61-3.94s.61-1.31,2.45-.35c.7-1.13.52-2.1-.53-4.46s1.23-1.22,2.28-.43c.79-1.23.44-1.49-.53-3.94s.53-2.1,2.19-.87c1.05-2.8.17-2.28-.53-4.11s1.05-1.66,2.37-.53c1.22-1.13.2-1.54.2-4.43,0-2.11,2.46-6.13,6.75-7.7,1.48,1.48-2,1.73-2,3.39,0,1,.7-1,4.11-1s3.58,1.66,4.46,1.66.09-2.45.09-2.45c4,0,2.62,3.94,2.62,8.83s6.73,9.54,6.91,12.25c-2.43,1.45-3.08,7.62-5.29,11-1.22,1.36-2.72,1.5-4.24,2.12l-1.49,6.21c1.23-1.31,4.37-2.19,4.37-2.19-1.48-3,.44-3.76,1.23-4.46s4.11-5,4.11-5l.52.53s-1.66,4.72-4.28,5.94c-.7,1.49,1.74,5.42,2.36,6.39a4,4,0,0,1,.56-.65s.27-5.28,1.1-6.18c1-1.05,1.22-1,3.06-.26.79-.79.35-2.88-.35-4.2.79-1.48,2,1.46,2.4.93,1.4-1.88-1.26-3.37-.39-5.21,0,0,1.47,1.38,1.84,1.14s.17-1.31-.18-2.28c-1.82-4.36.93-1.48,1.23-1.66.6-.37-.09-3.18-.87-3.88-.44,1.22-3.07,6-4.47,9.3-.24.58-1.57.79.26-4.89,2.19-6.77,4.64-5.69,5.69-5.34-.09-3.15-3.24-3.41-3.5-5.51-3.15-1.31-.52-12.06-7-14.69l8.14-.61c-1.58,1.57-4.64,1-4.64,1s0,1,2.45,1,4.41-2.27,4.41-5.34c0-2.25-2.73-7.15-5.34-7.15-2.17,0-3.07,3.32-3.58,3.06-1.29-.64-.39-1.22.09-2,1.65-2.86,4.4-2.21,4.41-4.55,0-4.39-5.64-4.55-6.45-3.74s2.6,0,2.53,2.79c0,.52,1.63-1.44,1.63-1.29C208.06,140.74,203.5,142.28,203.5,146.6Zm-6.25-1.8c.63,1.14,5.8.82,5.8-4,0-2.53-2.13-3.06-2.13-3.76,0-1.75,9.44-2.45,9.44-7a7.15,7.15,0,0,0-.7-3.5s.18,3.59-1,3.59c-1.75,0-.17-2.1-.17-3.15,0-3.85-4.11-3-4.11-3s2.44.08,2.44,3.93c0,4.9-7.17,7.87-7.69,7.35s1.92-2.19,1.92-4.9c0-1.31-.52-4.11-3.32-4.11-3.32,0-5.51,2.27-4.2,2.1s3.94.7,3.94,3c0,3.85-5.07,4.81-5.07,9.71,0,6.12,6.2,7.61,8.13,7.61a5.58,5.58,0,0,0,2.36-.27,3.73,3.73,0,0,1-.35-1.92,8,8,0,0,1-2.27.35c-4.73,0-5.25-3.59-5.25-4.81s1.23-3.62,3.15-3.41C202.22,139,199.81,143.46,197.25,144.8Zm-4.55,40.07c.61-.79,1.57,1.92,1.57,1.92,2.45-2.19-.26-3.37.53-4,1-.88,2.79.52,2.79.52,1.32-1.13-.73-2.32-.17-3.06,1.14-1.48,1.49-.09,2.27-.44s1.67-1,.79-2.18-3.67-6.12-1.22-9.79a3.13,3.13,0,0,0-1.93,1.83c-.35,1.31,1,8,1,8.92l-7.17,6.12s-.52-.52.44-1.75a68.71,68.71,0,0,1,5.51-5c-1.14-1.49.52-5.25-1.75-6.65-.61-.26-2.32-.78-.87-1.83,1-.7,2.53-.35,2.53-3.5a3.24,3.24,0,0,0-2.88-3.41c.35-1,2.88-.7,3.58-1.66-1.31-.62-1.31-.7-2.27-.7s-3.76,1.4-3.76,5.68,3.19,9.84,2.62,10.41-3.85,2.71-4.55,4.37-4.55,4.13-4.55,4.13l-3.66,6,2.44-1.4s.9-2.93,2.34-3.79c2.05-1.23,3.94-3.41,4.25-3.08s-1.6,2.94-3.61,4c-.62,1.22-2.1,5.68-1.93,6.64,0,0,4.38-5.24,5.6-5.77s1.66,1,1.66,1C193.92,187.23,192.09,185.65,192.7,184.87Zm-8.34-1.47c.78-.69,2.48-1,3.44-1.94-2.08.52-4.06,1-4.06,1l-2.45,3.78,1.94-.82A4.67,4.67,0,0,1,184.36,183.4Zm-20.31,5.48a21.41,21.41,0,0,0,4.18-1.53c-1.94.2-5.17.2-5.17.2l-2.83,5.94,2.8-1.57S163,189.23,164.05,188.88Zm-4.14-37.42c0,2.13,2.71,3.06,2.88,4.11s-2.14-.66-2.1-.35c.39,2.93,2.81,3.23,3.68,4.81.52,1-2.24-.37-2.19-.08.59,3.42,4.17,2.12,4.81,4.37.36,1.25-2.24-.71-2.32.39,0,.73,1.36,4.59,2.14,4.77s3.33-.79,4.47-1.23,3.32-.87,3.58-1.92c-1.23-1.93-4.46-6.38-4.9-10.49-2.53-2.72-5.07-6.65-5.07-9.88a18.92,18.92,0,0,1,1-5.86l-3.58-6.74-.7,3.06s3.32,3.15,3.23,4.2a41.28,41.28,0,0,1-1,4.29c-.61.87-.44-4.2-.44-4.2l-3.84-4.9a27.48,27.48,0,0,0,0,4.23c.41,1.88,2.14,2.77,2.14,3.9a5.75,5.75,0,0,1-2.27,3.5c-.18,1.4,2.54,2.8,2.62,4C161.39,152.25,159.92,150.91,159.91,151.46Zm6.35-8.19c.54-1,2.65-1.36,2.59-2.25s-2.52-6.39-2.59-7.75l-1.56,2.85s2.31,3.27,2.31,4.36S166.12,141.84,166.26,143.27Zm35.65,45.17c-2.51.46-5.85,1.22-5.85,1.22l-2.85,4.72,3.4-.72c.3-1.62.48-2.53,1.22-3.18C199.24,189.22,201.46,189.16,201.91,188.44Z"/><path d="M115.56,35.42c-.91.24-5.78-1-6.31-3-.81-3.05,3-5.25,3-10.66,0-4.91-5.07-5.91-6.49-5.91-1.75,0-5.91.75-5.91,4.74A4.23,4.23,0,0,0,103.57,25c-2,6.53.2,11.31,3.06,13.28,3.7,2.75,8,1.24,8,2.7-.59.17-3.57,4.43-4.9,6-.9,1.15-1.48,1.91-1.48,2.53,0,1.18,4.67.34,7.67-.27,0,0-2.57,2.85-5.6,3.13-.44,0-.36,0-.69,0a3.36,3.36,0,0,1-1.84-.63c-.59-.58-1.8-1.87-.71-4.77a6.78,6.78,0,0,1,1.13-2.09c.93-1.3-9.17.64-8.1,9.38.49,3.63,2.47,3.31,1,4a9,9,0,0,0-1.18,2.12s-.43-3.86-.89-7.83c-.33-2.85-.75-3.37-.91-6.14-.1-1.62.53-2.76,2-2.83,2.36-.12,4.21.48,3.56-4.72-1.81-14.4-15.52-18.24-15.85-18A5.41,5.41,0,0,0,89.35,24a10.54,10.54,0,0,1,2.4,5.8,57.58,57.58,0,0,0-9.22-3.27,11.4,11.4,0,0,0,0,1.35c.71,1.58,4.08,7.39,4.53,11a12.86,12.86,0,0,0-3.4-3.41c.37,1.48.47,3.87.52,10.25.07,10.1,0,23.78,4,31.44.41.8.42,7.84,3.58,7.84s3.08.33,3.08.33,1.5,1.42,2.25,1.33c0,0-4,11.68-7.41,23.27-3.14,1-4.73-1.7-5.89-1.8s-2.07,6.87,1.37,14a4.06,4.06,0,0,0-2,3.65,17.61,17.61,0,0,0,7.16,13s.61.31.2-.92.56-5.52,1.14-6.27c3.66,3.16,8.57.82,8.57.82l-.92-1.54s-1,.65-.51-7.52c.77.24.83,2,.91,2.07.43.08.8.11.93-.08a66.37,66.37,0,0,0,2.76-6.46c.2-.8,1.34-.45,3.11-3a8.1,8.1,0,0,0,1.08-2.72c2.86-1,3-5.21,3-5.21.92,0,2.2-3.64,2.06-6.57.32-1.26,1-1.41,1.21-2.32.61.92,6.13,3.78,6.13,12.36,0,6.24-2.76,6.25-1.94,8.8.08.25-1.27,1.42-5.1,1.11-2.46-.19-4.93-2.34-5.84-2.5-2.32-.41-2.18.82-2.86,2.59s-3.69,21.37,2.67,34.5c-2.33-.5-9.59-.22-10.51-2.47-.69-1.69,1.92-4,1.92-4s-.64-3-6.26-2.41a11.71,11.71,0,0,0-9.7,7.35l1.42.23a5.7,5.7,0,0,0-2.12,3.44,19.39,19.39,0,0,0-.07,2.42l1.48-.61s-.1,1,.94,5.93c.81,4.39,2.55,5.44,2.55,5.44s.11-.82.19-1.28l.83-5c.18-.88,4.29-.2,4.29-.2A16.34,16.34,0,0,0,89.4,166l0,0a7.44,7.44,0,0,0-.93,3.12h0a18.54,18.54,0,0,1,4.78.73c1.16.34,1.84,1.23,3.27,1.64.44.12,1.39.08,1.84.2,1.45.41,2.91.79,4.52,1.17.4.09,1-.13,1.41,0a19,19,0,0,0,5.72.92c1.43-.06,2.31.71,3.75.79,4.07.2,5.49-1.84,7.16-1.17-.09-1,1.66-2.41-2.41-5.66,0-1.91,2.41-2.74,2.41-2.74.44-3.83-4.33-9.55-4.33-9.55s-.57-3.33-.91-6.68a42.6,42.6,0,0,1,1.46-14.18,14,14,0,0,1,1.37-.38s.21.28-.25,1.41c-.32.76-2.33,7.08.41,15.65,2.43,7.58,9.07,11.48,9.07,15.64l-1.75-.17c-3.82,3.83-3.71,22.62-4.55,24.45-.64,0-1.35.31-1.79,0-1.85-1.31-2.89-2.76-3.92-3.45-.27-.18-.9-.86-1.19-.71-.43,0-2.24,1.49-2.7,1.74-5.19,2.79-5.48,10.7-3.94,15.24a19.59,19.59,0,0,0,2-2.42s1,10.94,5,12l.47-.75s.28-7.1,1.65-6.52c.16.07,1.23,3.54,2.36,4.55,2,1.85,1.55,1.8,3.53,2.68a14.32,14.32,0,0,1,3.22,1.07,8.34,8.34,0,0,0-.36-1.23c.21-.71-1.36-2.2-.52-4.37,0,0,4.57-6.65,4.65-8a11.9,11.9,0,0,0,4.25,1.42l.7-1.34s-1.22-1.91-.45-2.83a25.18,25.18,0,0,0,3.7-7.82c.13-.42-.06-1.17.06-1.6.53-1.78,1.35-3.35,1.81-5.27.14-.6.9-1.53,1-2.12s-.13-1.47,0-2c.91-4.88,1.17-8.91.19-9.44a4.62,4.62,0,0,0,1.91-.91,1.75,1.75,0,0,1-1.41-1.75c0-1.5,2.41-3.25.25-7.57-1.5,1-1.83,1.08-3.08,1.08-2.12,0-4.07-7.6-4.7-10.3l.46-.49a7.73,7.73,0,0,0,3.82,1c2.67,0,6.33-1.08,6.33-9.32,0-4.74-2.83-15.31-2.83-15.31,4.49-2.41,2.71-14.47,2.16-16s-3.52-11.83-.91-19c-3.66,2-6.25,14.6-6.25,14.6-1.38-6.21,4.66-12.43,5-22.67.19-6-4.41-10.73-4.41-10.73s.83-3.08,2.41-3.08,1.17,5.24,1.17,5.24c2.49-.91,3.66-3,3.66-5.91s-1.92-6.49-7.08-6.49-7.83,5.38-7.83,9.63S133,83.85,133,83.85a64.45,64.45,0,0,0-2,9.44c-.32,5.44-.64,11.94,1.6,20.15,2.85,8.4,7.36,19.83,7.36,27.9a3.8,3.8,0,0,1-1,2.87c-2.69-.77-6.7-18.13-8.19-33a153.9,153.9,0,0,1-2-16.45l-.68-5.64,1.3.37c.08-.2.15-.39.23-.55a77.92,77.92,0,0,1-1-8.92c0-3,.33-17.06,1.33-21,1.25,2.08,7.32,2.41,7.32,2.41-3.66-7.4-1.66-15.89-1.83-16.81,3.33.75,5.16-1.58,5.91-1.83-3.83-2.41-3.41-6.82-4-7.07A10.33,10.33,0,0,0,140.27,34a12.29,12.29,0,0,0,1.84-5.66c0-1.83-.5-4.41-1.75-4.91a4.9,4.9,0,0,0,1.58-4c1.75-1.66,2.08-7.16,2.41-7.82-1.33,1.25-6.49,5.82-12.15,5.82-2.08,0-2.83-.33-4.57-.33a8.49,8.49,0,0,0-6.16,2.66,30.34,30.34,0,0,0-8.32,1.42C113.15,22.71,113.11,31,115.56,35.42Z"/><path class="cls-3" d="M104.26,23.79s1.14-1.21.34-1.21c-1.57,0-2-2.07-.88-1.93s1.11-.07.2-.95c-.7-.68,0-1.3,1.46-1.3a2,2,0,0,1,2.08,2c0,1.36-4.84,6.73-3,12.38,2.25,7,8.32,6.13,11.41,6.77,1.93.4,6.11,1.61,5.9,1.2-.41-.83-5.86-1.77-4.9-2,.23,0,5.4,1.17,5.24,1-.54-.75-4.11-2.05-4.65-2.28-1.77-.74-7-2.65-7.56-2.43s6.2,2.38,6.1,2.85-1.07.46-3.55-.3c-2.8-.86-5.53-3.22-5.53-6.7a16.15,16.15,0,0,1,.54-4.56c.75-5,.64,3.8,1.09,3.27s.54-2.15,1-3.28c.53-1.47,1.35-2,1.35-4.07,0-3.88-3.66-5-5.44-5-1.16,0-4.19.72-3.94,3.68S104.26,23.79,104.26,23.79Zm-2.52,16.35c-.06.16-1.63.82-1.87.17-.07-.19.89-.72.93-1a2.89,2.89,0,0,0-.3-1.9c-1.09,1.54-2.82.58-2.9,6.29.87-2.73,4.25-1.68,4.76-2.3s-.46-5.48-1.07-6.7C101.21,35.49,101.9,39.68,101.74,40.14Zm14.59-4.43c2.25.23,4.24.88,4.34.37-.46-1.35-1-1.66-1.73-1.8C117.31,34,117.4,35.55,116.33,35.71ZM88.55,43.38c-.5-1.19-2.53-2.53-2.58-3.52-.89,6.64,3.06,9,2.63,9.71-.73,1.12-2.93-2.22-2.93-2.22-1.32,5.19,3.34,9,3.34,9-.18,1.76-3.08-.88-3.08-.88-1.49,4.4,3.78,9.14,3.78,9.14,0,1.06-3.78-1.58-3.78-1.58,0,5,3.52,7.56,3.52,8.26,0,1.23-1.85-.17-1.85-.17a10.41,10.41,0,0,0,4.48,7.29c-.08,1-2.72-.53-2.72-.53.44,1,.53,5.1,2.28,5.45s3.52.09,4,.53,2,2.28,2.46.17a13.16,13.16,0,0,1-3.59-9.34c0-5,1-7.77,4.45-10.35-.62-3.6-1.24-9.92-2-13s-.69-5.74-.5-12.57c0-2.07,4.54-4.92,4.54-4.92a18.45,18.45,0,0,0-7.61-9.31,31.87,31.87,0,0,1,6,7.58S98,34,97.49,33.61c-1.07-1.07,1.1-1.47-.23-3.11s-6.93-7.09-6.92-7c.06.91,4.19,6.54,2.81,8.27,0,0,2,2,2.35,3.27-.51.72-1,10.53-1.32,11.65-.72-3.57,0-12.35,0-12.35-3.17-3.17-2.89-2.42-5.86-3.95-.35-.12,4.11,3.62,3.79,3.55s-.28,7.65-1.1,5.51c-.27-.71-.92-5.63-.92-5.63a73.3,73.3,0,0,0-5.62-5.21c-.07,2,3.64,6.88,4.79,14.55C89.26,43.52,89,44.57,88.55,43.38ZM101,61.2c0,.81,2.82,1.88,11.1-2.65s10.54-11.18,10.29-11.44-1.51,2.41-3.2,4.31-3.78,3.27-3.93,3.12,1.74-1.81,3.16-3.76c1.27-1.74,2.08-3.78,1.83-3.92S115.55,54,109.83,54a4.71,4.71,0,0,1-3.59-7.57c-.47-.47-4.91,1-4.91,7.29,0,4,2.65,3.66,2.65,4.47C102.49,58.72,101,60.39,101,61.2Zm14.18-30.87c.71,3.69,7.8.14,8.28,8.11.24,4-3.3,5.76-6.2,5.69-2.49-.06-2.93-.61-2.93-.61a12.27,12.27,0,0,1-2.37,2.8,10.85,10.85,0,0,0-1.77,2.07s.49.6,3,.08c3.57-.75,5.34-3.15,9.12-3.15,1.16,0,1.29,1.88,2.31,1.88-.15-.57.67-1.74,1.16-2.35a1.76,1.76,0,0,0-.2-2.7c.2-1,1.64-.85,1.74-1.46A9.11,9.11,0,0,1,123.85,34,1.5,1.5,0,0,1,125,32.61c.3,0,1,.07,1,.75s-.92.82-.92,2.46c0,3.2,3.68,4.25,3.68,5.14s-1.7,1.16-1.7,1.16L127,47.33c-1.67,4.74-4.94,9.3-6.3,10.43.68-.58,4.12-7.75,3.75-8s-3.31,6-5.79,7.4c.41-.34,5-7.81,4.49-8.18-.28-.21-3.21,5-7.87,8.76-3.72,3-8.74,4.74-13.08,5.52,2,2.55,7.15,1.12,7.15,2.07,0,1.3-2,2.7-2,5.87,0,4.9,2.21,9.77-.2,14a21.23,21.23,0,0,0,10.22-13.74,14.79,14.79,0,0,1-7,1.77c-1.33,0-2.08-.74-2.08-1C115,67.74,121.62,59.58,122,58.66c.65-.21,2.8-3.92,4.26-7s2.59-4.29,2.32-3.75a40.88,40.88,0,0,1-6.88,13.46c-3.65,4.73-10.47,10.25-10.47,10.25s4.92.23,7-1.93c.56-.13,1,.13,1,.58s-1,.53-1,2.06c.08,8.32,8.92,14.88,10.12,15.13a26.9,26.9,0,0,1-1.39-8.55,189.12,189.12,0,0,1,1.85-20.67c.2-1.34-.66-2.56-.41-3.27s.26-.41.54-.41c.86,0,.68,4.07,5.83,5-2.72-6.73-.93-14.2-.93-14.57,0-1.17-1-1.65-.53-2.74a7,7,0,0,0,3.18.84A3.79,3.79,0,0,0,139,42.6a9,9,0,0,1-3-6.19c0-.49-.85-1.09-.85-1.5a.5.5,0,0,1,.29-.5c1,.6,2.26-.54,3.12-.49,0-1,1.65-2,1.84-5.62s-1.33-4.12-2.56-4.12c-.93,0-1.55.51-2-.17.76-.64,4.45-1.14,4.45-4.17-2.35,2.05-5.88,1.26-8.19,2.25,0,0-.49-.18-.49-.6,2.1-1.71,9,.66,10.25-6.09-1.63,1.23-5.73,3.7-9.47,3.7-1.19,0-3-.32-4.74-.32-3.35,0-5,1.68-5.34,2.56a31.72,31.72,0,0,0-7.13.81C115.74,23.38,114.62,27.67,115.13,30.33ZM137,25.49c.75,0,1.13.31,1.4.14-.27.58-2.25,2.76-3.75,2.76a.6.6,0,0,1-.51-.21C134.42,27.16,136.22,25.49,137,25.49Zm-.61,2.76c.44.21,1.4,0,1,.68s-.95,1.74-.95,1.74.37.34.54.27,1.33.21,1.64,0c-.21.54-.58,2.9-3.14,2.9A1.76,1.76,0,0,1,133.7,32C133.7,30.43,136.36,28.66,136.36,28.25Zm-11.65-5.72c3.22,0,4.26,4.88,7.19,4.14-.53,1.11-2.31.62-2.89.92a5.67,5.67,0,0,1-3.32,1.27c-1.86,0-2.7-.79-4.46-.79a3.06,3.06,0,0,0-1.7.55s.1-1.31,1.82-1.31,2.61.39,4.34.39a3.9,3.9,0,0,0,2.69-1c-1.27-.26-2.3-3.13-3.79-3.13a2.79,2.79,0,0,0-1.58.8c.19.2,1.15-.37,1.66-.37,1.54,0,1.45,2.52,1.66,2.62a4.54,4.54,0,0,1-2,.33,15.12,15.12,0,0,1-2.8-.59c.18-.17.1-.52.67-.52s1.13.19,1.13-.28-1-.5-.86-.76c-.49.31-1.27,1.6-2,1.6s-.75-.31-.75-.31C120.84,26.06,122,22.53,124.71,22.53Zm-6.79,1c.12-.49.78-.23,1-.49.27,1.12-1.43,1.82-1.74,2.25s-.25,1-.82,1-.47-.35-.47-.61.29-.72.29-1.11a.85.85,0,0,0-.33-.63A6.65,6.65,0,0,1,117.92,23.52Zm1.59,19c-1-.24-1.56-.81-2.46-.77s-1.47.75-2,.86C117,42.91,117.86,43.77,119.51,42.52ZM86,121a47.52,47.52,0,0,0,2-5.52,8,8,0,0,1,.68-1.11c.35-1.44.36-1,.83-3-2.09.55-5-1.3-5-1.3-.68.38,3.12,2.36,2.74,2.78C84.18,116.35,86,121,86,121Zm0,0a47.52,47.52,0,0,0,2-5.52,8,8,0,0,1,.68-1.11c.35-1.44.36-1,.83-3-2.09.55-5-1.3-5-1.3-.68.38,3.12,2.36,2.74,2.78C84.18,116.35,86,121,86,121Zm29.1,76.05c-.53-.62-1.16-2.28-1.51-2.36s-3.16,4.35-1.91,9.86c.11.44.19-2,.32-2.68C112.6,199,113.31,198.18,115.14,197.06Zm-5.92-3.16c1.08-1.27,3.85-4,4.93-5l-2.5,1.05A11.38,11.38,0,0,0,109.22,193.9Zm10.89,10.57c-.61-.44-2.11-1.84-2.11-1.84s.48,6.41,3,8A10,10,0,0,1,120.11,204.47ZM89.56,116c-1.07,3.4-2.5,7-4.86,8.86a5.31,5.31,0,0,1,1.32.26c.7-.53,2.72-4.13,3.43-4.83A24.06,24.06,0,0,1,86.9,126a45.83,45.83,0,0,0,2.64,9.31c0-1.84.52-4.92,1.31-5.09-1.31-1.23-1.49-3.69-2.37-4,1.06-2.28,2.9-7.47,2.9-8.7s1-4.79,1.41-4.39-1.41,9.4-2.38,11.6l1.06.53a47.45,47.45,0,0,1,2.28-6.86c.36,2.2-1.23,7.38-1.23,7.38,1.41,3,3.41,4.63,4.9,4.8-2.18-3.68,1.43-8.58.29-11.3.44-1.23,2,.88,2.3,2.22a6.15,6.15,0,0,1,.25,1.65,10.73,10.73,0,0,0,1.14-4.84c0-2.81-.88-4.13-.88-5.09,1.14,0,2.08,2.08,2.08,3.32,0,1,2.84.46,3.46-3.94.36-2.61-2.64-4.48-2.64-4.48s4.3.53,4.22,2.9c.88-.79,2.37-2.9.35-5.8s-1.85-3.16-.35-2.46a4.41,4.41,0,0,1,2.37,3.43c.62.44,1.76-1.94,1.23-4.48a11.05,11.05,0,0,0-2.37-4.57c1.31-1.5,2.28,1.67,3.34,1.84-.18-3.25,4.39-5.45,4.39-5.45.76-1.27,1.26-4.52,2.37-6.15,1.34-2,3.25-2.14,3.25-1.23-3,.44-3.16,5.36-3.6,6.33.61-.09,2.2.44,1,1s-3.25.79-3.77,2.55c2.46-.44,4.3-1.4,4.39.09-2.29,1.41-5,.7-5,2.46,0,.7,2,1.32,2,1.32a19.72,19.72,0,0,1,3.89,11c0,7-1.78,7.67-1.78,8.81s3.16,3.16,2.81,5.54c1.85-3.7.71-9.67,1.67-10.37,3.16,8.43-5.11,20.42-5.11,25.87,0,17.93,10.65,16.63,10.65,28.34a6.27,6.27,0,0,1-1,3.25c-1.14,0,.53-3.95-1.58-4-3.42,4.49-2.83,18.64-4.26,24a13.63,13.63,0,0,1-2.93,0c-1.42-1-3.31-2.42-4.19-3.14-1,1,2.36,3.25,1.8,3.25-.23,0-2.82-1.89-3.14-1.73a8.84,8.84,0,0,0-3.85,3.85,12.11,12.11,0,0,0-1.69,6.71c.43,0,2.49-6.57,4.83-8.08l.71,0h0l1.88.1h0a10.14,10.14,0,0,0,2.17.12l3.59.15s0,.55,0,.55c-1.67-.44-6.09.34-7.18.31.28.7,1.18,1.76,1.35,2.15a45.82,45.82,0,0,0,6.07-1.13c-.26,1.49-5.92,2.15-5.92,2.15-4.95,2.87-2,13.32-2,13.32s.57-1.68.82-2.59c.19-.7.32-3.05,1.2-3.75a4.28,4.28,0,0,0,1.32-3.52c7.38-4.39,7.12-8,8.08-7.64,0,3.25-7,8.52-7,8.52l1.9,1.51s3.21-4,3.65-4c.2,0-.54.9-1.18,1.89a21.56,21.56,0,0,1-2,2.77c.4,1.74.35,6.79,3.5,8.18a17.69,17.69,0,0,1-.1-5.49c1.16-2.15,2.4-2.78,2.93-4.27,1-2,2.46-4.66,2.46-4.66a7.67,7.67,0,0,0,3.41,3.06s-1.12-2.71.72-4.29-3.25-5.71-3.25-5.71,1.85-.88,2.9.44,1.32,2.46,1.76,2.63-.09-2.37.79-3.25-.53-4.57-3.25-5c1.4-1.58,3.77.88,4.74.88.09-1,1.58-2.72.44-4s-2.9-3.16-2.9-3.16c2-1,3,1.31,4.31,1,0-1.32,1.32-2.55-.44-4.22a13.18,13.18,0,0,0-2.46-2,7.1,7.1,0,0,1,4,1.06c-.44-2.2.09-3.7-1.14-5a3.11,3.11,0,0,0-2.29-1.15c.18-1.93,2.29-.26,3.25-.61-1.14-1.49,1.5-4.22.71-6.59-6.59,3-7.56-9.05-8.61-9.67.26-4.74-2.49-18.63-2.73-22-.26-3.7.26-5.45.62-2.82.14,1.09,1.16,4.83,1.67,9,.71,6.05.88,12.92,6,12.92,5.27,0,5.27-5.45,5.27-8s-2.81-13.8-2.81-15.56c2.46-2.19,3-6.24,3.08-9.4-.53.79-3.43,4.31-3.43,5.27-1.05-1.76,3-5.27,2.9-7.47a17,17,0,0,0-.88-4.39c-.1.57-1,3-1.58,5-.39,1.36-.42,2.63-.7,2.63-.71,0-.27-2.63.08-3.86.2-.7,1.83-3.5,1.85-6.15,0-8.45-1.77-5.81-.47-10.69-2,3-3.78,9.47-3.78,16.06-.31-.85-.63,1-.89.17a42.72,42.72,0,0,1-1.1-9.94c0-2.86,4.83-12.12,4.83-19.51s-5.71-10.46-6-13.44A4.51,4.51,0,0,1,136.54,66a4.43,4.43,0,0,0-.08,5.1c1.23-3.34,5.88-4.92,5.8,1,1.58-1.41,1.67-7.82-4.75-7.82-5,0-6.1,5.91-6.1,8.28,0,6.59,5.93,13.95,5.93,17.73,0,4.48-2.38,8.26-2.29,9.49-.09-2.2,1.49-8.26,1.41-10-1.15,1.14-1.76,5.89-2.29,6.85-.08-1.93.79-8.61,1.32-9.75-1,1.58-2.81,6.59-2.63,8-.18-1.06,1.31-8.09,1.49-10.2a48.42,48.42,0,0,0-2.59,16.22c0,11.42,9.71,28.68,9.71,40.37,0,3.78-1.67,4.84-2.55,4.84-7.21,0-12.39-57.83-12.39-57.83-3.83-3.09-8.66-11.06-8.66-11.06l-.8-.29a31.7,31.7,0,0,1-5.83,7.49c-1.54,1.32-4.44,2.67-6.32,3.88a12.15,12.15,0,0,0-2.73,2.27L100.76,90a40.17,40.17,0,0,1,3.7-3.46c1.31-.94,2.39-3.63,2.39-5.92S106,75,106,72.58c0-3.2,1.46-5.68.88-5.86-1.79-.57-4.38-1.52-5.76-2.14-.94,2.39-2.67,2.11-3.53,3.89-1.09,2.25-1.23,5.33-1.23,8.18,0,4.22,1.78,5.53,2.52,5.53.42-1,.7-4,1.76-6.88,1-2.56,2.69-4.35,2.9-5,.52.88-1.39,2.94-2,7-.88,5.62-5.76,16.8-7.12,21.7S90.39,114.13,89.56,116ZM106,172.57c5.71,0,6.23-2.37,6.85-2.37a.73.73,0,0,1,.79.79c0,.35-1.67,1-1.76,1.76,4.4.79,5.89-1.14,7.65-1.05,0-1.85-2.55-2.55-2.55-4a4.53,4.53,0,0,1,2.2-3.69c0-6.85-5.1-2.9-5.1-17.4,0-5.62.79-10.54,1.93-11.07-3.78.44-2.63,12.74-2.63,12.74s-.27,1.23-.79,1.06.18-1.32-1.15-1.32c-1,0,.36-1.23,1-1s.1-1.58-.44-1.58c-1,0-1.34-1.41,0-1.41,1.06,0,.62-1.14.09-1.49s-1.85-.88-.18-1.49c0,0,.53-.88-.26-1.15s-.09-.87-.18-1.75c.88.44,1.54.44,1.5-.88-.07-2.15,5.18-5.89,6.76-4.22.79-.88-.08-1.32-.08-2.55a13.89,13.89,0,0,1,.87-3.51c1.15,0-.61,3.51.62,3.51.09-1.23,1.14-3.51.53-4.3s-.33-1.19-1-2.77a3,3,0,0,0-1.87-1.66c-1.4.44-5.89,2-12.13-1.81,0,0-.71-.28-1.14,1-.6,1.83-1,6.35-1,15.56,0,14.23,5.54,21.26,5.54,22.32s-2.37-1.41-4.57-1.41c-6.06,0-9.75-.18-13.71-6.24l-1.49.26,3.45,3.85c-1.32,0-4.15-3.23-4.15-3.23s-6.25,3.34-6.25,5.45.75-.83,2.47-.71c2,.15,4.39-2,5-1.66A10,10,0,0,0,94,157.64c3.36,1.37,8.94,2.47,8.26,2.63-2.07.5-12.29-2.12-13.5-2.59l-3.09,1.68c.85.23,7.36,1.92,6.86,2-2.09.4-7.49-1.59-7.72-1.27,0,6.28,1.15,8.28,1.15,8.28.43-3.09.71-5.62,1.59-5.53,2.19.21,6.88.3,6.88,2.07,0,1.49-4.65,1.58-4.56,2.81,1.23.18,5.18.79,6,.35s2.73-1.23,2.73-.52c0,1.4-3,1.49-3,1.49a5.66,5.66,0,0,0,3.51,1.05c2.29,0,2.37-1.23,2.37-1.23,3.52,0-1.14,1.67-1.31,2.11,1,.18,4.65.62,5.36.09s2.46-1.58,2.81-1.05S106.58,171.87,106,172.57ZM95.34,150.18c-1.31.88-2-1.17-4.16-.26,2.14.57,2.85,2.17,4.26,2.88-.35-1.41,1.31-3,1.31-3s-.69-3-5.26-1.42C93.51,148.7,95,147.87,95.34,150.18Zm-10.66,3.65c2.9-3.48,5.55-3.89,5.55-3.89-.09-.21-.09-1.32-1.88-.59C87.05,150,86,151.13,84.68,153.83Zm8.37-25.2c-.44-1.14-.93-2.1-1.9-2.1a4.21,4.21,0,0,0-1.22.1c1.18,1.85,3.13,4.26,3.13,4.26a34.19,34.19,0,0,1,4.09.69C95.48,130.61,93.49,129.78,93.05,128.63ZM86,112.55l-1.58-1.24a9.09,9.09,0,0,0,.46,5.89C85.07,113.76,84.75,113.74,86,112.55Zm0,14a4.27,4.27,0,0,1-1.48-.56A15.07,15.07,0,0,0,88,134.63C85.81,129.89,85.92,128.31,85.92,126.55Z"/></g></g></svg>