<svg xmlns="http://www.w3.org/2000/svg" viewBox="0 0 936.41 264.69"><defs><style>.cls-1{fill:#231f20;}</style></defs><title>BangorLogo_landscape_allBlack</title><g id="Layer_2" data-name="Layer 2"><g id="Layer_1-2" data-name="Layer 1"><path d="M309.78,166.57H269.56v-3.24H270c3.53,0,6-.92,7.33-2.73s2.06-5.28,2.06-10.17V98.11c0-5-.66-8.46-1.95-10.29s-3.77-2.69-7.44-2.69h-.41V81.89h33c9.37,0,16.87,1.91,22.27,5.68s8.21,8.9,8.21,15.15c0,9-5.68,15.4-16.89,19.14a29.58,29.58,0,0,1,15.49,8.43A21.72,21.72,0,0,1,338,145.63a18.09,18.09,0,0,1-7.8,15.24c-5.13,3.78-12,5.7-20.4,5.7Zm-18.2-41.9v24.19c0,5.34.6,9,1.78,10.91s3.42,2.77,6.75,2.77h7.16a16.06,16.06,0,0,0,12-4.77c3.08-3.17,4.65-7.49,4.65-12.84a18.22,18.22,0,0,0-6.68-14.71c-4.46-3.68-10.47-5.55-17.87-5.55Zm0-4h8.53c6.12,0,11.05-1.57,14.65-4.66s5.4-7.29,5.4-12.53c0-5.52-1.78-9.87-5.29-12.92s-8.59-4.62-15.05-4.62h-8.24v34.73Z"/><path d="M451.45,166.57H420.23v-3.24h.4c4.73,0,7-1.51,7-4.61a9.17,9.17,0,0,0-.64-3.09l-7.93-23H391.92l-5.8,16.57c-1.45,4.19-2.18,7.26-2.18,9.11,0,3.3,2.1,5,6.43,5h.39v3.23H367.64v-3.19l.35,0a13.06,13.06,0,0,0,7.23-3c1.71-1.57,3.48-4.92,5.28-9.94l23.88-69.18.1-.28h9.46l.09.27,25.09,72.27c1.44,4.16,2.94,6.87,4.47,8.05s4,1.78,7.45,1.78h.41v3.24ZM393.8,126.65H417L405.35,92.76,393.8,126.65Z"/><path d="M559.73,166h-3.24l-.12-.14L495.88,93.72v57.8c0,4,.84,6.93,2.5,8.63s4.49,2.56,8.43,2.56h.41V166h-27v-3.24h.41c4,0,6.75-1,8.14-3s2.13-5.74,2.13-11V99.64c0-5.17-1-8.92-2.88-11.16s-5.13-3.56-9.57-4l-.36,0v-3.2h22.76l.12.15,53.57,64.42V97.91c0-5-.73-8.58-2.17-10.53s-4.1-2.87-8-2.87H544V81.27h26.88v3.24h-.41c-4,0-6.85.91-8.38,2.72s-2.33,5.22-2.33,10.1V166Z"/><path d="M655.94,168.64c-16,0-28.62-3.88-37.56-11.53s-13.51-17.93-13.51-30.48a48.22,48.22,0,0,1,5.91-23.79,45.06,45.06,0,0,1,39-23,56,56,0,0,1,15.5,2.45,32.49,32.49,0,0,0,8,1.48c2.29,0,3.76-.83,4.49-2.54l.1-.25h3.4v25.55h-3.19l0-.34A23.91,23.91,0,0,0,668.55,90a30.26,30.26,0,0,0-18.79-6.11A27.59,27.59,0,0,0,627.6,94.31c-5.75,7-8.67,16.12-8.67,27.17,0,12.14,3.38,22.35,10,30.34s15.1,12,25.14,12c9.49,0,14.1-2.79,14.1-8.55v-9.1c0-5.05-.68-8.62-2-10.6s-3.7-2.9-7.07-2.9h-3.72v-3.24h35.79v3.24h-.41c-3.69,0-6.36.81-7.92,2.42s-2.35,4.47-2.35,8.49v22.88l-.3.08A78.82,78.82,0,0,1,668.82,168c-5.51.42-9.84.64-12.88.64Z"/><path d="M773,168.64c-12.91,0-24-4.37-32.9-13a42.71,42.71,0,0,1-13.46-31.82c0-12.5,4.5-23.07,13.38-31.44s20.1-12.58,33.34-12.58c12.86,0,23.9,4.3,32.8,12.77a41.67,41.67,0,0,1,13.42,31.25,42.59,42.59,0,0,1-13.53,31.82c-9,8.61-20.09,13-33,13Zm.66-84.8c-9.94,0-18,3.68-23.95,10.94s-9,17.1-9,29.2,3,22,8.9,29.46a28.35,28.35,0,0,0,23.25,11.18,28.76,28.76,0,0,0,23.58-11.43c6-7.61,9.09-17.25,9.09-28.64,0-12.24-3-22.2-8.9-29.6a28.14,28.14,0,0,0-23-11.11Z"/><path d="M936.41,166.57H918.14l-.12-.14a167.29,167.29,0,0,1-13.22-18.74c-5.44-8.56-9.76-14.1-12.82-16.45a16.34,16.34,0,0,0-10.11-3.49h-6.59v22.66c0,4.86.7,8.27,2.09,10.15s3.85,2.77,7.38,2.77h.4v3.24H853.26v-3.24h.41c3.67,0,6.17-.92,7.43-2.76s2-5.29,2-10.14V97.82c0-4.85-.64-8.22-1.92-10s-3.75-2.66-7.47-2.66h-.41V81.89h35.83c8.79,0,15.92,2.11,21.2,6.28a19.67,19.67,0,0,1,8,16.07c0,10.21-5.81,17.18-17.28,20.73a36.27,36.27,0,0,1,7,6.29,111.94,111.94,0,0,1,9.82,14.19c4.47,7.23,8,12,10.52,14.29a13,13,0,0,0,7.68,3.6l.38,0v3.21Zm-61.13-43.13h10.2c6.2,0,11.12-1.74,14.64-5.18s5.29-8.05,5.29-13.73a17.12,17.12,0,0,0-5.87-13.46c-3.91-3.42-9.16-5.15-15.61-5.15h-8.65v37.52Z"/><path d="M286.61,243.36c-3.94,0-7.08-1.16-9.35-3.45a12.44,12.44,0,0,1-3.41-9.1V213.33a7.87,7.87,0,0,0-.81-4.23c-.5-.73-1.52-1.11-3-1.11h-.32v-1.67h13.86V208h-.32c-1.52,0-2.56.36-3.07,1.08s-.82,2.16-.82,4.2v18a9,9,0,0,0,2.38,6.63,8.9,8.9,0,0,0,6.63,2.41c4.18,0,7.59-1.91,10.13-5.68V213.33a7.77,7.77,0,0,0-.8-4.16,3.42,3.42,0,0,0-2.8-1.18h-.3v-1.66h13.55V208h-.32a3.51,3.51,0,0,0-3,1.11c-.56.77-.85,2.19-.85,4.24V235.5a7.7,7.7,0,0,0,.83,4.19,3.49,3.49,0,0,0,3,1.12h.32v1.67h-9.65V238a16,16,0,0,1-11.88,5.33Z"/><path d="M360.41,242.48h-1.59l-.1-.11-25.35-30.21v24.06a5,5,0,0,0,1,3.55,4.72,4.72,0,0,0,3.46,1h.32v1.67H326.43v-1.67h.32c1.65,0,2.77-.41,3.32-1.21s.88-2.37.88-4.56V214.25c0-2.15-.4-3.71-1.18-4.63a5.81,5.81,0,0,0-4-1.63l-.29,0v-1.64h9.87l.09.12,22.42,27V213.52c0-2.1-.3-3.57-.89-4.37s-1.66-1.16-3.25-1.16h-.32v-1.67h11.68V208h-.32c-1.66,0-2.81.37-3.43,1.1s-1,2.15-1,4.18v29.21Z"/><path d="M396.81,242.48H383v-1.67h.32c1.49,0,2.5-.36,3-1.07a7.92,7.92,0,0,0,.81-4.24V213.34c0-2.1-.27-3.54-.8-4.28s-1.52-1.07-3-1.07H383v-1.67h13.81V208h-.33a3.51,3.51,0,0,0-3,1.11c-.56.77-.84,2.19-.84,4.24V235.5c0,2,.28,3.46.84,4.21a3.5,3.5,0,0,0,3,1.1h.33v1.67Z"/><path d="M433.84,243h-1.48l-.07-.21L421,213.94c-1-2.61-1.93-4.27-2.66-4.92a4.72,4.72,0,0,0-3.1-1h-.31v-1.66h13.93V208h-.32c-2.59,0-2.89,1.19-2.89,2.07a4.4,4.4,0,0,0,.39,1.67l8.65,22.16,8.2-21.36a6.94,6.94,0,0,0,.51-2.34c0-.95-.31-2.2-3-2.2h-.32v-1.67h11.31v1.73h-.32c-2.53,0-4.67,2.26-6.35,6.7l-10.8,28-.08.21Z"/><path d="M492.55,242.48H465.62v-1.67h.32c1.53,0,2.55-.36,3-1.09a7.89,7.89,0,0,0,.79-4.16V213.34c0-2.08-.27-3.52-.81-4.27a3.56,3.56,0,0,0-3-1.08h-.32v-1.67h27v6.58h-1.27l-.05-.25a5.69,5.69,0,0,0-1.5-3.2c-.63-.5-2.09-.76-4.33-.76H475.25v14.56h9.91a4,4,0,0,0,2.63-.64,4.81,4.81,0,0,0,1-2.57l0-.27h1.69V229h-1.66l-.06-.24c-.47-1.78-1-2.43-1.31-2.66s-1.24-.52-3.5-.52h-8.75V238a2.2,2.2,0,0,0,.5,1.64,2.88,2.88,0,0,0,1.86.46H484a20.72,20.72,0,0,0,4.66-.35,4.36,4.36,0,0,0,2.06-1.26,12.84,12.84,0,0,0,1.88-3.11l.09-.19h1.7l-.1.4-1.68,6.63-.06.24Z"/><path d="M549.35,242.48h-8l-.09-.11a70,70,0,0,1-5.62-8c-2.29-3.62-4.11-5.95-5.39-6.93A6.77,6.77,0,0,0,526.1,226h-2.64v9.45a7.49,7.49,0,0,0,.86,4.21,3.51,3.51,0,0,0,3,1.11h.32v1.67h-13.8v-1.67h.32c1.5,0,2.52-.37,3-1.1a8,8,0,0,0,.8-4.21V213.22c0-2-.26-3.43-.78-4.17s-1.52-1.06-3-1.06h-.32v-1.67h15.32a14.31,14.31,0,0,1,9.07,2.69,8.46,8.46,0,0,1,3.44,6.93c0,4.3-2.39,7.27-7.12,8.83a16.13,16.13,0,0,1,2.73,2.51,48.14,48.14,0,0,1,4.18,6,31.06,31.06,0,0,0,4.42,6,5.37,5.37,0,0,0,3.17,1.48l.3,0v1.64Zm-25.89-18.57h4.17a8.39,8.39,0,0,0,6.09-2.14,7.66,7.66,0,0,0,2.2-5.71,7,7,0,0,0-2.44-5.58,9.51,9.51,0,0,0-6.5-2.15h-3.52v15.58Z"/><path d="M576.08,243.36a20.61,20.61,0,0,1-6.45-1.35,8.49,8.49,0,0,0-1.92-.52c-.17,0-.68,0-1.11,1.15l-.07.21h-1.64V232.61h1.73v.32a8,8,0,0,0,2.56,6.12,8.58,8.58,0,0,0,5.94,2.31,7.62,7.62,0,0,0,5.12-1.65,5.49,5.49,0,0,0,1.9-4.36,6,6,0,0,0-1.58-3.92c-1.07-1.28-3.36-3-6.81-5a31.14,31.14,0,0,1-5.78-4.1,10.19,10.19,0,0,1-2.19-3.36,11.12,11.12,0,0,1-.7-4,9,9,0,0,1,2.86-6.88,10.59,10.59,0,0,1,7.41-2.63,17.32,17.32,0,0,1,5.4,1,7.44,7.44,0,0,0,1.77.41c.29,0,.35-.07.35-.07a2.18,2.18,0,0,0,.28-.7l.07-.23h1.59v9H583.1l0-.29a7.38,7.38,0,0,0-7.79-7,7.12,7.12,0,0,0-4.58,1.38,4.4,4.4,0,0,0-1.68,3.63,6,6,0,0,0,1.42,3.88c1,1.2,3.12,2.77,6.4,4.68,3.89,2.25,6.54,4.25,7.89,5.95a9.39,9.39,0,0,1,2.07,6,10,10,0,0,1-3.16,7.38,10.53,10.53,0,0,1-7.57,3.05Z"/><path d="M620.39,242.48H606.58v-1.67h.32a3.57,3.57,0,0,0,3-1.07,7.92,7.92,0,0,0,.81-4.24V213.34c0-2.1-.27-3.54-.8-4.28s-1.52-1.07-3-1.07h-.32v-1.67h13.81V208h-.33a3.51,3.51,0,0,0-3,1.11c-.56.77-.84,2.19-.84,4.24V235.5c0,2,.28,3.46.84,4.22a3.53,3.53,0,0,0,3,1.09h.33v1.67Z"/><path d="M662,242.48H648.43v-1.67h.32c1.49,0,2.5-.38,3-1.15a7.82,7.82,0,0,0,.81-4.16V208.69h-5c-2.46,0-4.26.38-5.36,1.12a4.66,4.66,0,0,0-1.81,3.67l0,.3H638.7V205h1.54l.09.08c.91.83,2.69,1.25,5.27,1.25h19.18c2.68,0,4.57-.42,5.6-1.26l.09-.07h1.59v8.79h-1.29l-.06-.25a5.79,5.79,0,0,0-2.3-3.81,10.12,10.12,0,0,0-5.12-1h-5.23v27c0,2.06.25,3.46.75,4.14s1.44,1,2.89,1H662v1.67Z"/><path d="M712.42,242.48h-14v-1.67h.32c1.68,0,2.81-.38,3.34-1.13a7.8,7.8,0,0,0,.83-4.19v-11.1l-7.75-11.69a16.27,16.27,0,0,0-3.07-3.77,5.75,5.75,0,0,0-3.19-.94h-.31v-1.66h15V208h-.32c-2.29,0-3.45.45-3.45,1.35a3.32,3.32,0,0,0,.69,1.69l7,10.36,5.53-8.51a6.46,6.46,0,0,0,1.23-3.24c0-.71-.22-1.65-2.1-1.65h-.33v-1.67h10.69V208l-.3,0a6.08,6.08,0,0,0-3,.81,11.49,11.49,0,0,0-2.6,3.08l-8.19,12.51v11.1c0,2.09.27,3.52.8,4.26a3.42,3.42,0,0,0,2.91,1.06h.32v1.67Z"/><path d="M283.46,48h-13.8V46.33H270a3.43,3.43,0,0,0,3-1.13,7.35,7.35,0,0,0,.83-4.06V18.86a7.83,7.83,0,0,0-.82-4.24,3.51,3.51,0,0,0-3-1.11h-.32V11.84h13.67c4.41,0,8,1,10.56,2.88a9,9,0,0,1,3.95,7.53,8.19,8.19,0,0,1-3.47,7.06c-2.27,1.62-5.56,2.43-9.76,2.43a48.77,48.77,0,0,1-5.29-.32V41c0,2.07.27,3.49.82,4.24a3.51,3.51,0,0,0,3,1.08h.32V48Zm-4.14-18.79a14.87,14.87,0,0,0,4.19.52,9.4,9.4,0,0,0,6.3-2,6.78,6.78,0,0,0,2.27-5.39,8.53,8.53,0,0,0-2.28-6.12,8.29,8.29,0,0,0-6.29-2.4h-4.19V29.22Z"/><path d="M351.24,48h-8l-.1-.12a70.54,70.54,0,0,1-5.61-8c-2.29-3.61-4.11-5.94-5.4-6.92A6.71,6.71,0,0,0,328,31.56h-2.64V41c0,2,.28,3.44.85,4.21a3.53,3.53,0,0,0,3,1.11h.32V48h-13.8V46.33H316c1.5,0,2.52-.37,3-1.1a8,8,0,0,0,.8-4.21V18.74a7.83,7.83,0,0,0-.79-4.17c-.49-.7-1.52-1.06-3-1.06h-.32V11.84H331a14.36,14.36,0,0,1,9.08,2.69,8.49,8.49,0,0,1,3.44,6.93c0,4.31-2.39,7.28-7.13,8.83a15.8,15.8,0,0,1,2.74,2.51,47.85,47.85,0,0,1,4.17,6,30.56,30.56,0,0,0,4.43,6,5.29,5.29,0,0,0,3.16,1.48l.31,0V48ZM325.35,29.44h4.16a8.42,8.42,0,0,0,6.1-2.15,7.69,7.69,0,0,0,2.19-5.71A7.13,7.13,0,0,0,335.37,16a9.6,9.6,0,0,0-6.51-2.14h-3.51V29.44Z"/><path d="M382.67,48H368.86V46.33h.32c1.49,0,2.5-.36,3-1.08S373,43.08,373,41V18.86c0-2.1-.27-3.54-.8-4.28s-1.52-1.07-3-1.07h-.32V11.84h13.81v1.67h-.32a3.49,3.49,0,0,0-3,1.12c-.56.77-.84,2.19-.84,4.23V41c0,2,.28,3.46.84,4.22a3.53,3.53,0,0,0,3,1.09h.32V48Z"/><path d="M418,48H404.19V46.33h.32c1.47,0,2.48-.36,3-1.09s.83-2.18.83-4.22V18.86a8,8,0,0,0-.81-4.25c-.52-.73-1.53-1.1-3-1.1h-.32V11.84h25.75v6.94h-1.42l-.06-.25A6.88,6.88,0,0,0,427,15c-.4-.37-1.44-.8-4.18-.8h-9V28.44H423a3.58,3.58,0,0,0,2.64-.86,5.35,5.35,0,0,0,1.13-3.07l0-.28h1.61V34.86h-1.63l0-.3c-.11-2.5-1.3-3.72-3.64-3.72h-9.34V41c0,2.05.28,3.47.84,4.22a3.53,3.53,0,0,0,3,1.1H418V48Z"/><path d="M471.83,48h-14V46.33h.32c1.69,0,2.82-.38,3.34-1.13a7.75,7.75,0,0,0,.83-4.19V29.92l-7.74-11.71a16.35,16.35,0,0,0-3.08-3.76,5.72,5.72,0,0,0-3.19-.94H448V11.84h15v1.67h-.33c-2.29,0-3.45.46-3.45,1.35a3.38,3.38,0,0,0,.7,1.7l7,10.36,5.53-8.52a6.43,6.43,0,0,0,1.22-3.24c0-.71-.21-1.65-2.1-1.65h-.32V11.84h10.69V13.5h-.3a6.08,6.08,0,0,0-3,.81A11.65,11.65,0,0,0,476,17.4L467.8,29.91V41c0,2.09.27,3.52.8,4.26a3.35,3.35,0,0,0,2.9,1.06h.33V48Z"/><path d="M508,48.88a20.84,20.84,0,0,1-6.45-1.34,8.12,8.12,0,0,0-1.93-.53c-.45,0-.82.38-1.09,1.15l-.08.21h-1.64V38.13h1.73v.32a8,8,0,0,0,2.55,6.12A8.59,8.59,0,0,0,507,46.88a7.65,7.65,0,0,0,5.13-1.65,5.4,5.4,0,0,0,1.9-4.36A6.06,6.06,0,0,0,512.49,37c-1.07-1.28-3.36-3-6.81-5a30.33,30.33,0,0,1-5.78-4.1,10.19,10.19,0,0,1-2.19-3.36,11.27,11.27,0,0,1-.7-4,8.93,8.93,0,0,1,2.86-6.86A10.52,10.52,0,0,1,507.28,11a17.66,17.66,0,0,1,5.4,1,6.58,6.58,0,0,0,1.77.4c.29,0,.35-.06.35-.06a1.92,1.92,0,0,0,.28-.7l.07-.23h1.59v9H515l0-.29a7.39,7.39,0,0,0-7.79-7,7.11,7.11,0,0,0-4.57,1.38A4.39,4.39,0,0,0,501,18a6,6,0,0,0,1.43,3.88c1,1.2,3.12,2.77,6.4,4.68,3.89,2.26,6.54,4.26,7.89,6a9.38,9.38,0,0,1,2.06,6,10,10,0,0,1-3.14,7.38A10.57,10.57,0,0,1,508,48.88Z"/><path d="M559.92,48.88c-6.8,0-12.19-1.65-16-4.92a16.33,16.33,0,0,1-5.78-13,20.59,20.59,0,0,1,2.52-10.15A19.25,19.25,0,0,1,557.3,11a23.89,23.89,0,0,1,6.61,1,13.71,13.71,0,0,0,3.34.62,1.68,1.68,0,0,0,1.76-1l.09-.19h1.69V22.57h-1.63l0-.28a10,10,0,0,0-4-6.77A12.73,12.73,0,0,0,557.3,13,11.51,11.51,0,0,0,548,17.35c-2.42,2.93-3.64,6.76-3.64,11.41a19.38,19.38,0,0,0,4.21,12.75,13.19,13.19,0,0,0,10.53,5c3.92,0,5.83-1.14,5.83-3.48V39.22a8.36,8.36,0,0,0-.84-4.4,3.23,3.23,0,0,0-2.87-1.17h-1.72V32H575v1.67h-.32a4.43,4.43,0,0,0-3.25,1,5,5,0,0,0-1,3.5v9.8l-.23.07a34.85,34.85,0,0,1-4.85.61c-2.33.18-4.17.27-5.47.27Z"/><path d="M612.91,48.88a19.52,19.52,0,0,1-14-5.54,18.2,18.2,0,0,1-5.74-13.58,17.73,17.73,0,0,1,5.71-13.42A20,20,0,0,1,613.07,11a19.62,19.62,0,0,1,14,5.45,17.81,17.81,0,0,1,5.73,13.35A18.16,18.16,0,0,1,627,43.34a19.64,19.64,0,0,1-14.1,5.54ZM613.19,13a12.37,12.37,0,0,0-10,4.58c-2.5,3.05-3.78,7.18-3.78,12.27s1.26,9.25,3.74,12.38a11.85,11.85,0,0,0,9.73,4.68,12,12,0,0,0,9.87-4.79,18.84,18.84,0,0,0,3.81-12c0-5.15-1.26-9.34-3.73-12.44A11.8,11.8,0,0,0,613.19,13Z"/><path d="M678.84,48H651.76V46.33h.32A3.32,3.32,0,0,0,655,45.11a8.07,8.07,0,0,0,.89-4.39V18.35a6.52,6.52,0,0,0-.82-3.82,3.69,3.69,0,0,0-3-1h-.32V11.84h13.75v1.68h-.33a3.27,3.27,0,0,0-2.87,1.17,7.19,7.19,0,0,0-.89,4.11V42.54a3.18,3.18,0,0,0,.74,2.45,5.13,5.13,0,0,0,3.09.65h7.26c2.16,0,3.68-.36,4.5-1.06s1.66-2.31,2.43-4.74l.08-.23h1.75l-.12.41-2.25,7.76-.06.23Z"/><path class="cls-1" d="M140.71,29c-.17.07-.55-.28-.55-.28s.59-1.11,1-1.78-.59-.48-1-.69c0,.41-2.72,2.23-2.72,3.8A1.8,1.8,0,0,0,139.18,32c2.61,0,3-2.41,3.21-3C142.07,29.25,140.89,29,140.71,29Zm-25.37-6.4c0,.4-.3.88-.3,1.14s-.1.62.48.62.52-.6.84-1,2-1.16,1.77-2.3c-.19.26-.87,0-1,.5A6.69,6.69,0,0,0,115,22,.85.85,0,0,1,115.34,22.64ZM112.14,204c-.13.71-.22,3.19-.32,2.74-1.28-5.63,1.59-10.18,2-10.09s1,1.79,1.55,2.42C113.44,200.18,112.72,201,112.14,204Zm9.12,8.9c-2.53-1.58-3-8.14-3-8.14s1.53,1.44,2.16,1.89A10.17,10.17,0,0,0,121.26,212.86ZM144,142.18c0,2.6,1.26,9.48-4.13,9.48-5.21,0-6.63-8.33-7.37-14.52-.51-4.32-1.56-8.14-1.71-9.25-.36-2.7-.89-.9-.63,2.87.25,3.41,3.06,17.62,2.79,22.47,1.08.63,2.81,11.54,9.55,8.49.81,2.42-2.63,6.61-1.46,8.14-1,.35-3.14-1.35-3.32.62a3.17,3.17,0,0,1,2.33,1.17c1.26,1.35.72,2.88,1.17,5.12a7.26,7.26,0,0,0-4.13-1.07,12.81,12.81,0,0,1,2.51,2.06c1.8,1.71.45,3,.45,4.32-1.35.27-2.33-2.07-4.4-1.08,0,0,1.8,1.88,3,3.23s-.36,3.06-.45,4.14c-1,0-3.41-2.52-4.85-.9,2.79.45,4.23,4.22,3.33,5.12s-.36,3.5-.81,3.32-.72-1.34-1.8-2.69-3-.45-3-.45,5.21,4.22,3.32,5.84-.73,4.39-.73,4.39a7.85,7.85,0,0,1-3.5-3.13s-1.52,2.69-2.51,4.76c-.54,1.53-1.81,2.18-3,4.38a18.16,18.16,0,0,0,.1,5.61c-3.22-1.43-3.16-6.59-3.57-8.37a21.77,21.77,0,0,0,2-2.83c.65-1,1.41-1.93,1.2-1.93-.44,0-3.72,4.06-3.72,4.06l-2-1.55s7.11-5.39,7.11-8.71c-1-.36-.72,3.32-8.27,7.81a4.35,4.35,0,0,1-1.34,3.6c-.9.72-1,3.12-1.23,3.84-.26.92-.84,2.65-.84,2.65s-3-10.69,2.09-13.63c0,0,5.8-.67,6.06-2.19a48.44,48.44,0,0,1-6.21,1.15c-.18-.39-1.09-1.48-1.38-2.2,1.11,0,5.64-.77,7.35-.32,0,0,0-.55,0-.56l-3.67-.16a11.6,11.6,0,0,1-2.22-.11h0l-1.93-.11h0c-.48,0-.72,0-.72,0-2.4,1.55-4.5,8.23-5,8.27a12.45,12.45,0,0,1,1.73-6.86,9,9,0,0,1,3.94-3.94c.33-.17,3,1.77,3.22,1.77.57,0-2.9-2.33-1.85-3.32.9.73,2.72,1.12,4.17,2.12.72.11,1.32-.45,2.61-.56,1.46-5.45,0-18.31,3.45-22.9,2.16.09.29,2.82,1.46,2.82a5.64,5.64,0,0,0,.84-3.06c0-12-9.2-10.66-9.2-29,0-3.06,8.49-16.76,5.26-25.38-1,.72.17,6.83-1.71,10.6.36-2.43-3.71-5-3.71-6.18s1.31-2,1.31-9.18a15.81,15.81,0,0,0-3.14-9.82s-1.56-1.33-1.56-2c0-1.79,2.78-1.08,5.12-2.52-.09-1.52-2-.53-4.49-.09.54-1.79,2.69-2,3.86-2.6s-.45-1.17-1.08-1.08c.45-1,.63-6,3.69-6.47,0-.93-2-.75-3.33,1.26-1.14,1.66-1.65,5-2.42,6.29,0,0-4.68,2.25-4.5,5.57-1.07-.18-2.06-3.41-3.41-1.89a11.2,11.2,0,0,1,2.42,4.68c.54,2.6-.62,5-1.25,4.58a4.52,4.52,0,0,0-2.43-3.51c-1.53-.71-1.71-.44.36,2.52s.54,5.12-.36,5.93c.09-2.42-4.31-3-4.31-3s3,1.91,2.69,4.58c-.39,3-3,5.34-3.18,4.17-.28-1.4-1.31-3.54-2.48-3.54,0,1,.9,2.34.9,5.21a10.9,10.9,0,0,1-1.17,4.94s-.41-1.53-.63-2.19c-.42-1.21-1.53-3-2-1.76,1.16,2.78-2.45,7.24-.5,11.42-1.53-.18-3.37-1.72-4.81-4.77,0,0,1.62-5.3,1.26-7.55a48.17,48.17,0,0,0-2.33,7L90,125.1c1-2.24,2.83-11.46,2.42-11.86S91,116.47,91,117.73s-1.89,6.56-3,8.9c.9.27,1.08,2.78,2.43,4-.81.18-1.35,3.33-1.35,5.21a46.79,46.79,0,0,1-2.7-9.52A24.18,24.18,0,0,0,89,120.52c-.72.72-2.79,4.4-3.51,4.94a5.67,5.67,0,0,0-1.34-.27A118.6,118.6,0,0,0,90,106.06c.43-1.89,1.09-4.58,2-7.29,1.61-4.94,8.48-16.44,9.38-22.2.65-4.18,2.6-6.29,2.07-7.19-.22.69-2,2.51-3,5.13-1.08,2.91-1.37,6-1.8,7-.76,0-2.57-1.33-2.57-5.65,0-2.91.14-6.07,1.25-8.36.88-1.82,2.65-1.54,3.61-4,1.62,1.19,3.85,1.61,5.9,2.19.59.17-.89,2.71-.91,6,0,2.48.9,5.91.9,8.27,0,1.63-.38,4.06-1.48,5.1-2.65,2.51-4.88,4.32-4.88,4.32l1.6.65a17.58,17.58,0,0,1,3-2.46c2-1.28,4.55-2.37,6.25-3.83a32.5,32.5,0,0,0,6-7.66l.81.3s6.52,7.47,10.44,10.63a79.14,79.14,0,0,0,.4,17.49C131.21,121.6,136.55,145,139.1,145c.89,0,1.86-1,1.86-4.88,0-9.62-9.87-27.78-9.87-39.46a49.23,49.23,0,0,1,3.18-17.1c-.18,2.16-1,9.86-.84,10.94-.18-1.44,1.71-6.56,2.7-8.18-.54,1.17-1.44,8-1.35,10,.54-1,1.17-5.84,2.33-7,.09,1.79-1.52,8-1.43,10.24-.09-1.26,2.34-5.12,2.34-9.7,0-3.87-6.75-11.33-6.75-18.07,0-2.42,2.17-8.89,7.29-8.89,6.56,0,6.1,6.92,4.49,8.35.08-6-4.68-4.4-5.94-1A4.55,4.55,0,0,1,137.2,65,4.61,4.61,0,0,0,135,69.3c.27,3,6.11,6.2,6.11,13.74,0,8.53-4.08,15.43-4.08,18.36a32.24,32.24,0,0,0,.57,7.54c.17.73.47-1.35.77-.55a29.31,29.31,0,0,1,4.39-15.54c-1.32,5,.77,10.78.54,12.84-.31,2.7-2,5.66-2.19,6.37-.36,1.26-.81,4-.09,4,.29,0,.82-1,1.22-2.37.58-2,1.31-4.93,1.41-5.52a26,26,0,0,1,.91,5.09c.09,2.25-4.22,6-3.14,7.84,0-1,3-5,3.56-5.85-.09,3.23-1.26,8.82-3.78,11.07C141.16,128.07,144,139.57,144,142.18ZM109.26,195.8a11.7,11.7,0,0,1,2.48-4.06l2.56-1.07C113.2,191.67,110.37,194.51,109.26,195.8Zm-14.5-41.58c-1.44-.71-1.69-2.82-3.88-3.4,2.2-.93,2.92,1.17,4.26.27-.34-2.36-1.88-1.52-3.94-1.88,4.67-1.56,5.37,1.46,5.37,1.46S94.4,152.79,94.76,154.22ZM89.53,127a4,4,0,0,1,1.25-.11c1,0,1.49,1,1.94,2.15a7.81,7.81,0,0,0,3.5,3.29c-1.53-.42-3.69-1.11-3.69-1.11S90.74,128.9,89.53,127Zm-2.3,7.63a14.57,14.57,0,0,1-3.43-8.38,4.13,4.13,0,0,0,1.44.54C85.24,128.51,85.14,130,87.23,134.64Zm.76,15.6c1.82-.74,1.83.39,1.92.6,0,0-2.72.42-5.67,4C85.55,152.06,86.66,150.93,88,150.24ZM101.61,38.56c.16-.48-.54-4.77-.47-5.59.63,1.25,1.63,6.23,1.1,6.86s-4-.45-4.86,2.34c.07-5.84,1.85-4.85,3-6.42a2.93,2.93,0,0,1,.31,1.94c0,.31-1,.84-1,1C99.94,39.4,101.55,38.71,101.61,38.56Zm8.27,14.14c5.85,0,10.27-7.47,10.61-7.28s-.58,2.24-1.88,4c-1.44,2-3.39,3.68-3.22,3.84s2.24-1.2,4-3.18,3.15-4.54,3.28-4.41-2.06,7.07-10.53,11.69-11.35,3.54-11.35,2.71,1.58-2.53,3.1-3.1c0-.83-2.71-.5-2.71-4.56,0-6.49,6.35-9.27,6.83-8.79C105.51,47,105.51,52.7,109.88,52.7Zm4-32.78a53.93,53.93,0,0,1,7.86-1.32c.31-.9,3.45-2.64,6.89-2.64,1.73,0,3.63.33,4.84.33,3.82,0,9.83-3.42,11.5-4.67-1.25,6.9-7.37,5.08-9.52,6.83,0,.43.5.61.5.61,2.36-1,6.1,0,8.5-2.12,0,3.1-3.73,3.69-4.51,4.34.42.69,1.06.18,2,.18,1.25,0,2.89.65,2.7,4.36s-1.2,5.76-1.2,6.79c-.87,0-2.5,3.2-5.09.83a.5.5,0,0,0-.29.51c0,.42.87,1,.87,1.53a10.73,10.73,0,0,0,3.31,6.68,4,4,0,0,1-2.93,1.75,7.24,7.24,0,0,1-3.26-.86c-.45,1.12.42,5.21.42,6.4,0,.38-1.55,4.67,1.23,11.55-5.26-1-5.09-5.16-6-5.16-.29,0-.31-.28-.56.42s.63,2,.42,3.35c-.92,6.12-4.13,14.19-4.13,18.6a12.41,12.41,0,0,0,3,8.07C129.28,86,118.66,80,118.58,71.49c0-1.57,1-1.66,1-2.12s-.5-.72-1.08-.59c-2.15,2.22-7.19,2-7.19,2s7-5.64,10.71-10.48a42,42,0,0,0,7-13.77c.28-.56-.87.7-2.37,3.84s-3.69,6.93-4.36,7.14c-.41.94-7.22,9.29-14.15,13.79,0,.31.76,1.08,2.12,1.08a15.09,15.09,0,0,0,7.18-1.81,21.67,21.67,0,0,1-10.46,14c2.48-4.29.21-9.27.21-14.29,0-3.24,2.1-4.67,2.1-6,0-1-5.3.49-7.32-2.13,4.44-.79,9.57-2.53,13.38-5.64,4.76-3.89,7.76-9.17,8-9,.52.38-4.18,8-4.6,8.37,2.54-1.43,5.54-7.83,5.92-7.57S121.65,56,121,56.57c1.39-1.15,4.74-5.81,6.45-10.66l.1-5.33s1.74-.28,1.74-1.19-3.76-2-3.76-5.26c0-1.67.94-1.81.94-2.5s-.73-.77-1-.77a1.52,1.52,0,0,0-1.14,1.46,9.33,9.33,0,0,0,3.45,6.8c-.11.62-1.57.41-1.78,1.5a1.8,1.8,0,0,1,.21,2.75c-.51.62-1.35,1.83-1.19,2.41-1,0-1.18-1.91-2.35-1.92-3.83,0-5.51,2.9-9.14,3.66a7.63,7.63,0,0,1-4.25-.21s1.32-1.48,2.51-2.57c1.72-1.59,2.81-2.73,2.81-2.73s.46.56,3,.62c3,0,6.54-1.74,6.29-5.82-.49-8.14-9.25-4.75-10-8.52C113.28,25.57,114.43,21.18,113.9,19.92Zm1.37,21.16c.49-.11,1-.85,2-.88s1.45.54,2.51.79C118.09,42.27,117.21,41.39,115.27,41.08ZM121,34.4c-.11.53-2.14-.14-4.44-.38,1.09-.16,1-1.79,2.67-1.46C119.92,32.7,120.5,33,121,34.4ZM105.61,13.77c1.82,0,6,.94,6,4.92,0,2.14-1.58,4.19-2.13,5.69-.42,1.16-.63,2.93-1,3.35s-.35-8.43-1.12-3.34a16.08,16.08,0,0,0-.56,4.66c0,3.56,2.8,6,5.66,6.85,2.53.78,3.55.67,3.63.32s-6.77-2.7-6.23-2.92,5.92,1.72,7.73,2.49c.54.23,4.2,1.56,4.76,2.33.16.22-5.13-1-5.37-1-1,.21,4.59,1.17,5,2,.21.42-4.07-.82-6-1.23-3.16-.65-9.93.34-12.23-6.79-1.87-5.78,3.18-11.48,3.65-12.79a2.16,2.16,0,0,0-2-3.15c-1.53,0-2.88,1.53-1.6,2.45,1,.75,1,1.11-.21,1s-.7,2,.9,2c.82,0-.34,1.24-.34,1.24s-3.68-.2-4-3.34S103.28,13.77,105.61,13.77ZM83.19,45.93s2.25,3.42,3,2.27c.44-.68-3.6-3.14-2.69-9.93,0,1,2.13,2.38,2.64,3.6s.73.14.76-.24c-.27-8.42-3-12.86-2.91-14.88a76.89,76.89,0,0,1,5.75,5.34s.66,5,.94,5.75c.84,2.19.76-5.72,1.12-5.64s-4.23-3.75-3.87-3.63c3,1.57,2.75.8,6,4,0,0-.78,9,0,12.64.32-1.15.84-11.19,1.36-11.92-.31-1.25-2.4-3.35-2.4-3.35,1.4-1.76-2.81-7.52-2.88-8.45,0-.09,5.84,5.6,7.08,7.17s-.86,2.08.23,3.18c.53.41,2-1.47,2-1.47a32.64,32.64,0,0,0-6.16-7.74,18.85,18.85,0,0,1,7.79,9.51s-4.59,2.92-4.65,5c-.2,7-.3,9.71.51,12.86s1.45,9.6,2.08,13.29c-3.58,2.63-4.55,5.42-4.55,10.58a13.41,13.41,0,0,0,3.67,9.55c-.45,2.16-2,.27-2.52-.18s-3.17-.06-5-.42-3-4.7-3.48-5.69c0,0,2.69,1.53,2.78.54a10.63,10.63,0,0,1-4.58-7.46s1.89,1.44,1.89.18c0-.72-3.6-3.32-3.6-8.44,0,0,3.87,2.69,3.87,1.61,0,0-5.39-4.85-3.87-9.34,0,0,3,2.69,3.15.9C86.61,55.19,81.85,51.23,83.19,45.93ZM82,110.09s3,1.89,5.09,1.33c-.48,2.06-.49,1.58-.85,3.06a8.11,8.11,0,0,0-.7,1.14,47.74,47.74,0,0,1-2.09,5.64s-1.9-4.77,1.35-8.32C85.18,112.5,81.3,110.47,82,110.09Zm-.24,1.24,1.54,1.2c-1.18,1.15-.88,1.17-1.09,4.51A8.82,8.82,0,0,1,81.76,111.33ZM95,173.43s3.5-.39,3.5-1.82c0-.72-2,.09-2.79.53s-5.41-.21-6.66-.39c-.09-1.26,4.8-1.92,4.8-3.45,0-1.81-5-4.17-7.21-4.39-.9-.08-1.18,2.5-1.62,5.67,0,0-1.18-2.05-1.18-8.47.24-.34,6.28,1.84,8.41,1.43.52-.1-6.67-2-7.53-2.2l3.16-1.72c1.24.48,12.2,3.3,14.32,2.79.7-.17-5-1.29-8.45-2.7a10.06,10.06,0,0,1-3.32-2.51c-.63-.36-3.06,1.85-5.13,1.7-1.75-.12-2.51,2.79-2.51.72s6.38-5.57,6.38-5.57,2.9,3.3,4.25,3.3l-3.53-3.93,1.53-.27c4,6.2,5.67,6,11.87,6,2.25,0,4.68,2.52,4.68,1.43s-4.71-7.81-4.71-22.37c0-9.41,1.39-15.63,2-17.5.44-1.36,1.16-1.08,1.16-1.08,6.39,4,9.72,2.1,11.16,1.65,0,0,2.71,2,3.33,3.39.72,1.62.43,2,1.06,2.83s-.45,3.15-.54,4.41c-1.26,0,.54-3.6-.63-3.6a14.17,14.17,0,0,0-.9,3.6c0,1.25.9,1.7.09,2.6-1.62-1.71-7,2.12-6.92,4.31,0,1.35-.63,1.35-1.53.9.09.9-.62,1.53.18,1.8s.27,1.17.27,1.17c-1.7.63-.36,1.17.18,1.53s1,1.53-.09,1.53c-1.37,0-1,1.43,0,1.43.55,0,1.08,1.89.45,1.62s-2.06,1-1,1c1.35,0,.63,1.17,1.17,1.35s.81-1.08.81-1.08-.43-13.38,3.44-13.83c-1.17.54-1.67,6.37-1.67,12.12,0,8.37,6.79,12.13,6.79,19.14,0,0-3.29-.31-3.29,2.2,0,1.53,2.68,5,2.68,6.88-1.8-.1-4.91,2.11-9.4,1.3.09-.81,1.79-1.44,1.79-1.8a.75.75,0,0,0-.8-.81c-.63,0-1.17,2.43-7,2.43.62-.72,2.78-2.07,2.42-2.61s-2.15.54-2.87,1.08-4.41.09-5.49-.09c.19-.45,5-2.16,1.35-2.16,0,0-.09,1.26-2.42,1.26A10.61,10.61,0,0,1,95,173.43ZM137.84,25.72c1.53,0,3.55-2.23,3.83-2.83-.28.18-.66-.14-1.43-.14s-2.61,1.71-2.93,2.76A.62.62,0,0,0,137.84,25.72Zm-16.18-.28c-1.76,0-1.86,1.34-1.86,1.34a3.12,3.12,0,0,1,1.74-.57c1.8,0,2.66.8,4.56.8a5.76,5.76,0,0,0,3.39-1.29c.6-.3,2.42.2,3-.94-3,.76-4-4.24-7.35-4.24-2.8,0-4,3.62-5,3.62,0,0,.06.32.76.32s1.5-1.32,2-1.64c-.1.26.88.3.88.78s-.58.28-1.16.28-.5.36-.68.54a16.18,16.18,0,0,0,2.86.6,4.67,4.67,0,0,0,2-.34c-.22-.1-.12-2.68-1.7-2.68-.52,0-1.5.58-1.7.38a2.86,2.86,0,0,1,1.62-.82c1.52,0,2.58,2.94,3.87,3.2a3.94,3.94,0,0,1-2.75,1.06C124.34,25.84,123.42,25.44,121.66,25.44Zm59.46,8.94c.1.91.22,2,1.42,2.17.79,0,1-.66,1.24-1.23a2.68,2.68,0,0,1,.37-.74,1.15,1.15,0,0,0,.35-.63c0-.26-.23-.35-.47-.44h0l-.09,0a1.2,1.2,0,0,1-.8.29,2.78,2.78,0,0,1-2-1.2l-.09-.12-.07-.09,0,.11,0,.14-.14.5v0l.05.1C181,33.46,181.07,33.88,181.12,34.38Zm-4.56.31c0,.59.09,1.26,1.06,1.29s1.29-1.21,1.55-2.08c.11-.38.23-.77.34-.79h.07l0-.09-.25-.57,0-.1-.16,0a4.46,4.46,0,0,1-1.9.83c-.34.08-.66.13-.88.17l-.22,0-.15.27C176.49,33.79,176.52,34.21,176.56,34.69Zm-2.17,7.08v0l.06.08c.86.49.9,1.79.92,2.83,0,.33,0,.64,0,.89.12.68.7.73,1.12.76s.5,0,.53.19a1.62,1.62,0,0,1,.11.62,2.47,2.47,0,0,1-.09.64,2.32,2.32,0,0,0-.06.45.6.6,0,0,0,.14.41,8.82,8.82,0,0,1,.63,1.06A7.78,7.78,0,0,0,179,51.55l.17-.1V51.3c0-.25.29-.65.65-1.1A4.6,4.6,0,0,0,181,47.71a1.81,1.81,0,0,0-.22-.84,1.31,1.31,0,0,1,.67-.13,3.4,3.4,0,0,1,.83.1h0l.09,0a3.33,3.33,0,0,0,1.14-2.88c0-.24,0-.5,0-.79a1.25,1.25,0,0,1,.37-.72,2.92,2.92,0,0,0,.77-1.82,3.26,3.26,0,0,0-.07-.6l1.33.55c.07,0,2.76-.85,2.77-3a3.73,3.73,0,0,0-.53-1.8l0,0-.11,0a4,4,0,0,0-2.8,2.17,6.64,6.64,0,0,1-.74,1,1,1,0,0,0-.67-.36.39.39,0,0,0-.3.12.9.9,0,0,0-.24.69,4.6,4.6,0,0,0,.1.81,4.71,4.71,0,0,1,.1.81c0,.66-1.06,1.09-1.51,1.09a2.73,2.73,0,0,1-1.14-.79A2.67,2.67,0,0,1,180,40c0-.21.24-.42.52-.65s.68-.56.7-.92c0-.59-.11-1.13-.85-1.13a6.28,6.28,0,0,0-1.2.17c-.39.07-.78.15-1.17.19h-.21l-.17,0,.14.09.19.11a.89.89,0,0,1,.09.31,3.73,3.73,0,0,0,.21.71,3.58,3.58,0,0,0,.29.43,1.53,1.53,0,0,1,.42.94c0,1.16-2,1.74-2.52,1.74a1,1,0,0,1-1-1c0-.49.5-1,.94-1.4a4.48,4.48,0,0,0,.61-.68l0,0v-.1c-.16-.25-.51-.31-.89-.37a1.32,1.32,0,0,1-1-.42,3.94,3.94,0,0,1-.32-1.26c-.16-1-.35-2.19-1.06-2.23h0a1.69,1.69,0,0,0-1.7,1.91,4.92,4.92,0,0,0,1.17,2.67A4.79,4.79,0,0,1,174.39,41.77ZM26.88,144.44v0l.07.08c.85.49.89,1.79.91,2.83a7.34,7.34,0,0,0,.06.89c.11.69.69.73,1.11.76s.5,0,.53.19a1.62,1.62,0,0,1,.11.62,2.49,2.49,0,0,1-.08.64,1.9,1.9,0,0,0-.07.45.64.64,0,0,0,.14.41,7.92,7.92,0,0,1,.63,1.07,7.89,7.89,0,0,0,1.18,1.81l.17-.09h0V154c0-.25.3-.64.65-1.1a4.6,4.6,0,0,0,1.23-2.48,1.65,1.65,0,0,0-.22-.84,1.2,1.2,0,0,1,.68-.14,3.31,3.31,0,0,1,.82.11h0l.09,0a3.33,3.33,0,0,0,1.14-2.89,7.41,7.41,0,0,0,0-.79,1.25,1.25,0,0,1,.37-.72,2.87,2.87,0,0,0,.77-1.82,2.58,2.58,0,0,0-.07-.6l1.33.55c.06,0,2.77-.84,2.78-3a3.71,3.71,0,0,0-.54-1.79l0,0-.11,0a4,4,0,0,0-2.8,2.18,8,8,0,0,1-.73,1,1,1,0,0,0-.68-.36.4.4,0,0,0-.3.12,1,1,0,0,0-.24.7,4.6,4.6,0,0,0,.1.8,4.84,4.84,0,0,1,.1.81c0,.66-1.06,1.09-1.51,1.09a2.79,2.79,0,0,1-1.14-.79,2.67,2.67,0,0,1-.81-1.16c0-.21.25-.42.52-.65s.68-.55.7-.92c0-.59-.11-1.13-.85-1.13a6.28,6.28,0,0,0-1.2.17,9.2,9.2,0,0,1-1.17.19l-.21,0h-.16l.14.09.17.11c.05,0,.08.19.1.31a3.18,3.18,0,0,0,.22.71,2.57,2.57,0,0,0,.29.44,1.53,1.53,0,0,1,.41.94c0,1.15-2,1.73-2.52,1.73a1,1,0,0,1-1-1c0-.49.5-1,.94-1.4a3.65,3.65,0,0,0,.61-.68l0,0,0-.1c-.16-.26-.51-.32-.88-.38s-.8-.12-1-.42a3.8,3.8,0,0,1-.32-1.26c-.16-1-.35-2.19-1.06-2.23h0a1.71,1.71,0,0,0-1.7,1.92,4.92,4.92,0,0,0,1.17,2.66A4.75,4.75,0,0,1,26.88,144.44Zm6.74-7.39c.09.91.21,2,1.41,2.17.79,0,1-.66,1.25-1.23a2.55,2.55,0,0,1,.36-.74c.25-.29.35-.47.35-.63s-.22-.35-.47-.43h0l-.09,0a1.2,1.2,0,0,1-.8.29,2.78,2.78,0,0,1-2-1.2l-.09-.12-.07-.09,0,.11,0,.14-.14.5v0l0,.09C33.52,136.13,33.56,136.55,33.62,137.05Zm-4.57.31c0,.59.09,1.26,1.06,1.29s1.29-1.21,1.55-2.08c.11-.38.23-.77.34-.78h.07l0-.1-.25-.57,0-.09,0-.08-.13.13a4.57,4.57,0,0,1-1.9.82c-.34.08-.65.14-.88.17l-.26,0-.1.27C29,136.47,29,136.88,29.05,137.36ZM0,0V161.25C0,186.58,13.83,213,38,233.71c22.59,19.4,50.73,31,75.3,31s52.7-11.58,75.29-31c24.12-20.72,38-47.13,38-72.46V0ZM218.08,49.54c0,4.81-3.9,6.09-6.2,6.09a2.89,2.89,0,0,1-3-1.77,3.6,3.6,0,0,0,1.16.12,5.17,5.17,0,0,0,3.66-1.2l.11-.1h-.16l-7.39.52,0,.11c4,1.61,5,6.2,5.84,9.9.59,2.61,1.1,4.86,2.48,5.44a3.48,3.48,0,0,0,1.57,2.18,4.49,4.49,0,0,1,2.05,3.53,2.7,2.7,0,0,0-1.3-.29c-1.7,0-4.08,1.07-5.73,6.18-1.39,4.28-1.14,5.29-1,5.52a.24.24,0,0,0,.19.11.42.42,0,0,0,.34-.3c.78-1.85,1.9-4.17,2.79-6,.79-1.64,1.47-3,1.69-3.65.59.64,2,3.14,1.92,4a.28.28,0,0,1-.11.23,1.84,1.84,0,0,1-.57-.3l-.14-.09a2,2,0,0,0-.92-.42.27.27,0,0,0-.25.13c-.2.29,0,1.08.58,2.49.42,1.15.5,2.1.2,2.31h0c-.48,0-1.48-.85-1.83-1.19a2.65,2.65,0,0,0,.24,2.6c.43,1,.84,1.84.09,2.86h0c-.2,0-.44-.28-.67-.54l-.13-.15c-.32-.36-.7-.75-1.07-.75a.72.72,0,0,0-.6.47c.69,1.34,1.2,3.55.38,4.38a5.43,5.43,0,0,0-1.84-.57c-.5,0-.86.28-1.37.84-.86,1-1.14,6.27-1.15,6.49h0a3,3,0,0,0-.53.58c-.14-.21-.39-.54-.69-.94-1.34-1.78-3.84-5.09-3.27-6.3,2.71-1.25,4.46-6.18,4.48-6.23l-.56-.6c-.12,0-3.23,4.94-4,5.66l-.08.07c-.82.72-2.05,1.81-.53,4.85h0a11.33,11.33,0,0,0-4.43,2.1l.85-6.51,1.23-.4a6.58,6.58,0,0,0,3.19-1.79,22.67,22.67,0,0,0,2.28-5.89c.77-2.68,1.5-5.21,2.9-6,0-1.25-1.31-2.78-2.78-4.55-2.07-2.5-4.41-5.33-4.41-8.3,0-1.06,0-2.06.07-3,.14-3.59.24-6.18-2.09-6.36-.05.09.43,1.74.06,2.24a.32.32,0,0,1-.27.13,1.77,1.77,0,0,1-.88-.35,6.81,6.81,0,0,0-4.07-1,6.53,6.53,0,0,0-4.6,2.2c-.22.2-.42.4-.49.4s0,0,0-.13a2.39,2.39,0,0,1,.75-1.64c.4-.45.74-.85.11-1.47-3.36,1.51-4.24,5.68-4.24,7.67a11.46,11.46,0,0,0,.29,2.56c.19.91.28,1.33-.48,2a3,3,0,0,0-1.88-.91.74.74,0,0,0-.64.28,1.35,1.35,0,0,0,0,1.24,5.69,5.69,0,0,0,.65,1.22c.45.69.66,1-.1,3a3.66,3.66,0,0,0-2-1,.53.53,0,0,0-.48.22c-.21.3-.14.89.2,1.76.16.4.3.75.43,1,.67,1.62.81,2,.13,3a4.18,4.18,0,0,0-2.14-1,.49.49,0,0,0-.45.2q-.24.36.21,1.35c1.13,2.54,1.24,3.49.55,4.61a5.3,5.3,0,0,0-2.23-.87.52.52,0,0,0-.46.2c-.14.2-.1.56.12,1.09a10.65,10.65,0,0,0,.55,1.08c.5.89.77,1.37.1,3-.71-.76-1.19-1.2-1.72-1.2a1.47,1.47,0,0,0-1,.54,3.88,3.88,0,0,0,.43,1c.65,1.18,1.45,2.64.47,4.17L174,91.26c-.25.16-5.1,3.67-5.82,5.13a10.19,10.19,0,0,0-.51,2.42l-.21.34a19.38,19.38,0,0,1-1.15-4.27,13.26,13.26,0,0,0-.55-2.94c.19-.11,5.12-4.09,5.49-6.19l0-.12-.11.07c-1.77,1.1-6.8,4.66-6.7,6.45a9.7,9.7,0,0,0,.28,2.21l-2.79,2.39,1.34-7.43h0c.11,0,6-1.69,7.12-5.57.36-1.28.72-3.37,1.11-5.58.8-4.6,1.8-10.33,3.27-11.86l-.26-.79c.05,0,3.66-3.39,8.16-7.89a31.6,31.6,0,0,0,3.12-3.75c2-2.75,3.49-4.73,8.51-4.73a30.4,30.4,0,0,1,8.24,1.05,25.2,25.2,0,0,0,6.81.93c4,0,4.21-1.85,4.21-2.22a2.53,2.53,0,0,1,.06-.41,1.83,1.83,0,0,0-.18-1.58,2.58,2.58,0,0,0-2.06-.63h0a2.66,2.66,0,0,0-1.47.49,4.46,4.46,0,0,1-2.71.75c-1.79,0-2.9-1.31-2.9-3.4,0-2.49,1.69-3.91,3.17-5.16,1.18-1,2.3-1.93,2.3-3.23l-.08,0c-.08,0-.2.11-.51.43l-.27.27c-.46.47-.75.7-.84.7,0-1.93-1.71-2.34-2.76-2.59-.35-.08-.68-.16-.71-.26s0-.08.06-.11a3.84,3.84,0,0,1,2.28-.59,6.27,6.27,0,0,1,4.28,1.6,4,4,0,0,1,1.16,2.94c0,1.2-.87,1.56-2,2a5.87,5.87,0,0,0-3.2,2.45c-.34.6-.64,1.11-.5,1.44a.59.59,0,0,0,.43.29h0c.27,0,.45-.28.69-.66a3,3,0,0,1,2.56-1.81C215.72,41.84,218.08,47.42,218.08,49.54ZM193.56,85.38a4,4,0,0,1,.24,1.16,1.62,1.62,0,0,1-.75,1.37,2.39,2.39,0,0,0-1.64-.92,1.5,1.5,0,0,0-.62.13c-1.22.51-5.28,6.14-5.28,6.18h0v0a2.8,2.8,0,0,1,0-.36,27,27,0,0,1,1.43-7.2c2-1,3.8-3.46,3.78-4v-.05l-.12-.08c-.21,0-.64.36-1.45,1.06a23.35,23.35,0,0,1-2.88,2.19c-.87.52-1.73,1.91-2.44,3.91l-2.57,1.53,0-.09,3.86-6.24c1-.64,4.11-2.8,4.74-4.3A29.77,29.77,0,0,1,194,73.86a.34.34,0,0,0,.07-.25,8.73,8.73,0,0,0-.74-2.35,22.39,22.39,0,0,1-1.87-7.56c0-4.39,3.2-5.83,4.3-5.83a2,2,0,0,1,1.29.44,7.41,7.41,0,0,0,1.12.64,3.42,3.42,0,0,1-2,.89c-.75.18-1.47.34-1.69.77.64.12,3.62.5,3.62,3.48,0,2.53-1,3-1.92,3.35a4.53,4.53,0,0,0-.76.39c-.39.28-.59.55-.59.8,0,.49.86.84,1.39,1.05l.13,0a3.1,3.1,0,0,1,1.22,2.86c0,.41,0,.83-.05,1.24s-.05.78-.05,1.14a2.72,2.72,0,0,0,.4,1.69A72,72,0,0,0,191.74,82a2.31,2.31,0,0,0-.6,1.35.69.69,0,0,0,.1.4l8.32-6.8a23,23,0,0,0-.33-2.67,51.32,51.32,0,0,1-.72-6,2.53,2.53,0,0,1,2.08-2.63h0l0,0a6.25,6.25,0,0,0-1,3.56,12.43,12.43,0,0,0,2.3,6.66,1.61,1.61,0,0,1,.38,1c0,.54-.41,1-1.21,1.36a1.09,1.09,0,0,1-.48.1l-.31,0-.31,0c-.44,0-.85.17-1.45,1a.44.44,0,0,0-.1.3,1.93,1.93,0,0,0,.32.84,2.73,2.73,0,0,1,.44,1.19,1.19,1.19,0,0,1-.47.91c-.09,0-.34-.24-.69-.42a3.12,3.12,0,0,0-1.41-.43,1.31,1.31,0,0,0-.87.3.35.35,0,0,0-.15.29,1.52,1.52,0,0,0,.25.66,2.81,2.81,0,0,1,.45,1.36,2.73,2.73,0,0,1-1.1,2l-.08.07.06-.08c-.34-.83-.94-2.18-1.39-2.18a.32.32,0,0,0-.26.15.65.65,0,0,0-.13.43A2.65,2.65,0,0,0,193.56,85.38Zm-13.72.73,3.42-5h0c.14,0,2.89-.36,5.1-.57h0l0,0a6.4,6.4,0,0,1-2.15,1.21,6,6,0,0,0-1.55.82,15.47,15.47,0,0,0-1.92,2.52l-.11.16Zm17.24,2.49c1.44-.18,4-.58,6.11-1h0l0,0a4.45,4.45,0,0,1-1.77,1,9.69,9.69,0,0,0-2.74,1.52c-.47.41-.53,1.17-.61,2.15a14.74,14.74,0,0,1-.23,1.83l-3.54.71Zm-35.17,2.77-3,1.69,3-6.29h.84c1.39,0,3.25,0,4.56-.19l0,.09A24,24,0,0,1,163,88.21C161.91,88.55,161.91,91.34,161.91,91.37Zm32.28-66.43a2.1,2.1,0,0,0-.36,0h-.11a.26.26,0,0,1-.3-.26c0-.7,1.94-2.76,4.84-2.77,4,0,4.18,3.95,4.18,4.74,0,1.74-1.25,3.23-2.08,4.22-.43.51-.74.89-.73,1.12a.2.2,0,0,0,.06.14.34.34,0,0,0,.22.06c1.52,0,7.79-3.11,7.8-7.72,0-3.51-2.4-3.83-3.14-3.85l0-.09a8.86,8.86,0,0,1,3.05-.79c1.06,0,2.32.48,2.32,2.73a4.88,4.88,0,0,1-.39,1.41,4.94,4.94,0,0,0-.42,1.52c0,.48.24.68.8.69s.81-1.19.81-1.89a9.89,9.89,0,0,0-.07-1.19v0h0a4.2,4.2,0,0,1,1.78,3.55c0,3.7-4.18,4.85-7.22,5.69-1.7.47-2.93.81-2.89,1.46,0,.22.22.45.54.77a4.29,4.29,0,0,1,1.55,3.29,4.89,4.89,0,0,1-5.13,4.89c-.84,0-1.42-.2-1.62-.54,1.73-.93,3.23-3,3.23-4.53,0-1.12-.76-1.77-2.23-1.94h-.24c-1.84,0-3,2.34-3,3.56,0,.84.29,5,5.47,5a8.49,8.49,0,0,0,2.37-.36l.1,0-.08.05s0,.11,0,.28a3.48,3.48,0,0,0,.37,1.72,10.69,10.69,0,0,1-3.21.41c-2.16,0-7.79-1.36-7.79-7.47,0-2.73,1.49-4.44,2.91-6.09,1.24-1.44,2.41-2.8,2.4-4.67C197.93,25.93,195.7,24.94,194.19,24.94Zm-23.1,14.39a11.94,11.94,0,0,1-1.1-2.21,5,5,0,0,1-.2-1.57,23.28,23.28,0,0,1,.41-3.7c0-.14,0-.23,0-.27a.69.69,0,0,1,.45-.13,3.81,3.81,0,0,1,1.17.3,2.87,2.87,0,0,0,.8.22c.18,0,.24,0,.25-.24a7.51,7.51,0,0,1,.25-1.47,7.85,7.85,0,0,0,.28-1.63,1.71,1.71,0,0,0,0-.36v0h0a8.27,8.27,0,0,1,1.33,1.05c.7.62,1.14,1,1.36,1s.12-.07.13-.17c0-2.39.37-3.86.91-4.12.42.78,1,1.69,1.38,1.69.17,0,.43-.13.59-1a1.26,1.26,0,0,1,1.4-1.1,4.4,4.4,0,0,1,1.57.34,5.6,5.6,0,0,0-.3,1.46c0,.38.09.88.72.88h.13c.73,0,1.2-2.18,1.2-2.2,1.4.34,2.13.83,2.15,1.41a.75.75,0,0,1,0,.2c-.07.22-.14.43-.2.63a5.83,5.83,0,0,0-.36,1.42.49.49,0,0,0,.12.36h0l.07,0c.46,0,1.89-1.72,1.89-1.74h0v0a9.59,9.59,0,0,1,.13,1.88c0,1.38,0,2.95.74,3.28a.71.71,0,0,0,.34.08,1.21,1.21,0,0,0,.77-.4,1.48,1.48,0,0,1,.85-.47,1.21,1.21,0,0,1,.77.38l0,.26c0,.29.06.8.06,1.44a7.88,7.88,0,0,1-1.64,5.42,13.53,13.53,0,0,1-2,1.91h0l0,.13c0,.13.06.19.26.32a4.08,4.08,0,0,1,1.06,1,8.84,8.84,0,0,1,.82,1.66,4.87,4.87,0,0,0,.51,1c-.14.75-1.33,2.82-2.07,2.85a.35.35,0,0,1-.31-.22,6.82,6.82,0,0,0-2.53-1.86,1.13,1.13,0,0,0-.19.63,2,2,0,0,0,.54,1.24,2.36,2.36,0,0,1,.62,1.44,1.78,1.78,0,0,1,0,.39c-.33,1.83-.69,2-1,2s-.59-.54-1-1-1-1.2-1.24-1.2-.39.21-.39.51a8.39,8.39,0,0,0,.67,2.4,6.82,6.82,0,0,1,.45,1.48c0,.8-1.51,1.74-2,1.76-.23,0-.49-.5-.74-.95s-.59-1.06-.91-1.06-.48.24-.5.59a5.41,5.41,0,0,0,.29,1.38,4.63,4.63,0,0,1,.2.91c0,.32-.69,1-1.4,1.75a8.38,8.38,0,0,0-2.16,2.82v0h0a2.86,2.86,0,0,1-.83-2.27,13.53,13.53,0,0,1,.61-3.4,7.36,7.36,0,0,0,.29-1.35c0-.12,0-.2-.08-.22a.81.81,0,0,0-.43-.14c-1.07,0-2,2.55-2,2.58a3.14,3.14,0,0,1-1.67-2.5,5.55,5.55,0,0,1,1.45-3.14,7.64,7.64,0,0,0,.86-1.3,1.46,1.46,0,0,0,.15-.57c0-.13,0-.29-.23-.29A1.11,1.11,0,0,0,174,50c-.19.22-.5.51-.86.85-.9.83-2,1.88-2,2.49l-.1,0a1.6,1.6,0,0,0-.24-.5,4.58,4.58,0,0,1-.88-2.24,2,2,0,0,1,.2-.87,10.32,10.32,0,0,1,2-2.21A6,6,0,0,0,173.5,46h0c-1.25,0-3.06,1.53-3.74,2.11l-.14.11a.65.65,0,0,1-.39.18c-.42,0-.6-.84-.76-1.55s-.29-1.29-.64-1.29l-.12,0h.11A10.27,10.27,0,0,1,171,42.33c.57-.39.91-.63.89-1.09A3.79,3.79,0,0,0,171.09,39.33Zm-6-11.17v.06a17.42,17.42,0,0,0,1.08,3.38C167,33.77,168,36.48,168,38v.2c-.06.52-.68.88-1.34,1.26a3.42,3.42,0,0,0-1.37,1.1l0,0v0a1.67,1.67,0,0,1,0-.31,2.69,2.69,0,0,1,.43-1.43,2.32,2.32,0,0,0,.37-1.18c0-1.11-2.85-5.74-2.87-5.75ZM157.69,31v0l4.62,7s0,.7,0,1.51a14.8,14.8,0,0,0,.17,2.67c0,.15.1.26.16.26h0l.09-.1a40.71,40.71,0,0,0,1-4.46c0-1.15-3.93-5.68-4-5.7l.74-3.24,4.35,8.42a22,22,0,0,0-.23,3.36,23.65,23.65,0,0,0,.12,2.45c.33,3.2,1.66,7.67,4.42,10.64.31,3.11,2.72,6.06,4.47,8.21a23.59,23.59,0,0,1,1.53,2c-.31,1-3.22,2.19-4.47,2.68l-.18.07A19,19,0,0,1,166.1,68a1,1,0,0,1-.25,0c-.85-.23-2.23-4.09-2.25-5,0-.32.18-.43.34-.43a2.3,2.3,0,0,1,.77.22,1.7,1.7,0,0,0,.52.17c.14,0,.17,0,.18-.18a1.51,1.51,0,0,0,0-.26c-.27-1-1.17-1.34-2.13-1.67-1.18-.41-2.53-.88-2.89-2.87,0-.08,0-.1.07-.1a5.59,5.59,0,0,1,.78.21,5.23,5.23,0,0,0,1.24.3c.11,0,.25,0,.25-.14a.4.4,0,0,0-.07-.21,4.82,4.82,0,0,0-1.47-1.48A5,5,0,0,1,158.8,53a.16.16,0,0,1,.1,0,1.71,1.71,0,0,1,.62.23,3.58,3.58,0,0,0,1.22.47c.16,0,.24,0,.25-.23h0v-.1c-.06-.42-.53-.81-1.09-1.28-.86-.72-1.93-1.62-1.93-3,0-.16.08-.21.16-.21a2.1,2.1,0,0,1,.53.16,2.73,2.73,0,0,0,1,.25.91.91,0,0,0,.61-.2c0-.62-.61-1.23-1.25-1.87s-1.47-1.48-1.49-2.25a.48.48,0,0,1,0-.18c.73-.38,3-2.42,3-3.58,0-.46-.42-.9-1-1.45a6.88,6.88,0,0,1-2.2-3.63,3.23,3.23,0,0,1-.05-.7C157.31,33.9,157.69,31,157.69,31ZM13.47,156c-.06-.41-.53-.81-1.09-1.28-.86-.72-1.92-1.62-1.93-3,0-.16.08-.22.16-.22a2,2,0,0,1,.53.16,2.78,2.78,0,0,0,1,.25.91.91,0,0,0,.61-.2c0-.62-.61-1.22-1.25-1.87S10,148.42,10,147.65a.41.41,0,0,1,0-.18c.76-.4,3-2.4,3-3.57,0-.47-.42-.91-1-1.46a6.88,6.88,0,0,1-2.2-3.63,4,4,0,0,1,0-.7c0-1.42.32-4,.38-4.48v0l4.62,7s0,.7,0,1.51a14.8,14.8,0,0,0,.17,2.67c0,.15.1.26.16.26h.05l.08-.09a41.77,41.77,0,0,0,1-4.46c0-1.16-3.92-5.68-4-5.71L13,131.5l4.34,8.41a24.83,24.83,0,0,0-.11,5.81c.33,3.2,1.67,7.68,4.42,10.64.32,3.11,2.72,6.06,4.47,8.21.63.78,1.18,1.45,1.53,2-.3,1-3.21,2.19-4.46,2.68l-.19.07a18.53,18.53,0,0,1-4.43,1.3.79.79,0,0,1-.24,0c-.86-.23-2.24-4.09-2.26-5,0-.32.18-.43.34-.43a2.33,2.33,0,0,1,.77.23,1.6,1.6,0,0,0,.53.16c.13,0,.16,0,.17-.18a1,1,0,0,0,0-.26c-.27-1-1.17-1.33-2.12-1.66-1.19-.42-2.54-.89-2.9-2.88l.07-.09a4.45,4.45,0,0,1,.79.2,5.28,5.28,0,0,0,1.23.3c.11,0,.25,0,.25-.14a.42.42,0,0,0-.06-.2,5,5,0,0,0-1.48-1.49,4.94,4.94,0,0,1-2.35-3.52l.1,0a1.71,1.71,0,0,1,.62.23,3.58,3.58,0,0,0,1.22.47c.16,0,.24-.05.25-.23h0Zm10.11-14a11.63,11.63,0,0,1-1.1-2.21,5,5,0,0,1-.2-1.57,23.3,23.3,0,0,1,.41-3.72c0-.13,0-.21,0-.25a.72.72,0,0,1,.44-.13,3.81,3.81,0,0,1,1.17.3,2.78,2.78,0,0,0,.8.23c.18,0,.24-.06.25-.25a7.63,7.63,0,0,1,.26-1.47,8.48,8.48,0,0,0,.27-1.63,1.23,1.23,0,0,0,0-.36v0l0,0a7.21,7.21,0,0,1,1.33,1c.7.62,1.14,1,1.36,1s.12-.07.13-.17c0-2.39.37-3.85.91-4.11.35.63,1,1.69,1.39,1.69.19,0,.43-.18.58-1a1.28,1.28,0,0,1,1.4-1.09,4.6,4.6,0,0,1,1.57.33,5.6,5.6,0,0,0-.3,1.46c0,.38.09.88.72.89h.14c.73,0,1.2-2.18,1.2-2.2,1.39.34,2.12.83,2.14,1.41a.76.76,0,0,1,0,.21c-.07.21-.14.42-.2.63a5.56,5.56,0,0,0-.35,1.41.47.47,0,0,0,.11.36h0c.56,0,2-1.69,2-1.71h0v0a9.36,9.36,0,0,1,.14,1.87c0,1.39,0,3,.74,3.28a.73.73,0,0,0,.35.09,1.23,1.23,0,0,0,.76-.41,1.41,1.41,0,0,1,.86-.46,1.17,1.17,0,0,1,.76.37l0,.26c0,.29.06.8.06,1.44a7.86,7.86,0,0,1-1.64,5.42,13.12,13.12,0,0,1-2,1.91l0,0,0,.12c0,.13.06.19.26.32a4.08,4.08,0,0,1,1.06.95,8.84,8.84,0,0,1,.82,1.66,4.87,4.87,0,0,0,.51,1c-.13.76-1.33,2.82-2.07,2.85a.33.33,0,0,1-.31-.22,6.87,6.87,0,0,0-2.52-1.86,1.07,1.07,0,0,0-.2.63,2,2,0,0,0,.54,1.24A2.36,2.36,0,0,1,38.7,153a2.53,2.53,0,0,1,0,.38c-.34,1.83-.7,2-1,2s-.59-.54-1-1c-.49-.62-.95-1.2-1.24-1.2s-.39.22-.39.51a8.39,8.39,0,0,0,.67,2.4,6.82,6.82,0,0,1,.45,1.48c0,.8-1.51,1.74-2,1.76-.22,0-.49-.49-.74-1s-.59-1-.91-1-.48.24-.49.59a5.93,5.93,0,0,0,.28,1.38,4.49,4.49,0,0,1,.2.91c0,.31-.69,1-1.4,1.74A8.61,8.61,0,0,0,29,164.8v0l0,0a2.86,2.86,0,0,1-.83-2.27,13.69,13.69,0,0,1,.61-3.41,7,7,0,0,0,.29-1.34s0-.19-.08-.22a.78.78,0,0,0-.43-.14c-1.07,0-1.95,2.55-1.95,2.58a3.13,3.13,0,0,1-1.68-2.5,5.61,5.61,0,0,1,1.45-3.14,7.59,7.59,0,0,0,.86-1.29,1.46,1.46,0,0,0,.15-.57c0-.14,0-.3-.22-.3a1.1,1.1,0,0,0-.68.44,11.37,11.37,0,0,1-.85.84c-.9.84-2,1.89-2,2.5l-.09,0a1.82,1.82,0,0,0-.24-.49,4.5,4.5,0,0,1-.89-2.25,2,2,0,0,1,.2-.87,10.32,10.32,0,0,1,2-2.21,5.8,5.8,0,0,0,1.4-1.54h0c-1.25,0-3.06,1.54-3.74,2.11l-.14.12a.62.62,0,0,1-.38.17c-.43,0-.61-.84-.77-1.55s-.29-1.29-.64-1.29l-.12,0h.11A10.16,10.16,0,0,1,23.44,145c.57-.39.91-.62.89-1.09A3.79,3.79,0,0,0,23.58,142Zm-3.09-1.16c-.06.53-.68.88-1.34,1.26a3.51,3.51,0,0,0-1.37,1.1l0,0v0a1.67,1.67,0,0,1,0-.31,2.78,2.78,0,0,1,.43-1.43,2.32,2.32,0,0,0,.37-1.18c0-1.11-2.85-5.74-2.87-5.75l1.91-3.68v0a17.49,17.49,0,0,0,1.09,3.39c.81,2.17,1.82,4.87,1.82,6.36Zm-9.06,54.89,3-6.29h.81c1.3,0,3.25,0,4.58-.19l0,.1a25.7,25.7,0,0,1-4.33,1.53c-1.08.33-1.08,3.12-1.08,3.15Zm34.62-7.68a4.06,4.06,0,0,1,.24,1.16,1.62,1.62,0,0,1-.75,1.37,2.41,2.41,0,0,0-1.64-.92,1.68,1.68,0,0,0-.62.13C42.06,190.3,38,195.93,38,196h0v0a1.54,1.54,0,0,1,0-.36,26.74,26.74,0,0,1,1.43-7.19c2-1,3.8-3.46,3.79-4v-.05l-.1-.09c-.23,0-.66.37-1.47,1.06a22.62,22.62,0,0,1-2.88,2.19c-.87.52-1.73,1.91-2.44,3.91l-2.57,1.53,0-.09,3.86-6.24c1-.64,4.11-2.8,4.74-4.29a29.16,29.16,0,0,1,4.18-5.76.38.38,0,0,0,.07-.24,9.73,9.73,0,0,0-.74-2.36,22,22,0,0,1-1.88-7.55c0-4.4,3.2-5.84,4.3-5.84a2,2,0,0,1,1.29.44,8,8,0,0,0,1.12.64,3.49,3.49,0,0,1-2,.9c-.75.17-1.46.33-1.69.76.64.13,3.62.51,3.62,3.48,0,2.53-1,3-1.92,3.35a4.08,4.08,0,0,0-.75.39c-.4.28-.6.55-.6.8,0,.49.87.85,1.4,1.06l.12,0A3.1,3.1,0,0,1,50,175.26c0,.41,0,.83,0,1.24s-.05.78-.05,1.14a2.61,2.61,0,0,0,.41,1.69,70.91,70.91,0,0,0-6.09,5.35,2.27,2.27,0,0,0-.6,1.34.72.72,0,0,0,.1.4l8.32-6.8a21.68,21.68,0,0,0-.34-2.68,53.13,53.13,0,0,1-.71-6,3.06,3.06,0,0,1,.06-.7,3.23,3.23,0,0,1,2-1.92l0,0,0,0a6.25,6.25,0,0,0-1,3.56,12.5,12.5,0,0,0,2.3,6.67,1.5,1.5,0,0,1,.38.94c0,.68-.66,1.11-1.21,1.36a1.09,1.09,0,0,1-.48.1l-.31,0-.31,0c-.38,0-.81.12-1.45.94a.51.51,0,0,0-.1.3,1.84,1.84,0,0,0,.33.84,2.64,2.64,0,0,1,.43,1.19,1.19,1.19,0,0,1-.47.91c-.09-.05-.34-.24-.69-.42a3,3,0,0,0-1.4-.43,1.34,1.34,0,0,0-.88.3.38.38,0,0,0-.15.29,1.66,1.66,0,0,0,.25.66,2.81,2.81,0,0,1,.45,1.36,2.7,2.7,0,0,1-1.1,1.95l-.08.07.06-.07c-.34-.84-.94-2.18-1.39-2.18a.31.31,0,0,0-.26.14.65.65,0,0,0-.13.43A3.35,3.35,0,0,0,46.05,188.05Zm-13.72.73,3.42-5h0c.14,0,2.88-.36,5.1-.57h0l0,0a6.76,6.76,0,0,1-2.16,1.22,5.73,5.73,0,0,0-1.55.81,15.46,15.46,0,0,0-1.91,2.51l-.12.17Zm18,8.07-3.54.71,2.77-6.29.07,0c2.38-.35,4.53-.7,6-1h0v0a4.45,4.45,0,0,1-1.77,1,9.69,9.69,0,0,0-2.74,1.52c-.47.41-.53,1.17-.61,2.15A13.06,13.06,0,0,1,50.35,196.85Zm12.33-8.4a.24.24,0,0,0,.19.11.42.42,0,0,0,.34-.3c.79-1.86,1.91-4.18,2.81-6,.78-1.62,1.46-3,1.67-3.61.59.63,2,3.13,1.92,4a.27.27,0,0,1-.11.23,1.81,1.81,0,0,1-.55-.3l-.16-.09a2,2,0,0,0-.92-.42.27.27,0,0,0-.25.13c-.2.29,0,1.08.58,2.49.42,1.16.5,2.11.2,2.31h0c-.48,0-1.47-.85-1.83-1.18a2.66,2.66,0,0,0,.24,2.59c.43.95.85,1.84.09,2.86h0c-.2,0-.43-.27-.66-.53l-.14-.15c-.32-.37-.7-.76-1.07-.76s-.43.16-.6.47c.69,1.34,1.2,3.55.38,4.38a5.43,5.43,0,0,0-1.84-.57c-.5,0-.85.28-1.37.84-.86,1-1.14,6.27-1.15,6.49h0a3,3,0,0,0-.53.58c-.14-.21-.38-.53-.68-.93-1.35-1.78-3.85-5.1-3.28-6.31,2.71-1.25,4.47-6.18,4.48-6.22l-.56-.61c-.12.06-3.23,5-4,5.66l-.08.08c-.82.71-2,1.8-.52,4.85h0a11.42,11.42,0,0,0-4.44,2.11l.85-6.52,1.23-.4A6.59,6.59,0,0,0,56,191.91a22.53,22.53,0,0,0,2.28-5.9c.77-2.68,1.5-5.21,2.9-6,0-1.25-1.31-2.78-2.78-4.55-2.07-2.5-4.41-5.33-4.41-8.29,0-1.06,0-2.07.07-3,.14-3.59.24-6.18-2.08-6.36-.06.09.42,1.75,0,2.24a.3.3,0,0,1-.27.13,1.71,1.71,0,0,1-.88-.35,6.81,6.81,0,0,0-4.07-1,6.53,6.53,0,0,0-4.6,2.2c-.21.21-.41.4-.48.4s0,0,0-.13a2.36,2.36,0,0,1,.76-1.64c.39-.45.73-.84.11-1.47-3.37,1.51-4.24,5.68-4.24,7.67a10.89,10.89,0,0,0,.29,2.56c.19.91.27,1.33-.49,2a3,3,0,0,0-1.88-.91.75.75,0,0,0-.64.28,1.35,1.35,0,0,0,0,1.24,5.69,5.69,0,0,0,.65,1.22c.44.67.66,1-.1,3a3.62,3.62,0,0,0-2-1,.56.56,0,0,0-.48.22c-.2.3-.13.89.21,1.76l.42,1.06c.67,1.62.81,1.95.13,3a4.18,4.18,0,0,0-2.14-1,.51.51,0,0,0-.45.2c-.15.25-.09.69.21,1.36,1.13,2.54,1.24,3.48.55,4.6a5.3,5.3,0,0,0-2.23-.87.52.52,0,0,0-.46.2c-.14.21-.09.56.13,1.09a9,9,0,0,0,.54,1.08c.5.89.77,1.37.1,3v-.09c-.72-.67-1.21-1.11-1.73-1.11a1.51,1.51,0,0,0-1,.54,4.85,4.85,0,0,0,.44,1c.65,1.18,1.45,2.64.48,4.17l-2.42-.39c-.25.16-5.09,3.68-5.82,5.14a10.13,10.13,0,0,0-.51,2.41l-.21.34a19.38,19.38,0,0,1-1.15-4.27,12.77,12.77,0,0,0-.55-2.94c.19-.1,5.13-4.08,5.49-6.19l0-.12-.11.07c-1.77,1.1-6.79,4.67-6.7,6.45A9.7,9.7,0,0,0,17.2,197l-2.79,2.39L15.75,192h0c.11,0,6-1.69,7.13-5.57.35-1.28.72-3.37,1.1-5.59.8-4.59,1.8-10.32,3.27-11.85l-.26-.79c.05,0,3.66-3.39,8.17-7.89a31.42,31.42,0,0,0,3.11-3.75c2-2.75,3.49-4.73,8.51-4.73A30.75,30.75,0,0,1,55,152.87a25.2,25.2,0,0,0,6.81.93c4,0,4.21-1.85,4.21-2.22a2.59,2.59,0,0,1,.06-.4,1.88,1.88,0,0,0-.17-1.59,2.63,2.63,0,0,0-2.08-.63,2.53,2.53,0,0,0-1.46.5,4.61,4.61,0,0,1-2.72.74c-1.79,0-2.9-1.31-2.9-3.4,0-2.49,1.69-3.91,3.18-5.16,1.17-1,2.29-1.93,2.29-3.23l-.08,0c-.09,0-.19.11-.5.43l-.27.27c-.47.47-.76.7-.85.7,0-1.93-1.71-2.34-2.76-2.59-.35-.08-.68-.16-.71-.26s0-.08.06-.11a3.86,3.86,0,0,1,2.28-.59,6.27,6.27,0,0,1,4.28,1.6,4,4,0,0,1,1.16,2.94c0,1.2-.87,1.56-2,2a5.85,5.85,0,0,0-3.2,2.46c-.34.59-.63,1.1-.49,1.43a.58.58,0,0,0,.42.3h0c.27,0,.45-.28.69-.67a3.05,3.05,0,0,1,2.57-1.81c5.31,0,7.67,5.58,7.67,7.7,0,4.81-3.9,6.09-6.2,6.09a2.89,2.89,0,0,1-3-1.77,3.48,3.48,0,0,0,1.16.13,5.22,5.22,0,0,0,3.66-1.2l.11-.11h-.15l-7.4.52V156c4,1.61,5,6.21,5.83,9.9.6,2.61,1.11,4.87,2.48,5.44a3.48,3.48,0,0,0,1.57,2.18A4.49,4.49,0,0,1,70.68,177a2.7,2.7,0,0,0-1.3-.29c-1.7,0-4.08,1.07-5.73,6.18C62.27,187.21,62.51,188.22,62.68,188.45Zm-16-60.83a2.23,2.23,0,0,0-.37,0h-.11a.26.26,0,0,1-.3-.26c0-.7,2-2.75,4.84-2.77,4,0,4.18,4,4.18,4.74,0,1.74-1.25,3.23-2.07,4.22-.44.51-.75.89-.74,1.13a.28.28,0,0,0,.06.14s.14,0,.22,0c1.52,0,7.8-3.11,7.8-7.72,0-3.51-2.41-3.83-3.14-3.85l0-.09a8.86,8.86,0,0,1,3-.79c1.06,0,2.32.48,2.32,2.74a4.91,4.91,0,0,1-.39,1.4,5,5,0,0,0-.42,1.53c0,.47.24.67.8.68s.82-1.19.82-1.89a9.18,9.18,0,0,0-.08-1.19v0h0a4.2,4.2,0,0,1,1.78,3.55c0,3.7-4.18,4.85-7.22,5.69-1.7.47-2.93.81-2.89,1.46,0,.23.22.46.54.77a4.29,4.29,0,0,1,1.55,3.29,4.89,4.89,0,0,1-5.13,4.89c-.83,0-1.42-.2-1.62-.54,1.73-.93,3.23-3,3.23-4.53,0-1.12-.76-1.77-2.23-1.94h-.23c-1.85,0-3,2.34-3,3.56s.43,5,5.47,5a8,8,0,0,0,2.4-.38l.08,0-.09.05s0,.11,0,.29a3.46,3.46,0,0,0,.38,1.71,10.42,10.42,0,0,1-3.22.41c-2.16,0-7.78-1.36-7.79-7.47,0-2.73,1.49-4.44,2.91-6.09,1.24-1.44,2.41-2.8,2.4-4.67C50.42,128.61,48.19,127.62,46.69,127.62Zm26.92-11.5H4.25V4.25H73.61Zm75.78,136.36-.25.1v.31a112.73,112.73,0,0,1-15.39,5A71.78,71.78,0,0,1,105,260a103.67,103.67,0,0,1-27.88-7.21V4.41h.19V4.25h71.85v.16h.25Zm72.85-91.23c0,38.56-32.9,74-69.42,90.09V119.8h69.42ZM19.14,46.2l-.07.1h.12c.67,0,.53,2.77,1.41,2.85A.76.76,0,0,0,21,49c.48-.4,2.51-2.21,3.78-2.29-.25.75-2.73,2.45-3.38,3.74a2,2,0,0,0-.21.89,6.23,6.23,0,0,0,1.2,2.8l.13,0V54c0-.81,2.19-2.54,2.84-3.29a1.07,1.07,0,0,1,.63-.43c.11,0,.16.06.17.24a1.3,1.3,0,0,1-.15.55c-.53,1.18-2.27,2.56-2.31,4.42v0a3.23,3.23,0,0,0,1.68,2.55l.08,0,0-.09s.88-2.57,1.89-2.53a.82.82,0,0,1,.42.13.27.27,0,0,1,0,.17c0,.68-.9,2.88-.9,4.75a3,3,0,0,0,.85,2.31l.09.08,0-.12c.31-1.39,3.53-3.82,3.57-4.57,0-.48-.49-1.61-.49-2.3,0-.34.09-.52.42-.53.57,0,1.12,1.94,1.67,2s2-1,2-1.82c0-.63-1.14-2.87-1.13-3.88,0-.31.08-.44.33-.45.48,0,1.77,2.15,2.19,2.19s.74-.28,1.06-2a1.84,1.84,0,0,0,0-.4c0-1.24-1.17-1.67-1.15-2.68a1.68,1.68,0,0,1,.11-.58,6.56,6.56,0,0,1,2.49,1.84.43.43,0,0,0,.37.25c.8,0,2-2.16,2.11-2.94-.34-.43-.73-1.84-1.33-2.69s-1.36-1.07-1.3-1.17,0-.09,0-.11a15.11,15.11,0,0,0,2-2,8.27,8.27,0,0,0,1.66-5.47c0-.84-.08-1.48-.08-1.65l0,0,0,0a1.23,1.23,0,0,0-.81-.39c-.69,0-1.07.89-1.62.87a.68.68,0,0,1-.32-.09c-1-.47-.52-3.88-.84-5.11l0-.13-.09.1S37.36,30.78,37,30.75h0a.42.42,0,0,1-.1-.32,10.17,10.17,0,0,1,.55-2,.6.6,0,0,0,0-.22c0-1.06-2.18-1.45-2.18-1.47h-.07l0,.07S34.68,28.87,34,28.9h-.13c-.52,0-.65-.36-.66-.83a4.65,4.65,0,0,1,.31-1.42l0-.06-.06,0a4.68,4.68,0,0,0-1.58-.34,1.33,1.33,0,0,0-1.48,1.14c-.13.75-.34,1-.51,1-.37,0-1-1-1.33-1.66l0-.05-.05,0c-.85.41-.93,3.27-.95,4.17,0,.12,0,.11-.06.12-.39,0-2-1.74-2.68-2l-.14-.06,0,.14a1.25,1.25,0,0,1,0,.35c0,.86-.52,2.31-.53,3.09,0,.17,0,.19-.19.2-.4,0-1.32-.52-2-.53a.69.69,0,0,0-.51.19,26,26,0,0,0-.45,4,4.75,4.75,0,0,0,.21,1.59c.72,2,1.85,2.94,1.84,4.1S21.34,42.83,19.14,46.2ZM32.21,33.88l.15-.5,0-.13.09.11a2.83,2.83,0,0,0,2,1.23,1.25,1.25,0,0,0,.83-.31l0,0h0c.23.08.43.16.43.38a1.07,1.07,0,0,1-.33.59c-.47.5-.47,1.93-1.48,2h-.08C32.11,37,32.84,34.43,32.23,34l0,0Zm-4.82.31h.12l.27,0c.22,0,.54-.08.88-.16a4.65,4.65,0,0,0,1.93-.84l.07-.07,0,.09.25.57-.08,0c-.42,0-.51,2.83-1.88,2.86-1.67,0-.46-2-1.57-2.29,0,0-.05,0-.08-.07S27.39,34.21,27.39,34.19Zm-2.26,1.07c1.05.06.91,2.88,1.34,3.47s1.57.3,1.87.79l0,0,0,0c-.38.6-1.57,1.32-1.56,2.11a1.09,1.09,0,0,0,1.08,1.07c.47,0,2.57-.58,2.57-1.79,0-.6-.47-.93-.71-1.39s-.21-1-.33-1.05l-.18-.11.21,0c.85-.07,1.71-.36,2.37-.36s.78.51.79,1.08-1.25,1.08-1.22,1.57a3.92,3.92,0,0,0,2,2c.47,0,1.56-.43,1.57-1.14,0-.51-.21-1.11-.21-1.61a.87.87,0,0,1,.23-.66.35.35,0,0,1,.25-.1,1.39,1.39,0,0,1,.72.34c.93-1,1.55-2.9,3.5-3.12h0l0,0A3.59,3.59,0,0,1,40,38.21c0,2.15-2.65,3-2.7,3l-1.44-.58a2.55,2.55,0,0,1,.1.69c0,1.35-1.17,2-1.14,2.51v0a7.41,7.41,0,0,1,0,.79,3.24,3.24,0,0,1-1.12,2.84l0,0h0a3.25,3.25,0,0,0-.82-.11c-.4,0-.73.1-.74.22a1.63,1.63,0,0,1,.21.81c0,1.49-1.91,2.94-1.88,3.59a.43.43,0,0,0,0,.11l-.1.09c-.47-.32-1.45-2.46-1.8-2.87a.58.58,0,0,1-.13-.37c0-.31.16-.65.16-1.09a2,2,0,0,0-.11-.64c-.11-.49-1.47.14-1.65-.94s.16-3.09-1-3.76l0,0v0c0-2-2.32-3.36-2.34-5.35A1.65,1.65,0,0,1,25.13,35.26ZM51.78,47.05a11.14,11.14,0,0,0,3.22-.4l.1,0L55,46.54a3.26,3.26,0,0,1-.36-1.67c0-.18,0-.29,0-.29v-.11l-.1,0a8.4,8.4,0,0,1-2.35.36c-4.89,0-5.41-3.69-5.42-5s1.19-3.5,3-3.5H50c1.59.18,2.16.93,2.17,1.88,0,1.53-1.58,3.61-3.19,4.46l-.07,0,0,.07c.22.38.86.57,1.66.57a5,5,0,0,0,5.19-5c0-2.68-2.13-3.44-2.08-4.07-.11-1.69,10.08-1.36,10.11-7.14a4.31,4.31,0,0,0-1.81-3.6l-.13-.07,0,.14A9.28,9.28,0,0,1,62,24.93c0,.87-.17,1.83-.76,1.83s-.73-.24-.75-.63c0-.79.81-2.16.82-2.93,0-2.16-1.15-2.79-2.39-2.79a7.67,7.67,0,0,0-3.1.87l0,.13h0c.4,0,3.08.11,3.08,3.79,0,4.66-6.37,7.66-7.73,7.67-.11,0-.18,0-.19,0a.13.13,0,0,1,0-.1c0-.63,2.8-2.69,2.81-5.34,0-1.38-.56-4.79-4.25-4.8-2.82,0-4.87,2-4.89,2.83a.32.32,0,0,0,.36.32h.12l.35,0c1.42,0,3.68.94,3.68,3.06,0,3.95-5.29,5.59-5.31,10.76C43.94,45.73,49.75,47,51.78,47.05ZM14.35,89a22.3,22.3,0,0,0,4.39-1.6l0-.14c-2,.22-5.39.22-5.4.22h0L10.18,93.9l3.16-1.78v-.05h0C13.32,91.83,13.39,89.27,14.35,89Zm25.43-7.7.14-.14h-.19c-2.31.22-5.15.6-5.15.6l-3.51,5.17,3-.93a18.17,18.17,0,0,1,2-2.68C36.87,82.59,38.75,82.29,39.78,81.27ZM58.52,45c-.72-.18-.39-.79.11-1.65,1.73-3,5.16-2.06,5.16-4.5,0-4.6-6.09-5.34-7.81-4-.7.7,3.45.1,3.38,3,0,.54,1.71-1.5,1.71-1.35,0,2.87-5.47,3.87-5.47,8.39,0,2,1,3.45,3,3.45,2.61,0,2.71-1.23,4.18-1.23,3.14,0,2.13,1.91,2.13,2.56s-.59,2.16-4.15,2.16c-6.31,0-7.52-2-15-2-7.13,0-7.1,3.93-11.67,8.5s-8.18,7.95-8.18,7.95l.27.73C23.9,69.26,22.8,80.5,21.71,84.43S14.58,90,14.58,90L13.2,97.6,16.13,95a10.14,10.14,0,0,1-.27-2.2c-.09-1.64,4.48-5,6.67-6.4C22.16,88.55,17,92.66,17,92.66a12.65,12.65,0,0,1,.55,2.93A20.82,20.82,0,0,0,18.78,100l.28-.45a10.61,10.61,0,0,1,.5-2.4c.73-1.46,5.77-5.1,5.77-5.1l2.47.36c1.28-2-.46-3.93-.92-5.12,1-1,1.56-.46,2.75.64.91-2.19.09-2.37-.64-4.11s.64-1.37,2.56-.37c.73-1.19.54-2.19-.55-4.66s1.28-1.28,2.38-.46c.82-1.28.45-1.55-.55-4.11s.55-2.19,2.28-.91c1.1-2.93.18-2.38-.55-4.3s1.1-1.74,2.47-.55c1.28-1.19.21-1.61.21-4.63,0-2.21,1-6.17,4.14-7.63,1.1,1.09-.88,1.34-.88,3.07,0,1,1.6-2.41,5.17-2.41s4,1.38,4.95,1.38.21-2.37.21-2.37c2.86.22,2,4.19,2,9.3s7,10,7.22,12.8c-2.54,1.53-2.88,8.43-5.19,12-1.28,1.43-2.85,1.57-4.44,2.22l-.87,6.68c1.28-1.37,4.57-2.28,4.57-2.28-1.55-3.11-.23-4.13.6-4.86a62,62,0,0,0,4-5.66l.55.55s-1.74,4.93-4.48,6.21c-.73,1.56,3.37,6.36,4,7.37a4.06,4.06,0,0,1,.59-.67s.28-5.52,1.14-6.46c1-1.1,1.28-1,3.2-.28.83-.82.37-3-.36-4.38.82-1.56,2.1,1.52,2.51,1,1.46-2-1.32-3.53-.41-5.45,0,0,1.54,1.44,1.92,1.19s.18-1.38-.18-2.38c-1.91-4.56,1-1.55,1.28-1.74.63-.39-1.08-3.58-1.9-4.31-.46,1.27-3,6.19-4.47,9.66-.26.61-1.38.64.54-5.3,2.29-7.07,5.94-6.27,7-5.91-.09-3.29-3.38-3.56-3.66-5.76C62.67,67.93,64.41,56.71,57.64,54l7.4-.53c-1.65,1.65-4.85,1.1-4.85,1.1s.5,1.84,3.06,1.84S69.5,55,69.5,50.24c0-2.36-2.57-7.76-7.73-7.76C59.51,42.48,59.1,45.1,58.52,45Zm-8.41,46c1.45-1.31,4-1.74,4.52-2.55l.08-.13-.16,0c-2.62.48-6.14,1-6.15,1l-2.8,6.38,3.68-.77C49.65,93.12,49.38,91.56,50.11,90.94Zm-5-6.22c.51,0,1.34,2.14,1.34,2.14l0,.1.08-.07a2.68,2.68,0,0,0,1.12-2c0-.93-.71-1.6-.69-2a.3.3,0,0,1,.13-.25,1.26,1.26,0,0,1,.83-.28,2.86,2.86,0,0,1,1.38.42,5.21,5.21,0,0,1,.66.42l.05,0,0,0a1.21,1.21,0,0,0,.49-1c0-.79-.77-1.53-.76-2a.47.47,0,0,1,.1-.27c.61-.8,1-.91,1.4-.92.2,0,.4,0,.62,0a1.17,1.17,0,0,0,.5-.1c.59-.26,1.24-.71,1.25-1.41a1.6,1.6,0,0,0-.4-1A12.47,12.47,0,0,1,51,69.93a6.23,6.23,0,0,1,1-3.53l.11-.17-.19.06a3.34,3.34,0,0,0-2.06,2,2.81,2.81,0,0,0-.07.72c0,2.23,1.07,7.76,1.07,8.63l-8.24,6.81a.78.78,0,0,1-.09-.37,2.23,2.23,0,0,1,.59-1.31,69.91,69.91,0,0,1,6.08-5.31l.05-.05,0,0a2.72,2.72,0,0,1-.4-1.66c0-.74.1-1.57.1-2.38a3.12,3.12,0,0,0-1.25-2.91c-.49-.2-1.5-.56-1.48-1,0-.2.14-.45.57-.75.95-.7,2.71-.47,2.7-3.79,0-3-3-3.41-3.63-3.46.44-.83,2.94-.62,3.7-1.63l.05-.07-.07,0c-1.35-.63-1.4-1.08-2.43-1.09s-4.36,1.37-4.36,5.9c0,4.11,2.63,8.74,2.62,9.9a.31.31,0,0,1-.06.21,29.59,29.59,0,0,0-4.19,5.77c-.7,1.7-4.73,4.28-4.73,4.29l-3.86,6.3.1.11,2.56-1.47s1-3.1,2.45-4c2-1.2,3.89-3.27,4.31-3.24,0,0,0,0,0,0a.09.09,0,0,1,0,.06c0,.54-1.86,3-3.78,4a26.59,26.59,0,0,0-1.44,7.22,1.83,1.83,0,0,0,0,.37l0,.16.09-.13s4-5.61,5.25-6.13a1.48,1.48,0,0,1,.59-.12,2.28,2.28,0,0,1,1.58.89l0,.06.06,0a1.68,1.68,0,0,0,.77-1.42c0-.76-.43-1.49-.42-2a.61.61,0,0,1,.12-.39l-.05,0,.06,0A.24.24,0,0,1,45.13,84.72ZM11.85,41.92c0,1.12-2.19,3.12-3,3.56a.46.46,0,0,0,0,.2c0,1.48,2.69,2.9,2.75,4.07a.83.83,0,0,1-.56.19c-.55,0-1.19-.4-1.52-.41a.22.22,0,0,0-.21.21v.06c0,2.25,2.89,3.24,3,4.26,0,0,0,.06,0,.09s-.05.17-.19.18c-.48,0-1.61-.75-1.91-.76a.11.11,0,0,0-.11.1.08.08,0,0,0,0,0c.4,3.07,3,3.41,3.83,5a.34.34,0,0,1,.06.18s0,.08-.18.08c-.51,0-1.7-.49-2-.5,0,0-.14,0-.14.11s0,0,0,0c.63,3.61,4.42,2.28,5,4.54a1,1,0,0,1,0,.25c0,.12,0,.11-.11.12-.25,0-.86-.38-1.28-.38a.39.39,0,0,0-.41.44s0,0,0,0c0,.91,1.4,4.76,2.3,5l.25,0a18.51,18.51,0,0,0,4.45-1.31c1.2-.47,4.36-1.66,4.68-2.83-1.3-2.08-5.55-6-6-10.22-2.66-2.86-4.06-7.25-4.41-10.61a23.53,23.53,0,0,1-.12-2.44,23.29,23.29,0,0,1,.23-3.39l-4.42-8.55-.78,3.42,0,0s4,4.52,3.93,5.6v.05c-.09,1.07-1,4.45-1,4.45A.09.09,0,0,1,14,43s-.07-.05-.11-.22a14.56,14.56,0,0,1-.17-2.65c0-.85,0-1.54,0-1.55L9,31.45l0,.19s-.39,2.94-.39,4.5a3.45,3.45,0,0,0,.05.71C9.25,39.85,11.89,40.83,11.85,41.92Zm5.51-3.62c0,1-.79,1.34-.8,2.61a1.67,1.67,0,0,0,0,.31l0,.22.11-.19c.53-1,2.61-1.36,2.71-2.37,0-.07,0-.14,0-.21,0-2.53-2.86-8.41-2.92-9.76v-.25l-2,3.91,0,0S17.37,37.22,17.36,38.3ZM119,237.53c.28,0,1.59-.75,1.59-2.9a2.63,2.63,0,0,0-2.74-2.86c-1.7,0-2.06,1.28-2.06,2.35C115.74,236.93,118.92,237.53,119,237.53Zm-13.37,2.65a11,11,0,0,0-2-.76,3.26,3.26,0,0,0-2.16,3.16c0,2.56,1.27,3.9,3.67,3.9,2.17,0,2.62-1.6,2.62-2.95A3.19,3.19,0,0,0,105.58,240.18Zm.17-2.65c.28,0,1.58-.75,1.58-2.9a2.62,2.62,0,0,0-2.73-2.86c-1.71,0-2.06,1.28-2.06,2.35C102.54,236.94,105.72,237.53,105.75,237.53ZM128.28,241c0,.22,0,.26.64.26h3.68c.18,0,.22,0,.22,0a1.36,1.36,0,0,0,0-.4V233a51.9,51.9,0,0,0-2.89,4.61A14.6,14.6,0,0,0,128.28,241Zm-31.6,6.83h-8v-1l.21-.06,1.76-.46c.74-.19.74-.23.74-.92V233.63c0-.89,0-.92-.77-.94l-2.09,0h-.23l0-.22-.1-.51-.05-.25.24-.07,4.89-1.46.14,0,.11.09.31.22.11.09v14.93c0,.52,0,.67.8.85l1.77.43.21.06Zm7.61.34c-3.19,0-5.09-1.93-5.09-5.16a4.27,4.27,0,0,1,2.52-4,2.36,2.36,0,0,0,.52-.35h0a1.72,1.72,0,0,1-.33-.17,3.76,3.76,0,0,1-1.94-3.7c0-3,2.62-4.61,5.2-4.61,2.86,0,4.44,1.53,4.44,4.31a4,4,0,0,1-2.17,3.52l-.27.19.43.21a4.05,4.05,0,0,1,2.75,4.09C110.34,246,108,248.12,104.29,248.12Zm13.21,0c-3.19,0-5.1-1.92-5.1-5.14a4.28,4.28,0,0,1,2.53-4,2.23,2.23,0,0,0,.51-.35h0a1.73,1.73,0,0,1-.34-.17,3.77,3.77,0,0,1-1.94-3.69c0-3,2.62-4.62,5.2-4.62,2.87,0,4.44,1.53,4.44,4.31a4,4,0,0,1-2.16,3.52,3.15,3.15,0,0,0-.27.19l.42.21a4,4,0,0,1,2.75,4.08C123.54,246,121.23,248.11,117.5,248.11Zm20.81-6.26-.92,1.28-.09.11h-1.67a.61.61,0,0,0-.24,0,1.36,1.36,0,0,0,0,.31v1.73c0,.88,0,.88.72,1.08l1.15.33.2.06v1h-6.55v-1l.2-.06,1.35-.41c.41-.11.41-.11.41-1v-1.68a2.14,2.14,0,0,0,0-.42h0a1.45,1.45,0,0,0-.28,0H126l-.08-.06-.2-.18-.13-.12,0-.16L126,241c.39-.64.75-1.27,1.15-2,.53-.93,1.13-2,1.84-3.07,1.59-2.43,3-4.38,3.45-5l.06-.08.08,0,2.17-.67.14,0,.12.09.23.18.1.08v10.31a1.46,1.46,0,0,0,0,.43h0a1.83,1.83,0,0,0,.27,0h2.38l.09.11.15.2.13.17Zm-19.53-1.67a11.21,11.21,0,0,0-1.94-.76,3.25,3.25,0,0,0-2.17,3.16c0,2.56,1.27,3.91,3.67,3.91,2.17,0,2.63-1.61,2.63-3A3.2,3.2,0,0,0,118.78,240.18Zm50-89.17c.49-.41,2.6-2.31,3.92-2.31-.11.77-2.75,2.53-3.41,3.85s.44,2.64,1,3.62c-.11-.88,2.2-2.63,2.86-3.4s1.2-.51.77.44c-.55,1.21-2.28,2.58-2.31,4.39a3.16,3.16,0,0,0,1.65,2.53s1.1-3.32,2.41-2.44c.54.35-2.08,5.37,0,7.23.33-1.42,3.56-3.9,3.56-4.56s-1.09-2.89,0-2.89c.66,0,1.24,2,1.67,2s2-1,2-1.74-1.95-4.4-.74-4.4c.56,0,1.87,2.19,2.2,2.19s.66-.22,1-2-1.64-2-1-3.74c0,0,2.06.91,2.6,1.9s2.24-1.79,2.35-2.67c-.34-.4-.73-1.8-1.32-2.63s-1.32-1-1.32-1.21c0-.44-.13.28,2.06-2.13s1.55-6.8,1.57-7.1c-1.32-1.21-1.64.95-2.73.4s-.56-4-.88-5.16c0,0-1.67,2-2,1.68s.11-1.32.44-2.41-2.09-1.6-2.09-1.6-.43,2.11-1.21,2.2c-1.53.16-.55-2.34-.55-2.34s-2.63-1.12-3,.74c-.39,2.21-1.43.33-2-.65-.77.32-.9,3.22-.9,4.09s-2.08-1.52-2.84-1.85c.22.77-.49,2.58-.49,3.46s-2-.76-2.69-.1c0,.24-.78,3.92-.23,5.49.71,2,1.85,2.92,1.85,4.13s-1.84.93-4,4.3C167.87,148.41,167.58,152,168.79,151Zm11.44-15.51c.57.79,1.93,1.79,2.93.93.43.14.57.29.07.86s-.5,2-1.5,1.93c-1.71-.14-1-2.65-1.64-3.22Zm-1.79-.21.22.5c-.5.14-.57,2.86-1.86,2.86-1.58,0-.36-1.93-1.58-2.29A7.1,7.1,0,0,0,178.44,135.29Zm-7.08,3.93c0-1.65,1.22-1.79,1.58-1.79.93,0,.85,2.79,1.28,3.44s1.65.35,1.86.78c-.35.57-1.57,1.29-1.57,2.15a1.15,1.15,0,0,0,1.14,1.14c.5,0,2.65-.57,2.65-1.86,0-.64-.49-1-.72-1.43s-.17-1-.35-1.07c.86-.07,1.71-.36,2.36-.36s.71.43.71,1-1.21,1-1.21,1.58,1.57,2.07,2.07,2.07,1.65-.43,1.65-1.22-.47-1.75,0-2.21c.28-.29.93.28.93.28,1-1,1.57-2.93,3.5-3.14,1.93,3.36-2.07,4.64-2.07,4.64l-1.58-.64c.62,1.95-1.05,2.61-1,3.36.15,2.17-.29,2.85-1.07,3.58-.5-.14-1.58-.22-1.65.21,1,1.79-2,3.72-1.64,4.51a28.42,28.42,0,0,1-1.79-2.86c-.36-.43.31-1.06-.07-2.08-.22-.57-1.5.08-1.65-.93s.19-3.09-1-3.81C173.69,142.49,171.36,141.15,171.36,139.22Zm32.42-2.31c-.7.71,3.46.1,3.39,3,0,.54,1.71-1.51,1.71-1.35,0,2.86-5.47,3.87-5.47,8.38,0,2,1,3.46,3,3.46,2.61,0,2.71-1.23,4.17-1.23,3.15,0,2.14,1.91,2.14,2.56s-.6,2.16-4.15,2.16c-6.31,0-7.53-2-15.06-2-7.12,0-7.09,3.92-11.66,8.49s-8.18,8-8.18,8l.27.73c-2.19,2.28-3.29,13.53-4.39,17.46s-7.13,5.58-7.13,5.58L161,199.69l2.93-2.56a9.49,9.49,0,0,1-.28-2.19c-.09-1.65,4.48-5,6.68-6.4-.37,2.1-5.49,6.22-5.49,6.22a12.64,12.64,0,0,1,.55,2.92,20.17,20.17,0,0,0,1.19,4.39l.28-.46a10.61,10.61,0,0,1,.5-2.4c.73-1.46,5.77-5.1,5.77-5.1l2.46.37c1.28-2-.45-3.93-.91-5.12,1-1,1.55-.46,2.74.64.92-2.2.09-2.38-.64-4.12s.64-1.37,2.56-.36c.73-1.19.55-2.2-.55-4.66s1.28-1.28,2.38-.46c.82-1.28.46-1.55-.55-4.11s.55-2.2,2.29-.92c1.1-2.92.18-2.38-.55-4.29s1.1-1.74,2.47-.55c1.28-1.19.21-1.62.21-4.64,0-2.2,1-6.16,4.14-7.63,1.1,1.1-.88,1.34-.88,3.08,0,1,1.6-2.42,5.16-2.42s4,1.39,4.95,1.39.22-2.38.22-2.38c2.85.22,2,4.19,2,9.31s7,10,7.22,12.8c-2.54,1.52-2.88,8.43-5.19,12-1.28,1.42-2.85,1.56-4.44,2.22l-.87,6.68c1.28-1.37,4.57-2.28,4.57-2.28-1.56-3.11-.23-4.13.59-4.86a60,60,0,0,0,4-5.67l.55.55s-1.73,4.94-4.48,6.22c-.73,1.55,3.37,6.36,4,7.36a3.87,3.87,0,0,1,.6-.67s.28-5.51,1.14-6.46c1-1.09,1.28-1,3.2-.27.82-.82.37-3-.37-4.39.83-1.55,2.11,1.52,2.51,1,1.46-2-1.32-3.53-.4-5.45,0,0,1.54,1.45,1.92,1.19s.18-1.37-.19-2.38c-1.91-4.56,1-1.54,1.28-1.73.64-.4-1.07-3.59-1.89-4.32-.46,1.28-3,6.19-4.48,9.67-.25.6-1.37.64.55-5.3,2.28-7.07,5.94-6.28,7-5.91-.1-3.29-3.39-3.57-3.66-5.76-3.29-1.37-1.56-12.59-8.32-15.34l7.39-.52c-1.64,1.64-4.84,1.1-4.84,1.1s.49,1.84,3.05,1.84,6.26-1.43,6.26-6.15c0-2.36-2.57-7.75-7.73-7.75-2.26,0-2.67,2.62-3.25,2.48-.73-.18-.39-.79.11-1.65,1.73-3,5.15-2.07,5.16-4.51,0-4.59-6.1-5.34-7.82-4m-6.92,8c.65,1.18,6.72.69,6.72-4.35,0-2.64-2.09-3.33-2.09-4.06,0-1.83,10.11-1.43,10.11-7.14a4.19,4.19,0,0,0-1.77-3.54s.43,3.1-.76,3.1c-1.82,0,0-2.53,0-3.63,0-4.72-5.38-1.87-5.38-1.87s3.21-.16,3.21,3.86c0,5.12-7.49,8.23-8,7.68s2.74-2.66,2.74-5.49c0-1.37-.54-4.73-4.17-4.73s-5.79,3.18-4.42,3,4.11.73,4.11,3.11c0,4-5.31,5.64-5.31,10.76,0,6.15,5.77,7.45,7.78,7.45a11.25,11.25,0,0,0,3.2-.39,3.93,3.93,0,0,1-.37-2,8.25,8.25,0,0,1-2.37.37c-4.94,0-5.49-3.75-5.49-5s1.29-3.78,3.29-3.56C202.05,138.9,199.53,143.51,196.86,144.92Zm-4.18,42c.64-.83,1.66,2,1.66,2,2.56-2.29-.26-3.58.56-4.27,1.1-.91,3,.56,3,.56,1.38-1.19-.77-2.47-.18-3.24,1.19-1.56,1.73-.64,2.55-1s1.74-1.09.83-2.28-3.85-6.4-1.29-10.24a3.3,3.3,0,0,0-2,1.92c-.36,1.37,1,8.32,1,9.32l-8.32,6.92s-.55-.55.45-1.83a71.22,71.22,0,0,1,6.09-5.32c-1.19-1.56.84-5.47-1.53-6.93-.64-.28-2.44-.82-.92-1.92,1-.74,2.68-.44,2.68-3.74s-3.66-3.39-3.66-3.39c.36-1,3-.73,3.74-1.73-1.37-.64-1.39-1.08-2.4-1.08s-4.28,1.34-4.28,5.82,3.14,9.57,2.54,10.16a30.34,30.34,0,0,0-4.17,5.75c-.74,1.74-4.76,4.32-4.76,4.32L180.39,193l2.56-1.46s.94-3.07,2.45-4c2.13-1.28,4.11-3.56,4.44-3.22s-1.68,3.07-3.78,4.17a25.81,25.81,0,0,0-1.38,7.52s4-5.61,5.28-6.16,2.25.8,2.25.8C194,189.41,192,187.72,192.68,186.9Zm-8.84-1.55c.82-.73,2.69-1,3.7-2-2.31.22-5.14.6-5.14.6l-3.35,5,2.79-.87A16.08,16.08,0,0,1,183.84,185.35ZM162.14,191a22.08,22.08,0,0,0,4.38-1.6c-2,.21-5.41.21-5.41.21l-3,6.21,2.92-1.64S161.05,191.37,162.14,191Zm-5-39.16c-.05,2.23,2.84,3.2,3,4.3s-2.24-.69-2.2-.36c.41,3.06,2.94,3.37,3.84,5,.55,1-2.33-.39-2.28-.09.62,3.58,4.36,2.23,5,4.57.37,1.31-1.68-.7-1.77.45,0,.76,1.42,4.8,2.24,5s3.48-.82,4.67-1.28,4.36-1.68,4.63-2.78c-1.28-2-5.55-5.9-6-10.2-2.65-2.83-4-7.24-4.4-10.6A24.5,24.5,0,0,1,164,140l-4.32-8.34-.73,3.2s4,4.59,4,5.69a45.5,45.5,0,0,1-1,4.48c-.64.91-.46-4.39-.46-4.39l-4.59-6.89a33.11,33.11,0,0,0-.33,5.18c.57,3,3.18,3.9,3.18,5.09s-2.21,3.16-3,3.62c-.18,1.46,2.66,2.92,2.75,4.2C158.71,152.67,157.16,151.27,157.15,151.84Zm7.31-8.53c.56-1,2.63-1.42,2.7-2.34.17-2.37-2.84-8.53-2.91-10l-1.86,3.65s2.85,4.6,2.85,5.74S164.31,141.82,164.46,143.31Zm37.91,47.14c-2.62.49-6.15,1-6.15,1l-2.7,6.22,3.56-.74c.32-1.7,0-3.26.79-3.94C199.34,191.67,201.9,191.2,202.37,190.45Z"/></g></g></svg>