<svg xmlns="http://www.w3.org/2000/svg" viewBox="0 0 936.56 263.39"><defs><style>.cls-1{fill:#fff;}.cls-2{fill:#b82234;}.cls-3{fill:#fdb515;}</style></defs><title>BangorLogo_landscape_colourCrest_whiteText_rev</title><g id="Layer_2" data-name="Layer 2"><g id="Layer_1-2" data-name="Layer 1"><path class="cls-1" d="M309.94,167H269.72v-3.23h.41c3.53,0,6-.92,7.33-2.74s2.06-5.27,2.06-10.17V98.5c0-5-.66-8.45-1.95-10.28s-3.77-2.7-7.44-2.7h-.41V82.29h33c9.37,0,16.87,1.91,22.27,5.68s8.21,8.9,8.21,15.15c0,9-5.68,15.39-16.89,19.14a29.61,29.61,0,0,1,15.49,8.42A21.76,21.76,0,0,1,338.14,146a18.11,18.11,0,0,1-7.8,15.25c-5.14,3.78-12,5.69-20.4,5.69Zm-18.2-41.89v24.19c0,5.33.6,9,1.78,10.9s3.42,2.78,6.75,2.78h7.16a16.1,16.1,0,0,0,12-4.77c3.08-3.18,4.64-7.49,4.64-12.85a18.19,18.19,0,0,0-6.68-14.7c-4.45-3.69-10.46-5.55-17.86-5.55Zm0-4h8.53c6.12,0,11.05-1.56,14.65-4.66s5.4-7.29,5.4-12.53c0-5.52-1.78-9.87-5.29-12.92s-8.59-4.62-15.06-4.62h-8.23V121Z"/><path class="cls-1" d="M451.6,167H420.38v-3.23h.41c4.73,0,7-1.51,7-4.62a9.12,9.12,0,0,0-.64-3.08l-7.93-23H392.08l-5.8,16.57c-1.45,4.2-2.18,7.26-2.18,9.11,0,3.31,2.1,5,6.43,5h.39V167H367.8v-3.18l.35-.05a13,13,0,0,0,7.23-3c1.71-1.57,3.48-4.91,5.27-9.94l23.89-69.18.09-.27h9.47l.09.27,25.08,72.26c1.45,4.16,3,6.87,4.48,8.06s4,1.78,7.45,1.78h.4V167ZM394,127.05h23.23l-11.68-33.9L394,127.05Z"/><path class="cls-1" d="M559.89,166.34h-3.24l-.12-.14L496,94.12v57.79c0,4,.84,6.94,2.5,8.63s4.5,2.57,8.44,2.57h.4v3.23h-27v-3.23h.4c4,0,6.76-1,8.15-3s2.13-5.74,2.13-11V100c0-5.17-1-8.92-2.88-11.15s-5.13-3.56-9.57-4l-.36,0v-3.2H501l.12.14,53.56,64.43V98.3c0-5-.73-8.57-2.16-10.52s-4.1-2.88-8-2.88h-.4V81.67H571V84.9h-.41c-4,0-6.85.92-8.38,2.72s-2.33,5.23-2.33,10.11v68.61Z"/><path class="cls-1" d="M656.1,169c-16,0-28.62-3.88-37.57-11.54S605,139.57,605,127a48.34,48.34,0,0,1,5.9-23.79,45.11,45.11,0,0,1,39-23,56,56,0,0,1,15.51,2.44,32.15,32.15,0,0,0,8,1.49c2.3,0,3.77-.83,4.5-2.55l.1-.24h3.39V106.9h-3.18l-.05-.34a23.91,23.91,0,0,0-9.46-16.22,30.31,30.31,0,0,0-18.79-6.1,27.54,27.54,0,0,0-22.15,10.47c-5.75,7-8.67,16.11-8.67,27.16,0,12.15,3.37,22.36,10,30.34s15.1,12,25.14,12c9.49,0,14.1-2.8,14.1-8.56v-9.1c0-5-.68-8.61-2-10.59s-3.69-2.91-7.06-2.91h-3.72v-3.24h35.79v3.24h-.41c-3.69,0-6.36.82-7.92,2.42s-2.35,4.47-2.35,8.5v22.88l-.31.08A79,79,0,0,1,669,168.39c-5.51.43-9.84.65-12.88.65Z"/><path class="cls-1" d="M773.16,169c-12.92,0-24-4.37-32.91-13a42.72,42.72,0,0,1-13.45-31.82c0-12.49,4.5-23.07,13.38-31.43s20.09-12.59,33.34-12.59c12.86,0,23.9,4.3,32.8,12.77a41.69,41.69,0,0,1,13.42,31.25,42.65,42.65,0,0,1-13.53,31.83c-9,8.61-20.09,13-33.05,13Zm.66-84.8c-9.94,0-18,3.67-24,10.93s-9,17.11-9,29.21,3,22,8.9,29.45A28.36,28.36,0,0,0,773,165a28.78,28.78,0,0,0,23.58-11.44c6-7.61,9.08-17.24,9.08-28.63,0-12.24-3-22.2-8.9-29.6a28.08,28.08,0,0,0-22.95-11.11Z"/><path class="cls-1" d="M936.56,167H918.3l-.12-.14A165.06,165.06,0,0,1,905,148.08c-5.44-8.55-9.76-14.09-12.83-16.44a16.31,16.31,0,0,0-10.1-3.5h-6.59v22.67c0,4.85.7,8.27,2.09,10.15s3.85,2.77,7.37,2.77h.41V167H853.42v-3.23h.4c3.67,0,6.18-.93,7.44-2.76s2-5.3,2-10.15V98.22c0-4.85-.65-8.23-1.92-10s-3.76-2.66-7.48-2.66h-.4V82.29h35.83c8.78,0,15.92,2.11,21.2,6.27a19.66,19.66,0,0,1,8,16.08c0,10.21-5.8,17.17-17.27,20.73a35.87,35.87,0,0,1,7,6.28,111.33,111.33,0,0,1,9.81,14.2c4.48,7.23,8,12,10.52,14.28a13,13,0,0,0,7.69,3.6l.37,0V167Zm-61.12-43.13h10.2c6.2,0,11.12-1.74,14.63-5.18s5.29-8,5.29-13.72a17.12,17.12,0,0,0-5.86-13.47c-3.91-3.42-9.16-5.15-15.61-5.15h-8.65v37.52Z"/><path class="cls-1" d="M286.77,243.76c-3.94,0-7.08-1.16-9.35-3.46a12.41,12.41,0,0,1-3.42-9.1V213.73c0-2-.26-3.47-.8-4.24s-1.52-1.1-3-1.1h-.32v-1.67h13.86v1.67h-.32c-1.53,0-2.56.36-3.08,1.07a7.81,7.81,0,0,0-.81,4.21v18a9.1,9.1,0,0,0,2.37,6.63,8.92,8.92,0,0,0,6.64,2.4c4.18,0,7.58-1.91,10.12-5.68V213.73a7.89,7.89,0,0,0-.79-4.16,3.38,3.38,0,0,0-2.8-1.18l-.31,0v-1.65H308.3v1.67H308a3.47,3.47,0,0,0-3,1.11,7.62,7.62,0,0,0-.85,4.23v22.16a7.74,7.74,0,0,0,.83,4.2,3.49,3.49,0,0,0,3,1.12h.32v1.67h-9.66v-4.46a15.93,15.93,0,0,1-11.87,5.34Z"/><path class="cls-1" d="M360.57,242.88H359l-.1-.12-25.35-30.21v24.07a5.05,5.05,0,0,0,1,3.55,4.77,4.77,0,0,0,3.47,1h.32v1.67H326.59v-1.67h.32c1.65,0,2.76-.41,3.32-1.21a8.59,8.59,0,0,0,.88-4.56v-20.8c0-2.15-.4-3.7-1.19-4.62a5.72,5.72,0,0,0-3.95-1.63l-.29,0v-1.64h9.86l.1.11,22.42,27V213.91c0-2.1-.3-3.57-.89-4.36s-1.66-1.16-3.25-1.16h-.32v-1.67h11.68v1.67H365c-1.66,0-2.82.37-3.43,1.1s-1,2.15-1,4.18v29.21Z"/><path class="cls-1" d="M397,242.88h-13.8v-1.67h.32c1.49,0,2.5-.36,3-1.08s.81-2.17.81-4.24V213.74c0-2.11-.27-3.55-.8-4.29s-1.53-1.06-3-1.06h-.32v-1.67H397v1.67h-.32a3.48,3.48,0,0,0-3,1.11c-.56.76-.84,2.19-.84,4.24v22.15c0,2.05.28,3.47.84,4.22a3.5,3.5,0,0,0,3,1.1H397v1.67Z"/><path class="cls-1" d="M434,243.36h-1.48l-.08-.2-11.33-28.83c-1-2.61-1.93-4.26-2.66-4.92a4.71,4.71,0,0,0-3.1-1H415v-1.66H429v1.67h-.32c-2.58,0-2.88,1.18-2.88,2.07a4.39,4.39,0,0,0,.39,1.66l8.65,22.16,8.2-21.36a6.89,6.89,0,0,0,.51-2.34c0-.94-.31-2.19-2.95-2.19h-.32v-1.67h11.31v1.73h-.33c-2.52,0-4.66,2.25-6.34,6.69l-10.8,28-.08.2Z"/><path class="cls-1" d="M492.71,242.88H465.78v-1.67h.32c1.52,0,2.54-.37,3-1.09a7.9,7.9,0,0,0,.79-4.17V213.74c0-2.09-.28-3.52-.81-4.27s-1.54-1.08-3-1.08h-.32v-1.67h27v6.57h-1.27l-.05-.25a5.65,5.65,0,0,0-1.5-3.19c-.63-.51-2.09-.77-4.34-.77H475.4v14.56h9.91A3.93,3.93,0,0,0,488,223a4.77,4.77,0,0,0,1-2.57l0-.27h1.69v9.27H489l-.07-.24c-.46-1.78-1-2.43-1.3-2.66s-1.24-.52-3.5-.52H475.4v12.4a2.13,2.13,0,0,0,.51,1.64,2.82,2.82,0,0,0,1.86.46h6.39a20.62,20.62,0,0,0,4.65-.35,4.27,4.27,0,0,0,2.07-1.26,12.64,12.64,0,0,0,1.88-3.11l.09-.18h1.7l-.1.4-1.68,6.63-.06.24Z"/><path class="cls-1" d="M549.51,242.88h-8l-.09-.11a69.4,69.4,0,0,1-5.62-8c-2.29-3.61-4.11-5.94-5.39-6.93a6.84,6.84,0,0,0-4.19-1.44h-2.64v9.45a7.61,7.61,0,0,0,.85,4.21,3.56,3.56,0,0,0,3,1.11h.33v1.67H514v-1.67h.32c1.5,0,2.52-.37,3-1.11a7.93,7.93,0,0,0,.8-4.21V213.62c0-2-.26-3.43-.78-4.17s-1.52-1.06-3.05-1.06H514v-1.67h15.33a14.33,14.33,0,0,1,9.07,2.68,8.49,8.49,0,0,1,3.44,6.93c0,4.31-2.39,7.28-7.12,8.83a16.13,16.13,0,0,1,2.73,2.51,46.78,46.78,0,0,1,4.17,6,30.82,30.82,0,0,0,4.43,6,5.36,5.36,0,0,0,3.17,1.49l.3,0v1.65Zm-25.89-18.57h4.17a8.35,8.35,0,0,0,6.09-2.15,7.66,7.66,0,0,0,2.19-5.7,7.1,7.1,0,0,0-2.43-5.59,9.52,9.52,0,0,0-6.51-2.15h-3.51v15.59Z"/><path class="cls-1" d="M576.24,243.76a21,21,0,0,1-6.46-1.35,8,8,0,0,0-1.92-.53c-.16,0-.68,0-1.1,1.15l-.08.21h-1.63V233h1.73v.32a8,8,0,0,0,2.56,6.12,8.58,8.58,0,0,0,5.93,2.31,7.58,7.58,0,0,0,5.13-1.65,5.48,5.48,0,0,0,1.9-4.36,6.06,6.06,0,0,0-1.58-3.92c-1.07-1.28-3.36-3-6.81-5a30.78,30.78,0,0,1-5.78-4.1,10.09,10.09,0,0,1-2.19-3.36,11.12,11.12,0,0,1-.7-4,8.94,8.94,0,0,1,2.86-6.87,10.53,10.53,0,0,1,7.41-2.63,17.68,17.68,0,0,1,5.4.95,6.83,6.83,0,0,0,1.77.41c.29,0,.35-.07.35-.07a2.18,2.18,0,0,0,.28-.7l.07-.23H585v9h-1.71l0-.29a7.7,7.7,0,0,0-2.46-5.18,7.8,7.8,0,0,0-5.32-1.86,7.16,7.16,0,0,0-4.58,1.38,4.42,4.42,0,0,0-1.69,3.63,6,6,0,0,0,1.43,3.89c1,1.19,3.12,2.77,6.4,4.68,3.88,2.25,6.54,4.25,7.89,6a9.34,9.34,0,0,1,2.06,5.95,10,10,0,0,1-3.15,7.38,10.51,10.51,0,0,1-7.57,3.06Z"/><path class="cls-1" d="M620.54,242.88h-13.8v-1.67h.32c1.48,0,2.5-.36,3-1.08a7.92,7.92,0,0,0,.81-4.24V213.74c0-2.11-.27-3.55-.8-4.29s-1.53-1.06-3-1.06h-.32v-1.67h13.8v1.67h-.32a3.48,3.48,0,0,0-3,1.11c-.56.77-.85,2.19-.85,4.24v22.15c0,2,.29,3.46.85,4.22a3.49,3.49,0,0,0,3,1.1h.32v1.67Z"/><path class="cls-1" d="M662.18,242.88H648.59v-1.67h.32a3.43,3.43,0,0,0,3-1.15,8,8,0,0,0,.81-4.17V209.08h-5c-2.46,0-4.26.38-5.36,1.13a4.64,4.64,0,0,0-1.81,3.66l0,.3h-1.71v-8.79h1.54l.09.08c.91.83,2.68,1.26,5.27,1.26h19.18c2.68,0,4.57-.43,5.6-1.27l.09-.07h1.59v8.79h-1.29l-.06-.25a5.79,5.79,0,0,0-2.3-3.81,10.16,10.16,0,0,0-5.13-1h-5.22v27c0,2.07.25,3.46.75,4.15s1.44,1,2.88,1h.33v1.67Z"/><path class="cls-1" d="M712.58,242.88h-14v-1.67h.32c1.69,0,2.82-.39,3.35-1.14a7.84,7.84,0,0,0,.82-4.18v-11.1l-7.74-11.7a16,16,0,0,0-3.08-3.77,5.7,5.7,0,0,0-3.19-.93l-.3,0v-1.65h15v1.67h-.32c-2.29,0-3.46.45-3.46,1.34a3.38,3.38,0,0,0,.7,1.7l7,10.36,5.53-8.51a6.43,6.43,0,0,0,1.22-3.24c0-.71-.21-1.65-2.1-1.65h-.32v-1.67h10.69v1.65l-.3,0a6,6,0,0,0-3,.81,11.4,11.4,0,0,0-2.61,3.07l-8.18,12.52v11.1c0,2.08.27,3.51.8,4.25a3.37,3.37,0,0,0,2.9,1.07h.33v1.67Z"/><path class="cls-1" d="M283.62,48.4H269.81V46.73h.32a3.42,3.42,0,0,0,3-1.14,7.4,7.4,0,0,0,.83-4.05V19.25a7.75,7.75,0,0,0-.83-4.23,3.46,3.46,0,0,0-3-1.11h-.32V12.23h13.67c4.42,0,8,1,10.57,2.89A9,9,0,0,1,298,22.64a8.19,8.19,0,0,1-3.48,7.07c-2.27,1.61-5.55,2.43-9.76,2.43a49.31,49.31,0,0,1-5.29-.33v9.6c0,2.06.28,3.49.83,4.24a3.51,3.51,0,0,0,3,1.08h.32V48.4Zm-4.15-18.79a14.64,14.64,0,0,0,4.2.52,9.35,9.35,0,0,0,6.29-2,6.73,6.73,0,0,0,2.28-5.39A8.6,8.6,0,0,0,290,16.64a8.3,8.3,0,0,0-6.29-2.4h-4.2V29.61Z"/><path class="cls-1" d="M351.39,48.4h-7.95l-.1-.11a69.54,69.54,0,0,1-5.61-8c-2.3-3.61-4.11-5.94-5.4-6.92A6.72,6.72,0,0,0,328.15,32H325.5v9.45a7.49,7.49,0,0,0,.86,4.21,3.56,3.56,0,0,0,3,1.11h.32V48.4H315.87V46.73h.33c1.5,0,2.52-.37,3-1.11a7.79,7.79,0,0,0,.81-4.21V19.13a7.79,7.79,0,0,0-.79-4.16c-.5-.7-1.52-1.06-3-1.06h-.33V12.23H331.2a14.31,14.31,0,0,1,9.07,2.69,8.5,8.5,0,0,1,3.45,6.94c0,4.3-2.4,7.27-7.13,8.82a16.25,16.25,0,0,1,2.74,2.52,47.85,47.85,0,0,1,4.17,6,30,30,0,0,0,4.43,6,5.37,5.37,0,0,0,3.16,1.49l.3,0V48.4ZM325.5,29.83h4.17a8.38,8.38,0,0,0,6.1-2.15A7.67,7.67,0,0,0,338,22a7.12,7.12,0,0,0-2.43-5.59A9.55,9.55,0,0,0,329,14.24H325.5V29.83Z"/><path class="cls-1" d="M382.83,48.4H369V46.73h.32c1.49,0,2.5-.36,3-1.08s.81-2.18.81-4.24V19.25c0-2.1-.26-3.54-.79-4.28s-1.53-1.06-3-1.06H369V12.23h13.81v1.68h-.33a3.47,3.47,0,0,0-3,1.11c-.56.77-.84,2.19-.84,4.23V41.41c0,2.05.28,3.47.84,4.22a3.49,3.49,0,0,0,3,1.1h.33V48.4Z"/><path class="cls-1" d="M418.15,48.4h-13.8V46.73h.32a3.5,3.5,0,0,0,3-1.1c.55-.75.83-2.17.83-4.22V19.25a7.87,7.87,0,0,0-.82-4.25c-.51-.72-1.52-1.09-3-1.09h-.32V12.23H430.1v7h-1.42l-.06-.26a6.92,6.92,0,0,0-1.46-3.52c-.4-.36-1.45-.79-4.18-.79h-9V28.83h9.22a3.58,3.58,0,0,0,2.64-.86A5.32,5.32,0,0,0,427,24.91l0-.29h1.61V35.26H427l0-.31c-.11-2.5-1.31-3.72-3.64-3.72H414V41.41c0,2,.28,3.46.84,4.22a3.53,3.53,0,0,0,3,1.1h.32V48.4Z"/><path class="cls-1" d="M472,48.4H458V46.73h.32c1.69,0,2.81-.38,3.34-1.14a7.73,7.73,0,0,0,.83-4.18V30.31l-7.74-11.7a16.12,16.12,0,0,0-3.08-3.76,5.64,5.64,0,0,0-3.19-.94l-.31,0V12.23h15v1.68h-.32c-2.29,0-3.45.45-3.45,1.34A3.35,3.35,0,0,0,460,17l7,10.36,5.53-8.51a6.46,6.46,0,0,0,1.22-3.25c0-.7-.21-1.64-2.1-1.64h-.32V12.23H482v1.66l-.3,0a6,6,0,0,0-3,.81,11.38,11.38,0,0,0-2.61,3.07L468,30.31v11.1c0,2.08.27,3.51.8,4.25a3.35,3.35,0,0,0,2.9,1.07H472V48.4Z"/><path class="cls-1" d="M508.17,49.28a21,21,0,0,1-6.46-1.35,8.25,8.25,0,0,0-1.92-.53c-.45,0-.82.39-1.1,1.15l-.07.22H497V38.52h1.73v.32A8,8,0,0,0,501.27,45a8.53,8.53,0,0,0,5.93,2.31,7.62,7.62,0,0,0,5.13-1.65,5.41,5.41,0,0,0,1.89-4.36,6.06,6.06,0,0,0-1.57-3.91c-1.07-1.28-3.36-3-6.81-5a30.25,30.25,0,0,1-5.78-4.11,10,10,0,0,1-2.19-3.36,11,11,0,0,1-.7-4A8.94,8.94,0,0,1,500,14a10.5,10.5,0,0,1,7.4-2.63,17.69,17.69,0,0,1,5.41,1,6.74,6.74,0,0,0,1.77.41c.28,0,.35-.07.35-.07a2.18,2.18,0,0,0,.28-.7l.06-.23h1.6v9h-1.71l0-.29a7.81,7.81,0,0,0-2.46-5.18,7.81,7.81,0,0,0-5.33-1.86,7.1,7.1,0,0,0-4.57,1.39,4.39,4.39,0,0,0-1.69,3.62,6.06,6.06,0,0,0,1.43,3.89c1,1.19,3.12,2.77,6.4,4.67,3.89,2.26,6.54,4.26,7.89,6a9.36,9.36,0,0,1,2.06,6,10,10,0,0,1-3.15,7.38,10.49,10.49,0,0,1-7.57,3.06Z"/><path class="cls-1" d="M560.08,49.28c-6.8,0-12.19-1.66-16-4.92a16.38,16.38,0,0,1-5.77-13,20.58,20.58,0,0,1,2.52-10.14,19.25,19.25,0,0,1,16.64-9.83,23.85,23.85,0,0,1,6.61,1,13.63,13.63,0,0,0,3.34.62,1.69,1.69,0,0,0,1.76-1l.09-.19h1.68V23h-1.63l0-.27a10,10,0,0,0-3.94-6.77,12.67,12.67,0,0,0-7.87-2.56,11.53,11.53,0,0,0-9.26,4.38c-2.42,2.93-3.64,6.77-3.64,11.41a19.38,19.38,0,0,0,4.21,12.76,13.18,13.18,0,0,0,10.53,5c3.92,0,5.82-1.13,5.82-3.47V39.61a8.38,8.38,0,0,0-.83-4.4,3.25,3.25,0,0,0-2.87-1.16H559.7V32.37h15.45v1.68h-.32a4.42,4.42,0,0,0-3.24,1,5,5,0,0,0-1,3.49v9.81l-.24.06a32.52,32.52,0,0,1-4.84.62c-2.34.18-4.18.27-5.47.27Z"/><path class="cls-1" d="M613.07,49.28a19.56,19.56,0,0,1-14-5.54,18.24,18.24,0,0,1-5.74-13.59A17.74,17.74,0,0,1,599,16.73a20,20,0,0,1,14.23-5.37,19.59,19.59,0,0,1,14,5.45A17.8,17.8,0,0,1,633,30.15a18.16,18.16,0,0,1-5.78,13.59,19.69,19.69,0,0,1-14.1,5.54Zm.28-35.92a12.36,12.36,0,0,0-10,4.58c-2.51,3.06-3.78,7.18-3.78,12.27s1.26,9.26,3.74,12.39A11.88,11.88,0,0,0,613,47.28a12.07,12.07,0,0,0,9.87-4.79,18.86,18.86,0,0,0,3.81-12c0-5.16-1.26-9.34-3.73-12.45a11.81,11.81,0,0,0-9.61-4.65Z"/><path class="cls-1" d="M679,48.4H651.92V46.73h.32a3.3,3.3,0,0,0,2.94-1.23,8,8,0,0,0,.89-4.39V18.74a6.45,6.45,0,0,0-.83-3.82,3.65,3.65,0,0,0-3-1h-.32V12.23h13.74v1.68h-.32a3.3,3.3,0,0,0-2.88,1.17,7.31,7.31,0,0,0-.88,4.11V42.93a3.17,3.17,0,0,0,.74,2.45,5.12,5.12,0,0,0,3.08.65h7.27c2.16,0,3.68-.35,4.5-1.06s1.66-2.3,2.43-4.74l.07-.22h1.76l-.12.41-2.25,7.75-.06.23Z"/><path class="cls-1" d="M113.31,263.39c-24.64,0-52.79-11.54-75.28-30.87-24.17-20.76-38-47.36-38-73V0H226.61V159.52c0,25.63-13.87,52.24-38,73-22.5,19.33-50.64,30.87-75.27,30.87Z"/><path d="M113.3,259.11c23.65,0,50.75-11.15,72.5-29.82,23.22-20,36.53-45.38,36.53-69.77V4.27H4.27V159.52c0,24.39,13.32,49.81,36.54,69.77C62.55,248,89.65,259.11,113.3,259.11Z"/><rect class="cls-2" x="151.41" y="8.36" width="66.77" height="107.71"/><path class="cls-2" d="M8.31,119.62H75.14V246.26C40,230.77,8.31,196.65,8.31,159.52Z"/><rect class="cls-3" x="8.37" y="8.36" width="66.77" height="107.71"/><path class="cls-3" d="M151.41,119.62V246.26c35.15-15.49,66.83-49.61,66.83-86.74v-39.9Z"/><path class="cls-1" d="M118.8,233c.27,0,1.52-.73,1.52-2.8a2.52,2.52,0,0,0-2.63-2.75c-1.64,0-2,1.23-2,2.26C115.7,232.39,118.77,233,118.8,233Zm-12.88,2.55a10.31,10.31,0,0,0-1.87-.74,3.14,3.14,0,0,0-2.09,3.05c0,2.46,1.22,3.75,3.54,3.75,2.09,0,2.52-1.54,2.52-2.84A3.06,3.06,0,0,0,105.92,235.52Zm.17-2.55c.26,0,1.52-.73,1.52-2.8a2.52,2.52,0,0,0-2.63-2.75c-1.64,0-2,1.23-2,2.26C103,232.39,106.06,233,106.09,233Zm21.69,3.29c0,.21,0,.24.62.24h3.53c.18,0,.22,0,.22,0a1.24,1.24,0,0,0,0-.38v-7.48a51.06,51.06,0,0,0-2.79,4.44A13.73,13.73,0,0,0,127.78,236.26ZM147.86,8.52V8.36H78.69v.16h-.18V247.65a100.26,100.26,0,0,0,26.83,6.94,69.2,69.2,0,0,0,27.7-2.06,108.12,108.12,0,0,0,14.82-4.78v-.29l.24-.1V8.52ZM97.35,242.84h-7.7v-1l.2-.05,1.69-.45c.71-.18.71-.22.71-.89V229.21c0-.86,0-.89-.74-.91l-2,0h-.21l0-.22-.09-.49,0-.24.23-.07,4.72-1.4.13,0,.1.08.3.22.11.08v14.38c0,.5,0,.64.77.82l1.7.41.2.06Zm7.33.32c-3.07,0-4.9-1.86-4.9-5a4.12,4.12,0,0,1,2.43-3.85,2.74,2.74,0,0,0,.5-.34h0a1.26,1.26,0,0,1-.32-.17,3.59,3.59,0,0,1-1.87-3.55c0-2.92,2.52-4.44,5-4.44,2.75,0,4.27,1.47,4.27,4.15a3.88,3.88,0,0,1-2.08,3.39,2.93,2.93,0,0,0-.26.18c.1.06.27.13.41.2a3.9,3.9,0,0,1,2.64,3.94C110.5,241.07,108.27,243.16,104.68,243.16Zm12.72,0c-3.07,0-4.91-1.85-4.91-5a4.12,4.12,0,0,1,2.43-3.85,2.16,2.16,0,0,0,.5-.34h0a1.52,1.52,0,0,1-.32-.16,3.61,3.61,0,0,1-1.86-3.56c0-2.91,2.51-4.44,5-4.44,2.76,0,4.27,1.47,4.27,4.15a3.88,3.88,0,0,1-2.08,3.39,2.93,2.93,0,0,0-.26.18c.1.06.27.13.41.2a3.89,3.89,0,0,1,2.65,3.93C123.22,241.07,121,243.15,117.4,243.15Zm20-6-.88,1.22-.08.11h-1.61c-.19,0-.23,0-.23,0a1.24,1.24,0,0,0,0,.3v1.67c0,.84,0,.84.69,1l1.1.32.2.05v1h-6.31v-1l.19-.05,1.3-.4c.4-.1.4-.1.4-.92v-1.62a2,2,0,0,0,0-.4h0a1.39,1.39,0,0,0-.27,0h-6.33l-.08-.06-.19-.17-.13-.11,0-.16.42-1.67c.38-.62.73-1.23,1.11-1.89.51-.89,1.09-1.9,1.77-3,1.53-2.34,2.85-4.21,3.32-4.84l.06-.07.08,0,2.09-.64.13,0,.11.09.23.17.1.08v9.93a1.67,1.67,0,0,0,0,.4h2.56l.08.11.15.2.12.15Zm-18.8-1.61a10.52,10.52,0,0,0-1.87-.74,3.15,3.15,0,0,0-2.09,3.05c0,2.46,1.23,3.75,3.54,3.75,2.09,0,2.53-1.54,2.53-2.84A3.07,3.07,0,0,0,118.63,235.52Z"/><path d="M168.25,52.28c-.1,1.67-1.13.21-1.13.21a9.41,9.41,0,0,1-2.61-6.16c.76-.46,1.11-2.07,1.42-2.22s2.42-1.17,2.42-2.22-3-7.63-3-10.1l-2.52,3.53-2-3.43L159.31,36l-1.61-1.92s-.79,5.92-.5,7c.77,2.89,2.06,2.55,2.06,3.56,0,1.56-2.74,2.72-2.74,2.72.32.83,1.88,8.34,3,12,1.29,4.14,2.21,4.5,3.07,6.27.7,1.44,1,4.64,2.72,4.64s6.41-1.72,6.41-1.72c-1.57,1.52-2.27,16.81-4.79,16.81-1.71,0-6.06.13-6.06.13a34.11,34.11,0,0,0-3.43,9l3.73-2.16-1.11,5.9,4.54-3.38,1.87,5.8,1.67-2.72s-.42-1.3,1-3.13c1.21-1.62,3.07-4.29,3.07-4.29l2.33.6a5.18,5.18,0,0,0,.9-3.53l.67-.16.72-1.58,1-2.83c.37-.87,4.31-11.07,5.49-14.16a8.13,8.13,0,0,0,.73-3.32,9.25,9.25,0,0,1-.24-2.13,7.15,7.15,0,0,1,2.39-4.24.19.19,0,0,0,0,.08,1.23,1.23,0,0,0,1.21,1.36,1.61,1.61,0,0,0,1-.38,4.55,4.55,0,0,1,2.91-.88l.59,0c-1.64.64-3.65,2.63-3.65,6.38,0,2.64,1.1,5.59,1.91,7.75.23.61.51,1.35.63,1.79l-.41.31c-1.66,1.28-3.33,2.64-3.9,4l0,.07c-2.55.41-5.11.7-5.11.7l-3.85,6.91,2.44-.8-2.33,5.15,4.65-1.92s-1.06,3.53,0,4.85c.15-.12,1.65-1.17,1.65-1.17a11.74,11.74,0,0,1,1.29-2.37l3.37-3.43.7,1.77c3.49-1.74,9.91-10,10.1-11.41,0-1.41-2.52-3.63-2.52-6.91a3.91,3.91,0,0,1,.75-2.68c0,2.32,5.55,7.57,6.06,9-1.26.71-3.69,8-4,9a62.08,62.08,0,0,0-6.29,1.19,17.5,17.5,0,0,0-3.9,7.14l4.24-.86-.74,5,1.88-.39s1.77-3,4.71-3.11l2.62,4.34,1.77-2s.2-5.6,1.16-6.25l2.07.8C212.87,88,213.65,73,212.87,72.5c-.49-.29-.69.3-2.17-1.57-2.42-3.07-2-10-4.34-12.43,0,0,.25-.21,1.31-.21A6.09,6.09,0,0,0,212.82,52a8.83,8.83,0,0,0-4.89-8.12,5.31,5.31,0,0,0,.54-2.38c0-4.44-4.9-4.45-5-5.1,2.37-.5,4.85-3.24,5-5.25.56-5.69-5.82-8.91-8.52-6.2.85.75,2.92,1.61,2.92,3.73,0,3.64-4,5.5-4,5.5a7.82,7.82,0,0,0,.71-3.18,4.59,4.59,0,0,0-4.84-4.79,6.06,6.06,0,0,0-6,4.19c1.21,0,5-.41,5,1.86,0,2.88-4.85,4.6-4.85,9.34s4.15,8.22,8.84,8.53c1.24.09,1.46.17,2.37.17s1.48,1.09,3.43,1.09c2.42,0,3-1.11,3.78-1.11s.81.81.81,1.26.15,1.67-2.82,1.67c-3.19,0-8.89-1.61-14-1.61-4.05,0-4.6.07-4.82.36a6.9,6.9,0,0,0,.87-2.77c-.95-.48-1.76-3.15-2.26-3.15,4.34-3.94,3.71-7.39,3.75-8.18-.29-1-.93-1.15-2-1.15a2.92,2.92,0,0,0-1.66.45,22.44,22.44,0,0,0-.88-5c-1.41-2.12-8.29-3.55-10.95.5,0,0-1,2.45-1.4,3.21a3.18,3.18,0,0,0-3.33.24s.08,1.08.1,1.88-.15,1.71-.15,2.62,1.87,4.24,1.87,4.24c-1.06,1.56-4.69,3.28-4.69,3.28A14.74,14.74,0,0,1,168.25,52.28Z"/><path class="cls-3" d="M169.48,51.48c.46-.37,1.73-2.33,3-2.33-.11.71-1.93,2.23-2.54,3.45s.4,2.44.91,3.35c-.1-.81,1.83-2.13,2.44-2.84s1.11-.47.71.41c-.51,1.11-2.11,2.27-2.13,3.95a2.45,2.45,0,0,0,1.52,2s.3-2.94,1.52-2.13c.49.33-1.93,4.87,0,6.6.31-1.32,3.25-3.55,3.25-4.16s-1-2.64,0-2.64c.61,0,1.12,1.82,1.52,1.82s1.22-.4,1.22-1.11-1.83-3.76-.71-3.76c.52,0,1.72,2,2,2s.61-.2.91-1.82-1.42-2.24-.81-3.86a6.08,6.08,0,0,1,2.13,1.72c.51.92,1.52-1.62,1.62-2.43-.31-.37-.67-1.67-1.21-2.44s-1.22-.92-1.22-1.11c0-.41.61-.51,2.64-2.74A6.91,6.91,0,0,0,188,38.29c-1.21-1.12-2.23.51-3.24,0s-.51-3.66-.82-4.77c0,0-1.32,2.13-1.62,1.83s.1-1.22.41-2.24-1.42-1.52-1.42-1.52-.41,2.13-1.12,2-.51-2.13-.51-2.13a1.09,1.09,0,0,0-1.72.91c-.36,2-1.33.31-1.83-.61-.71.31-.41,2.64-.41,3.45s-1.42-.71-2.13-1c.2.71-.6,1.77-.6,2.58s-2.65-.45-3.26.16a12.85,12.85,0,0,0,.14,4.34c.65,1.87,1.71,2.7,1.71,3.81s-1.62,1.56-4.55,3.4C168.32,48.71,168.37,52.4,169.48,51.48Zm9.92-14.89c.53.73,1.79,1.65,2.71.86.4.13.53.26.07.79s-.47,1.86-1.39,1.79c-1.59-.14-.93-2.45-1.52-3Zm-1.65-.2.2.46c-.47.13-.53,2.65-1.72,2.65-1.46,0-.33-1.79-1.46-2.12A6.53,6.53,0,0,0,177.75,36.39ZM171.21,40c0-1.53,1.12-1.66,1.45-1.66.86,0,.79,2.58,1.19,3.18s1.52.33,1.72.72c-.33.53-1.46,1.19-1.46,2a1.08,1.08,0,0,0,1.06,1.06c.46,0,2.45-.54,2.45-1.72,0-.6-.46-.92-.66-1.33s-.17-.89-.34-1c.8-.06,1.59-.33,2.19-.33s.66.4.66.93-1.13.92-1.13,1.45,1.46,1.92,1.92,1.92,1.52-.4,1.52-1.13-.43-1.62,0-2c.27-.26.86.27.86.27.89-.89,1.46-2.71,3.24-2.91,1.78,3.11-1.92,4.3-1.92,4.3l-1.45-.6c.57,1.8-1,2.41-.93,3.11.14,2-.26,2.63-1,3.31-.46-.14-1.45-.2-1.52.19.93,1.66-1.85,3.44-1.52,4.17a25.37,25.37,0,0,1-1.65-2.65c-.33-.39.28-1-.07-1.91-.2-.53-1.39.06-1.52-.86s.17-2.86-.95-3.52C173.36,43.05,171.21,41.81,171.21,40Zm29.59,7c0,1.35.67,3.31,2.76,3.31,2.41,0,2.5-1.14,3.86-1.14s2,1.1,2,2.37-.66,2.76-3.94,2.76c-5.83,0-7.37-1.59-14.33-1.59-6.58,0-6,2.62-10.26,6.85s-7.56,7.35-7.56,7.35l.25.67c-2,2.12-3,12.51-4.05,16.14s-6.6,5.16-6.6,5.16l-1.26,7,2.7-2.37a8.88,8.88,0,0,1-.25-2c-.09-1.53,4.14-4.65,6.16-5.92-.33,1.94-5.06,5.75-5.06,5.75a11.65,11.65,0,0,1,.5,2.7,19.13,19.13,0,0,0,1.1,4.06l.26-.43a9.66,9.66,0,0,1,.47-2.21c.67-1.35,4.17-6.07,4.17-6.07l2.28.34c1.19-1.86-.42-3.63-.84-4.73.93-.93,1.44-.42,2.53.59.85-2,.09-2.2-.59-3.8s.59-1.27,2.37-.34c.67-1.1.5-2-.51-4.31s1.18-1.18,2.2-.42c.76-1.18.42-1.44-.51-3.8s.51-2,2.11-.85c1-2.7.17-2.19-.5-4s1-1.6,2.28-.51c1.18-1.09.19-1.49.19-4.28,0-2,2.38-5.92,6.52-7.44,1.44,1.44-1.9,1.67-1.9,3.27,0,.93.68-1,4-1s3.47,1.61,4.31,1.61.09-2.37.09-2.37c3.89,0,2.53,3.8,2.53,8.53s6.51,9.21,6.68,11.83c-2.35,1.41-3,7.37-5.11,10.63-1.18,1.31-2.63,1.45-4.1,2.05l-1.44,6c1.18-1.27,4.23-2.12,4.23-2.12-1.44-2.87.42-3.63,1.18-4.31s4-4.81,4-4.81l.51.51s-1.61,4.56-4.14,5.74c-.68,1.44,1.69,5.24,2.28,6.17a3.73,3.73,0,0,1,.55-.62s.26-5.1,1-6,1.19-.93,3-.25c.76-.77.34-2.79-.34-4.06.76-1.44,1.95,1.4,2.32.9,1.35-1.82-1.22-3.27-.37-5,0,0,1.42,1.34,1.77,1.1s.17-1.27-.17-2.2c-1.76-4.21.9-1.43,1.18-1.6.59-.37-.07-3.08-.84-3.76-.42,1.18-3,5.78-4.31,9-.23.57-1.52.76.25-4.73,2.12-6.53,4.48-5.49,5.5-5.15-.09-3-3.13-3.3-3.38-5.32-3-1.27-.51-11.66-6.76-14.2l7.86-.59c-1.53,1.52-4.48,1-4.48,1s0,.93,2.36.93,4.26-2.2,4.26-5.15c0-2.19-2.64-6.92-5.16-6.92-2.09,0-3,3.21-3.46,3-1.24-.63-.37-1.18.09-2,1.59-2.77,4.25-2.14,4.26-4.4,0-4.24-5.45-4.4-6.23-3.61s2.51,0,2.44,2.7c0,.5,1.58-1.39,1.58-1.25C205.21,41.37,200.8,42.86,200.8,47Zm-6-1.74c.61,1.1,5.6.79,5.6-3.86,0-2.44-2.06-3-2.06-3.64,0-1.69,9.12-2.37,9.12-6.76a7,7,0,0,0-.67-3.38s.17,3.46-.93,3.46c-1.69,0-.17-2-.17-3,0-3.72-4-2.87-4-2.87s2.36.08,2.36,3.8c0,4.73-6.92,7.61-7.43,7.1s1.86-2.11,1.86-4.73c0-1.27-.51-4-3.21-4-3.21,0-5.33,2.19-4.06,2s3.8.68,3.8,2.88c0,3.72-4.9,4.64-4.9,9.38,0,5.91,6,7.35,7.86,7.35a5.38,5.38,0,0,0,2.28-.26,3.68,3.68,0,0,1-.34-1.86,7.68,7.68,0,0,1-2.19.34c-4.57,0-5.07-3.46-5.07-4.65s1.19-3.49,3-3.29C199.57,39.73,197.23,44,194.77,45.29ZM190.36,84c.59-.76,1.53,1.85,1.53,1.85,2.36-2.11-.25-3.25.5-3.88,1-.85,2.71.5,2.71.5,1.26-1.09-.72-2.24-.17-3,1.1-1.44,1.43-.09,2.2-.42s1.6-1,.76-2.12-3.55-5.91-1.19-9.46a3,3,0,0,0-1.86,1.78c-.33,1.26.93,7.68.93,8.61l-6.93,5.92s-.5-.51.43-1.69a65.16,65.16,0,0,1,5.32-4.82c-1.1-1.44.51-5.07-1.69-6.42-.59-.25-2.25-.75-.84-1.77.92-.68,2.45-.34,2.45-3.38a3.14,3.14,0,0,0-2.79-3.3c.34-.93,2.78-.67,3.46-1.6-1.27-.6-1.27-.68-2.2-.68s-3.63,1.35-3.63,5.49,3.08,9.51,2.54,10.06-3.72,2.61-4.4,4.22-4.4,4-4.4,4l-3.54,5.81,2.37-1.35s.87-2.83,2.26-3.67c2-1.18,3.8-3.29,4.1-3s-1.55,2.84-3.49,3.85c-.59,1.18-2,5.49-1.86,6.42,0,0,4.22-5.07,5.41-5.57s1.6,1,1.6,1C191.55,86.29,189.77,84.77,190.36,84Zm-8.05-1.42c.76-.67,2.39-1,3.32-1.88l-3.92,1-2.36,3.65,1.87-.79A4.56,4.56,0,0,1,182.31,82.59Zm-19.63,5.3a20.84,20.84,0,0,0,4-1.48c-1.88.19-5,.19-5,.19L159,92.34l2.7-1.52S161.67,88.22,162.68,87.89Zm-4-36.16c0,2.06,2.62,3,2.79,4s-2.07-.64-2-.34c.38,2.83,2.72,3.12,3.55,4.65.51.93-2.16-.36-2.11-.08.57,3.3,4,2,4.64,4.22.35,1.21-2.16-.69-2.23.38-.06.7,1.31,4.44,2.06,4.61s3.22-.77,4.32-1.19,3.21-.84,3.46-1.86C172,64.23,168.82,59.93,168.4,56c-2.45-2.62-4.9-6.43-4.9-9.55a18.22,18.22,0,0,1,.93-5.66L161,34.24l-.67,3s3.21,3,3.12,4a40,40,0,0,1-.93,4.14c-.59.85-.42-4-.42-4l-3.72-4.73a26.84,26.84,0,0,0,0,4.08c.4,1.82,2.08,2.68,2.08,3.77a5.56,5.56,0,0,1-2.2,3.38c-.17,1.35,2.45,2.71,2.53,3.89C160.12,52.49,158.69,51.2,158.68,51.73Zm6.14-7.92c.53-.92,2.56-1.32,2.5-2.17s-2.43-6.18-2.5-7.49l-1.51,2.76s2.23,3.15,2.23,4.21S164.69,42.43,164.82,43.81Zm34.44,43.65c-2.42.45-5.65,1.18-5.65,1.18l-2.75,4.56,3.28-.7c.3-1.56.47-2.44,1.18-3.07C196.68,88.22,198.83,88.15,199.26,87.46Z"/><path d="M26.44,150.46c-.1,1.67-1.13.21-1.13.21a9.43,9.43,0,0,1-2.6-6.17c.75-.45,1.11-2.07,1.41-2.22s2.42-1.16,2.42-2.22-3-7.62-3-10.09L21,133.5l-2-3.43-1.56,4.09-1.62-1.92s-.78,5.92-.5,7c.77,2.89,2.07,2.55,2.07,3.56,0,1.56-2.74,2.72-2.74,2.72.31.83,1.87,8.33,3,12,1.3,4.14,2.21,4.5,3.07,6.26.7,1.44,1,4.65,2.72,4.65s6.41-1.72,6.41-1.72c-1.56,1.51-2.27,16.81-4.79,16.81-1.71,0-6.06.12-6.06.12a34.54,34.54,0,0,0-3.43,9l3.74-2.17-1.12,5.91L22.81,193l1.86,5.8L26.34,196s-.41-1.29,1-3.12c1.21-1.62,3.08-4.29,3.08-4.29l2.32.6a5.24,5.24,0,0,0,.91-3.53l.66-.17.72-1.58,1-2.82c.36-.87,4.3-11.08,5.49-14.16a8.13,8.13,0,0,0,.72-3.32,9.85,9.85,0,0,1-.24-2.13,7.16,7.16,0,0,1,2.39-4.25v.08a1.23,1.23,0,0,0,1.2,1.37,1.61,1.61,0,0,0,1-.39,4.57,4.57,0,0,1,2.91-.87,5.34,5.34,0,0,1,.58,0c-1.64.63-3.64,2.62-3.64,6.38,0,2.64,1.1,5.59,1.9,7.74.23.62.51,1.36.63,1.79l-.41.32c-1.66,1.28-3.33,2.64-3.9,4l0,.08c-2.54.4-5.11.7-5.11.7l-3.84,6.9,2.43-.79-2.32,5.15,4.64-1.92s-1.06,3.53,0,4.84l1.66-1.16a11.32,11.32,0,0,1,1.28-2.37l3.37-3.43.71,1.76c3.49-1.73,9.91-9.95,10.09-11.4,0-1.42-2.52-3.64-2.52-6.92a3.86,3.86,0,0,1,.76-2.67c0,2.32,5.55,7.57,6,9-1.26.71-3.68,8-4,9a62.08,62.08,0,0,0-6.29,1.19,17.55,17.55,0,0,0-3.9,7.13l4.24-.85-.73,5,1.87-.39s1.78-3,4.71-3.11l2.63,4.34,1.77-2s.2-5.6,1.16-6.26l2.06.81c5.71-4.17,6.5-19.18,5.71-19.65-.49-.29-.68.3-2.16-1.58-2.42-3.06-2.05-10-4.34-12.42,0,0,.24-.21,1.3-.21A6.09,6.09,0,0,0,71,150.21a8.83,8.83,0,0,0-4.89-8.12,5.29,5.29,0,0,0,.55-2.38c0-4.44-4.91-4.45-5-5.1,2.37-.5,4.85-3.24,5-5.25.55-5.7-5.83-8.91-8.53-6.21.86.76,2.93,1.62,2.93,3.74,0,3.63-4,5.5-4,5.5a7.91,7.91,0,0,0,.7-3.18A4.58,4.58,0,0,0,53,124.42a6.07,6.07,0,0,0-6,4.19c1.21,0,5-.41,5,1.86,0,2.88-4.84,4.6-4.84,9.34S51.33,148,56,148.34c1.25.08,1.46.16,2.37.16s1.48,1.1,3.43,1.1c2.42,0,3-1.11,3.79-1.11s.8.81.8,1.26.16,1.67-2.82,1.67c-3.18,0-8.89-1.62-14-1.62-4.05,0-4.6.08-4.82.37a6.9,6.9,0,0,0,.87-2.77c-1-.49-1.76-3.15-2.26-3.15,4.35-3.94,3.71-7.4,3.75-8.18-.29-1-.92-1.16-2-1.16a2.94,2.94,0,0,0-1.67.46,22.35,22.35,0,0,0-.88-5c-1.41-2.12-8.28-3.55-10.95.49,0,0-1,2.46-1.39,3.22a3.19,3.19,0,0,0-3.34.24s.08,1.08.11,1.87-.16,1.72-.16,2.63S28.71,143,28.71,143c-1.06,1.56-4.69,3.28-4.69,3.28A14.74,14.74,0,0,1,26.44,150.46Z"/><path class="cls-3" d="M27.67,149.66c.46-.37,1.73-2.33,2.95-2.33-.1.71-1.93,2.23-2.54,3.45s.41,2.43.91,3.35c-.1-.81,1.83-2.13,2.44-2.84s1.11-.47.71.4c-.51,1.12-2.1,2.28-2.13,4,0,.9.67,1.53,1.52,2,0,0,.3-2.94,1.52-2.13.5.33-1.93,4.87,0,6.6.31-1.32,3.25-3.56,3.25-4.17s-1-2.63,0-2.63c.61,0,1.12,1.82,1.52,1.82s1.22-.4,1.22-1.11-1.82-3.76-.71-3.76c.52,0,1.73,2,2,2s.61-.2.91-1.83-1.42-2.23-.81-3.85a6,6,0,0,1,2.13,1.72c.51.92,1.53-1.62,1.63-2.43-.32-.37-.67-1.67-1.22-2.44s-1.22-.92-1.22-1.12c0-.4.61-.5,2.64-2.74a7,7,0,0,0,1.73-5.17c-1.22-1.12-2.24.5-3.25,0s-.51-3.66-.81-4.78c0,0-1.32,2.14-1.63,1.83s.1-1.22.41-2.23-1.42-1.52-1.42-1.52-.41,2.13-1.12,2-.51-2.13-.51-2.13a1.09,1.09,0,0,0-1.72.91c-.36,2-1.32.3-1.83-.61-.71.3-.41,2.64-.41,3.45s-1.42-.71-2.13-1c.21.71-.6,1.76-.6,2.58s-2.64-.45-3.25.16a12.52,12.52,0,0,0,.13,4.34c.65,1.87,1.71,2.7,1.71,3.81s-1.62,1.55-4.55,3.4C26.51,146.89,26.56,150.58,27.67,149.66Zm9.92-14.89c.53.72,1.79,1.65,2.71.86.4.13.53.26.07.79s-.47,1.86-1.39,1.78c-1.59-.13-.92-2.44-1.52-3Zm-1.65-.2.2.46c-.46.13-.53,2.64-1.72,2.64-1.45,0-.33-1.78-1.45-2.11A6.5,6.5,0,0,0,35.94,134.57ZM29.4,138.2c0-1.52,1.12-1.65,1.45-1.65.86,0,.79,2.58,1.19,3.17s1.52.34,1.72.73c-.33.53-1.45,1.19-1.45,2a1.06,1.06,0,0,0,1,1.06c.47,0,2.45-.53,2.45-1.72,0-.59-.45-.91-.66-1.32s-.17-.89-.33-1c.79-.07,1.58-.33,2.18-.33s.66.4.66.92-1.12.93-1.12,1.46,1.45,1.92,1.91,1.92S40,143,40,142.3s-.43-1.62,0-2.05c.27-.26.86.27.86.27.9-.9,1.46-2.71,3.24-2.91,1.79,3.11-1.92,4.3-1.92,4.3l-1.45-.6c.57,1.8-1,2.41-.92,3.11.14,2-.27,2.63-1,3.3-.46-.13-1.45-.2-1.52.2.93,1.65-1.85,3.44-1.52,4.17a27.16,27.16,0,0,1-1.65-2.65c-.33-.39.29-1-.06-1.92-.2-.52-1.39.07-1.53-.85s.18-2.86-.95-3.53C31.55,141.23,29.4,140,29.4,138.2Zm29.59,7c0,1.36.67,3.32,2.76,3.32,2.41,0,2.51-1.14,3.86-1.14s2,1.1,2,2.37-.66,2.76-3.94,2.76c-5.83,0-7.37-1.59-14.32-1.59-6.59,0-6,2.62-10.27,6.84s-7.56,7.36-7.56,7.36l.25.67c-2,2.12-3,12.51-4,16.14s-6.59,5.15-6.59,5.15l-1.27,7,2.7-2.37a10,10,0,0,1-.25-2c-.08-1.52,4.14-4.64,6.17-5.91-.34,1.94-5.07,5.74-5.07,5.74a12.13,12.13,0,0,1,.51,2.71,18.73,18.73,0,0,0,1.09,4l.26-.42a9.55,9.55,0,0,1,.47-2.21c.67-1.36,4.17-6.07,4.17-6.07l2.29.34c1.18-1.86-.43-3.63-.85-4.73.93-.93,1.44-.43,2.54.59.84-2,.08-2.2-.6-3.8s.6-1.27,2.37-.34c.68-1.1.51-2-.51-4.31s1.19-1.18,2.2-.42c.76-1.18.42-1.44-.51-3.8s.51-2,2.12-.85c1-2.7.17-2.2-.51-4s1-1.61,2.28-.51c1.18-1.1.19-1.49.19-4.28,0-2,2.39-5.92,6.53-7.44,1.43,1.43-1.9,1.67-1.9,3.27,0,.93.67-1,4-1s3.46,1.6,4.31,1.6.08-2.36.08-2.36c3.89,0,2.54,3.8,2.54,8.53s6.5,9.21,6.67,11.83c-2.35,1.41-3,7.37-5.11,10.63-1.18,1.31-2.62,1.44-4.1,2l-1.44,6c1.19-1.26,4.23-2.11,4.23-2.11-1.44-2.87.42-3.63,1.18-4.31s4-4.81,4-4.81l.51.5s-1.61,4.57-4.14,5.75c-.68,1.44,1.69,5.24,2.28,6.17a4.06,4.06,0,0,1,.55-.63s.26-5.09,1.06-6,1.18-.93,3-.26c.76-.76.34-2.78-.33-4.05.76-1.44,1.94,1.4,2.32.89,1.35-1.81-1.23-3.26-.38-5,0,0,1.42,1.33,1.77,1.09s.17-1.26-.17-2.19c-1.76-4.22.9-1.43,1.19-1.61.58-.36-.08-3.07-.84-3.75-.43,1.18-3,5.78-4.32,9-.23.56-1.52.76.26-4.73C66.64,172,69,173.06,70,173.4c-.09-3.05-3.13-3.3-3.38-5.33-3-1.26-.51-11.66-6.76-14.19l7.86-.59c-1.52,1.52-4.48,1-4.48,1s0,.93,2.37.93,4.25-2.2,4.25-5.16c0-2.18-2.64-6.91-5.16-6.91-2.09,0-3,3.2-3.45,3-1.25-.63-.38-1.18.08-2,1.6-2.76,4.25-2.13,4.26-4.39,0-4.24-5.44-4.4-6.23-3.61s2.51,0,2.45,2.69c0,.5,1.57-1.39,1.57-1.24C63.4,139.55,59,141,59,145.2Zm-6-1.73c.61,1.1,5.6.79,5.6-3.86,0-2.45-2.06-3-2.06-3.64,0-1.69,9.13-2.37,9.13-6.76a6.86,6.86,0,0,0-.68-3.38s.17,3.46-.93,3.46c-1.69,0-.17-2-.17-3,0-3.72-4-2.87-4-2.87s2.37.08,2.37,3.8c0,4.73-6.93,7.6-7.44,7.1s1.86-2.12,1.86-4.73c0-1.27-.51-4-3.21-4-3.21,0-5.33,2.2-4.06,2s3.8.68,3.8,2.87c0,3.72-4.9,4.65-4.9,9.38,0,5.92,6,7.35,7.86,7.35a5.57,5.57,0,0,0,2.28-.25,3.68,3.68,0,0,1-.34-1.86,7.68,7.68,0,0,1-2.19.34c-4.56,0-5.07-3.46-5.07-4.65s1.19-3.49,3-3.29C57.76,137.91,55.43,142.17,53,143.47Zm-4.4,38.71c.59-.76,1.52,1.86,1.52,1.86,2.36-2.11-.25-3.25.51-3.88,1-.85,2.7.5,2.7.5,1.27-1.1-.72-2.24-.17-2.95,1.1-1.44,1.44-.09,2.2-.43s1.6-1,.76-2.11-3.55-5.91-1.19-9.46A3,3,0,0,0,53,167.48c-.34,1.27.93,7.69.93,8.62L47,182s-.51-.5.42-1.68a65.16,65.16,0,0,1,5.32-4.82c-1.1-1.44.51-5.07-1.69-6.42-.59-.26-2.24-.76-.84-1.78.93-.67,2.45-.33,2.45-3.38a3.13,3.13,0,0,0-2.79-3.29c.34-.93,2.79-.68,3.46-1.61-1.26-.59-1.26-.67-2.19-.67s-3.64,1.35-3.64,5.49,3.09,9.5,2.54,10.05-3.72,2.62-4.4,4.23-4.39,4-4.39,4l-3.55,5.81,2.37-1.35s.87-2.83,2.26-3.67c2-1.18,3.8-3.29,4.11-3s-1.56,2.83-3.5,3.85c-.59,1.18-2,5.49-1.86,6.42,0,0,4.23-5.07,5.41-5.58s1.6,1,1.6,1C49.74,184.46,48,182.94,48.56,182.18Zm-8.06-1.41c.76-.67,2.4-1,3.33-1.88l-3.92,1-2.37,3.65,1.87-.79A4.56,4.56,0,0,1,40.5,180.77Zm-19.62,5.29a20.86,20.86,0,0,0,4-1.48c-1.87.2-5,.2-5,.2l-2.74,5.74L19.89,189S19.86,186.4,20.88,186.06Zm-4-36.15c0,2.06,2.62,3,2.79,4s-2.07-.64-2-.34c.38,2.83,2.72,3.12,3.55,4.65.51.93-2.16-.36-2.11-.09.57,3.31,4,2.06,4.65,4.23.34,1.21-2.16-.69-2.24.37-.05.71,1.31,4.44,2.07,4.61s3.21-.76,4.31-1.18,3.21-.84,3.46-1.86c-1.18-1.86-4.31-6.17-4.73-10.14-2.45-2.62-4.9-6.42-4.9-9.55a18.3,18.3,0,0,1,.93-5.66l-3.46-6.5-.68,3s3.21,3,3.12,4.06a41.21,41.21,0,0,1-.92,4.14c-.6.85-.43-4.06-.43-4.06l-3.71-4.73a26.66,26.66,0,0,0,0,4.09c.4,1.82,2.08,2.67,2.08,3.77a5.56,5.56,0,0,1-2.2,3.38c-.17,1.35,2.45,2.71,2.54,3.89C18.31,150.67,16.89,149.37,16.87,149.91ZM23,142c.53-.92,2.57-1.32,2.5-2.17s-2.43-6.18-2.5-7.5l-1.51,2.76s2.24,3.16,2.24,4.21S22.88,140.61,23,142Zm34.45,43.65c-2.42.44-5.65,1.18-5.65,1.18l-2.76,4.55,3.28-.69c.3-1.56.48-2.44,1.18-3.07C54.88,186.39,57,186.33,57.46,185.64Z"/><path d="M25.42,52.1c-.1,1.67-1.12.21-1.12.21a9.37,9.37,0,0,1-2.6-6.14c.75-.45,1.11-2.06,1.41-2.21s2.41-1.16,2.41-2.21-3-7.6-3-10.06L20,35.21l-2-3.42-1.56,4.07L14.91,34s-.78,5.9-.5,7c.77,2.89,2.06,2.54,2.06,3.55,0,1.56-2.73,2.71-2.73,2.71.31.83,1.86,8.31,3,11.92,1.29,4.13,2.2,4.48,3.06,6.24.7,1.44,1,4.63,2.71,4.63s6.39-1.71,6.39-1.71C27.33,69.76,26.63,85,24.11,85c-1.7,0-6,.13-6,.13a34.18,34.18,0,0,0-3.42,9l3.72-2.17-1.11,5.89,4.53-3.37,1.86,5.78,1.66-2.71s-.41-1.3,1-3.12c1.2-1.61,3.06-4.28,3.06-4.28l2.32.61a5.22,5.22,0,0,0,.9-3.52l.66-.17.72-1.57,1-2.81c.36-.87,4.29-11,5.47-14.12a8,8,0,0,0,.73-3.3,9.12,9.12,0,0,1-.25-2.12,7.15,7.15,0,0,1,2.39-4.24.25.25,0,0,0,0,.08,1.24,1.24,0,0,0,1.21,1.37,1.61,1.61,0,0,0,1-.39,4.52,4.52,0,0,1,2.9-.87,5.53,5.53,0,0,1,.59,0c-1.64.63-3.64,2.61-3.64,6.35,0,2.64,1.1,5.58,1.9,7.72.23.62.51,1.35.63,1.79l-.41.31c-1.65,1.27-3.31,2.63-3.88,4l0,.08c-2.53.4-5.08.7-5.08.7l-3.84,6.87L37,86.1l-2.32,5.13,4.63-1.91s-1.06,3.52,0,4.83C39.5,94,41,93,41,93a11.29,11.29,0,0,1,1.28-2.35l3.36-3.42.7,1.76c3.48-1.73,9.88-9.92,10.06-11.37,0-1.41-2.52-3.62-2.52-6.89a3.82,3.82,0,0,1,.76-2.66c0,2.31,5.53,7.54,6,9-1.25.7-3.67,7.94-4,9a61.54,61.54,0,0,0-6.27,1.19,17.52,17.52,0,0,0-3.89,7.11l4.23-.86-.73,5L51.9,98s1.77-3,4.7-3.1l2.62,4.33,1.76-2s.2-5.58,1.15-6.23l2.06.8c5.69-4.15,6.47-19.11,5.69-19.58-.49-.29-.68.3-2.16-1.57-2.41-3.05-2-10-4.32-12.38,0,0,.24-.21,1.3-.21a6.07,6.07,0,0,0,5.13-6.24A8.79,8.79,0,0,0,65,43.76a5.29,5.29,0,0,0,.54-2.37c0-4.42-4.89-4.43-5-5.08,2.37-.5,4.84-3.22,5-5.23.55-5.67-5.8-8.88-8.5-6.18.86.75,2.92,1.61,2.92,3.72,0,3.62-4,5.48-4,5.48a7.9,7.9,0,0,0,.7-3.17,4.57,4.57,0,0,0-4.83-4.78,6,6,0,0,0-5.93,4.18c1.21,0,5-.4,5,1.86,0,2.87-4.83,4.58-4.83,9.3s4.13,8.19,8.8,8.5c1.24.08,1.46.16,2.36.16s1.48,1.1,3.42,1.1c2.42,0,3-1.11,3.78-1.11s.8.81.8,1.26.15,1.66-2.82,1.66c-3.16,0-8.85-1.61-14-1.61-4,0-4.57.07-4.8.37a6.9,6.9,0,0,0,.87-2.76c-1-.49-1.75-3.14-2.25-3.14C46.6,42,46,38.55,46,37.77c-.3-1-.93-1.16-2-1.16a2.88,2.88,0,0,0-1.66.46,22.23,22.23,0,0,0-.88-5c-1.4-2.11-8.25-3.54-10.91.49,0,0-1,2.45-1.39,3.2a3.19,3.19,0,0,0-3.32.24s.08,1.08.1,1.87-.15,1.71-.15,2.62,1.86,4.22,1.86,4.22C26.63,46.27,23,48,23,48A14.47,14.47,0,0,1,25.42,52.1Z"/><path class="cls-2" d="M26.65,51.31c.46-.37,1.72-2.33,2.93-2.33-.1.71-1.92,2.23-2.53,3.44s.41,2.43.91,3.34c-.1-.81,1.82-2.12,2.43-2.83s1.11-.47.71.4c-.51,1.11-2.1,2.27-2.13,4a2.48,2.48,0,0,0,1.52,2s.3-2.93,1.52-2.12c.49.32-1.92,4.85,0,6.57.3-1.31,3.23-3.54,3.23-4.15s-1-2.63,0-2.63c.61,0,1.12,1.82,1.52,1.82S38,58.39,38,57.68s-1.83-3.74-.71-3.74c.51,0,1.72,2,2,2s.61-.2.91-1.82-1.41-2.22-.81-3.84A6.08,6.08,0,0,1,41.52,52c.5.91,1.51-1.62,1.61-2.43-.31-.37-.67-1.66-1.21-2.43s-1.21-.91-1.21-1.11c0-.4.6-.5,2.63-2.73a6.94,6.94,0,0,0,1.72-5.16c-1.22-1.11-2.23.51-3.24,0s-.51-3.64-.81-4.75c0,0-1.31,2.12-1.62,1.82s.1-1.22.41-2.23-1.42-1.51-1.42-1.51-.4,2.12-1.11,2-.51-2.13-.51-2.13a1.1,1.1,0,0,0-1.72.91c-.36,2-1.31.31-1.82-.6-.71.3-.4,2.63-.4,3.44s-1.42-.71-2.13-1c.21.7-.6,1.76-.6,2.57s-2.63-.45-3.24.16A12.67,12.67,0,0,0,27,41.17c.66,1.87,1.71,2.69,1.71,3.8s-1.62,1.55-4.54,3.39C25.49,48.55,25.54,52.22,26.65,51.31Zm9.88-14.84c.53.72,1.78,1.64,2.7.85.4.14.53.27.07.79s-.47,1.86-1.38,1.78c-1.59-.13-.93-2.43-1.52-3Zm-1.65-.2.2.46c-.46.13-.52,2.64-1.71,2.64-1.45,0-.33-1.78-1.45-2.11A6.44,6.44,0,0,0,34.88,36.27Zm-6.51,3.62a1.43,1.43,0,0,1,1.44-1.64c.86,0,.79,2.56,1.19,3.16s1.51.33,1.71.72c-.33.53-1.45,1.19-1.45,2a1.07,1.07,0,0,0,1.06,1c.46,0,2.44-.53,2.44-1.71,0-.59-.46-.91-.66-1.32s-.17-.89-.33-1c.79-.06,1.58-.33,2.17-.33s.66.4.66.93-1.12.92-1.12,1.45,1.45,1.91,1.91,1.91S38.9,44.7,38.9,44s-.42-1.62,0-2c.27-.26.86.27.86.27.89-.89,1.45-2.7,3.23-2.9,1.78,3.1-1.91,4.28-1.91,4.28L39.63,43c.56,1.79-1,2.4-.92,3.09.14,2-.27,2.63-1,3.3-.46-.13-1.45-.2-1.52.2.93,1.64-1.84,3.42-1.51,4.15A25.2,25.2,0,0,1,33,51.09c-.33-.39.29-1-.06-1.91-.2-.53-1.39.07-1.52-.86s.17-2.85-.95-3.51C30.51,42.9,28.37,41.67,28.37,39.89Zm29.48,7c0,1.35.67,3.3,2.75,3.3C63,50.17,63.1,49,64.45,49s2,1.1,2,2.36-.65,2.75-3.93,2.75c-5.81,0-7.33-1.58-14.26-1.58-6.57,0-6,2.61-10.23,6.82s-7.54,7.33-7.54,7.33l.25.67c-2,2.11-3,12.46-4,16.08S20.1,88.6,20.1,88.6l-1.27,7,2.7-2.36a9,9,0,0,1-.25-2c-.09-1.52,4.12-4.63,6.14-5.9C27.08,87.25,22.37,91,22.37,91a12,12,0,0,1,.51,2.69,18.58,18.58,0,0,0,1.09,4l.26-.42a9.33,9.33,0,0,1,.46-2.2c.67-1.35,4.16-6.05,4.16-6.05l2.27.34c1.18-1.85-.42-3.62-.84-4.71.93-.93,1.44-.43,2.53.58.84-2,.08-2.18-.59-3.78s.59-1.27,2.36-.34c.67-1.09.5-2-.51-4.3s1.18-1.17,2.19-.42c.76-1.17.42-1.43-.5-3.78s.5-2,2.1-.85c1-2.69.17-2.19-.5-4s1-1.6,2.27-.51c1.18-1.09.19-1.49.19-4.26,0-2,2.37-5.91,6.5-7.42,1.43,1.43-1.89,1.66-1.89,3.26,0,.93.67-1,4-1s3.46,1.6,4.3,1.6.08-2.35.08-2.35c3.87,0,2.53,3.78,2.53,8.5s6.48,9.18,6.65,11.78c-2.34,1.41-3,7.35-5.09,10.59-1.18,1.31-2.62,1.44-4.09,2l-1.43,6C52.51,94.83,55.54,94,55.54,94c-1.43-2.86.42-3.61,1.18-4.29s4-4.8,4-4.8l.5.51s-1.6,4.54-4.12,5.72c-.68,1.43,1.68,5.22,2.27,6.15a3.94,3.94,0,0,1,.54-.62s.26-5.08,1.06-6,1.18-.92,2.94-.25c.76-.76.34-2.78-.33-4,.76-1.43,1.93,1.4,2.31.89,1.34-1.81-1.22-3.25-.38-5,0,0,1.42,1.33,1.77,1.1s.17-1.26-.17-2.19c-1.75-4.2.9-1.42,1.18-1.6.59-.36-.08-3.07-.83-3.74-.43,1.18-3,5.76-4.3,9-.24.56-1.52.76.25-4.72,2.1-6.51,4.46-5.47,5.47-5.13-.08-3-3.11-3.28-3.37-5.31-3-1.26-.5-11.61-6.73-14.14l7.83-.59c-1.52,1.52-4.46,1-4.46,1s0,.93,2.35.93,4.24-2.19,4.24-5.14c0-2.17-2.62-6.89-5.14-6.89-2.08,0-3,3.19-3.44,3-1.24-.62-.37-1.18.08-2,1.59-2.75,4.24-2.13,4.25-4.37,0-4.23-5.43-4.39-6.21-3.61s2.5,0,2.44,2.69c0,.5,1.57-1.38,1.57-1.24C62.25,41.23,57.85,42.71,57.85,46.87Zm-6-1.73c.61,1.09,5.58.79,5.58-3.85,0-2.43-2.05-2.95-2.05-3.63,0-1.68,9.09-2.35,9.09-6.73a6.88,6.88,0,0,0-.67-3.37S64,31,62.86,31c-1.68,0-.16-2-.16-3,0-3.7-4-2.86-4-2.86s2.36.08,2.36,3.79c0,4.71-6.91,7.57-7.41,7.07s1.85-2.11,1.85-4.72c0-1.26-.5-4-3.2-4-3.2,0-5.3,2.19-4,2s3.79.67,3.79,2.86c0,3.71-4.89,4.63-4.89,9.35,0,5.89,6,7.32,7.84,7.32a5.53,5.53,0,0,0,2.27-.25A3.65,3.65,0,0,1,57,46.76a7.89,7.89,0,0,1-2.19.33c-4.54,0-5.05-3.45-5.05-4.63s1.19-3.48,3-3.28C56.63,39.59,54.3,43.84,51.84,45.14ZM47.46,83.72C48.05,83,49,85.57,49,85.57c2.36-2.11-.25-3.25.51-3.88,1-.84,2.69.51,2.69.51,1.27-1.1-.71-2.24-.17-3,1.1-1.43,1.44-.08,2.19-.42s1.6-1,.76-2.1-3.54-5.9-1.18-9.43a3,3,0,0,0-1.85,1.77c-.34,1.26.93,7.66.93,8.58l-6.91,5.9s-.5-.51.42-1.69a66.26,66.26,0,0,1,5.31-4.8c-1.1-1.43.5-5-1.69-6.39-.59-.26-2.24-.76-.84-1.77.93-.68,2.44-.34,2.44-3.37a3.12,3.12,0,0,0-2.78-3.28c.34-.93,2.78-.68,3.46-1.6C51,60.06,51,60,50.07,60s-3.62,1.35-3.62,5.47,3.07,9.48,2.52,10-3.7,2.61-4.37,4.21-4.39,4-4.39,4l-3.53,5.79L39,88.09s.87-2.82,2.25-3.65c2-1.18,3.79-3.28,4.09-3s-1.54,2.82-3.48,3.83c-.59,1.18-2,5.48-1.85,6.4,0,0,4.21-5,5.39-5.55s1.6,1,1.6,1C48.64,86,46.87,84.47,47.46,83.72Zm-8-1.41c.75-.68,2.39-1,3.31-1.88l-3.9,1L36.48,85l1.87-.79A4.42,4.42,0,0,1,39.43,82.31ZM19.88,87.58a20.79,20.79,0,0,0,4-1.47c-1.86.19-5,.19-5,.19L16.2,92l2.69-1.51S18.87,87.92,19.88,87.58Zm-4-36c-.05,2,2.61,2.94,2.78,3.95s-2.07-.64-2-.34c.38,2.82,2.71,3.11,3.54,4.64.51.92-2.15-.37-2.1-.09.57,3.3,4,2.05,4.63,4.21.34,1.2-2.16-.68-2.23.38-.06.7,1.3,4.42,2.06,4.59s3.2-.76,4.29-1.18,3.2-.84,3.45-1.85C29.1,64,26,59.72,25.57,55.76c-2.44-2.61-4.88-6.39-4.88-9.51a18.34,18.34,0,0,1,.92-5.64l-3.45-6.48-.67,2.94s3.19,3,3.11,4a40.52,40.52,0,0,1-.92,4.12c-.59.84-.43-4-.43-4l-3.7-4.72a26.71,26.71,0,0,0,0,4.07c.39,1.82,2.06,2.67,2.06,3.76a5.56,5.56,0,0,1-2.18,3.37C15.3,49,17.91,50.38,18,51.56,17.32,52.31,15.9,51,15.89,51.56ZM22,43.66c.53-.91,2.56-1.31,2.49-2.16S22.07,35.34,22,34l-1.5,2.76s2.22,3.14,2.22,4.19S21.87,42.29,22,43.66ZM56.33,87.15c-2.42.45-5.64,1.18-5.64,1.18L48,92.87l3.27-.69c.3-1.56.47-2.43,1.18-3.06C53.75,87.91,55.89,87.84,56.33,87.15Z"/><path d="M167.77,150.65c-.11,1.67-1.13.2-1.13.2a9.37,9.37,0,0,1-2.6-6.14c.75-.45,1.11-2.06,1.41-2.21s2.41-1.16,2.41-2.21-3-7.59-3-10.06l-2.51,3.52-2-3.42-1.56,4.08-1.61-1.92s-.78,5.9-.5,7c.77,2.88,2.06,2.54,2.06,3.54,0,1.56-2.73,2.71-2.73,2.71.31.83,1.86,8.31,3,11.92,1.29,4.13,2.21,4.49,3.06,6.25.7,1.43,1,4.62,2.72,4.62s6.38-1.71,6.38-1.71c-1.56,1.51-2.26,16.75-4.77,16.75-1.71,0-6,.13-6,.13a34,34,0,0,0-3.42,9l3.72-2.16-1.1,5.88,4.52-3.37,1.86,5.79,1.66-2.72s-.41-1.29,1-3.12c1.2-1.61,3.06-4.27,3.06-4.27l2.32.6a5.22,5.22,0,0,0,.9-3.52l.67-.16.71-1.58,1-2.81c.37-.87,4.29-11,5.47-14.11a8.08,8.08,0,0,0,.73-3.31,9.22,9.22,0,0,1-.24-2.12,7.07,7.07,0,0,1,2.38-4.23.19.19,0,0,0,0,.08,1.23,1.23,0,0,0,1.21,1.36,1.64,1.64,0,0,0,1-.38,4.47,4.47,0,0,1,2.89-.88l.59,0c-1.64.63-3.63,2.62-3.63,6.36,0,2.63,1.09,5.57,1.9,7.72.22.62.5,1.35.62,1.78l-.4.31c-1.66,1.28-3.32,2.63-3.89,4l0,.07c-2.54.4-5.09.7-5.09.7L177,185.44l2.42-.79-2.31,5.12,4.62-1.91s-1.06,3.52,0,4.83l1.65-1.16a11.81,11.81,0,0,1,1.28-2.36l3.36-3.42.7,1.76c3.48-1.73,9.88-9.92,10.06-11.36,0-1.41-2.51-3.63-2.51-6.9a3.85,3.85,0,0,1,.75-2.66c0,2.31,5.53,7.54,6,9-1.25.71-3.67,7.95-4,8.95-1,0-6.27,1.19-6.27,1.19a17.52,17.52,0,0,0-3.89,7.11l4.23-.85-.73,4.94,1.87-.39s1.77-2.95,4.69-3.09l2.62,4.32,1.76-2s.2-5.58,1.15-6.24l2.07.81c5.69-4.16,6.46-19.12,5.69-19.58-.5-.3-.69.29-2.16-1.57-2.42-3.06-2-9.95-4.33-12.38,0,0,.24-.22,1.3-.22a6.06,6.06,0,0,0,5.13-6.23,8.79,8.79,0,0,0-4.87-8.09,5.29,5.29,0,0,0,.54-2.37c0-4.43-4.89-4.44-5-5.08,2.37-.51,4.84-3.23,5-5.23.56-5.68-5.8-8.88-8.5-6.19.86.76,2.92,1.61,2.92,3.72,0,3.62-4,5.48-4,5.48a7.82,7.82,0,0,0,.7-3.16,4.57,4.57,0,0,0-4.83-4.78,6,6,0,0,0-5.93,4.17c1.21,0,5-.4,5,1.86,0,2.87-4.83,4.58-4.83,9.31s4.14,8.18,8.8,8.5c1.25.08,1.46.16,2.36.16s1.48,1.09,3.43,1.09c2.41,0,3-1.1,3.77-1.1s.8.8.8,1.25.15,1.66-2.81,1.66c-3.17,0-8.86-1.6-14-1.6-4,0-4.58.07-4.81.36a6.84,6.84,0,0,0,.87-2.76c-1-.48-1.75-3.14-2.25-3.14,4.33-3.92,3.7-7.37,3.74-8.15-.29-1-.92-1.15-2-1.15a2.92,2.92,0,0,0-1.66.45,21.66,21.66,0,0,0-.88-5c-1.4-2.11-8.25-3.53-10.9.49,0,0-1,2.45-1.39,3.2a3.21,3.21,0,0,0-3.33.24s.08,1.08.11,1.88-.16,1.71-.16,2.61,1.86,4.23,1.86,4.23c-1.05,1.55-4.67,3.26-4.67,3.26A14.74,14.74,0,0,1,167.77,150.65Z"/><path class="cls-2" d="M169,149.85c.46-.37,1.72-2.32,2.93-2.32-.1.71-1.92,2.22-2.53,3.44s.41,2.42.91,3.33c-.09-.8,1.83-2.12,2.43-2.83s1.11-.47.71.41c-.51,1.11-2.09,2.27-2.12,3.94,0,.9.67,1.53,1.51,2,0,0,.31-2.93,1.52-2.12.49.33-1.92,4.86,0,6.57.3-1.31,3.23-3.54,3.23-4.14s-1-2.63,0-2.63c.61,0,1.12,1.82,1.52,1.82s1.22-.41,1.22-1.11-1.82-3.75-.71-3.75c.52,0,1.72,2,2,2s.61-.21.91-1.82-1.41-2.23-.81-3.85a6.08,6.08,0,0,1,2.13,1.72c.5.91,1.51-1.62,1.62-2.43-.32-.36-.67-1.65-1.22-2.42s-1.21-.92-1.21-1.12c0-.4.61-.5,2.63-2.73a6.93,6.93,0,0,0,1.72-5.15c-1.22-1.12-2.23.5-3.24,0s-.5-3.64-.81-4.76c0,0-1.31,2.13-1.62,1.82s.11-1.21.41-2.22-1.42-1.52-1.42-1.52-.4,2.13-1.11,2-.51-2.12-.51-2.12a1.09,1.09,0,0,0-1.72.91c-.35,2-1.31.3-1.82-.61-.7.31-.4,2.63-.4,3.44s-1.42-.71-2.12-1c.2.71-.61,1.76-.61,2.57s-2.63-.44-3.24.17a12.93,12.93,0,0,0,.13,4.32c.66,1.86,1.71,2.69,1.71,3.8s-1.62,1.54-4.53,3.38C167.83,147.09,167.88,150.76,169,149.85ZM178.87,135c.53.73,1.78,1.65,2.7.86.4.13.53.26.07.79s-.46,1.85-1.38,1.78c-1.58-.13-.92-2.44-1.52-3Zm-1.64-.2.19.47c-.46.13-.52,2.63-1.71,2.63-1.45,0-.33-1.78-1.45-2.11A6.5,6.5,0,0,0,177.23,134.81Zm-6.52,3.63c0-1.52,1.12-1.65,1.45-1.65.85,0,.79,2.57,1.18,3.16s1.52.33,1.71.73c-.32.52-1.44,1.18-1.44,2a1.07,1.07,0,0,0,1,1.06c.46,0,2.44-.53,2.44-1.71,0-.6-.46-.92-.66-1.32s-.17-.89-.33-1c.79-.07,1.58-.33,2.17-.33s.66.39.66.92-1.12.92-1.12,1.45,1.45,1.91,1.91,1.91,1.52-.39,1.52-1.12-.43-1.61,0-2c.26-.26.85.26.85.26.89-.89,1.45-2.7,3.23-2.9,1.78,3.1-1.91,4.29-1.91,4.29l-1.45-.6c.57,1.79-1,2.4-.92,3.1.14,2-.26,2.62-1,3.29-.46-.13-1.45-.2-1.51.2.92,1.65-1.85,3.42-1.52,4.15a26.81,26.81,0,0,1-1.65-2.63c-.33-.4.29-1-.06-1.92-.2-.52-1.38.07-1.52-.85s.17-2.85-.94-3.51C172.86,141.45,170.71,140.21,170.71,138.44Zm29.49,7c0,1.35.66,3.3,2.75,3.3,2.4,0,2.49-1.13,3.84-1.13s2,1.09,2,2.36-.66,2.75-3.93,2.75c-5.81,0-7.34-1.58-14.27-1.58-6.56,0-6,2.61-10.23,6.82s-7.54,7.32-7.54,7.32l.26.68c-2,2.1-3,12.46-4.05,16.08s-6.56,5.13-6.56,5.13l-1.26,7,2.69-2.36a8.88,8.88,0,0,1-.25-2c-.09-1.51,4.12-4.63,6.14-5.89-.33,1.94-5,5.72-5,5.72a12.12,12.12,0,0,1,.51,2.7,18.58,18.58,0,0,0,1.09,4l.26-.42a10.06,10.06,0,0,1,.46-2.21c.67-1.35,4.16-6,4.16-6l2.28.33c1.17-1.85-.42-3.62-.85-4.71.93-.93,1.44-.42,2.53.59.84-2,.09-2.19-.59-3.79s.59-1.26,2.36-.34c.67-1.09.5-2-.51-4.29s1.18-1.18,2.19-.42c.76-1.18.42-1.43-.5-3.79s.5-2,2.1-.84c1-2.69.17-2.19-.5-4s1-1.6,2.27-.5c1.18-1.1.19-1.49.19-4.27,0-2,2.38-5.9,6.5-7.41,1.43,1.43-1.89,1.66-1.89,3.26,0,.92.67-1,4-1s3.45,1.6,4.29,1.6.08-2.36.08-2.36c3.88,0,2.53,3.79,2.53,8.5s6.48,9.18,6.65,11.79c-2.34,1.4-3,7.34-5.09,10.59-1.18,1.31-2.62,1.44-4.09,2l-1.43,6c1.18-1.26,4.21-2.1,4.21-2.1-1.43-2.86.42-3.62,1.18-4.29s4-4.8,4-4.8l.5.5s-1.6,4.55-4.12,5.73c-.68,1.43,1.68,5.22,2.27,6.14a3.94,3.94,0,0,1,.54-.62s.27-5.08,1.06-5.94,1.18-.93,2.95-.25c.75-.76.33-2.78-.34-4.05.76-1.43,1.94,1.4,2.31.9,1.35-1.81-1.22-3.25-.37-5,0,0,1.41,1.33,1.76,1.09s.17-1.26-.16-2.19c-1.76-4.2.89-1.42,1.17-1.6.59-.36-.08-3.06-.83-3.74-.43,1.18-2.95,5.77-4.3,9-.24.56-1.52.76.25-4.71,2.1-6.51,4.46-5.47,5.47-5.14-.08-3-3.11-3.28-3.36-5.3-3-1.26-.51-11.62-6.74-14.14l7.83-.59c-1.51,1.51-4.46,1-4.46,1s0,.92,2.36.92,4.24-2.19,4.24-5.14c0-2.17-2.63-6.89-5.15-6.89-2.08,0-3,3.2-3.44,2.95-1.24-.62-.37-1.17.08-2,1.6-2.76,4.24-2.13,4.25-4.38,0-4.23-5.42-4.38-6.21-3.6s2.51,0,2.44,2.68c0,.5,1.57-1.38,1.57-1.24C204.59,139.78,200.2,141.26,200.2,145.41Zm-6-1.72c.6,1.09,5.57.78,5.57-3.85,0-2.44-2-3-2-3.63,0-1.69,9.1-2.36,9.1-6.74a6.77,6.77,0,0,0-.68-3.36s.17,3.45-.92,3.45c-1.69,0-.17-2-.17-3,0-3.71-4-2.87-4-2.87s2.36.09,2.36,3.79c0,4.72-6.9,7.58-7.41,7.07s1.85-2.1,1.85-4.71c0-1.26-.5-4-3.2-4-3.2,0-5.3,2.19-4,2s3.79.68,3.79,2.87c0,3.7-4.88,4.63-4.88,9.34,0,5.9,6,7.33,7.83,7.33a5.34,5.34,0,0,0,2.27-.26,3.65,3.65,0,0,1-.34-1.85,7.66,7.66,0,0,1-2.18.34c-4.55,0-5.06-3.45-5.06-4.63s1.19-3.48,3-3.29C199,138.14,196.64,142.39,194.19,143.69Zm-4.39,38.57c.59-.76,1.51,1.85,1.51,1.85,2.36-2.1-.24-3.24.51-3.87,1-.84,2.69.5,2.69.5,1.27-1.09-.71-2.23-.16-2.94,1.09-1.43,1.43-.09,2.19-.42s1.6-1,.75-2.11-3.53-5.89-1.18-9.43a3,3,0,0,0-1.85,1.77c-.33,1.26.93,7.66.93,8.59l-6.91,5.89s-.5-.5.43-1.68a64.77,64.77,0,0,1,5.3-4.8c-1.09-1.43.5-5.05-1.68-6.4-.59-.25-2.24-.75-.85-1.77.93-.67,2.45-.33,2.45-3.37a3.12,3.12,0,0,0-2.78-3.28c.33-.92,2.78-.67,3.45-1.6-1.26-.59-1.27-.67-2.19-.67s-3.62,1.35-3.62,5.47,3.07,9.47,2.52,10-3.7,2.61-4.37,4.21-4.38,4-4.38,4L179,188l2.36-1.34s.87-2.83,2.25-3.66c2-1.18,3.79-3.28,4.09-3s-1.54,2.83-3.48,3.84c-.59,1.18-2,5.47-1.85,6.4,0,0,4.21-5,5.39-5.56s1.6,1,1.6,1C191,184.53,189.21,183,189.8,182.26Zm-8-1.41c.76-.67,2.39-.95,3.31-1.87l-3.9,1-2.36,3.63,1.87-.78A4.49,4.49,0,0,1,181.77,180.85Zm-19.55,5.28a20.64,20.64,0,0,0,4-1.48c-1.87.2-5,.2-5,.2l-2.73,5.72,2.69-1.52S161.21,186.46,162.22,186.13Zm-4-36c0,2.05,2.61,3,2.78,4s-2.06-.64-2-.34c.37,2.82,2.7,3.11,3.53,4.63.51.93-2.15-.36-2.1-.09.57,3.3,4,2.06,4.63,4.21.34,1.21-2.16-.68-2.23.38,0,.7,1.3,4.42,2.06,4.59s3.2-.76,4.29-1.18,3.2-.84,3.45-1.85c-1.17-1.85-4.29-6.15-4.71-10.1-2.44-2.61-4.88-6.4-4.88-9.51a18.26,18.26,0,0,1,.92-5.64l-3.45-6.49-.67,3s3.2,3,3.11,4a40.86,40.86,0,0,1-.92,4.13c-.59.84-.42-4-.42-4L157.89,135a26.71,26.71,0,0,0,0,4.07c.4,1.81,2.07,2.67,2.07,3.76a5.56,5.56,0,0,1-2.19,3.37c-.17,1.34,2.44,2.69,2.52,3.87C159.66,150.86,158.24,149.57,158.23,150.1Zm6.12-7.89c.52-.92,2.55-1.31,2.48-2.16s-2.42-6.16-2.48-7.47l-1.51,2.75s2.23,3.14,2.23,4.19S164.22,140.83,164.35,142.21Zm34.32,43.49c-2.42.45-5.63,1.18-5.63,1.18l-2.75,4.54,3.27-.69c.3-1.56.47-2.44,1.18-3.06C196.1,186.46,198.24,186.39,198.67,185.7Z"/><path d="M115.53,38.37c-.88.24-5.56-.91-6.08-2.88-.77-2.94,2.88-5.05,2.88-10.26,0-4.73-4.89-5.69-6.25-5.69-1.68,0-5.69.72-5.69,4.57a4.08,4.08,0,0,0,3.6,4.21c-1.95,6.29.19,10.89,3,12.79,3.56,2.65,7.73,1.19,7.73,2.6-.57.16-3.44,4.27-4.72,5.75-.87,1.11-1.42,1.84-1.42,2.43,0,1.14,4.49.33,7.38-.25,0,0-2.47,2.74-5.4,3a5,5,0,0,1-.66,0,3.25,3.25,0,0,1-1.77-.6c-.57-.56-1.74-1.81-.68-4.6a6.55,6.55,0,0,1,1.08-2c.9-1.25-8.83.62-7.79,9,.47,3.49,2.37,3.19.94,3.86a8.55,8.55,0,0,0-1.13,2s-.42-3.72-.87-7.54c-.31-2.75-.71-3.25-.87-5.92-.1-1.55.51-2.65,2-2.72,2.26-.11,4,.46,3.42-4.55C102.4,27.81,89.2,24.1,88.88,24.33a5.23,5.23,0,0,0,1.42,3.06A10.18,10.18,0,0,1,92.6,33a55.61,55.61,0,0,0-8.87-3.15,10.58,10.58,0,0,0,0,1.3c.68,1.53,3.93,7.12,4.37,10.59a12.1,12.1,0,0,0-3.29-3.28c.36,1.42.46,3.72.5,9.86.08,9.72,0,22.89,3.86,30.27.4.77.41,7.55,3.45,7.55s3,.32,3,.32S97,87.8,97.75,87.72c0,0-3.88,11.24-7.13,22.4-3,.95-4.56-1.64-5.68-1.73S83,115,86.26,121.9a3.9,3.9,0,0,0-1.9,3.51,17,17,0,0,0,6.89,12.5s.59.29.19-.89.54-5.32,1.1-6c3.52,3.05,8.25.79,8.25.79l-.88-1.48s-1,.63-.5-7.24c.74.23.81,2,.88,2,.41.08.77.11.89-.07a63.35,63.35,0,0,0,2.66-6.22c.19-.77,1.29-.44,3-2.84a7.91,7.91,0,0,0,1-2.62c2.75-1,2.85-5,2.85-5,.89,0,2.12-3.5,2-6.32.3-1.21.92-1.36,1.15-2.24.59.88,5.91,3.64,5.91,11.91,0,6-2.66,6-1.87,8.46.07.24-1.22,1.37-4.91,1.08-2.37-.19-4.75-2.26-5.62-2.41-2.23-.4-2.1.78-2.76,2.49s-3.55,20.58,2.57,33.22c-2.24-.48-9.23-.21-10.12-2.38-.66-1.63,1.86-3.83,1.86-3.83s-.62-2.94-6-2.32A11.26,11.26,0,0,0,83.56,153l1.37.22a5.45,5.45,0,0,0-2,3.31,20.17,20.17,0,0,0-.07,2.33l1.43-.59s-.09.94.9,5.71c.78,4.23,2.46,5.23,2.46,5.23s.1-.79.18-1.23l.8-4.8c.18-.85,4.13-.2,4.13-.2a16,16,0,0,0-2.37,1.09l0,0a7.41,7.41,0,0,0-.9,3h0a17.42,17.42,0,0,1,4.6.71c1.12.32,1.77,1.18,3.15,1.57.42.12,1.33.08,1.77.2,1.4.39,2.8.75,4.35,1.12.38.09,1-.13,1.36,0a18.34,18.34,0,0,0,5.51.89c1.37-.06,2.22.68,3.61.75,3.92.2,5.29-1.76,6.89-1.12-.08-1,1.6-2.32-2.32-5.45,0-1.84,2.32-2.64,2.32-2.64.42-3.68-4.17-9.19-4.17-9.19s-.55-3.2-.88-6.43a41,41,0,0,1,1.41-13.65,11.54,11.54,0,0,1,1.32-.37s.2.27-.24,1.36c-.3.73-2.25,6.81.4,15.06,2.33,7.3,8.73,11.06,8.73,15.06l-1.68-.16c-3.69,3.69-3.58,21.77-4.38,23.54-.62,0-1.31.29-1.73,0-1.78-1.26-2.78-2.66-3.78-3.32-.26-.17-.86-.84-1.14-.68-.42,0-2.16,1.43-2.6,1.67-5,2.68-5.28,10.3-3.8,14.67.24,0,1.54-1.93,1.9-2.33,0,0,1,10.54,4.84,11.54l.46-.72s.26-6.83,1.58-6.28c.16.07,1.19,3.42,2.27,4.39,2,1.77,1.5,1.73,3.41,2.57a14,14,0,0,1,3.1,1,8.49,8.49,0,0,0-.35-1.19c.2-.68-1.31-2.12-.5-4.2,0,0,4.4-6.41,4.48-7.69a11.37,11.37,0,0,0,4.09,1.37l.68-1.29s-1.18-1.84-.44-2.73a24.09,24.09,0,0,0,3.56-7.53c.13-.4-.06-1.12.06-1.54.51-1.71,1.3-3.22,1.74-5.07.14-.58.87-1.47,1-2s-.13-1.42,0-1.89c.87-4.69,1.12-8.57.18-9.08a4.48,4.48,0,0,0,1.84-.89,1.68,1.68,0,0,1-1.36-1.68c0-1.44,2.32-3.12.24-7.29a4.09,4.09,0,0,1-3,1c-2,0-3.92-7.31-4.52-9.91l.44-.47a7.54,7.54,0,0,0,3.68,1c2.57,0,6.09-1,6.09-9,0-4.57-2.72-14.74-2.72-14.74,4.32-2.33,2.61-13.94,2.08-15.38s-3.38-11.39-.88-18.27c-3.52,1.92-6,14-6,14-1.33-6,4.48-12,4.81-21.82.19-5.77-4.25-10.34-4.25-10.34s.81-3,2.33-3,1.12,5,1.12,5c2.4-.88,3.52-2.88,3.52-5.68s-1.84-6.25-6.81-6.25-7.54,5.18-7.54,9.27,3,11.24,3,11.24a61.66,61.66,0,0,0-1.89,9.09c-.31,5.24-.62,11.5,1.53,19.4,2.75,8.09,7.09,19.09,7.09,26.87a3.62,3.62,0,0,1-.92,2.75c-2.59-.74-6.45-17.45-7.89-31.77a150.65,150.65,0,0,1-1.88-15.83l-.66-5.44,1.26.37q.11-.3.21-.54a74.7,74.7,0,0,1-.94-8.59c0-2.88.32-16.42,1.28-20.19,1.2,2,7.05,2.33,7.05,2.33-3.52-7.13-1.6-15.31-1.76-16.19,3.2.72,5-1.52,5.69-1.76-3.69-2.32-3.29-6.57-3.85-6.81A10,10,0,0,0,139.33,37a12,12,0,0,0,1.76-5.45c0-1.76-.48-4.25-1.68-4.73A4.73,4.73,0,0,0,140.93,23c1.68-1.6,2-6.89,2.32-7.53-1.28,1.2-6.25,5.6-11.69,5.6-2,0-2.73-.32-4.41-.32a8.18,8.18,0,0,0-5.93,2.57,29.33,29.33,0,0,0-8,1.36C113.21,26.14,113.18,34.13,115.53,38.37Z"/><path class="cls-3" d="M104.65,27.17S105.75,26,105,26c-1.51,0-2-2-.85-1.86s1.07-.07.19-.91c-.67-.66,0-1.25,1.41-1.25a1.94,1.94,0,0,1,2,1.9c0,1.31-4.67,6.48-2.91,11.92,2.17,6.71,8,5.91,11,6.52,1.85.38,5.88,1.55,5.68,1.16-.4-.8-5.64-1.71-4.72-1.9.23-.05,5.2,1.13,5,.91-.52-.72-4-2-4.48-2.19-1.7-.72-6.76-2.55-7.27-2.34s6,2.29,5.86,2.75-1,.43-3.41-.3c-2.69-.83-5.33-3.1-5.33-6.44a15.22,15.22,0,0,1,.53-4.4c.72-4.79.61,3.67,1,3.15a28.16,28.16,0,0,0,.91-3.15c.52-1.42,1.31-1.9,1.31-3.92,0-3.74-3.53-4.82-5.24-4.82-1.12,0-4,.69-3.79,3.54S104.65,27.17,104.65,27.17Zm-2.43,15.75c0,.15-1.57.79-1.8.17-.06-.19.86-.7.9-1a2.73,2.73,0,0,0-.29-1.83c-1,1.49-2.72.56-2.79,6,.84-2.62,4.09-1.62,4.58-2.21s-.44-5.27-1-6.45C101.71,38.44,102.38,42.47,102.22,42.92Zm14.06-4.27c2.16.23,4.07.85,4.17.36-.44-1.3-1-1.6-1.66-1.74C117.22,37,117.3,38.49,116.28,38.65ZM89.52,46c-.47-1.15-2.43-2.44-2.48-3.39C86.18,49,90,51.36,89.57,52c-.7,1.08-2.82-2.14-2.82-2.14-1.27,5,3.22,8.72,3.22,8.72-.17,1.69-3-.85-3-.85-1.44,4.23,3.64,8.8,3.64,8.8C90.65,67.54,87,65,87,65c0,4.82,3.38,7.27,3.38,7.95,0,1.18-1.78-.17-1.78-.17a10,10,0,0,0,4.32,7c-.09.93-2.62-.51-2.62-.51.42.93.5,4.91,2.2,5.25s3.38.08,3.89.51,1.94,2.2,2.37.17a12.69,12.69,0,0,1-3.46-9c0-4.86.92-7.48,4.29-10-.6-3.47-1.2-9.55-2-12.51s-.66-5.53-.48-12.1c0-2,4.38-4.74,4.38-4.74a17.75,17.75,0,0,0-7.34-9A30.75,30.75,0,0,1,100,35.25S98.63,37,98.14,36.63c-1-1,1-1.42-.22-3s-6.68-6.83-6.67-6.75c.06.88,4,6.3,2.71,8,0,0,2,2,2.26,3.15-.49.69-1,10.14-1.28,11.22-.69-3.45,0-11.9,0-11.9-3.06-3-2.79-2.32-5.64-3.8C89,33.41,93.3,37,93,36.94s-.28,7.37-1.07,5.3c-.25-.68-.88-5.41-.88-5.41a71.61,71.61,0,0,0-5.41-5c-.07,1.9,3.51,6.63,4.61,14C90.21,46.17,90,47.18,89.52,46Zm12,17.15c0,.79,2.71,1.81,10.68-2.54s10.15-10.77,9.91-11-1.45,2.31-3.08,4.15-3.64,3.15-3.78,3,1.67-1.74,3-3.61c1.23-1.68,2-3.65,1.77-3.78s-4.48,6.85-10,6.85A4.53,4.53,0,0,1,106.56,49c-.45-.45-4.73.92-4.73,7,0,3.82,2.56,3.52,2.56,4.3C103,60.81,101.47,62.41,101.47,63.19Zm13.65-29.72c.68,3.56,7.51.14,8,7.81.23,3.86-3.18,5.54-6,5.48-2.39-.06-2.82-.59-2.82-.59a11.91,11.91,0,0,1-2.28,2.7,10.52,10.52,0,0,0-1.71,2s.48.57,2.85.08c3.44-.72,5.14-3,8.78-3,1.12,0,1.24,1.81,2.23,1.81-.15-.55.64-1.68,1.12-2.27a1.68,1.68,0,0,0-.2-2.59c.2-1,1.58-.82,1.67-1.41a8.8,8.8,0,0,1-3.24-6.4,1.44,1.44,0,0,1,1.08-1.38c.29,0,1,.07,1,.72s-.88.79-.88,2.36c0,3.09,3.54,4.1,3.54,5s-1.64,1.11-1.64,1.11l-.1,5c-1.61,4.57-4.76,9-6.07,10,.66-.56,4-7.46,3.61-7.71s-3.18,5.78-5.58,7.12c.4-.33,4.83-7.51,4.33-7.87-.27-.2-3.09,4.77-7.57,8.43a28.14,28.14,0,0,1-12.6,5.31c1.9,2.46,6.89,1.09,6.89,2,0,1.25-2,2.6-2,5.65,0,4.72,2.13,9.41-.2,13.45A20.43,20.43,0,0,0,117.19,73a14.26,14.26,0,0,1-6.76,1.7c-1.28,0-2-.72-2-1,6.52-4.24,12.93-12.1,13.32-13,.63-.19,2.7-3.77,4.11-6.72s2.49-4.13,2.23-3.61a39.24,39.24,0,0,1-6.63,13c-3.51,4.55-10.08,9.86-10.08,9.86s4.74.23,6.77-1.86c.54-.11,1,.14,1,.56s-1,.52-1,2c.08,8,8.59,14.33,9.75,14.57a25.78,25.78,0,0,1-1.35-8.24,183.63,183.63,0,0,1,1.78-19.9c.2-1.29-.63-2.46-.39-3.15s.25-.39.53-.39c.81,0,.65,3.92,5.6,4.86-2.62-6.48-.9-13.68-.9-14,0-1.13-.93-1.59-.51-2.64a6.79,6.79,0,0,0,3.07.81,3.61,3.61,0,0,0,2.28-.53,8.63,8.63,0,0,1-2.84-6c0-.46-.82-1-.82-1.43a.48.48,0,0,1,.28-.49c.93.58,2.18-.52,3-.48,0-1,1.59-2,1.77-5.4s-1.29-4-2.46-4c-.9,0-1.5.49-1.89-.16.73-.62,4.28-1.1,4.28-4-2.26,2-5.66,1.21-7.89,2.17,0,0-.46-.17-.46-.58,2-1.65,8.68.64,9.86-5.86-1.57,1.18-5.52,3.56-9.12,3.56-1.14,0-2.92-.31-4.56-.31-3.23,0-4.85,1.62-5.14,2.46a30.76,30.76,0,0,0-6.86.79C115.71,26.78,114.63,30.91,115.12,33.47Zm21-4.66c.72,0,1.08.3,1.34.14-.26.55-2.16,2.65-3.61,2.65a.58.58,0,0,1-.49-.19C133.69,30.42,135.43,28.81,136.15,28.81Zm-.59,2.66c.42.2,1.34,0,1,.66s-.92,1.67-.92,1.67.36.33.53.26,1.28.2,1.57,0c-.19.53-.56,2.79-3,2.79a1.69,1.69,0,0,1-1.7-1.77C133,33.57,135.56,31.87,135.56,31.47ZM124.34,26c3.1,0,4.1,4.7,6.92,4-.51,1.07-2.22.6-2.78.88a5.42,5.42,0,0,1-3.2,1.22c-1.79,0-2.6-.75-4.29-.75a3,3,0,0,0-1.64.53s.1-1.26,1.75-1.26,2.52.37,4.18.37a3.76,3.76,0,0,0,2.6-1c-1.23-.25-2.22-3-3.65-3a2.69,2.69,0,0,0-1.53.77c.19.19,1.11-.36,1.6-.36,1.49,0,1.39,2.43,1.6,2.52a4.39,4.39,0,0,1-1.88.32,15.86,15.86,0,0,1-2.69-.56c.17-.17.09-.51.64-.51s1.09.19,1.09-.26-.92-.49-.83-.74c-.47.3-1.22,1.55-1.88,1.55s-.72-.31-.72-.31C120.62,29.36,121.71,26,124.34,26Zm-6.53,1c.11-.47.75-.23.94-.47.26,1.07-1.38,1.75-1.68,2.16s-.24,1-.79,1-.45-.34-.45-.58.28-.7.28-1.08a.81.81,0,0,0-.32-.6A6.41,6.41,0,0,1,117.81,26.92Zm1.53,18.29c-1-.24-1.51-.78-2.37-.75s-1.42.73-1.88.84C116.91,45.58,117.74,46.41,119.34,45.21ZM87.11,120.78a44,44,0,0,0,2-5.31,7.27,7.27,0,0,1,.65-1.07c.34-1.39.36-.94.8-2.89-2,.54-4.78-1.24-4.78-1.24-.66.36,3,2.27,2.63,2.68C85.32,116.29,87.11,120.78,87.11,120.78Zm0,0a44,44,0,0,0,2-5.31,7.27,7.27,0,0,1,.65-1.07c.34-1.39.36-.94.8-2.89-2,.54-4.78-1.24-4.78-1.24-.66.36,3,2.27,2.63,2.68C85.32,116.29,87.11,120.78,87.11,120.78Zm28,73.22c-.51-.6-1.12-2.19-1.46-2.28s-3,4.2-1.83,9.5a20.83,20.83,0,0,0,.3-2.58C112.68,195.83,113.37,195.08,115.13,194Zm-5.7-3c1-1.22,3.7-3.89,4.74-4.84l-2.4,1A10.8,10.8,0,0,0,109.43,191Zm10.49,10.18c-.6-.43-2-1.78-2-1.78s.46,6.17,2.84,7.66A9.61,9.61,0,0,1,119.92,201.14ZM90.5,116c-1,3.27-2.41,6.71-4.68,8.52a5.46,5.46,0,0,1,1.27.26c.68-.51,2.62-4,3.3-4.66a23.08,23.08,0,0,1-2.45,5.5,43.57,43.57,0,0,0,2.54,9c0-1.78.5-4.74,1.26-4.91-1.26-1.18-1.43-3.55-2.28-3.8,1-2.2,2.79-7.2,2.79-8.38s1-4.61,1.36-4.23-1.36,9-2.29,11.17l1,.5a44.77,44.77,0,0,1,2.2-6.59c.34,2.11-1.19,7.1-1.19,7.1,1.36,2.88,3.28,4.45,4.72,4.62-2.1-3.54,1.37-8.26.27-10.88.43-1.18,1.92.85,2.22,2.14a5.79,5.79,0,0,1,.24,1.58,10.27,10.27,0,0,0,1.1-4.65c0-2.71-.85-4-.85-4.91,1.1,0,2,2,2,3.21,0,.91,2.73.43,3.32-3.8.35-2.51-2.54-4.31-2.54-4.31s4.15.51,4.06,2.79c.85-.76,2.29-2.79.34-5.58s-1.77-3.05-.34-2.37a4.23,4.23,0,0,1,2.29,3.3c.59.42,1.69-1.86,1.18-4.32a10.69,10.69,0,0,0-2.28-4.4c1.27-1.44,2.2,1.61,3.21,1.78-.17-3.13,4.23-5.25,4.23-5.25.73-1.22,1.21-4.35,2.29-5.92,1.29-1.89,3.13-2.06,3.13-1.18-2.88.42-3,5.16-3.47,6.09.59-.09,2.11.42,1,1s-3.13.77-3.63,2.46c2.36-.43,4.14-1.36,4.23.08-2.21,1.35-4.83.68-4.83,2.37,0,.68,1.95,1.27,1.95,1.27A19,19,0,0,1,121,111.1c0,6.77-1.71,7.38-1.71,8.48s3,3,2.71,5.32c1.77-3.55.67-9.3,1.6-10,3,8.12-4.92,19.67-4.92,24.91,0,17.26,10.25,16,10.25,27.29a6.06,6.06,0,0,1-.93,3.13c-1.1,0,.51-3.81-1.52-3.89-3.3,4.32-2.73,17.95-4.1,23.07a12.63,12.63,0,0,1-2.82,0c-1.37-.95-3.19-2.32-4-3-1,.93,2.28,3.12,1.74,3.12-.23,0-2.72-1.82-3-1.66a8.41,8.41,0,0,0-3.7,3.71,11.61,11.61,0,0,0-1.63,6.45c.42,0,2.4-6.32,4.65-7.78,0,0,.23,0,.69,0h0l1.81.1h0a10.4,10.4,0,0,0,2.1.11l3.45.15s0,.53,0,.53c-1.6-.42-5.86.33-6.92.3.28.67,1.14,1.7,1.31,2.07a44.8,44.8,0,0,0,5.84-1.09c-.25,1.44-5.7,2.07-5.7,2.07-4.76,2.76-2,12.83-2,12.83s.55-1.62.79-2.5c.18-.67.31-2.94,1.15-3.61a4.08,4.08,0,0,0,1.27-3.39c7.11-4.23,6.85-7.7,7.79-7.36,0,3.13-6.7,8.21-6.7,8.21l1.83,1.45s3.09-3.82,3.51-3.82c.19,0-.52.87-1.13,1.82a20.13,20.13,0,0,1-1.91,2.66c.38,1.68.33,6.54,3.36,7.88a16.76,16.76,0,0,1-.09-5.28c1.11-2.07,2.31-2.68,2.82-4.12.93-1.94,2.37-4.48,2.37-4.48a7.43,7.43,0,0,0,3.28,3s-1.08-2.61.69-4.14-3.13-5.5-3.13-5.5,1.78-.84,2.8.43,1.26,2.37,1.69,2.54-.09-2.29.76-3.14-.51-4.39-3.13-4.82c1.35-1.52,3.64.85,4.57.85.08-1,1.52-2.63.42-3.89s-2.79-3-2.79-3c1.95-.93,2.87,1.27,4.14,1,0-1.27,1.27-2.46-.42-4.06a12.59,12.59,0,0,0-2.37-1.95,6.81,6.81,0,0,1,3.89,1c-.42-2.11.09-3.55-1.1-4.82a3,3,0,0,0-2.19-1.1c.16-1.86,2.19-.25,3.13-.59-1.11-1.44,1.43-4.06.67-6.35-6.35,2.88-7.27-8.71-8.29-9.3.25-4.57-2.39-17.94-2.62-21.15-.26-3.55.25-5.25.59-2.71.14,1,1.12,4.65,1.61,8.72.69,5.82.84,12.43,5.75,12.43,5.08,0,5.08-5.24,5.08-7.7s-2.71-13.28-2.71-15c2.37-2.12,2.88-6,3-9-.51.76-3.3,4.14-3.3,5.07-1-1.69,2.88-5.07,2.79-7.19a16.27,16.27,0,0,0-.84-4.23c-.1.56-1,2.89-1.53,4.82-.37,1.32-.4,2.54-.67,2.54-.68,0-.26-2.54.08-3.72.19-.67,1.76-3.37,1.78-5.92,0-8.13-1.7-5.6-.46-10.29-1.93,2.9-3.64,9.11-3.64,15.46-.29-.81-.6.92-.85.16a41.32,41.32,0,0,1-1.06-9.56c0-2.76,4.66-11.68,4.66-18.79s-5.51-10.07-5.76-12.94a4.34,4.34,0,0,1,2.12-4.06,4.25,4.25,0,0,0-.09,4.91c1.19-3.22,5.67-4.74,5.59.93,1.52-1.36,1.6-7.53-4.57-7.53-4.83,0-5.87,5.69-5.87,8,0,6.34,5.7,13.42,5.7,17.06,0,4.31-2.29,7.95-2.2,9.14-.09-2.12,1.44-8,1.35-9.65-1.1,1.1-1.69,5.67-2.2,6.6-.08-1.86.76-8.29,1.27-9.39-.93,1.52-2.71,6.35-2.54,7.7-.17-1,1.27-7.78,1.44-9.81a46.59,46.59,0,0,0-2.49,15.61c0,11,9.34,27.62,9.34,38.87,0,3.64-1.6,4.65-2.45,4.65-6.94,0-11.93-55.67-11.93-55.67-3.69-3-8.34-10.65-8.34-10.65l-.76-.28a30.19,30.19,0,0,1-5.62,7.21c-1.48,1.27-4.28,2.58-6.08,3.74a11.83,11.83,0,0,0-2.63,2.19L101.28,91a38.69,38.69,0,0,1,3.57-3.33c1.26-.9,2.29-3.5,2.29-5.7s-.86-5.46-.84-7.78c0-3.08,1.4-5.46.85-5.64-1.73-.55-4.22-1.47-5.55-2.06-.91,2.3-2.57,2-3.4,3.74-1,2.17-1.18,5.13-1.18,7.88,0,4.06,1.71,5.32,2.42,5.32.4-.93.68-3.89,1.7-6.62.91-2.47,2.59-4.19,2.79-4.83.5.85-1.34,2.84-2,6.77-.84,5.42-5.54,16.18-6.85,20.9S91.3,114.15,90.5,116Zm15.8,54.46c5.49,0,6-2.28,6.59-2.28a.71.71,0,0,1,.77.76c0,.34-1.61.93-1.7,1.69,4.23.77,5.67-1.1,7.36-1,0-1.78-2.45-2.45-2.45-3.89a4.37,4.37,0,0,1,2.11-3.56c0-6.6-4.9-2.79-4.9-16.75,0-5.41.76-10.15,1.86-10.66-3.64.43-2.54,12.27-2.54,12.27s-.25,1.18-.76,1,.17-1.26-1.1-1.26c-1,0,.34-1.19.93-.93s.09-1.53-.42-1.53c-.93,0-1.3-1.35,0-1.35,1,0,.59-1.1.08-1.44s-1.77-.84-.17-1.44c0,0,.51-.84-.25-1.1s-.08-.84-.17-1.69c.85.42,1.48.42,1.44-.85-.06-2.07,5-5.66,6.51-4.06.76-.84-.08-1.27-.08-2.45a13.4,13.4,0,0,1,.84-3.38c1.1,0-.59,3.38.6,3.38.08-1.18,1.1-3.38.5-4.15s-.31-1.14-1-2.66a2.82,2.82,0,0,0-1.79-1.6c-1.36.42-5.68,2-11.68-1.74,0,0-.68-.27-1.1,1-.58,1.77-.93,6.12-.93,15,0,13.7,5.33,20.47,5.33,21.49s-2.29-1.36-4.4-1.36c-5.84,0-9.39-.17-13.2-6l-1.44.25,3.33,3.7c-1.27,0-4-3.11-4-3.11s-6,3.21-6,5.25.71-.8,2.37-.68c1.94.14,4.23-1.95,4.82-1.61A9.43,9.43,0,0,0,94.79,156c3.24,1.33,8.61,2.38,7.95,2.54-2,.48-11.83-2-13-2.5l-3,1.62c.82.22,7.09,1.85,6.6,1.94-2,.39-7.2-1.53-7.43-1.21,0,6,1.12,8,1.12,8,.41-3,.68-5.41,1.52-5.33,2.11.2,6.63.29,6.63,2,0,1.44-4.48,1.53-4.4,2.71,1.19.17,5,.76,5.76.34s2.62-1.19,2.62-.51c0,1.36-2.88,1.44-2.88,1.44a5.45,5.45,0,0,0,3.39,1c2.2,0,2.28-1.19,2.28-1.19,3.38,0-1.1,1.61-1.27,2,1,.17,4.49.59,5.16.09s2.37-1.53,2.71-1S106.89,169.75,106.3,170.42ZM96.07,148.86c-1.26.85-1.94-1.12-4-.25,2.06.55,2.75,2.1,4.1,2.77-.34-1.35,1.26-2.91,1.26-2.91s-.66-2.84-5.06-1.37C94.3,147.44,95.75,146.64,96.07,148.86ZM85.8,152.38c2.79-3.35,5.35-3.75,5.35-3.75-.09-.2-.1-1.26-1.81-.57C88.08,148.72,87,149.78,85.8,152.38Zm8.06-24.26c-.42-1.1-.9-2-1.83-2a4.35,4.35,0,0,0-1.18.09c1.14,1.78,3,4.1,3,4.1a33.81,33.81,0,0,1,3.94.66C96.2,130,94.28,129.22,93.86,128.12ZM87,112.63l-1.52-1.19a8.76,8.76,0,0,0,.44,5.68C86.17,113.79,85.87,113.78,87,112.63Zm0,13.48a4.23,4.23,0,0,1-1.43-.53,14.46,14.46,0,0,0,3.4,8.31C86.89,129.33,87,127.81,87,126.11Z"/></g></g></svg>