<svg xmlns="http://www.w3.org/2000/svg" xmlns:xlink="http://www.w3.org/1999/xlink" viewBox="0 0 210.43 588.75"><defs><style>.cls-1{fill:none;}.cls-2{fill:#eccd00;}.cls-3{fill:#524e4b;}.cls-4{clip-path:url(#clip-path);}.cls-5{fill:#c9b000;}.cls-6{fill:#524d4c;}.cls-7{fill:#ffe554;}.cls-8{fill:#635e5b;}.cls-9{fill:#736c6a;}.cls-10{fill:#eecd00;}</style><clipPath id="clip-path" transform="translate(0)"><rect class="cls-1" width="210.43" height="588.69"/></clipPath></defs><title>TechnoBoy</title><g id="Layer_2" data-name="Layer 2"><g id="Layer_1-2" data-name="Layer 1"><path class="cls-2" d="M49.31,168.44,53,167l-6.24-15.91s-8.33-37.67,21.67-49.33c37.92-14.75,54.67,15,54.67,15s3.17,8.91,7.09,20.17l4-1.55c-4.53-13.05-8.29-23.6-8.29-23.6S107.47,79,65.74,95.26c-33,12.84-23.84,54.29-23.84,54.29l7.41,18.89" transform="translate(0)"/><path class="cls-3" d="M48.46,170.38l-8-20.5c-.1-.43-9.06-42.86,24.76-56,42.45-16.51,61.82,16.83,62,17.16l.1.24c0,.1,3.82,10.7,8.3,23.61l.47,1.36-6.78,2.64-.51-1.47c-3.62-10.4-6.64-18.9-7-20-1.27-2.18-17.3-28-52.75-14.23-11.88,4.62-19,14-21.14,27.78a60.6,60.6,0,0,0,.37,19.72L55,167.84l-6.51,2.54m-5.12-21.26,6.81,17.38.93-.36L45.32,151.4c-.09-.38-8.26-39.06,22.59-51.05,38.68-15,56.34,15.35,56.52,15.66l.1.23c0,.09,2.94,8.27,6.58,18.72l1.19-.47c-4-11.51-7.34-20.9-7.77-22.09-1.36-2.33-19-31-58.24-15.74C35.64,108.58,42.87,146.81,43.34,149.12Z" transform="translate(0)"/><path class="cls-3" d="M68.23,204.06l-5,1.95a12,12,0,0,1-15.55-6.79L38.55,175.9a12,12,0,0,1,6.79-15.55l5-2a12,12,0,0,1,15.55,6.79L75,188.51a12,12,0,0,1-6.79,15.55" transform="translate(0)"/><g class="cls-4"><path class="cls-3" d="M58.88,208.34a13.53,13.53,0,0,1-12.59-8.57l-9.14-23.33A13.53,13.53,0,0,1,44.79,159l5-1.95a13.5,13.5,0,0,1,17.49,7.64L76.42,188a13.53,13.53,0,0,1-7.65,17.5l-5,1.95a13.44,13.44,0,0,1-4.91.93m-4.19-49.28a10.52,10.52,0,0,0-3.82.73l-5,2A10.52,10.52,0,0,0,40,175.35l9.14,23.32a10.51,10.51,0,0,0,13.6,6l5-2a10.52,10.52,0,0,0,5.94-13.6l-9.14-23.33A10.52,10.52,0,0,0,54.69,159.06Z" transform="translate(0)"/><path class="cls-3" d="M20.61,325.6c-6.1,0-11.94-1.19-15.87-4.7-4.51-4-5.81-10.26-3.86-18.46,3.4-14.3,21.59-27.35,54.05-38.81a374.63,374.63,0,0,1,46.69-12.82l1.33,6.87C78.39,262.44,13.41,280,7.69,304.06c-1.31,5.51-.73,9.42,1.72,11.62,6.28,5.63,24.88,1.93,35.13-1.73l2.36,6.59c-2,.73-14.64,5.06-26.29,5.06" transform="translate(0)"/></g><path class="cls-5" d="M187.73,225.64c0,.77.06,1.54.06,2.32a46.2,46.2,0,0,1-46.19,46.19c-22.32,0-41.51-15.79-45.82-36.83" transform="translate(0)"/><path class="cls-3" d="M141.6,275.65c-22.89,0-42.78-16-47.29-38l2.94-.6c4.22,20.65,22.88,35.63,44.35,35.63A44.74,44.74,0,0,0,186.29,228q0-1.12-.06-2.25l3-.15c0,.8.06,1.6.06,2.4a47.75,47.75,0,0,1-47.69,47.69" transform="translate(0)"/><path class="cls-3" d="M187.86,225.56c-.82-6.44-22.1-9-47.53-5.78S95,230.88,95.78,237.32s22.1,9,47.53,5.77,45.37-11.1,44.55-17.53" transform="translate(0)"/><path class="cls-3" d="M122.44,246a105,105,0,0,1-12.3-.67c-6.88-.84-15.22-2.88-15.85-7.82s6.92-9,13.37-11.55c8.53-3.36,20.07-6.08,32.48-7.67s24.27-1.85,33.37-.74c6.88.84,15.21,2.87,15.84,7.82s-6.92,9-13.37,11.55c-8.53,3.35-20.06,6.07-32.48,7.66A168.62,168.62,0,0,1,122.44,246m38.76-26.12a164.66,164.66,0,0,0-20.68,1.39c-12.17,1.56-23.45,4.21-31.76,7.48-8.83,3.47-11.71,6.68-11.49,8.38s3.81,4.07,13.23,5.22c8.86,1.07,20.44.81,32.62-.75s23.46-4.21,31.76-7.47c8.83-3.48,11.71-6.69,11.49-8.38s-3.81-4.08-13.23-5.22A99.16,99.16,0,0,0,161.2,219.88Z" transform="translate(0)"/><g class="cls-4"><path class="cls-3" d="M92.12,344.75c1,1,5.22,28.33,39.28,27s42-29.67,41.72-37.67-81,10.67-81,10.67" transform="translate(0)"/><path class="cls-6" d="M78.09,585.08a3.67,3.67,0,1,0-3.67,3.67,3.67,3.67,0,0,0,3.67-3.67" transform="translate(0)"/><path class="cls-6" d="M89.89,585.08a3.67,3.67,0,1,0-3.67,3.67,3.68,3.68,0,0,0,3.67-3.67" transform="translate(0)"/><path class="cls-6" d="M101.68,585.08A3.67,3.67,0,1,0,98,588.75a3.67,3.67,0,0,0,3.66-3.67" transform="translate(0)"/><path class="cls-6" d="M113.48,585.08a3.67,3.67,0,1,0-3.66,3.67,3.67,3.67,0,0,0,3.66-3.67" transform="translate(0)"/><path class="cls-6" d="M123.45,585.08a3.67,3.67,0,1,0-3.66,3.67,3.67,3.67,0,0,0,3.66-3.67" transform="translate(0)"/></g><path class="cls-6" d="M156.75,577.75a3.67,3.67,0,1,0-3.66,3.66,3.66,3.66,0,0,0,3.66-3.66" transform="translate(0)"/><path class="cls-6" d="M168.55,579.41a3.67,3.67,0,1,0-3.66,3.67,3.66,3.66,0,0,0,3.66-3.67" transform="translate(0)"/><path class="cls-6" d="M180.35,579.41a3.67,3.67,0,1,0-3.67,3.67,3.66,3.66,0,0,0,3.67-3.67" transform="translate(0)"/><path class="cls-6" d="M192.15,577.75a3.67,3.67,0,1,0-3.67,3.66,3.67,3.67,0,0,0,3.67-3.66" transform="translate(0)"/><path class="cls-6" d="M203.79,572.48a3.67,3.67,0,1,0-3.67,3.67,3.67,3.67,0,0,0,3.67-3.67" transform="translate(0)"/><path class="cls-2" d="M83.29,341.25s7.5,15.5,46,13,53-25,53-25-1-91.5-49.5-91-58,63.5-49.5,103" transform="translate(0)"/><path class="cls-7" d="M46.78,151.08l26.67,68s15.67,22.33,42,14,32.34-40.33,28.67-54-21-62.33-21-62.33-16.75-29.75-54.67-15c-30,11.66-21.67,49.33-21.67,49.33" transform="translate(0)"/><path class="cls-3" d="M103.93,236.43c-19.87,0-31.57-16.29-31.71-16.49l-.16-.31L45.35,151.52l0-.12a62.41,62.41,0,0,1-.43-20.84c2.26-14.79,10.22-25.23,23-30.21,38.68-15,56.34,15.35,56.52,15.66l.1.23c.18.49,17.4,48.89,21,62.45,1.77,6.62,1.49,18.45-3.14,29.95-3.69,9.14-11.28,21.05-26.53,25.87a39.47,39.47,0,0,1-12,1.92M74.78,218.36c1.46,2,16.07,20.93,40.22,13.29,24.85-7.86,31.31-38.6,27.67-52.18-3.52-13.11-19.93-59.31-20.92-62.09-1.27-2.18-17.3-28-52.75-14.23-11.88,4.62-19,14-21.14,27.78a60.6,60.6,0,0,0,.37,19.72Z" transform="translate(0)"/><polyline class="cls-3" points="117.21 518.45 110.36 517.04 141.67 365.04 148.53 366.45 117.21 518.45"/><path class="cls-3" d="M165.84,512.71c-35.33-16.05-57.43-38.19-65.69-65.79-12.63-42.2,11.64-81.39,12.67-83l5.93,3.73c-.32.51-23.6,38.32-11.88,77.36,7.67,25.55,28.48,46.2,61.86,61.37l-2.89,6.37m-47.09-145.1-3-1.86,3,1.86Z" transform="translate(0)"/><polyline class="cls-8" points="102.12 545.06 104.45 524.41 121.45 526.53 113.78 548.41"/><path class="cls-6" d="M115.2,548.91l-2.83-1,7-20.13-13.65-1.7-2.16,19.14-3-.34L103,524.24a1.5,1.5,0,0,1,1.68-1.32l17,2.13a1.49,1.49,0,0,1,1.09.69,1.54,1.54,0,0,1,.14,1.29l-7.67,21.88" transform="translate(0)"/><path class="cls-8" d="M193.12,545.06s-4.33-13-25.83-8.65-15.5,33.34-15.5,33.34,31,10,52-8.18c0,0,5.14-14,5.14-23.51s0-18.57-5.14-20.31l-24.34-8.22-8.66,13.14,16.66,5.89-5.16,6.52" transform="translate(0)"/><path class="cls-3" d="M171.44,574a71.69,71.69,0,0,1-20.12-2.86,1.51,1.51,0,0,1-1-1.13c-.14-.65-3.25-16.17,3.65-26.61a19.65,19.65,0,0,1,13-8.5,35.39,35.39,0,0,1,14.83-.23l-.71-.56,3.86-4.87-14.68-5.2a1.51,1.51,0,0,1-.93-.93,1.55,1.55,0,0,1,.17-1.31l8.67-13.14a1.49,1.49,0,0,1,1.73-.59l24.33,8.22c6.17,2.08,6.17,11.56,6.17,21.6v.13c0,9.65-5,23.44-5.24,24a1.46,1.46,0,0,1-.42.61c-10.39,9-23,11.34-33.33,11.34m-18.34-5.47c5.05,1.38,31.22,7.53,49.41-7.88.79-2.24,4.92-14.35,4.92-22.63v-.13c0-8.54,0-17.37-4.13-18.76l-23.23-7.85-7,10.58L188,527.15a1.47,1.47,0,0,1,.94,1,1.49,1.49,0,0,1-.26,1.35L184,535.32a19,19,0,0,1,5.13,2.57,14.88,14.88,0,0,1,5.4,6.69l-2.84,1c-.17-.48-4.3-11.66-24.12-7.66a16.74,16.74,0,0,0-11.11,7.22C151.13,553.18,152.57,565.24,153.1,568.57Z" transform="translate(0)"/><path class="cls-3" d="M151,253.4a3.51,3.51,0,0,1-2.92-5.43c.13-.2,13.26-20.41,22.44-53.42a244.6,244.6,0,0,0-.76-133.33,3.5,3.5,0,1,1,6.72-1.94,251.47,251.47,0,0,1,.71,137.42c-9.49,34-22.71,54.27-23.26,55.12A3.52,3.52,0,0,1,151,253.4" transform="translate(0)"/><path class="cls-3" d="M123.12,116.75s-16.75-29.75-54.67-15c-30,11.66-21.67,49.33-21.67,49.33s7.67-36.33,76.34-34.33" transform="translate(0)"/><path class="cls-3" d="M100,319.63,81.81,325.2a12,12,0,0,1-15-7.95l-15.65-51a12,12,0,0,1,8-15l18.16-5.58a12,12,0,0,1,15,8l15.65,51a12.05,12.05,0,0,1-8,15" transform="translate(0)"/><path class="cls-3" d="M78.3,327.23a13.53,13.53,0,0,1-12.92-9.54l-15.64-51a13.53,13.53,0,0,1,8.95-16.87l18.16-5.57a13.52,13.52,0,0,1,16.87,9l15.64,51a13.52,13.52,0,0,1-9,16.87h0l-18.16,5.57a13.3,13.3,0,0,1-4,.6m2.51-80.56a10.27,10.27,0,0,0-3.08.46L59.57,252.7a10.53,10.53,0,0,0-7,13.12l15.64,51a10.52,10.52,0,0,0,13.12,7l18.16-5.58a10.51,10.51,0,0,0,7-13.12l-15.64-51A10.51,10.51,0,0,0,80.81,246.67Z" transform="translate(0)"/><path class="cls-7" d="M94.41,303.38l-.68-2.24a12,12,0,0,0-15-7.95L61.1,298.6l-2.81-9.14a14.24,14.24,0,0,0-11.83,18.67,11.89,11.89,0,0,0-.21,7.58l.68,2.23a12,12,0,0,0,15,8l24.54-7.53a12,12,0,0,0,8-15" transform="translate(0)"/><path class="cls-3" d="M58.41,327.93a13.56,13.56,0,0,1-12.91-9.55l-.69-2.23a13.37,13.37,0,0,1,.07-8A15.74,15.74,0,0,1,58.11,288l1.25-.15,2.73,8.91,16.21-5a13.51,13.51,0,0,1,16.86,8.94l.69,2.23A13.53,13.53,0,0,1,86.9,319.8l-24.54,7.53a13.38,13.38,0,0,1-4,.6m-1.17-36.77a12.74,12.74,0,0,0-9.36,16.49l.17.5-.18.49a10.39,10.39,0,0,0-.19,6.63l.69,2.23a10.5,10.5,0,0,0,13.11,7L86,316.93a10.51,10.51,0,0,0,7-13.11l-.68-2.24a10.54,10.54,0,0,0-13.12-6.95L60.1,300.48Z" transform="translate(0)"/><path class="cls-5" d="M127.58,238.56c-1.26.14-2.51.32-3.72.55-3.82,7.22-15.86,37.79.74,115.35,1,0,2-.07,3-.13a2,2,0,0,0,0-.23c-18.74-87.33-.43-114.72-.25-115a1.42,1.42,0,0,0,.24-.55" transform="translate(0)"/><path class="cls-3" d="M140.34,296.63c-6.26-37.8-4.07-59.82-4.05-60l3,.31c0,.22-2.16,21.89,4,59.24l-3,.49" transform="translate(0)"/><path class="cls-3" d="M145.06,309.4h0a4.55,4.55,0,0,1-5.34-3.55l-1-5.17a4.53,4.53,0,1,1,8.88-1.79l1,5.17a4.54,4.54,0,0,1-3.54,5.34" transform="translate(0)"/><path class="cls-3" d="M144.16,311a6,6,0,0,1-5.91-4.84l-1-5.17a6,6,0,0,1,.89-4.53,6,6,0,0,1,8.36-1.68A6,6,0,0,1,149,298.6l1,5.16a6,6,0,0,1-5.91,7.23m-1-14.23a3.05,3.05,0,0,0-.6.06,3,3,0,0,0-1.92,1.29,3,3,0,0,0-.45,2.27l1,5.17a3,3,0,1,0,5.94-1.19l-1-5.17a3,3,0,0,0-3-2.43Z" transform="translate(0)"/><path class="cls-3" d="M107.73,301.08c-2.5-38.23,1.85-59.93,1.9-60.14l2.94.6c0,.21-4.31,21.57-1.84,59.35l-3,.19" transform="translate(0)"/><path class="cls-3" d="M111.16,314.25h0a4.55,4.55,0,0,1-5-4.06l-.52-5.24a4.53,4.53,0,1,1,9-.9l.53,5.24a4.55,4.55,0,0,1-4.06,5" transform="translate(0)"/><path class="cls-3" d="M110.71,315.77a6,6,0,0,1-6-5.43l-.53-5.24a6,6,0,0,1,12-1.2l.52,5.24a6,6,0,0,1-5.4,6.6l-.6,0m-.52-14.3h-.31a3,3,0,0,0-2.71,3.32l.52,5.25a3,3,0,0,0,1.11,2,3,3,0,0,0,4.93-2.64l-.53-5.24A3,3,0,0,0,110.19,301.47Z" transform="translate(0)"/><path class="cls-6" d="M126.06,278.54a5.83,5.83,0,0,1-3.37-1.13,6.17,6.17,0,0,1-1.36-8.38,6.14,6.14,0,0,1,5-2.46,5.48,5.48,0,0,1,5.45,3.88,6.51,6.51,0,0,1-1,5.67,5.81,5.81,0,0,1-4.63,2.42m.22-9.06a3.21,3.21,0,0,0-2.59,1.27,3.24,3.24,0,0,0,.7,4.28,2.76,2.76,0,0,0,4-.66,3.49,3.49,0,0,0,.58-3.1A2.63,2.63,0,0,0,126.28,269.48Z" transform="translate(0)"/><path class="cls-6" d="M126.26,303.68a5.8,5.8,0,0,1-3.37-1.13,6.17,6.17,0,0,1-1.36-8.38,6.12,6.12,0,0,1,5-2.47,5.5,5.5,0,0,1,5.45,3.89,6.51,6.51,0,0,1-1,5.67,5.81,5.81,0,0,1-4.63,2.42m.22-9.06a3.2,3.2,0,0,0-2.59,1.27,3.25,3.25,0,0,0,.69,4.28,2.78,2.78,0,0,0,4-.66,3.49,3.49,0,0,0,.57-3.1A2.61,2.61,0,0,0,126.48,294.62Z" transform="translate(0)"/><path class="cls-6" d="M129.39,329.91a5.78,5.78,0,0,1-3.37-1.13,6.14,6.14,0,0,1-1.36-8.38,6.11,6.11,0,0,1,4.94-2.46,5.48,5.48,0,0,1,5.45,3.89,6.45,6.45,0,0,1-1,5.66,5.77,5.77,0,0,1-4.62,2.42m.21-9.05a3.17,3.17,0,0,0-2.58,1.26,3.23,3.23,0,0,0,.69,4.28,2.75,2.75,0,0,0,4-.66,3.47,3.47,0,0,0,.58-3.09A2.62,2.62,0,0,0,129.6,320.86Z" transform="translate(0)"/><path class="cls-6" d="M116.12,180.68a3.67,3.67,0,1,0-5.19.19,3.67,3.67,0,0,0,5.19-.19" transform="translate(0)"/><path class="cls-6" d="M82.24,191.46a3.67,3.67,0,1,0-5.18.19,3.67,3.67,0,0,0,5.18-.19" transform="translate(0)"/><path class="cls-6" d="M123.58,213.58a1.54,1.54,0,0,1-1-.35,1.51,1.51,0,0,1-.18-2.12A14,14,0,0,0,125.12,197a1.5,1.5,0,1,1,2.74-1.21,16.89,16.89,0,0,1-3.13,17.24,1.52,1.52,0,0,1-1.15.53" transform="translate(0)"/><path class="cls-5" d="M47.35,150s73.11-24.13,93.07,22.86-18.71-54.65-18.71-54.65-30-3.06-41.19.22S47.35,150,47.35,150" transform="translate(0)"/><path class="cls-3" d="M103.93,236.43c-19.87,0-31.57-16.29-31.71-16.49l-.16-.31L45.35,151.52l0-.12a62.41,62.41,0,0,1-.43-20.84c2.26-14.79,10.22-25.23,23-30.21,38.68-15,56.34,15.35,56.52,15.66l.1.23c.18.49,17.4,48.89,21,62.45,1.77,6.62,1.49,18.45-3.14,29.95-3.69,9.14-11.28,21.05-26.53,25.87a39.47,39.47,0,0,1-12,1.92M74.78,218.36c1.46,2,16.07,20.93,40.22,13.29,24.85-7.86,31.31-38.6,27.67-52.18-3.52-13.11-19.93-59.31-20.92-62.09-1.27-2.18-17.3-28-52.75-14.23-11.88,4.62-19,14-21.14,27.78a60.6,60.6,0,0,0,.37,19.72Z" transform="translate(0)"/><path class="cls-9" d="M46.78,151.08s-35-8.58-40.33-23.57c-5-14.1,20.67-34.43,85.67-20.26,30.62,6.67,31,9.5,31,9.5s-60.84,2.33-76.34,34.33" transform="translate(0)"/><path class="cls-3" d="M47.61,152.83l-1.18-.29C45,152.18,10.56,143.58,5,128c-1.62-4.57-.41-9.47,3.4-13.81,5.32-6,15.27-10.37,28-12.21,15.42-2.22,34.25-.94,56,3.79,31.64,6.9,32,9.81,32.16,10.77l.22,1.63-1.64.07c-.6,0-60.12,2.67-75.05,33.48l-.52,1.1M52,103.92c-21.85,0-35.31,5.5-41.28,12.27-3.06,3.47-4.07,7.32-2.83,10.82C12.33,139.59,40,147.7,46,149.32c6.84-12.95,22.15-22.91,44.39-28.86a170.87,170.87,0,0,1,27.51-4.83c-3.88-1.45-11.43-3.72-26.09-6.92C76.29,105.33,63.05,103.92,52,103.92Z" transform="translate(0)"/><path class="cls-6" d="M57.29,113.32a3.67,3.67,0,1,0-5.18.19,3.67,3.67,0,0,0,5.18-.19" transform="translate(0)"/><path class="cls-6" d="M65.94,121.35a3.67,3.67,0,1,0-5.19.19,3.67,3.67,0,0,0,5.19-.19" transform="translate(0)"/><path class="cls-6" d="M73.27,114a3.67,3.67,0,1,0-5.18.2,3.67,3.67,0,0,0,5.18-.2" transform="translate(0)"/><path class="cls-6" d="M87.11,116.77a3.67,3.67,0,1,0-5.18.2,3.68,3.68,0,0,0,5.18-.2" transform="translate(0)"/><path class="cls-6" d="M22.93,118.81a3.67,3.67,0,1,0-5.19.2,3.66,3.66,0,0,0,5.19-.2" transform="translate(0)"/><path class="cls-6" d="M41.39,113.11a3.67,3.67,0,1,0-5.18.19,3.67,3.67,0,0,0,5.18-.19" transform="translate(0)"/><path class="cls-6" d="M50,121.14a3.67,3.67,0,1,0-5.18.19,3.68,3.68,0,0,0,5.18-.19" transform="translate(0)"/><path class="cls-6" d="M58.68,129.16a3.67,3.67,0,1,0-5.18.2,3.67,3.67,0,0,0,5.18-.2" transform="translate(0)"/><path class="cls-6" d="M34.13,120.92a3.67,3.67,0,1,0-5.18.2,3.67,3.67,0,0,0,5.18-.2" transform="translate(0)"/><path class="cls-6" d="M24,122.79a3.67,3.67,0,1,0,3.8,3.53,3.68,3.68,0,0,0-3.8-3.53" transform="translate(0)"/><path class="cls-6" d="M42.77,129a3.67,3.67,0,1,0-5.18.2,3.66,3.66,0,0,0,5.18-.2" transform="translate(0)"/><path class="cls-6" d="M51.42,137a3.67,3.67,0,1,0-5.18.19,3.67,3.67,0,0,0,5.18-.19" transform="translate(0)"/><path class="cls-6" d="M35.52,136.77a3.67,3.67,0,1,0-5.19.19,3.67,3.67,0,0,0,5.19-.19" transform="translate(0)"/><path class="cls-6" d="M44.16,144.8A3.67,3.67,0,1,0,39,145a3.67,3.67,0,0,0,5.18-.19" transform="translate(0)"/><path class="cls-3" d="M151.56,168.39l-5,2a12,12,0,0,1-15.56-6.8l-9.14-23.32a12,12,0,0,1,6.8-15.55l5-2a12,12,0,0,1,15.55,6.79l9.14,23.32a12,12,0,0,1-6.79,15.55" transform="translate(0)"/><path class="cls-3" d="M142.22,172.67a13.57,13.57,0,0,1-12.59-8.57l-9.14-23.32a13.52,13.52,0,0,1,7.64-17.5l5-2a13.54,13.54,0,0,1,17.5,7.64l9.14,23.32a13.52,13.52,0,0,1-7.64,17.5h0l-5,2a13.4,13.4,0,0,1-4.9.93M138,123.4a10.46,10.46,0,0,0-3.8.72l-5,2a10.5,10.5,0,0,0-5.94,13.6L132.42,163A10.55,10.55,0,0,0,146,169l5-1.95a10.52,10.52,0,0,0,6-13.61l-9.15-23.32a10.42,10.42,0,0,0-5.57-5.78A10.6,10.6,0,0,0,138,123.4Z" transform="translate(0)"/><path class="cls-8" d="M126.12,578.08s.53-32-26.07-33-29.61,32.68-29.61,32.68l55.68.32" transform="translate(0)"/><path class="cls-3" d="M126.12,579.58h0l-55.68-.32a1.48,1.48,0,0,1-1.1-.49,1.46,1.46,0,0,1-.39-1.14c0-.35,3.45-35.07,31.17-34s27.51,34.19,27.51,34.53a1.5,1.5,0,0,1-1.5,1.47m-54-3.31,52.43.3a46.38,46.38,0,0,0-3-14.14c-4-10.13-11.28-15.46-21.64-15.85C78.36,545.73,73.16,569.74,72.15,576.27Z" transform="translate(0)"/><path class="cls-10" d="M79.5,261.19a5.78,5.78,0,0,1-3.37-1.13,6.14,6.14,0,0,1-1.36-8.38,6.11,6.11,0,0,1,4.94-2.46,5.48,5.48,0,0,1,5.45,3.89,6.45,6.45,0,0,1-1,5.66,5.78,5.78,0,0,1-4.62,2.42m.21-9.05a3.17,3.17,0,0,0-2.58,1.26,3.23,3.23,0,0,0,.69,4.28,2.75,2.75,0,0,0,4-.66,3.47,3.47,0,0,0,.58-3.09A2.62,2.62,0,0,0,79.71,252.14Z" transform="translate(0)"/><path class="cls-10" d="M84.42,207.53a5.21,5.21,0,1,0-5.21,5.21,5.21,5.21,0,0,0,5.21-5.21" transform="translate(0)"/><path class="cls-10" d="M131.71,188.36a5.22,5.22,0,1,0-5.22,5.21,5.22,5.22,0,0,0,5.22-5.21" transform="translate(0)"/><path class="cls-7" d="M167.17,63.59a13.53,13.53,0,0,1-13-9.94l-1.36-5-11-2.91a5,5,0,0,1,1.28-9.83,5.07,5.07,0,0,1,1.29.17l9.12,2.42-7-25.68A5,5,0,0,1,150,6.68a5.31,5.31,0,0,1,1.32-.17,3.31,3.31,0,0,1,.44,0,4,4,0,0,1,2.89-4.22L157,1.65a4,4,0,0,1,1.08-.15,4,4,0,0,1,3.28,1.71L162,3a4,4,0,0,1,1.08-.15,4,4,0,0,1,3.73,2.53l1.81-.51a4,4,0,0,1,4.94,2.76c.38,1.19,9.61,30.18,10.25,32.55l1.36,5a13.51,13.51,0,0,1-9.47,16.58l-5,1.36a13.72,13.72,0,0,1-3.54.47h0" transform="translate(0)"/><path class="cls-3" d="M158.06,3a2.51,2.51,0,0,1,2.41,1.82l.05.18,1.87-.53a2.57,2.57,0,0,1,.67-.09,2.51,2.51,0,0,1,2.41,1.82l.35,1.24a2.55,2.55,0,0,1,.87-.44L169,6.34a2.65,2.65,0,0,1,.68-.09,2.51,2.51,0,0,1,2.41,1.82s9.6,30.17,10.25,32.53l1.36,5a12,12,0,0,1-8.42,14.73l-5,1.36a11.69,11.69,0,0,1-3.14.42,12,12,0,0,1-11.59-8.83l-1.36-5a8.21,8.21,0,0,1-.18-.83L142.21,44.3a3.5,3.5,0,0,1,.89-6.88,3.61,3.61,0,0,1,.91.12l10.77,2.86c.16-.35.32-.7.51-1l-7.35-26.93a3.5,3.5,0,0,1,2.45-4.3,3.71,3.71,0,0,1,.93-.12A3.46,3.46,0,0,1,154,9.31l-.69-2.47a2.5,2.5,0,0,1,1.72-3.09l2.33-.66a2.57,2.57,0,0,1,.67-.09m0-3h0a5.42,5.42,0,0,0-1.49.21l-2.32.65a5.51,5.51,0,0,0-3.31,2.61,5.58,5.58,0,0,0-.59,1.61,6.69,6.69,0,0,0-.75.16,6.5,6.5,0,0,0-4.55,8l6.32,23.17-6.59-1.75a6.35,6.35,0,0,0-1.68-.22,6.5,6.5,0,0,0-5.62,9.76,6.45,6.45,0,0,0,4,3l10.11,2.69,1.13,4.16a15.05,15.05,0,0,0,14.49,11,14.88,14.88,0,0,0,3.93-.52l5-1.36A15,15,0,0,0,186.6,44.79l-1.36-5C184.59,37.43,175.51,8.89,175,7.2a5.53,5.53,0,0,0-5.28-3.95,5.31,5.31,0,0,0-1.49.21l-.68.19a5.55,5.55,0,0,0-4.46-2.27,5.47,5.47,0,0,0-1.21.13A5.55,5.55,0,0,0,158.06,0Z" transform="translate(0)"/></g></g></svg>