<svg xmlns="http://www.w3.org/2000/svg" xmlns:xlink="http://www.w3.org/1999/xlink" viewBox="0 0 202.6 493.98"><defs><style>.cls-1{fill:none;}.cls-2{fill:#ffe554;}.cls-3{fill:#524e4b;}.cls-4{fill:#eecd00;}.cls-5{fill:#736c6a;}.cls-6{clip-path:url(#clip-path);}.cls-7{fill:#524d4c;}.cls-8{fill:#c9b000;}.cls-9{fill:#6f6967;}</style><clipPath id="clip-path" transform="translate(0 0)"><rect class="cls-1" width="202.6" height="493.98"/></clipPath></defs><title>TechnoGirl</title><g id="Layer_2" data-name="Layer 2"><g id="Layer_1-2" data-name="Layer 1"><path class="cls-2" d="M120.43,468.5l-17.63-78,6.83-1.51,17.64,78s0,3.53-2.74,4a3.76,3.76,0,0,1-4.1-2.46" transform="translate(0 0)"/><polyline class="cls-3" points="100.35 391.07 77.38 287.26 89.1 284.67 112.07 388.48 100.35 391.07"/><path class="cls-2" d="M51.2,447.63a3.67,3.67,0,0,1-4.36.71c-2.81-1.19-2.16-3.25-2.16-3.25l24.52-61.9,6.52,2.54L51.2,447.63" transform="translate(0 0)"/><polyline class="cls-3" points="78.05 386.64 66.87 382.28 105.31 283.78 116.49 288.15 78.05 386.64"/><path class="cls-4" d="M101.33,227.21H55.15a12,12,0,0,1-12-12V139.46a12,12,0,0,1,12-12h46.18a12,12,0,0,1,12,12v75.75a12,12,0,0,1-12,12" transform="translate(0 0)"/><path class="cls-3" d="M101.33,228.71H55.15a13.51,13.51,0,0,1-13.5-13.5V139.46A13.52,13.52,0,0,1,55.15,126h46.18a13.51,13.51,0,0,1,13.5,13.5v75.75a13.51,13.51,0,0,1-13.5,13.5M55.15,129a10.52,10.52,0,0,0-10.5,10.5v75.75a10.52,10.52,0,0,0,10.5,10.5h46.18a10.51,10.51,0,0,0,10.5-10.5V139.46a10.51,10.51,0,0,0-10.5-10.5Z" transform="translate(0 0)"/><path class="cls-5" d="M76.73,42,62,91.43s-17.66,41.69,30.25,56.25c51,15.5,60.75-25.75,60.75-25.75l20.55-59s4.6-15.34.15-24.42" transform="translate(0 0)"/><g class="cls-6"><path class="cls-3" d="M84.63,47.37,73.36,83.18S58.49,134.09,87,145.75c34.69,14.18,58.21-11.44,63.34-27.07,4.11-12.54-65.73-71.31-65.73-71.31" transform="translate(0 0)"/><path class="cls-2" d="M168.33,66.44l-19.1,50.79s-13,31.58-45.42,19.88c-26-9.38-32.34-40.34-28.67-54s21-62.34,21-62.34,12.09-22.34,50-7.59c30,11.67,22.18,53.26,22.18,53.26" transform="translate(0 0)"/><path class="cls-3" d="M117.55,141.2a42,42,0,0,1-14.25-2.68c-26.69-9.63-33.46-41.45-29.61-55.8,3.64-13.57,20.86-62,21-62.45l.09-.21C95,19.82,108-3.27,146.69,11.79c12.8,5,20.85,16.1,23.28,32.17a75.27,75.27,0,0,1-.17,22.76l-.07.25-19.09,50.79c-.13.31-10,23.44-33.09,23.44m-20-119.8c-1,2.76-17.4,49-20.92,62.1-3.61,13.42,2.74,43.18,27.72,52.2,30.67,11.06,43-17.81,43.54-19l19-50.61c.42-2.46,6.43-40.7-21.26-51.47C110.52.94,98.37,20,97.51,21.4Z" transform="translate(0 0)"/></g><path class="cls-7" d="M145.17,95.48a3.67,3.67,0,1,0-5.18.19,3.67,3.67,0,0,0,5.18-.19" transform="translate(0 0)"/><path class="cls-7" d="M111.85,85.06a3.67,3.67,0,1,0-5.19.19,3.67,3.67,0,0,0,5.19-.19" transform="translate(0 0)"/><path class="cls-5" d="M161.41,48.54s6.12,9.23,3.32,32c0,0,12.5-22.63,8.8-43.88-3.26-18.78-12.12,10.75-12.12,10.75" transform="translate(0 0)"/><path class="cls-8" d="M118.15,113.77a6.4,6.4,0,0,1-1.31-.13,1.5,1.5,0,0,1,.7-2.92,3,3,0,0,0,3.18-1.34,1.5,1.5,0,1,1,2.53,1.61,5.82,5.82,0,0,1-5.1,2.78" transform="translate(0 0)"/><path class="cls-7" d="M110.51,120.19,101.73,116a6.35,6.35,0,0,1-2.48-2.15l-.68,1.41c-2.53,5.29-1.34,11.18,2.64,13.09s9.32-.85,11.86-6.15l.68-1.41a6.33,6.33,0,0,1-3.24-.58" transform="translate(0 0)"/><path class="cls-3" d="M173.76,38.71l-12.35,9.83s1.12,1.54,2.37,6.08a24.21,24.21,0,0,0,10-15.91" transform="translate(0 0)"/><path class="cls-4" d="M97.24,96.65a6.51,6.51,0,1,0-6.51,6.51,6.5,6.5,0,0,0,6.51-6.51" transform="translate(0 0)"/><path class="cls-4" d="M145.32,110.18a6.51,6.51,0,1,0-6.5,6.51,6.51,6.51,0,0,0,6.5-6.51" transform="translate(0 0)"/><path class="cls-3" d="M149.61,221.54c-11,0-19.9-6.71-20.33-7a3.5,3.5,0,0,1,4.24-5.57c.15.11,10,7.42,20.08,5.18,6-1.33,11.06-5.85,15.07-13.45a3.5,3.5,0,1,1,6.19,3.27c-5,9.52-11.69,15.24-19.8,17a25.79,25.79,0,0,1-5.45.58" transform="translate(0 0)"/><path class="cls-8" d="M103.4,141.66c-1.33,6.56-6.2,27.38-14,26.43-8.14-1-3.4-25.05-2.15-30.77l-.24,0c-54.11,0-32.77,125-46.61,142.16-2.71,3.37,12.78,8.24,51.28,10.74s53.72-16.4,53.72-16.4c-18.91-33.67-2.92-113.55-42-132.14" transform="translate(0 0)"/><path class="cls-2" d="M89.4,168.09c7.8.95,12.67-19.87,14-26.43a34,34,0,0,0-16.15-4.34c-1.25,5.72-6,29.78,2.15,30.77" transform="translate(0 0)"/><path class="cls-7" d="M55.28,276.19a3.67,3.67,0,1,0-3.67,3.66,3.67,3.67,0,0,0,3.67-3.66" transform="translate(0 0)"/><path class="cls-7" d="M67.69,278.53A3.67,3.67,0,1,0,64,282.19a3.67,3.67,0,0,0,3.67-3.66" transform="translate(0 0)"/><path class="cls-7" d="M80.74,279.85a3.67,3.67,0,1,0-3.67,3.67,3.66,3.66,0,0,0,3.67-3.67" transform="translate(0 0)"/><path class="cls-7" d="M94.88,281.3A3.67,3.67,0,1,0,91.21,285a3.67,3.67,0,0,0,3.67-3.67" transform="translate(0 0)"/><path class="cls-7" d="M109,281.3a3.67,3.67,0,1,0-3.66,3.67A3.66,3.66,0,0,0,109,281.3" transform="translate(0 0)"/><path class="cls-7" d="M123.85,279.85a3.67,3.67,0,1,0-3.67,3.67,3.66,3.66,0,0,0,3.67-3.67" transform="translate(0 0)"/><g class="cls-6"><path class="cls-7" d="M137.57,274a3.67,3.67,0,1,0-3.67,3.67,3.67,3.67,0,0,0,3.67-3.67" transform="translate(0 0)"/><path class="cls-3" d="M29.23,239.46a3.51,3.51,0,0,1-1.59-.38,61.12,61.12,0,0,1-14.36-11C3.9,218.5-.66,207.17.08,195.35c1-16.54,13.78-30.83,36.84-41.31a158.63,158.63,0,0,1,33.87-10.77A3.5,3.5,0,1,1,72,150.16c-.62.11-62.82,11.7-64.95,45.63-1.5,23.76,23.51,36.93,23.77,37.06a3.5,3.5,0,0,1-1.61,6.61" transform="translate(0 0)"/></g><path class="cls-4" d="M55.55,178.75a19.3,19.3,0,0,1-5.48-.76l-1.43-.43L51.53,168l1.4.37a11.48,11.48,0,0,0,2.69.29,12.61,12.61,0,0,0,2.89-.32c4.11-.93,7.47-3.88,10-8.74,4.09-8-.36-15.33-.56-15.64v-.82s2.85-1.42,4.16-2.11,4.42-1.91,4.57-2l.51.33a26.27,26.27,0,0,1,.23,24.77c-6.73,13.13-17.5,14.55-21.82,14.55" transform="translate(0 0)"/><g class="cls-6"><path class="cls-8" d="M161.41,48.54s-35.19,24.14-76.34,8.51l3-8.92,73.3.41" transform="translate(0 0)"/><path class="cls-5" d="M76.73,42s14.75,15.56,54.5,13.14,42.3-18.43,42.3-18.43S172.26,12.52,140,2.6,88.23,12.25,76.73,42" transform="translate(0 0)"/></g><path class="cls-2" d="M186.08,171.22a10.66,10.66,0,0,0-18.82,2.55l-3.49,9.86a10.73,10.73,0,0,0,2.16,10.72A10.73,10.73,0,0,0,173,204.54l.91.32a10.73,10.73,0,0,0,13.64-6.52l4.79-13.57a10.71,10.71,0,0,0-6.3-13.55" transform="translate(0 0)"/><g class="cls-6"><path class="cls-3" d="M177.5,207a12.2,12.2,0,0,1-4.05-.7l-.91-.32a12.21,12.21,0,0,1-8.1-11,12.19,12.19,0,0,1-2.08-11.78l3.48-9.86A12.17,12.17,0,0,1,187,170a12.26,12.26,0,0,1,6.76,15.28L189,198.84A12.21,12.21,0,0,1,177.5,207m-.16-38.83a9.21,9.21,0,0,0-8.67,6.13l-3.48,9.86a9.22,9.22,0,0,0,1.85,9.22l.39.43v.58a9.18,9.18,0,0,0,6.11,8.76l.91.32a9.19,9.19,0,0,0,11.72-5.6l4.8-13.57a9.24,9.24,0,0,0-5.42-11.65l-.44-.16-.27-.38a9.11,9.11,0,0,0-7.5-3.94Z" transform="translate(0 0)"/><path class="cls-9" d="M178.17,197.48l-5.69-3.36c-3.69-2.19-5-8.78-2.89-14.65l11.93-33.31c2.1-5.87,6.84-8.89,10.53-6.71l5.69,3.37c3.69,2.18,5,8.78,2.89,14.65L188.7,190.78c-2.1,5.87-6.84,8.89-10.53,6.7" transform="translate(0 0)"/><path class="cls-3" d="M179.53,199.52a5.82,5.82,0,0,1-1.84-.7h0L172,195.45c-2-1.19-3.46-3.56-4.07-6.68a18.67,18.67,0,0,1,.82-9.8l11.92-33.31c2.37-6.62,7.68-10,11.85-7.54l5.69,3.36c4.16,2.47,5.62,9.86,3.25,16.48l-11.93,33.31a14,14,0,0,1-5.25,7.18,6.49,6.49,0,0,1-4.76,1.07m10.62-59.28c-2.94-.57-6.21,2-7.79,6.41L170.43,180a14.58,14.58,0,0,0-.63,7.62,7.5,7.5,0,0,0,3.16,5.2l5.69,3.37a4.74,4.74,0,0,0,5.13-.29,10.88,10.88,0,0,0,4.08-5.58L199.79,157c1.84-5.15.71-10.9-2.53-12.82l-5.68-3.36A4.65,4.65,0,0,0,190.15,140.24Z" transform="translate(0 0)"/></g><path class="cls-3" d="M192.5,166.82a1.5,1.5,0,0,1-1.41-1l-6-16.63a1.5,1.5,0,0,1,2.82-1l6,16.63a1.5,1.5,0,0,1-.9,1.92,1.52,1.52,0,0,1-.51.09" transform="translate(0 0)"/><path class="cls-3" d="M189.92,174a1.5,1.5,0,0,1-1.41-1l-6-16.63a1.5,1.5,0,1,1,2.82-1l6,16.63a1.5,1.5,0,0,1-.9,1.92,1.52,1.52,0,0,1-.51.09" transform="translate(0 0)"/><path class="cls-3" d="M187.34,181.16a1.49,1.49,0,0,1-1.41-1l-6-16.63a1.5,1.5,0,1,1,2.82-1l6,16.63a1.5,1.5,0,0,1-.9,1.92,1.52,1.52,0,0,1-.51.09" transform="translate(0 0)"/><path class="cls-3" d="M93.27,271.92l-40.68-8.06a12,12,0,0,1-9.44-14.1l13.29-67.08a12,12,0,0,1,14.11-9.43l40.68,8.06a12,12,0,0,1,9.44,14.1l-13.29,67.08a12,12,0,0,1-14.11,9.43" transform="translate(0 0)"/><path class="cls-3" d="M95.61,273.65A13.85,13.85,0,0,1,93,273.4L52.3,265.33a13.52,13.52,0,0,1-10.62-15.87L55,182.39a13.56,13.56,0,0,1,15.87-10.62l40.68,8.07a13.52,13.52,0,0,1,10.62,15.86l-13.29,67.08a13.52,13.52,0,0,1-13.24,10.87m-27.4-99.13A10.52,10.52,0,0,0,57.92,183l-13.3,67.07a10.55,10.55,0,0,0,8.26,12.34l40.68,8.06a10.51,10.51,0,0,0,12.35-8.26l13.29-67.07a10.55,10.55,0,0,0-8.26-12.34l-40.68-8.06A10.18,10.18,0,0,0,68.21,174.52Z" transform="translate(0 0)"/><path class="cls-2" d="M75.6,249.5l.48-2.29A12,12,0,0,0,66.77,233L48.7,229.27l1.94-9.36a14.26,14.26,0,0,0-19.36,10.66,11.93,11.93,0,0,0-3.83,6.55L27,239.41a12,12,0,0,0,9.32,14.18l25.13,5.22A12,12,0,0,0,75.6,249.5" transform="translate(0 0)"/><path class="cls-3" d="M63.86,260.56a13.58,13.58,0,0,1-2.75-.28L36,255.06a13.55,13.55,0,0,1-10.48-16l.48-2.28a13.27,13.27,0,0,1,3.93-7,15.53,15.53,0,0,1,1.58-4.25,15.77,15.77,0,0,1,19.71-7l1.16.47-1.89,9.12,16.6,3.44a13.55,13.55,0,0,1,10.48,16l-.48,2.28a13.52,13.52,0,0,1-13.21,10.76M45.31,220.37a12.72,12.72,0,0,0-12.55,10.48l-.09.51-.4.34a10.37,10.37,0,0,0-3.35,5.73l-.48,2.28a10.55,10.55,0,0,0,8.15,12.42l25.13,5.21a10.52,10.52,0,0,0,12.42-8.15l.47-2.28a10.55,10.55,0,0,0-8.15-12.42l-19.53-4.05,2-9.55A12.74,12.74,0,0,0,45.31,220.37Z" transform="translate(0 0)"/><path class="cls-4" d="M109.11,198.27a5.78,5.78,0,0,1-3.37-1.13,6.13,6.13,0,0,1-1.36-8.37,6.11,6.11,0,0,1,4.94-2.47,5.49,5.49,0,0,1,5.45,3.89,6.45,6.45,0,0,1-1,5.66,5.78,5.78,0,0,1-4.62,2.42m.21-9.05a3.23,3.23,0,0,0-2.59,1.26,3.07,3.07,0,0,0-.47,2.29,3,3,0,0,0,1.17,2,2.76,2.76,0,0,0,4-.66A3.5,3.5,0,0,0,112,191,2.62,2.62,0,0,0,109.32,189.22Z" transform="translate(0 0)"/><path class="cls-3" d="M58.84,169.85c4.57-1,8.26-4.25,11-9.53,4.17-8.14.19-15.71-.52-16.94l-2.89.88c.6,1,4.18,8,.74,14.69-2.29,4.45-5.3,7.14-9,8a11.32,11.32,0,0,1-2.55.28,10.8,10.8,0,0,1-1.8-.14A1.37,1.37,0,0,0,52,168.17,1.42,1.42,0,0,0,53,170a13.76,13.76,0,0,0,2.67.25,15,15,0,0,0,3.22-.35" transform="translate(0 0)"/><path class="cls-3" d="M78.07,138.6s-1.12.34-1.68.56-1.25.55-1.25.55c1,1.77,6.79,12.31.9,23.8-5.57,10.85-14.2,13.74-20.49,13.74a18,18,0,0,1-4.62-.58,1.49,1.49,0,0,0-1.74,1.06,1.46,1.46,0,0,0,.87,1.81,21.26,21.26,0,0,0,5.49.71c4.59,0,16-1.5,23.16-15.37,6.59-12.87.55-24.25-.64-26.28" transform="translate(0 0)"/><path class="cls-3" d="M57.14,468.13a14.41,14.41,0,0,0,.65-4.33,14.67,14.67,0,1,0-28.68,4.33h28" transform="translate(0 0)"/><path class="cls-3" d="M142.58,491a14.67,14.67,0,1,0-28,0h28" transform="translate(0 0)"/><path class="cls-4" d="M56.35,471.13H29.68a1,1,0,0,1,0-2H56.35a1,1,0,1,1,0,2" transform="translate(0 0)"/><path class="cls-4" d="M141.9,494H115.23a1,1,0,0,1,0-2H141.9a1,1,0,0,1,0,2" transform="translate(0 0)"/><path class="cls-2" d="M77.9,78.89c-3.14-1.32-5.78-4.66-5.56-8.07a8.21,8.21,0,0,1,8.94-7.39A9.31,9.31,0,0,1,83,63.7" transform="translate(0 0)"/><path class="cls-3" d="M77.32,80.28c-3.43-1.45-6.76-5.2-6.48-9.56a9.73,9.73,0,0,1,10.54-8.79,10.83,10.83,0,0,1,2,.32l-.75,2.9a7.4,7.4,0,0,0-1.41-.22,6.7,6.7,0,0,0-7.35,6c-.18,2.83,2.23,5.58,4.66,6.6l-1.17,2.77" transform="translate(0 0)"/><path class="cls-3" d="M83.83,83.2l-.59.21a2,2,0,0,1-2.49-1.21l-2.48-7.13a2,2,0,0,1,1.21-2.5l.59-.2a2,2,0,0,1,2.49,1.2L85,80.71a2,2,0,0,1-1.21,2.49" transform="translate(0 0)"/><path class="cls-3" d="M82.6,85a3.48,3.48,0,0,1-1.51-.35,3.42,3.42,0,0,1-1.76-2l-2.48-7.14A3.47,3.47,0,0,1,79,71.16l.6-.21A3.46,3.46,0,0,1,84,73.08l2.48,7.14a3.46,3.46,0,0,1-2.13,4.4l-.6.21A3.39,3.39,0,0,1,82.6,85M80.71,73.76l-.15,0L80,74a.45.45,0,0,0-.28.58l2.48,7.14a.45.45,0,0,0,.58.28l.59-.2a.46.46,0,0,0,.28-.59l-2.48-7.13a.43.43,0,0,0-.23-.26A.44.44,0,0,0,80.71,73.76Z" transform="translate(0 0)"/><path class="cls-3" d="M80.17,69.88h0a4.05,4.05,0,1,0,4,4.05,4.06,4.06,0,0,0-4-4.05" transform="translate(0 0)"/><path class="cls-3" d="M80.17,79.48a5.55,5.55,0,1,1,5.55-5.55,5.56,5.56,0,0,1-5.55,5.55m0-8.1a2.55,2.55,0,1,0,2.55,2.55A2.55,2.55,0,0,0,80.17,71.38Z" transform="translate(0 0)"/></g></g></svg>