<svg xmlns="http://www.w3.org/2000/svg" viewBox="0 0 452.03 148.74"><defs><style>.cls-1,.cls-3,.cls-4,.cls-5{fill:#fff;}.cls-2{fill:#40adbf;}.cls-3{font-size:83.81px;}.cls-3,.cls-4,.cls-5{font-family:Boopee;}.cls-4{font-size:79.71px;}.cls-5{font-size:83.81px;}.cls-6{font-size:55.05px;fill:#f7941d;font-family:Bariol-Bold, Bariol;font-weight:700;}.cls-7{letter-spacing:0em;}</style></defs><title>playgroundComputing_forDarkBG</title><g id="Layer_2" data-name="Layer 2"><g id="main"><g id="hopscotch"><path class="cls-1" d="M446.08,59.36c-1.5-1.06-5.27-1.72-7.36-2.5-4.59-1.72-7.09-4-12.13-5.3-4.06-1.05-8.73-1.62-12.14-2.86-1.84-.67-3.2-1.79-5.86-2a25.79,25.79,0,0,0-7.78.91c3.13-1.23,6.18-2.48,9.25-3.69,5.45-2.15,11.39-4.45,14.76-7,1.38-1.06,2.36-2.14,2.53-3.24.12-.73.53-1.57-.93-2.1-1.86-.68-4.81-1-6.77-1.58-3.15-1-5.26-2.13-9.18-2.69-3.25-.45-6.84-.64-9.47-1.35a14.59,14.59,0,0,0-4.87-1,26.88,26.88,0,0,0-7.53,1.5c-3,1-5.67,2.11-8.68,3.13-3.62,1.22-7.12,2.51-10.61,3.83a10.85,10.85,0,0,0,2.26-1.87c.55-.64,1.25-1.43.67-2s-2.77-.83-3.85-1.22c-2.37-.86-3.26-2.13-6.1-2.75-2.31-.5-5.17-.7-7-1.35-1-.35-1.57-1-3.28-1a19.33,19.33,0,0,0-4,.47c2-.7,4-1.42,6-2.11,4.26-1.51,8.92-3.12,12-4.84a8.39,8.39,0,0,0,2.73-2.14c.31-.47.86-1,.06-1.33-1-.39-2.91-.49-4-.84-1.81-.57-2.87-1.27-5.37-1.53a54.16,54.16,0,0,1-6.08-.66,7.79,7.79,0,0,0-3.08-.53,25.4,25.4,0,0,0-5.69,1.2c-2.35.76-4.57,1.56-7,2.31-2.87.92-5.68,1.86-8.48,2.83a14,14,0,0,0,2.08-1.3c.56-.43,1.26-1,1-1.32s-1.74-.48-2.4-.71c-1.47-.52-1.77-1.35-3.64-1.7a47,47,0,0,1-4.73-.73,4,4,0,0,0-2.13-.62,23.68,23.68,0,0,0-5,.91c-1,.27-1.9.58-2.82.87-1.3.43-2.65.81-4,1.2-5.17,1.5-10.2,3.12-15.3,4.72,0,0-.06-.06-.3,0-2.52.58-4.86,1.39-6,2.35s-.24,1.54.58,2a13.49,13.49,0,0,1,2.15,1.31A19.69,19.69,0,0,1,290.21,25c.75.84,1,2.37,4.9,1.83.66-.1,1.34-.23,2-.36l-2.18.65c-2.42.76-4.79,1.59-7.26,2.31a55.55,55.55,0,0,0-6.12,2,10.17,10.17,0,0,0-3.07,1.78c-.53.54.06.92.37,1.28.52.63.19,1.47-.05,2.3a2.3,2.3,0,0,0,.93,2.63,3.93,3.93,0,0,1,1.62,2.35c.06.49.28.79,1.34.9,3.41.32,8.35-.71,12.44-1.77,5.22-1.35,10.23-3,15.22-4.54h0c-1.08,1.25.23,2.34,1.53,3.11a26.86,26.86,0,0,1,3.47,2.16c1.14.95,2,2,3.07,3.06,1.4,1.4,2.39,3.85,7.67,3.27.87-.09,1.75-.24,2.63-.4l-2.73.87c-3.11,1-6.12,2.18-9.32,3.16a55.38,55.38,0,0,0-7.86,2.82,9.52,9.52,0,0,0-3.67,2.67c-.55.86.44,1.53,1,2.15,1,1.09.83,2.48.8,3.85,0,1.79.7,3.14,2.34,4.57a10.24,10.24,0,0,1,3.28,4.23c.29.86.73,1.42,2.33,1.71,5.18.91,12.05-.42,17.66-1.88,7.34-1.92,14.18-4.36,21-6.66a3.75,3.75,0,0,0-.24.44c-.94,2.09,1.65,4.13,4.08,5.63a71.39,71.39,0,0,1,6.63,4.26c2.36,1.87,4.4,3.94,6.71,6,3.13,2.78,6.34,7.59,14.51,7.11,6.6-.39,12.9-2.54,18.27-4.38,6.81-2.33,13.16-4.93,19.6-7.37,7.4-2.81,15.11-5.74,20-9.37a9.3,9.3,0,0,0,3.59-4.55C447.09,61.72,447.53,60.38,446.08,59.36Zm-68.71-5.31a18.74,18.74,0,0,0,3.1-.13c1.12-.14,2.22-.34,3.3-.57-2.78.95-5.54,1.91-8.28,2.9A4.56,4.56,0,0,0,377.37,54.05Zm7.7-25.43a29.23,29.23,0,0,1,8.89-2.4,9.45,9.45,0,0,1,4.19.74A42.87,42.87,0,0,0,406,28.29a33.71,33.71,0,0,1,8.84,2.08,40.88,40.88,0,0,0,7.42,2.11c2.11.4,2.59.8,2.42,1.7-.27,1.44-1.61,2.74-4.05,4-5.29,2.76-12,5.18-18.43,7.71-4.34,1.71-8.62,3.45-13.58,4.92a39.58,39.58,0,0,1-7.29,1.58,10.44,10.44,0,0,1-5.65-.89c-.28-.16-.58-.31-.89-.46l-1-.61a80.86,80.86,0,0,0-12.32-6.53,14.08,14.08,0,0,0-5.63-3.15c-.18-.05-.38-.07-.57-.11l0,0a.88.88,0,0,1,.18-1.31q1.58-.52,3.12-1.08a3.42,3.42,0,0,0,1-.2c5.88-2.23,11.6-4.47,17.53-6.58C379.67,30.49,382.54,29.61,385.07,28.62Zm-33,11.8.47-.16a.6.6,0,0,0-.09.15ZM315.47,21.13l-.29,0,.37-.12Zm13.88,7.72a13.14,13.14,0,0,0,2.11-.18l.79-.14-4.05,1.32A4.2,4.2,0,0,0,329.35,28.85Zm12-16.37a29.76,29.76,0,0,1,6.9-1.84A5.41,5.41,0,0,1,351,11a23.67,23.67,0,0,0,5,.68,16.87,16.87,0,0,1,5.37,1.14A18,18,0,0,0,365.65,14c1.28.2,1.48.44,1.07,1a9.32,9.32,0,0,1-4,2.67c-4.36,1.88-9.57,3.6-14.58,5.36-3.38,1.19-6.72,2.39-10.43,3.45a40.65,40.65,0,0,1-5.31,1.2,6.38,6.38,0,0,1-3.62-.38l-.45-.23-.55-.35a33.83,33.83,0,0,0-6.88-3.68,5.92,5.92,0,0,0-3.19-1.83c-.12,0-.25,0-.37-.06l0,0c-.13-.31,0-.59.43-.84l2.46-.8a3.08,3.08,0,0,0,.73-.16c4.7-1.62,9.29-3.25,14-4.81C337.11,13.86,339.36,13.2,341.4,12.48Zm-48,12.72c-1.31-1.48-2.21-3.11-4.63-4.1-.75-.31-1.23-.72-1.32-1.21a.91.91,0,0,1,.36-.76,7,7,0,0,1,2.65-.94l.11,0c-.09.1.05.12.66-.07,4.59-1.44,9.1-2.89,13.7-4.27,1.91-.57,3.87-1.1,5.72-1.69a34.94,34.94,0,0,1,6.22-1.58,3,3,0,0,1,2.19.37,11.19,11.19,0,0,0,3.33.71c.76.1,1.51.19,2.21.33a4.18,4.18,0,0,1,1.68.75,7.72,7.72,0,0,0,2.8,1.25c.75.18,1.3.3.85.76a12.08,12.08,0,0,1-4.07,2.36c-1.31.53-2.73,1-4.19,1.54a1.56,1.56,0,0,0-.48.07,21.58,21.58,0,0,0-4.24,1.45l-4.84,1.5c-3.35,1.05-6.64,2.13-10.15,3.07-1.58.43-3.2.82-4.81,1.1C294.83,26.2,293.86,25.75,293.38,25.2ZM306.24,37a114.64,114.64,0,0,1-15.81,4.14,23.46,23.46,0,0,1-5.84.29c-1-.16-.71-1.09-.84-1.53-.28-.92-1.69-1.54-2.37-2.3s0-2,.14-2.93c.14-.81-.82-1.26-.87-2-.07-1.05,5.7-2.4,7.78-3,3.37-1,6.64-2.14,10-3.16s7-2.07,10.45-3.1a4.73,4.73,0,0,0,1.47-.66l0,0a10.94,10.94,0,0,1,4.79-.6,3.68,3.68,0,0,0,2.06,1.33c.46.18.95.34,1.42.51a10,10,0,0,0,1.87,1.38c1,.6,2.27,1.14,3.41,1.74.52.26,1.12.53,1.68.81.19.11.39.23.61.33a3.63,3.63,0,0,1,.84.64c.58.64-.68,1.43-2.45,2.18l-6.55,2.18c0-.07-.11-.11-.42,0a20.55,20.55,0,0,0-6.08,2.2ZM323,45.31c-2.44-2.43-4.35-5-8.08-6.73a4.14,4.14,0,0,1-2.28-1.93,1.09,1.09,0,0,1,.16-1c3.23-1,6.44-2,9.47-3.12l1.39-.52c3.48-1.16,7-2.31,10.49-3.41,2.37-.74,4.83-1.42,7.12-2.19a33.12,33.12,0,0,1,7.86-2,5,5,0,0,1,3.23.65,19.28,19.28,0,0,0,5,1.25c1.12.18,2.23.37,3.28.6a8.85,8.85,0,0,1,2.79,1.24,16.92,16.92,0,0,0,4.69,2.05c1.18.32,2,.54,1.66,1.22-.67,1.2-2.24,2.32-4.54,3.38-1.6.74-3.36,1.44-5.19,2.12a2.26,2.26,0,0,0-.66.09A20.12,20.12,0,0,0,354,39l-6.14,2c-4.27,1.43-8.45,2.91-13,4.16a54.21,54.21,0,0,1-6.35,1.4C325.45,47,323.89,46.22,323,45.31Zm2.7,26.4a28,28,0,0,1-8.51-.08c-1.58-.37-1.49-2-1.87-2.75-.78-1.61-3.06-2.8-4.35-4.16s-.79-3.32-.93-4.92c-.13-1.34-1.66-2.17-2-3.37-.49-1.72,7.13-3.46,9.82-4.34,4.36-1.43,8.53-3,12.88-4.34s9-2.8,13.48-4.2a4.2,4.2,0,0,0,1.78-.94l0,0a12.62,12.62,0,0,1,6.57-.62,9,9,0,0,0,3.69,2.28l2.36.91a25.54,25.54,0,0,0,3.49,2.38c1.87,1,4,2,6.07,3.12.92.48,2,1,3,1.48q.52.32,1.11.6a10.49,10.49,0,0,1,1.66,1.15c2.53,2.25-5.71,4.89-9.51,6.3l-1.3.46a1,1,0,0,0-.55,0,21.64,21.64,0,0,0-7.14,2.63L347.22,66C340.52,68.22,333.2,70.75,325.67,71.71ZM439.13,68c-6.24,3.73-15.25,6.68-23.4,9.75-5.89,2.21-11.61,4.53-18.14,6.4A56.17,56.17,0,0,1,388.23,86a12.09,12.09,0,0,1-9.82-3c-5.46-4.81-10.11-9.79-16.89-13.2a11.85,11.85,0,0,1-4.59-3.63,2.26,2.26,0,0,1-.33-2,1,1,0,0,1,.14-.24l4.41-1.49a2.48,2.48,0,0,0,1.15-.23c7.54-2.76,14.87-5.55,22.49-8.11,3.14-1.05,6.46-2,9.44-3.12,3.22-1.2,6.29-2.47,10.71-2.72a10.11,10.11,0,0,1,5.49,1.35,42,42,0,0,0,8.84,2.53c1.92.4,3.83.82,5.68,1.31a24.71,24.71,0,0,1,5.49,2.39,49.39,49.39,0,0,0,9.37,4c2.2.67,3.82,1.15,3.8,2.34C443.58,64.38,442,66.27,439.13,68Z"/></g><g id="computing"><path class="cls-2" d="M43.33,73.79c-2,7.7-3.58,15-6.28,22.49-.92,2.58-1.06,6.14-2.94,8.47-2.73,3.66-4.47,1.42-8,1-3-.26-6,.5-9,.25-3.19-.57-6.07-2.33-9-2.83-4-.51-4.46.4-6.06-3.35a15.43,15.43,0,0,1-1-9c.82-6.2,3-12.57,4.51-18.59.92-3.6,3.38-12.2,6.77-14.41,2.42-1.43,5.12,0,7.22.83,5.72,1.72,10.22,4.16,16.18,4.92,5,.51,12.2,3.38,8.19,10"/><text class="cls-3" transform="matrix(0.98, 0.19, -0.19, 0.98, 5.67, 94.62)">c</text><path class="cls-2" d="M91.14,68.16c0,10.39.17,20.14-.73,30.53-.3,3.58.52,8.13-.9,11.69-2,5.52-4.51,3.23-8.44,3.86-3.37.63-6.47,2.56-9.84,3.19-3.65.31-7.29-1-10.66-.71-4.5.63-4.79,1.93-7.57-2.31-2.23-2.94-3.32-7.49-3.59-11.07-.79-8.13-.18-16.89-.14-25,0-4.87.37-16.57,3.48-20.45,2.26-2.59,5.62-1.59,8.15-1.25,6.73.36,12.34,2,19.08,1.08,5.61-1,14.31.4,11.73,10.13"/><text class="cls-4" transform="translate(59.66 104.27) rotate(-13.91)">o</text><path class="cls-2" d="M154.75,116c-12.5-.12-24.22.11-36.7-1-4.3-.38-9.77.58-14-1.14-6.62-2.43-3.86-5.44-4.59-10.17-.75-4-3-7.78-3.8-11.83-.35-4.39,1.26-8.76.9-12.81-.73-5.41-2.29-5.76,2.82-9.08,3.54-2.66,9-4,13.32-4.26,9.77-.92,20.31-.15,30.08,0,5.85,0,19.91.52,24.56,4.28,3.1,2.72,1.89,6.76,1.47,9.79-.47,8.09-2.48,14.82-1.39,22.92,1.11,6.75-.55,17.19-12.24,14.05"/><text class="cls-5" transform="translate(111.13 109.18)">m</text><path class="cls-2" d="M214.45,75c-.08,13.21.14,25.6-.78,38.81-.3,4.54.51,10.32-.92,14.86-2,7-4.52,4.1-8.45,4.91-3.37.81-6.47,3.27-9.84,4.08-3.65.39-7.29-1.29-10.66-.89-4.5.8-4.79,2.45-7.56-2.93-2.23-3.73-3.32-9.52-3.58-14.07-.78-10.32-.16-21.47-.1-31.79,0-6.2.4-21.06,3.51-26,2.27-3.29,5.63-2,8.15-1.61,6.73.45,12.33,2.55,19.08,1.35,5.62-1.21,14.31.49,11.71,12.86"/><text class="cls-5" transform="translate(181.25 103.16)">p</text><path class="cls-2" d="M256.06,75c2.56,7.52,5.2,14.5,7.06,22.26.64,2.66,2.47,5.71,2.17,8.7-.28,4.56-3,3.63-6.09,5.23-2.66,1.43-4.76,3.72-7.42,5.15-3,1.27-6.35,1.38-9.1,2.57-3.6,1.75-3.51,2.77-6.9.52a15.48,15.48,0,0,1-5.78-7c-2.71-5.64-4.4-12.15-6.4-18-1.2-3.53-3.85-12.07-2.23-15.77,1.24-2.53,4.3-2.78,6.5-3.27,5.72-1.68,10.82-2.11,16.22-4.74,4.47-2.3,12.07-3.85,12.36,3.93"/><text class="cls-3" transform="translate(231.54 112.91) rotate(-11.04)">u</text><path class="cls-2" d="M310,62c-.07,13.22.14,25.61-.78,38.81-.3,4.55.51,10.33-.92,14.87-2,7-4.52,4.1-8.45,4.91-3.37.8-6.47,3.26-9.84,4.07-3.65.39-7.29-1.28-10.66-.88-4.5.8-4.79,2.45-7.56-2.93-2.23-3.74-3.32-9.52-3.58-14.07-.78-10.32-.16-21.47-.1-31.79,0-6.2.4-21.06,3.51-26,2.27-3.29,5.63-2,8.15-1.61,6.73.45,12.33,2.55,19.08,1.35,5.62-1.21,14.31.49,11.71,12.86"/><text class="cls-5" transform="translate(280.15 103.83)">t</text><path class="cls-2" d="M346.78,70c-1.56,11.88-2.83,23-5,34.85-.73,4.06-.83,9.33-2.34,13.29-2.2,6.13-3.62,3.3-6.45,3.68-2.44.43-4.89,2.38-7.33,2.81-2.59,0-4.93-1.78-7.33-1.72-3.22.33-3.61,1.79-4.93-3.29-1.12-3.55-1.22-8.85-.88-13,.64-9.36,2.35-19.34,3.58-28.62.73-5.57,2.68-18.91,5.42-23.08,2-2.76,4.15-1.34,5.86-.74,4.64,1,8.31,3.36,13.14,2.86,4.06-.59,9.92,1.69,6.69,12.6"/><text class="cls-3" transform="translate(320.84 117.42) rotate(4.25)">i</text><path class="cls-2" d="M396.6,65.39c1.77,10.22,3.75,19.74,4.57,30.13.29,3.56,2,7.87,1,11.66-1.3,5.81-4.56,4.08-8.92,5.49-3.72,1.3-6.9,3.83-10.62,5.13-4.09,1-8.46.48-12.24,1.47-5,1.52-5.09,2.86-9-.74-3.05-2.43-5.1-6.68-6-10.14-2.35-7.81-3.2-16.54-4.59-24.52-.83-4.79-2.5-16.34.34-20.78,2.12-3,6.11-2.71,9-2.89,7.72-1,14.38-.52,21.88-2.81,6.22-2.06,16.34-2.5,15.12,7.57"/><text class="cls-3" transform="translate(362.31 111.83) rotate(-12.82)">n</text><path class="cls-2" d="M451,66.41c-.07,13.21.14,25.6-.78,38.81-.3,4.54.51,10.33-.92,14.86-2,7-4.51,4.11-8.45,4.91-3.37.81-6.47,3.27-9.84,4.08-3.65.39-7.29-1.28-10.66-.89-4.5.8-4.78,2.45-7.56-2.93-2.23-3.73-3.32-9.52-3.57-14.06-.79-10.33-.16-21.48-.11-31.8,0-6.19.4-21.06,3.51-26,2.27-3.29,5.63-2,8.15-1.6,6.74.45,12.34,2.54,19.08,1.34,5.62-1.21,14.31.49,11.71,12.87"/><text class="cls-5" transform="translate(415.2 102.64)">g</text></g><text class="cls-6" transform="translate(24.41 46.05)">Playg<tspan class="cls-7" x="121.83" y="0">r</tspan><tspan x="139.39" y="0">ound</tspan></text></g></g></svg>