<svg id="Layer_1" data-name="Layer 1" xmlns="http://www.w3.org/2000/svg" viewBox="0 0 370 268"><defs><style>.cls-1{fill:#004996;}.cls-2{fill:#fff;}.cls-3{fill:#ffed00;}.cls-4{fill:none;stroke:#fff;stroke-miterlimit:10;}</style></defs><title>esf</title><rect class="cls-1" width="370" height="268"/><path class="cls-2" d="M36.7,189.87a12,12,0,0,1-2,.81,13,13,0,0,1-2,.43,16.25,16.25,0,0,1-2.13.13,11.13,11.13,0,0,1-3.64-.56,8,8,0,0,1-2.8-1.66,6.94,6.94,0,0,1-1.77-2.56,9.21,9.21,0,0,1,.1-6.74,6.92,6.92,0,0,1,1.95-2.51,8.38,8.38,0,0,1,2.86-1.48,12,12,0,0,1,3.37-.47,18.29,18.29,0,0,1,6,1.18v4.13a16.27,16.27,0,0,0-2.29-1.2,6.71,6.71,0,0,0-2.65-.47,6.18,6.18,0,0,0-2.54.53,4.73,4.73,0,0,0-1.9,1.54,4.09,4.09,0,0,0-.09,4.5A4.35,4.35,0,0,0,28.91,187a5.32,5.32,0,0,0,2.52.58,8.2,8.2,0,0,0,2.14-.27,10.06,10.06,0,0,0,1.71-.62,15.91,15.91,0,0,0,1.42-.79Z"/><path class="cls-2" d="M49.24,180.22l-1.49,4.06a2.73,2.73,0,0,0-1.87-.88,2.05,2.05,0,0,0-1.47.58,5.52,5.52,0,0,0-1.2,2.14V191h-4V179.6h4v2.77a5.53,5.53,0,0,1,1.35-2,3.12,3.12,0,0,1,2.27-1,3.33,3.33,0,0,1,1.19.2A9.39,9.39,0,0,1,49.24,180.22Z"/><path class="cls-2" d="M62.17,185.31a6.19,6.19,0,0,1-.74,3,5.27,5.27,0,0,1-2.22,2.11,8.7,8.7,0,0,1-7.2,0,5.13,5.13,0,0,1-2.21-2.11,6.19,6.19,0,0,1-.74-3,6.55,6.55,0,0,1,.41-2.35,5.17,5.17,0,0,1,1.25-1.87,5.53,5.53,0,0,1,2.06-1.25,8.41,8.41,0,0,1,2.83-.44,8.63,8.63,0,0,1,2.86.44,5.54,5.54,0,0,1,2.05,1.25A5.3,5.3,0,0,1,61.75,183,6.39,6.39,0,0,1,62.17,185.31Zm-4.26,0a3.44,3.44,0,0,0-.59-2.13,2.27,2.27,0,0,0-3.41,0,3.37,3.37,0,0,0-.59,2.13,3.48,3.48,0,0,0,.59,2.13,2.24,2.24,0,0,0,3.41,0A3.51,3.51,0,0,0,57.91,185.31Z"/><path class="cls-2" d="M76.47,191h-4v-6.17a3.93,3.93,0,0,0-.31-1.64,1.31,1.31,0,0,0-1.35-.71,1.86,1.86,0,0,0-.87.19,2.28,2.28,0,0,0-.67.48,4.12,4.12,0,0,0-.5.56l-.42.57V191h-4V179.6h4v1.64a5.81,5.81,0,0,1,1.91-1.43,5.48,5.48,0,0,1,2.14-.41q4.11,0,4.11,4.92Z"/><path class="cls-2" d="M86.56,178.37a7,7,0,0,0-1.49-.21,1.27,1.27,0,0,0-1,.42,1.84,1.84,0,0,0-.37,1.21v.41h2v2.74h-2V191H79.63v-8.1H77.77V180.2h1.86V180a5.71,5.71,0,0,1,.47-2.28A4,4,0,0,1,81.65,176a5.34,5.34,0,0,1,2.88-.69,10.07,10.07,0,0,1,2,.21Z"/><path class="cls-2" d="M99.89,190.46a15.24,15.24,0,0,1-1.64.56,6.35,6.35,0,0,1-1.81.22,2.07,2.07,0,0,1-1.39-.36,2,2,0,0,1-.56-.85,6.42,6.42,0,0,1-1.45.87,5.53,5.53,0,0,1-2.09.34,4.23,4.23,0,0,1-2-.43,2.49,2.49,0,0,1-1.07-1.09,3.11,3.11,0,0,1-.31-1.36,2.79,2.79,0,0,1,.53-1.74,4,4,0,0,1,1.43-1.13,18.3,18.3,0,0,1,2.38-.91l1.28-.41.64-.22a3,3,0,0,0,.45-.2,2.27,2.27,0,0,0-.33-1.31,1.76,1.76,0,0,0-1.46-.47,5.26,5.26,0,0,0-2.46.59,8.66,8.66,0,0,0-2.08,1.5V181a7.31,7.31,0,0,1,1.63-.88,9.16,9.16,0,0,1,1.83-.51,11.26,11.26,0,0,1,1.93-.17,6.07,6.07,0,0,1,3.73,1A3.14,3.14,0,0,1,98.31,183v4.41a3.12,3.12,0,0,0,.11.94.45.45,0,0,0,.44.31,2.48,2.48,0,0,0,1-.33Zm-5.63-2.19v-2.7a11.15,11.15,0,0,0-2.1,1.05,1.46,1.46,0,0,0-.66,1.26,1.15,1.15,0,0,0,.33.88,1.11,1.11,0,0,0,.77.3,1.74,1.74,0,0,0,.83-.23A6.37,6.37,0,0,0,94.26,188.27Z"/><path class="cls-2" d="M123.33,189.94l-.87.31c-.24.08-.47.16-.69.22s-.54.16-1,.26a19.83,19.83,0,0,1-2.13.38,17.66,17.66,0,0,1-2.24.13,10.91,10.91,0,0,1-4.38-.87,7.12,7.12,0,0,1-3.21-2.68,7.85,7.85,0,0,1-1.21-4.47,9.46,9.46,0,0,1,.62-3.35,5.87,5.87,0,0,1,1.91-2.64A9,9,0,0,1,112.3,176a9.35,9.35,0,0,1,2.12-.58,17.66,17.66,0,0,1,2.28-.14,15.17,15.17,0,0,1,3.39.31c.89.2,1.87.47,2.93.81v3.68a12.94,12.94,0,0,0-2.23-1,8.9,8.9,0,0,0-2.94-.41,6,6,0,0,0-3.25.76,4.29,4.29,0,0,0-1.7,1.84,5,5,0,0,0-.48,2.07,4.48,4.48,0,0,0,.55,2.17,4,4,0,0,0,1.67,1.59,5.44,5.44,0,0,0,2.68.61,8.32,8.32,0,0,0,1.91-.24v-1.83h-2.11v-3.13h6.21Z"/><path class="cls-2" d="M138.61,179.6l-7.77,16.64h-4.09l3.15-6.7-4.53-9.94h4.35l2.32,5.69,2.64-5.69Z"/><path class="cls-2" d="M160.14,191h-4v-6.1a3.3,3.3,0,0,0-.4-1.82,1.41,1.41,0,0,0-1.26-.6,1.94,1.94,0,0,0-1.39.51,9.27,9.27,0,0,0-1.07,1.29V191h-4v-6.1a3.54,3.54,0,0,0-.37-1.79,1.38,1.38,0,0,0-1.31-.63,1.9,1.9,0,0,0-.83.18,2.4,2.4,0,0,0-.61.41,5.42,5.42,0,0,0-.57.66l-.43.55V191h-4V179.6h4v1.64a6.22,6.22,0,0,1,1.86-1.4,5.09,5.09,0,0,1,2.17-.44,5.83,5.83,0,0,1,1.12.11,4.08,4.08,0,0,1,1,.36,3.29,3.29,0,0,1,.93.71,3.34,3.34,0,0,1,.66,1,7.47,7.47,0,0,1,2-1.67,5.11,5.11,0,0,1,2.42-.56,4.43,4.43,0,0,1,2.3.55,3.34,3.34,0,0,1,1.37,1.59,6.5,6.5,0,0,1,.44,2.52Z"/><path class="cls-2" d="M174.64,191h-4v-1a6.49,6.49,0,0,1-1.36.89,4.57,4.57,0,0,1-2,.35,5.33,5.33,0,0,1-2.45-.62,4.8,4.8,0,0,1-2-1.93,6.33,6.33,0,0,1-.78-3.29,7.37,7.37,0,0,1,.59-2.93,5,5,0,0,1,1.83-2.22,6.18,6.18,0,0,1,4.87-.6,4.82,4.82,0,0,1,1.24.63v-4.81h4Zm-4-3.64V183c-.48-.26-.84-.45-1.11-.56a2.29,2.29,0,0,0-.94-.17,2,2,0,0,0-1.59.81,3.49,3.49,0,0,0-.63,2.2,3.09,3.09,0,0,0,.67,2.21,2.08,2.08,0,0,0,1.55.69,2.63,2.63,0,0,0,1.18-.23A5.27,5.27,0,0,0,170.59,187.4Z"/><path class="cls-2" d="M188.92,186.3h-8A2.85,2.85,0,0,0,182,188a3.43,3.43,0,0,0,2.09.67,10.89,10.89,0,0,0,4.51-1.15V190a12.92,12.92,0,0,1-2.15.83,11.49,11.49,0,0,1-3.22.38,7.52,7.52,0,0,1-3.59-.79,5.2,5.2,0,0,1-2.22-2.13,6.29,6.29,0,0,1-.73-3.06,6.12,6.12,0,0,1,.73-3,5.12,5.12,0,0,1,2.22-2.09,7.77,7.77,0,0,1,3.59-.76,6.32,6.32,0,0,1,2.69.6,4.92,4.92,0,0,1,2.14,2,6.62,6.62,0,0,1,.83,3.52Zm-3.79-2a2.63,2.63,0,0,0-.55-1.76,1.9,1.9,0,0,0-1.56-.66,2.16,2.16,0,0,0-1.64.67,2.49,2.49,0,0,0-.62,1.75Z"/><path class="cls-2" d="M195.17,191h-4.06V179.6h4.06ZM194.84,177a1.65,1.65,0,0,1-.5,1.21,1.66,1.66,0,0,1-1.2.49,1.77,1.77,0,0,1-.86-.22,1.58,1.58,0,0,1-.61-.62,1.7,1.7,0,0,1,1.47-2.56,1.71,1.71,0,0,1,1.7,1.7Z"/><path class="cls-2" d="M207,190.37a9.25,9.25,0,0,1-1.73.59,9,9,0,0,1-2.12.28q-4.37,0-4.37-4.27v-4.56h-1.83v-.71l5.43-5.52h.46v3.42h3.86v2.81h-3.86v3.66a5.91,5.91,0,0,0,.07,1,1,1,0,0,0,.45.65,1.84,1.84,0,0,0,1.1.27,6,6,0,0,0,2.54-.81Z"/><path class="cls-2" d="M221,191h-4v-5.93a.53.53,0,0,1,0-.13v-.27a3.19,3.19,0,0,0-.35-1.5,1.33,1.33,0,0,0-1.32-.69,2,2,0,0,0-1.35.51,6.85,6.85,0,0,0-1.11,1.29V191h-4V175.47h4v5.77a5.65,5.65,0,0,1,2-1.45,5.52,5.52,0,0,1,2.07-.39q4.11,0,4.11,4.62Z"/><path class="cls-2" d="M235.24,190.46a15.24,15.24,0,0,1-1.64.56,6.35,6.35,0,0,1-1.81.22,2.07,2.07,0,0,1-1.39-.36,2,2,0,0,1-.56-.85,6.42,6.42,0,0,1-1.45.87,5.53,5.53,0,0,1-2.09.34,4.23,4.23,0,0,1-2-.43,2.49,2.49,0,0,1-1.07-1.09,3.11,3.11,0,0,1-.31-1.36,2.73,2.73,0,0,1,.53-1.74,4,4,0,0,1,1.43-1.13,17.75,17.75,0,0,1,2.38-.91l1.28-.41.64-.22a3,3,0,0,0,.45-.2,2.27,2.27,0,0,0-.33-1.31,1.76,1.76,0,0,0-1.46-.47,5.26,5.26,0,0,0-2.46.59,8.66,8.66,0,0,0-2.08,1.5V181a7.31,7.31,0,0,1,1.63-.88,9.16,9.16,0,0,1,1.83-.51,11.35,11.35,0,0,1,1.93-.17,6.07,6.07,0,0,1,3.73,1,3.14,3.14,0,0,1,1.26,2.65v4.41a3.12,3.12,0,0,0,.11.94.45.45,0,0,0,.44.31,2.53,2.53,0,0,0,1-.33Zm-5.63-2.19v-2.7a11.48,11.48,0,0,0-2.1,1.05,1.46,1.46,0,0,0-.66,1.26,1.15,1.15,0,0,0,.33.88,1.11,1.11,0,0,0,.77.3,1.74,1.74,0,0,0,.83-.23A6.37,6.37,0,0,0,229.61,188.27Z"/><path class="cls-2" d="M245.45,187.7a3.24,3.24,0,0,1-1.15,2.56,5.19,5.19,0,0,1-3.42,1,10.21,10.21,0,0,1-2.26-.23,19,19,0,0,1-2.16-.66v-2.87a14.41,14.41,0,0,0,1.78.88,4.22,4.22,0,0,0,1.65.31c1,0,1.51-.28,1.51-.84a.68.68,0,0,0-.21-.49,3.18,3.18,0,0,0-.77-.5c-.36-.18-.85-.4-1.45-.66a5.67,5.67,0,0,1-1.91-1.32,2.81,2.81,0,0,1-.79-2,3,3,0,0,1,.52-1.64,3.75,3.75,0,0,1,1.58-1.29,6,6,0,0,1,2.55-.5c.24,0,.55,0,.92,0a9.31,9.31,0,0,1,1.4.27,7.4,7.4,0,0,1,1.61.6v2.8l-.6-.36a5.24,5.24,0,0,0-.64-.33,7,7,0,0,0-1-.32,4.71,4.71,0,0,0-1.12-.14,1.34,1.34,0,0,0-1,.27.79.79,0,0,0-.25.54.69.69,0,0,0,.27.52,4.47,4.47,0,0,0,1.2.61A10,10,0,0,1,244,185a3.43,3.43,0,0,1,1.16,1.19A3.39,3.39,0,0,1,245.45,187.7Z"/><path class="cls-2" d="M260.26,185.31a6.19,6.19,0,0,1-.74,3,5.16,5.16,0,0,1-2.22,2.11,8.7,8.7,0,0,1-7.2,0,5.19,5.19,0,0,1-2.21-2.11,6.19,6.19,0,0,1-.74-3,6.55,6.55,0,0,1,.41-2.35,5.3,5.3,0,0,1,1.25-1.87,5.7,5.7,0,0,1,2.06-1.25,8.45,8.45,0,0,1,2.83-.44,8.63,8.63,0,0,1,2.86.44,5.58,5.58,0,0,1,2.06,1.25,5.14,5.14,0,0,1,1.22,1.86A6.39,6.39,0,0,1,260.26,185.31Zm-4.26,0a3.37,3.37,0,0,0-.59-2.13,2.27,2.27,0,0,0-3.41,0,4.11,4.11,0,0,0,0,4.26,2,2,0,0,0,1.69.79,2,2,0,0,0,1.71-.78A3.44,3.44,0,0,0,256,185.31Z"/><path class="cls-2" d="M266.62,191h-4.06V175.47h4.06Z"/><path class="cls-2" d="M288.63,191H276.89V175.47h11.55v3.12h-6.85v2.86h6.53v3.13h-6.53v3.32h7Z"/><path class="cls-2" d="M309.3,179.6,304.79,191h-2.55l-2.55-6.24L297.15,191H294.6L290,179.6h4.09l2.09,5.78,2.24-5.78H301l2.26,5.78,2-5.78Z"/><path class="cls-2" d="M320.8,180.22l-1.49,4.06a2.71,2.71,0,0,0-1.86-.88A2.08,2.08,0,0,0,316,184a5.52,5.52,0,0,0-1.2,2.14V191h-4V179.6h4v2.77a5.8,5.8,0,0,1,1.35-2,3.12,3.12,0,0,1,2.27-1,3.29,3.29,0,0,1,1.19.2A8.8,8.8,0,0,1,320.8,180.22Z"/><path class="cls-2" d="M333.73,185.31a6.19,6.19,0,0,1-.74,3,5.27,5.27,0,0,1-2.22,2.11,8.7,8.7,0,0,1-7.2,0,5.19,5.19,0,0,1-2.21-2.11,6.19,6.19,0,0,1-.74-3A6.55,6.55,0,0,1,321,183a5.3,5.3,0,0,1,1.25-1.87,5.61,5.61,0,0,1,2.06-1.25,8.45,8.45,0,0,1,2.83-.44,8.63,8.63,0,0,1,2.86.44,5.46,5.46,0,0,1,2.05,1.25,5,5,0,0,1,1.23,1.86A6.39,6.39,0,0,1,333.73,185.31Zm-4.26,0a3.37,3.37,0,0,0-.59-2.13,2.27,2.27,0,0,0-3.41,0,3.44,3.44,0,0,0-.59,2.13,3.48,3.48,0,0,0,.59,2.13,2.24,2.24,0,0,0,3.41,0A3.44,3.44,0,0,0,329.47,185.31Z"/><path class="cls-2" d="M348.39,185.24a7.44,7.44,0,0,1-.33,2.21,6,6,0,0,1-1,1.93,4.73,4.73,0,0,1-1.72,1.36,5.69,5.69,0,0,1-2.44.5,5.23,5.23,0,0,1-1.77-.24,7,7,0,0,1-1.29-.63v5.87h-4V179.6h4v1a6.37,6.37,0,0,1,1.34-.89,4.78,4.78,0,0,1,2-.35,5.29,5.29,0,0,1,2.44.62,4.82,4.82,0,0,1,2,1.93A6.33,6.33,0,0,1,348.39,185.24Zm-4.26.09a3.69,3.69,0,0,0-.33-1.68,2,2,0,0,0-.84-.93,2.18,2.18,0,0,0-1.07-.29,2.65,2.65,0,0,0-1.17.23,4.55,4.55,0,0,0-.87.58v4.37l.46.25a2.69,2.69,0,0,0,.48.24,2.64,2.64,0,0,0,.52.17,2.2,2.2,0,0,0,.58.07,2,2,0,0,0,1.6-.81A3.43,3.43,0,0,0,344.13,185.33Z"/><path class="cls-2" d="M73.34,220H61.61V204.47H73.15v3.12H66.3v2.86h6.54v3.13H66.3v3.32h7Z"/><path class="cls-2" d="M87.86,220h-4v-1.63a6.07,6.07,0,0,1-1.8,1.37,5,5,0,0,1-2.25.46c-1.73,0-2.85-.51-3.35-1.51a7.47,7.47,0,0,1-.77-3.41V208.6h4v6.18a3.92,3.92,0,0,0,.31,1.63,1.3,1.3,0,0,0,1.34.71,1.91,1.91,0,0,0,1.41-.51,8.7,8.7,0,0,0,1.06-1.29V208.6h4Z"/><path class="cls-2" d="M100.51,209.22,99,213.28a2.69,2.69,0,0,0-1.86-.88,2.09,2.09,0,0,0-1.48.58,5.66,5.66,0,0,0-1.19,2.14V220h-4V208.6h4v2.77a5.63,5.63,0,0,1,1.34-2,3.14,3.14,0,0,1,2.27-1,3.35,3.35,0,0,1,1.2.2A9.39,9.39,0,0,1,100.51,209.22Z"/><path class="cls-2" d="M113.43,214.31a6.08,6.08,0,0,1-.74,3,5.16,5.16,0,0,1-2.22,2.11,8.67,8.67,0,0,1-7.19,0,5.16,5.16,0,0,1-2.22-2.11,6.19,6.19,0,0,1-.73-3,6.34,6.34,0,0,1,.41-2.35,5.28,5.28,0,0,1,1.24-1.87,5.66,5.66,0,0,1,2.07-1.25,8.37,8.37,0,0,1,2.83-.44,8.57,8.57,0,0,1,2.85.44,5.5,5.5,0,0,1,2.06,1.25A5.3,5.3,0,0,1,113,212,6.39,6.39,0,0,1,113.43,214.31Zm-4.25,0a3.44,3.44,0,0,0-.59-2.13,2.28,2.28,0,0,0-3.42,0,4.11,4.11,0,0,0,0,4.26,2,2,0,0,0,1.7.79,2,2,0,0,0,1.71-.78A3.51,3.51,0,0,0,109.18,214.31Z"/><path class="cls-2" d="M128.09,214.24a7.44,7.44,0,0,1-.33,2.21,5.61,5.61,0,0,1-1,1.93,4.73,4.73,0,0,1-1.72,1.36,5.65,5.65,0,0,1-2.44.5,5.23,5.23,0,0,1-1.77-.24,7,7,0,0,1-1.29-.63v5.87h-4V208.6h4v1a6.44,6.44,0,0,1,1.35-.89,4.73,4.73,0,0,1,2-.35,5.33,5.33,0,0,1,2.45.62,4.8,4.8,0,0,1,2,1.93A6.33,6.33,0,0,1,128.09,214.24Zm-4.26.09a3.7,3.7,0,0,0-.32-1.68,2.13,2.13,0,0,0-.84-.93,2.21,2.21,0,0,0-1.07-.29,2.69,2.69,0,0,0-1.18.23,4.55,4.55,0,0,0-.87.58v4.37l.46.25a2.69,2.69,0,0,0,.48.24,2.88,2.88,0,0,0,.52.17,2.22,2.22,0,0,0,.59.07,2,2,0,0,0,1.59-.81A3.43,3.43,0,0,0,123.83,214.33Z"/><path class="cls-2" d="M141.91,215.3h-8A2.85,2.85,0,0,0,135,217a3.43,3.43,0,0,0,2.09.67,10.89,10.89,0,0,0,4.51-1.15V219a12.92,12.92,0,0,1-2.15.83,11.49,11.49,0,0,1-3.22.38,7.52,7.52,0,0,1-3.59-.79,5.2,5.2,0,0,1-2.22-2.13,6.29,6.29,0,0,1-.73-3.06,6.12,6.12,0,0,1,.73-3,5.12,5.12,0,0,1,2.22-2.09,7.77,7.77,0,0,1,3.59-.76,6.32,6.32,0,0,1,2.69.6,4.92,4.92,0,0,1,2.14,2,6.62,6.62,0,0,1,.83,3.52Zm-3.79-2a2.63,2.63,0,0,0-.55-1.76,1.9,1.9,0,0,0-1.56-.66,2.16,2.16,0,0,0-1.64.67,2.49,2.49,0,0,0-.62,1.75Z"/><path class="cls-2" d="M155.76,219.46a15.24,15.24,0,0,1-1.64.56,6.35,6.35,0,0,1-1.81.22,2.07,2.07,0,0,1-1.39-.36,2,2,0,0,1-.56-.85,6.2,6.2,0,0,1-1.45.87,5.53,5.53,0,0,1-2.09.34,4.16,4.16,0,0,1-2-.43,2.46,2.46,0,0,1-1.08-1.09,3.11,3.11,0,0,1-.31-1.36,2.79,2.79,0,0,1,.53-1.74,4.06,4.06,0,0,1,1.43-1.13,18,18,0,0,1,2.39-.91l1.27-.41.65-.22a4.18,4.18,0,0,0,.45-.2,2.27,2.27,0,0,0-.34-1.31,1.75,1.75,0,0,0-1.46-.47,5.31,5.31,0,0,0-2.46.59,8.66,8.66,0,0,0-2.08,1.5V210a7.53,7.53,0,0,1,1.63-.88,9.16,9.16,0,0,1,1.83-.51,11.35,11.35,0,0,1,1.93-.17,6.1,6.1,0,0,1,3.74,1,3.16,3.16,0,0,1,1.25,2.65v4.41a2.78,2.78,0,0,0,.12.94.43.43,0,0,0,.43.31,2.48,2.48,0,0,0,1-.33Zm-5.62-2.19v-2.7a11.15,11.15,0,0,0-2.1,1.05,1.45,1.45,0,0,0-.67,1.26,1.15,1.15,0,0,0,.33.88,1.11,1.11,0,0,0,.77.3,1.71,1.71,0,0,0,.83-.23A7.2,7.2,0,0,0,150.14,217.27Z"/><path class="cls-2" d="M169.56,220h-4v-6.17a3.93,3.93,0,0,0-.31-1.64,1.31,1.31,0,0,0-1.35-.71,1.86,1.86,0,0,0-.87.19,2.47,2.47,0,0,0-.68.48,6.13,6.13,0,0,0-.5.56l-.41.57V220h-4V208.6h4v1.64a5.81,5.81,0,0,1,1.91-1.43,5.48,5.48,0,0,1,2.14-.41q4.11,0,4.11,4.92Z"/><path class="cls-2" d="M190.36,215.51a4.36,4.36,0,0,1-.74,2.53,4.77,4.77,0,0,1-2.09,1.63,7.73,7.73,0,0,1-3.06.57c-.32,0-.72,0-1.19-.06a12.79,12.79,0,0,1-1.86-.35A13.63,13.63,0,0,1,179,219v-3.82a16.24,16.24,0,0,0,2.32,1.22,6.21,6.21,0,0,0,2.44.48,2.09,2.09,0,0,0,1.55-.4,1.14,1.14,0,0,0,.36-.74,1.28,1.28,0,0,0-.61-1.07,9.12,9.12,0,0,0-1.76-.89,14.73,14.73,0,0,1-2.25-1.17,5.56,5.56,0,0,1-1.58-1.59,4.17,4.17,0,0,1-.61-2.26,4.15,4.15,0,0,1,2.51-3.9,7.2,7.2,0,0,1,3.1-.6,10.84,10.84,0,0,1,4.23.82,7.43,7.43,0,0,1,1,.49v3.65a12.87,12.87,0,0,0-2.13-1.22,5.93,5.93,0,0,0-2.51-.54,2,2,0,0,0-1.27.33,1.08,1.08,0,0,0-.39.84,1,1,0,0,0,.39.79,6.44,6.44,0,0,0,1.41.82,28.33,28.33,0,0,1,2.87,1.52,5.79,5.79,0,0,1,1.69,1.55A3.75,3.75,0,0,1,190.36,215.51Z"/><path class="cls-2" d="M205.51,214.31a6.08,6.08,0,0,1-.74,3,5.16,5.16,0,0,1-2.22,2.11,8.7,8.7,0,0,1-7.2,0,5.19,5.19,0,0,1-2.21-2.11,6.19,6.19,0,0,1-.73-3,6.34,6.34,0,0,1,.41-2.35,5.28,5.28,0,0,1,1.24-1.87,5.7,5.7,0,0,1,2.06-1.25,8.45,8.45,0,0,1,2.83-.44,8.63,8.63,0,0,1,2.86.44,5.58,5.58,0,0,1,2.06,1.25A5.3,5.3,0,0,1,205.1,212,6.61,6.61,0,0,1,205.51,214.31Zm-4.25,0a3.44,3.44,0,0,0-.59-2.13,2.06,2.06,0,0,0-1.72-.77,2,2,0,0,0-1.7.77,4.11,4.11,0,0,0,0,4.26,2,2,0,0,0,1.69.79,2,2,0,0,0,1.72-.78A3.51,3.51,0,0,0,201.26,214.31Z"/><path class="cls-2" d="M217.41,219.51c-.34.13-.7.24-1.07.35a9.9,9.9,0,0,1-1.26.27,10.42,10.42,0,0,1-1.54.11,7.05,7.05,0,0,1-3.17-.64,5.23,5.23,0,0,1-2-1.59,5.88,5.88,0,0,1-1-2,6.93,6.93,0,0,1-.27-1.76,6.57,6.57,0,0,1,.28-1.77,5.81,5.81,0,0,1,1-1.93,5.14,5.14,0,0,1,2-1.56,7.25,7.25,0,0,1,3.19-.63,9.68,9.68,0,0,1,2.07.18,13.41,13.41,0,0,1,1.62.48v3.18a11,11,0,0,0-3.09-.63,3.07,3.07,0,0,0-1.92.65,2.44,2.44,0,0,0-.83,2,2.69,2.69,0,0,0,.41,1.53,2.51,2.51,0,0,0,1.06.91,3,3,0,0,0,1.28.3,6.23,6.23,0,0,0,1.38-.18c.52-.12,1.14-.3,1.89-.52Z"/><path class="cls-2" d="M223.63,220h-4.06V208.6h4.06ZM223.3,206a1.65,1.65,0,0,1-.5,1.21,1.67,1.67,0,0,1-1.21.49,1.73,1.73,0,0,1-.85-.22,1.68,1.68,0,0,1-.62-.62,1.64,1.64,0,0,1-.22-.86,1.66,1.66,0,0,1,.49-1.2,1.64,1.64,0,0,1,1.2-.5,1.71,1.71,0,0,1,1.71,1.7Z"/><path class="cls-2" d="M238.27,219.46a15.24,15.24,0,0,1-1.64.56,6.35,6.35,0,0,1-1.81.22,2.07,2.07,0,0,1-1.39-.36,2,2,0,0,1-.56-.85,6.2,6.2,0,0,1-1.45.87,5.53,5.53,0,0,1-2.09.34,4.16,4.16,0,0,1-2-.43,2.46,2.46,0,0,1-1.08-1.09,3.11,3.11,0,0,1-.31-1.36,2.79,2.79,0,0,1,.53-1.74,4.06,4.06,0,0,1,1.43-1.13,18,18,0,0,1,2.39-.91l1.27-.41.65-.22a4.18,4.18,0,0,0,.45-.2,2.27,2.27,0,0,0-.34-1.31,1.75,1.75,0,0,0-1.46-.47,5.28,5.28,0,0,0-2.46.59,8.66,8.66,0,0,0-2.08,1.5V210a7.53,7.53,0,0,1,1.63-.88,9.16,9.16,0,0,1,1.83-.51,11.35,11.35,0,0,1,1.93-.17,6.1,6.1,0,0,1,3.74,1,3.16,3.16,0,0,1,1.25,2.65v4.41a2.78,2.78,0,0,0,.12.94.43.43,0,0,0,.43.31,2.48,2.48,0,0,0,1-.33Zm-5.62-2.19v-2.7a11.64,11.64,0,0,0-2.11,1.05,1.46,1.46,0,0,0-.66,1.26,1.15,1.15,0,0,0,.33.88,1.11,1.11,0,0,0,.77.3,1.71,1.71,0,0,0,.83-.23A7.2,7.2,0,0,0,232.65,217.27Z"/><path class="cls-2" d="M243.8,220h-4.06V204.47h4.06Z"/><path class="cls-2" d="M265.22,213.74h-6.45V220h-4.7V204.47h11.15v3.12h-6.45v3h6.45Z"/><path class="cls-2" d="M279.76,220h-4.05v-1.63a6.16,6.16,0,0,1-1.79,1.37,5.06,5.06,0,0,1-2.26.46c-1.73,0-2.84-.51-3.35-1.51a7.47,7.47,0,0,1-.76-3.41V208.6h4v6.18a4.08,4.08,0,0,0,.31,1.63,1.32,1.32,0,0,0,1.35.71,1.94,1.94,0,0,0,1.41-.51,9.37,9.37,0,0,0,1-1.29V208.6h4.05Z"/><path class="cls-2" d="M294.56,220h-4v-6.17a4.1,4.1,0,0,0-.31-1.64,1.33,1.33,0,0,0-1.36-.71,1.92,1.92,0,0,0-.87.19,2.42,2.42,0,0,0-.67.48,4.93,4.93,0,0,0-.5.56l-.42.57V220h-4V208.6h4v1.64a5.84,5.84,0,0,1,1.92-1.43,5.44,5.44,0,0,1,2.14-.41q4.11,0,4.11,4.92Z"/><path class="cls-2" d="M309.08,220H305v-1a6.49,6.49,0,0,1-1.36.89,4.57,4.57,0,0,1-2,.35,5.33,5.33,0,0,1-2.45-.62,4.8,4.8,0,0,1-2-1.93,6.33,6.33,0,0,1-.78-3.29,7.37,7.37,0,0,1,.59-2.93,5.07,5.07,0,0,1,1.83-2.22,6.18,6.18,0,0,1,4.87-.6,4.82,4.82,0,0,1,1.24.63v-4.81h4.05ZM305,216.4V212c-.48-.26-.84-.45-1.11-.56a2.29,2.29,0,0,0-.94-.17,2,2,0,0,0-1.59.81,3.49,3.49,0,0,0-.63,2.2,3.09,3.09,0,0,0,.67,2.21,2.08,2.08,0,0,0,1.55.69,2.63,2.63,0,0,0,1.18-.23A5.27,5.27,0,0,0,305,216.4Z"/><path class="cls-2" d="M233,46.13a3.13,3.13,0,0,1,1.26-1.47,6.06,6.06,0,0,1,3.38-.35c1.18.13,3.6,1.2,7.11,4.11a57.34,57.34,0,0,1,6.66,6.44A18.28,18.28,0,0,1,252.84,52c-2.3-2-10.35-7.28-12.86-8.28-2.82-1.14-6.7-1.44-7,2.44Z"/><path class="cls-2" d="M235.89,41.25c3.41-.85,3.78,1.4,4.5,1.94L243,44.78c-3.52-7.8-7.11-3.53-7.11-3.53Z"/><path class="cls-2" d="M237.39,45.22c8.08,5.92,1.31,8.66,1.31,8.66a2.69,2.69,0,0,0,3.54-.81,6,6,0,0,0,.62-1.24,4.59,4.59,0,0,0,.26-1.16c2.86,2.81,6,7.61,8,10.16-.62-2.47-.14-3.58-.33-3.81-2.44-2.93-3.25-4-4.84-5.74-4.81-5.32-8.58-6.06-8.58-6.06"/><path class="cls-2" d="M270.89,44.65a13.25,13.25,0,0,1-.15-4.29,22.46,22.46,0,0,0,1-3.13l.18.09,1.26.79a12,12,0,0,1-1.29-3.44c0-.14-.05-.28-.08-.41a9.29,9.29,0,0,0-1.69-3.56,8.92,8.92,0,0,1,.55,3.88c-.28,3.63-5.43,7.79-4.27,14.16.64,3.51,4.16,6.31,4.16,6.31a28.26,28.26,0,0,1-1.91-6.68c-.32-1.72.24-3.07,1-5.13l.28.27,1,1.14Z"/><path class="cls-2" d="M306.46,19.8a129.68,129.68,0,0,0-13.66,2.93c-4.52,1.45-11.13,4.3-14.12,8s-.47,9.67-1.23,13.62-6.63,8-6.63,8,6.82-1.75,9.33-7.24c1.85-4-.49-6.85,2.34-13.09s24-12.22,24-12.22Z"/><path class="cls-2" d="M306.7,20.24s-7.54,2.33-9.92,9.7l3.38-.74s0-4.6,6.54-9Z"/><path class="cls-2" d="M318.64,30.44s-11.87-2.38-23.55,1-10,9.53-10.16,12.93-3,10.94-13.27,9.95c0,0,6.09,3.33,12.87-2.14S286.58,40.13,292,37s9.68-5.78,26.6-6.53Z"/><path class="cls-2" d="M289.05,47.31s4.64.65,7.37,3.84c0,0-3.74-2.9-8-2.16a10,10,0,0,0,.61-1.68Z"/><path class="cls-2" d="M309.12,42.25s-11.2.26-11.32,9.68c-.2-.35-6.16-10.73,11.32-9.68Z"/><path class="cls-2" d="M317.83,31h0c-11.29,2.33-8.71,11.22-8.71,11.22h0C303.38,30.83,317.83,31,317.83,31Z"/><path class="cls-2" d="M286.52,60.3A12.8,12.8,0,0,1,297.73,52c-8.47-1.67-10.63,2.62-11.13,5.63a89.37,89.37,0,0,0-13.44-1.57c8.71,1.22,13.36,4.21,13.36,4.21Z"/><path class="cls-2" d="M240.76,83.92a7.54,7.54,0,0,1,3.88-.77,12.19,12.19,0,0,0,3.78-.81c-1,0-3.53-1.24-5.72-1a2.27,2.27,0,0,0-1.94,2.55Z"/><path class="cls-2" d="M282.43,78.3a1.72,1.72,0,0,1,1.47-1.92c1.64-.2,3.49.73,4.28.74a9.07,9.07,0,0,1-2.84.61,5.72,5.72,0,0,0-2.91.57Z"/><path class="cls-2" d="M298.43,84.82a6.77,6.77,0,0,1,3.5-.7,20.31,20.31,0,0,0,2.94-.05c-.95,0-2.44-1.94-4.69-1.56a2.1,2.1,0,0,0-1.75,2.31Z"/><path class="cls-2" d="M308.2,41.81c-13.64-3.29-17.89-.93-17.89-.93s.3-.77.49-1.2c.31-.69.39-.86.48-1a37.05,37.05,0,0,1,16.92,3.16Z"/><path class="cls-2" d="M255.94,33.14a5.33,5.33,0,0,0-3.33-1.65c-2.61,0-4.78,2.78-7.09,2.78a6.61,6.61,0,0,1-3.48-.78,5,5,0,0,0,3.61,1.89c2.88,0,5-2.83,6.91-2.83a10.09,10.09,0,0,1,3.38.59Z"/><path class="cls-2" d="M261.9,36.11a12.88,12.88,0,0,1,.17,4.11c-.22,4.54-9.11,10.8-9,18.33a10.08,10.08,0,0,0,3.38,7.19,17.43,17.43,0,0,1-.82-7.95c.91-5.52,7.87-11.81,7.65-17.23-.13-3.19-1.38-4.45-1.38-4.45Z"/><path class="cls-2" d="M257.61,65.66a9.38,9.38,0,0,1-.34-6c.66-1.81,2.38-3.35,5.76-4.2,0,0-5.92,5.39-1.58,10a26.23,26.23,0,0,0-4.27,6.1c-1.18,2.8-3.76,8.68-4.61,10a11.06,11.06,0,0,1-5.44,4.64c-3.74.33-7.83,1-8.1,3.84a3.52,3.52,0,0,1-.66-2.55c.07-1.82,3.1-3.86,6.26-3.75s6-.7,7.48-4.51,4.72-13,5.5-13.68Z"/><path class="cls-2" d="M262.65,66s-4.82,14.78-13.27,20.21c0,0,5.15-.74,6.73-.09s3.23,1.73,1.68,4.2c0,0,3.06-1.68,2.21-4.21-.66-2-3.67-2.16-3.67-2.16s-.86-.38-.36-1.66,3.73-5.53,4.25-6.31,4.7-7.1,4.87-7.46a5.47,5.47,0,0,0,5.46-3c1.85-3.65-2.09-7.19-2.09-7.19s1.73,3.93-.27,5.86A7.11,7.11,0,0,1,262.65,66Z"/><path class="cls-2" d="M266.76,69.41a8.82,8.82,0,0,0,2.38-.82s.83.9,4.23.82H274c3.78-.47,8.39-1.82,15.63-4.84l.78,1.29c-5.65,1.91-12.47,7.28-21,6.43-.61-.06-3.42-.62-4-.81.36-.47,1.42-2.07,1.42-2.07Z"/><path class="cls-2" d="M291.12,76.6a7.55,7.55,0,0,1-4.18,3.63c-2.54,0-5.6.58-5.8,2.74a2.63,2.63,0,0,1-.5-1.9c.05-1.38,1.93-2.87,4.7-2.72,2.38.13,3.91-.85,4.94-3.46.7-1.75,0-5.5.89-7.88,0,0,1.28,1,1.85,1.46,0,0,.05,0-.23.63-.88,2.11-.46,5.15-1.67,7.5Z"/><path class="cls-2" d="M294.72,69.26s.73.49,1.43.87a26,26,0,0,0-.88,2.6c-.24.67-1,3.37-1.43,4.33s.27,1.23.27,1.23,2.26.13,2.76,1.63c.63,1.9-1.66,3.16-1.66,3.16,1.15-1.85-.07-2.66-1.26-3.15s-4.69.06-4.69.06c3.67-2,4.87-9.35,5.46-10.73Z"/><path class="cls-2" d="M308.6,84.22s1,2,.42,2.79c-2.22.06-3.72,0-7,.33-3,.3-5,.5-5.22,3.11a3.15,3.15,0,0,1-.6-2.3c.06-1.64,2.79-3.48,5.65-3.37a26.89,26.89,0,0,0,4-.15c.85-.46-1.32-4.61-1.69-5.36-3.17-6.34-3.09-8.39-3.21-8.73,0,0-8.87-1.66-11.05-7.7,7,6,12.87,5.94,12.87,5.94a105.92,105.92,0,0,0,5.86,15.44Z"/><path class="cls-2" d="M310.9,50.91a24.27,24.27,0,0,1,2.57,0c3.85-8.23,10.41-16.73,10.41-21.75a8.18,8.18,0,0,0-2.24-5.42L321.27,25s-1.81-4.15-3.15-5.19l0,0a31.31,31.31,0,0,1,5.59,2.81v0l-1.05.27h0a9,9,0,0,1,2.5,6.34c.22,6-6.25,12.83-10,21.85,8.43,1,14.32,6.3,14.32,12,0,8-4.89,10.81-9.34,10.87a9.79,9.79,0,0,1-5.35-1.44c-2.37-1.4-4.35-4-4.35-9.1a25.91,25.91,0,0,1,1.81-9.82v0a34.76,34.76,0,0,0-5.75.67l-2.28.69a8.84,8.84,0,0,1,4.37,5.7,16.09,16.09,0,0,1-.78,7.83c-.21,3.19,1.18,7.93,2.26,11.45l1.2,3.21A3.52,3.52,0,0,0,312.91,85s2.48.36,3.17,1.86a2.28,2.28,0,0,1-.66,3c.57-2.4-1.51-2.66-2.73-2.84h-.1a7.66,7.66,0,0,0-2-.07c.15-.81-1.4-5.14-1.3-4.86,0,0-2-5.72-2.83-8.24A48.67,48.67,0,0,1,305,67.54s6-10-7.39-14.46a8.73,8.73,0,0,1,1.66,0,26,26,0,0,1,3.47-1,35.52,35.52,0,0,1,8.16-1.16Zm3.32,2.69a29.63,29.63,0,0,0-1.63,10.56c.12,3.5,2.39,8.36,7.9,7.87a6.83,6.83,0,0,0,5.59-4,10.52,10.52,0,0,0,1-4.49,9.4,9.4,0,0,0-3.39-6.69c-1.9-1.74-4.84-3.07-9.48-3.26"/><path class="cls-2" d="M255.1,27.89s-4.63-1.48-7.5.86l1.51,2.61s4.39-3.58,7.63,1.56c0,0-2.42,3.16-7.52,2.27A5.5,5.5,0,0,0,254,37.56c3.39,0,6.68-3.43,7.74-2.28,0,0-.36-4.85,5.56-6.56a7.43,7.43,0,0,1,1.6,1.72s1.93-1.53,1.83-5.28a7.67,7.67,0,0,0-3-6.1,7.65,7.65,0,0,1-.55,4.33,4.56,4.56,0,0,1-3.8,2.79,11,11,0,0,1-2.67-.3c-1.07-.32-5.31-1.75-5.63,2Zm5.15-.31s-1.41,2.42-3.6,1c0,0,.05-1.44,1.29-1.3s1.08.65,2.31.29Z"/><path class="cls-2" d="M219.62,104.09H221v10h3.69v1.22h-5.11Z"/><path class="cls-2" d="M226.05,103.25h1.35v12.09h-1.35Z"/><path class="cls-2" d="M232.4,117c-.41,1.4-1,1.9-2,1.9a3.71,3.71,0,0,1-.92-.1l.07-1.22a1.84,1.84,0,0,0,.74.16c.39,0,.68-.18.9-1l.32-1.26-2.59-8.35h1.42l1.84,6.71h0l1.71-6.71h1.35Z"/><path class="cls-2" d="M244.79,115.34h-1.55l-1.72-6.94h0l-1.58,6.94h-1.55l-2.18-8.22h1.42l1.57,6.87h0l1.56-6.87h1.61L244,114h0l1.55-6.87h1.35Z"/><path class="cls-2" d="M251,107c2.18,0,3.31,1.64,3.31,4.22s-1.13,4.22-3.31,4.22-3.3-1.64-3.3-4.22S248.79,107,251,107Zm0,7.35c1.29,0,1.89-1.06,1.89-3.13s-.6-3.12-1.89-3.12-1.88,1.06-1.88,3.12S249.67,114.36,251,114.36Z"/><path class="cls-2" d="M261.75,113.83c0,.5,0,1,.06,1.51H260.5l0-1.21h0a2.3,2.3,0,0,1-2.16,1.32c-1.69,0-2.83-1.38-2.83-4.22s1.14-4.22,2.83-4.22a2.27,2.27,0,0,1,2.1,1.24h0v-5h1.36Zm-3.16-5.72c-1.25,0-1.81,1.06-1.81,3.12s.56,3.13,1.81,3.13,1.8-1.06,1.8-3.13S259.83,108.11,258.59,108.11Z"/><path class="cls-2" d="M263.58,108.89c0-.59-.05-1.19-.06-1.77h1.3l.05,1.29h0a2.21,2.21,0,0,1,2.34-1.4v1.34a2.19,2.19,0,0,0-.52,0c-1,0-1.78.9-1.78,2.69v4.35h-1.36Z"/><path class="cls-2" d="M268.67,107.69A4.36,4.36,0,0,1,271,107a3.19,3.19,0,0,1,2.2.77,2.56,2.56,0,0,1,.71,2v4.29c0,.48,0,1,.06,1.25h-1.22l-.08-1.11h0a2.46,2.46,0,0,1-2.3,1.22,2.18,2.18,0,0,1-2.37-2.36c0-1.6,1.05-2.78,3.87-2.78h.79v-.37a2,2,0,0,0-.31-1.32,1.67,1.67,0,0,0-1.37-.51,2.89,2.89,0,0,0-2.11.85Zm3.94,3.62a8.84,8.84,0,0,0-.95,0c-1.6,0-2.36.76-2.36,1.71a1.28,1.28,0,0,0,1.39,1.43,1.94,1.94,0,0,0,1.92-2.07Z"/><path class="cls-2" d="M276.83,111.64c0,1.9.74,2.78,2.24,2.78a3.37,3.37,0,0,0,1.88-.68L281,115a5.51,5.51,0,0,1-2.31.48c-2.17,0-3.3-1.64-3.3-4.22s1.13-4.22,3.17-4.22c1.86,0,2.89,1.48,2.89,3.9v.73Zm3.29-1c0-1.71-.54-2.56-1.62-2.56-.86,0-1.64.65-1.67,2.56Z"/><path class="cls-2" d="M286.59,115.25a3.84,3.84,0,0,1-1.14.2c-1.24,0-1.9-.5-1.9-2v-5.28h-1.31v-1.1h1.31v-1.67l1.35-.41v2.08h1.69v1.1H284.9v4.85c0,.93.24,1.29.86,1.29a1.92,1.92,0,0,0,.83-.21Z"/><path class="cls-2" d="M287.74,103.25h1.35v5h0a2.25,2.25,0,0,1,2-1.24c1.43,0,2.4.82,2.4,2.63v5.7h-1.35V110c0-1.31-.49-1.87-1.36-1.87-1.06,0-1.74.74-1.74,2.22v5h-1.35Z"/><path class="cls-2" d="M306.27,115.12a7.31,7.31,0,0,1-2,.33c-3.56,0-5.06-2.7-5.06-5.75,0-3.51,2-5.72,5-5.72a5.06,5.06,0,0,1,2.13.4v1.39a3.84,3.84,0,0,0-2.11-.57c-1.84,0-3.51,1.47-3.51,4.21,0,2.9,1.16,4.82,3.61,4.82a4,4,0,0,0,2-.53Z"/><path class="cls-2" d="M310.61,117c-.41,1.4-1,1.9-2,1.9a3.65,3.65,0,0,1-.92-.1l.07-1.22a1.84,1.84,0,0,0,.74.16c.39,0,.68-.18.9-1l.32-1.26-2.59-8.35h1.42l1.84,6.71h0l1.71-6.71h1.35Z"/><path class="cls-2" d="M314.59,108.89c0-.59,0-1.19-.07-1.77h1.31l.05,1.23h0a2.15,2.15,0,0,1,4,0,2.17,2.17,0,0,1,2-1.29c1.42,0,2.39.82,2.39,2.63v5.7H322.9V109.7c0-1-.45-1.53-1.25-1.53-1,0-1.55.61-1.55,2.1v5.07h-1.35V109.7c0-1-.46-1.53-1.26-1.53-1,0-1.55.61-1.55,2.1v5.07h-1.35Z"/><path class="cls-2" d="M325.9,108.89c0-.59,0-1.19-.06-1.77h1.3l.05,1.29h0a2.21,2.21,0,0,1,2.34-1.4v1.34a2.19,2.19,0,0,0-.52,0c-1,0-1.79.9-1.79,2.69v4.35H325.9Z"/><path class="cls-2" d="M336.47,113.57c0,.6,0,1.19.07,1.77h-1.31l-.05-1.22h0a2.11,2.11,0,0,1-2.08,1.33c-1.43,0-2.4-.82-2.4-2.62v-5.71H332v5.3c0,1.31.49,1.88,1.36,1.88,1.06,0,1.74-.75,1.74-2.23v-4.95h1.35Z"/><path class="cls-2" d="M219.76,122.35h1.48l1.84,9.12h0l2-9.12h1.81l2,9.12h0l2-9.12h1.35l-2.45,11.25h-1.67L226,124h0l-2.13,9.64H222.2Z"/><path class="cls-2" d="M234,129.89c0,1.9.75,2.79,2.24,2.79a3.51,3.51,0,0,0,1.89-.68l.06,1.23a5.62,5.62,0,0,1-2.3.48c-2.18,0-3.3-1.64-3.3-4.22s1.12-4.23,3.17-4.23c1.85,0,2.89,1.49,2.89,3.9v.73Zm3.29-1c0-1.71-.53-2.57-1.61-2.57-.87,0-1.64.65-1.68,2.57Z"/><path class="cls-2" d="M240.62,121.51H242V133.6h-1.36Z"/><path class="cls-2" d="M244,132a3.76,3.76,0,0,0,1.94.61c1,0,1.56-.53,1.56-1.16s-.29-.95-1-1.29l-.9-.4c-1.18-.53-1.61-1.06-1.61-2.11a2.42,2.42,0,0,1,2.64-2.39,5.14,5.14,0,0,1,1.74.29l-.06,1.16a4,4,0,0,0-1.62-.35c-.88,0-1.35.48-1.35,1.13s.48,1,1.39,1.38l.48.2a2.23,2.23,0,0,1,1.63,2.09,2.36,2.36,0,0,1-2.65,2.55,5,5,0,0,1-2.22-.48Z"/><path class="cls-2" d="M250.36,121.51h1.35v5h0a2.25,2.25,0,0,1,2-1.24c1.43,0,2.4.83,2.4,2.63v5.71h-1.35v-5.31c0-1.3-.49-1.87-1.36-1.87-1.06,0-1.74.75-1.74,2.23v4.95h-1.35Z"/><path class="cls-2" d="M269.63,133.13a8.9,8.9,0,0,1-2.78.58c-3.57,0-5.06-2.71-5.06-5.76,0-3.51,2-5.72,5-5.72a6.15,6.15,0,0,1,2.65.5v1.42a6.14,6.14,0,0,0-2.63-.69c-1.84,0-3.51,1.46-3.51,4.21s1.16,4.81,3.61,4.81a3.41,3.41,0,0,0,1.4-.3v-3.55h-1.89v-1.22h3.24Z"/><path class="cls-2" d="M274.76,125.26c2.17,0,3.3,1.65,3.3,4.23s-1.13,4.22-3.3,4.22-3.31-1.64-3.31-4.22S272.58,125.26,274.76,125.26Zm0,7.35c1.29,0,1.88-1.06,1.88-3.12s-.59-3.13-1.88-3.13-1.89,1.06-1.89,3.13S273.47,132.61,274.76,132.61Z"/><path class="cls-2" d="M278.79,125.38h1.48l1.8,6.86h0l1.83-6.86h1.42l-2.46,8.22h-1.62Z"/><path class="cls-2" d="M287.51,129.89c0,1.9.74,2.79,2.23,2.79a3.51,3.51,0,0,0,1.89-.68l.07,1.23a5.71,5.71,0,0,1-2.31.48c-2.17,0-3.3-1.64-3.3-4.22s1.13-4.23,3.17-4.23c1.86,0,2.89,1.49,2.89,3.9v.73Zm3.28-1c0-1.71-.53-2.57-1.61-2.57-.87,0-1.64.65-1.67,2.57Z"/><path class="cls-2" d="M293.65,127.15c0-.6,0-1.19-.07-1.77h1.31l.05,1.28h0a2.2,2.2,0,0,1,2.33-1.4v1.34a2.76,2.76,0,0,0-.51,0c-1.05,0-1.79.91-1.79,2.7v4.35h-1.35Z"/><path class="cls-2" d="M298.42,127.15c0-.6-.05-1.19-.07-1.77h1.31l0,1.22h0a2.12,2.12,0,0,1,2.08-1.34c1.43,0,2.4.83,2.4,2.63v5.71h-1.36v-5.31c0-1.3-.48-1.87-1.35-1.87-1.06,0-1.74.75-1.74,2.23v4.95h-1.35Z"/><path class="cls-2" d="M306.18,127.15c0-.6-.05-1.19-.06-1.77h1.3l.05,1.22h0a2.11,2.11,0,0,1,2-1.34,2.09,2.09,0,0,1,1.93,1.29,2.17,2.17,0,0,1,2-1.29c1.42,0,2.38.83,2.38,2.63v5.71H314.5V128c0-1-.45-1.53-1.26-1.53-1,0-1.54.62-1.54,2.1v5.08h-1.36V128c0-1-.45-1.53-1.26-1.53-1,0-1.54.62-1.54,2.1v5.08h-1.36Z"/><path class="cls-2" d="M318.83,129.89c0,1.9.75,2.79,2.24,2.79A3.51,3.51,0,0,0,323,132l.06,1.23a5.62,5.62,0,0,1-2.3.48c-2.18,0-3.3-1.64-3.3-4.22s1.12-4.23,3.17-4.23c1.85,0,2.89,1.49,2.89,3.9v.73Zm3.29-1c0-1.71-.53-2.57-1.61-2.57-.87,0-1.64.65-1.68,2.57Z"/><path class="cls-2" d="M325,127.15c0-.6,0-1.19-.06-1.77h1.3l.05,1.22h0a2.1,2.1,0,0,1,2.07-1.34c1.44,0,2.41.83,2.41,2.63v5.71h-1.36v-5.31c0-1.3-.48-1.87-1.35-1.87-1.06,0-1.74.75-1.74,2.23v4.95H325Z"/><path class="cls-2" d="M336.37,133.5a3.91,3.91,0,0,1-1.15.21c-1.24,0-1.9-.5-1.9-2v-5.29H332v-1.09h1.3V123.7l1.36-.4v2.08h1.69v1.09h-1.69v4.85c0,.94.24,1.29.85,1.29a1.86,1.86,0,0,0,.84-.21Z"/><path class="cls-2" d="M337.86,97.59H218a.44.44,0,0,1-.44-.44.44.44,0,0,1,.44-.44h119.9a.44.44,0,0,1,.44.44A.44.44,0,0,1,337.86,97.59Z"/><polygon class="cls-3" points="69.37 79.81 72.1 77.73 68.74 77.76 67.26 74.11 66.12 77.73 62.64 77.73 65.3 79.78 64.41 82.91 67.23 81.26 70.34 82.94 69.37 79.81"/><polygon class="cls-3" points="120.96 82.97 117.8 81.13 114.93 82.97 115.74 79.64 113.05 77.76 116.42 77.67 117.75 73.95 119.08 77.41 122.5 77.55 119.98 79.55 120.96 82.97"/><polygon class="cls-3" points="110.61 91.09 111.58 94.25 108.56 92.34 105.6 94.25 106.45 90.92 103.86 88.89 107.31 88.72 108.53 85.22 109.88 88.81 113.26 88.87 110.61 91.09"/><polygon class="cls-3" points="82.71 88.69 80.08 90.68 80.98 94.08 77.97 92.17 75.04 94.06 75.83 90.72 73.27 88.82 76.73 88.8 77.95 85.24 79.25 88.56 82.71 88.69"/><polygon class="cls-3" points="121.3 52.93 118.11 51.17 115.19 52.91 116.02 49.72 113.46 47.76 116.86 47.59 118.14 44.04 119.4 47.59 122.84 47.65 120.27 49.81 121.3 52.93"/><path class="cls-3" d="M95,38.37l-3.1-1.9-3,1.88,1-3.24L87.27,33l3.43-.13,1.22-3.56,1.26,3.56,3.46.07c-.06,0-2.67,2-2.67,2Z"/><polygon class="cls-3" points="110.34 42.16 107.17 40.38 104.25 42.16 105.23 38.91 102.5 36.92 105.94 36.79 107.28 33.25 108.65 36.84 111.9 36.86 109.27 38.99 110.34 42.16"/><polygon class="cls-3" points="125.06 67.95 121.93 66.22 118.94 67.95 119.88 64.73 117.25 62.68 120.67 62.66 122.02 59.06 123.24 62.51 126.54 62.54 124.06 64.71 125.06 67.95"/><polygon class="cls-3" points="79.9 42.84 76.9 41.07 73.83 42.84 74.81 39.77 72.21 37.61 75.67 37.54 76.93 33.93 78.17 37.52 81.63 37.59 79.06 39.38 79.9 42.84"/><polygon class="cls-3" points="70.19 52.91 67.25 51 64.25 52.84 65.13 49.63 62.52 47.67 65.88 47.59 67.2 44.02 68.51 47.41 71.92 47.48 69.36 49.48 70.19 52.91"/><polygon class="cls-3" points="66.63 67.95 63.59 66.19 60.51 67.93 61.51 64.6 58.94 62.74 62.16 62.66 63.5 59.06 64.9 62.68 68.34 62.71 65.66 64.6 66.63 67.95"/><polygon class="cls-3" points="96.54 98.35 93.44 96.41 90.42 98.21 91.39 94.93 88.68 93.03 92.13 92.8 93.41 89.35 94.63 92.88 98.08 92.94 95.46 94.93 96.54 98.35"/><rect class="cls-4" x="25.37" y="21.21" width="134.74" height="85.49"/><path class="cls-2" d="M44.25,113.13h1.08v4.26a5.37,5.37,0,0,1-.12,1.31,3.14,3.14,0,0,1-.31.73,2.58,2.58,0,0,1-.46.53,4,4,0,0,1-4.68,0,2.26,2.26,0,0,1-.45-.53,2.4,2.4,0,0,1-.31-.72,5.28,5.28,0,0,1-.12-1.33v-4.25H40v4.26a3.14,3.14,0,0,0,.24,1.47,1.73,1.73,0,0,0,.74.67,2.58,2.58,0,0,0,1.16.25,2.37,2.37,0,0,0,1.56-.5,1.5,1.5,0,0,0,.45-.64,3.69,3.69,0,0,0,.14-1.25Z"/><path class="cls-2" d="M52.78,113.13h1v7.51h-.92l-5-5.78v5.78h-1v-7.51h.87L52.78,119Z"/><path class="cls-2" d="M55.42,120.63v-7.5H58a5.4,5.4,0,0,1,2.42.46,3.48,3.48,0,0,1,1.42,1.35,3.81,3.81,0,0,1,.53,2,3.67,3.67,0,0,1-1.12,2.65,3.93,3.93,0,0,1-1.27.81,4.27,4.27,0,0,1-.78.22,9.92,9.92,0,0,1-1.36.06Zm2.42-6.54H56.5v5.58h1.37a5.69,5.69,0,0,0,1.25-.11,3,3,0,0,0,.75-.28,2.38,2.38,0,0,0,.54-.42,2.76,2.76,0,0,0,.8-2,2.59,2.59,0,0,0-.82-2,2.55,2.55,0,0,0-.69-.47,3,3,0,0,0-.74-.24A7.38,7.38,0,0,0,57.84,114.09Z"/><path class="cls-2" d="M63.66,113.13h4.25v1H64.73v2.29h3.08v1H64.73v2.33H68v1H63.66Z"/><path class="cls-2" d="M71.7,120.64H69.16v-7.51h2a3.53,3.53,0,0,1,1.45.25,1.91,1.91,0,0,1,.79.69,1.89,1.89,0,0,1,.28,1,1.65,1.65,0,0,1-1.15,1.59,2.35,2.35,0,0,1,1.31.67,1.8,1.8,0,0,1,.48,1.25,1.82,1.82,0,0,1-.29,1,2.18,2.18,0,0,1-.87.73A3.19,3.19,0,0,1,71.7,120.64Zm-.54-6.55h-.93v2.26H71a1.8,1.8,0,0,0,1.22-.33,1.1,1.1,0,0,0,.36-.85C72.53,114.45,72.07,114.09,71.16,114.09Zm.08,3.21h-1v2.38h1.06a3.48,3.48,0,0,0,1.2-.14,1.08,1.08,0,0,0,.5-.42,1.11,1.11,0,0,0,.19-.63,1,1,0,0,0-.2-.62,1.14,1.14,0,0,0-.57-.43A3.69,3.69,0,0,0,71.24,117.3Z"/><path class="cls-2" d="M78.41,113.13h4.25v1H79.48v2.29h3.08v1H79.48v2.33h3.29v1H78.41Z"/><path class="cls-2" d="M93.47,113.13h1.07l-3,7.54h-.23l-2.45-6.1-2.48,6.1h-.23l-3-7.54h1.08l2.07,5.18,2.08-5.18h1l2.09,5.18Z"/><path class="cls-2" d="M95.4,120.64v-7.51h1.88a2.71,2.71,0,0,1,1.81.57,1.86,1.86,0,0,1,.67,1.52,2,2,0,0,1-.33,1.14,2,2,0,0,1-.94.71,3.45,3.45,0,0,1,.71.64,14.63,14.63,0,0,1,1,1.43q.39.63.63,1l.4.54H99.91l-.33-.5-.06-.09-.21-.3-.33-.54-.36-.59a5.68,5.68,0,0,0-.61-.73,2.22,2.22,0,0,0-.5-.4,1.7,1.7,0,0,0-.75-.12h-.28v3.27Zm1.4-6.59h-.32v2.37h.41a3.14,3.14,0,0,0,1.12-.14,1.09,1.09,0,0,0,.47-.43,1.22,1.22,0,0,0,.17-.64,1.2,1.2,0,0,0-.19-.64,1,1,0,0,0-.53-.41A4.21,4.21,0,0,0,96.8,114.05Z"/><path class="cls-2" d="M105,113a4,4,0,0,1,2.9,1.1,3.64,3.64,0,0,1,1.15,2.76,3.57,3.57,0,0,1-1.16,2.74,4.14,4.14,0,0,1-3,1.09,3.92,3.92,0,0,1-2.83-1.09,3.62,3.62,0,0,1-1.13-2.72,3.69,3.69,0,0,1,1.14-2.78A4,4,0,0,1,105,113Zm0,1a2.91,2.91,0,0,0-2.12.8,2.77,2.77,0,0,0-.83,2.06,2.69,2.69,0,0,0,.84,2,3.1,3.1,0,0,0,4.18,0,2.73,2.73,0,0,0,.84-2,2.68,2.68,0,0,0-.84-2A2.87,2.87,0,0,0,105.08,114.05Z"/><path class="cls-2" d="M110.35,120.64v-7.52h2.38a2.46,2.46,0,0,1,1.71.58,2,2,0,0,1,.64,1.56,2.15,2.15,0,0,1-.32,1.16,1.85,1.85,0,0,1-.9.73,4.41,4.41,0,0,1-1.63.23h-.8v3.26Zm2.19-6.56h-1.11v2.35h1.18a1.54,1.54,0,0,0,1-.31,1.14,1.14,0,0,0,.35-.89C114,114.46,113.5,114.08,112.54,114.08Z"/><path class="cls-2" d="M116,113.13h4.25v1h-3.18v2.29h3.07v1h-3.07v2.33h3.28v1H116Z"/><path class="cls-2" d="M123.91,113.09h.76l3.36,7.55h-1.1l-1-2.23h-3.2l-.94,2.23h-1.1Zm1.58,4.37-1.21-2.72-1.12,2.72Z"/><path class="cls-2" d="M128.87,113.13h1.07v7.51h-1.07Z"/><path class="cls-2" d="M131.62,120.63v-7.5h2.53a5.43,5.43,0,0,1,2.42.46,3.61,3.61,0,0,1,1.42,1.35,3.8,3.8,0,0,1,.52,2,3.67,3.67,0,0,1-1.12,2.65,3.83,3.83,0,0,1-1.27.81,3.87,3.87,0,0,1-.78.22,9.64,9.64,0,0,1-1.35.06Zm2.41-6.54h-1.34v5.58h1.37a5.79,5.79,0,0,0,1.26-.11,3,3,0,0,0,.74-.28,2.18,2.18,0,0,0,.54-.42,2.76,2.76,0,0,0,.8-2,2.62,2.62,0,0,0-1.51-2.44,2.89,2.89,0,0,0-.74-.24A7.29,7.29,0,0,0,134,114.09Z"/><path class="cls-2" d="M139.87,120.63v-7.5h2.53a5.43,5.43,0,0,1,2.42.46,3.61,3.61,0,0,1,1.42,1.35,3.8,3.8,0,0,1,.52,2,3.67,3.67,0,0,1-1.12,2.65,3.83,3.83,0,0,1-1.27.81,3.87,3.87,0,0,1-.78.22,9.64,9.64,0,0,1-1.35.06Zm2.41-6.54h-1.34v5.58h1.37a5.79,5.79,0,0,0,1.26-.11,3,3,0,0,0,.74-.28,2.18,2.18,0,0,0,.54-.42,2.76,2.76,0,0,0,.8-2,2.62,2.62,0,0,0-1.51-2.44,2.89,2.89,0,0,0-.74-.24A7.29,7.29,0,0,0,142.28,114.09Z"/><path class="cls-2" d="M46,126.13h4.25v1H47.05v2.29h3.07v1H47.05v2.33h3.28v1H46Z"/><path class="cls-2" d="M56.7,126.13h1.08v4.26a5.28,5.28,0,0,1-.13,1.31,2.76,2.76,0,0,1-.31.73,2.31,2.31,0,0,1-.46.53,3.44,3.44,0,0,1-2.33.76A3.48,3.48,0,0,1,52.2,133a2.26,2.26,0,0,1-.45-.53,2.4,2.4,0,0,1-.31-.72,5.28,5.28,0,0,1-.12-1.33v-4.25H52.4v4.26a3.14,3.14,0,0,0,.24,1.47,1.73,1.73,0,0,0,.74.67,2.64,2.64,0,0,0,1.16.25,2.37,2.37,0,0,0,1.56-.5,1.61,1.61,0,0,0,.46-.64,4,4,0,0,0,.14-1.25Z"/><path class="cls-2" d="M59.3,133.64v-7.51h1.88a2.66,2.66,0,0,1,1.8.57,1.86,1.86,0,0,1,.67,1.52,1.87,1.87,0,0,1-1.27,1.85,3.45,3.45,0,0,1,.71.64,14.27,14.27,0,0,1,1,1.43c.26.42.47.74.62,1l.4.54H63.8l-.32-.5-.07-.09-.21-.3-.33-.54-.36-.59a5.68,5.68,0,0,0-.61-.73,2,2,0,0,0-.5-.4,1.7,1.7,0,0,0-.75-.12h-.28v3.27Zm1.39-6.59h-.32v2.37h.41a3.11,3.11,0,0,0,1.12-.14,1.09,1.09,0,0,0,.47-.43,1.22,1.22,0,0,0,.17-.64,1.12,1.12,0,0,0-.19-.64,1,1,0,0,0-.53-.41A4.16,4.16,0,0,0,60.69,127.05Z"/><path class="cls-2" d="M68.93,126a4,4,0,0,1,2.9,1.1A3.65,3.65,0,0,1,73,129.89a3.58,3.58,0,0,1-1.17,2.74,4.14,4.14,0,0,1-2.95,1.09,3.88,3.88,0,0,1-2.82-1.09,3.59,3.59,0,0,1-1.14-2.72,3.69,3.69,0,0,1,1.14-2.78A4,4,0,0,1,68.93,126Zm0,1a2.9,2.9,0,0,0-2.12.8,2.74,2.74,0,0,0-.83,2.06,2.68,2.68,0,0,0,.83,2,3.1,3.1,0,0,0,4.18,0,2.73,2.73,0,0,0,.84-2,2.68,2.68,0,0,0-.84-2A2.86,2.86,0,0,0,69,127.05Z"/><path class="cls-2" d="M74.24,133.64v-7.52h2.38a2.5,2.5,0,0,1,1.72.58,2,2,0,0,1,.64,1.56,2.07,2.07,0,0,1-.33,1.16,1.85,1.85,0,0,1-.9.73,4.37,4.37,0,0,1-1.63.23h-.8v3.26Zm2.2-6.56H75.32v2.35H76.5a1.52,1.52,0,0,0,1-.31,1.1,1.1,0,0,0,.35-.89C77.86,127.46,77.39,127.08,76.44,127.08Z"/><path class="cls-2" d="M79.91,126.13h4.25v1H81v2.29h3.08v1H81v2.33h3.29v1H79.91Z"/><path class="cls-2" d="M87.81,126.09h.75l3.37,7.55h-1.1l-1-2.23h-3.2l-.94,2.23H84.58Zm1.57,4.37-1.21-2.72-1.12,2.72Z"/><path class="cls-2" d="M98.71,126.13h1v7.51h-.92l-5-5.78v5.78h-1v-7.51h.87L98.71,132Z"/><path class="cls-2" d="M109.61,126.13h1.08v4.26a5.37,5.37,0,0,1-.12,1.31,2.76,2.76,0,0,1-.32.73,2.26,2.26,0,0,1-.45.53,4,4,0,0,1-4.68,0,2.58,2.58,0,0,1-.46-.53,2.69,2.69,0,0,1-.3-.72,5.28,5.28,0,0,1-.12-1.33v-4.25h1.08v4.26a3.14,3.14,0,0,0,.24,1.47,1.7,1.7,0,0,0,.73.67,2.66,2.66,0,0,0,1.17.25,2.37,2.37,0,0,0,1.56-.5,1.5,1.5,0,0,0,.45-.64,3.69,3.69,0,0,0,.14-1.25Z"/><path class="cls-2" d="M118.14,126.13h1v7.51h-.92l-5-5.78v5.78h-1v-7.51h.87l5.06,5.83Z"/><path class="cls-2" d="M120.78,126.13h1.07v7.51h-1.07Z"/><path class="cls-2" d="M127.2,126a4,4,0,0,1,2.9,1.1,3.65,3.65,0,0,1,1.16,2.76,3.58,3.58,0,0,1-1.17,2.74,4.14,4.14,0,0,1-3,1.09,3.88,3.88,0,0,1-2.82-1.09,3.58,3.58,0,0,1-1.13-2.72,3.69,3.69,0,0,1,1.13-2.78A4,4,0,0,1,127.2,126Zm0,1a2.9,2.9,0,0,0-2.12.8,2.74,2.74,0,0,0-.83,2.06,2.68,2.68,0,0,0,.83,2,3.1,3.1,0,0,0,4.18,0,2.73,2.73,0,0,0,.84-2,2.68,2.68,0,0,0-.84-2A2.86,2.86,0,0,0,127.25,127.05Z"/><path class="cls-2" d="M138.54,126.13h1v7.51h-.93l-5-5.78v5.78h-1v-7.51h.87l5.06,5.83Z"/><text/></svg>