<svg xmlns="http://www.w3.org/2000/svg" viewBox="0 0 666.84 538.37"><defs><style>.cls-1{fill:#231f20;}</style></defs><title>BangorLogo_vertical_all_black</title><g id="Layer_2" data-name="Layer 2"><g id="Layer_1-2" data-name="Layer 1"><path d="M40.22,461.58H0v-3.24H.4c3.54,0,6-.92,7.34-2.73s2.06-5.28,2.06-10.17V393.12c0-5-.66-8.46-2-10.29S4.08,380.14.4,380.14H0V376.9H33c9.38,0,16.88,1.91,22.28,5.68s8.21,8.9,8.21,15.15c0,9-5.68,15.4-16.89,19.14a29.62,29.62,0,0,1,15.49,8.43,21.73,21.73,0,0,1,6.33,15.34,18.08,18.08,0,0,1-7.79,15.24c-5.14,3.78-12,5.7-20.4,5.7ZM22,419.68v24.19c0,5.34.59,9,1.78,10.91s3.41,2.78,6.74,2.78h7.17a16.07,16.07,0,0,0,12-4.78c3.08-3.17,4.64-7.49,4.64-12.84a18.22,18.22,0,0,0-6.68-14.71c-4.46-3.68-10.46-5.55-17.86-5.55Zm0-4h8.53c6.12,0,11.05-1.57,14.65-4.66s5.39-7.29,5.39-12.53c0-5.52-1.77-9.87-5.28-12.92s-8.6-4.62-15.06-4.62H22v34.73Z"/><path d="M181.88,461.58H150.66v-3.24h.41c4.73,0,7-1.51,7-4.61a9.13,9.13,0,0,0-.63-3.09l-7.94-23H122.36l-5.8,16.57c-1.45,4.2-2.19,7.26-2.19,9.11,0,3.3,2.11,4.95,6.43,5h.4v3.23H98.08v-3.19l.35,0a13.09,13.09,0,0,0,7.23-3c1.71-1.57,3.48-4.92,5.27-9.94l23.89-69.18.09-.27h9.47l.09.26,25.08,72.27c1.44,4.16,2.95,6.87,4.47,8.05s4,1.78,7.46,1.78h.4v3.24Zm-57.64-39.92h23.23l-11.68-33.89-11.55,33.89Z"/><path d="M290.16,461h-3.23l-.13-.14-60.49-72.09v57.8c0,4,.84,6.93,2.5,8.63s4.5,2.56,8.44,2.56h.4V461h-27v-3.24h.4c4,0,6.76-1,8.14-3s2.14-5.74,2.14-11V394.65c0-5.17-1-8.92-2.88-11.16s-5.13-3.56-9.57-4l-.36,0v-3.2h22.76l.12.15,53.56,64.42V392.92c0-5-.73-8.58-2.17-10.53s-4.09-2.87-8-2.87h-.4v-3.24h26.87v3.24h-.4c-4,0-6.85.91-8.38,2.72s-2.34,5.22-2.34,10.1V461Z"/><path d="M386.37,463.65c-16,0-28.61-3.88-37.56-11.53s-13.51-17.93-13.51-30.48a48.22,48.22,0,0,1,5.91-23.79,45.09,45.09,0,0,1,39-23,56,56,0,0,1,15.5,2.45,32.64,32.64,0,0,0,8,1.48c2.3,0,3.77-.83,4.49-2.54l.11-.25h3.39v25.55h-3.18l-.05-.34A23.92,23.92,0,0,0,399,385a30.26,30.26,0,0,0-18.79-6.11A27.56,27.56,0,0,0,358,389.32c-5.76,7-8.67,16.12-8.67,27.17,0,12.15,3.37,22.35,10,30.34s15.1,12,25.13,12c9.5,0,14.11-2.79,14.11-8.55v-9.1c0-5.05-.68-8.62-2-10.6s-3.69-2.9-7.07-2.9h-3.71v-3.24h35.78v3.24h-.4c-3.7,0-6.37.81-7.92,2.42s-2.36,4.47-2.36,8.49v22.88l-.3.08A78.62,78.62,0,0,1,399.26,463c-5.51.42-9.84.64-12.89.64Z"/><path d="M503.43,463.65c-12.91,0-24-4.37-32.9-13a42.7,42.7,0,0,1-13.45-31.82c0-12.5,4.5-23.07,13.38-31.44s20.09-12.58,33.34-12.58c12.86,0,23.89,4.3,32.79,12.77A41.63,41.63,0,0,1,550,418.85a42.59,42.59,0,0,1-13.53,31.82c-9,8.61-20.08,13-33.05,13Zm.67-84.8c-9.94,0-18,3.68-24,10.94s-9,17.1-9,29.2,3,22,8.9,29.46a28.35,28.35,0,0,0,23.25,11.18,28.78,28.78,0,0,0,23.58-11.43c6-7.61,9.08-17.25,9.08-28.64,0-12.24-3-22.2-8.9-29.6a28.13,28.13,0,0,0-22.95-11.11Z"/><path d="M666.84,461.58H648.58l-.12-.14a166,166,0,0,1-13.22-18.74c-5.44-8.56-9.76-14.1-12.83-16.45a16.3,16.3,0,0,0-10.1-3.49h-6.59v22.66c0,4.86.7,8.27,2.09,10.15s3.84,2.77,7.37,2.77h.4v3.24H583.7v-3.24h.4c3.67,0,6.18-.92,7.44-2.76s2-5.29,2-10.14V392.83c0-4.85-.65-8.22-1.92-10s-3.76-2.66-7.48-2.66h-.4V376.9h35.82c8.79,0,15.92,2.11,21.21,6.28a19.69,19.69,0,0,1,8,16.07c0,10.21-5.81,17.18-17.27,20.73a36.52,36.52,0,0,1,7,6.29,111.94,111.94,0,0,1,9.82,14.19c4.47,7.23,8,12,10.52,14.29a13,13,0,0,0,7.68,3.6l.38,0v3.21Zm-61.12-43.13h10.2c6.19,0,11.11-1.74,14.63-5.18s5.29-8,5.29-13.73A17.11,17.11,0,0,0,630,386.08c-3.91-3.42-9.16-5.15-15.61-5.15h-8.65v37.52Z"/><path d="M124,538.37c-3.93,0-7.08-1.16-9.35-3.45a12.48,12.48,0,0,1-3.41-9.1V508.34a8,8,0,0,0-.8-4.23c-.51-.73-1.53-1.11-3-1.11H107v-1.67h13.87V503h-.33c-1.52,0-2.56.36-3.07,1.08s-.81,2.16-.81,4.2v18a9,9,0,0,0,2.37,6.63,8.9,8.9,0,0,0,6.63,2.41c4.18,0,7.59-1.91,10.13-5.68V508.34a7.77,7.77,0,0,0-.8-4.16,3.42,3.42,0,0,0-2.8-1.18h-.3v-1.66h13.55V503h-.32a3.51,3.51,0,0,0-3,1.11c-.56.77-.84,2.2-.84,4.24v22.16a7.7,7.7,0,0,0,.83,4.19,3.45,3.45,0,0,0,3,1.12h.32v1.67h-9.65V533A15.94,15.94,0,0,1,124,538.37Z"/><path d="M197.75,537.49h-1.59l-.09-.11-25.36-30.21v24.06a5.05,5.05,0,0,0,1,3.55,4.75,4.75,0,0,0,3.47,1h.32v1.67H163.77v-1.67h.32c1.65,0,2.77-.41,3.33-1.21s.87-2.37.87-4.56V509.26c0-2.15-.4-3.71-1.18-4.62a5.81,5.81,0,0,0-4-1.64l-.3,0v-1.65h9.87l.1.12,22.41,27V508.53c0-2.1-.3-3.57-.89-4.37S192.69,503,191.1,503h-.32v-1.67h11.69V503h-.33c-1.66,0-2.81.37-3.43,1.1s-1,2.15-1,4.18v29.21Z"/><path d="M234.15,537.49H220.34v-1.67h.32c1.49,0,2.5-.36,3-1.07s.81-2.18.81-4.24V508.35c0-2.1-.27-3.54-.8-4.28s-1.52-1.07-3-1.07h-.32v-1.67h13.81V503h-.32a3.49,3.49,0,0,0-3,1.11c-.56.77-.85,2.19-.85,4.24v22.16c0,2,.29,3.46.84,4.21a3.51,3.51,0,0,0,3,1.1h.32v1.67Z"/><path d="M271.18,538h-1.47l-.08-.21L258.3,509c-1-2.61-1.94-4.27-2.67-4.92a4.7,4.7,0,0,0-3.1-1h-.31v-1.66h13.93V503h-.32c-2.58,0-2.88,1.19-2.88,2.07a4.56,4.56,0,0,0,.38,1.67L272,528.9l8.2-21.36a7.14,7.14,0,0,0,.5-2.34c0-.95-.3-2.2-2.95-2.2h-.32v-1.67h11.31v1.73h-.32c-2.53,0-4.66,2.26-6.35,6.7l-10.8,28-.08.21Z"/><path d="M329.89,537.49H303v-1.67h.32c1.53,0,2.55-.36,3-1.09a7.76,7.76,0,0,0,.79-4.16V508.35c0-2.08-.27-3.52-.81-4.27a3.56,3.56,0,0,0-3-1.08H303v-1.67h27v6.58H328.7l-.06-.25a5.76,5.76,0,0,0-1.49-3.2c-.64-.5-2.1-.76-4.34-.76H312.59v14.56h9.91a4,4,0,0,0,2.63-.64,4.65,4.65,0,0,0,1-2.57l.05-.27h1.68v9.27h-1.66l-.06-.24c-.46-1.78-1-2.43-1.31-2.66s-1.24-.52-3.5-.52h-8.75V533a2.2,2.2,0,0,0,.5,1.64,2.88,2.88,0,0,0,1.86.46h6.39a20.72,20.72,0,0,0,4.66-.35,4.36,4.36,0,0,0,2.06-1.26,12.84,12.84,0,0,0,1.88-3.11l.09-.19h1.71l-.11.4L330,537.25l-.06.24Z"/><path d="M386.69,537.49h-7.95l-.1-.11a70.17,70.17,0,0,1-5.61-8c-2.3-3.62-4.12-5.95-5.4-6.93a6.75,6.75,0,0,0-4.19-1.45H360.8v9.45a7.49,7.49,0,0,0,.86,4.21,3.53,3.53,0,0,0,3,1.11H365v1.67h-13.8v-1.67h.32c1.5,0,2.52-.37,3-1.1a7.94,7.94,0,0,0,.81-4.21V508.23a7.81,7.81,0,0,0-.79-4.17c-.49-.7-1.52-1.06-3-1.06h-.32v-1.67H366.5a14.31,14.31,0,0,1,9.07,2.69A8.47,8.47,0,0,1,379,511c0,4.3-2.4,7.27-7.13,8.83a16.17,16.17,0,0,1,2.74,2.51,48.3,48.3,0,0,1,4.17,6,31,31,0,0,0,4.43,6,5.32,5.32,0,0,0,3.16,1.48l.3,0v1.64ZM360.8,518.92H365a8.37,8.37,0,0,0,6.09-2.14,7.66,7.66,0,0,0,2.2-5.71,7.07,7.07,0,0,0-2.43-5.58,9.55,9.55,0,0,0-6.51-2.15H360.8v15.58Z"/><path d="M413.42,538.37A20.72,20.72,0,0,1,407,537a8.49,8.49,0,0,0-1.92-.52c-.17,0-.68,0-1.1,1.15l-.08.21h-1.64V527.62H404v.32a8,8,0,0,0,2.56,6.12,8.6,8.6,0,0,0,5.94,2.31,7.62,7.62,0,0,0,5.12-1.65,5.48,5.48,0,0,0,1.9-4.36,6.08,6.08,0,0,0-1.57-3.92c-1.08-1.28-3.37-3-6.82-5a31.14,31.14,0,0,1-5.78-4.1,10,10,0,0,1-2.18-3.36,11.12,11.12,0,0,1-.71-4,9,9,0,0,1,2.86-6.88,10.59,10.59,0,0,1,7.41-2.63,17.32,17.32,0,0,1,5.4,1,7.37,7.37,0,0,0,1.78.41c.28,0,.34-.07.34-.07a2.18,2.18,0,0,0,.28-.7l.07-.23h1.59v9h-1.7l0-.29a7.38,7.38,0,0,0-7.79-7,7.09,7.09,0,0,0-4.57,1.38,4.38,4.38,0,0,0-1.69,3.63,6.05,6.05,0,0,0,1.42,3.88c1,1.2,3.13,2.77,6.41,4.68,3.88,2.25,6.53,4.25,7.88,6a9.39,9.39,0,0,1,2.07,6,10,10,0,0,1-3.15,7.38,10.57,10.57,0,0,1-7.58,3Z"/><path d="M457.73,537.49H443.92v-1.67h.32c1.49,0,2.5-.36,3-1.07s.81-2.18.81-4.24V508.35c0-2.1-.27-3.54-.8-4.28s-1.52-1.07-3-1.07h-.32v-1.67h13.81V503h-.32a3.51,3.51,0,0,0-3,1.11c-.56.77-.84,2.2-.84,4.24v22.16c0,2,.28,3.46.84,4.22a3.54,3.54,0,0,0,3,1.09h.32v1.67Z"/><path d="M499.36,537.49H485.77v-1.67h.32c1.49,0,2.5-.38,3-1.15a7.82,7.82,0,0,0,.81-4.16V503.7h-5c-2.46,0-4.26.38-5.36,1.12a4.62,4.62,0,0,0-1.8,3.67l0,.3H476V500h1.54l.09.08c.91.83,2.69,1.25,5.27,1.25h19.19c2.67,0,4.56-.42,5.59-1.26l.09-.07h1.59v8.79h-1.29l-.06-.25a5.79,5.79,0,0,0-2.3-3.81,10.12,10.12,0,0,0-5.12-1H495.4v27c0,2.06.25,3.46.75,4.14s1.44,1,2.89,1h.32v1.67Z"/><path d="M549.76,537.49h-14v-1.67h.32c1.69,0,2.81-.38,3.34-1.13a7.8,7.8,0,0,0,.83-4.19V519.4l-7.75-11.69a16,16,0,0,0-3.07-3.77,5.75,5.75,0,0,0-3.19-.94h-.31v-1.66h15V503h-.32c-2.29,0-3.45.45-3.45,1.35a3.32,3.32,0,0,0,.69,1.69l7,10.36,5.53-8.51a6.46,6.46,0,0,0,1.23-3.24c0-.71-.22-1.65-2.1-1.65h-.32v-1.67H559.8V503l-.3,0a6.08,6.08,0,0,0-3,.81,11.49,11.49,0,0,0-2.6,3.08l-8.19,12.51v11.1c0,2.09.27,3.52.8,4.26a3.42,3.42,0,0,0,2.91,1.06h.32v1.67Z"/><path d="M141.42,343H127.61v-1.68h.33a3.43,3.43,0,0,0,3-1.13,7.44,7.44,0,0,0,.83-4.06V313.87a7.92,7.92,0,0,0-.82-4.24,3.51,3.51,0,0,0-3-1.11h-.33v-1.67h13.68c4.41,0,8,1,10.56,2.88a9,9,0,0,1,4,7.53,8.19,8.19,0,0,1-3.47,7.06c-2.27,1.62-5.56,2.43-9.76,2.43a49.08,49.08,0,0,1-5.3-.32V336c0,2.07.28,3.49.83,4.24a3.51,3.51,0,0,0,3,1.08h.32V343Zm-4.15-18.79a15,15,0,0,0,4.2.52,9.4,9.4,0,0,0,6.3-2,6.77,6.77,0,0,0,2.27-5.39,8.53,8.53,0,0,0-2.28-6.12,8.29,8.29,0,0,0-6.29-2.4h-4.2v15.37Z"/><path d="M209.19,343h-7.95l-.1-.12a70.54,70.54,0,0,1-5.61-7.95c-2.3-3.61-4.11-5.94-5.4-6.92a6.71,6.71,0,0,0-4.18-1.46h-2.64V336c0,2,.28,3.44.85,4.21a3.53,3.53,0,0,0,3,1.11h.32V343h-13.8v-1.68H174c1.5,0,2.52-.37,3-1.1a8,8,0,0,0,.8-4.21V313.75a7.83,7.83,0,0,0-.79-4.17c-.49-.7-1.52-1.06-3-1.06h-.32v-1.67H189a14.36,14.36,0,0,1,9.08,2.69,8.49,8.49,0,0,1,3.44,6.93c0,4.31-2.39,7.28-7.13,8.83a15.8,15.8,0,0,1,2.74,2.51,47.85,47.85,0,0,1,4.17,6,30.56,30.56,0,0,0,4.43,6,5.29,5.29,0,0,0,3.16,1.48l.3,0V343Zm-25.88-18.57h4.16a8.42,8.42,0,0,0,6.1-2.15,7.69,7.69,0,0,0,2.19-5.71,7.13,7.13,0,0,0-2.43-5.59,9.6,9.6,0,0,0-6.51-2.14h-3.51v15.59Z"/><path d="M240.63,343H226.82v-1.68h.32c1.49,0,2.5-.36,3-1.08s.82-2.17.82-4.23V313.87c0-2.1-.27-3.54-.8-4.28s-1.53-1.07-3-1.07h-.32v-1.67h13.81v1.67h-.32a3.49,3.49,0,0,0-3,1.12c-.56.77-.84,2.19-.84,4.23V336c0,2,.28,3.46.84,4.22a3.5,3.5,0,0,0,3,1.09h.32V343Z"/><path d="M276,343h-13.8v-1.68h.32c1.47,0,2.48-.36,3-1.09s.83-2.18.83-4.22V313.87a7.87,7.87,0,0,0-.82-4.25c-.51-.73-1.52-1.1-3-1.1h-.32v-1.67H287.9v6.94h-1.42l-.06-.25A6.88,6.88,0,0,0,285,310c-.4-.37-1.44-.8-4.18-.8h-9v14.23H281a3.58,3.58,0,0,0,2.64-.86,5.32,5.32,0,0,0,1.13-3.07l0-.28h1.61v10.63h-1.63l0-.3c-.11-2.5-1.31-3.72-3.64-3.72h-9.34V336c0,2.05.28,3.47.84,4.22a3.5,3.5,0,0,0,3,1.1H276V343Z"/><path d="M329.78,343h-14v-1.68h.32c1.69,0,2.81-.38,3.34-1.13a7.75,7.75,0,0,0,.83-4.19V324.93l-7.74-11.71a16.35,16.35,0,0,0-3.08-3.76,5.72,5.72,0,0,0-3.19-.94H306v-1.66h14.95v1.67h-.32c-2.29,0-3.45.46-3.45,1.35a3.44,3.44,0,0,0,.69,1.7l7,10.36,5.53-8.52a6.46,6.46,0,0,0,1.23-3.24c0-.71-.22-1.65-2.11-1.65h-.32v-1.67h10.69v1.66h-.3a6.08,6.08,0,0,0-3,.81,11.47,11.47,0,0,0-2.61,3.08l-8.18,12.51V336c0,2.09.27,3.52.8,4.26a3.35,3.35,0,0,0,2.9,1.06h.32V343Z"/><path d="M366,343.89a20.89,20.89,0,0,1-6.46-1.34,8.12,8.12,0,0,0-1.92-.53c-.45,0-.82.38-1.09,1.15l-.08.21h-1.64V333.14h1.73v.32a8,8,0,0,0,2.56,6.12,8.58,8.58,0,0,0,5.93,2.31,7.67,7.67,0,0,0,5.13-1.65,5.4,5.4,0,0,0,1.89-4.36,6,6,0,0,0-1.57-3.91c-1.07-1.29-3.36-3-6.81-5a30.33,30.33,0,0,1-5.78-4.1,10.19,10.19,0,0,1-2.19-3.36,11.06,11.06,0,0,1-.7-4,8.93,8.93,0,0,1,2.86-6.86,10.51,10.51,0,0,1,7.41-2.63,17.68,17.68,0,0,1,5.4.95,6.51,6.51,0,0,0,1.77.4c.28,0,.35-.06.35-.06a2.18,2.18,0,0,0,.28-.7l.06-.23h1.6v9H373l0-.29a7.38,7.38,0,0,0-7.79-7,7.15,7.15,0,0,0-4.57,1.38,4.41,4.41,0,0,0-1.69,3.63,6,6,0,0,0,1.43,3.88c1,1.2,3.12,2.77,6.4,4.68,3.89,2.26,6.54,4.26,7.89,5.95a9.38,9.38,0,0,1,2.06,6,10,10,0,0,1-3.15,7.38,10.53,10.53,0,0,1-7.57,3.05Z"/><path d="M417.88,343.89c-6.8,0-12.19-1.65-16-4.92a16.36,16.36,0,0,1-5.77-13,20.62,20.62,0,0,1,2.52-10.15A19.21,19.21,0,0,1,415.26,306a23.85,23.85,0,0,1,6.61,1,13.63,13.63,0,0,0,3.34.62,1.68,1.68,0,0,0,1.76-1l.09-.19h1.69v11.12h-1.64l0-.27a10,10,0,0,0-3.95-6.78,12.73,12.73,0,0,0-7.87-2.55,11.51,11.51,0,0,0-9.26,4.38c-2.42,2.93-3.64,6.76-3.64,11.41a19.38,19.38,0,0,0,4.21,12.75,13.19,13.19,0,0,0,10.53,5c3.92,0,5.82-1.14,5.82-3.48v-3.85a8.38,8.38,0,0,0-.83-4.4,3.25,3.25,0,0,0-2.87-1.17H417.5V327H433v1.67h-.32a4.42,4.42,0,0,0-3.24,1,5,5,0,0,0-1,3.5v9.8l-.24.07a34.42,34.42,0,0,1-4.84.61c-2.34.19-4.18.27-5.47.27Z"/><path d="M470.87,343.89a19.52,19.52,0,0,1-14-5.54,18.2,18.2,0,0,1-5.74-13.58,17.73,17.73,0,0,1,5.71-13.42A20,20,0,0,1,471,306a19.63,19.63,0,0,1,14,5.44,17.81,17.81,0,0,1,5.73,13.35A18.16,18.16,0,0,1,485,338.35a19.64,19.64,0,0,1-14.1,5.54Zm.28-35.91a12.36,12.36,0,0,0-10,4.58c-2.51,3.05-3.78,7.18-3.78,12.27s1.26,9.25,3.74,12.38a11.85,11.85,0,0,0,9.73,4.68,12,12,0,0,0,9.87-4.79,18.84,18.84,0,0,0,3.81-12c0-5.15-1.26-9.34-3.73-12.44a11.81,11.81,0,0,0-9.61-4.65Z"/><path d="M536.8,343H509.72v-1.68H510a3.32,3.32,0,0,0,2.94-1.22,8.07,8.07,0,0,0,.89-4.39V313.36a6.43,6.43,0,0,0-.83-3.82,3.65,3.65,0,0,0-3-1h-.32v-1.68h13.74v1.68h-.32a3.3,3.3,0,0,0-2.88,1.17,7.28,7.28,0,0,0-.88,4.11v23.74a3.18,3.18,0,0,0,.74,2.45,5.12,5.12,0,0,0,3.08.65h7.27c2.16,0,3.68-.36,4.5-1.06s1.66-2.31,2.43-4.74l.07-.23h1.76l-.12.41-2.25,7.76-.06.23Z"/><path class="cls-1" d="M360.48,29.11c-.18.07-.56-.28-.56-.28s.59-1.11,1-1.78-.6-.49-1-.69c0,.41-2.72,2.23-2.72,3.8a1.8,1.8,0,0,0,1.81,1.89c2.62,0,3-2.41,3.21-3C361.84,29.32,360.65,29.05,360.48,29.11ZM335,22.7c0,.4-.3.88-.3,1.14s-.11.62.48.62.52-.6.84-1,2.06-1.16,1.78-2.3c-.2.26-.88,0-1,.5a6.79,6.79,0,0,0-2.15.44A.85.85,0,0,1,335,22.7Zm-3.21,181.79c-.13.71-.22,3.2-.32,2.74-1.29-5.64,1.59-10.2,1.95-10.11s1,1.79,1.55,2.42C333.14,200.7,332.41,201.49,331.83,204.49Zm9.14,8.92c-2.53-1.58-3-8.16-3-8.16s1.53,1.45,2.16,1.9A10.2,10.2,0,0,0,341,213.41Zm22.84-70.86c0,2.61,1.26,9.5-4.15,9.5-5.22,0-6.65-8.35-7.38-14.55-.52-4.34-1.57-8.17-1.72-9.28-.36-2.7-.9-.9-.63,2.88.25,3.42,3.07,17.66,2.8,22.52,1.08.64,2.81,11.58,9.57,8.52.81,2.43-2.64,6.62-1.47,8.15-1,.37-3.15-1.35-3.33.63a3.18,3.18,0,0,1,2.34,1.18c1.26,1.35.72,2.88,1.17,5.13a7.24,7.24,0,0,0-4.14-1.08,13.46,13.46,0,0,1,2.52,2.07c1.81,1.71.45,3,.45,4.33-1.35.27-2.34-2.08-4.41-1.08,0,0,1.8,1.89,3,3.24s-.36,3.06-.45,4.14c-1,0-3.42-2.52-4.86-.9,2.79.45,4.23,4.24,3.33,5.14s-.36,3.51-.81,3.33-.72-1.35-1.8-2.7-3-.45-3-.45,5.23,4.23,3.34,5.86-.74,4.4-.74,4.4a7.91,7.91,0,0,1-3.5-3.14s-1.53,2.7-2.52,4.77c-.54,1.53-1.81,2.18-3,4.39a18.53,18.53,0,0,0,.1,5.62c-3.23-1.43-3.17-6.6-3.58-8.39a20.94,20.94,0,0,0,2-2.83c.65-1,1.41-1.94,1.21-1.94-.45,0-3.74,4.07-3.74,4.07l-1.95-1.55s7.13-5.4,7.13-8.74c-1-.36-.72,3.34-8.29,7.84a4.36,4.36,0,0,1-1.35,3.6c-.9.72-1,3.14-1.24,3.85-.25.93-.83,2.66-.83,2.66s-3-10.72,2.09-13.66c0,0,5.81-.67,6.08-2.2a49.25,49.25,0,0,1-6.23,1.16c-.18-.4-1.1-1.49-1.39-2.21,1.12,0,5.66-.77,7.37-.32,0,0,.05-.56.05-.56l-3.67-.16a10.69,10.69,0,0,1-2.23-.12h0l-1.93-.1h0l-.73,0c-2.4,1.56-4.51,8.25-4.95,8.3a12.33,12.33,0,0,1,1.73-6.88,9,9,0,0,1,3.95-3.95c.33-.17,3,1.77,3.22,1.77.57,0-2.9-2.34-1.85-3.33.9.74,2.72,1.12,4.18,2.13.72.11,1.32-.45,2.62-.57,1.46-5.46-.05-18.35,3.46-23,2.16.09.29,2.83,1.46,2.83a5.67,5.67,0,0,0,.84-3.08c0-12-9.22-10.68-9.22-29.06,0-3.08,8.51-16.81,5.27-25.46-1,.73.18,6.85-1.72,10.64.37-2.44-3.72-5-3.72-6.2s1.32-2,1.32-9.2a15.88,15.88,0,0,0-3.14-9.85s-1.57-1.33-1.57-2c0-1.8,2.79-1.09,5.13-2.53-.09-1.53-2-.54-4.5-.09.54-1.8,2.7-2,3.87-2.61s-.45-1.17-1.08-1.08c.45-1,.63-6,3.69-6.49,0-.93-1.95-.75-3.33,1.26-1.14,1.67-1.66,5-2.43,6.31,0,0-4.69,2.25-4.51,5.59-1.08-.18-2.07-3.43-3.42-1.9a11.36,11.36,0,0,1,2.43,4.69c.54,2.61-.63,5-1.26,4.59a4.52,4.52,0,0,0-2.43-3.51c-1.53-.72-1.71-.45.36,2.52s.54,5.14-.36,6c.09-2.43-4.33-3-4.33-3s3.05,1.91,2.71,4.59c-.4,3.06-3,5.35-3.19,4.18-.28-1.4-1.32-3.55-2.49-3.55,0,1,.9,2.35.9,5.23a11,11,0,0,1-1.17,5s-.41-1.54-.63-2.2c-.42-1.21-1.53-3-2-1.76,1.17,2.79-2.46,7.25-.5,11.45-1.54-.18-3.38-1.72-4.82-4.78,0,0,1.62-5.32,1.26-7.57a48.67,48.67,0,0,0-2.34,7l-1.08-.54c1-2.26,2.84-11.49,2.43-11.9s-1.44,3.25-1.44,4.51-1.89,6.57-3,8.92c.9.27,1.08,2.79,2.43,4-.81.18-1.35,3.33-1.35,5.23a47.38,47.38,0,0,1-2.7-9.55,24.32,24.32,0,0,0,2.61-5.86c-.72.72-2.79,4.41-3.52,5a5.72,5.72,0,0,0-1.35-.27,119.53,119.53,0,0,0,5.83-19.18c.42-1.9,1.09-4.6,2-7.31,1.63-5,8.51-16.49,9.41-22.26.66-4.19,2.61-6.3,2.07-7.21-.21.69-2,2.51-3,5.14-1.08,2.92-1.37,6.06-1.8,7.06-.76,0-2.58-1.34-2.58-5.68,0-2.91.14-6.08,1.26-8.38.88-1.82,2.65-1.54,3.62-4,1.62,1.2,3.85,1.61,5.9,2.2.6.17-.88,2.72-.9,6,0,2.48.9,5.93.9,8.29,0,1.63-.39,4.07-1.49,5.11-2.65,2.51-4.89,4.33-4.89,4.33l1.6.65a18.23,18.23,0,0,1,3-2.47c2-1.27,4.56-2.37,6.27-3.84a32.46,32.46,0,0,0,6-7.68l.81.3s6.53,7.5,10.46,10.67a79.5,79.5,0,0,0,.4,17.53c2.28,17.11,7.63,40.55,10.18,40.53.91,0,1.88-1,1.88-4.89,0-9.64-9.91-27.85-9.91-39.56A49.27,49.27,0,0,1,354,83.74c-.18,2.16-1,9.88-.84,11-.18-1.44,1.71-6.57,2.7-8.2-.54,1.18-1.44,8-1.35,10,.54-1,1.17-5.85,2.34-7,.09,1.8-1.53,8-1.44,10.27-.09-1.26,2.34-5.14,2.34-9.73,0-3.87-6.76-11.35-6.76-18.11,0-2.43,2.18-8.92,7.31-8.92,6.58,0,6.12,6.94,4.5,8.38.08-6-4.69-4.42-5.95-1a4.54,4.54,0,0,1,.09-5.23,4.63,4.63,0,0,0-2.25,4.33c.27,3,6.12,6.21,6.12,13.78,0,8.55-4.09,15.47-4.09,18.4a32.37,32.37,0,0,0,.57,7.56c.18.74.48-1.35.77-.55a29.43,29.43,0,0,1,4.41-15.58c-1.32,5,.77,10.81.54,12.87-.31,2.71-2,5.68-2.2,6.39-.36,1.26-.81,4-.09,4,.29,0,.83-1,1.22-2.37.59-2.06,1.32-5,1.43-5.54a26.55,26.55,0,0,1,.9,5.1c.09,2.26-4.22,6.06-3.14,7.86,0-1,3-5,3.56-5.87-.09,3.25-1.26,8.85-3.79,11.11C360.92,128.4,363.81,139.93,363.81,142.55Zm-34.87,53.76a11.52,11.52,0,0,1,2.49-4.07l2.56-1.08C332.89,192.17,330.05,195,328.94,196.31ZM314.4,154.62c-1.44-.72-1.69-2.82-3.89-3.41,2.21-.93,2.93,1.17,4.27.27-.34-2.37-1.88-1.52-3.95-1.88,4.69-1.56,5.39,1.46,5.39,1.46S314,153.18,314.4,154.62Zm-5.24-27.28a4.11,4.11,0,0,1,1.26-.11c1,0,1.49,1,1.94,2.16s1.8,2.3,3.51,3.29c-1.54-.42-3.71-1.11-3.71-1.11S310.38,129.23,309.16,127.34ZM306.85,135a14.64,14.64,0,0,1-3.43-8.4,4.13,4.13,0,0,0,1.44.54C304.86,128.84,304.76,130.38,306.85,135Zm.77,15.64c1.82-.75,1.83.39,1.92.6,0,0-2.72.42-5.69,4C305.17,152.46,306.28,151.32,307.62,150.63Zm13.65-112c.17-.48-.54-4.78-.46-5.61.62,1.26,1.62,6.25,1.1,6.88s-4-.45-4.88,2.35c.08-5.85,1.86-4.86,3-6.44a2.9,2.9,0,0,1,.31,1.95c0,.3-1,.84-1,1C319.6,39.5,321.21,38.81,321.27,38.66Zm8.3,14.18c5.86,0,10.29-7.5,10.64-7.3s-.59,2.24-1.89,4c-1.45,2-3.4,3.69-3.24,3.85s2.26-1.2,4-3.19,3.15-4.56,3.28-4.43-2.05,7.09-10.55,11.73-11.37,3.55-11.37,2.72,1.57-2.54,3.1-3.11c0-.83-2.72-.51-2.72-4.58,0-6.51,6.37-9.28,6.85-8.8C325.18,47.11,325.18,52.84,329.57,52.84Zm4-32.87a54,54,0,0,1,7.87-1.32c.31-.9,3.47-2.65,6.91-2.65,1.74,0,3.64.33,4.86.33,3.83,0,9.85-3.42,11.53-4.68-1.26,6.92-7.4,5.09-9.55,6.84,0,.44.5.62.5.62,2.37-1,6.12,0,8.53-2.13,0,3.11-3.75,3.7-4.52,4.35.41.7,1,.18,2,.18,1.25,0,2.9.66,2.7,4.38s-1.2,5.77-1.2,6.8c-.87,0-2.51,3.21-5.1.83a.51.51,0,0,0-.3.52c0,.42.88,1,.88,1.53a10.76,10.76,0,0,0,3.32,6.7A4,4,0,0,1,359.1,44a7.18,7.18,0,0,1-3.26-.86c-.46,1.12.41,5.21.41,6.41,0,.38-1.55,4.68,1.23,11.58-5.27-1-5.09-5.17-6-5.17-.29,0-.31-.29-.56.42s.63,2,.42,3.35c-.93,6.14-4.14,14.23-4.14,18.66a12.44,12.44,0,0,0,3,8.09c-1.24-.26-11.88-6.31-12-14.84,0-1.57,1-1.66,1-2.12s-.5-.72-1.08-.59c-2.16,2.22-7.21,2-7.21,2s7-5.66,10.74-10.51a41.78,41.78,0,0,0,7.05-13.8c.28-.56-.87.7-2.37,3.85s-3.7,7-4.37,7.16c-.42.94-7.24,9.32-14.19,13.82,0,.32.76,1.09,2.13,1.09a15,15,0,0,0,7.19-1.82,21.71,21.71,0,0,1-10.48,14.08c2.48-4.3.21-9.29.21-14.33,0-3.24,2.1-4.68,2.1-6,0-1-5.31.49-7.34-2.13,4.46-.79,9.59-2.54,13.42-5.65,4.77-3.9,7.78-9.2,8.07-9,.52.38-4.19,8-4.61,8.38,2.54-1.43,5.56-7.84,5.94-7.58s-3.15,7.62-3.85,8.21c1.4-1.15,4.75-5.83,6.47-10.69l.1-5.35S349,40.4,349,39.5s-3.78-2-3.78-5.28c0-1.68.95-1.82.95-2.51s-.74-.77-1-.77A1.54,1.54,0,0,0,344,32.4a9.36,9.36,0,0,0,3.46,6.82c-.11.62-1.58.42-1.79,1.5a1.79,1.79,0,0,1,.21,2.76c-.51.63-1.34,1.83-1.19,2.42-1.05,0-1.18-1.91-2.36-1.93-3.83,0-5.51,2.91-9.15,3.68a7.69,7.69,0,0,1-4.27-.21s1.32-1.49,2.52-2.59c1.73-1.59,2.82-2.73,2.82-2.73s.45.56,3,.62c3,0,6.55-1.74,6.3-5.83-.49-8.17-9.27-4.77-10-8.55C333,25.63,334.12,21.23,333.6,20ZM335,41.19c.49-.11,1-.86,2-.89s1.46.54,2.52.8C337.8,42.38,336.92,41.49,335,41.19Zm5.71-6.7c-.1.53-2.14-.14-4.44-.38,1.09-.17,1-1.8,2.67-1.47C339.63,32.79,340.21,33.11,340.68,34.49ZM325.28,13.8c1.83,0,6.07.95,6.07,4.94,0,2.14-1.59,4.2-2.14,5.71-.42,1.16-.62,2.93-1,3.35s-.35-8.45-1.12-3.35a16.27,16.27,0,0,0-.56,4.68c0,3.57,2.81,6,5.67,6.87,2.54.78,3.56.66,3.64.31s-6.79-2.7-6.25-2.93,5.94,1.73,7.75,2.5c.55.23,4.21,1.56,4.77,2.33.16.23-5.13-1-5.38-1-1,.21,4.61,1.18,5,2,.21.42-4.08-.82-6.05-1.23-3.17-.65-9.95.33-12.26-6.81-1.87-5.79,3.19-11.51,3.66-12.83a2.17,2.17,0,0,0-2-3.15c-1.54,0-2.89,1.53-1.6,2.45,1.05.76,1,1.12-.21,1s-.7,2,.9,2c.82,0-.34,1.24-.34,1.24s-3.69-.2-4-3.35S323,13.8,325.28,13.8ZM302.81,46.05s2.25,3.42,3,2.28c.44-.68-3.61-3.15-2.69-10,.05,1,2.13,2.39,2.64,3.61s.73.14.77-.24c-.28-8.44-3-12.89-2.92-14.92a75,75,0,0,1,5.76,5.35s.67,5,.94,5.76c.84,2.2.77-5.73,1.13-5.65s-4.24-3.75-3.88-3.63c3,1.57,2.75.8,6,4,0,0-.78,9,0,12.68.31-1.16.83-11.22,1.36-11.95-.32-1.26-2.41-3.36-2.41-3.36,1.41-1.77-2.82-7.54-2.89-8.48,0-.08,5.86,5.62,7.1,7.19s-.86,2.09.24,3.19c.52.42,2-1.47,2-1.47a32.69,32.69,0,0,0-6.18-7.77,19,19,0,0,1,7.81,9.54s-4.6,2.93-4.66,5.05c-.2,7-.3,9.73.51,12.89s1.45,9.63,2.08,13.32c-3.58,2.64-4.56,5.44-4.56,10.61a13.49,13.49,0,0,0,3.68,9.58c-.45,2.16-2,.27-2.52-.18s-3.18-.07-5-.43-3-4.71-3.5-5.7c0,0,2.71,1.53,2.8.54a10.64,10.64,0,0,1-4.6-7.47s1.89,1.44,1.89.18c0-.73-3.6-3.34-3.6-8.47,0,0,3.87,2.7,3.87,1.62,0,0-5.4-4.87-3.87-9.37,0,0,3,2.7,3.15.9C306.23,55.33,301.46,51.36,302.81,46.05Zm-1.2,64.33s3,1.89,5.1,1.32c-.47,2.08-.49,1.59-.85,3.07a8.82,8.82,0,0,0-.7,1.14,47.39,47.39,0,0,1-2.09,5.66s-1.91-4.78,1.35-8.34C304.8,112.79,300.91,110.76,301.61,110.38Zm-.23,1.23,1.54,1.21c-1.19,1.15-.88,1.17-1.09,4.52A8.8,8.8,0,0,1,301.38,111.61Zm13.23,62.26s3.5-.38,3.5-1.82c0-.72-2,.09-2.79.54s-5.42-.21-6.68-.39c-.09-1.26,4.82-1.93,4.82-3.46,0-1.82-5-4.19-7.23-4.4-.91-.09-1.19,2.5-1.63,5.67,0,0-1.19-2-1.19-8.49.24-.33,6.3,1.85,8.44,1.44.52-.1-6.68-2-7.56-2.21l3.17-1.72c1.25.48,12.24,3.31,14.36,2.8.7-.17-5-1.3-8.47-2.71A10.12,10.12,0,0,1,310,156.6c-.63-.36-3.07,1.86-5.14,1.71-1.76-.13-2.52,2.8-2.52.72s6.4-5.58,6.4-5.58,2.91,3.31,4.26,3.31l-3.54-3.94,1.53-.27c4.06,6.21,5.69,6,11.91,6,2.25,0,4.69,2.52,4.69,1.44s-4.72-7.83-4.72-22.43c0-9.44,1.39-15.67,2-17.55.44-1.37,1.17-1.08,1.17-1.08,6.4,4,9.74,2.1,11.18,1.65,0,0,2.72,2,3.35,3.4.72,1.63.42,2,1.05,2.84s-.45,3.15-.54,4.41c-1.26,0,.54-3.6-.63-3.6a14.17,14.17,0,0,0-.9,3.6c0,1.27.9,1.72.09,2.62-1.62-1.72-7,2.12-6.94,4.32,0,1.35-.63,1.35-1.53.9.09.9-.63,1.53.18,1.8s.27,1.18.27,1.18c-1.71.63-.36,1.17.18,1.53s1,1.53-.09,1.53c-1.37,0-1,1.44,0,1.44.55,0,1.08,1.89.45,1.62s-2.07,1-1,1c1.36,0,.63,1.17,1.17,1.35s.81-1.08.81-1.08-.42-13.41,3.45-13.86c-1.17.54-1.68,6.39-1.68,12.15,0,8.39,6.82,12.16,6.82,19.19,0,0-3.3-.31-3.3,2.21,0,1.53,2.68,5,2.68,6.89-1.8-.09-4.92,2.12-9.42,1.31.09-.82,1.8-1.45,1.8-1.81a.75.75,0,0,0-.81-.81c-.63,0-1.18,2.44-7,2.44.63-.72,2.79-2.08,2.43-2.62s-2.16.54-2.88,1.08-4.42.09-5.5-.09c.19-.45,5-2.16,1.35-2.16,0,0-.09,1.26-2.43,1.26A10.5,10.5,0,0,1,314.61,173.87Zm43-148.09c1.54,0,3.57-2.23,3.85-2.83-.29.18-.67-.14-1.44-.14s-2.62,1.71-2.93,2.76A.61.61,0,0,0,357.59,25.78Zm-16.21-.28c-1.77,0-1.87,1.34-1.87,1.34a3.21,3.21,0,0,1,1.75-.56c1.8,0,2.66.8,4.57.8a5.76,5.76,0,0,0,3.4-1.3c.6-.3,2.42.2,3-.94-3,.76-4.07-4.25-7.38-4.25-2.8,0-4,3.63-5,3.63,0,0,.06.32.77.32s1.5-1.32,2-1.64c-.1.26.88.3.88.78s-.58.28-1.16.28-.5.36-.68.54a16.18,16.18,0,0,0,2.86.6,4.73,4.73,0,0,0,2-.34c-.22-.1-.12-2.68-1.71-2.68-.52,0-1.5.58-1.7.38a2.86,2.86,0,0,1,1.62-.82c1.53,0,2.59,2.94,3.89,3.2a4,4,0,0,1-2.76,1.06C344.06,25.9,343.14,25.5,341.38,25.5Zm59.61,9c.1.91.22,2.06,1.43,2.17.79,0,1-.66,1.24-1.23a2.32,2.32,0,0,1,.37-.74,1.22,1.22,0,0,0,.35-.63c0-.26-.23-.36-.48-.44h0l-.09,0a1.2,1.2,0,0,1-.79.3,2.79,2.79,0,0,1-2-1.21l-.09-.11-.07-.09,0,.1,0,.14-.14.5v0l.05.1C400.89,33.54,400.94,34,401,34.47Zm-4.57.31c0,.59.09,1.26,1.06,1.29S398.77,34.86,399,34c.11-.38.23-.78.34-.79h.08l0-.09-.24-.58,0-.09-.17,0a4.53,4.53,0,0,1-1.9.83c-.34.08-.66.13-.88.16l-.22,0-.15.27C396.35,33.88,396.38,34.3,396.42,34.78Zm-2.18,7.09v0l.07.08c.85.49.89,1.79.92,2.84a6,6,0,0,0,0,.89c.12.68.7.73,1.12.76s.5,0,.53.19a1.62,1.62,0,0,1,.11.62,3,3,0,0,1-.09.64,4.14,4.14,0,0,0-.07.45.59.59,0,0,0,.15.41,9.18,9.18,0,0,1,.63,1.07,7.78,7.78,0,0,0,1.18,1.82l.18-.09v-.16c0-.25.3-.64.65-1.1a4.65,4.65,0,0,0,1.24-2.49,1.82,1.82,0,0,0-.22-.85,1.31,1.31,0,0,1,.67-.13,4,4,0,0,1,.83.1h0l.09,0a3.32,3.32,0,0,0,1.14-2.89c0-.25,0-.51,0-.8a1.19,1.19,0,0,1,.37-.72,2.86,2.86,0,0,0,.76-1.82,2.6,2.6,0,0,0-.07-.61l1.34.55c.07,0,2.77-.84,2.78-3a3.61,3.61,0,0,0-.54-1.79l0,0-.11,0a4,4,0,0,0-2.8,2.18,7.23,7.23,0,0,1-.74,1,1,1,0,0,0-.68-.36.41.41,0,0,0-.3.12.94.94,0,0,0-.24.7,4.6,4.6,0,0,0,.1.8,4.9,4.9,0,0,1,.11.81c0,.67-1.07,1.09-1.52,1.1a2.79,2.79,0,0,1-1.14-.79,2.68,2.68,0,0,1-.82-1.17c0-.21.25-.42.53-.65s.68-.55.7-.92c0-.59-.11-1.14-.85-1.14a7.3,7.3,0,0,0-1.21.17,9.2,9.2,0,0,1-1.17.19l-.21,0-.17,0,.14.09.19.11s.07.18.09.31a3.73,3.73,0,0,0,.21.71,3.41,3.41,0,0,0,.3.44,1.53,1.53,0,0,1,.41.94c0,1.16-2,1.74-2.53,1.74a1,1,0,0,1-1-1c0-.5.5-1,.94-1.41a4.15,4.15,0,0,0,.62-.68l0,0V38.9c-.16-.27-.52-.32-.89-.38s-.8-.12-1-.42a3.69,3.69,0,0,1-.32-1.26c-.17-1-.36-2.2-1.08-2.24h0a1.69,1.69,0,0,0-1.71,1.92,4.89,4.89,0,0,0,1.18,2.67A4.85,4.85,0,0,1,394.24,41.87ZM246.35,144.81v0l.07.07c.86.5.89,1.8.92,2.85a7.35,7.35,0,0,0,0,.88c.12.69.7.73,1.12.76s.5,0,.53.19a1.71,1.71,0,0,1,.11.63,2.47,2.47,0,0,1-.09.64,4.14,4.14,0,0,0-.07.45.59.59,0,0,0,.15.41,10.9,10.9,0,0,1,.63,1.07,7.78,7.78,0,0,0,1.18,1.82l.17-.09h0v-.15c0-.25.3-.65.65-1.11a4.58,4.58,0,0,0,1.24-2.48,1.79,1.79,0,0,0-.22-.85,1.25,1.25,0,0,1,.67-.14,3.33,3.33,0,0,1,.83.11h0l.09,0a3.34,3.34,0,0,0,1.15-2.89c0-.24,0-.5,0-.79a1.24,1.24,0,0,1,.37-.73,2.9,2.9,0,0,0,.77-1.82,3.26,3.26,0,0,0-.07-.6l1.33.55c.06,0,2.78-.84,2.78-3.05a3.67,3.67,0,0,0-.54-1.8l0,0-.11,0a4,4,0,0,0-2.8,2.18,7.23,7.23,0,0,1-.74,1,1,1,0,0,0-.68-.36.42.42,0,0,0-.3.12.93.93,0,0,0-.24.7,4.6,4.6,0,0,0,.1.8,4,4,0,0,1,.1.81c0,.66-1.06,1.09-1.51,1.09a2.69,2.69,0,0,1-1.14-.79A2.53,2.53,0,0,1,252,143c0-.21.24-.42.52-.65s.68-.56.7-.93c0-.59-.11-1.13-.85-1.13a6.38,6.38,0,0,0-1.21.17,9.2,9.2,0,0,1-1.17.19l-.21,0h-.17l.14.09.18.12c.05,0,.08.18.1.31a3.18,3.18,0,0,0,.22.71,3,3,0,0,0,.29.43,1.58,1.58,0,0,1,.41,1c0,1.15-2,1.73-2.52,1.73a1,1,0,0,1-1-1c0-.49.5-1,1-1.41A4,4,0,0,0,249,142l0,0v-.1c-.16-.26-.52-.31-.89-.37s-.8-.13-1-.42a3.7,3.7,0,0,1-.32-1.27c-.17-1-.36-2.19-1.08-2.24h0a1.73,1.73,0,0,0-1.71,1.93,4.89,4.89,0,0,0,1.18,2.67A4.82,4.82,0,0,1,246.35,144.81Zm6.75-7.41c.1.92.22,2.06,1.43,2.18.79,0,1-.66,1.24-1.23a2.32,2.32,0,0,1,.37-.74,1.2,1.2,0,0,0,.35-.64c0-.25-.23-.35-.48-.43h0l-.09,0a1.2,1.2,0,0,1-.79.3,2.79,2.79,0,0,1-2-1.21l-.09-.12-.07-.09,0,.11,0,.14-.15.5v0l.06.09C253,136.48,253.05,136.91,253.1,137.4Zm-4.57.32c0,.59.09,1.26,1.06,1.29s1.29-1.21,1.55-2.08c.12-.39.23-.78.34-.79h.08l0-.09-.24-.58-.05-.09,0-.08-.13.13a4.57,4.57,0,0,1-1.9.82c-.34.08-.66.14-.89.17l-.26,0-.1.26C248.46,136.82,248.49,137.23,248.53,137.72ZM219.4,0V161.67c0,25.39,13.87,51.87,38,72.64,22.64,19.45,50.86,31.07,75.49,31.07s52.84-11.62,75.49-31.07c24.18-20.77,38.05-47.25,38.05-72.64V0ZM438,49.67c0,4.82-3.9,6.1-6.21,6.1a2.9,2.9,0,0,1-3-1.77,3.68,3.68,0,0,0,1.17.12,5.22,5.22,0,0,0,3.66-1.2l.11-.11h-.15l-7.42.53v.11c4,1.61,5,6.22,5.85,9.92.59,2.62,1.11,4.88,2.49,5.45A3.51,3.51,0,0,0,436.1,71a4.5,4.5,0,0,1,2.06,3.53,2.77,2.77,0,0,0-1.31-.29c-1.71,0-4.09,1.07-5.74,6.19-1.39,4.3-1.15,5.31-1,5.55a.23.23,0,0,0,.19.1.45.45,0,0,0,.34-.3c.78-1.86,1.9-4.18,2.8-6,.79-1.63,1.47-3,1.68-3.65.6.64,2,3.15,1.93,4a.3.3,0,0,1-.11.23,1.94,1.94,0,0,1-.57-.31l-.14-.09a2.18,2.18,0,0,0-.92-.41.31.31,0,0,0-.26.12c-.19.3,0,1.09.58,2.5.43,1.16.51,2.11.21,2.32h0c-.49,0-1.48-.86-1.83-1.19a2.67,2.67,0,0,0,.23,2.6c.44,1,.85,1.85.09,2.87h0c-.21,0-.45-.28-.68-.54l-.13-.15c-.32-.37-.7-.76-1.07-.76s-.44.16-.6.48c.68,1.34,1.2,3.56.38,4.38a5.41,5.41,0,0,0-1.85-.57c-.5,0-.85.29-1.37.85-.86,1-1.15,6.28-1.16,6.51h0a2.64,2.64,0,0,0-.53.58c-.14-.21-.39-.54-.69-.94-1.35-1.79-3.85-5.11-3.28-6.32,2.71-1.26,4.47-6.19,4.49-6.24l-.56-.61c-.12.06-3.24,5-4.05,5.68l-.09.07c-.81.72-2.05,1.81-.52,4.86h0a11.23,11.23,0,0,0-4.45,2.11l.85-6.53,1.23-.41a6.51,6.51,0,0,0,3.21-1.79,22.89,22.89,0,0,0,2.28-5.9c.77-2.69,1.5-5.23,2.91-6.07-.05-1.25-1.32-2.79-2.79-4.56-2.07-2.51-4.42-5.34-4.42-8.32,0-1.06,0-2.07.07-3,.14-3.6.24-6.2-2.09-6.38-.05.09.43,1.75.06,2.25a.33.33,0,0,1-.28.13,1.8,1.8,0,0,1-.88-.35,6.83,6.83,0,0,0-4.08-1,6.54,6.54,0,0,0-4.61,2.2c-.22.21-.42.4-.49.4s0,0,0-.13a2.4,2.4,0,0,1,.76-1.65c.39-.45.74-.84.1-1.47-3.37,1.52-4.25,5.7-4.25,7.69a11.57,11.57,0,0,0,.29,2.57c.2.91.28,1.33-.48,2a3,3,0,0,0-1.89-.92.73.73,0,0,0-.64.29,1.38,1.38,0,0,0,0,1.24,6,6,0,0,0,.65,1.22c.46.69.67,1-.09,3a3.74,3.74,0,0,0-2-1,.54.54,0,0,0-.48.23c-.21.3-.14.89.2,1.76.16.41.3.75.43,1,.67,1.63.81,2,.13,3a4.19,4.19,0,0,0-2.15-1,.47.47,0,0,0-.44.21c-.16.24-.1.69.2,1.36,1.13,2.54,1.25,3.49.56,4.62a5.29,5.29,0,0,0-2.24-.88.52.52,0,0,0-.46.2c-.14.21-.1.57.12,1.1a10.65,10.65,0,0,0,.55,1.08c.5.89.77,1.37.1,3-.71-.77-1.2-1.21-1.72-1.21a1.47,1.47,0,0,0-1,.55,4.8,4.8,0,0,0,.44,1c.64,1.18,1.45,2.64.47,4.18l-2.42-.39c-.25.15-5.11,3.68-5.84,5.14a10.24,10.24,0,0,0-.51,2.43l-.21.33a19.22,19.22,0,0,1-1.15-4.27,13.27,13.27,0,0,0-.55-2.95c.19-.11,5.13-4.1,5.5-6.2l0-.13-.11.07c-1.77,1.11-6.81,4.67-6.71,6.47a11.05,11.05,0,0,0,.27,2.21L381.74,97l1.35-7.45h0c.11,0,6.06-1.69,7.14-5.59.36-1.28.73-3.37,1.11-5.59.8-4.61,1.81-10.35,3.28-11.89l-.26-.79c.05,0,3.67-3.4,8.18-7.91A31.8,31.8,0,0,0,405.67,54c2-2.75,3.5-4.74,8.53-4.74a30.51,30.51,0,0,1,8.26,1,25.37,25.37,0,0,0,6.83.93c4,0,4.22-1.85,4.22-2.22a2.53,2.53,0,0,1,.06-.41A1.88,1.88,0,0,0,433.4,47a2.62,2.62,0,0,0-2.07-.63h0a2.6,2.6,0,0,0-1.46.49,4.52,4.52,0,0,1-2.72.75c-1.8,0-2.91-1.31-2.91-3.41,0-2.49,1.69-3.92,3.18-5.17,1.18-1,2.3-1.94,2.3-3.24l-.07,0c-.09,0-.2.11-.52.43l-.26.27c-.47.47-.76.71-.86.71.05-1.94-1.71-2.35-2.76-2.6-.35-.08-.68-.16-.71-.26s0-.08.06-.12a3.87,3.87,0,0,1,2.29-.58,6.28,6.28,0,0,1,4.28,1.6,4,4,0,0,1,1.17,2.94c0,1.21-.87,1.57-2,2a5.89,5.89,0,0,0-3.2,2.46c-.34.6-.64,1.11-.5,1.44a.56.56,0,0,0,.43.3h0c.27,0,.45-.28.69-.67A3,3,0,0,1,430.35,42C435.68,42,438,47.54,438,49.67ZM413.46,85.6a4.06,4.06,0,0,1,.24,1.16,1.65,1.65,0,0,1-.75,1.38,2.42,2.42,0,0,0-1.64-.93,1.52,1.52,0,0,0-.63.14c-1.22.51-5.29,6.15-5.29,6.19h0v0a1.68,1.68,0,0,1,0-.36,27,27,0,0,1,1.43-7.21c2-1,3.81-3.48,3.8-4v0l-.12-.07c-.22,0-.65.36-1.46,1a22.57,22.57,0,0,1-2.89,2.2c-.87.52-1.73,1.91-2.44,3.92l-2.58,1.53,0-.09,3.87-6.25c1-.64,4.12-2.81,4.75-4.31a29.67,29.67,0,0,1,4.19-5.77.4.4,0,0,0,.06-.25,8.87,8.87,0,0,0-.74-2.36,22.45,22.45,0,0,1-1.88-7.57c0-4.4,3.21-5.85,4.31-5.85a2,2,0,0,1,1.3.44,6.63,6.63,0,0,0,1.12.64,3.42,3.42,0,0,1-2,.9c-.76.17-1.47.34-1.69.76.64.13,3.62.51,3.63,3.49,0,2.54-1,3-1.93,3.36a3.65,3.65,0,0,0-.76.4c-.39.28-.59.55-.59.79,0,.5.86.85,1.39,1.06l.12,0a3.1,3.1,0,0,1,1.23,2.87c0,.41,0,.83-.05,1.24s-.05.78-.05,1.14a2.66,2.66,0,0,0,.41,1.7,70.81,70.81,0,0,0-6.11,5.36,2.35,2.35,0,0,0-.6,1.35.72.72,0,0,0,.1.4l8.34-6.82a19.23,19.23,0,0,0-.33-2.68,51.59,51.59,0,0,1-.72-6,2.65,2.65,0,0,1,.07-.7,3.23,3.23,0,0,1,2-1.93h0l0,0a6.31,6.31,0,0,0-1,3.57,12.59,12.59,0,0,0,2.31,6.68,1.56,1.56,0,0,1,.39,1c0,.54-.42,1-1.22,1.36a1.12,1.12,0,0,1-.48.1l-.32,0-.3,0c-.44,0-.85.16-1.45.94a.47.47,0,0,0-.11.31,1.84,1.84,0,0,0,.33.84,2.6,2.6,0,0,1,.43,1.19,1.13,1.13,0,0,1-.47.91c-.09-.05-.34-.23-.69-.42a3.12,3.12,0,0,0-1.41-.43,1.31,1.31,0,0,0-.87.3.33.33,0,0,0-.15.29,1.4,1.4,0,0,0,.25.66,2.85,2.85,0,0,1,.45,1.36,2.69,2.69,0,0,1-1.11,2l-.08.07.06-.07c-.33-.84-.94-2.19-1.39-2.19a.31.31,0,0,0-.26.15.65.65,0,0,0-.13.43A2.65,2.65,0,0,0,413.46,85.6Zm-13.76.73,3.43-5h0c.13,0,2.89-.36,5.11-.57h0l0,0A6.5,6.5,0,0,1,406.1,82a5.46,5.46,0,0,0-1.55.82,15.59,15.59,0,0,0-1.93,2.52l-.11.16ZM417,88.83c1.44-.19,4.06-.58,6.13-1h0l0,0a4.45,4.45,0,0,1-1.77,1,9.74,9.74,0,0,0-2.75,1.52c-.47.41-.53,1.18-.61,2.16a13.06,13.06,0,0,1-.23,1.83l-3.55.71ZM381.73,91.6l-3,1.7,3-6.3h.85c1.39,0,3.25,0,4.56-.19l0,.1a24.81,24.81,0,0,1-4.34,1.53C381.72,88.78,381.73,91.57,381.73,91.6ZM414.1,25l-.37,0h-.11a.27.27,0,0,1-.3-.27c0-.7,1.95-2.76,4.85-2.77,4,0,4.19,4,4.2,4.75,0,1.74-1.26,3.24-2.09,4.23-.43.52-.75.89-.73,1.13a.18.18,0,0,0,.06.14s.13,0,.22,0c1.52,0,7.81-3.12,7.82-7.74,0-3.52-2.41-3.84-3.15-3.86l0-.09a8.86,8.86,0,0,1,3-.79c1.07,0,2.33.48,2.34,2.74a5.28,5.28,0,0,1-.4,1.41A5,5,0,0,0,429,25.5c0,.48.25.67.8.68.71,0,.82-1.18.82-1.89a9.18,9.18,0,0,0-.08-1.19v0h0a4.18,4.18,0,0,1,1.79,3.56c0,3.7-4.19,4.86-7.24,5.71-1.71.47-2.93.81-2.89,1.45,0,.23.21.46.54.78a4.33,4.33,0,0,1,1.55,3.3,4.91,4.91,0,0,1-5.15,4.9c-.83,0-1.42-.2-1.62-.54,1.73-.93,3.24-3,3.24-4.55,0-1.12-.76-1.77-2.23-1.94h-.24c-1.86,0-3,2.35-3,3.57,0,.84.28,5,5.48,5a8.49,8.49,0,0,0,2.37-.36l.11,0-.08.05s0,.11,0,.29a3.38,3.38,0,0,0,.37,1.72,10.78,10.78,0,0,1-3.22.41c-2.17,0-7.81-1.36-7.81-7.49,0-2.73,1.49-4.45,2.92-6.11,1.24-1.44,2.41-2.8,2.4-4.68C417.84,26,415.61,25,414.1,25ZM390.93,39.43a11.94,11.94,0,0,1-1.1-2.21,5,5,0,0,1-.2-1.58,23.44,23.44,0,0,1,.41-3.71c0-.14,0-.23,0-.27a.76.76,0,0,1,.45-.13,3.94,3.94,0,0,1,1.18.3,2.82,2.82,0,0,0,.79.23c.18,0,.25-.06.26-.25a7.51,7.51,0,0,1,.25-1.47,7.25,7.25,0,0,0,.27-1.64,1.79,1.79,0,0,0,0-.36v0h0a7.33,7.33,0,0,1,1.34,1c.71.62,1.15,1,1.37,1s.12-.07.12-.17c.05-2.4.37-3.87.92-4.13.42.78,1,1.69,1.39,1.69.16,0,.43-.13.58-1a1.27,1.27,0,0,1,1.4-1.09A4.42,4.42,0,0,1,402,26a5.6,5.6,0,0,0-.3,1.46c0,.38.09.88.72.89h.14c.73,0,1.2-2.18,1.2-2.2,1.4.33,2.13.83,2.15,1.41a.88.88,0,0,1,0,.21c-.07.21-.13.42-.2.63a5.62,5.62,0,0,0-.36,1.42.45.45,0,0,0,.12.35l0,0,.07,0c.46,0,1.89-1.73,1.9-1.75h0v0a9.53,9.53,0,0,1,.13,1.88c0,1.39.05,3,.75,3.28a.69.69,0,0,0,.34.09,1.23,1.23,0,0,0,.77-.41,1.41,1.41,0,0,1,.86-.46,1.2,1.2,0,0,1,.77.38v.25c0,.29.07.81.07,1.45a8,8,0,0,1-1.65,5.44,12.75,12.75,0,0,1-2,1.9l0,0,0,.13c0,.13.06.19.26.32a4.1,4.1,0,0,1,1.07,1,8.84,8.84,0,0,1,.82,1.66,4.75,4.75,0,0,0,.51,1c-.14.75-1.33,2.82-2.07,2.86a.36.36,0,0,1-.32-.22,6.75,6.75,0,0,0-2.53-1.87,1.16,1.16,0,0,0-.19.64,2,2,0,0,0,.54,1.24,2.36,2.36,0,0,1,.62,1.44,2.66,2.66,0,0,1,0,.39c-.34,1.84-.7,2-1,2s-.58-.54-.95-1c-.49-.62-1-1.21-1.24-1.21s-.38.21-.39.51a8.36,8.36,0,0,0,.67,2.41,7,7,0,0,1,.46,1.48c0,.81-1.52,1.74-2,1.77-.23,0-.49-.5-.74-1s-.59-1.05-.92-1.05-.48.24-.49.59a5.93,5.93,0,0,0,.28,1.38,4.13,4.13,0,0,1,.21.91c0,.32-.69,1-1.41,1.75a8.49,8.49,0,0,0-2.16,2.83v0l0,0a2.92,2.92,0,0,1-.83-2.28,14.77,14.77,0,0,1,.61-3.41,7,7,0,0,0,.29-1.35c0-.12,0-.2-.07-.22a.82.82,0,0,0-.44-.14c-1.06,0-1.95,2.56-2,2.58a3.18,3.18,0,0,1-1.68-2.5,5.66,5.66,0,0,1,1.46-3.15,6.76,6.76,0,0,0,.86-1.3,1.46,1.46,0,0,0,.15-.57c0-.13,0-.29-.23-.29a1.11,1.11,0,0,0-.67.44c-.19.22-.51.51-.86.85-.9.84-2,1.88-2,2.49l-.09,0a1.66,1.66,0,0,0-.25-.5,4.61,4.61,0,0,1-.88-2.25,2.06,2.06,0,0,1,.2-.88,10.13,10.13,0,0,1,2-2.21,6.18,6.18,0,0,0,1.4-1.54h0c-1.26,0-3.07,1.53-3.76,2.11l-.13.12a.62.62,0,0,1-.39.17c-.43,0-.61-.84-.76-1.55s-.29-1.29-.64-1.29l-.12,0h.1a10.38,10.38,0,0,1,3.14-3.21c.57-.39.91-.63.89-1.09A3.79,3.79,0,0,0,390.93,39.43Zm-6-11.2v.06A17.24,17.24,0,0,0,386,31.68c.82,2.18,1.83,4.89,1.84,6.39v.2c-.05.52-.68.88-1.34,1.26a3.51,3.51,0,0,0-1.37,1.1l0,0v-.05c0-.11,0-.21,0-.3a2.82,2.82,0,0,1,.44-1.44,2.32,2.32,0,0,0,.37-1.18c0-1.11-2.85-5.76-2.88-5.77ZM377.5,31v0l4.63,7s0,.71,0,1.52a14.68,14.68,0,0,0,.17,2.67c0,.16.1.27.16.27h0l.09-.1a43.51,43.51,0,0,0,1-4.47c0-1.16-3.94-5.69-4-5.72l.75-3.24,4.36,8.44a21.55,21.55,0,0,0-.24,3.36,23.71,23.71,0,0,0,.12,2.46c.33,3.21,1.67,7.7,4.44,10.67.31,3.12,2.72,6.07,4.48,8.23.63.78,1.18,1.45,1.53,2-.31,1-3.23,2.2-4.48,2.69l-.18.07a18.58,18.58,0,0,1-4.45,1.31l-.24,0c-.86-.24-2.23-4.1-2.26-5,0-.33.19-.44.34-.44a2.33,2.33,0,0,1,.77.23,1.67,1.67,0,0,0,.53.16c.14,0,.16,0,.18-.18a1,1,0,0,0-.05-.26c-.27-1-1.17-1.34-2.12-1.67-1.19-.41-2.55-.88-2.9-2.88,0-.08,0-.1.06-.1a5.59,5.59,0,0,1,.78.21,5.41,5.41,0,0,0,1.25.3c.11,0,.25,0,.25-.14a.48.48,0,0,0-.06-.21A5,5,0,0,0,381,56.67a5,5,0,0,1-2.35-3.52.17.17,0,0,1,.1,0,1.76,1.76,0,0,1,.62.24,3.65,3.65,0,0,0,1.22.47c.17,0,.24,0,.25-.23h0v-.1c-.06-.42-.54-.82-1.09-1.29-.87-.72-1.94-1.62-1.94-3,0-.16.08-.21.16-.21a1.75,1.75,0,0,1,.53.16,3,3,0,0,0,1,.25.87.87,0,0,0,.61-.21c0-.61-.61-1.22-1.25-1.87s-1.48-1.49-1.49-2.26a.3.3,0,0,1,.05-.17c.73-.39,3-2.43,3-3.59,0-.47-.43-.91-1-1.46a6.86,6.86,0,0,1-2.21-3.64,3.13,3.13,0,0,1-.05-.69C377.12,34,377.5,31.06,377.5,31ZM232.9,156.42c-.05-.41-.53-.81-1.08-1.28-.87-.72-1.94-1.62-1.94-3,0-.16.08-.22.15-.22a2.5,2.5,0,0,1,.54.16,2.78,2.78,0,0,0,1,.25.86.86,0,0,0,.61-.2c0-.62-.61-1.22-1.25-1.87s-1.48-1.49-1.49-2.26a.35.35,0,0,1,0-.17c.77-.41,3-2.41,3-3.59,0-.47-.43-.91-1-1.47a6.86,6.86,0,0,1-2.22-3.63,4.23,4.23,0,0,1,0-.7c0-1.43.32-4,.38-4.49v0l4.63,7s0,.71,0,1.52a14.8,14.8,0,0,0,.17,2.67c0,.15.1.27.16.27h.05l.08-.1a44.11,44.11,0,0,0,1-4.47c0-1.16-3.94-5.69-4-5.72l.75-3.24,4.36,8.43a21.84,21.84,0,0,0-.24,3.37,23.71,23.71,0,0,0,.12,2.46c.34,3.21,1.67,7.7,4.44,10.66.31,3.13,2.72,6.08,4.48,8.23a24.63,24.63,0,0,1,1.53,2c-.3,1.05-3.22,2.19-4.47,2.68l-.19.08a18.54,18.54,0,0,1-4.45,1.3.82.82,0,0,1-.24,0c-.86-.23-2.23-4.1-2.26-5,0-.32.19-.43.34-.43a2.16,2.16,0,0,1,.78.23,1.84,1.84,0,0,0,.52.16c.14,0,.16-.05.18-.18a.73.73,0,0,0,0-.26c-.26-1-1.17-1.34-2.12-1.67-1.2-.42-2.55-.89-2.9-2.88l.06-.1a3.74,3.74,0,0,1,.79.21,5.34,5.34,0,0,0,1.24.3c.11,0,.25,0,.25-.14a.41.41,0,0,0-.07-.21,4.78,4.78,0,0,0-1.48-1.49,5,5,0,0,1-2.36-3.52.23.23,0,0,1,.11,0,1.71,1.71,0,0,1,.62.23,3.65,3.65,0,0,0,1.22.47c.17,0,.24,0,.25-.23h0Zm10.14-14a12.06,12.06,0,0,1-1.1-2.22,5,5,0,0,1-.2-1.57,23.45,23.45,0,0,1,.41-3.73c0-.13,0-.22,0-.25a.71.71,0,0,1,.45-.14,4.16,4.16,0,0,1,1.17.31,2.87,2.87,0,0,0,.8.22c.18,0,.25-.05.26-.24a7.51,7.51,0,0,1,.25-1.47,8,8,0,0,0,.28-1.64,1.71,1.71,0,0,0,0-.36v0h0a7.84,7.84,0,0,1,1.34,1.05c.7.62,1.15,1,1.37,1s.12-.08.13-.17c0-2.4.37-3.87.91-4.13.35.64,1,1.69,1.39,1.69.19,0,.43-.18.58-1a1.29,1.29,0,0,1,1.4-1.09,4.62,4.62,0,0,1,1.58.33,5.6,5.6,0,0,0-.3,1.47c0,.38.09.88.72.89h.14c.73,0,1.2-2.18,1.2-2.2,1.4.33,2.13.83,2.15,1.41a.64.64,0,0,1,0,.2c-.07.22-.14.43-.2.64a5.62,5.62,0,0,0-.36,1.42.45.45,0,0,0,.12.35h0c.56,0,2-1.69,2-1.71h0v0a9.53,9.53,0,0,1,.13,1.88c0,1.38.05,3,.74,3.28a.79.79,0,0,0,.35.09,1.23,1.23,0,0,0,.77-.41,1.41,1.41,0,0,1,.86-.46,1.16,1.16,0,0,1,.77.38v.25c0,.29.07.81.07,1.44a8,8,0,0,1-1.65,5.44,13,13,0,0,1-2,1.91l0,0,0,.12c0,.13.05.19.25.33a3.78,3.78,0,0,1,1.07.95,9.5,9.5,0,0,1,.82,1.66,5.27,5.27,0,0,0,.51,1c-.13.75-1.33,2.82-2.07,2.85a.36.36,0,0,1-.32-.21,6.67,6.67,0,0,0-2.53-1.87,1.13,1.13,0,0,0-.19.63,2,2,0,0,0,.54,1.24,2.38,2.38,0,0,1,.62,1.45,2.77,2.77,0,0,1,0,.39c-.34,1.84-.7,2-1,2s-.58-.54-1-1c-.49-.62-.95-1.2-1.24-1.2s-.39.21-.39.51a8.39,8.39,0,0,0,.67,2.4,6.88,6.88,0,0,1,.46,1.49c0,.8-1.52,1.74-2,1.76-.23,0-.49-.49-.74-1s-.59-1.06-.92-1.06-.48.25-.49.59a5.91,5.91,0,0,0,.28,1.39,4,4,0,0,1,.21.91c0,.32-.69,1-1.41,1.75a8.49,8.49,0,0,0-2.16,2.83v0h0a2.91,2.91,0,0,1-.82-2.28,14.18,14.18,0,0,1,.6-3.41,7.36,7.36,0,0,0,.29-1.35s0-.19-.07-.22a.82.82,0,0,0-.44-.14c-1.06,0-1.95,2.56-1.95,2.58a3.13,3.13,0,0,1-1.68-2.5,5.55,5.55,0,0,1,1.45-3.15,7.64,7.64,0,0,0,.86-1.3,1.42,1.42,0,0,0,.15-.57c0-.14,0-.29-.22-.3a1.08,1.08,0,0,0-.68.45c-.19.21-.5.51-.86.84-.9.84-2,1.89-2,2.5l-.09,0a1.68,1.68,0,0,0-.24-.49,4.5,4.5,0,0,1-.89-2.26,2,2,0,0,1,.2-.87,10.32,10.32,0,0,1,2-2.21,5.91,5.91,0,0,0,1.41-1.55h0c-1.25,0-3.06,1.54-3.74,2.12l-.14.12a.65.65,0,0,1-.39.17c-.42,0-.61-.84-.76-1.55s-.29-1.3-.64-1.3h0a10.27,10.27,0,0,1,3.14-3.21c.57-.39.91-.63.9-1.1A3.91,3.91,0,0,0,243,142.37Zm-3.1-1.16c-.05.52-.68.88-1.34,1.26a3.51,3.51,0,0,0-1.37,1.1l0,0v0c0-.11,0-.21,0-.31a2.69,2.69,0,0,1,.43-1.43,2.36,2.36,0,0,0,.37-1.19c0-1.1-2.85-5.75-2.88-5.76l1.91-3.69v0a17.48,17.48,0,0,0,1.08,3.4c.82,2.17,1.83,4.88,1.84,6.37C240,141.07,239.94,141.14,239.94,141.21Zm-9.08,55,3-6.31h.82c1.3,0,3.26-.05,4.59-.19l0,.1a25.71,25.71,0,0,1-4.34,1.53c-1.08.33-1.08,3.13-1.08,3.16Zm34.71-7.7a4,4,0,0,1,.24,1.16,1.65,1.65,0,0,1-.75,1.38,2.42,2.42,0,0,0-1.64-.93,1.69,1.69,0,0,0-.63.13c-1.22.51-5.29,6.16-5.29,6.2h0v0a2.8,2.8,0,0,1,0-.36,26.89,26.89,0,0,1,1.43-7.21c2-1,3.82-3.48,3.8-4v-.05l-.11-.08c-.23,0-.66.36-1.47,1.06a23.52,23.52,0,0,1-2.89,2.2c-.87.52-1.74,1.91-2.44,3.92l-2.58,1.53,0-.09,3.88-6.26c1-.64,4.12-2.8,4.75-4.3A29.67,29.67,0,0,1,266,177a.41.41,0,0,0,.07-.25,9.73,9.73,0,0,0-.74-2.36,22.22,22.22,0,0,1-1.89-7.57c0-4.41,3.21-5.85,4.31-5.85a1.94,1.94,0,0,1,1.3.44,7.41,7.41,0,0,0,1.12.64,3.49,3.49,0,0,1-2,.9c-.76.17-1.47.33-1.7.76.65.13,3.63.51,3.64,3.49,0,2.54-1,3-1.93,3.36a3.42,3.42,0,0,0-.76.4c-.39.28-.59.54-.59.79,0,.5.86.85,1.4,1.06l.11,0a3.09,3.09,0,0,1,1.23,2.87c0,.41,0,.83-.05,1.24s-.05.78-.05,1.14a2.66,2.66,0,0,0,.41,1.7,72.84,72.84,0,0,0-6.11,5.35,2.31,2.31,0,0,0-.6,1.35.78.78,0,0,0,.1.41l8.34-6.82a21.36,21.36,0,0,0-.33-2.7,51.32,51.32,0,0,1-.72-6,2.5,2.5,0,0,1,.07-.7,3.18,3.18,0,0,1,2-1.93l.05,0,0,0a6.27,6.27,0,0,0-1,3.57,12.62,12.62,0,0,0,2.31,6.68,1.56,1.56,0,0,1,.39.94c0,.68-.67,1.12-1.22,1.37a1.08,1.08,0,0,1-.48.09l-.31,0-.31,0c-.38,0-.82.13-1.45,1a.52.52,0,0,0-.11.3,2,2,0,0,0,.33.85,2.6,2.6,0,0,1,.43,1.19,1.17,1.17,0,0,1-.47.91c-.09-.05-.34-.24-.69-.42a3,3,0,0,0-1.41-.43,1.31,1.31,0,0,0-.87.3.35.35,0,0,0-.15.29,1.4,1.4,0,0,0,.25.66,2.81,2.81,0,0,1,.45,1.36,2.71,2.71,0,0,1-1.11,2l-.08.07.06-.07c-.33-.84-.94-2.19-1.39-2.19a.34.34,0,0,0-.26.14.69.69,0,0,0-.13.43A2.65,2.65,0,0,0,265.57,188.54Zm-13.76.73,3.43-5.05h0c.14,0,2.89-.36,5.12-.57h0l0,0a6.78,6.78,0,0,1-2.16,1.23,5.73,5.73,0,0,0-1.55.81,15.19,15.19,0,0,0-1.92,2.52l-.12.17Zm18.07,8.09-3.55.71,2.78-6.31.07,0c2.39-.35,4.54-.69,6.05-1h0l0,0a4.45,4.45,0,0,1-1.77,1,9.56,9.56,0,0,0-2.74,1.52c-.48.41-.54,1.18-.62,2.15A13,13,0,0,1,269.88,197.36Zm12.37-8.42a.23.23,0,0,0,.19.11.45.45,0,0,0,.34-.3c.78-1.87,1.91-4.2,2.81-6.07.78-1.62,1.46-3,1.67-3.62.6.64,2,3.14,1.93,4a.3.3,0,0,1-.11.24,2.24,2.24,0,0,1-.56-.3l-.15-.1a2,2,0,0,0-.92-.42.32.32,0,0,0-.26.13c-.19.29,0,1.09.58,2.5.43,1.16.51,2.11.21,2.31h0c-.49,0-1.48-.85-1.83-1.18a2.68,2.68,0,0,0,.23,2.6c.44.95.85,1.85.09,2.87h-.05c-.2,0-.43-.26-.66-.52l-.14-.16c-.32-.37-.7-.76-1.07-.76a.72.72,0,0,0-.6.47c.68,1.35,1.2,3.57.37,4.39a5.31,5.31,0,0,0-1.84-.57c-.5,0-.85.29-1.37.85-.86.94-1.15,6.28-1.16,6.51h0a3,3,0,0,0-.53.58c-.14-.21-.39-.53-.69-.93-1.35-1.79-3.86-5.11-3.29-6.33,2.72-1.25,4.48-6.19,4.5-6.24l-.56-.61c-.12.06-3.24,5-4.05,5.68l-.09.08c-.81.72-2.05,1.81-.52,4.86h0a11.29,11.29,0,0,0-4.45,2.11l.85-6.54,1.23-.4a6.59,6.59,0,0,0,3.21-1.79,22.82,22.82,0,0,0,2.28-5.91c.77-2.68,1.5-5.22,2.91-6.06-.05-1.26-1.32-2.79-2.79-4.56-2.07-2.51-4.42-5.35-4.42-8.32,0-1.06,0-2.07.07-3,.14-3.6.24-6.2-2.09-6.38-.05.09.43,1.75.06,2.25a.33.33,0,0,1-.28.13,1.73,1.73,0,0,1-.88-.36,6.83,6.83,0,0,0-4.08-1,6.62,6.62,0,0,0-4.61,2.2c-.21.21-.42.41-.49.41s0,0,0-.13A2.4,2.4,0,0,1,262,160c.39-.45.74-.84.11-1.48-3.38,1.52-4.25,5.7-4.25,7.7a11.7,11.7,0,0,0,.28,2.57c.2.91.28,1.33-.48,2a3,3,0,0,0-1.88-.91.76.76,0,0,0-.65.28,1.38,1.38,0,0,0,0,1.24,5.82,5.82,0,0,0,.65,1.23c.45.67.67,1-.09,3a3.74,3.74,0,0,0-2-1,.54.54,0,0,0-.48.23c-.21.29-.14.89.2,1.76.16.4.31.75.43,1.06.67,1.62.81,2,.13,3a4.19,4.19,0,0,0-2.15-1.05.49.49,0,0,0-.44.2c-.16.25-.09.69.2,1.36,1.13,2.55,1.25,3.5.56,4.62a5.37,5.37,0,0,0-2.24-.87.52.52,0,0,0-.46.2c-.14.2-.1.56.12,1.09a10.65,10.65,0,0,0,.55,1.08c.5.89.77,1.38.1,3v-.09c-.73-.67-1.21-1.11-1.73-1.11a1.47,1.47,0,0,0-1,.54,4.63,4.63,0,0,0,.44,1c.64,1.17,1.45,2.64.47,4.17l-2.42-.39c-.25.16-5.11,3.69-5.84,5.15a10.73,10.73,0,0,0-.51,2.42l-.21.34a19.38,19.38,0,0,1-1.15-4.27,13.27,13.27,0,0,0-.55-2.95c.19-.11,5.14-4.1,5.5-6.21l0-.12-.11.06c-1.77,1.11-6.81,4.69-6.71,6.47a11.29,11.29,0,0,0,.27,2.22l-2.79,2.4,1.34-7.45h0c.12,0,6.06-1.69,7.14-5.59.36-1.28.73-3.38,1.11-5.6.81-4.61,1.81-10.35,3.28-11.88l-.26-.79c.05,0,3.67-3.41,8.19-7.92a31,31,0,0,0,3.12-3.76c2-2.75,3.5-4.74,8.53-4.74a30.38,30.38,0,0,1,8.26,1.06,25.37,25.37,0,0,0,6.83.93c4,0,4.22-1.86,4.22-2.23a2.59,2.59,0,0,1,.06-.4,1.88,1.88,0,0,0-.17-1.59,3.08,3.08,0,0,0-3.55-.14,4.53,4.53,0,0,1-2.72.74c-1.8,0-2.91-1.3-2.91-3.4,0-2.49,1.69-3.92,3.18-5.17,1.18-1,2.3-1.94,2.3-3.24l-.07,0c-.09,0-.2.1-.52.42l-.27.28c-.46.47-.75.71-.85.71,0-1.94-1.71-2.36-2.76-2.61-.35-.08-.68-.16-.71-.25s0-.08.06-.12a3.87,3.87,0,0,1,2.29-.59,6.3,6.3,0,0,1,4.28,1.61,4,4,0,0,1,1.17,2.94c0,1.21-.87,1.57-2,2a5.85,5.85,0,0,0-3.2,2.46c-.34.6-.64,1.11-.5,1.44a.58.58,0,0,0,.43.3h0c.28,0,.45-.29.7-.67a3,3,0,0,1,2.57-1.82c5.33,0,7.69,5.6,7.69,7.72,0,4.82-3.91,6.11-6.21,6.11a2.9,2.9,0,0,1-3-1.77,3.6,3.6,0,0,0,1.16.12,5.23,5.23,0,0,0,3.67-1.2l.11-.11h-.15l-7.42.53v.11c4,1.61,5,6.21,5.85,9.92.59,2.62,1.11,4.88,2.49,5.45A3.48,3.48,0,0,0,288.2,174a4.5,4.5,0,0,1,2.07,3.53,2.76,2.76,0,0,0-1.31-.28c-1.71,0-4.09,1.07-5.74,6.19C281.83,187.7,282.07,188.71,282.25,188.94Zm-16-61a2.23,2.23,0,0,0-.37,0h-.11a.26.26,0,0,1-.3-.26c0-.7,1.95-2.76,4.85-2.78,4,0,4.19,4,4.2,4.76,0,1.74-1.26,3.24-2.09,4.22-.43.52-.75.9-.73,1.14a.15.15,0,0,0,.06.13s.14.06.22.06c1.52,0,7.81-3.12,7.82-7.75,0-3.51-2.42-3.83-3.15-3.85l0-.09a8.86,8.86,0,0,1,3.05-.79c1.07,0,2.33.48,2.34,2.74a5.28,5.28,0,0,1-.4,1.41,4.91,4.91,0,0,0-.42,1.53c0,.47.24.67.8.68.71,0,.82-1.19.82-1.89a8.87,8.87,0,0,0-.08-1.19v0l0,0a4.16,4.16,0,0,1,1.79,3.56c0,3.7-4.19,4.86-7.24,5.7-1.71.47-2.93.81-2.9,1.46,0,.23.22.46.55.78a4.33,4.33,0,0,1,1.55,3.29,4.92,4.92,0,0,1-5.15,4.91c-.83,0-1.42-.2-1.62-.55,1.73-.92,3.24-3,3.24-4.54,0-1.12-.76-1.77-2.23-1.94h-.24c-1.85,0-3,2.35-3,3.57s.43,5,5.49,5a8,8,0,0,0,2.4-.38l.08,0-.08.05s0,.11,0,.29a3.44,3.44,0,0,0,.37,1.71,9.86,9.86,0,0,1-3.22.42c-2.17,0-7.81-1.36-7.81-7.49,0-2.74,1.49-4.45,2.92-6.11,1.24-1.44,2.41-2.8,2.4-4.68C270,128.94,267.72,128,266.21,128Zm27-11.53H223.66V4.26H293.2Zm76,136.72-.25.1v.3a112.91,112.91,0,0,1-15.43,5,71.93,71.93,0,0,1-28.84,2.14,103.72,103.72,0,0,1-27.95-7.23V4.42h.19V4.26h72v.16h.25Zm73-91.47c0,38.66-33,74.19-69.59,90.32V120.11h69.59ZM238.59,46.32l-.07.1h.12c.67,0,.53,2.78,1.42,2.85a.72.72,0,0,0,.42-.18c.48-.41,2.52-2.22,3.8-2.3-.26.75-2.74,2.46-3.39,3.75a2,2,0,0,0-.22.9,6.34,6.34,0,0,0,1.21,2.8l.13,0v-.06c0-.82,2.19-2.55,2.85-3.3a1,1,0,0,1,.63-.43c.1,0,.16.06.17.24a1.3,1.3,0,0,1-.15.55c-.53,1.19-2.28,2.57-2.32,4.44v0a3.24,3.24,0,0,0,1.69,2.56l.07,0,0-.09s.89-2.57,1.9-2.54a.73.73,0,0,1,.42.14s0,.06,0,.16c0,.69-.9,2.89-.9,4.76a3,3,0,0,0,.85,2.32l.09.08,0-.11c.31-1.4,3.53-3.84,3.57-4.59,0-.48-.49-1.61-.49-2.3,0-.35.09-.53.42-.54.58,0,1.13,2,1.67,2s2-1,2.06-1.82c0-.63-1.14-2.87-1.13-3.88,0-.32.08-.45.32-.46.49,0,1.78,2.16,2.21,2.2s.73-.28,1.06-2a3,3,0,0,0,0-.41c0-1.24-1.18-1.67-1.16-2.68a1.73,1.73,0,0,1,.11-.59,6.62,6.62,0,0,1,2.5,1.85A.44.44,0,0,0,259,50c.8,0,2-2.16,2.11-3-.34-.43-.73-1.85-1.33-2.7s-1.37-1.07-1.31-1.17,0-.08,0-.1a18.92,18.92,0,0,0,2.05-2c1.42-1.55,1.67-3.89,1.67-5.47,0-.85-.08-1.49-.08-1.66l0,0,0-.05a1.25,1.25,0,0,0-.81-.4c-.7,0-1.07.9-1.62.88a.71.71,0,0,1-.33-.09c-1-.47-.52-3.89-.84-5.13l0-.13-.09.11s-1.45,1.72-1.84,1.69h-.05a.47.47,0,0,1-.09-.32,9.73,9.73,0,0,1,.55-2,.83.83,0,0,0,0-.22c0-1.06-2.18-1.45-2.18-1.47h-.07v.07s-.48,2.11-1.15,2.15h-.14c-.51,0-.65-.35-.66-.83a4.65,4.65,0,0,1,.31-1.42l0-.06-.07,0a4.61,4.61,0,0,0-1.58-.34,1.33,1.33,0,0,0-1.48,1.14c-.13.75-.34,1-.51,1-.38,0-1-1-1.34-1.66l0-.05-.06,0c-.85.41-.93,3.28-.95,4.18,0,.12,0,.11-.06.12-.39,0-2-1.75-2.69-2l-.14-.06,0,.14a1.18,1.18,0,0,1,0,.34c0,.86-.52,2.32-.52,3.11,0,.16-.05.18-.19.19-.41,0-1.33-.52-2-.53a.68.68,0,0,0-.51.19,26.22,26.22,0,0,0-.45,4,5.07,5.07,0,0,0,.2,1.6c.72,2,1.86,3,1.85,4.11S240.8,42.94,238.59,46.32ZM251.69,34l.15-.5,0-.14.08.12a2.87,2.87,0,0,0,2,1.23,1.25,1.25,0,0,0,.83-.31l0,0,0,0c.23.07.43.16.44.38a1.18,1.18,0,0,1-.34.59c-.47.51-.47,1.94-1.48,2h-.08c-1.81-.18-1.09-2.77-1.69-3.25l0,0Zm-4.83.31H247l.27,0c.23,0,.54-.09.88-.17a4.31,4.31,0,0,0,1.93-.84l.08-.07,0,.1.25.57-.08,0c-.42,0-.51,2.84-1.88,2.87-1.68-.06-.47-2-1.58-2.3,0,0,0,0-.08-.07S246.86,34.3,246.86,34.28Zm-2.27,1.07c1.06.07.92,2.89,1.35,3.48s1.57.3,1.87.8l0,0,0,0c-.38.6-1.58,1.32-1.57,2.12a1.08,1.08,0,0,0,1.08,1.07c.48,0,2.58-.58,2.58-1.79,0-.6-.47-.94-.71-1.4s-.21-1-.33-1l-.18-.11.21,0c.85-.07,1.71-.36,2.37-.36s.79.51.79,1.08-1.25,1.08-1.22,1.57a2.62,2.62,0,0,0,.83,1.21,2.7,2.7,0,0,0,1.18.8c.48,0,1.57-.43,1.58-1.14,0-.51-.21-1.12-.21-1.62a.88.88,0,0,1,.23-.66.35.35,0,0,1,.25-.1,1.42,1.42,0,0,1,.73.34c.92-1,1.55-2.9,3.51-3.13h0l0,0a3.54,3.54,0,0,1,.53,1.77c0,2.16-2.65,3-2.7,3l-1.44-.59a3.12,3.12,0,0,1,.09.7c0,1.35-1.17,2-1.14,2.51v0a7.31,7.31,0,0,1,0,.79,3.3,3.3,0,0,1-1.12,2.85l0,0h0a3.27,3.27,0,0,0-.83-.11c-.4,0-.72.1-.74.22a1.67,1.67,0,0,1,.21.82c0,1.49-1.91,2.94-1.88,3.59a.5.5,0,0,0,0,.12l-.1.09c-.47-.33-1.46-2.47-1.81-2.88a.58.58,0,0,1-.13-.38,10,10,0,0,0,.16-1.09,1.68,1.68,0,0,0-.11-.63c-.11-.5-1.47.13-1.65-1s.16-3.1-1-3.77l0,0v0c0-2-2.32-3.37-2.34-5.36A1.66,1.66,0,0,1,244.59,35.35Zm26.73,11.82a10.92,10.92,0,0,0,3.23-.4l.09,0-.06-.07a3.34,3.34,0,0,1-.36-1.69c0-.17,0-.28,0-.28v-.11l-.1,0a8.19,8.19,0,0,1-2.35.37c-4.91,0-5.43-3.7-5.43-5s1.18-3.52,3-3.52h.23c1.61.18,2.18.93,2.18,1.89,0,1.53-1.57,3.62-3.2,4.47l-.06,0,0,.07c.22.38.87.57,1.68.57a5,5,0,0,0,5.2-5c0-2.68-2.14-3.45-2.09-4.08-.11-1.7,10.11-1.36,10.13-7.16a4.31,4.31,0,0,0-1.81-3.61l-.13-.07,0,.14a9.48,9.48,0,0,1,.08,1.19c0,.88-.17,1.84-.76,1.84s-.74-.24-.75-.63c0-.8.81-2.17.82-2.93,0-2.18-1.16-2.81-2.39-2.81a7.79,7.79,0,0,0-3.11.87l0,.13h0c.41,0,3.09.12,3.1,3.8,0,4.67-6.39,7.68-7.76,7.69a.3.3,0,0,1-.19,0,.13.13,0,0,1,0-.1c0-.64,2.81-2.7,2.82-5.36,0-1.38-.56-4.8-4.26-4.81-2.83,0-4.88,2-4.91,2.84a.33.33,0,0,0,.37.32h.11a2.11,2.11,0,0,1,.36,0c1.42,0,3.69.94,3.69,3.06,0,4-5.31,5.61-5.32,10.8C263.45,45.85,269.28,47.16,271.32,47.17Zm-37.53,42a22.16,22.16,0,0,0,4.4-1.61l0-.13c-2,.21-5.41.21-5.41.21h-.05l-3.09,6.47,3.18-1.78v0h0C232.76,92.07,232.83,89.5,233.79,89.2Zm25.5-7.72.14-.15-.2,0c-2.31.22-5.16.6-5.16.6l-3.52,5.19,3-.94a18.17,18.17,0,0,1,2-2.68C256.36,82.81,258.25,82.5,259.29,81.48Zm18.78-36.4c-.72-.18-.38-.8.11-1.66,1.74-3,5.17-2.07,5.18-4.51,0-4.61-6.12-5.36-7.84-4-.7.7,3.47.1,3.4,3,0,.54,1.71-1.51,1.71-1.35,0,2.87-5.49,3.88-5.49,8.4,0,2,1,3.47,3,3.47,2.62,0,2.72-1.24,4.19-1.24,3.15,0,2.14,1.92,2.14,2.57s-.6,2.17-4.16,2.17c-6.33,0-7.55-2-15.09-2-7.15,0-7.12,3.94-11.7,8.52s-8.2,8-8.2,8l.27.74c-2.2,2.29-3.3,13.56-4.4,17.5S234,90.24,234,90.24l-1.37,7.61,2.93-2.57a10.14,10.14,0,0,1-.27-2.2c-.09-1.65,4.49-5,6.69-6.41-.37,2.11-5.5,6.23-5.5,6.23a12.65,12.65,0,0,1,.55,2.93,20.31,20.31,0,0,0,1.19,4.4l.28-.46a10.61,10.61,0,0,1,.5-2.4c.74-1.47,5.79-5.12,5.79-5.12l2.47.37c1.28-2-.46-3.94-.92-5.13,1-1,1.56-.46,2.75.64.92-2.2.1-2.38-.64-4.12s.64-1.38,2.57-.37c.73-1.19.55-2.2-.55-4.67s1.28-1.29,2.38-.46c.83-1.29.46-1.56-.55-4.13s.55-2.2,2.29-.92c1.1-2.93.19-2.38-.55-4.3s1.1-1.74,2.48-.55c1.28-1.19.21-1.62.21-4.65,0-2.21,1-6.18,4.15-7.65,1.1,1.1-.88,1.34-.88,3.09,0,1,1.6-2.43,5.18-2.43s4,1.39,5,1.39.21-2.38.21-2.38c2.87.22,2,4.2,2,9.33s7.05,10,7.23,12.83c-2.54,1.53-2.88,8.45-5.2,12-1.28,1.42-2.85,1.57-4.45,2.22l-.87,6.7c1.28-1.37,4.58-2.29,4.58-2.29-1.56-3.12-.23-4.14.6-4.87a62.25,62.25,0,0,0,4-5.68l.55.55S277,91.71,274.25,93c-.73,1.56,3.38,6.38,4,7.39a4.4,4.4,0,0,1,.59-.68s.29-5.53,1.15-6.47c1-1.1,1.28-1,3.21-.28.82-.82.37-3-.37-4.4.83-1.55,2.11,1.53,2.52,1,1.46-2-1.33-3.54-.41-5.47,0,0,1.54,1.45,1.92,1.2s.19-1.38-.18-2.39c-1.91-4.57,1-1.55,1.28-1.74.64-.39-1.07-3.59-1.9-4.33-.45,1.29-3,6.21-4.48,9.69-.26.61-1.38.65.54-5.31,2.29-7.09,6-6.29,7.06-5.92-.09-3.3-3.39-3.58-3.67-5.78-3.3-1.37-1.56-12.62-8.34-15.37l7.42-.53c-1.65,1.65-4.86,1.1-4.86,1.1s.49,1.85,3.06,1.85,6.27-1.43,6.27-6.16c0-2.37-2.58-7.78-7.75-7.78C279.07,42.59,278.65,45.22,278.07,45.08Zm-8.43,46.09c1.46-1.31,4-1.74,4.53-2.55l.08-.13-.16,0c-2.62.48-6.16,1-6.16,1l-2.82,6.4,3.7-.78C269.18,93.36,268.91,91.8,269.64,91.17Zm-5-6.23c.51,0,1.35,2.15,1.35,2.15l0,.1.08-.07a2.75,2.75,0,0,0,1.13-2c0-.93-.72-1.61-.7-2a.32.32,0,0,1,.13-.26,1.28,1.28,0,0,1,.83-.28,3.14,3.14,0,0,1,1.39.42,5.21,5.21,0,0,1,.66.42l0,0,0,0a1.21,1.21,0,0,0,.49-1c0-.79-.77-1.53-.76-2a.39.39,0,0,1,.1-.27c.61-.8,1-.92,1.4-.92.21,0,.41,0,.62,0a1.4,1.4,0,0,0,.51-.1c.58-.27,1.24-.72,1.25-1.42a1.58,1.58,0,0,0-.4-1,12.55,12.55,0,0,1-2.3-6.65,6.26,6.26,0,0,1,1-3.54l.11-.17-.19.07a3.31,3.31,0,0,0-2.06,2,2.71,2.71,0,0,0-.07.72c0,2.24,1.07,7.78,1.07,8.65l-8.26,6.83a.78.78,0,0,1-.09-.37,2.27,2.27,0,0,1,.59-1.32,73.34,73.34,0,0,1,6.09-5.32l.06,0,0,0a2.73,2.73,0,0,1-.4-1.66c0-.74.1-1.58.1-2.39a3.11,3.11,0,0,0-1.26-2.92c-.48-.19-1.51-.56-1.48-1,0-.2.14-.45.57-.76,1-.7,2.72-.46,2.71-3.79,0-3-3-3.42-3.64-3.47.44-.83,2.95-.63,3.71-1.63l.05-.07-.07,0c-1.36-.63-1.4-1.08-2.44-1.09s-4.37,1.38-4.37,5.91c0,4.12,2.63,8.77,2.62,9.94a.3.3,0,0,1-.05.2,29.8,29.8,0,0,0-4.2,5.79c-.71,1.7-4.74,4.29-4.75,4.3L252,91.12l.09.1,2.57-1.47s1-3.1,2.46-4c2-1.2,3.9-3.28,4.32-3.25l0,0a.15.15,0,0,1,0,.06c0,.55-1.85,3-3.78,4a27.13,27.13,0,0,0-1.45,7.24,2,2,0,0,0,0,.38l0,.15.09-.13s4-5.62,5.26-6.14a1.5,1.5,0,0,1,.59-.13,2.26,2.26,0,0,1,1.58.9l.05.06,0,0a1.72,1.72,0,0,0,.78-1.43c0-.75-.43-1.49-.42-2a.55.55,0,0,1,.12-.39l-.05,0,.05,0A.26.26,0,0,1,264.64,84.94ZM231.28,42c0,1.12-2.2,3.13-3,3.57a.38.38,0,0,0-.05.2c0,1.48,2.7,2.91,2.76,4.08a.84.84,0,0,1-.57.19c-.55,0-1.18-.4-1.51-.41a.2.2,0,0,0-.21.21v.06c0,2.25,2.89,3.25,3,4.27a.28.28,0,0,1,0,.09c0,.15,0,.17-.19.18-.48,0-1.62-.75-1.91-.77a.12.12,0,0,0-.11.11.43.43,0,0,0,0,0c.41,3.08,3,3.42,3.85,5a.46.46,0,0,1,.06.18s0,.08-.19.08c-.51,0-1.7-.49-2-.5-.05,0-.14,0-.14.11s0,.05,0,.05c.64,3.62,4.43,2.29,5,4.56a.93.93,0,0,1,0,.24c0,.12,0,.12-.12.13-.25,0-.86-.39-1.28-.39a.4.4,0,0,0-.42.44v.05c0,.92,1.4,4.78,2.31,5l.25,0a19.19,19.19,0,0,0,4.46-1.31c1.2-.47,4.37-1.67,4.69-2.84-1.3-2.09-5.57-6-6-10.25-2.66-2.86-4.07-7.27-4.42-10.63a23.85,23.85,0,0,1-.12-2.45,23.53,23.53,0,0,1,.23-3.4l-4.43-8.57-.78,3.43,0,0s4,4.53,4,5.61v.05c-.09,1.07-1,4.46-1,4.46s-.07.06-.08.06a.43.43,0,0,1-.1-.23,14.61,14.61,0,0,1-.17-2.66c0-.85,0-1.54,0-1.55l-4.72-7.1,0,.18s-.39,3-.39,4.52a4.21,4.21,0,0,0,.05.7C228.68,40,231.32,40.93,231.28,42Zm5.52-3.63c0,1-.79,1.34-.8,2.62,0,.1,0,.2,0,.31l0,.22.11-.19c.53-1,2.62-1.37,2.72-2.38,0-.07,0-.14,0-.21,0-2.54-2.86-8.43-2.92-9.78l0-.26-2,3.92,0,0S236.81,37.32,236.8,38.4ZM338.66,238.15c.28,0,1.59-.76,1.59-2.92a2.63,2.63,0,0,0-2.74-2.86c-1.71,0-2.07,1.28-2.07,2.35C335.44,237.55,338.63,238.15,338.66,238.15Zm-13.41,2.65a11,11,0,0,0-1.95-.76,3.27,3.27,0,0,0-2.17,3.17c0,2.56,1.27,3.91,3.68,3.91,2.17,0,2.63-1.61,2.63-3A3.21,3.21,0,0,0,325.25,240.8Zm.17-2.65c.28,0,1.59-.76,1.59-2.92a2.63,2.63,0,0,0-2.74-2.86c-1.71,0-2.07,1.28-2.07,2.35C322.2,237.55,325.39,238.15,325.42,238.15Zm22.6,3.42c0,.22,0,.26.64.26h3.68c.18,0,.22,0,.22,0a1.36,1.36,0,0,0,0-.4v-7.79a53.47,53.47,0,0,0-2.9,4.63A14.44,14.44,0,0,0,348,241.57Zm-31.69,6.86h-8v-1l.21-.06,1.77-.46c.73-.19.73-.23.73-.93V234.24c0-.89,0-.93-.77-1l-2.09,0h-.23l0-.22-.11-.51,0-.25.25-.07,4.9-1.46.14,0,.11.08.31.23.11.09v15c0,.53,0,.67.81.86l1.77.43.21,0Zm7.63.33c-3.2,0-5.11-1.93-5.11-5.17a4.27,4.27,0,0,1,2.54-4,2.62,2.62,0,0,0,.51-.35h0a1.42,1.42,0,0,1-.34-.18,3.75,3.75,0,0,1-1.94-3.7c0-3,2.62-4.62,5.21-4.62,2.87,0,4.45,1.53,4.45,4.32a4,4,0,0,1-2.17,3.53l-.27.18a3.47,3.47,0,0,0,.43.21,4.08,4.08,0,0,1,2.75,4.1C330,246.58,327.7,248.76,324,248.76Zm13.24,0c-3.2,0-5.11-1.93-5.11-5.17a4.27,4.27,0,0,1,2.54-4,2.62,2.62,0,0,0,.51-.35h0a1.65,1.65,0,0,1-.33-.18,3.73,3.73,0,0,1-1.94-3.7c0-3,2.62-4.62,5.21-4.62,2.87,0,4.45,1.53,4.45,4.31a4,4,0,0,1-2.17,3.54l-.27.18a2.74,2.74,0,0,0,.42.21,4.07,4.07,0,0,1,2.76,4.1C343.26,246.58,340.94,248.76,337.2,248.76Zm20.86-6.28-.92,1.28-.08.11h-1.68a.61.61,0,0,0-.24,0,1.36,1.36,0,0,0,0,.31V246c0,.88,0,.88.72,1.08l1.15.33.2.06v1h-6.56v-1l.2-.06,1.35-.41c.41-.1.41-.1.41-.95v-1.69a2.14,2.14,0,0,0,0-.42h0a1.73,1.73,0,0,0-.28,0h-6.6l-.08-.07-.2-.17-.13-.12,0-.16.43-1.74c.39-.65.76-1.28,1.16-2,.53-.93,1.13-2,1.85-3.08,1.59-2.44,3-4.39,3.45-5.05l.06-.07.09,0,2.17-.66.14,0,.12.08.23.18.1.09V241.4a1.4,1.4,0,0,0,0,.42h2.66l.08.11.16.21.13.16Zm-19.58-1.68a10.9,10.9,0,0,0-1.94-.76,3.26,3.26,0,0,0-2.18,3.17c0,2.56,1.28,3.91,3.69,3.91,2.17,0,2.63-1.61,2.63-3A3.2,3.2,0,0,0,338.48,240.8Zm50.15-89.4c.49-.41,2.6-2.31,3.93-2.31-.11.77-2.76,2.53-3.42,3.85s.44,2.65,1,3.64c-.11-.88,2.21-2.65,2.87-3.42s1.2-.51.77.44c-.55,1.22-2.28,2.59-2.32,4.41a3.18,3.18,0,0,0,1.66,2.53s1.1-3.32,2.42-2.44c.53.35-2.09,5.38,0,7.25.33-1.43,3.57-3.91,3.57-4.57s-1.1-2.9,0-2.9c.66,0,1.23,2,1.67,2s2-1,2-1.75-1.95-4.41-.74-4.41c.57,0,1.88,2.2,2.21,2.2s.66-.22,1-2-1.65-2-1-3.75a6.92,6.92,0,0,1,2.61,1.91c.55,1,2.24-1.8,2.35-2.68-.34-.4-.73-1.81-1.32-2.64s-1.32-1-1.32-1.21c0-.45-.14.28,2.06-2.14s1.55-6.82,1.57-7.12c-1.32-1.21-1.64,1-2.74.41s-.55-4-.88-5.18c0,0-1.67,2-2,1.69s.11-1.33.44-2.43-2.09-1.59-2.09-1.59-.44,2.11-1.22,2.2c-1.53.16-.55-2.34-.55-2.34s-2.64-1.13-3,.74c-.39,2.21-1.43.33-2-.66-.77.33-.91,3.23-.91,4.11s-2.08-1.53-2.85-1.86c.22.77-.48,2.59-.48,3.47s-2-.76-2.7-.1c0,.24-.78,3.93-.23,5.5.71,2,1.85,2.93,1.85,4.14s-1.84.93-4,4.31C387.71,148.79,387.41,152.39,388.63,151.4Zm11.47-15.55c.57.79,1.93,1.79,2.94.93.43.15.57.29.07.86s-.51,2-1.51,1.94c-1.72-.14-1-2.65-1.65-3.23Zm-1.8-.21.22.5c-.5.14-.57,2.87-1.87,2.87-1.57,0-.35-1.94-1.57-2.3A7,7,0,0,0,398.3,135.64Zm-7.09,3.94c0-1.65,1.21-1.79,1.57-1.79.94,0,.86,2.79,1.29,3.44s1.65.36,1.87.79c-.36.57-1.58,1.29-1.58,2.15a1.16,1.16,0,0,0,1.15,1.15c.5,0,2.65-.58,2.65-1.87,0-.64-.49-1-.72-1.43s-.17-1-.35-1.08c.86-.07,1.72-.36,2.36-.36s.72.43.72,1-1.22,1-1.22,1.58,1.58,2.07,2.08,2.07,1.65-.43,1.65-1.21-.47-1.76,0-2.23c.29-.28.93.29.93.29,1-1,1.58-2.94,3.52-3.16,1.93,3.37-2.08,4.67-2.08,4.67l-1.58-.65c.61,2-1.06,2.61-1,3.37.16,2.17-.28,2.86-1.07,3.59-.5-.15-1.58-.22-1.65.21,1,1.79-2,3.73-1.65,4.52a28.59,28.59,0,0,1-1.79-2.87c-.36-.43.31-1.06-.07-2.08-.22-.57-1.51.07-1.65-.93s.18-3.1-1-3.82C393.54,142.86,391.21,141.52,391.21,139.58Zm32.5-2.31c-.7.7,3.47.1,3.4,3,0,.54,1.71-1.51,1.71-1.35,0,2.87-5.49,3.88-5.49,8.4,0,2,1,3.47,3,3.47,2.62,0,2.72-1.24,4.19-1.24,3.15,0,2.14,1.92,2.14,2.57s-.6,2.17-4.16,2.17c-6.33,0-7.55-2-15.1-2-7.14,0-7.11,3.94-11.69,8.52s-8.2,8-8.2,8l.27.74c-2.2,2.29-3.3,13.56-4.4,17.5s-7.15,5.59-7.15,5.59l-1.37,7.61,2.93-2.57a10.14,10.14,0,0,1-.27-2.2c-.09-1.65,4.49-5,6.69-6.41-.37,2.11-5.5,6.23-5.5,6.23a12.65,12.65,0,0,1,.55,2.93,20.31,20.31,0,0,0,1.19,4.4l.28-.46a10.61,10.61,0,0,1,.5-2.4c.74-1.47,5.78-5.12,5.78-5.12l2.48.37c1.28-2-.46-3.94-.92-5.13,1-1,1.56-.46,2.75.64.92-2.2.09-2.38-.64-4.12s.64-1.38,2.57-.37c.73-1.19.55-2.2-.55-4.67s1.28-1.29,2.38-.46c.82-1.29.46-1.56-.55-4.13s.55-2.2,2.29-.91c1.1-2.94.18-2.39-.55-4.31s1.1-1.74,2.48-.55c1.28-1.19.2-1.62.2-4.65,0-2.21,1-6.18,4.16-7.65,1.1,1.1-.88,1.34-.88,3.09,0,1,1.6-2.43,5.17-2.43s4.05,1.39,5,1.39.22-2.38.22-2.38c2.87.22,2,4.2,2,9.33s7.06,10,7.24,12.83c-2.54,1.53-2.88,8.45-5.2,12-1.28,1.42-2.85,1.57-4.45,2.22l-.87,6.7c1.28-1.37,4.58-2.29,4.58-2.29-1.56-3.12-.23-4.14.6-4.87a62.25,62.25,0,0,0,4-5.68l.55.55s-1.74,4.95-4.49,6.23c-.73,1.56,3.38,6.38,4,7.39a4.4,4.4,0,0,1,.59-.68s.28-5.53,1.15-6.47c1-1.1,1.28-1,3.21-.28.82-.82.36-3-.37-4.4.82-1.55,2.11,1.53,2.52,1,1.46-2-1.33-3.54-.41-5.47,0,0,1.54,1.45,1.92,1.19s.19-1.37-.18-2.38c-1.91-4.57,1-1.55,1.28-1.74.64-.39-1.07-3.59-1.9-4.33-.46,1.29-3,6.21-4.48,9.69-.26.61-1.38.65.54-5.31,2.29-7.09,6-6.29,7.06-5.92-.09-3.3-3.39-3.58-3.67-5.78-3.3-1.37-1.56-12.62-8.34-15.37l7.41-.53c-1.64,1.65-4.85,1.1-4.85,1.1s.49,1.85,3.06,1.85,6.27-1.43,6.27-6.16c0-2.37-2.58-7.78-7.75-7.78-2.26,0-2.68,2.63-3.26,2.49s-.39-.8.11-1.66c1.73-3,5.17-2.07,5.18-4.51,0-4.61-6.12-5.36-7.84-4m-6.94,8c.66,1.19,6.74.69,6.74-4.35,0-2.65-2.09-3.35-2.09-4.08,0-1.83,10.13-1.43,10.13-7.16a4.18,4.18,0,0,0-1.78-3.54s.44,3.1-.75,3.1c-1.84,0,0-2.53,0-3.63,0-4.74-5.4-1.88-5.4-1.88s3.22-.16,3.22,3.87c0,5.13-7.52,8.25-8.07,7.7s2.75-2.67,2.75-5.51c0-1.37-.54-4.74-4.18-4.74-3.48,0-5.81,3.19-4.43,3s4.12.73,4.12,3.12c0,4-5.32,5.65-5.32,10.79,0,6.16,5.78,7.47,7.79,7.47a11.28,11.28,0,0,0,3.21-.39,3.92,3.92,0,0,1-.36-2,8.39,8.39,0,0,1-2.39.37c-4.94,0-5.49-3.76-5.49-5s1.29-3.79,3.29-3.58C422,139.26,419.44,143.88,416.77,145.29Zm-4.2,42.09c.65-.83,1.68,2,1.68,2,2.56-2.29-.27-3.59.55-4.27,1.1-.92,3,.56,3,.56,1.37-1.19-.78-2.48-.19-3.25,1.19-1.56,1.74-.64,2.56-1s1.74-1.1.83-2.29-3.86-6.42-1.29-10.27a3.33,3.33,0,0,0-2,1.93c-.36,1.37,1,8.34,1,9.35l-8.34,6.93s-.55-.55.46-1.83a72,72,0,0,1,6.1-5.34c-1.19-1.56.84-5.48-1.54-7-.64-.27-2.44-.82-.92-1.92,1-.74,2.69-.44,2.69-3.74s-3.67-3.4-3.67-3.4c.36-1,3-.74,3.75-1.75-1.37-.64-1.4-1.07-2.4-1.07s-4.3,1.34-4.3,5.83,3.15,9.6,2.55,10.19a30.66,30.66,0,0,0-4.19,5.77c-.73,1.74-4.77,4.33-4.77,4.33l-3.84,6.3,2.56-1.47s.95-3.07,2.46-4c2.14-1.28,4.12-3.57,4.45-3.22s-1.68,3.08-3.79,4.18a25.93,25.93,0,0,0-1.38,7.53s4-5.62,5.29-6.16,2.26.79,2.26.79C413.85,189.91,411.93,188.2,412.57,187.38Zm-8.86-1.55c.83-.74,2.71-1,3.72-2-2.32.22-5.16.59-5.16.59l-3.36,5,2.8-.88A16.08,16.08,0,0,1,403.71,185.83ZM382,191.5a22.67,22.67,0,0,0,4.39-1.61c-2,.21-5.42.21-5.42.21l-3,6.23,2.93-1.65S380.86,191.86,382,191.5Zm-5-39.26c0,2.23,2.84,3.21,3,4.3s-2.24-.69-2.2-.36c.41,3.07,3,3.38,3.85,5,.55,1-2.34-.39-2.29-.09.62,3.58,4.37,2.23,5,4.58.37,1.31-1.68-.71-1.76.45-.06.76,1.42,4.81,2.24,5s3.49-.83,4.68-1.29,4.37-1.69,4.64-2.79c-1.28-2-5.56-5.91-6-10.22-2.66-2.84-4.07-7.26-4.42-10.64a24.6,24.6,0,0,1,.11-5.86L379.52,132l-.73,3.21s4,4.6,4,5.7a45.17,45.17,0,0,1-1,4.49c-.65.92-.46-4.4-.46-4.4l-4.6-6.91a33.07,33.07,0,0,0-.34,5.2c.57,3,3.2,3.91,3.2,5.1s-2.23,3.17-3.05,3.63c-.18,1.47,2.66,2.93,2.75,4.22C378.52,153.06,377,151.66,377,152.24Zm7.32-8.56c.57-1,2.64-1.42,2.71-2.35.17-2.38-2.84-8.55-2.92-10L382.21,135s2.85,4.61,2.85,5.75S384.14,142.19,384.28,143.68Zm38,47.27c-2.63.48-6.17,1-6.17,1l-2.71,6.24,3.57-.75c.32-1.7,0-3.27.79-4C419.26,192.16,421.83,191.7,422.3,191Z"/></g></g></svg>