<svg xmlns="http://www.w3.org/2000/svg" xmlns:xlink="http://www.w3.org/1999/xlink" viewBox="0 0 1588.32 721.9"><defs><style>.cls-1{fill:none;}.cls-2{fill:#fff;}.cls-3{font-size:29.98px;font-family:Bariol-Bold, Bariol;font-weight:700;}.cls-3,.cls-6{fill:#eacc00;}.cls-4{clip-path:url(#clip-path);}.cls-5{fill:#e7cb1a;}</style><clipPath id="clip-path" transform="translate(0 352.39)"><rect id="SVGID" class="cls-1" x="1129.74" y="-352.39" width="458.58" height="72.3"/></clipPath></defs><title>gist_logo_withHeart_withTechnocamps_yellowWhite_forDarkBG</title><g id="Layer_2" data-name="Layer 2"><g id="yellowWhite_forDarkBG"><g id="heart"><path class="cls-2" d="M927,8a104.77,104.77,0,0,1,74.29,30.77h0a105.08,105.08,0,0,1,0,148.58l-15.2,15.19L837.53,351.12,689,202.54l-15.19-15.19a105.06,105.06,0,0,1,0-148.58h0a105.07,105.07,0,0,1,148.58,0L837.53,54l15.2-15.2A104.74,104.74,0,0,1,927,8m0-8a112.35,112.35,0,0,0-79.95,33.11l-9.54,9.54L828,33.11A113.06,113.06,0,0,0,668.1,193l15.2,15.19L831.88,356.78l5.65,5.66,5.66-5.66L991.77,208.2,1007,193A113.06,113.06,0,0,0,927,0Z" transform="translate(0 352.39)"/><text class="cls-3" transform="translate(735.67 388.75)">01<tspan x="174.79" y="0">01</tspan><tspan x="-61.32" y="35.98">0100011001</tspan><tspan x="116.52" y="35.98">0101100011</tspan><tspan x="-83.8" y="71.96">011010000110111001101111011</tspan><tspan x="-77.04" y="107.94">0001101100001011011010111</tspan><tspan x="-64.97" y="143.92">0000011100110101010001</tspan><tspan x="-28.34" y="179.9">100101011000110110</tspan><tspan x="5.9" y="215.88">1000011011100</tspan><tspan x="41.08" y="251.86">1101111011</tspan><tspan x="83.54" y="287.83">00</tspan></text></g><g id="technocamps"><g class="cls-4"><g class="cls-4"><path class="cls-5" d="M1157.21-296.12c-3.6.21-17,.16-21.17-.17s-6.3-3-6.3-8v-48.09h5.88a5.18,5.18,0,0,1,3.77,1.63,5.39,5.39,0,0,1,1.63,3.93v7.36h16.64v2.29a5.29,5.29,0,0,1-1.64,4,5.52,5.52,0,0,1-3.92,1.55H1141v24.21c0,1.86,1.09,2.78,3.27,2.78h12.92v8.51" transform="translate(0 352.39)"/><path class="cls-5" d="M1188.19-309.54h8.18a17.83,17.83,0,0,1-6.87,10.47q-5.07,3.76-12.76,3.76-9.33,0-14.56-6.05-5.23-5.88-5.23-16.85,0-10.46,5.06-16.35,5.25-6.06,14.56-6.06,9.83,0,15.22,5.89,5.24,6.06,5.24,16.85v1.8a2.7,2.7,0,0,1-.17,1.14h-28.3c.1,3.39.93,5.89,2.45,7.53s3.55,2.62,6.38,2.62a9.21,9.21,0,0,0,4.75-1.15,2.33,2.33,0,0,0,.89-.57l.91-.9a3.46,3.46,0,0,1,1.22-1.31,4.86,4.86,0,0,1,3-.82m-19.63-12.76h16.69q-.33-4.41-2.3-6.54a7.85,7.85,0,0,0-6-2.29,8,8,0,0,0-5.89,2.29,9.39,9.39,0,0,0-2.45,6.54" transform="translate(0 352.39)"/><path class="cls-5" d="M1229.09-309.54h8.17a17.83,17.83,0,0,1-6.87,10.47q-5.07,3.76-12.76,3.76-9.32,0-14.55-6.05-5.25-5.88-5.24-16.84,0-10.47,5.07-16.36,5.23-6.06,14.56-6.06,9.83,0,15.21,5.89a22.53,22.53,0,0,1,4.26,8.34h-11.45a9.84,9.84,0,0,0-1.64-2.45,7.88,7.88,0,0,0-6-2.29,8,8,0,0,0-5.89,2.29q-2.94,3.27-3,10.8t3,10.63c1.42,1.74,3.54,2.62,6.38,2.62a9.2,9.2,0,0,0,4.74-1.15,2.29,2.29,0,0,0,.9-.57l.9-.9a7.47,7.47,0,0,1,1.31-1.31,4.51,4.51,0,0,1,2.95-.82" transform="translate(0 352.39)"/><path class="cls-5" d="M1266.38-327.37a7.8,7.8,0,0,0-6.71-3.44,8.27,8.27,0,0,0-7,3.28c-1.64,2.18-2.45,5.18-2.45,9v22.41h-11.13v-56.27h5.57a5.35,5.35,0,0,1,3.92,1.63,5.36,5.36,0,0,1,1.64,3.93v12.92a13,13,0,0,1,8.34-6.22,16.61,16.61,0,0,1,10.31.66,18.45,18.45,0,0,1,7.69,6.22q3.1,4.25,3.1,11.77v25.36h-11V-318.7a23.29,23.29,0,0,0-.41-4.5,11.28,11.28,0,0,0-1.88-4.17" transform="translate(0 352.39)"/><path class="cls-5" d="M1319.55-296.12h-5.73a5.43,5.43,0,0,1-4-1.56,5.43,5.43,0,0,1-1.55-4v-22.25q0-3.93-2.37-5.73a8.59,8.59,0,0,0-5.32-1.8,8.22,8.22,0,0,0-5.23,1.8q-2.29,1.8-2.29,5.73v27.81H1281.6v-25.52q0-11.13,5.8-14.89a25.45,25.45,0,0,1,12.84-4.09,24.73,24.73,0,0,1,13.26,3.76q6,3.78,6,15.22v25.52" transform="translate(0 352.39)"/><path class="cls-5" d="M1326.75-300a16.12,16.12,0,0,1-4.91-7.93,36.59,36.59,0,0,1-1.47-10.39,32.76,32.76,0,0,1,1.22-8.83,18.14,18.14,0,0,1,3.85-7.36,16.94,16.94,0,0,1,11-5.81,25.18,25.18,0,0,1,12.1,1.06,16.7,16.7,0,0,1,9.16,8.5,27.14,27.14,0,0,1,2.78,12.6,31.23,31.23,0,0,1-1.14,9,23.15,23.15,0,0,1-3,6.38,16.31,16.31,0,0,1-10,6.71,22.3,22.3,0,0,1-10.89.24,18.8,18.8,0,0,1-8.74-4.17m7.85-28.79q-3.43,3.76-3.11,11.2t2.78,10.39a7.21,7.21,0,0,0,3.43,2.21,7.75,7.75,0,0,0,5,.16,8.28,8.28,0,0,0,4.5-3.67q2-3,2.13-9.49c0-3.93-.63-6.87-1.88-8.84a8.55,8.55,0,0,0-4.34-3.76,7.89,7.89,0,0,0-4.9-.08,8.5,8.5,0,0,0-3.6,1.88" transform="translate(0 352.39)"/><path class="cls-2" d="M1392.51-309.54h8.18a17.89,17.89,0,0,1-6.88,10.47q-5.07,3.76-12.76,3.76-9.32,0-14.55-6.05-5.24-5.88-5.24-16.84,0-10.47,5.07-16.36,5.24-6.06,14.56-6.06,9.83,0,15.21,5.89a22.53,22.53,0,0,1,4.26,8.34h-11.45a9.58,9.58,0,0,0-1.64-2.45,7.88,7.88,0,0,0-6-2.29,8,8,0,0,0-5.89,2.29q-2.94,3.27-2.94,10.8t2.94,10.63c1.41,1.74,3.54,2.62,6.38,2.62a9.17,9.17,0,0,0,4.74-1.15,2.29,2.29,0,0,0,.9-.57l.91-.9a7,7,0,0,1,1.3-1.31,4.51,4.51,0,0,1,3-.82" transform="translate(0 352.39)"/><path class="cls-2" d="M1430.29-297.92a20.1,20.1,0,0,1-7.27,2.2,63.29,63.29,0,0,1-6.79.41,17.11,17.11,0,0,1-10.31-3.19q-4.41-3.18-4.42-10.55c0-4.57,1.34-7.85,4-9.81a23.08,23.08,0,0,1,10.22-3.93,9.87,9.87,0,0,0,2-.24,25.27,25.27,0,0,1,2.61-.41c4.8-.66,7.2-2.07,7.2-4.25a3.1,3.1,0,0,0-2.53-3.19,16.54,16.54,0,0,0-4.67-.74,12,12,0,0,0-4.08.65,4.44,4.44,0,0,0-2.62,2.46h-11a12.6,12.6,0,0,1,4.58-8.35q4.41-3.75,12.59-3.76,9.17,0,13.75,3.11a10.51,10.51,0,0,1,4.74,9.16v14.89c0,4.36-.8,7.77-2.37,10.22a14.56,14.56,0,0,1-5.65,5.32M1427.68-318a31,31,0,0,1-6.38,2.12l-3.77.82a9.71,9.71,0,0,0-4.25,2.13,6.6,6.6,0,0,0-1.14,3.6,5.25,5.25,0,0,0,1.47,3.92,6.16,6.16,0,0,0,4.25,1.31,9.73,9.73,0,0,0,7.2-2.62,9.73,9.73,0,0,0,2.62-7.19Z" transform="translate(0 352.39)"/><path class="cls-2" d="M1477.9-296.12h-11.29v-27.81q0-3.93-2.37-5.73a8.61,8.61,0,0,0-5.32-1.8,8.22,8.22,0,0,0-5.23,1.8q-2.3,1.8-2.3,5.73v27.81H1440v-25.52q0-11.13,5.8-14.89a25.48,25.48,0,0,1,12.84-4.09,33.57,33.57,0,0,1,7.37.82,15.6,15.6,0,0,1,6.54,3.27,14.47,14.47,0,0,1,5.81-3,32.4,32.4,0,0,1,7-1.07,24.69,24.69,0,0,1,13.25,3.76q6,3.78,6,15.22v25.52h-5.72a5.4,5.4,0,0,1-4-1.56,5.39,5.39,0,0,1-1.56-4v-22.25q0-3.93-2.37-5.73a8.57,8.57,0,0,0-5.32-1.8,8.56,8.56,0,0,0-5.31,1.8q-2.37,1.8-2.37,5.73v27.81" transform="translate(0 352.39)"/><path class="cls-2" d="M1518.79-285.65a5.39,5.39,0,0,1-1.63,3.92,5.38,5.38,0,0,1-3.93,1.64h-5.56v-40.74q0-11.44,6.71-15.62a27,27,0,0,1,14.56-4.17,23.73,23.73,0,0,1,8.26,1.55,15.35,15.35,0,0,1,6.62,4.51q4.9,6.38,4.91,16.36,0,10.29-4.91,16.68a15.32,15.32,0,0,1-12.59,6.21,16.65,16.65,0,0,1-7.2-1.46,12.37,12.37,0,0,1-5.24-5.08v16.2m18.65-32.07q0-6.37-2.45-9.81a8.14,8.14,0,0,0-7-3.44,8,8,0,0,0-6.88,3.44q-2.28,3.11-2.29,9.81,0,6.23,2.46,9.33a8.11,8.11,0,0,0,7,3.43,7.81,7.81,0,0,0,6.71-3.43q2.44-3.44,2.45-9.33" transform="translate(0 352.39)"/><path class="cls-2" d="M1549.71-310.52h11.12a6,6,0,0,0,2.46,4.91,11.6,11.6,0,0,0,6.54,1.64,10.49,10.49,0,0,0,5.07-1.15,3.47,3.47,0,0,0,2-3.11q0-2.94-6.87-4.41a32.73,32.73,0,0,1-4.41-1c-5.79-1.42-9.65-3.11-11.62-5.08a10,10,0,0,1-3.27-7.85,13.05,13.05,0,0,1,4.74-10.31q4.92-3.75,12.76-3.76,8.5,0,13.58,3.76a14.36,14.36,0,0,1,5.07,10.64h-7a5.22,5.22,0,0,1-4.75-2.78l-1.3-1.31a8.83,8.83,0,0,0-5.4-1.47,9.8,9.8,0,0,0-4.91,1,3.32,3.32,0,0,0-1.47,2.95q0,2.63,8.5,4.42c.66.22,1.23.38,1.72.49a6.38,6.38,0,0,0,1.39.16q8.34,2.13,11.62,4.91a10.31,10.31,0,0,1,3.11,7.85q0,7.2-5.24,11.13-4.9,3.6-14.72,3.59-9.33,0-13.91-3.76-4.74-3.75-4.74-11v-.49" transform="translate(0 352.39)"/></g></g></g><g id="Cymru"><path class="cls-2" d="M106.49,265.79c-3.26,16.33-13.95,25-30.89,25-32.69,0-37.57-29.88-37.57-47.7,0-21.86,6.67-47.92,38.47-47.92,13.59,0,22.45,4.81,27.11,14.74,3.51,7.28,9.62,11.13,17.67,11.13h22.61l-.35-3.69c-1.67-17.6-8.25-31.66-19.67-41.89-12-9.9-27.52-14.72-47.37-14.72-48.62,0-76.5,30-76.5,82.35s26.9,82.13,73.8,82.13c40.64,0,66.71-21.85,69.74-58.45l.3-3.65H107Z" transform="translate(0 352.39)"/><path class="cls-2" d="M245.1,197.15c-9.2,0-15.23,4.53-17.42,13l-17.45,60.69-21.08-73.71H147.88l42,120.67c2.05,6.82,1.93,11.84-.37,14.92s-7,4.59-13.94,4.59h-11.7v29.59l1.35,1c1.55,1.16,4,1.57,14.62,1.57,27.23,0,35.06-8.8,42.35-28.62l48.53-143.73Z" transform="translate(0 352.39)"/><path class="cls-2" d="M443.15,209.52c-9-9.1-22.7-13.72-40.58-13.72-15,0-26.61,2.91-35.51,8.88-9-6.27-20.67-9.33-35.59-9.33-36.13,0-54.45,18.25-54.45,54.23v73.35h37.13v-79.4c.2-10.44,5.4-15.1,16.87-15.1s16.76,4.7,17.33,15.07v79.43h36.9V244c.19-10.46,5.39-15.13,16.87-15.13s16.76,4.7,17.33,15.07v61.2c0,7.75,3.12,17.21,18,18.22h19.12V250.05C456.69,232.25,452.17,218.61,443.15,209.52Z" transform="translate(0 352.39)"/><path class="cls-2" d="M531.62,197.15c-41.9,0-63.63,20.49-64.58,60.9v64.88h37.13V257.68c0-15.51,6.86-22.73,21.6-22.73h13.5v-37.8Z" transform="translate(0 352.39)"/><path class="cls-2" d="M634.5,197.15c-5.83,0-10.33,1.58-13.37,4.69s-4.54,7.71-4.4,13.54v62.77c0,11.36-5.21,16.43-16.88,16.43S583,289.51,583,278.15v-81H546.3v74.93c0,21.31,5.59,35.2,17.06,42.42A63.24,63.24,0,0,0,599,325.18a73,73,0,0,0,36.88-9.73c11.51-7.11,17.35-21.7,17.35-43.37V197.15Z" transform="translate(0 352.39)"/></g><g id="GiST"><path class="cls-6" d="M190.07,95v13a18.92,18.92,0,0,0,19.12,19.13h14.23c-4.37,16.24-16.3,25.82-32.56,25.87-26-1.92-38.58-18.33-38.37-50.15.21-31.51,12.21-46.82,36.68-46.82,13.68,0,23,5.41,28.47,16.56l.26.44c4.3,6.18,9.85,9.32,16.49,9.32h22.95l-.23-3.59c-1.17-18.08-8.1-32.37-20.6-42.46l-.18-.14c-13.33-9.35-29.48-14.1-48-14.11-20.28-.79-38.07,5.65-51.39,18.64-15.46,15.08-23.76,37.73-23.38,63.71,0,49.12,29.66,82.13,73.81,82.13,20.61,0,32.08-6.47,41.84-17.27l0,.19c.89,8.33,9.05,14.83,18.64,14.83h11.25V95Z" transform="translate(0 352.39)"/><path class="cls-6" d="M285.94,58.57H267V184.35h36.67v-108C303.71,64.88,297.4,58.57,285.94,58.57Z" transform="translate(0 352.39)"/><path class="cls-6" d="M303.71,42.67c.14-5.77-1.33-10.27-4.36-13.37s-7.56-4.7-13.41-4.7H267V54.75h36.67Z" transform="translate(0 352.39)"/><path class="cls-6" d="M418.87,97.46A358.52,358.52,0,0,0,382,86.78c-18-4-27.07-10-27.07-17.66.36-6.24,3-14.57,21.6-14.82,12.1,0,20.19,3.69,24.72,11.29,3.6,7.14,9.29,10.76,16.91,10.76h21.12l-.2-3.57c-1.91-33.61-22-50.66-59.83-50.66h-.81c-39.22,0-59.47,17.16-60.18,51.08,0,21.91,15.92,37.09,47.28,45.11l3.72,1c9.58,2.54,18.62,4.94,26.6,7.33,10.19,2.91,11.5,7.85,11.5,11.83v.06c.07,4-1,7.09-3.3,9.43-3.94,4-11.61,6-22.8,6-18.19,0-27.13-6.72-28.14-21.16l-.21-3.14H316l.09,3.47c1,35.47,22.91,53.46,65.25,53.46,40.63,0,62.2-16.13,64.12-48C446.39,117.67,437.45,103.82,418.87,97.46Z" transform="translate(0 352.39)"/><path class="cls-6" d="M473.22,24.6c-10.55,0-19.13,8.88-19.13,19.8V58.57h45.23V184.35h38V58.57h45.23v-34Z" transform="translate(0 352.39)"/></g></g></g></svg>