<svg xmlns="http://www.w3.org/2000/svg" viewBox="0 0 653.18 347.45"><defs><style>.cls-1{fill:#fff;}.cls-2{fill:#524f4a;}</style></defs><title>gist_logo_core_greyWhite_forYellowBG</title><g id="Layer_2" data-name="Layer 2"><g id="greyWhite_forYellowBG"><g id="Cymru"><path class="cls-1" d="M106.49,243.73c-3.26,16.33-13.95,25-30.89,25C42.91,268.7,38,238.81,38,221c0-21.87,6.67-47.93,38.47-47.93,13.59,0,22.45,4.81,27.11,14.74,3.51,7.28,9.62,11.14,17.67,11.14h22.61l-.35-3.7c-1.67-17.6-8.25-31.66-19.67-41.89-12-9.9-27.52-14.71-47.37-14.71C27.88,138.65,0,168.66,0,221c0,52.19,26.9,82.12,73.8,82.12,40.64,0,66.71-21.85,69.74-58.45l.3-3.65H107Z"/><path class="cls-1" d="M245.1,175.1c-9.2,0-15.23,4.53-17.42,13L210.23,248.8l-21.08-73.7H147.88l42,120.67c2.05,6.81,1.93,11.83-.37,14.91s-7,4.59-13.94,4.59h-11.7v29.59l1.35,1c1.55,1.16,4,1.58,14.62,1.58,27.23,0,35.06-8.81,42.35-28.62L270.73,175.1Z"/><path class="cls-1" d="M443.15,187.47c-9-9.11-22.7-13.72-40.58-13.72-15,0-26.61,2.9-35.51,8.87-9-6.27-20.67-9.32-35.59-9.32-36.13,0-54.45,18.24-54.45,54.22v73.35h37.13V221.48c.2-10.45,5.4-15.11,16.87-15.11s16.76,4.71,17.33,15.08v79.42h36.9V222c.19-10.47,5.39-15.14,16.87-15.14s16.76,4.71,17.33,15.08v61.2c0,7.75,3.12,17.2,18,18.21h19.12V228C456.69,210.19,452.17,196.56,443.15,187.47Z"/><path class="cls-1" d="M531.62,175.1C489.72,175.1,468,195.58,467,236v64.88h37.13V235.62c0-15.5,6.86-22.72,21.6-22.72h13.5V175.1Z"/><path class="cls-1" d="M634.5,175.1c-5.83,0-10.33,1.57-13.37,4.68s-4.54,7.71-4.4,13.54V256.1c0,11.35-5.21,16.42-16.88,16.42S583,267.45,583,256.1v-81H546.3V250c0,21.31,5.59,35.2,17.06,42.43A63.31,63.31,0,0,0,599,303.12a72.94,72.94,0,0,0,36.88-9.73c11.51-7.1,17.35-21.7,17.35-43.37V175.1Z"/></g><g id="GiST"><path class="cls-2" d="M190.07,73V86a18.92,18.92,0,0,0,19.12,19.13h14.23c-4.37,16.25-16.3,25.83-32.56,25.88-26-1.93-38.58-18.33-38.37-50.16C152.7,49.36,164.7,34,189.17,34c13.68,0,23,5.42,28.47,16.56l.26.44c4.3,6.19,9.85,9.33,16.49,9.33h22.95l-.23-3.6c-1.17-18.08-8.1-32.37-20.6-42.46l-.18-.13C223,4.82,206.85.08,188.33.06c-20.28-.78-38.07,5.66-51.39,18.64-15.46,15.09-23.76,37.73-23.38,63.72,0,49.12,29.66,82.12,73.81,82.12,20.61,0,32.08-6.47,41.84-17.26l0,.19c.89,8.32,9.05,14.82,18.64,14.82h11.25V73Z"/><path class="cls-2" d="M285.94,36.51H267V162.29h36.67v-108C303.71,42.83,297.4,36.51,285.94,36.51Z"/><path class="cls-2" d="M303.71,20.62c.14-5.78-1.33-10.28-4.36-13.38s-7.56-4.7-13.41-4.7H267V32.69h36.67Z"/><path class="cls-2" d="M418.87,75.41A356,356,0,0,0,382,64.72c-18-4-27.07-10-27.07-17.66.36-6.24,3-14.56,21.6-14.82,12.1,0,20.19,3.69,24.72,11.3,3.6,7.13,9.29,10.75,16.91,10.75h21.12l-.2-3.57C437.21,17.11,417.08.06,379.29.06h-.81C339.26.06,319,17.22,318.3,51.14c0,21.91,15.92,37.09,47.28,45.11l3.72,1c9.58,2.53,18.62,4.93,26.6,7.32,10.19,2.91,11.5,7.85,11.5,11.83v.06c.07,4-1,7.1-3.3,9.43-3.94,4-11.61,6-22.8,6-18.19,0-27.13-6.73-28.14-21.16l-.21-3.14H316l.09,3.46c1,35.48,22.91,53.46,65.25,53.46,40.63,0,62.2-16.13,64.12-48C446.39,95.61,437.45,81.76,418.87,75.41Z"/><path class="cls-2" d="M473.22,2.54c-10.55,0-19.13,8.88-19.13,19.8V36.51h45.23V162.29h38V36.51h45.23v-34Z"/></g></g></g></svg>