<svg xmlns="http://www.w3.org/2000/svg" viewBox="0 0 1040.08 477.41"><defs><style>.cls-1{font-size:56.74px;}.cls-1,.cls-12{fill:#524f4a;}.cls-1,.cls-13{font-family:Bariol-Bold, Bariol;font-weight:700;}.cls-2{letter-spacing:0em;}.cls-3{letter-spacing:-0.08em;}.cls-4{letter-spacing:0em;}.cls-5{letter-spacing:-0.01em;}.cls-6{letter-spacing:0em;}.cls-7{letter-spacing:0.03em;}.cls-8{letter-spacing:-0.01em;}.cls-9{letter-spacing:-0.01em;}.cls-10{letter-spacing:0em;}.cls-11,.cls-13{fill:#eacc00;}.cls-13{font-size:29.98px;}.cls-14{fill:#524e4a;}</style></defs><title>gist_logo_withHeart_withBlurb_yellowGrey_forLightBG</title><g id="Layer_2" data-name="Layer 2"><g id="yellowGrey_forLightBG"><g id="text"><text class="cls-1" transform="translate(30.95 412.25)">Gi<tspan class="cls-2" x="50.38" y="0">r</tspan><tspan x="68.48" y="0">ls in Science and </tspan><tspan class="cls-3" x="458.79" y="0">T</tspan><tspan class="cls-4" x="486.08" y="0">e</tspan><tspan class="cls-5" x="512.8" y="0">c</tspan><tspan x="537.82" y="0">hn</tspan><tspan class="cls-6" x="594.45" y="0">o</tspan><tspan x="622.31" y="0">lo</tspan><tspan class="cls-7" x="664.24" y="0">g</tspan><tspan x="694.14" y="0">y</tspan></text><text class="cls-1" transform="translate(14 461.81)">Me<tspan class="cls-2" x="69.56" y="0">r</tspan><tspan class="cls-5" x="87.66" y="0">c</tspan><tspan x="112.68" y="0">hed mewn Gw</tspan><tspan class="cls-8" x="432.06" y="0">y</tspan><tspan class="cls-9" x="456.86" y="0">d</tspan><tspan class="cls-4" x="484.38" y="0">doniaeth a </tspan><tspan class="cls-3" x="732.61" y="0">T</tspan><tspan x="759.9" y="0">e</tspan><tspan class="cls-5" x="786.62" y="0">c</tspan><tspan x="811.64" y="0">hn</tspan><tspan class="cls-2" x="868.27" y="0">o</tspan><tspan class="cls-10" x="896.13" y="0">leg</tspan></text></g><g id="gist"><path class="cls-11" d="M190.07,95v13a18.92,18.92,0,0,0,19.12,19.13h14.23c-4.37,16.24-16.3,25.82-32.56,25.87-26-1.92-38.58-18.33-38.37-50.15.21-31.51,12.21-46.82,36.68-46.82,13.68,0,23,5.41,28.47,16.56l.26.44c4.3,6.18,9.85,9.32,16.49,9.32h22.95l-.23-3.59c-1.17-18.08-8.1-32.37-20.6-42.46l-.18-.14c-13.33-9.35-29.48-14.1-48-14.11-20.28-.79-38.07,5.65-51.39,18.64-15.46,15.08-23.76,37.73-23.38,63.71,0,49.12,29.66,82.13,73.81,82.13,20.61,0,32.08-6.47,41.84-17.27l0,.19c.89,8.33,9.05,14.83,18.64,14.83h11.25V95Z"/><path class="cls-11" d="M285.94,58.57H267V184.35h36.67v-108C303.71,64.88,297.4,58.57,285.94,58.57Z"/><path class="cls-11" d="M303.71,42.67c.14-5.77-1.33-10.27-4.36-13.37s-7.56-4.7-13.41-4.7H267V54.75h36.67Z"/><path class="cls-11" d="M418.87,97.46A358.52,358.52,0,0,0,382,86.78c-18-4-27.07-10-27.07-17.66.36-6.24,3-14.57,21.6-14.82,12.1,0,20.19,3.69,24.72,11.29,3.6,7.14,9.29,10.76,16.91,10.76h21.12l-.2-3.57c-1.91-33.61-22-50.66-59.83-50.66h-.81c-39.22,0-59.47,17.16-60.18,51.08,0,21.91,15.92,37.09,47.28,45.11l3.72,1c9.58,2.54,18.62,4.94,26.6,7.33,10.19,2.91,11.5,7.85,11.5,11.83v.06c.07,4-1,7.09-3.3,9.43-3.94,4-11.61,6-22.8,6-18.19,0-27.13-6.72-28.14-21.16l-.21-3.14H316l.09,3.47c1,35.47,22.91,53.46,65.25,53.46,40.63,0,62.2-16.13,64.12-48C446.39,117.67,437.45,103.82,418.87,97.46Z"/><path class="cls-11" d="M473.22,24.6c-10.55,0-19.13,8.88-19.13,19.8V58.57h45.23V184.35h38V58.57h45.23v-34Z"/></g><g id="heart"><path class="cls-12" d="M927,8a104.77,104.77,0,0,1,74.29,30.77h0a105.08,105.08,0,0,1,0,148.58l-15.2,15.19L837.53,351.12,689,202.54l-15.19-15.19a105.06,105.06,0,0,1,0-148.58h0a105.07,105.07,0,0,1,148.58,0L837.53,54l15.2-15.2A104.74,104.74,0,0,1,927,8m0-8a112.35,112.35,0,0,0-79.95,33.11l-9.54,9.54L828,33.11A113.06,113.06,0,0,0,668.1,193l15.2,15.19L831.88,356.78l5.65,5.66,5.66-5.66L991.77,208.2,1007,193A113.06,113.06,0,0,0,927,0Z"/><text class="cls-13" transform="translate(735.67 36.35)">01<tspan x="174.79" y="0">01</tspan><tspan x="-61.32" y="35.98">0100011001</tspan><tspan x="116.52" y="35.98">0101100011</tspan><tspan x="-83.8" y="71.96">011010000110111001101111011</tspan><tspan x="-77.04" y="107.94">0001101100001011011010111</tspan><tspan x="-64.97" y="143.92">0000011100110101010001</tspan><tspan x="-28.34" y="179.9">100101011000110110</tspan><tspan x="5.9" y="215.88">1000011011100</tspan><tspan x="41.08" y="251.86">1101111011</tspan><tspan x="83.54" y="287.83">00</tspan></text></g><g id="cymru"><path class="cls-14" d="M106.49,265.79c-3.26,16.33-13.95,25-30.89,25-32.69,0-37.57-29.88-37.57-47.7,0-21.86,6.67-47.92,38.47-47.92,13.59,0,22.45,4.81,27.11,14.74,3.51,7.28,9.62,11.13,17.67,11.13h22.61l-.35-3.69c-1.67-17.6-8.25-31.66-19.67-41.89-12-9.9-27.52-14.72-47.37-14.72-48.62,0-76.5,30-76.5,82.35s26.9,82.13,73.8,82.13c40.64,0,66.71-21.85,69.74-58.45l.3-3.65H107Z"/><path class="cls-14" d="M245.1,197.15c-9.2,0-15.23,4.53-17.42,13l-17.45,60.69-21.08-73.71H147.88l42,120.67c2.05,6.82,1.93,11.84-.37,14.92s-7,4.59-13.94,4.59h-11.7v29.59l1.35,1c1.55,1.16,4,1.57,14.62,1.57,27.23,0,35.06-8.8,42.35-28.62l48.53-143.73Z"/><path class="cls-14" d="M443.15,209.52c-9-9.1-22.7-13.72-40.58-13.72-15,0-26.61,2.91-35.51,8.88-9-6.27-20.67-9.33-35.59-9.33-36.13,0-54.45,18.25-54.45,54.23v73.35h37.13v-79.4c.2-10.44,5.4-15.1,16.87-15.1s16.76,4.7,17.33,15.07v79.43h36.9V244c.19-10.46,5.39-15.13,16.87-15.13s16.76,4.7,17.33,15.07v61.2c0,7.75,3.12,17.21,18,18.22h19.12V250.05C456.69,232.25,452.17,218.61,443.15,209.52Z"/><path class="cls-14" d="M531.62,197.15c-41.9,0-63.63,20.49-64.58,60.9v64.88h37.13V257.68c0-15.51,6.86-22.73,21.6-22.73h13.5v-37.8Z"/><path class="cls-14" d="M634.5,197.15c-5.83,0-10.33,1.58-13.37,4.69s-4.54,7.71-4.4,13.54v62.77c0,11.36-5.21,16.43-16.88,16.43S583,289.51,583,278.15v-81H546.3v74.93c0,21.31,5.59,35.2,17.06,42.42A63.24,63.24,0,0,0,599,325.18a73,73,0,0,0,36.88-9.73c11.51-7.11,17.35-21.7,17.35-43.37V197.15Z"/></g></g></g></svg>