<svg xmlns="http://www.w3.org/2000/svg" xmlns:xlink="http://www.w3.org/1999/xlink" viewBox="0 0 1040.08 1433.95"><defs><style>.cls-1{fill:none;}.cls-2{fill:#fff;}.cls-3{font-size:29.98px;font-family:Bariol-Bold, Bariol;font-weight:700;}.cls-3,.cls-6{fill:#524f4a;}.cls-4{clip-path:url(#clip-path);}.cls-5{fill:#4a4947;}</style><clipPath id="clip-path" transform="translate(0 1064.45)"><rect id="SVGID" class="cls-1" x="467.78" y="-1064.45" width="294.01" height="46.35"/></clipPath></defs><title>gist_logo_withHeart_withTechnocamps_greyWhite_forYellowBG</title><g id="Layer_2" data-name="Layer 2"><g id="greyWhite_forYellowBG"><g id="heart"><path class="cls-2" d="M927,8a104.77,104.77,0,0,1,74.29,30.77h0a105.08,105.08,0,0,1,0,148.58l-15.2,15.19L837.53,351.12,689,202.54l-15.19-15.19a105.06,105.06,0,0,1,0-148.58h0a105.07,105.07,0,0,1,148.58,0L837.53,54l15.2-15.2A104.74,104.74,0,0,1,927,8m0-8a112.35,112.35,0,0,0-79.95,33.11l-9.54,9.54L828,33.11A113.06,113.06,0,0,0,668.1,193l15.2,15.19L831.88,356.78l5.65,5.66,5.66-5.66L991.77,208.2,1007,193A113.06,113.06,0,0,0,927,0Z" transform="translate(0 1064.45)"/><text class="cls-3" transform="translate(735.67 1100.8)">01<tspan x="174.79" y="0">01</tspan><tspan x="-61.32" y="35.98">0100011001</tspan><tspan x="116.52" y="35.98">0101100011</tspan><tspan x="-83.8" y="71.96">011010000110111001101111011</tspan><tspan x="-77.04" y="107.94">0001101100001011011010111</tspan><tspan x="-64.97" y="143.92">0000011100110101010001</tspan><tspan x="-28.34" y="179.9">100101011000110110</tspan><tspan x="5.9" y="215.88">1000011011100</tspan><tspan x="41.08" y="251.86">1101111011</tspan><tspan x="83.54" y="287.83">00</tspan></text></g><g id="technocamps"><g class="cls-4"><g class="cls-4"><path class="cls-5" d="M485.39-1028.37c-2.31.14-10.88.1-13.57-.11s-4-1.92-4-5.14v-30.83h3.77a3.29,3.29,0,0,1,2.41,1,3.44,3.44,0,0,1,1.05,2.52v4.72h10.67v1.47a3.37,3.37,0,0,1-1.05,2.56,3.51,3.51,0,0,1-2.52,1H475v15.52c0,1.19.7,1.79,2.1,1.79h8.28v5.45" transform="translate(0 1064.45)"/><path class="cls-5" d="M505.25-1037h5.25a11.4,11.4,0,0,1-4.41,6.71,13.32,13.32,0,0,1-8.18,2.41c-4,0-7.1-1.29-9.33-3.88s-3.36-6.11-3.36-10.8q0-6.71,3.25-10.49t9.34-3.88q6.29,0,9.75,3.78t3.36,10.8v1.15a1.78,1.78,0,0,1-.11.74H492.67a7.21,7.21,0,0,0,1.57,4.82,5,5,0,0,0,4.09,1.68,5.93,5.93,0,0,0,3-.73,1.51,1.51,0,0,0,.58-.37l.58-.58a2.38,2.38,0,0,1,.78-.84,3.13,3.13,0,0,1,1.94-.52m-12.58-8.18h10.7a6.8,6.8,0,0,0-1.47-4.2,5.08,5.08,0,0,0-3.88-1.47,5.16,5.16,0,0,0-3.78,1.47,6,6,0,0,0-1.57,4.2" transform="translate(0 1064.45)"/><path class="cls-5" d="M531.47-1037h5.25a11.43,11.43,0,0,1-4.41,6.71,13.32,13.32,0,0,1-8.18,2.41c-4,0-7.1-1.29-9.33-3.88s-3.36-6.11-3.36-10.8q0-6.71,3.25-10.49t9.34-3.88q6.29,0,9.75,3.78a14.37,14.37,0,0,1,2.73,5.35h-7.34a6.42,6.42,0,0,0-1-1.58,5.08,5.08,0,0,0-3.88-1.47,5.16,5.16,0,0,0-3.78,1.47q-1.89,2.1-1.89,6.92t1.89,6.82a5,5,0,0,0,4.09,1.68,5.93,5.93,0,0,0,3-.73,1.51,1.51,0,0,0,.58-.37l.58-.58a4.6,4.6,0,0,1,.84-.84,2.87,2.87,0,0,1,1.88-.52" transform="translate(0 1064.45)"/><path class="cls-5" d="M555.38-1048.4a5,5,0,0,0-4.29-2.21,5.31,5.31,0,0,0-4.51,2.1,9.41,9.41,0,0,0-1.58,5.77v14.37h-7.13v-36.08h3.57a3.41,3.41,0,0,1,2.51,1,3.44,3.44,0,0,1,1,2.52v8.28a8.34,8.34,0,0,1,5.35-4,10.63,10.63,0,0,1,6.61.42,11.84,11.84,0,0,1,4.93,4c1.33,1.82,2,4.33,2,7.55v16.26h-7v-14.48a15.19,15.19,0,0,0-.26-2.88,7.17,7.17,0,0,0-1.21-2.67" transform="translate(0 1064.45)"/><path class="cls-5" d="M589.47-1028.37H585.8a3.45,3.45,0,0,1-2.57-1,3.49,3.49,0,0,1-1-2.57v-14.26a4.29,4.29,0,0,0-1.52-3.67,5.48,5.48,0,0,0-3.4-1.15,5.29,5.29,0,0,0-3.36,1.15,4.38,4.38,0,0,0-1.47,3.67v17.83h-7.34v-16.36q0-7.14,3.72-9.55a16.34,16.34,0,0,1,8.23-2.62,15.87,15.87,0,0,1,8.5,2.41q3.88,2.41,3.88,9.76v16.36" transform="translate(0 1064.45)"/><path class="cls-5" d="M594.09-1030.89a10.35,10.35,0,0,1-3.15-5.09,23.34,23.34,0,0,1-.94-6.65,21.29,21.29,0,0,1,.78-5.67,11.74,11.74,0,0,1,2.47-4.72,10.84,10.84,0,0,1,7-3.72,16.07,16.07,0,0,1,7.76.68,10.72,10.72,0,0,1,5.88,5.45,17.4,17.4,0,0,1,1.78,8.08,20.3,20.3,0,0,1-.73,5.77,14.76,14.76,0,0,1-1.89,4.09,10.47,10.47,0,0,1-6.4,4.3,14.18,14.18,0,0,1-7,.15,12.06,12.06,0,0,1-5.61-2.67m5-18.46q-2.21,2.41-2,7.19t1.78,6.66a4.65,4.65,0,0,0,2.2,1.41,5,5,0,0,0,3.2.11,5.35,5.35,0,0,0,2.88-2.36q1.26-1.89,1.37-6.09a10.61,10.61,0,0,0-1.21-5.66,5.43,5.43,0,0,0-2.78-2.41,5,5,0,0,0-3.14,0,5.52,5.52,0,0,0-2.31,1.2" transform="translate(0 1064.45)"/><path class="cls-2" d="M636.25-1037h5.24a11.47,11.47,0,0,1-4.4,6.71,13.37,13.37,0,0,1-8.19,2.41q-6,0-9.33-3.88t-3.36-10.8q0-6.71,3.26-10.49t9.33-3.88q6.3,0,9.75,3.78a14.37,14.37,0,0,1,2.73,5.35h-7.34a6.15,6.15,0,0,0-1.05-1.58,5.06,5.06,0,0,0-3.88-1.47,5.16,5.16,0,0,0-3.78,1.47c-1.26,1.4-1.88,3.71-1.88,6.92s.62,5.49,1.88,6.82a5,5,0,0,0,4.09,1.68,6,6,0,0,0,3-.73,1.55,1.55,0,0,0,.57-.37l.58-.58a4.6,4.6,0,0,1,.84-.84,2.9,2.9,0,0,1,1.89-.52" transform="translate(0 1064.45)"/><path class="cls-2" d="M660.47-1029.52a12.79,12.79,0,0,1-4.66,1.41,40.48,40.48,0,0,1-4.36.26,11,11,0,0,1-6.61-2c-1.88-1.37-2.83-3.62-2.83-6.77q0-4.39,2.57-6.29a14.84,14.84,0,0,1,6.56-2.52,6.45,6.45,0,0,0,1.26-.15,15.39,15.39,0,0,1,1.67-.27c3.08-.42,4.62-1.32,4.62-2.72a2,2,0,0,0-1.63-2.05,10.93,10.93,0,0,0-3-.47,7.62,7.62,0,0,0-2.62.42,2.84,2.84,0,0,0-1.67,1.57h-7a8.1,8.1,0,0,1,2.94-5.35c1.88-1.6,4.57-2.41,8.07-2.41,3.91,0,6.85.67,8.81,2a6.74,6.74,0,0,1,3,5.88v9.54a12.11,12.11,0,0,1-1.52,6.56,9.3,9.3,0,0,1-3.62,3.41m-1.67-12.91a19.24,19.24,0,0,1-4.1,1.37l-2.41.52a6.09,6.09,0,0,0-2.72,1.37,4.17,4.17,0,0,0-.74,2.3,3.37,3.37,0,0,0,.95,2.52,3.94,3.94,0,0,0,2.72.84,6.24,6.24,0,0,0,4.62-1.68,6.26,6.26,0,0,0,1.68-4.61Z" transform="translate(0 1064.45)"/><path class="cls-2" d="M691-1028.37h-7.23v-17.83a4.3,4.3,0,0,0-1.53-3.67,5.48,5.48,0,0,0-3.4-1.15,5.29,5.29,0,0,0-3.36,1.15,4.38,4.38,0,0,0-1.47,3.67v17.83h-7.34v-16.36q0-7.14,3.72-9.55a16.35,16.35,0,0,1,8.24-2.62,21.28,21.28,0,0,1,4.72.53,10,10,0,0,1,4.19,2.09,9.46,9.46,0,0,1,3.72-1.94,21.16,21.16,0,0,1,4.46-.68,15.87,15.87,0,0,1,8.5,2.41q3.87,2.41,3.88,9.76v16.36h-3.67a3.45,3.45,0,0,1-2.57-1,3.45,3.45,0,0,1-1-2.57v-14.26a4.32,4.32,0,0,0-1.52-3.67,5.48,5.48,0,0,0-3.41-1.15,5.48,5.48,0,0,0-3.41,1.15,4.32,4.32,0,0,0-1.52,3.67v17.83" transform="translate(0 1064.45)"/><path class="cls-2" d="M717.21-1021.66a3.44,3.44,0,0,1-1.05,2.52,3.43,3.43,0,0,1-2.51,1h-3.57v-26.12q0-7.33,4.3-10a17.3,17.3,0,0,1,9.33-2.68,15,15,0,0,1,5.3,1,9.85,9.85,0,0,1,4.25,2.88,16.78,16.78,0,0,1,3.14,10.49q0,6.62-3.14,10.7a9.83,9.83,0,0,1-8.08,4,10.6,10.6,0,0,1-4.61-.94,7.9,7.9,0,0,1-3.36-3.25v10.38m12-20.55a10.81,10.81,0,0,0-1.57-6.3,5.21,5.21,0,0,0-4.51-2.2,5.11,5.11,0,0,0-4.41,2.2q-1.47,2-1.47,6.3c0,2.65.53,4.65,1.57,6a5.21,5.21,0,0,0,4.51,2.2,5,5,0,0,0,4.31-2.2,10.14,10.14,0,0,0,1.57-6" transform="translate(0 1064.45)"/><path class="cls-2" d="M737-1037.6h7.13a3.84,3.84,0,0,0,1.58,3.14,7.43,7.43,0,0,0,4.19,1.06,6.75,6.75,0,0,0,3.25-.74,2.23,2.23,0,0,0,1.26-2q0-1.89-4.4-2.83a20,20,0,0,1-2.83-.63q-5.57-1.37-7.45-3.26a6.41,6.41,0,0,1-2.1-5,8.36,8.36,0,0,1,3-6.61,13.14,13.14,0,0,1,8.18-2.41,14.35,14.35,0,0,1,8.71,2.41,9.24,9.24,0,0,1,3.25,6.82h-4.51a3.32,3.32,0,0,1-3-1.78l-.84-.84a5.64,5.64,0,0,0-3.46-.94,6.37,6.37,0,0,0-3.15.62,2.12,2.12,0,0,0-.94,1.89c0,1.12,1.81,2.07,5.45,2.83a9.43,9.43,0,0,0,1.1.32,4.18,4.18,0,0,0,.89.1q5.35,1.37,7.45,3.15a6.61,6.61,0,0,1,2,5,8.41,8.41,0,0,1-3.35,7.13q-3.15,2.3-9.44,2.3-6,0-8.92-2.41a8.45,8.45,0,0,1-3-7v-.32" transform="translate(0 1064.45)"/></g></g></g><g id="Cymru"><path class="cls-2" d="M106.49,265.79c-3.26,16.33-13.95,25-30.89,25-32.69,0-37.57-29.88-37.57-47.7,0-21.86,6.67-47.92,38.47-47.92,13.59,0,22.45,4.81,27.11,14.74,3.51,7.28,9.62,11.13,17.67,11.13h22.61l-.35-3.69c-1.67-17.6-8.25-31.66-19.67-41.89-12-9.9-27.52-14.72-47.37-14.72-48.62,0-76.5,30-76.5,82.35s26.9,82.13,73.8,82.13c40.64,0,66.71-21.85,69.74-58.45l.3-3.65H107Z" transform="translate(0 1064.45)"/><path class="cls-2" d="M245.1,197.15c-9.2,0-15.23,4.53-17.42,13l-17.45,60.69-21.08-73.71H147.88l42,120.67c2.05,6.82,1.93,11.84-.37,14.92s-7,4.59-13.94,4.59h-11.7v29.59l1.35,1c1.55,1.16,4,1.57,14.62,1.57,27.23,0,35.06-8.8,42.35-28.62l48.53-143.73Z" transform="translate(0 1064.45)"/><path class="cls-2" d="M443.15,209.52c-9-9.1-22.7-13.72-40.58-13.72-15,0-26.61,2.91-35.51,8.88-9-6.27-20.67-9.33-35.59-9.33-36.13,0-54.45,18.25-54.45,54.23v73.35h37.13v-79.4c.2-10.44,5.4-15.1,16.87-15.1s16.76,4.7,17.33,15.07v79.43h36.9V244c.19-10.46,5.39-15.13,16.87-15.13s16.76,4.7,17.33,15.07v61.2c0,7.75,3.12,17.21,18,18.22h19.12V250.05C456.69,232.25,452.17,218.61,443.15,209.52Z" transform="translate(0 1064.45)"/><path class="cls-2" d="M531.62,197.15c-41.9,0-63.63,20.49-64.58,60.9v64.88h37.13V257.68c0-15.51,6.86-22.73,21.6-22.73h13.5v-37.8Z" transform="translate(0 1064.45)"/><path class="cls-2" d="M634.5,197.15c-5.83,0-10.33,1.58-13.37,4.69s-4.54,7.71-4.4,13.54v62.77c0,11.36-5.21,16.43-16.88,16.43S583,289.51,583,278.15v-81H546.3v74.93c0,21.31,5.59,35.2,17.06,42.42A63.24,63.24,0,0,0,599,325.18a73,73,0,0,0,36.88-9.73c11.51-7.11,17.35-21.7,17.35-43.37V197.15Z" transform="translate(0 1064.45)"/></g><g id="GiST"><path class="cls-6" d="M190.07,95v13a18.92,18.92,0,0,0,19.12,19.13h14.23c-4.37,16.24-16.3,25.82-32.56,25.87-26-1.92-38.58-18.33-38.37-50.15.21-31.51,12.21-46.82,36.68-46.82,13.68,0,23,5.41,28.47,16.56l.26.44c4.3,6.18,9.85,9.32,16.49,9.32h22.95l-.23-3.59c-1.17-18.08-8.1-32.37-20.6-42.46l-.18-.14c-13.33-9.35-29.48-14.1-48-14.11-20.28-.79-38.07,5.65-51.39,18.64-15.46,15.08-23.76,37.73-23.38,63.71,0,49.12,29.66,82.13,73.81,82.13,20.61,0,32.08-6.47,41.84-17.27l0,.19c.89,8.33,9.05,14.83,18.64,14.83h11.25V95Z" transform="translate(0 1064.45)"/><path class="cls-6" d="M285.94,58.57H267V184.35h36.67v-108C303.71,64.88,297.4,58.57,285.94,58.57Z" transform="translate(0 1064.45)"/><path class="cls-6" d="M303.71,42.67c.14-5.77-1.33-10.27-4.36-13.37s-7.56-4.7-13.41-4.7H267V54.75h36.67Z" transform="translate(0 1064.45)"/><path class="cls-6" d="M418.87,97.46A358.52,358.52,0,0,0,382,86.78c-18-4-27.07-10-27.07-17.66.36-6.24,3-14.57,21.6-14.82,12.1,0,20.19,3.69,24.72,11.29,3.6,7.14,9.29,10.76,16.91,10.76h21.12l-.2-3.57c-1.91-33.61-22-50.66-59.83-50.66h-.81c-39.22,0-59.47,17.16-60.18,51.08,0,21.91,15.92,37.09,47.28,45.11l3.72,1c9.58,2.54,18.62,4.94,26.6,7.33,10.19,2.91,11.5,7.85,11.5,11.83v.06c.07,4-1,7.09-3.3,9.43-3.94,4-11.61,6-22.8,6-18.19,0-27.13-6.72-28.14-21.16l-.21-3.14H316l.09,3.47c1,35.47,22.91,53.46,65.25,53.46,40.63,0,62.2-16.13,64.12-48C446.39,117.67,437.45,103.82,418.87,97.46Z" transform="translate(0 1064.45)"/><path class="cls-6" d="M473.22,24.6c-10.55,0-19.13,8.88-19.13,19.8V58.57h45.23V184.35h38V58.57h45.23v-34Z" transform="translate(0 1064.45)"/></g></g></g></svg>