<svg xmlns="http://www.w3.org/2000/svg" xmlns:xlink="http://www.w3.org/1999/xlink" viewBox="0 0 1040.08 417.5"><defs><style>.cls-1{fill:none;}.cls-2{clip-path:url(#clip-path);}.cls-3{fill:#e7cb1a;}.cls-4{fill:#4a4947;}.cls-5,.cls-7{fill:#eacc00;}.cls-6{fill:#524f4a;}.cls-7{font-size:29.98px;font-family:Bariol-Bold, Bariol;font-weight:700;}.cls-8{fill:#524e4a;}</style><clipPath id="clip-path" transform="translate(1465 -242)"><rect class="cls-1" x="-1209.62" y="573.41" width="546.04" height="86.09"/></clipPath></defs><title>gist_logo_withHeart_withTechnocamps_yellowGrey_forLightBG</title><g id="Layer_2" data-name="Layer 2"><g id="yellowGrey_forLightBG"><g id="technoxamps"><g class="cls-2"><g class="cls-2"><path class="cls-3" d="M-1176.91,640.41c-4.29.26-20.22.19-25.21-.2s-7.5-3.56-7.5-9.54V573.41h7a6.18,6.18,0,0,1,4.48,1.94,6.42,6.42,0,0,1,2,4.68v8.76h19.81v2.73a6.31,6.31,0,0,1-2,4.77,6.53,6.53,0,0,1-4.68,1.85h-13.18V627q0,3.31,3.89,3.31h15.38v10.13" transform="translate(1465 -242)"/><path class="cls-3" d="M-1140,624.44h9.74a21.32,21.32,0,0,1-8.18,12.47q-6,4.47-15.19,4.47-11.11,0-17.34-7.2-6.24-7-6.23-20.06,0-12.47,6-19.48,6.24-7.21,17.34-7.21,11.68,0,18.12,7,6.23,7.21,6.23,20.07v2.14a3.3,3.3,0,0,1-.2,1.36h-33.69c.12,4,1.1,7,2.92,9s4.22,3.12,7.6,3.12a11.11,11.11,0,0,0,5.64-1.36,2.66,2.66,0,0,0,1.07-.69l1.08-1.07a4.1,4.1,0,0,1,1.46-1.55,5.71,5.71,0,0,1,3.6-1m-23.37-15.19h19.86c-.26-3.51-1.16-6.11-2.72-7.8a9.39,9.39,0,0,0-7.21-2.72,9.5,9.5,0,0,0-7,2.72c-1.82,1.83-2.8,4.42-2.92,7.8" transform="translate(1465 -242)"/><path class="cls-3" d="M-1091.32,624.44h9.73a21.26,21.26,0,0,1-8.17,12.47q-6,4.47-15.2,4.47-11.1,0-17.33-7.2-6.24-7-6.24-20.06,0-12.47,6-19.48,6.23-7.21,17.34-7.21,11.69,0,18.11,7a26.77,26.77,0,0,1,5.07,9.94h-13.64a11.56,11.56,0,0,0-2-2.93c-1.68-1.81-4.09-2.72-7.2-2.72a9.53,9.53,0,0,0-7,2.72q-3.49,3.9-3.5,12.86c0,6,1.17,10.2,3.5,12.66,1.69,2.08,4.23,3.12,7.6,3.12a11,11,0,0,0,5.65-1.36,2.66,2.66,0,0,0,1.07-.69l1.07-1.07a8.58,8.58,0,0,1,1.56-1.55,5.33,5.33,0,0,1,3.51-1" transform="translate(1465 -242)"/><path class="cls-3" d="M-1046.91,603.2a9.33,9.33,0,0,0-8-4.09,9.85,9.85,0,0,0-8.37,3.9q-2.93,3.9-2.92,10.72v26.68h-13.25v-67h6.62a6.37,6.37,0,0,1,4.68,1.94,6.42,6.42,0,0,1,2,4.68v15.38a15.42,15.42,0,0,1,9.93-7.39,19.8,19.8,0,0,1,12.27.77,22,22,0,0,1,9.16,7.41q3.69,5.06,3.69,14v30.19h-13V613.53a27.82,27.82,0,0,0-.48-5.36,13.61,13.61,0,0,0-2.24-5" transform="translate(1465 -242)"/><path class="cls-3" d="M-983.61,640.41h-6.81a6.48,6.48,0,0,1-4.78-1.85,6.46,6.46,0,0,1-1.85-4.77V607.3q0-4.68-2.82-6.82a10.23,10.23,0,0,0-6.33-2.14,9.82,9.82,0,0,0-6.24,2.14q-2.71,2.14-2.72,6.82v33.11h-13.64V610q0-13.24,6.92-17.72a30.22,30.22,0,0,1,15.29-4.87,29.31,29.31,0,0,1,15.78,4.48q7.2,4.49,7.2,18.11v30.39" transform="translate(1465 -242)"/><path class="cls-3" d="M-975,635.73a19.21,19.21,0,0,1-5.84-9.44,43.41,43.41,0,0,1-1.75-12.37,39,39,0,0,1,1.46-10.52,21.78,21.78,0,0,1,4.57-8.76,20.25,20.25,0,0,1,13.05-6.92A30.08,30.08,0,0,1-949.13,589a19.81,19.81,0,0,1,10.9,10.12,32.34,32.34,0,0,1,3.32,15,37,37,0,0,1-1.37,10.71,27.52,27.52,0,0,1-3.5,7.59,19.47,19.47,0,0,1-11.88,8,26.45,26.45,0,0,1-13,.29,22.51,22.51,0,0,1-10.42-5m9.35-34.28q-4.09,4.49-3.7,13.34t3.31,12.38A8.78,8.78,0,0,0-962,629.8,9.36,9.36,0,0,0-956,630a9.94,9.94,0,0,0,5.36-4.38q2.34-3.51,2.53-11.3,0-7-2.24-10.52a10.1,10.1,0,0,0-5.16-4.48,9.48,9.48,0,0,0-5.84-.1,10.32,10.32,0,0,0-4.29,2.24" transform="translate(1465 -242)"/><path class="cls-4" d="M-896.73,624.44H-887a21.27,21.27,0,0,1-8.18,12.47q-6,4.47-15.19,4.47-11.1,0-17.33-7.2-6.24-7-6.24-20.06,0-12.47,6-19.48,6.23-7.21,17.33-7.21,11.7,0,18.12,7a26.76,26.76,0,0,1,5.06,9.94H-901a11.56,11.56,0,0,0-2-2.93q-2.53-2.72-7.21-2.72a9.53,9.53,0,0,0-7,2.72q-3.51,3.9-3.5,12.86c0,6,1.16,10.2,3.5,12.66q2.54,3.12,7.6,3.12a11,11,0,0,0,5.65-1.36,2.73,2.73,0,0,0,1.07-.69l1.07-1.07a8.58,8.58,0,0,1,1.56-1.55,5.33,5.33,0,0,1,3.51-1" transform="translate(1465 -242)"/><path class="cls-4" d="M-851.74,638.27a23.89,23.89,0,0,1-8.67,2.62,76,76,0,0,1-8.08.49,20.38,20.38,0,0,1-12.28-3.8Q-886,633.8-886,625q0-8.17,4.77-11.68a27.48,27.48,0,0,1,12.17-4.68,11.77,11.77,0,0,0,2.34-.29,30.28,30.28,0,0,1,3.12-.49q8.57-1.17,8.57-5.06a3.7,3.7,0,0,0-3-3.8,19.8,19.8,0,0,0-5.55-.88,14.42,14.42,0,0,0-4.87.78,5.34,5.34,0,0,0-3.12,2.92h-13a15,15,0,0,1,5.46-9.93q5.25-4.49,15-4.48,10.9,0,16.37,3.7A12.52,12.52,0,0,1-842.19,602v17.73q0,7.79-2.83,12.17a17.33,17.33,0,0,1-6.72,6.33m-3.11-24a37.16,37.16,0,0,1-7.6,2.53l-4.48,1a11.5,11.5,0,0,0-5.07,2.53,7.9,7.9,0,0,0-1.36,4.28,6.32,6.32,0,0,0,1.75,4.68,7.4,7.4,0,0,0,5.07,1.56q5.44,0,8.57-3.12c2.07-2.08,3.12-4.93,3.12-8.57Z" transform="translate(1465 -242)"/><path class="cls-4" d="M-795.06,640.41H-808.5V607.3q0-4.68-2.82-6.82a10.23,10.23,0,0,0-6.33-2.14,9.77,9.77,0,0,0-6.23,2.14c-1.83,1.43-2.73,3.7-2.73,6.82v33.11h-13.64V610q0-13.24,6.92-17.72A30.25,30.25,0,0,1-818,587.43a40,40,0,0,1,8.76,1,18.45,18.45,0,0,1,7.79,3.9,17.1,17.1,0,0,1,6.92-3.6,38.24,38.24,0,0,1,8.28-1.27,29.26,29.26,0,0,1,15.77,4.48q7.21,4.49,7.21,18.11v30.39h-6.81a6.5,6.5,0,0,1-4.78-1.85,6.46,6.46,0,0,1-1.85-4.77V607.3q0-4.68-2.82-6.82a10.21,10.21,0,0,0-6.33-2.14,10.19,10.19,0,0,0-6.33,2.14q-2.84,2.14-2.83,6.82v33.11" transform="translate(1465 -242)"/><path class="cls-4" d="M-746.36,652.88a6.42,6.42,0,0,1-1.95,4.67,6.38,6.38,0,0,1-4.67,2h-6.63V611q0-13.63,8-18.61a32.21,32.21,0,0,1,17.34-5,28.1,28.1,0,0,1,9.83,1.85,18.4,18.4,0,0,1,7.89,5.36q5.84,7.59,5.84,19.48,0,12.27-5.84,19.87a18.29,18.29,0,0,1-15,7.39,19.82,19.82,0,0,1-8.57-1.75,14.6,14.6,0,0,1-6.23-6v19.29m22.2-38.18q0-7.61-2.91-11.69a9.71,9.71,0,0,0-8.38-4.09,9.49,9.49,0,0,0-8.18,4.09q-2.73,3.71-2.73,11.69,0,7.41,2.92,11.1a9.66,9.66,0,0,0,8.37,4.09,9.32,9.32,0,0,0,8-4.09c1.94-2.72,2.91-6.43,2.91-11.1" transform="translate(1465 -242)"/><path class="cls-4" d="M-709.55,623.27h13.25a7.15,7.15,0,0,0,2.92,5.84,13.83,13.83,0,0,0,7.79,1.95,12.56,12.56,0,0,0,6-1.36,4.14,4.14,0,0,0,2.34-3.7q0-3.51-8.19-5.26a37,37,0,0,1-5.25-1.17q-10.33-2.54-13.83-6a11.92,11.92,0,0,1-3.9-9.35,15.5,15.5,0,0,1,5.65-12.27q5.84-4.49,15.19-4.48,10.13,0,16.17,4.48a17.11,17.11,0,0,1,6,12.66h-8.38a6.18,6.18,0,0,1-5.65-3.31l-1.55-1.56a10.51,10.51,0,0,0-6.43-1.75,11.72,11.72,0,0,0-5.85,1.16,4,4,0,0,0-1.75,3.51q0,3.12,10.13,5.26a18.14,18.14,0,0,0,2,.58,7,7,0,0,0,1.65.2q9.93,2.54,13.83,5.85a12.25,12.25,0,0,1,3.7,9.35q0,8.57-6.23,13.24-5.85,4.29-17.53,4.28-11.11,0-16.56-4.47-5.65-4.49-5.65-13v-.59" transform="translate(1465 -242)"/></g></g></g><g id="gist"><path class="cls-5" d="M-1274.93,337v13.05a18.92,18.92,0,0,0,19.12,19.13h14.23c-4.37,16.24-16.3,25.82-32.56,25.87-26-1.92-38.58-18.33-38.37-50.15.21-31.51,12.21-46.82,36.68-46.82,13.68,0,23,5.41,28.47,16.56l.26.44c4.3,6.18,9.85,9.32,16.49,9.32h22.95l-.23-3.59c-1.17-18.08-8.1-32.37-20.6-42.46l-.18-.14c-13.33-9.35-29.48-14.1-48-14.11-20.28-.79-38.07,5.65-51.39,18.64-15.46,15.08-23.76,37.73-23.38,63.71,0,49.12,29.66,82.13,73.81,82.13,20.61,0,32.08-6.47,41.84-17.27l0,.19c.89,8.33,9,14.83,18.64,14.83h11.25V337Z" transform="translate(1465 -242)"/><path class="cls-5" d="M-1179.06,300.57H-1198V426.35h36.67v-108C-1161.29,306.88-1167.6,300.57-1179.06,300.57Z" transform="translate(1465 -242)"/><path class="cls-5" d="M-1161.29,284.67c.14-5.77-1.33-10.27-4.36-13.37s-7.56-4.7-13.41-4.7H-1198v30.15h36.67Z" transform="translate(1465 -242)"/><path class="cls-5" d="M-1046.13,339.46A358.52,358.52,0,0,0-1083,328.78c-18-4-27.07-10-27.07-17.66.36-6.24,3-14.57,21.6-14.82,12.1,0,20.19,3.69,24.72,11.29,3.6,7.14,9.29,10.76,16.91,10.76h21.12l-.2-3.57c-1.91-33.61-22-50.66-59.83-50.66h-.81c-39.22,0-59.47,17.16-60.18,51.08,0,21.91,15.92,37.09,47.28,45.11l3.72,1c9.58,2.54,18.62,4.94,26.6,7.33,10.19,2.91,11.5,7.85,11.5,11.83v.06c.07,4-1,7.09-3.3,9.43-3.94,4-11.61,6-22.8,6-18.19,0-27.13-6.72-28.14-21.16l-.21-3.14h-37l.09,3.47c1,35.47,22.91,53.46,65.25,53.46,40.63,0,62.2-16.13,64.12-48C-1018.61,359.67-1027.55,345.82-1046.13,339.46Z" transform="translate(1465 -242)"/><path class="cls-5" d="M-991.78,266.6c-10.55,0-19.13,8.88-19.13,19.8v14.17h45.23V426.35h38V300.57h45.23v-34Z" transform="translate(1465 -242)"/></g><g id="heart"><path class="cls-6" d="M-538,250a104.77,104.77,0,0,1,74.29,30.77h0a105.08,105.08,0,0,1,0,148.58l-15.2,15.19L-627.47,593.12-776,444.54l-15.19-15.19a105.06,105.06,0,0,1,0-148.58h0A104.74,104.74,0,0,1-716.95,250a104.76,104.76,0,0,1,74.29,30.77l15.19,15.2,15.2-15.2A104.74,104.74,0,0,1-538,250m0-8a112.35,112.35,0,0,0-79.95,33.11l-9.54,9.54-9.54-9.54A112.31,112.31,0,0,0-716.95,242a112.35,112.35,0,0,0-79.95,33.11A112.35,112.35,0,0,0-830,355.06,112.35,112.35,0,0,0-796.9,435l15.2,15.19,148.58,148.58,5.65,5.66,5.66-5.66L-473.23,450.2-458,435a112.32,112.32,0,0,0,33.12-79.95A112.32,112.32,0,0,0-458,275.11,112.31,112.31,0,0,0-538,242Z" transform="translate(1465 -242)"/><text class="cls-7" transform="translate(735.67 36.35)">01<tspan x="174.79" y="0">01</tspan><tspan x="-61.32" y="35.98">0100011001</tspan><tspan x="116.52" y="35.98">0101100011</tspan><tspan x="-83.8" y="71.96">011010000110111001101111011</tspan><tspan x="-77.04" y="107.94">0001101100001011011010111</tspan><tspan x="-64.97" y="143.92">0000011100110101010001</tspan><tspan x="-28.34" y="179.9">100101011000110110</tspan><tspan x="5.9" y="215.88">1000011011100</tspan><tspan x="41.08" y="251.86">1101111011</tspan><tspan x="83.54" y="287.83">00</tspan></text></g><g id="cymru"><path class="cls-8" d="M-1358.51,507.79c-3.26,16.33-14,25-30.89,25-32.69,0-37.57-29.88-37.57-47.7,0-21.86,6.67-47.92,38.47-47.92,13.59,0,22.45,4.81,27.11,14.74,3.51,7.28,9.62,11.13,17.67,11.13h22.61l-.35-3.69c-1.67-17.6-8.25-31.66-19.67-41.89-12-9.9-27.52-14.72-47.37-14.72-48.62,0-76.5,30-76.5,82.35s26.9,82.13,73.8,82.13c40.64,0,66.71-21.85,69.74-58.45l.3-3.65H-1358Z" transform="translate(1465 -242)"/><path class="cls-8" d="M-1219.9,439.15c-9.2,0-15.23,4.53-17.42,13l-17.45,60.69-21.08-73.71h-41.27l42,120.67c2,6.82,1.93,11.84-.37,14.92s-7,4.59-13.94,4.59h-11.7v29.59l1.35,1c1.55,1.16,4,1.57,14.62,1.57,27.23,0,35.06-8.8,42.35-28.62l48.53-143.73Z" transform="translate(1465 -242)"/><path class="cls-8" d="M-1021.85,451.52c-9.05-9.1-22.7-13.72-40.58-13.72-15,0-26.61,2.91-35.51,8.88-9-6.27-20.67-9.33-35.59-9.33-36.13,0-54.45,18.25-54.45,54.23v73.35h37.13v-79.4c.2-10.44,5.4-15.1,16.87-15.1s16.76,4.7,17.33,15.07v79.43h36.9V486c.19-10.46,5.39-15.13,16.87-15.13s16.76,4.7,17.33,15.07v61.2c0,7.75,3.12,17.21,18,18.22h19.12V492.05C-1008.31,474.25-1012.83,460.61-1021.85,451.52Z" transform="translate(1465 -242)"/><path class="cls-8" d="M-933.38,439.15c-41.9,0-63.63,20.49-64.58,60.9v64.88h37.13V499.68c0-15.51,6.86-22.73,21.6-22.73h13.5v-37.8Z" transform="translate(1465 -242)"/><path class="cls-8" d="M-830.5,439.15c-5.83,0-10.33,1.58-13.37,4.69s-4.54,7.71-4.4,13.54v62.77c0,11.36-5.21,16.43-16.88,16.43S-882,531.51-882,520.15v-81H-918.7v74.93c0,21.31,5.59,35.2,17.06,42.42A63.24,63.24,0,0,0-866,567.18a73,73,0,0,0,36.88-9.73c11.51-7.11,17.35-21.7,17.35-43.37V439.15Z" transform="translate(1465 -242)"/></g></g></g></svg>