<svg xmlns="http://www.w3.org/2000/svg" viewBox="0 0 666.84 537.92"><defs><style>.cls-1{fill:#fff;}</style></defs><title>BangorLogo_vertical_allWhite</title><g id="Layer_2" data-name="Layer 2"><g id="Layer_1-2" data-name="Layer 1"><path class="cls-1" d="M40.22,461.13H0v-3.24H.4c3.54,0,6-.92,7.34-2.73S9.8,449.89,9.8,445V392.67c0-5-.66-8.46-2-10.29S4.08,379.69.4,379.69H0v-3.24H33c9.38,0,16.88,1.92,22.28,5.69s8.21,8.9,8.21,15.15c0,8.95-5.68,15.39-16.89,19.13a29.62,29.62,0,0,1,15.49,8.43,21.73,21.73,0,0,1,6.33,15.34,18.07,18.07,0,0,1-7.79,15.24c-5.14,3.78-12,5.7-20.4,5.7ZM22,419.23v24.19c0,5.34.59,9,1.78,10.91s3.41,2.78,6.74,2.78h7.17a16.07,16.07,0,0,0,12-4.78c3.08-3.17,4.64-7.49,4.64-12.84a18.24,18.24,0,0,0-6.68-14.71c-4.46-3.68-10.46-5.55-17.86-5.55Zm0-4h8.53c6.12,0,11.05-1.57,14.65-4.66s5.39-7.29,5.39-12.53c0-5.52-1.77-9.87-5.28-12.92s-8.6-4.62-15.06-4.62H22v34.73Z"/><path class="cls-1" d="M181.88,461.13H150.66v-3.24h.41c4.73,0,7-1.51,7-4.61a9.18,9.18,0,0,0-.63-3.09l-7.94-23H122.36l-5.8,16.57c-1.45,4.2-2.19,7.26-2.19,9.11,0,3.31,2.11,4.95,6.43,5h.4v3.23H98.08v-3.19l.35,0a13,13,0,0,0,7.23-3c1.71-1.57,3.48-4.92,5.27-9.94l23.89-69.18.09-.27h9.47l.09.27,25.08,72.26c1.44,4.16,2.95,6.87,4.47,8.06s4,1.77,7.46,1.77h.4v3.24Zm-57.64-39.92h23.23l-11.68-33.89-11.55,33.89Z"/><path class="cls-1" d="M290.16,460.51h-3.23l-.13-.14-60.49-72.09v57.8c0,4,.84,6.93,2.5,8.63s4.5,2.56,8.44,2.56h.4v3.24h-27v-3.24h.4c4,0,6.76-1,8.14-3s2.14-5.74,2.14-11V394.2c0-5.17-1-8.92-2.88-11.16s-5.13-3.55-9.57-4l-.36,0v-3.2h22.76l.12.15,53.56,64.42V392.47c0-5-.73-8.58-2.17-10.52s-4.09-2.88-8-2.88h-.4v-3.24h26.87v3.24h-.4c-4,0-6.85.91-8.38,2.72s-2.34,5.22-2.34,10.11v68.61Z"/><path class="cls-1" d="M386.37,463.2c-16,0-28.61-3.88-37.56-11.53s-13.51-17.93-13.51-30.48a48.22,48.22,0,0,1,5.91-23.79,45.09,45.09,0,0,1,39-23,56,56,0,0,1,15.5,2.45,32.17,32.17,0,0,0,8,1.48c2.3,0,3.77-.83,4.49-2.54l.11-.25h3.39v25.55h-3.18l-.05-.34A23.92,23.92,0,0,0,399,384.51a30.32,30.32,0,0,0-18.79-6.11A27.54,27.54,0,0,0,358,388.88c-5.76,7-8.67,16.11-8.67,27.16,0,12.15,3.37,22.36,10,30.34s15.1,12,25.13,12c9.5,0,14.11-2.79,14.11-8.55v-9.1c0-5.05-.68-8.62-2-10.59s-3.69-2.91-7.07-2.91h-3.71V424h35.78v3.24h-.4c-3.7,0-6.37.81-7.92,2.42s-2.36,4.47-2.36,8.5V461l-.3.07a77.18,77.18,0,0,1-11.37,1.45c-5.51.43-9.84.64-12.89.64Z"/><path class="cls-1" d="M503.43,463.2c-12.91,0-24-4.37-32.9-13a42.68,42.68,0,0,1-13.45-31.82c0-12.5,4.5-23.07,13.38-31.43s20.09-12.59,33.34-12.59c12.86,0,23.89,4.3,32.79,12.77A41.63,41.63,0,0,1,550,418.4a42.57,42.57,0,0,1-13.53,31.82c-9,8.61-20.08,13-33.05,13Zm.67-84.79c-9.94,0-18,3.67-24,10.93s-9,17.1-9,29.2,3,22,8.9,29.46a28.35,28.35,0,0,0,23.25,11.18,28.78,28.78,0,0,0,23.58-11.43c6-7.61,9.08-17.25,9.08-28.63,0-12.24-3-22.21-8.9-29.61a28.12,28.12,0,0,0-22.95-11.1Z"/><path class="cls-1" d="M666.84,461.13H648.58l-.12-.14a166,166,0,0,1-13.22-18.74c-5.44-8.56-9.76-14.09-12.83-16.44a16.25,16.25,0,0,0-10.1-3.5h-6.59V445c0,4.86.7,8.27,2.09,10.15s3.84,2.77,7.37,2.77h.4v3.24H583.7v-3.24h.4c3.67,0,6.18-.92,7.44-2.76s2-5.29,2-10.14v-52.6c0-4.86-.65-8.23-1.92-10s-3.76-2.66-7.48-2.66h-.4v-3.24h35.82c8.79,0,15.92,2.11,21.21,6.28a19.69,19.69,0,0,1,8,16.08c0,10.2-5.81,17.17-17.27,20.73a36.12,36.12,0,0,1,7,6.28A111.94,111.94,0,0,1,648.26,440c4.47,7.24,8,12,10.52,14.29a13,13,0,0,0,7.68,3.6l.38,0v3.21ZM605.72,418h10.2c6.19,0,11.11-1.74,14.63-5.18s5.29-8.05,5.29-13.73A17.11,17.11,0,0,0,630,385.63c-3.91-3.42-9.16-5.15-15.61-5.15h-8.65V418Z"/><path class="cls-1" d="M124,537.92c-3.93,0-7.08-1.16-9.35-3.45a12.48,12.48,0,0,1-3.41-9.1V507.9a8,8,0,0,0-.8-4.24c-.51-.73-1.53-1.1-3-1.1H107v-1.68h13.87v1.68h-.33c-1.52,0-2.56.35-3.07,1.07s-.81,2.16-.81,4.2v18a9.07,9.07,0,0,0,2.37,6.64,8.94,8.94,0,0,0,6.63,2.4c4.18,0,7.59-1.91,10.13-5.68V507.9a7.75,7.75,0,0,0-.8-4.16,3.36,3.36,0,0,0-2.8-1.18l-.3,0v-1.66h13.55v1.68h-.32a3.5,3.5,0,0,0-3,1.1c-.56.77-.84,2.2-.84,4.24v22.16a7.7,7.7,0,0,0,.83,4.19,3.42,3.42,0,0,0,3,1.12h.32V537h-9.65v-4.45A15.94,15.94,0,0,1,124,537.92Z"/><path class="cls-1" d="M197.75,537.05h-1.59l-.09-.12-25.36-30.21v24.06a5,5,0,0,0,1,3.55,4.75,4.75,0,0,0,3.47,1h.32v1.68H163.77v-1.68h.32c1.65,0,2.77-.4,3.33-1.21s.87-2.37.87-4.56V508.81c0-2.15-.4-3.71-1.18-4.62a5.76,5.76,0,0,0-4-1.63l-.3,0v-1.65h9.87l.1.12,22.41,27V508.08c0-2.1-.3-3.57-.89-4.37s-1.66-1.15-3.25-1.15h-.32v-1.68h11.69v1.68h-.33c-1.66,0-2.81.36-3.43,1.09s-1,2.15-1,4.18v29.22Z"/><path class="cls-1" d="M234.15,537.05H220.34v-1.68h.32c1.49,0,2.5-.36,3-1.07s.81-2.18.81-4.24V507.9c0-2.1-.27-3.54-.8-4.28s-1.52-1.06-3-1.06h-.32v-1.68h13.81v1.68h-.32a3.49,3.49,0,0,0-3,1.1c-.56.77-.85,2.19-.85,4.24v22.16c0,2,.29,3.46.84,4.21a3.51,3.51,0,0,0,3,1.1h.32v1.68Z"/><path class="cls-1" d="M271.18,537.53h-1.47l-.08-.2L258.3,508.5c-1-2.61-1.94-4.26-2.67-4.92a4.64,4.64,0,0,0-3.1-1h-.31v-1.67h13.93v1.68h-.32c-2.58,0-2.88,1.18-2.88,2.07a4.56,4.56,0,0,0,.38,1.66L272,528.45l8.2-21.36a7.14,7.14,0,0,0,.5-2.34c0-.94-.3-2.19-2.95-2.19h-.32v-1.68h11.31v1.74h-.32c-2.53,0-4.66,2.25-6.35,6.69l-10.8,28-.08.2Z"/><path class="cls-1" d="M329.89,537.05H303v-1.68h.32c1.53,0,2.55-.36,3-1.09a7.76,7.76,0,0,0,.79-4.16V507.9c0-2.08-.27-3.52-.81-4.27s-1.53-1.07-3-1.07H303v-1.68h27v6.58H328.7l-.06-.25a5.76,5.76,0,0,0-1.49-3.2c-.64-.5-2.1-.76-4.34-.76H312.59v14.56h9.91a4,4,0,0,0,2.63-.64,4.65,4.65,0,0,0,1-2.57l.05-.27h1.68v9.27h-1.66l-.06-.24c-.46-1.78-1-2.43-1.31-2.66s-1.24-.52-3.5-.52h-8.75v12.4a2.2,2.2,0,0,0,.5,1.64,2.88,2.88,0,0,0,1.86.46h6.39a20.72,20.72,0,0,0,4.66-.35,4.36,4.36,0,0,0,2.06-1.26,12.84,12.84,0,0,0,1.88-3.11l.09-.19h1.71l-.11.4L330,536.81l-.06.24Z"/><path class="cls-1" d="M386.69,537.05h-7.95l-.1-.12A69.26,69.26,0,0,1,373,529c-2.3-3.61-4.12-6-5.4-6.93a6.75,6.75,0,0,0-4.19-1.45H360.8v9.45a7.49,7.49,0,0,0,.86,4.21,3.53,3.53,0,0,0,3,1.11H365v1.68h-13.8v-1.68h.32c1.5,0,2.52-.37,3-1.1a7.94,7.94,0,0,0,.81-4.21V507.78a7.74,7.74,0,0,0-.79-4.16c-.49-.71-1.52-1.06-3-1.06h-.32v-1.68H366.5a14.31,14.31,0,0,1,9.07,2.69A8.48,8.48,0,0,1,379,510.5c0,4.31-2.4,7.27-7.13,8.83a16.17,16.17,0,0,1,2.74,2.51,48.3,48.3,0,0,1,4.17,6,31,31,0,0,0,4.43,6,5.26,5.26,0,0,0,3.16,1.48l.3,0v1.65ZM360.8,518.47H365a8.37,8.37,0,0,0,6.09-2.14,7.63,7.63,0,0,0,2.2-5.71,7.08,7.08,0,0,0-2.43-5.58,9.55,9.55,0,0,0-6.51-2.15H360.8v15.58Z"/><path class="cls-1" d="M413.42,537.92a21,21,0,0,1-6.45-1.34,8.25,8.25,0,0,0-1.92-.53c-.17,0-.68,0-1.1,1.15l-.08.21h-1.64V527.17H404v.32a8,8,0,0,0,2.56,6.12,8.6,8.6,0,0,0,5.94,2.31,7.62,7.62,0,0,0,5.12-1.65,5.48,5.48,0,0,0,1.9-4.36,6.1,6.1,0,0,0-1.57-3.92c-1.08-1.28-3.37-3-6.82-5a31.14,31.14,0,0,1-5.78-4.1,10,10,0,0,1-2.18-3.36,11.12,11.12,0,0,1-.71-4,8.93,8.93,0,0,1,2.86-6.87,10.55,10.55,0,0,1,7.41-2.64,17.32,17.32,0,0,1,5.4,1,6.86,6.86,0,0,0,1.78.41c.28,0,.34-.07.34-.07a2,2,0,0,0,.28-.7l.07-.23h1.59v9h-1.7l0-.29a7.39,7.39,0,0,0-7.79-7,7.09,7.09,0,0,0-4.57,1.38,4.38,4.38,0,0,0-1.69,3.63,6.05,6.05,0,0,0,1.42,3.88c1,1.2,3.13,2.77,6.41,4.68,3.88,2.25,6.53,4.25,7.88,5.95a9.39,9.39,0,0,1,2.07,6,10,10,0,0,1-3.15,7.38,10.52,10.52,0,0,1-7.58,3Z"/><path class="cls-1" d="M457.73,537.05H443.92v-1.68h.32c1.49,0,2.5-.36,3-1.07s.81-2.18.81-4.24V507.9c0-2.1-.27-3.54-.8-4.28s-1.52-1.06-3-1.06h-.32v-1.68h13.81v1.68h-.32a3.51,3.51,0,0,0-3,1.1c-.56.77-.84,2.2-.84,4.24v22.16c0,2,.28,3.46.84,4.22a3.54,3.54,0,0,0,3,1.09h.32v1.68Z"/><path class="cls-1" d="M499.36,537.05H485.77v-1.68h.32c1.49,0,2.5-.38,3-1.14a7.89,7.89,0,0,0,.81-4.17V503.25h-5c-2.46,0-4.26.38-5.36,1.13a4.58,4.58,0,0,0-1.8,3.66l0,.3H476v-8.79h1.54l.09.08c.91.83,2.69,1.25,5.27,1.25h19.19c2.67,0,4.56-.42,5.59-1.26l.09-.07h1.59v8.79h-1.29l-.06-.25a5.79,5.79,0,0,0-2.3-3.81,10.12,10.12,0,0,0-5.12-1H495.4v27c0,2.07.25,3.46.75,4.14s1.44,1,2.89,1h.32v1.68Z"/><path class="cls-1" d="M549.76,537.05h-14v-1.68h.32c1.69,0,2.81-.38,3.34-1.13a7.75,7.75,0,0,0,.83-4.19V519l-7.75-11.69a16,16,0,0,0-3.07-3.77,5.67,5.67,0,0,0-3.19-.93l-.31,0v-1.66h15v1.68h-.32c-2.29,0-3.45.44-3.45,1.34a3.32,3.32,0,0,0,.69,1.69l7,10.36,5.53-8.51a6.46,6.46,0,0,0,1.23-3.24c0-.71-.22-1.64-2.1-1.64h-.32v-1.68H559.8v1.66l-.3,0a6,6,0,0,0-3,.8,11.66,11.66,0,0,0-2.6,3.08L545.73,519v11.1c0,2.09.27,3.52.8,4.26a3.42,3.42,0,0,0,2.91,1.06h.32v1.68Z"/><path class="cls-1" d="M141.42,342.57H127.61V340.9h.33a3.43,3.43,0,0,0,3-1.14,7.44,7.44,0,0,0,.83-4.06V313.42a7.92,7.92,0,0,0-.82-4.24,3.51,3.51,0,0,0-3-1.1h-.33V306.4h13.68c4.41,0,8,1,10.56,2.88a9,9,0,0,1,4,7.53,8.19,8.19,0,0,1-3.47,7.06c-2.27,1.62-5.56,2.44-9.76,2.44a49.33,49.33,0,0,1-5.3-.33v9.59c0,2.07.28,3.5.83,4.24a3.51,3.51,0,0,0,3,1.09h.32v1.67Zm-4.15-18.79a14.64,14.64,0,0,0,4.2.52,9.4,9.4,0,0,0,6.3-2,6.77,6.77,0,0,0,2.27-5.39,8.54,8.54,0,0,0-2.28-6.12,8.29,8.29,0,0,0-6.29-2.4h-4.2v15.37Z"/><path class="cls-1" d="M209.19,342.57h-7.95l-.1-.11a71.77,71.77,0,0,1-5.61-8c-2.3-3.61-4.11-5.94-5.4-6.92a6.71,6.71,0,0,0-4.18-1.46h-2.64v9.45c0,2,.28,3.44.85,4.21a3.54,3.54,0,0,0,3,1.12h.32v1.67h-13.8V340.9H174c1.5,0,2.52-.38,3-1.11a8,8,0,0,0,.8-4.21V313.3a7.79,7.79,0,0,0-.79-4.16c-.49-.71-1.52-1.06-3-1.06h-.32V306.4H189a14.36,14.36,0,0,1,9.08,2.69,8.5,8.5,0,0,1,3.44,6.93c0,4.31-2.39,7.28-7.13,8.83a15.8,15.8,0,0,1,2.74,2.51,47.85,47.85,0,0,1,4.17,6,30.56,30.56,0,0,0,4.43,6,5.37,5.37,0,0,0,3.16,1.49l.3,0v1.65ZM183.31,324h4.16a8.42,8.42,0,0,0,6.1-2.15,7.69,7.69,0,0,0,2.19-5.71,7.13,7.13,0,0,0-2.43-5.59,9.6,9.6,0,0,0-6.51-2.14h-3.51V324Z"/><path class="cls-1" d="M240.63,342.57H226.82V340.9h.32c1.49,0,2.5-.37,3-1.08s.82-2.18.82-4.24V313.42c0-2.1-.27-3.54-.8-4.28s-1.53-1.06-3-1.06h-.32V306.4h13.81v1.68h-.32a3.49,3.49,0,0,0-3,1.11c-.56.77-.84,2.19-.84,4.23v22.16c0,2,.28,3.46.84,4.22a3.5,3.5,0,0,0,3,1.1h.32v1.67Z"/><path class="cls-1" d="M276,342.57h-13.8V340.9h.32a3.48,3.48,0,0,0,3-1.1c.55-.76.83-2.18.83-4.22V313.42a7.87,7.87,0,0,0-.82-4.25c-.51-.73-1.52-1.09-3-1.09h-.32V306.4H287.9v6.94h-1.42l-.06-.25a6.92,6.92,0,0,0-1.46-3.52c-.4-.36-1.44-.8-4.18-.8h-9V323H281a3.58,3.58,0,0,0,2.64-.86,5.32,5.32,0,0,0,1.13-3.07l0-.28h1.61v10.63h-1.63l0-.3c-.11-2.5-1.31-3.72-3.64-3.72h-9.34v10.17c0,2.05.28,3.47.84,4.23a3.53,3.53,0,0,0,3,1.1H276v1.67Z"/><path class="cls-1" d="M329.78,342.57h-14V340.9h.32c1.69,0,2.81-.39,3.34-1.14a7.75,7.75,0,0,0,.83-4.19V324.48l-7.74-11.71a16.35,16.35,0,0,0-3.08-3.76,5.64,5.64,0,0,0-3.19-.93l-.3,0V306.4h14.95v1.68h-.32c-2.29,0-3.45.45-3.45,1.34a3.44,3.44,0,0,0,.69,1.7l7,10.36,5.53-8.51a6.52,6.52,0,0,0,1.23-3.25c0-.71-.22-1.64-2.11-1.64h-.32V306.4h10.69v1.66l-.3,0a6,6,0,0,0-3,.8,11.47,11.47,0,0,0-2.61,3.08l-8.18,12.52v11.09c0,2.09.27,3.52.8,4.26a3.35,3.35,0,0,0,2.9,1.07h.32v1.67Z"/><path class="cls-1" d="M366,343.45a21,21,0,0,1-6.46-1.35,8.12,8.12,0,0,0-1.92-.53c-.45,0-.82.39-1.09,1.15l-.08.21h-1.64V332.69h1.73V333a8,8,0,0,0,2.56,6.12,8.58,8.58,0,0,0,5.93,2.31,7.62,7.62,0,0,0,5.13-1.65,5.4,5.4,0,0,0,1.89-4.36,6,6,0,0,0-1.57-3.91c-1.07-1.29-3.36-3-6.81-5a30.33,30.33,0,0,1-5.78-4.1,10.19,10.19,0,0,1-2.19-3.36,11.06,11.06,0,0,1-.7-4,8.93,8.93,0,0,1,2.86-6.86,10.51,10.51,0,0,1,7.41-2.63,17.68,17.68,0,0,1,5.4,1,6.74,6.74,0,0,0,1.77.41c.28,0,.35-.07.35-.07a2.18,2.18,0,0,0,.28-.7l.06-.23h1.6v9H373l0-.29a7.38,7.38,0,0,0-7.79-7,7.15,7.15,0,0,0-4.57,1.38,4.41,4.41,0,0,0-1.69,3.63,6,6,0,0,0,1.43,3.88c1,1.2,3.12,2.77,6.4,4.68,3.89,2.26,6.54,4.26,7.89,5.95a9.38,9.38,0,0,1,2.06,6,10,10,0,0,1-3.15,7.38,10.54,10.54,0,0,1-7.57,3.06Z"/><path class="cls-1" d="M417.88,343.45c-6.8,0-12.19-1.66-16-4.93a16.36,16.36,0,0,1-5.77-13,20.62,20.62,0,0,1,2.52-10.15,19.21,19.21,0,0,1,16.64-9.82,23.85,23.85,0,0,1,6.61,1,13.63,13.63,0,0,0,3.34.62,1.69,1.69,0,0,0,1.76-1l.09-.2h1.69v11.12h-1.64l0-.27a10,10,0,0,0-3.95-6.78,12.73,12.73,0,0,0-7.87-2.55,11.51,11.51,0,0,0-9.26,4.38c-2.42,2.93-3.64,6.76-3.64,11.41a19.4,19.4,0,0,0,4.21,12.76,13.21,13.21,0,0,0,10.53,5c3.92,0,5.82-1.14,5.82-3.47v-3.86a8.38,8.38,0,0,0-.83-4.4,3.25,3.25,0,0,0-2.87-1.17H417.5v-1.67H433v1.67h-.32a4.42,4.42,0,0,0-3.24,1,5,5,0,0,0-1,3.5v9.81l-.24.06a34.42,34.42,0,0,1-4.84.61c-2.34.19-4.18.28-5.47.28Z"/><path class="cls-1" d="M470.87,343.45a19.56,19.56,0,0,1-14-5.54,18.24,18.24,0,0,1-5.74-13.59,17.74,17.74,0,0,1,5.71-13.42A20,20,0,0,1,471,305.53,19.63,19.63,0,0,1,485,311a17.81,17.81,0,0,1,5.73,13.35A18.16,18.16,0,0,1,485,337.91a19.69,19.69,0,0,1-14.1,5.54Zm.28-35.92a12.36,12.36,0,0,0-10,4.58c-2.51,3.05-3.78,7.18-3.78,12.27s1.26,9.26,3.74,12.38a11.85,11.85,0,0,0,9.73,4.68,12,12,0,0,0,9.87-4.78,18.89,18.89,0,0,0,3.81-12c0-5.15-1.26-9.34-3.73-12.44a11.81,11.81,0,0,0-9.61-4.65Z"/><path class="cls-1" d="M536.8,342.57H509.72V340.9H510a3.3,3.3,0,0,0,2.94-1.23,8.07,8.07,0,0,0,.89-4.39V312.91a6.43,6.43,0,0,0-.83-3.82,3.65,3.65,0,0,0-3-1h-.32V306.4h13.74v1.68h-.32a3.3,3.3,0,0,0-2.88,1.17,7.31,7.31,0,0,0-.88,4.11V337.1a3.17,3.17,0,0,0,.74,2.45,5.12,5.12,0,0,0,3.08.65h7.27c2.16,0,3.68-.36,4.5-1.06s1.66-2.31,2.43-4.74l.07-.23h1.76l-.12.41-2.25,7.76-.06.23Z"/><path class="cls-1" d="M219,0V160.54c0,25.77,13.94,52.53,38.25,73.41C279.88,253.39,308.19,265,333,265S386.06,253.39,408.7,234c24.3-20.89,38.24-47.64,38.24-73.41V0ZM442.82,160.54c0,24.57-13.42,50.18-36.81,70.28-21.91,18.82-49.21,30.05-73,30.05s-51.13-11.23-73-30.05c-23.4-20.1-36.82-45.71-36.82-70.28V4.12h219.7Z"/><path class="cls-1" d="M359.62,32.29c-.17.07-.54-.27-.54-.27s.57-1.08.94-1.72-.57-.48-1-.68c0,.41-2.64,2.16-2.64,3.69a1.75,1.75,0,0,0,1.76,1.82c2.53,0,2.91-2.33,3.11-2.87C360.94,32.49,359.78,32.22,359.62,32.29Z"/><path class="cls-1" d="M335,26.08c0,.39-.29.86-.29,1.11s-.1.6.47.6.5-.58.81-1,2-1.12,1.72-2.23c-.19.25-.85,0-1,.49a6.29,6.29,0,0,0-2.08.42A.85.85,0,0,1,335,26.08Z"/><path class="cls-1" d="M325.53,237.1a10.59,10.59,0,0,0-1.88-.74,3.15,3.15,0,0,0-2.1,3.07c0,2.47,1.23,3.78,3.55,3.78,2.11,0,2.55-1.56,2.55-2.87A3.09,3.09,0,0,0,325.53,237.1Z"/><path class="cls-1" d="M325.7,234.53c.27,0,1.53-.73,1.53-2.82a2.54,2.54,0,0,0-2.64-2.77c-1.66,0-2,1.24-2,2.28C322.58,234,325.67,234.53,325.7,234.53Z"/><path class="cls-1" d="M352.86,254.24a110.14,110.14,0,0,0,14.93-4.81v-.3l.24-.1V8.4h-.24V8.25H298.1V8.4h-.18V249.32a100.62,100.62,0,0,0,27,7A69.52,69.52,0,0,0,352.86,254.24ZM331.9,202a21.35,21.35,0,0,1-.31,2.65c-1.25-5.46,1.54-9.87,1.89-9.78s1,1.73,1.5,2.34C333.16,198.3,332.46,199.07,331.9,202Zm5.2,42.82c-3.1,0-5-1.86-5-5a4.15,4.15,0,0,1,2.45-3.88,2.21,2.21,0,0,0,.5-.33h0a2.08,2.08,0,0,1-.33-.17,3.65,3.65,0,0,1-1.88-3.58c0-2.94,2.54-4.48,5.05-4.48,2.77,0,4.3,1.48,4.3,4.18a3.88,3.88,0,0,1-2.1,3.41l-.26.19.41.2a3.93,3.93,0,0,1,2.67,4C343,242.69,340.71,244.79,337.1,244.79Zm3.65-34.19c-2.45-1.54-2.93-7.89-2.93-7.89s1.48,1.39,2.09,1.83A9.85,9.85,0,0,0,340.75,210.6Zm16.53,28.12-.89,1.24-.08.11h-1.63c-.18,0-.22,0-.23,0s0,.12,0,.29v1.68c0,.86,0,.86.69,1.05l1.11.32.2.06v1h-6.35v-1l.19-.05,1.31-.4c.4-.1.4-.1.4-.93v-1.63a2.08,2.08,0,0,0,0-.41h0a1.39,1.39,0,0,0-.27,0h-6.38l-.08-.07-.2-.17-.12-.11,0-.16.42-1.68c.38-.63.73-1.24,1.12-1.91.51-.9,1.1-1.91,1.79-3,1.53-2.36,2.87-4.25,3.34-4.89l.05-.07.09,0,2.1-.65.14,0,.11.09.22.17.11.08v10a1.71,1.71,0,0,0,0,.41H357l.08.11.16.2.12.16ZM362.84,142c0,2.52,1.22,9.19-4,9.19-5.06,0-6.44-8.08-7.15-14.08-.5-4.19-1.51-7.9-1.66-9-.35-2.61-.87-.87-.61,2.79.24,3.31,3,17.09,2.71,21.79,1,.62,2.72,11.2,9.26,8.24.79,2.35-2.55,6.41-1.42,7.89-1,.35-3-1.31-3.22.61a3.07,3.07,0,0,1,2.26,1.14c1.22,1.3.7,2.78,1.14,5a7,7,0,0,0-4-1,13.49,13.49,0,0,1,2.44,2c1.74,1.66.43,2.88.43,4.19-1.31.26-2.26-2-4.27-1.05,0,0,1.75,1.83,2.88,3.14s-.35,3-.44,4c-1,0-3.31-2.44-4.71-.87,2.71.43,4.1,4.09,3.23,5s-.35,3.4-.79,3.23-.69-1.31-1.74-2.62-2.87-.43-2.87-.43,5,4.1,3.22,5.67-.71,4.25-.71,4.25a7.64,7.64,0,0,1-3.39-3s-1.48,2.61-2.44,4.61c-.52,1.49-1.75,2.12-2.91,4.25a18,18,0,0,0,.1,5.44c-3.12-1.38-3.07-6.39-3.46-8.11a23,23,0,0,0,2-2.75c.63-1,1.36-1.88,1.16-1.88-.43,0-3.61,3.94-3.61,3.94l-1.89-1.5s6.9-5.22,6.9-8.45c-1-.35-.7,3.23-8,7.58a4.24,4.24,0,0,1-1.31,3.49c-.87.7-1,3-1.19,3.72-.24.9-.81,2.57-.81,2.57s-2.88-10.36,2-13.21c0,0,5.62-.65,5.88-2.13a46.82,46.82,0,0,1-6,1.12c-.17-.38-1.06-1.44-1.34-2.14,1.08,0,5.47-.74,7.13-.3,0,0,0-.55.05-.55l-3.56-.15a11,11,0,0,1-2.16-.11h0l-1.87-.09,0,0-.71,0c-2.32,1.5-4.36,8-4.79,8a12,12,0,0,1,1.68-6.65A8.65,8.65,0,0,1,334,190.9c.31-.17,2.88,1.71,3.12,1.71.55,0-2.81-2.26-1.8-3.22.88.71,2.64,1.09,4.05,2.06.7.11,1.28-.44,2.53-.55,1.42-5.28-.05-17.75,3.34-22.21,2.1.09.29,2.74,1.42,2.74a5.43,5.43,0,0,0,.82-3c0-11.62-8.93-10.34-8.93-28.13,0-3,8.24-16.25,5.1-24.62-1,.7.17,6.62-1.66,10.28.35-2.35-3.6-4.86-3.6-6s1.28-1.93,1.28-8.9a15.35,15.35,0,0,0-3-9.53s-1.52-1.29-1.52-2c0-1.74,2.7-1,5-2.44-.09-1.48-1.92-.52-4.36-.09.52-1.74,2.61-1.91,3.75-2.52s-.44-1.14-1.05-1c.44-1,.61-5.84,3.57-6.28,0-.9-1.89-.72-3.22,1.22-1.11,1.62-1.6,4.84-2.35,6.11,0,0-4.54,2.17-4.36,5.4-1.05-.17-2-3.31-3.32-1.83a10.91,10.91,0,0,1,2.36,4.53c.52,2.53-.61,4.88-1.22,4.45a4.38,4.38,0,0,0-2.35-3.4c-1.49-.7-1.66-.44.34,2.44s.53,5-.34,5.75c.08-2.35-4.19-2.87-4.19-2.87s2.95,1.85,2.62,4.44c-.39,3-2.86,5.18-3.09,4-.27-1.36-1.27-3.44-2.41-3.44,0,1,.88,2.27.88,5.06a10.54,10.54,0,0,1-1.14,4.79s-.39-1.49-.61-2.12c-.41-1.18-1.48-2.93-1.92-1.71,1.14,2.7-2.37,7-.48,11.07-1.48-.17-3.26-1.66-4.66-4.62,0,0,1.57-5.15,1.22-7.33a47.06,47.06,0,0,0-2.26,6.8l-1.05-.52c1-2.18,2.74-11.11,2.35-11.51s-1.39,3.14-1.39,4.36-1.83,6.37-2.88,8.63c.87.26,1.05,2.7,2.36,3.92-.79.18-1.31,3.23-1.31,5.06a45.79,45.79,0,0,1-2.62-9.24,23.16,23.16,0,0,0,2.53-5.67c-.7.7-2.7,4.27-3.4,4.8a5.78,5.78,0,0,0-1.31-.26A115.48,115.48,0,0,0,310.42,107c.41-1.83,1.05-4.45,1.91-7.07,1.57-4.79,8.23-16,9.1-21.53.64-4.06,2.53-6.1,2-7-.21.66-1.94,2.42-2.88,5-1.05,2.82-1.33,5.86-1.74,6.82-.74,0-2.5-1.29-2.5-5.49,0-2.82.14-5.88,1.22-8.11.85-1.76,2.57-1.49,3.5-3.86,1.57,1.16,3.73,1.56,5.71,2.13.58.16-.85,2.63-.87,5.81,0,2.39.87,5.73.87,8,0,1.58-.37,3.94-1.44,5-2.57,2.43-4.73,4.19-4.73,4.19l1.55.63A17.54,17.54,0,0,1,325,89.09c1.95-1.23,4.41-2.29,6.07-3.71A31.73,31.73,0,0,0,336.9,78l.78.29s6.32,7.24,10.13,10.31a76.25,76.25,0,0,0,.39,17c2.2,16.55,7.38,39.22,9.85,39.21.87,0,1.81-1,1.81-4.73,0-9.33-9.58-26.95-9.58-38.28a47.58,47.58,0,0,1,3.09-16.58c-.18,2.09-1,9.56-.82,10.61-.17-1.4,1.66-6.36,2.62-7.93-.53,1.13-1.4,7.75-1.31,9.67.52-1,1.13-5.66,2.27-6.8.08,1.75-1.49,7.76-1.4,9.94-.09-1.22,2.27-5,2.27-9.41,0-3.75-6.54-11-6.54-17.52,0-2.36,2.1-8.64,7.07-8.64,6.36,0,5.92,6.72,4.35,8.11.08-5.84-4.53-4.27-5.75-1a4.36,4.36,0,0,1,.08-5A4.47,4.47,0,0,0,354,71.34c.26,3,5.93,6,5.93,13.34,0,8.27-4,15-4,17.8a30.86,30.86,0,0,0,.56,7.31c.16.72.46-1.31.74-.53a28.44,28.44,0,0,1,4.27-15.08c-1.28,4.84.74,10.46.51,12.46-.3,2.62-1.92,5.49-2.12,6.18-.35,1.22-.78,3.84-.09,3.84.29,0,.8-1,1.18-2.3.57-2,1.28-4.79,1.38-5.36a25.66,25.66,0,0,1,.88,4.94c.08,2.18-4.09,5.86-3.05,7.6,0-1,2.93-4.89,3.45-5.68-.09,3.14-1.22,8.57-3.66,10.75C360.05,128.35,362.84,139.51,362.84,142Zm-33.74,52a11.3,11.3,0,0,1,2.42-3.94l2.47-1C332.93,190.05,330.18,192.79,329.1,194.05ZM315,153.72c-1.4-.7-1.64-2.74-3.76-3.3,2.13-.9,2.83,1.13,4.13.26-.33-2.29-1.82-1.47-3.83-1.82,4.54-1.51,5.22,1.42,5.22,1.42S314.69,152.33,315,153.72ZM310,127.32a4.07,4.07,0,0,1,1.21-.1c1,0,1.45.95,1.88,2.09a7.56,7.56,0,0,0,3.4,3.18c-1.49-.4-3.59-1.08-3.59-1.08S311.14,129.15,310,127.32Zm-2.24,7.4a14.21,14.21,0,0,1-3.32-8.12,4,4,0,0,0,1.4.52C305.81,128.78,305.71,130.26,307.73,134.72Zm.74,15.13c1.77-.72,1.78.38,1.87.59,0,0-2.64.41-5.51,3.86C306.11,151.62,307.18,150.53,308.47,149.85ZM321.68,41.53c.16-.47-.52-4.63-.45-5.43.61,1.22,1.58,6,1.07,6.65s-3.86-.43-4.72,2.28c.07-5.66,1.8-4.7,2.87-6.23a2.83,2.83,0,0,1,.31,1.88c-.05.3-1,.82-.93,1C320.06,42.34,321.63,41.68,321.68,41.53Zm8,13.72c5.68,0,10-7.26,10.29-7.07s-.56,2.17-1.82,3.9c-1.4,1.93-3.29,3.57-3.13,3.73s2.18-1.17,3.89-3.09,3.05-4.41,3.18-4.28-2,6.86-10.21,11.35-11,3.43-11,2.62,1.53-2.45,3-3c0-.8-2.63-.49-2.63-4.42,0-6.3,6.16-9,6.62-8.52C325.47,49.7,325.47,55.25,329.71,55.25Zm3.9-31.8a52.13,52.13,0,0,1,7.62-1.29c.3-.87,3.35-2.55,6.68-2.55,1.68,0,3.52.31,4.7.31,3.71,0,9.53-3.31,11.16-4.53-1.22,6.69-7.16,4.93-9.24,6.62,0,.43.48.6.48.6,2.29-1,5.92,0,8.25-2.06,0,3-3.62,3.58-4.37,4.21.4.68,1,.18,1.94.18,1.21,0,2.81.63,2.62,4.23s-1.16,5.59-1.16,6.58c-.85,0-2.43,3.1-4.93.81a.48.48,0,0,0-.29.5c0,.4.85,1,.85,1.48a10.41,10.41,0,0,0,3.2,6.48,3.82,3.82,0,0,1-2.83,1.7,7.08,7.08,0,0,1-3.17-.83c-.43,1.08.41,5,.41,6.2,0,.37-1.51,4.53,1.19,11.21-5.1-1-4.93-5-5.78-5-.28,0-.3-.28-.54.41s.61,1.91.41,3.24c-.9,5.94-4,13.77-4,18a12.05,12.05,0,0,0,2.92,7.83c-1.2-.25-11.49-6.11-11.57-14.35,0-1.52,1-1.62,1-2.06s-.49-.69-1.05-.57c-2.09,2.15-7,1.92-7,1.92s6.77-5.48,10.38-10.17a40.62,40.62,0,0,0,6.83-13.35c.27-.54-.84.67-2.3,3.72s-3.58,6.72-4.22,6.93c-.41.91-7,9-13.74,13.37,0,.31.75,1,2.06,1a14.62,14.62,0,0,0,7-1.76A21,21,0,0,1,327,86.17c2.4-4.15.2-9,.2-13.85,0-3.15,2-4.53,2-5.82,0-.94-5.14.48-7.1-2.06,4.31-.77,9.28-2.46,13-5.47,4.62-3.77,7.53-8.9,7.81-8.69.51.37-4.06,7.77-4.46,8.11,2.46-1.38,5.38-7.59,5.74-7.33s-3,7.36-3.71,7.94c1.35-1.12,4.59-5.64,6.25-10.35l.1-5.17s1.69-.27,1.69-1.15-3.65-1.92-3.65-5.1c0-1.62.91-1.76.91-2.43s-.71-.75-1-.75a1.48,1.48,0,0,0-1.12,1.42A9,9,0,0,0,347,42.06c-.1.61-1.52.41-1.72,1.46a1.74,1.74,0,0,1,.2,2.67c-.49.61-1.31,1.77-1.16,2.34-1,0-1.14-1.85-2.28-1.87-3.71,0-5.33,2.82-8.86,3.56A7.45,7.45,0,0,1,329,50s1.28-1.44,2.43-2.5c1.68-1.54,2.73-2.65,2.73-2.65s.44.54,2.89.6c2.87.05,6.34-1.68,6.1-5.64-.47-7.9-9-4.61-9.67-8.27C333,28.92,334.12,24.66,333.61,23.45ZM334.94,44c.47-.1,1-.82,1.93-.86s1.41.53,2.44.78C337.67,45.12,336.82,44.27,334.94,44Zm5.53-6.48c-.11.51-2.08-.13-4.31-.37,1.06-.16,1-1.74,2.59-1.41C339.45,35.84,340,36.16,340.47,37.49Zm-14.91-20c1.77,0,5.87.92,5.87,4.77,0,2.08-1.53,4.07-2.06,5.53-.41,1.12-.61,2.84-.95,3.24s-.34-8.18-1.08-3.24a15.92,15.92,0,0,0-.54,4.53c0,3.45,2.72,5.78,5.49,6.64,2.46.75,3.44.64,3.52.3s-6.57-2.61-6-2.83,5.74,1.67,7.49,2.41c.53.23,4.07,1.52,4.62,2.26.15.22-5-1-5.21-.94-.94.2,4.46,1.14,4.87,2,.2.4-4-.8-5.86-1.2-3.07-.63-9.63.33-11.86-6.58-1.81-5.61,3.08-11.14,3.54-12.41a2.1,2.1,0,0,0-2-3.05c-1.49,0-2.79,1.48-1.55,2.37,1,.73.94,1.08-.21,1s-.67,1.91.88,1.91c.79,0-.33,1.2-.33,1.2s-3.57-.2-3.83-3.24S323.31,17.48,325.56,17.48ZM303.82,48.67S306,52,306.73,50.88c.42-.66-3.49-3.05-2.61-9.63.05,1,2.06,2.31,2.56,3.49s.7.13.74-.23c-.27-8.17-2.89-12.48-2.83-14.44a71.13,71.13,0,0,1,5.58,5.18s.64,4.87.91,5.57c.81,2.13.74-5.54,1.09-5.46s-4.1-3.64-3.75-3.52c2.94,1.52,2.66.77,5.81,3.91,0,0-.76,8.71-.05,12.26.31-1.11.81-10.85,1.32-11.56-.31-1.21-2.33-3.24-2.33-3.24,1.36-1.72-2.73-7.3-2.8-8.21,0-.08,5.67,5.44,6.87,7s-.83,2,.23,3.08c.51.41,1.93-1.42,1.93-1.42a31.43,31.43,0,0,0-6-7.51A18.33,18.33,0,0,1,321,35.34s-4.46,2.83-4.52,4.88c-.18,6.78-.28,9.42.5,12.47s1.41,9.31,2,12.89c-3.47,2.55-4.42,5.26-4.42,10.26a13,13,0,0,0,3.56,9.27c-.43,2.09-1.92.26-2.44-.17s-3.08-.07-4.82-.42S307.92,80,307.48,79c0,0,2.62,1.48,2.71.52a10.27,10.27,0,0,1-4.45-7.23s1.83,1.39,1.83.17c0-.7-3.49-3.22-3.49-8.19,0,0,3.75,2.61,3.75,1.57,0,0-5.23-4.71-3.75-9.07,0,0,2.88,2.62,3.05.87C307.13,57.65,302.51,53.82,303.82,48.67Zm-1.15,62.24s2.86,1.84,4.93,1.29c-.46,2-.48,1.53-.83,3a8,8,0,0,0-.67,1.1,47.81,47.81,0,0,1-2,5.47s-1.84-4.62,1.31-8.07C305.75,113.25,302,111.28,302.67,110.91Zm-.23,1.2,1.49,1.16c-1.15,1.12-.86,1.14-1.06,4.38A8.54,8.54,0,0,1,302.44,112.11ZM316.9,244.47h-7.76v-1l.2-.05,1.71-.45c.71-.19.71-.23.71-.9V230.75c0-.87,0-.9-.75-.92l-2,0h-.21l0-.22-.1-.5,0-.24.23-.07,4.75-1.41.13,0,.11.08.3.22.11.09V242.2c0,.51,0,.65.78.82l1.71.42.2.06Zm-1.66-72.12s3.39-.38,3.39-1.77c0-.69-1.92.09-2.7.52s-5.25-.2-6.47-.38c-.09-1.22,4.66-1.86,4.66-3.34,0-1.76-4.82-4-7-4.26-.88-.09-1.15,2.42-1.58,5.49,0,0-1.14-2-1.14-8.21.23-.33,6.09,1.78,8.15,1.39.51-.1-6.46-1.92-7.3-2.14l3.07-1.67c1.2.47,11.84,3.2,13.89,2.71.67-.16-4.86-1.25-8.2-2.62a9.57,9.57,0,0,1-3.22-2.44c-.61-.34-3,1.81-5,1.66-1.71-.13-2.44,2.7-2.44.7s6.19-5.41,6.19-5.41,2.81,3.2,4.12,3.2L310.27,152l1.49-.26c3.92,6,5.51,5.85,11.52,5.85,2.18,0,4.53,2.45,4.53,1.4s-4.56-7.58-4.56-21.7c0-9.13,1.34-15.16,1.93-17,.43-1.32,1.14-1,1.14-1,6.19,3.84,9.42,2,10.82,1.6,0,0,2.62,1.92,3.23,3.29.7,1.57.41,2,1,2.75s-.44,3-.53,4.27c-1.22,0,.53-3.49-.61-3.49a13.79,13.79,0,0,0-.87,3.49c0,1.22.87,1.66.09,2.53-1.57-1.66-6.78,2.05-6.72,4.18,0,1.31-.61,1.31-1.48.87.09.87-.61,1.48.18,1.75s.26,1.13.26,1.13c-1.66.61-.35,1.13.17,1.48s1,1.48-.09,1.48c-1.33,0-.95,1.4,0,1.4.54,0,1.05,1.83.44,1.57s-2,1-1,1c1.31,0,.61,1.13,1.14,1.3s.78-1,.78-1-.41-13,3.33-13.42c-1.13.53-1.62,6.18-1.62,11.76,0,8.12,6.59,11.76,6.59,18.56,0,0-3.19-.3-3.19,2.14,0,1.48,2.6,4.84,2.6,6.67-1.74-.09-4.76,2-9.12,1.26.09-.78,1.74-1.39,1.74-1.74a.73.73,0,0,0-.78-.79c-.61,0-1.14,2.36-6.8,2.36.61-.7,2.7-2,2.35-2.53s-2.09.53-2.79,1-4.27.09-5.31-.09c.17-.43,4.79-2.09,1.3-2.09,0,0-.08,1.22-2.35,1.22A10.18,10.18,0,0,1,315.24,172.35Zm4.1,67.45a4.16,4.16,0,0,1,2.46-3.88,2.34,2.34,0,0,0,.49-.33h0a2.08,2.08,0,0,1-.33-.17,3.66,3.66,0,0,1-1.88-3.59c0-2.93,2.54-4.47,5.05-4.47,2.77,0,4.3,1.49,4.3,4.18a3.88,3.88,0,0,1-2.1,3.41l-.26.19.42.2a3.93,3.93,0,0,1,2.66,4c0,3.38-2.25,5.49-5.86,5.49C321.19,244.8,319.34,242.93,319.34,239.8Z"/><path class="cls-1" d="M356.83,29.07c1.48,0,3.44-2.17,3.71-2.74-.27.17-.64-.14-1.38-.14s-2.54,1.66-2.84,2.67A.58.58,0,0,0,356.83,29.07Z"/><path class="cls-1" d="M341.14,28.79c-1.71,0-1.81,1.3-1.81,1.3a3.09,3.09,0,0,1,1.69-.54c1.74,0,2.58.78,4.42.78a5.54,5.54,0,0,0,3.29-1.26c.59-.29,2.35.19,2.87-.91-2.91.73-3.93-4.11-7.13-4.11-2.71,0-3.84,3.51-4.85,3.51,0,0,.06.31.74.31s1.46-1.28,1.94-1.59c-.1.25.85.29.85.75s-.56.27-1.12.27-.49.35-.66.53a15.8,15.8,0,0,0,2.77.58,4.61,4.61,0,0,0,1.94-.33c-.21-.1-.12-2.6-1.65-2.6-.5,0-1.45.56-1.65.37a2.8,2.8,0,0,1,1.57-.79c1.48,0,2.5,2.84,3.76,3.1a3.87,3.87,0,0,1-2.67,1C343.73,29.18,342.84,28.79,341.14,28.79Z"/><path class="cls-1" d="M338.34,237.1a10.82,10.82,0,0,0-1.88-.74,3.16,3.16,0,0,0-2.11,3.07c0,2.47,1.23,3.78,3.56,3.78,2.11,0,2.55-1.56,2.55-2.86A3.1,3.1,0,0,0,338.34,237.1Z"/><path class="cls-1" d="M347.56,237.84c0,.22,0,.25.62.25h3.56c.18,0,.22,0,.22,0a1.28,1.28,0,0,0,0-.39v-7.53a50.08,50.08,0,0,0-2.81,4.48A13.72,13.72,0,0,0,347.56,237.84Z"/><path class="cls-1" d="M338.51,234.53c.27,0,1.54-.73,1.54-2.82a2.55,2.55,0,0,0-2.66-2.77c-1.65,0-2,1.24-2,2.28C335.39,234,338.48,234.53,338.51,234.53Z"/><path class="cls-1" d="M424,101.16c-.14-.2-.37-.52-.67-.91-1.3-1.72-3.73-4.94-3.17-6.11,2.62-1.21,4.33-6,4.35-6l-.55-.59c-.12.06-3.13,4.8-3.92,5.49l-.08.08c-.79.7-2,1.75-.5,4.7h0a11,11,0,0,0-4.31,2L416,93.5l1.19-.39a6.44,6.44,0,0,0,3.1-1.73,22,22,0,0,0,2.2-5.72c.75-2.6,1.46-5,2.82-5.87-.05-1.21-1.27-2.69-2.7-4.41-2-2.42-4.28-5.17-4.28-8,0-1,0-2,.07-2.91.14-3.48.23-6-2-6.17-.05.09.41,1.69.05,2.17a.29.29,0,0,1-.26.13,1.69,1.69,0,0,1-.85-.34,6.62,6.62,0,0,0-3.95-1,6.37,6.37,0,0,0-4.46,2.13,2,2,0,0,1-.47.39s0,0,0-.12a2.33,2.33,0,0,1,.74-1.6c.38-.44.71-.82.1-1.42-3.26,1.47-4.11,5.51-4.11,7.44a11.08,11.08,0,0,0,.28,2.49c.18.88.27,1.28-.47,2a2.9,2.9,0,0,0-1.82-.88.72.72,0,0,0-.63.27,1.34,1.34,0,0,0,.05,1.2,5.73,5.73,0,0,0,.62,1.19c.45.67.65,1-.09,2.94a3.58,3.58,0,0,0-1.95-1,.54.54,0,0,0-.47.21c-.2.29-.13.86.2,1.71.15.39.29.72.41,1,.65,1.57.79,1.9.13,2.92a4,4,0,0,0-2.08-1,.49.49,0,0,0-.43.2c-.15.24-.09.67.2,1.31,1.1,2.47,1.2,3.39.54,4.47a5.17,5.17,0,0,0-2.16-.84.48.48,0,0,0-.45.19c-.14.2-.1.55.12,1.06a11.44,11.44,0,0,0,.52,1c.49.86.75,1.33.1,2.9-.69-.74-1.16-1.17-1.66-1.17a1.44,1.44,0,0,0-1,.53,4.52,4.52,0,0,0,.42.93c.63,1.14,1.4,2.56.46,4l-2.34-.38c-.24.16-4.94,3.57-5.65,5a9.67,9.67,0,0,0-.49,2.34l-.21.33a19.1,19.1,0,0,1-1.11-4.14,13.37,13.37,0,0,0-.53-2.86c.18-.1,5-4,5.32-6l0-.12-.1.07c-1.72,1.07-6.6,4.52-6.5,6.26a9.49,9.49,0,0,0,.27,2.14L380,98.67l1.3-7.21h0c.1,0,5.86-1.63,6.91-5.4.35-1.24.7-3.27,1.07-5.41.78-4.46,1.75-10,3.17-11.5l-.25-.77c.05,0,3.56-3.29,7.92-7.66a30,30,0,0,0,3-3.64c2-2.66,3.39-4.58,8.26-4.58a29.61,29.61,0,0,1,8,1,24.7,24.7,0,0,0,6.61.9c3.88,0,4.08-1.8,4.08-2.15a2.43,2.43,0,0,1,.06-.4,1.78,1.78,0,0,0-.17-1.53,2.51,2.51,0,0,0-2-.61h0a2.57,2.57,0,0,0-1.43.47,4.35,4.35,0,0,1-2.63.72c-1.73,0-2.81-1.26-2.81-3.3,0-2.41,1.64-3.78,3.08-5,1.14-1,2.22-1.87,2.22-3.13l-.07,0c-.08,0-.19.1-.5.42l-.25.26c-.46.45-.73.68-.83.68,0-1.87-1.65-2.27-2.67-2.51-.34-.08-.66-.16-.69-.26s0-.07.06-.11a3.74,3.74,0,0,1,2.21-.56,6,6,0,0,1,4.15,1.55,3.88,3.88,0,0,1,1.13,2.85c0,1.16-.84,1.51-1.9,2a5.69,5.69,0,0,0-3.1,2.39c-.34.57-.62,1.07-.49,1.39a.58.58,0,0,0,.42.29h0c.26,0,.43-.28.66-.65A3,3,0,0,1,427,45.41c5.16,0,7.44,5.41,7.44,7.46,0,4.67-3.77,5.91-6,5.91a2.8,2.8,0,0,1-2.9-1.72,3.34,3.34,0,0,0,1.13.13A5.08,5.08,0,0,0,430.21,56l.1-.1h-.15l-7.17.51,0,.1c3.85,1.56,4.86,6,5.67,9.6.57,2.53,1.07,4.72,2.41,5.28a3.36,3.36,0,0,0,1.51,2.12,4.34,4.34,0,0,1,2,3.42,2.71,2.71,0,0,0-1.26-.28c-1.66,0-4,1-5.57,6-1.34,4.16-1.1,5.14-.93,5.36a.21.21,0,0,0,.18.11.42.42,0,0,0,.33-.29c.76-1.8,1.84-4,2.71-5.85.76-1.58,1.42-3,1.63-3.53.58.61,1.93,3,1.86,3.89a.28.28,0,0,1-.1.23,1.81,1.81,0,0,1-.55-.3l-.13-.08a2.11,2.11,0,0,0-.9-.41.28.28,0,0,0-.25.13c-.19.28,0,1,.57,2.41.4,1.12.48,2,.19,2.24h0c-.48,0-1.44-.83-1.78-1.15a2.6,2.6,0,0,0,.23,2.52c.42.92.82,1.79.08,2.78h0c-.2,0-.43-.26-.65-.52l-.13-.14c-.31-.36-.67-.74-1-.74s-.43.16-.59.46c.67,1.3,1.16,3.45.37,4.25a5.15,5.15,0,0,0-1.79-.55c-.48,0-.82.27-1.32.82-.84.91-1.11,6.07-1.12,6.29h0a2.65,2.65,0,0,0-.52.56Zm-12.64-4.3,2.68-6.1c1.39-.17,3.93-.56,5.92-.92h0l0,0a4.42,4.42,0,0,1-1.71,1,9.61,9.61,0,0,0-2.66,1.47c-.46.4-.52,1.15-.59,2.09a13.45,13.45,0,0,1-.23,1.77l-3.43.69Zm-8.55-1.53v0a1.56,1.56,0,0,1,0-.35,26.51,26.51,0,0,1,1.39-7c1.91-1,3.69-3.36,3.67-3.9V84l-.12-.07c-.2,0-.62.35-1.41,1a20.42,20.42,0,0,1-2.79,2.13c-.84.5-1.68,1.85-2.36,3.79l-2.5,1.48,0-.09,3.75-6.05c.94-.62,4-2.71,4.59-4.16a28.74,28.74,0,0,1,4.05-5.58.33.33,0,0,0,.07-.24,9.53,9.53,0,0,0-.71-2.29,21.57,21.57,0,0,1-1.83-7.32c0-4.26,3.11-5.66,4.17-5.67a1.94,1.94,0,0,1,1.26.44,6.63,6.63,0,0,0,1.08.61,3.28,3.28,0,0,1-2,.87c-.73.17-1.43.33-1.64.74.62.12,3.5.49,3.51,3.38,0,2.45-1,2.87-1.86,3.25a3.44,3.44,0,0,0-.74.38c-.38.27-.57.53-.57.77,0,.48.83.82,1.34,1l.13,0a3,3,0,0,1,1.18,2.78c0,.39,0,.8-.05,1.2s-.05.75-.05,1.1a2.55,2.55,0,0,0,.4,1.64,71.3,71.3,0,0,0-5.91,5.19,2.28,2.28,0,0,0-.58,1.3.66.66,0,0,0,.1.39l8.07-6.6a20.88,20.88,0,0,0-.32-2.59,49.92,49.92,0,0,1-.7-5.82,3.1,3.1,0,0,1,.06-.68,3.17,3.17,0,0,1,2-1.87h0l0,0a6.08,6.08,0,0,0-1,3.46,12.2,12.2,0,0,0,2.23,6.46,1.51,1.51,0,0,1,.37.92c0,.52-.39,1-1.17,1.32a1.23,1.23,0,0,1-.47.09l-.3,0-.3,0c-.42,0-.82.16-1.4.91a.45.45,0,0,0-.1.3,1.8,1.8,0,0,0,.31.81,2.59,2.59,0,0,1,.42,1.16,1.16,1.16,0,0,1-.45.88c-.09-.05-.33-.23-.67-.41a3.07,3.07,0,0,0-1.36-.42,1.29,1.29,0,0,0-.85.29.4.4,0,0,0-.15.29,1.39,1.39,0,0,0,.25.63,2.83,2.83,0,0,1,.43,1.32,2.61,2.61,0,0,1-1.07,1.9l-.08.07.06-.08c-.32-.81-.91-2.11-1.34-2.11a.28.28,0,0,0-.25.14.64.64,0,0,0-.14.41,3.13,3.13,0,0,0,.18.82,4.14,4.14,0,0,1,.24,1.12,1.58,1.58,0,0,1-.73,1.33,2.34,2.34,0,0,0-1.59-.89,1.46,1.46,0,0,0-.61.13c-1.18.49-5.12,6-5.12,6Zm-25.77-.24L380,89h.82c1.35,0,3.15,0,4.42-.19l0,.1a24.58,24.58,0,0,1-4.2,1.48c-1.05.32-1.05,3-1.05,3.06l-2.88,1.64Zm20.27-6.74,3.32-4.89h0c.13,0,2.8-.35,4.95-.55h0l0,0a6.11,6.11,0,0,1-2.08,1.18,5.44,5.44,0,0,0-1.51.8,14.76,14.76,0,0,0-1.87,2.44l-.1.16-2.72.84ZM384,70.74l-.23,0c-.84-.23-2.16-4-2.19-4.81,0-.32.18-.42.33-.42a2.12,2.12,0,0,1,.74.21,1.59,1.59,0,0,0,.51.16c.14,0,.16,0,.18-.17a.92.92,0,0,0-.05-.25c-.26-1-1.13-1.3-2.05-1.62-1.16-.4-2.47-.85-2.81-2.79,0-.07,0-.09.07-.09a5.08,5.08,0,0,1,.75.2,5,5,0,0,0,1.21.29c.1,0,.24,0,.24-.14a.41.41,0,0,0-.06-.19,4.85,4.85,0,0,0-1.44-1.45,4.79,4.79,0,0,1-2.28-3.41l.1,0a1.78,1.78,0,0,1,.6.22,3.44,3.44,0,0,0,1.18.46c.17,0,.24,0,.25-.22h0v-.1c-.06-.4-.52-.79-1.06-1.24-.83-.7-1.87-1.57-1.87-2.88,0-.15.08-.2.15-.2a1.76,1.76,0,0,1,.52.15,2.77,2.77,0,0,0,.94.24.93.93,0,0,0,.59-.19c0-.6-.59-1.19-1.21-1.81s-1.43-1.45-1.44-2.19a.35.35,0,0,1,0-.17c.71-.37,2.93-2.35,2.91-3.47,0-.45-.41-.88-.95-1.42a6.62,6.62,0,0,1-2.13-3.51,3,3,0,0,1-.05-.68c0-1.49.37-4.33.37-4.35v0l4.47,6.75s0,.69,0,1.47a13.9,13.9,0,0,0,.17,2.59c0,.14.09.25.15.25h0l.09-.09a40.68,40.68,0,0,0,1-4.33c0-1.12-3.81-5.51-3.85-5.53l.73-3.14L382.83,41a22,22,0,0,0-.23,3.25,22.28,22.28,0,0,0,.12,2.38C383,49.69,384.34,54,387,56.9c.31,3,2.64,5.88,4.34,8a23.61,23.61,0,0,1,1.48,1.94c-.29,1-3.12,2.13-4.33,2.6l-.18.07a18.76,18.76,0,0,1-4.3,1.27Zm10.1-5.63h0a2.81,2.81,0,0,1-.8-2.21,13.44,13.44,0,0,1,.59-3.3,6.39,6.39,0,0,0,.28-1.3c0-.12,0-.19-.08-.21a.66.66,0,0,0-.42-.14c-1,0-1.88,2.47-1.89,2.5A3,3,0,0,1,390.16,58,5.37,5.37,0,0,1,391.57,55a7,7,0,0,0,.82-1.25,1.42,1.42,0,0,0,.15-.56c0-.13,0-.28-.22-.29a1.1,1.1,0,0,0-.65.43c-.18.21-.49.5-.83.82-.87.82-2,1.83-1.94,2.42l-.09,0a1.57,1.57,0,0,0-.23-.48,4.38,4.38,0,0,1-.86-2.18,1.86,1.86,0,0,1,.2-.84,9.48,9.48,0,0,1,1.93-2.14,5.93,5.93,0,0,0,1.35-1.5h0c-1.21,0-3,1.49-3.63,2.05l-.13.11a.6.6,0,0,1-.37.17c-.42,0-.59-.82-.74-1.5s-.28-1.26-.62-1.26h0a10.2,10.2,0,0,1,3-3.11c.55-.37.88-.6.86-1.06a3.66,3.66,0,0,0-.73-1.85,11.82,11.82,0,0,1-1.06-2.14,4.76,4.76,0,0,1-.19-1.53,22.33,22.33,0,0,1,.39-3.58c0-.14,0-.23,0-.26a.68.68,0,0,1,.44-.14,4,4,0,0,1,1.14.3,2.56,2.56,0,0,0,.77.22c.17,0,.23-.06.24-.24a7.75,7.75,0,0,1,.25-1.42,8,8,0,0,0,.26-1.59,1.2,1.2,0,0,0,0-.35v0h0a7.36,7.36,0,0,1,1.3,1c.68.6,1.11,1,1.32,1s.11-.07.12-.16c.05-2.32.36-3.74.89-4,.41.75,1,1.63,1.34,1.63.16,0,.41-.12.56-1A1.23,1.23,0,0,1,398,29.64a4.61,4.61,0,0,1,1.53.32,5.49,5.49,0,0,0-.29,1.42c0,.37.08.85.69.86h.13c.71,0,1.17-2.11,1.17-2.13,1.35.33,2.06.81,2.08,1.37a.75.75,0,0,1,0,.2c-.06.21-.13.41-.2.61a5.58,5.58,0,0,0-.34,1.37.51.51,0,0,0,.11.35h0l.07,0c.44,0,1.83-1.67,1.84-1.69h0v0a9.05,9.05,0,0,1,.13,1.82c0,1.35,0,2.87.72,3.18a.68.68,0,0,0,.33.09,1.19,1.19,0,0,0,.74-.4,1.43,1.43,0,0,1,.83-.45,1.17,1.17,0,0,1,.75.37v.25c0,.28.07.78.07,1.39a7.75,7.75,0,0,1-1.6,5.27,12,12,0,0,1-1.94,1.84l0,0,0,.12c0,.12.06.18.25.31a3.92,3.92,0,0,1,1,.93,9.53,9.53,0,0,1,.79,1.6,5,5,0,0,0,.49,1c-.13.73-1.28,2.72-2,2.76a.36.36,0,0,1-.31-.21,6.52,6.52,0,0,0-2.44-1.81,1.1,1.1,0,0,0-.19.62,1.9,1.9,0,0,0,.52,1.19,2.25,2.25,0,0,1,.6,1.4,2.53,2.53,0,0,1,0,.38c-.33,1.78-.67,1.93-1,1.93s-.57-.52-.92-1-.93-1.16-1.2-1.16-.38.2-.38.49a8.14,8.14,0,0,0,.65,2.33,6.87,6.87,0,0,1,.44,1.43c0,.78-1.46,1.69-1.94,1.71-.21,0-.47-.48-.71-.92s-.57-1-.89-1-.46.23-.47.57a5.06,5.06,0,0,0,.27,1.34,4.15,4.15,0,0,1,.2.88c0,.3-.67,1-1.36,1.69a8.31,8.31,0,0,0-2.1,2.74v0Zm-2.66-26.82a1.64,1.64,0,0,0-1.65,1.86,4.7,4.7,0,0,0,1.13,2.59,4.62,4.62,0,0,1,1.13,2.6v0l.06.07c.83.48.86,1.74.89,2.75,0,.32,0,.62.05.86.11.67.68.71,1.09.74s.48,0,.51.18a1.83,1.83,0,0,1,.11.61,2.89,2.89,0,0,1-.09.62,2.22,2.22,0,0,0-.06.43.6.6,0,0,0,.13.4,8.92,8.92,0,0,1,.62,1,7.17,7.17,0,0,0,1.14,1.76l.17-.09v-.15c0-.24.29-.62.63-1.07a4.46,4.46,0,0,0,1.2-2.4,1.7,1.7,0,0,0-.21-.82,1.23,1.23,0,0,1,.65-.13,3.13,3.13,0,0,1,.8.1h0l.09,0a3.2,3.2,0,0,0,1.1-2.79c0-.24,0-.49,0-.77a1.15,1.15,0,0,1,.36-.7,2.84,2.84,0,0,0,.75-1.76,3.06,3.06,0,0,0-.07-.59l1.29.53c.06,0,2.68-.81,2.69-2.94a3.53,3.53,0,0,0-.52-1.75l0,0-.1,0a3.91,3.91,0,0,0-2.72,2.11,7.43,7.43,0,0,1-.71.94,1,1,0,0,0-.66-.35.37.37,0,0,0-.29.12.89.89,0,0,0-.24.67,5.56,5.56,0,0,0,.1.78,4.57,4.57,0,0,1,.11.78c0,.65-1,1.06-1.47,1.06a2.73,2.73,0,0,1-1.11-.76,2.52,2.52,0,0,1-.78-1.13c0-.2.24-.41.5-.63s.66-.54.68-.89c0-.57-.11-1.1-.82-1.1a5.9,5.9,0,0,0-1.17.17,10.63,10.63,0,0,1-1.13.18l-.2,0h-.17l.14.09.18.11a1,1,0,0,1,.09.29,3,3,0,0,0,.2.7,2.86,2.86,0,0,0,.29.42,1.43,1.43,0,0,1,.39.91c0,1.12-2,1.68-2.44,1.68a1,1,0,0,1-1-1c0-.48.48-.94.9-1.36a4.3,4.3,0,0,0,.6-.65l0,0v-.1c-.15-.25-.5-.3-.86-.36s-.77-.12-.95-.41a3.46,3.46,0,0,1-.31-1.22c-.16-1-.34-2.12-1-2.17Zm7-2,0,.11,0,.13-.14.48v0l.05.09a1.78,1.78,0,0,1,.29,1.05c.09.89.21,2,1.38,2.1.76,0,1-.63,1.2-1.19a2.54,2.54,0,0,1,.36-.72,1.06,1.06,0,0,0,.33-.61c0-.25-.21-.34-.45-.42h0l-.09,0a1.12,1.12,0,0,1-.77.29,2.71,2.71,0,0,1-1.9-1.17l-.08-.11-.07-.09Zm-1.61-.07-.16,0a4.42,4.42,0,0,1-1.84.8l-.85.16-.22,0-.14.26c.45.1.48.51.51,1s.09,1.21,1,1.24,1.25-1.17,1.5-2c.11-.37.23-.76.33-.77h.08l0-.09-.24-.55,0-.09Zm20.44,13.53c-2.1,0-7.56-1.32-7.56-7.25,0-2.65,1.44-4.31,2.83-5.91,1.2-1.4,2.33-2.71,2.32-4.53,0-2.06-2.16-3-3.62-3a2.11,2.11,0,0,0-.36,0h-.1a.26.26,0,0,1-.3-.26c0-.68,1.89-2.67,4.7-2.69,3.84,0,4,3.83,4.06,4.6,0,1.69-1.22,3.13-2,4.09-.42.5-.72.87-.71,1.1a.22.22,0,0,0,.06.13s.13.06.21.06c1.48,0,7.56-3,7.57-7.5,0-3.4-2.33-3.71-3.05-3.73l0-.09a8.89,8.89,0,0,1,3-.76c1,0,2.25.46,2.25,2.65a4.61,4.61,0,0,1-.38,1.37,4.84,4.84,0,0,0-.41,1.47c0,.46.24.66.78.66.69,0,.79-1.14.79-1.83a9.17,9.17,0,0,0-.07-1.15v0h0A4.06,4.06,0,0,1,429,30.6c0,3.58-4.06,4.7-7,5.52-1.65.45-2.84.78-2.8,1.41,0,.22.21.44.52.75a4.16,4.16,0,0,1,1.5,3.19,4.76,4.76,0,0,1-5,4.75c-.81,0-1.38-.2-1.57-.54,1.68-.89,3.13-2.94,3.13-4.39,0-1.08-.73-1.72-2.16-1.88h-.23c-1.79,0-2.94,2.27-2.94,3.46,0,.81.28,4.86,5.31,4.86a8.22,8.22,0,0,0,2.29-.35l.1,0-.07,0a1.73,1.73,0,0,0,0,.28,3.34,3.34,0,0,0,.36,1.66,10.09,10.09,0,0,1-3.11.41Zm-34.09-5.56v0a1.62,1.62,0,0,1,0-.3,2.72,2.72,0,0,1,.42-1.39,2.3,2.3,0,0,0,.36-1.15c0-1.07-2.76-5.57-2.79-5.58L383,32.14v0a16.29,16.29,0,0,0,1.05,3.28c.79,2.11,1.77,4.74,1.77,6.18v.2c-.05.5-.65.85-1.29,1.22a3.36,3.36,0,0,0-1.33,1.06l0,0Z"/><path class="cls-1" d="M280.52,200.26c-.13-.2-.37-.51-.67-.9-1.3-1.73-3.73-4.94-3.17-6.12,2.62-1.21,4.33-6,4.35-6l-.55-.59c-.11.06-3.13,4.8-3.92,5.5l-.08.07c-.79.7-2,1.75-.5,4.71h0a10.94,10.94,0,0,0-4.31,2.05l.83-6.33,1.19-.39a6.36,6.36,0,0,0,3.1-1.73,22.06,22.06,0,0,0,2.2-5.71c.75-2.6,1.46-5.06,2.82-5.87-.05-1.22-1.27-2.7-2.7-4.41-2-2.43-4.28-5.18-4.28-8.05,0-1,0-2,.08-2.92.13-3.48.22-6-2-6.17-.05.09.42,1.69.05,2.18a.31.31,0,0,1-.26.12,1.69,1.69,0,0,1-.85-.34,6.59,6.59,0,0,0-3.95-1,6.37,6.37,0,0,0-4.46,2.13c-.21.2-.4.39-.47.39s0,0,0-.12a2.32,2.32,0,0,1,.73-1.6c.38-.43.71-.81.1-1.42-3.26,1.47-4.11,5.51-4.11,7.44a11,11,0,0,0,.28,2.49c.19.88.27,1.28-.47,2a2.86,2.86,0,0,0-1.82-.89.75.75,0,0,0-.63.27,1.36,1.36,0,0,0,.05,1.21,5.36,5.36,0,0,0,.63,1.18c.42.65.64,1-.1,2.94a3.58,3.58,0,0,0-1.95-1,.54.54,0,0,0-.47.21c-.19.29-.13.87.2,1.71l.42,1c.64,1.57.78,1.9.12,2.92a4.08,4.08,0,0,0-2.07-1,.49.49,0,0,0-.44.19c-.15.24-.09.67.2,1.32,1.1,2.46,1.2,3.38.54,4.47a5.09,5.09,0,0,0-2.16-.85.48.48,0,0,0-.45.19c-.14.2-.1.55.12,1.06a8.47,8.47,0,0,0,.53,1.05c.48.86.74,1.33.09,2.9l0-.09c-.71-.65-1.18-1.08-1.68-1.08a1.44,1.44,0,0,0-1,.53,4.09,4.09,0,0,0,.43.93c.62,1.14,1.4,2.56.45,4.05l-2.34-.38c-.24.15-4.94,3.56-5.65,5a10.3,10.3,0,0,0-.49,2.34l-.21.33a19.27,19.27,0,0,1-1.11-4.14,12.39,12.39,0,0,0-.53-2.85c.18-.1,5-4,5.32-6l0-.13-.1.07c-1.72,1.07-6.6,4.53-6.5,6.26a9.49,9.49,0,0,0,.27,2.14l-2.71,2.32,1.3-7.21h0c.11,0,5.86-1.63,6.91-5.4.35-1.24.7-3.27,1.08-5.42.77-4.46,1.74-10,3.16-11.49l-.25-.77c.05,0,3.56-3.29,7.92-7.66a29.93,29.93,0,0,0,3-3.63c2-2.67,3.38-4.59,8.25-4.59a29.55,29.55,0,0,1,8,1,24.7,24.7,0,0,0,6.61.9c3.89,0,4.08-1.79,4.08-2.15a2.59,2.59,0,0,1,.06-.4,1.78,1.78,0,0,0-.17-1.53,2.52,2.52,0,0,0-2-.61,2.49,2.49,0,0,0-1.42.48,4.45,4.45,0,0,1-2.63.71c-1.74,0-2.82-1.26-2.82-3.29,0-2.41,1.64-3.79,3.08-5,1.14-1,2.22-1.87,2.22-3.13l-.07,0c-.08,0-.19.11-.49.41l-.26.27c-.45.45-.73.68-.83.68.05-1.87-1.65-2.27-2.67-2.51-.34-.08-.66-.16-.69-.25s0-.08.06-.11a3.74,3.74,0,0,1,2.21-.57,6.09,6.09,0,0,1,4.15,1.55,3.91,3.91,0,0,1,1.13,2.85c0,1.17-.84,1.52-1.9,2a5.67,5.67,0,0,0-3.1,2.38c-.33.58-.62,1.07-.49,1.39a.55.55,0,0,0,.42.29h0c.27,0,.44-.27.67-.65a3,3,0,0,1,2.49-1.75c5.16,0,7.44,5.41,7.44,7.47,0,4.66-3.78,5.9-6,5.9a2.81,2.81,0,0,1-2.9-1.71,3.45,3.45,0,0,0,1.13.12,5.05,5.05,0,0,0,3.55-1.16l.1-.11h-.15l-7.17.51v.11c3.84,1.56,4.85,6,5.66,9.6.57,2.53,1.07,4.72,2.4,5.27a3.42,3.42,0,0,0,1.52,2.12,4.34,4.34,0,0,1,2,3.42,2.68,2.68,0,0,0-1.26-.28c-1.66,0-4,1-5.56,6-1.35,4.16-1.11,5.14-.94,5.36a.21.21,0,0,0,.18.11.42.42,0,0,0,.33-.29c.76-1.81,1.85-4.06,2.72-5.87.76-1.57,1.41-2.93,1.62-3.51.58.62,1.94,3.05,1.86,3.9,0,.11,0,.19-.1.22a1.7,1.7,0,0,1-.54-.29l-.15-.09a1.91,1.91,0,0,0-.89-.41.3.3,0,0,0-.25.13c-.18.28,0,1.05.57,2.42.4,1.12.48,2,.19,2.24h0c-.47,0-1.44-.83-1.78-1.15a2.58,2.58,0,0,0,.23,2.51c.42.92.82,1.79.08,2.78h0c-.2,0-.42-.26-.64-.52l-.13-.15c-.32-.35-.68-.73-1-.73s-.43.15-.59.46c.67,1.29,1.16,3.44.37,4.24a5.4,5.4,0,0,0-1.78-.55c-.49,0-.83.28-1.33.82-.84.91-1.11,6.08-1.12,6.3h0a2.65,2.65,0,0,0-.52.56ZM267.88,196l2.68-6.11.08,0c2.31-.34,4.38-.67,5.85-.94h0v0a4.16,4.16,0,0,1-1.72,1,9.47,9.47,0,0,0-2.65,1.48c-.46.39-.52,1.14-.59,2.08a13.81,13.81,0,0,1-.23,1.78l-3.43.69Zm-8.55-1.54v0a1.5,1.5,0,0,1,0-.35,26.12,26.12,0,0,1,1.4-7c1.9-1,3.68-3.36,3.66-3.9v0l-.1-.08c-.22,0-.64.35-1.43,1a20.94,20.94,0,0,1-2.78,2.13c-.85.5-1.69,1.85-2.37,3.8l-2.49,1.48,0-.09,3.75-6.06c.94-.61,4-2.71,4.59-4.16a28.94,28.94,0,0,1,4.06-5.58.38.38,0,0,0,.06-.24,9,9,0,0,0-.71-2.28,21.63,21.63,0,0,1-1.83-7.33c0-4.26,3.11-5.66,4.18-5.66a1.87,1.87,0,0,1,1.25.43,7.65,7.65,0,0,0,1.08.61,3.29,3.29,0,0,1-1.95.88c-.73.16-1.43.32-1.64.73.62.13,3.5.5,3.51,3.38,0,2.45-1,2.88-1.86,3.25a4,4,0,0,0-.74.38c-.38.27-.57.53-.57.77,0,.48.84.83,1.36,1l.11,0a3,3,0,0,1,1.18,2.77c0,.4,0,.8-.05,1.2s-.05.75-.05,1.11a2.63,2.63,0,0,0,.4,1.64,71.58,71.58,0,0,0-5.91,5.18,2.28,2.28,0,0,0-.58,1.3.72.72,0,0,0,.1.4l8.07-6.6a21.27,21.27,0,0,0-.32-2.61,49.54,49.54,0,0,1-.7-5.81,2.36,2.36,0,0,1,.07-.67,3.09,3.09,0,0,1,1.95-1.87l0,0,0,0a6.05,6.05,0,0,0-1,3.45,12,12,0,0,0,2.24,6.46,1.56,1.56,0,0,1,.36.92c0,.66-.64,1.08-1.17,1.32a1.23,1.23,0,0,1-.47.09l-.3,0-.3,0c-.37,0-.79.12-1.4.92a.41.41,0,0,0-.1.29,1.76,1.76,0,0,0,.31.81,2.55,2.55,0,0,1,.42,1.16,1.16,1.16,0,0,1-.45.88c-.09,0-.33-.23-.67-.41a3,3,0,0,0-1.36-.41,1.25,1.25,0,0,0-.85.29.36.36,0,0,0-.15.28,1.51,1.51,0,0,0,.25.63,2.83,2.83,0,0,1,.43,1.32,2.61,2.61,0,0,1-1.07,1.9l-.07.07.05-.07c-.32-.82-.91-2.12-1.34-2.12a.3.3,0,0,0-.25.14.64.64,0,0,0-.14.42,3.15,3.15,0,0,0,.18.81,3.86,3.86,0,0,1,.24,1.13,1.61,1.61,0,0,1-.73,1.33,2.34,2.34,0,0,0-1.59-.9,1.54,1.54,0,0,0-.6.13c-1.19.5-5.13,6-5.13,6Zm-25.77-.24,2.92-6.1h.79c1.25,0,3.15,0,4.44-.18l0,.09a23.7,23.7,0,0,1-4.2,1.48c-1.05.33-1.05,3-1.05,3.06l-2.88,1.64Zm20.27-6.74,3.32-4.88h0c.13,0,2.8-.36,5-.56h0l0,0a6.35,6.35,0,0,1-2.09,1.19,5.8,5.8,0,0,0-1.5.79,14.33,14.33,0,0,0-1.86,2.43l-.11.17-2.72.84ZM240.5,169.84l-.23,0c-.83-.23-2.17-4-2.19-4.81,0-.32.18-.42.33-.42a2.2,2.2,0,0,1,.75.22,1.79,1.79,0,0,0,.51.16c.13,0,.15-.05.17-.18a1,1,0,0,0,0-.25c-.26-1-1.14-1.3-2.06-1.62-1.16-.4-2.46-.85-2.81-2.78l.06-.09a3.33,3.33,0,0,1,.77.2,5.3,5.3,0,0,0,1.2.28c.1,0,.24,0,.24-.13a.42.42,0,0,0-.06-.2,4.71,4.71,0,0,0-1.44-1.44,4.84,4.84,0,0,1-2.28-3.41.2.2,0,0,1,.11,0,1.6,1.6,0,0,1,.59.23,3.61,3.61,0,0,0,1.18.45c.16,0,.23,0,.25-.22h0v-.1c0-.4-.52-.79-1-1.24-.84-.7-1.87-1.57-1.88-2.87,0-.16.08-.21.15-.21a1.76,1.76,0,0,1,.52.15,2.63,2.63,0,0,0,.94.25.88.88,0,0,0,.59-.2c0-.6-.59-1.19-1.21-1.81s-1.43-1.44-1.44-2.19a.35.35,0,0,1,0-.17c.74-.39,2.93-2.33,2.92-3.47,0-.45-.41-.88-1-1.41A6.6,6.6,0,0,1,232,139a3.7,3.7,0,0,1-.05-.68c0-1.38.31-3.86.37-4.34v-.05l4.48,6.75s0,.69,0,1.47a14.87,14.87,0,0,0,.16,2.59c0,.15.11.26.16.26h0l.07-.1a38.87,38.87,0,0,0,1-4.32c0-1.13-3.81-5.51-3.85-5.54l.73-3.14,4.22,8.17a20.78,20.78,0,0,0-.23,3.26,22.06,22.06,0,0,0,.11,2.37c.33,3.11,1.62,7.45,4.29,10.32.31,3,2.64,5.88,4.34,8a22,22,0,0,1,1.48,1.95c-.29,1-3.11,2.12-4.32,2.59l-.19.08a18.23,18.23,0,0,1-4.3,1.26Zm10.1-5.62,0,0a2.77,2.77,0,0,1-.8-2.2,13.52,13.52,0,0,1,.59-3.31,6.39,6.39,0,0,0,.28-1.3s0-.18-.07-.21a.78.78,0,0,0-.43-.14c-1,0-1.88,2.48-1.89,2.5a3,3,0,0,1-1.62-2.42,5.37,5.37,0,0,1,1.41-3.05,7,7,0,0,0,.82-1.25,1.38,1.38,0,0,0,.15-.56c0-.13,0-.28-.22-.29a1.08,1.08,0,0,0-.65.44c-.18.2-.48.49-.83.81-.87.82-1.95,1.83-1.94,2.42l-.09,0a1.44,1.44,0,0,0-.23-.47,4.47,4.47,0,0,1-.86-2.19,1.92,1.92,0,0,1,.2-.84,9.48,9.48,0,0,1,1.93-2.14,5.93,5.93,0,0,0,1.35-1.5h0c-1.21,0-3,1.49-3.63,2.05l-.13.11a.6.6,0,0,1-.37.17c-.41,0-.59-.81-.74-1.5s-.28-1.25-.62-1.25l-.12,0h.1a10.2,10.2,0,0,1,3-3.11c.55-.37.88-.6.87-1a3.8,3.8,0,0,0-.74-1.86,11.82,11.82,0,0,1-1.06-2.14,4.69,4.69,0,0,1-.19-1.52,22.14,22.14,0,0,1,.4-3.61c0-.12,0-.21,0-.24a.65.65,0,0,1,.43-.13,3.85,3.85,0,0,1,1.13.29,2.69,2.69,0,0,0,.78.22c.17,0,.23-.05.25-.24a7.63,7.63,0,0,1,.24-1.42,8,8,0,0,0,.26-1.59,1.58,1.58,0,0,0,0-.34v0h0a7.36,7.36,0,0,1,1.3,1c.68.6,1.11,1,1.32,1s.12-.07.12-.17c0-2.32.36-3.74.89-4,.34.61.94,1.64,1.34,1.64.19,0,.42-.17.56-1a1.25,1.25,0,0,1,1.36-1.06,4.37,4.37,0,0,1,1.53.33,5.3,5.3,0,0,0-.29,1.42c0,.36.08.85.69.85h.13c.72,0,1.17-2.12,1.17-2.14,1.35.33,2.06.81,2.08,1.37a.69.69,0,0,1,0,.2c-.06.21-.13.41-.2.61a5.53,5.53,0,0,0-.34,1.38.48.48,0,0,0,.11.34h0c.54,0,1.9-1.64,1.91-1.66h0v0a9.79,9.79,0,0,1,.13,1.82c0,1.34,0,2.86.71,3.18a.88.88,0,0,0,.34.08,1.14,1.14,0,0,0,.74-.4,1.41,1.41,0,0,1,.84-.44,1.16,1.16,0,0,1,.74.36v.25c0,.28.07.78.07,1.4a7.69,7.69,0,0,1-1.6,5.26,12.1,12.1,0,0,1-1.93,1.84l0,0,0,.12c0,.13.05.19.24.32a3.85,3.85,0,0,1,1,.92,8.82,8.82,0,0,1,.79,1.6,5.61,5.61,0,0,0,.49,1c-.13.73-1.28,2.73-2,2.76a.35.35,0,0,1-.31-.21,6.63,6.63,0,0,0-2.44-1.81,1.1,1.1,0,0,0-.19.62,1.9,1.9,0,0,0,.52,1.19,2.2,2.2,0,0,1,.6,1.41,2.51,2.51,0,0,1,0,.37c-.33,1.78-.67,1.93-1,1.93s-.57-.52-.92-1c-.48-.6-.92-1.16-1.2-1.16s-.37.21-.38.5a8.09,8.09,0,0,0,.65,2.32,6.19,6.19,0,0,1,.44,1.44c0,.77-1.46,1.68-1.93,1.7-.22,0-.47-.48-.72-.92s-.57-1-.89-1-.46.23-.47.57a5.49,5.49,0,0,0,.27,1.34,4.29,4.29,0,0,1,.2.88c0,.31-.67,1-1.36,1.7a8.28,8.28,0,0,0-2.1,2.73v0Zm-2.66-26.82a1.67,1.67,0,0,0-1.66,1.86,4.79,4.79,0,0,0,1.14,2.58,4.65,4.65,0,0,1,1.13,2.6v0l.06.08c.83.48.86,1.74.89,2.75,0,.32,0,.62.05.86.12.66.68.7,1.09.73s.48,0,.51.19a1.73,1.73,0,0,1,.11.6,2.8,2.8,0,0,1-.09.62,3.83,3.83,0,0,0-.07.43.61.61,0,0,0,.14.4,7.31,7.31,0,0,1,.62,1,7.6,7.6,0,0,0,1.14,1.76l.17-.09h0v-.15c0-.24.29-.62.64-1.07a4.52,4.52,0,0,0,1.19-2.4,1.58,1.58,0,0,0-.22-.82,1.33,1.33,0,0,1,.66-.13,3.07,3.07,0,0,1,.8.11h0l.09,0a3.22,3.22,0,0,0,1.1-2.8c0-.24,0-.49,0-.77a1.24,1.24,0,0,1,.35-.7,2.84,2.84,0,0,0,.75-1.76,3,3,0,0,0-.07-.58l1.29.53c.06,0,2.69-.81,2.69-2.95a3.5,3.5,0,0,0-.52-1.74l0,0-.1,0a3.88,3.88,0,0,0-2.72,2.11,6.65,6.65,0,0,1-.71.93,1,1,0,0,0-.66-.35.4.4,0,0,0-.29.12.88.88,0,0,0-.23.67,4.27,4.27,0,0,0,.1.78,4.49,4.49,0,0,1,.1.79c0,.64-1,1.05-1.47,1.05a2.63,2.63,0,0,1-1.11-.76,2.5,2.5,0,0,1-.78-1.12c0-.21.24-.41.5-.63s.66-.54.68-.9c0-.57-.11-1.1-.82-1.1a5.9,5.9,0,0,0-1.17.17,10.63,10.63,0,0,1-1.13.18l-.2,0h-.17l.14.09.17.11c.05,0,.08.18.1.3a2.67,2.67,0,0,0,.21.69,2.79,2.79,0,0,0,.28.42,1.54,1.54,0,0,1,.4.91c0,1.12-2,1.68-2.44,1.68a1,1,0,0,1-1-1c0-.48.48-.95.91-1.37a3.77,3.77,0,0,0,.59-.65l0,0v-.09c-.15-.25-.5-.31-.86-.37s-.77-.12-1-.4a3.52,3.52,0,0,1-.31-1.23c-.16-1-.34-2.12-1-2.16Zm7-2,0,.11,0,.14-.14.48v0l.06.1c.19.15.23.56.28,1,.09.89.21,2,1.38,2.11.76,0,1-.64,1.2-1.19a2.3,2.3,0,0,1,.36-.72,1.14,1.14,0,0,0,.34-.61c0-.25-.22-.34-.47-.43h0l-.09,0a1.16,1.16,0,0,1-.77.28,2.7,2.7,0,0,1-1.9-1.17l-.08-.11-.07-.09Zm-1.64-.14-.13.12a4.37,4.37,0,0,1-1.84.8,8.58,8.58,0,0,1-.85.16l-.26,0-.1.26c.45.11.48.51.51,1s.09,1.22,1,1.25,1.25-1.18,1.5-2c.11-.37.23-.75.33-.76h.07l0-.09-.24-.56,0-.09,0-.07Zm20.47,13.6c-2.1,0-7.55-1.32-7.56-7.25,0-2.65,1.44-4.31,2.83-5.91,1.2-1.39,2.33-2.71,2.32-4.53,0-2.06-2.16-3-3.62-3l-.35,0h-.11a.26.26,0,0,1-.29-.26c0-.68,1.88-2.67,4.69-2.68,3.84,0,4.06,3.83,4.06,4.59,0,1.69-1.22,3.14-2,4.09-.43.51-.73.87-.72,1.1a.22.22,0,0,0,.06.13s.14.06.21.06c1.47,0,7.56-3,7.57-7.5,0-3.4-2.34-3.71-3.05-3.72l0-.09a8.58,8.58,0,0,1,3-.77c1,0,2.25.46,2.26,2.66a5,5,0,0,1-.39,1.36,4.57,4.57,0,0,0-.4,1.48c0,.46.23.65.77.66s.79-1.15.79-1.83a9.39,9.39,0,0,0-.07-1.16v0h0a4.08,4.08,0,0,1,1.73,3.45c0,3.58-4.06,4.7-7,5.52-1.65.45-2.84.78-2.8,1.41,0,.22.21.44.53.75a4.21,4.21,0,0,1,1.49,3.19,4.76,4.76,0,0,1-5,4.75c-.81,0-1.38-.2-1.57-.53,1.67-.9,3.14-2.94,3.13-4.4,0-1.08-.73-1.71-2.16-1.87l-.23,0c-1.79,0-2.94,2.28-2.94,3.46s.41,4.86,5.31,4.87a8.07,8.07,0,0,0,2.32-.37l.07,0-.07.05a1.52,1.52,0,0,0,0,.27,3.39,3.39,0,0,0,.37,1.67,10,10,0,0,1-3.12.4Zm-34.09-5.56v0a1.62,1.62,0,0,1,0-.3,2.76,2.76,0,0,1,.42-1.39,2.3,2.3,0,0,0,.36-1.14c0-1.08-2.76-5.57-2.79-5.58l1.85-3.57v.05a17,17,0,0,0,1.05,3.28c.79,2.11,1.77,4.73,1.77,6.17v.2c-.06.51-.66.85-1.3,1.22a3.47,3.47,0,0,0-1.33,1.07l0,0Z"/><path class="cls-1" d="M249.72,37.21c1.08.25-.09,2.17,1.52,2.22,1.34,0,1.42-2.73,1.83-2.78l.07,0-.24-.56,0-.09-.07.07a4.31,4.31,0,0,1-1.87.81c-.33.08-.63.13-.85.17l-.26,0h-.12s0,0,0,.06S249.7,37.2,249.72,37.21ZM256,40h.09c1,0,1-1.41,1.43-1.9.21-.25.32-.42.32-.58s-.19-.29-.42-.36h0l0,0a1.21,1.21,0,0,1-.8.3,2.75,2.75,0,0,1-1.94-1.19l-.08-.11,0,.13-.14.49v0l0,0C255,37.3,254.27,39.81,256,40Zm-7.85,5.16,0,0c1.12.65.83,2.65,1,3.65s1.49.44,1.6.91a1.82,1.82,0,0,1,.1.62,10.37,10.37,0,0,1-.15,1.06.57.57,0,0,0,.13.36,25.46,25.46,0,0,0,1.74,2.78l.1-.09a.3.3,0,0,1,0-.1c0-.64,1.81-2,1.82-3.48a1.65,1.65,0,0,0-.2-.79c0-.12.33-.22.71-.21a3.56,3.56,0,0,1,.8.1h0l0,0A3.18,3.18,0,0,0,257,47.2c0-.23,0-.49,0-.77v0c0-.53,1.1-1.12,1.1-2.43a2.45,2.45,0,0,0-.09-.68l1.4.58c.05,0,2.6-.81,2.61-2.9a3.42,3.42,0,0,0-.52-1.71l0,0h-.05c-1.89.22-2.5,2.1-3.39,3a1.43,1.43,0,0,0-.7-.33.35.35,0,0,0-.25.1.84.84,0,0,0-.22.63c0,.49.2,1.07.2,1.57,0,.69-1.06,1.11-1.52,1.11a2.68,2.68,0,0,1-1.14-.78,2.63,2.63,0,0,1-.81-1.16c0-.48,1.15-.9,1.19-1.53s-.1-1-.77-1-1.47.28-2.3.35l-.2,0,.17.1c.12,0,.11.57.33,1s.69.77.68,1.35c0,1.17-2,1.74-2.49,1.74a1.06,1.06,0,0,1-1-1c0-.77,1.15-1.47,1.52-2l0,0,0,0c-.29-.49-1.44-.19-1.81-.77s-.28-3.31-1.3-3.37a1.6,1.6,0,0,0-1.6,1.81c0,1.93,2.28,3.22,2.27,5.18ZM227.25,8.25V116.76h67.27V8.25Zm40.07,20.59a1.83,1.83,0,0,0-.34,0h-.12a.32.32,0,0,1-.35-.31c0-.78,2-2.73,4.75-2.75,3.57,0,4.11,3.32,4.11,4.65,0,2.58-2.76,4.57-2.72,5.19a.13.13,0,0,0,0,.1.36.36,0,0,0,.19,0c1.31,0,7.49-2.92,7.5-7.44,0-3.57-2.61-3.67-3-3.68h0l0-.13a7.7,7.7,0,0,1,3-.83c1.2,0,2.31.61,2.31,2.71,0,.74-.79,2.06-.79,2.84,0,.38.15.59.72.6s.74-.92.74-1.77a8.64,8.64,0,0,0-.08-1.15V26.8l.12.07a4.11,4.11,0,0,1,1.75,3.49c0,5.61-9.91,5.28-9.8,6.93,0,.61,2,1.35,2,3.94a4.81,4.81,0,0,1-5,4.8c-.78,0-1.41-.18-1.62-.55l0-.06.06,0c1.57-.82,3.1-2.84,3.1-4.32,0-.93-.56-1.65-2.11-1.83h-.23c-1.74,0-2.88,2.24-2.89,3.4s.52,4.81,5.26,4.81a8.16,8.16,0,0,0,2.28-.35l.1,0v.1s0,.11,0,.28a3.23,3.23,0,0,0,.35,1.63l.06.07-.09,0a11.18,11.18,0,0,1-3.13.38c-2,0-7.61-1.27-7.61-7.29,0-5,5.17-6.61,5.15-10.45C270.89,29.75,268.69,28.84,267.32,28.84ZM243.79,40.61a4.72,4.72,0,0,1-.2-1.54,25.26,25.26,0,0,1,.44-3.86.68.68,0,0,1,.49-.18c.64,0,1.52.52,1.92.52.13,0,.17,0,.18-.19,0-.76.51-2.17.51-3a1.18,1.18,0,0,0,0-.34l0-.13.14.05c.64.29,2.22,2,2.6,2,0,0,.05,0,.06-.11,0-.87.09-3.65.92-4l0,0,0,.05c.34.63.93,1.63,1.29,1.6.17,0,.37-.21.5-.94a1.29,1.29,0,0,1,1.43-1.1,4.58,4.58,0,0,1,1.54.33l.06,0,0,.06a4.69,4.69,0,0,0-.29,1.38c0,.46.13.79.63.8h.13c.66,0,1.11-2.07,1.11-2.07l0-.07h.06s2.08.39,2.12,1.42a.89.89,0,0,1,0,.22,9.5,9.5,0,0,0-.54,2,.41.41,0,0,0,.09.3.06.06,0,0,0,.05,0c.37,0,1.78-1.63,1.78-1.64l.09-.1,0,.12c.31,1.2-.17,4.51.82,5a.75.75,0,0,0,.31.08c.54,0,.9-.83,1.58-.85a1.2,1.2,0,0,1,.78.38l.05,0,0,0c0,.16.08.78.08,1.6a8,8,0,0,1-1.61,5.29,15.5,15.5,0,0,1-2,1.92v.11c-.05.09.72.38,1.27,1.13s1,2.2,1.29,2.61c-.12.76-1.27,2.81-2.05,2.85a.41.41,0,0,1-.35-.24,6.54,6.54,0,0,0-2.43-1.79,1.85,1.85,0,0,0-.1.57c0,1,1.11,1.39,1.12,2.6a2.77,2.77,0,0,1,0,.39c-.32,1.7-.65,2-1,2s-1.66-2.16-2.13-2.13c-.24,0-.31.14-.32.44,0,1,1.09,3.15,1.1,3.76,0,.82-1.51,1.74-2,1.76s-1.06-2-1.62-1.94c-.32,0-.4.18-.41.51,0,.67.47,1.77.48,2.22,0,.73-3.16,3.1-3.46,4.45l0,.11-.08-.08a2.87,2.87,0,0,1-.82-2.24c0-1.82.87-3.95.86-4.61a.29.29,0,0,0,0-.16.78.78,0,0,0-.4-.13c-1,0-1.84,2.45-1.84,2.46l0,.08-.07,0a3.15,3.15,0,0,1-1.64-2.48v0c0-1.81,1.73-3.15,2.25-4.29a1.42,1.42,0,0,0,.14-.54c0-.17-.06-.22-.17-.23a1,1,0,0,0-.6.41c-.64.73-2.78,2.41-2.76,3.2v.05l-.13,0a6,6,0,0,1-1.16-2.71,1.93,1.93,0,0,1,.2-.86c.63-1.25,3-2.91,3.28-3.63-1.23.07-3.21,1.83-3.67,2.22a.67.67,0,0,1-.41.18c-.86-.07-.72-2.77-1.37-2.76h-.11l.06-.1c2.14-3.27,3.93-3.14,3.89-4.13S244.49,42.59,243.79,40.61Zm-4.66-8.91V32c.06,1.31,2.82,7,2.83,9.47,0,.06,0,.13,0,.2-.1,1-2.11,1.37-2.63,2.3l-.1.19,0-.22c0-.1,0-.2,0-.3,0-1.23.78-1.55.77-2.53s-2.74-5.53-2.75-5.53l0,0ZM232.91,56a.11.11,0,0,1,.11-.1c.28,0,1.38.75,1.85.74.13,0,.17,0,.18-.18v-.09c-.13-1-2.92-2-2.93-4.12v-.06a.2.2,0,0,1,.2-.21c.32,0,.94.41,1.47.4a.85.85,0,0,0,.55-.18c-.06-1.14-2.65-2.52-2.67-4a.44.44,0,0,1,0-.19c.78-.42,2.93-2.36,2.91-3.45s-2.52-2-3.09-4.92a4.2,4.2,0,0,1,0-.68c0-1.52.37-4.37.37-4.37l0-.18,4.56,6.88s0,.67,0,1.49a13.93,13.93,0,0,0,.16,2.58.41.41,0,0,0,.1.21s0,0,.07,0,.89-3.28,1-4.32a0,0,0,0,1,0,0c0-1.05-3.81-5.43-3.83-5.44l0,0,.76-3.32,4.29,8.29A22,22,0,0,0,238.7,44a22.38,22.38,0,0,0,.12,2.37c.34,3.25,1.7,7.52,4.27,10.29.44,4.13,4.57,7.89,5.83,9.91-.31,1.14-3.38,2.29-4.54,2.75a17.84,17.84,0,0,1-4.32,1.26.9.9,0,0,1-.24,0c-.88-.24-2.21-4-2.23-4.86v0c0-.3.19-.44.4-.43.41,0,1,.38,1.25.37.08,0,.09,0,.1-.12a.79.79,0,0,0,0-.23c-.57-2.2-4.24-.91-4.86-4.41a.11.11,0,0,1,0-.06.13.13,0,0,1,.14-.1c.32,0,1.47.49,2,.49.15,0,.18,0,.18-.08a.38.38,0,0,0-.06-.17c-.84-1.57-3.33-1.89-3.72-4.88C232.92,56,232.91,56,232.91,56ZM236,88.73h0s3.27,0,5.23-.21l0,.13A20.91,20.91,0,0,1,237,90.21c-.93.29-1,2.78-1,3h0v0L233,95Zm30.71-2.52a.54.54,0,0,0-.12.38c0,.49.41,1.21.41,1.94a1.63,1.63,0,0,1-.75,1.37l-.06,0,0-.06a2.19,2.19,0,0,0-1.53-.87,1.54,1.54,0,0,0-.57.12c-1.2.5-5.09,5.94-5.09,6l-.09.12,0-.15a1.73,1.73,0,0,1,0-.36,25.74,25.74,0,0,1,1.4-7c1.86-1,3.68-3.35,3.66-3.88a.22.22,0,0,0,0-.06h0c-.41,0-2.26,2-4.19,3.14-1.42.85-2.34,3.81-2.37,3.85l-2.49,1.42-.09-.09L258.41,86s3.91-2.52,4.59-4.16a29.07,29.07,0,0,1,4.07-5.6.28.28,0,0,0,.05-.2c0-1.13-2.54-5.62-2.54-9.61,0-4.38,3.21-5.71,4.23-5.72s1,.45,2.36,1.06l.07,0-.05.07c-.74,1-3.17.78-3.59,1.58.58,0,3.51.41,3.52,3.35,0,3.22-1.69,3-2.62,3.68-.42.29-.55.54-.55.73,0,.47,1,.83,1.43,1A3,3,0,0,1,270.6,75c0,.78-.1,1.59-.1,2.31a2.59,2.59,0,0,0,.39,1.6l0,.06-.06,0A70.22,70.22,0,0,0,265,84.17a2.13,2.13,0,0,0-.57,1.27.66.66,0,0,0,.09.36l8-6.61c0-.85-1-6.2-1-8.37a3.18,3.18,0,0,1,.06-.7,3.32,3.32,0,0,1,2-1.91l.19-.06-.11.17a6,6,0,0,0-1,3.42,12.12,12.12,0,0,0,2.23,6.43,1.55,1.55,0,0,1,.38,1c0,.68-.64,1.12-1.21,1.37a1.1,1.1,0,0,1-.49.1c-.21,0-.4,0-.6,0-.36,0-.76.12-1.36.89a.43.43,0,0,0-.09.26c0,.49.73,1.21.74,2a1.2,1.2,0,0,1-.48.93l0,0,0,0a4.85,4.85,0,0,0-.65-.41,3,3,0,0,0-1.34-.41,1.2,1.2,0,0,0-.8.28.29.29,0,0,0-.13.25c0,.38.67,1,.68,2a2.65,2.65,0,0,1-1.09,1.93l-.08.07,0-.1s-.81-2.12-1.31-2.07a.24.24,0,0,0-.19.12l-.05,0Zm-13.44,2,3.4-5s2.76-.37,5-.58l.19,0-.14.13c-1,1-2.82,1.29-3.59,2a17.66,17.66,0,0,0-2,2.6Zm14.09,8.49,2.72-6.2s3.43-.49,6-1l.15,0-.08.13c-.51.78-3,1.2-4.38,2.47-.71.61-.44,2.12-.8,3.83Zm15.95-9.11c1.42-3.37,3.9-8.13,4.34-9.38.8.72,2.45,3.81,1.84,4.19-.3.18-3.09-2.74-1.24,1.69.35,1,.54,2,.17,2.3s-1.86-1.15-1.86-1.15c-.88,1.86,1.81,3.38.4,5.29-.4.53-1.64-2.45-2.44-1,.71,1.33,1.16,3.46.36,4.26-1.86-.71-2.13-.8-3.11.27-.83.91-1.11,6.26-1.11,6.26a3.81,3.81,0,0,0-.57.65c-.62-1-4.6-5.63-3.89-7.14,2.66-1.24,4.35-6,4.35-6l-.54-.54a59.35,59.35,0,0,1-3.84,5.5c-.8.71-2.09,1.7-.57,4.71,0,0-3.2.89-4.44,2.22l.84-6.48c1.55-.64,3.07-.78,4.31-2.15,2.24-3.42,2.57-10.12,5-11.6-.18-2.75-7-7.45-7-12.41s.87-8.82-1.9-9c0,0,.67,2.3-.21,2.3S270.88,59,267.42,59s-5,3.32-5,2.34c0-1.68,1.92-1.92.86-3-3.08,1.42-4,5.26-4,7.4,0,2.93,1,3.34-.21,4.5-1.33-1.16-3.1-1.33-2.39.53s1.6,1.33.53,4.16c-1.68-1.24-3.19-1.59-2.21.89s1.33,2.75.53,4c-1.07-.8-3.37-2-2.31.45s1.24,3.36.53,4.52c-1.86-1-3.19-1.33-2.48.35s1.51,1.87.62,4c-1.15-1.06-1.68-1.59-2.66-.62.45,1.16,2.13,3,.89,5l-2.4-.36s-4.88,3.53-5.59,5a10.23,10.23,0,0,0-.48,2.33l-.28.44a19.93,19.93,0,0,1-1.15-4.25,12.56,12.56,0,0,0-.53-2.84s5-4,5.32-6c-2.13,1.33-6.56,4.61-6.47,6.21a9.22,9.22,0,0,0,.26,2.12l-2.84,2.49,1.33-7.36s5.85-1.6,6.92-5.41,2.13-14.72,4.25-16.94l-.26-.71s3.5-3.28,7.94-7.71,4.4-8.24,11.31-8.24c7.3,0,8.48,1.92,14.6,1.92,3.45,0,4-1.41,4-2.1s1-2.49-2.07-2.49c-1.42,0-1.52,1.2-4.05,1.2-1.88,0-2.87-1.4-2.87-3.35,0-4.38,5.3-5.36,5.3-8.13,0-.15-1.67,1.83-1.65,1.3.06-2.78-4-2.2-3.29-2.88,1.67-1.31,7.6-.58,7.59,3.87,0,2.37-3.34,1.47-5,4.37-.48.83-.81,1.43-.11,1.6s1-2.4,3.15-2.4c5,0,7.5,5.23,7.5,7.52,0,4.58-3.58,6-6.07,6a2.81,2.81,0,0,1-3-1.79s3.1.53,4.7-1.06l-7.17.51c6.56,2.66,4.88,13.54,8.07,14.87.26,2.13,3.46,2.4,3.54,5.59-1.06-.36-4.61-1.13-6.82,5.73C282,88.21,283.05,88.18,283.3,87.59Z"/><path class="cls-1" d="M392.61,148.05c.14,1,1.38.34,1.59.9.37,1-.28,1.59.07,2a25.66,25.66,0,0,0,1.74,2.77c-.35-.76,2.56-2.63,1.59-4.37.07-.41,1.11-.34,1.6-.2.76-.71,1.19-1.37,1-3.47-.06-.74,1.56-1.38,1-3.26l1.53.62s3.88-1.25,2-4.51c-1.88.21-2.47,2.12-3.4,3.05,0,0-.63-.55-.9-.27-.45.45,0,1.38,0,2.15s-1.11,1.18-1.6,1.18-2-1.46-2-2,1.18-1,1.18-1.52-.07-1-.69-1-1.46.27-2.29.34c.17.11.13.62.34,1s.7.77.7,1.39c0,1.25-2.09,1.81-2.57,1.81a1.12,1.12,0,0,1-1.11-1.11c0-.84,1.18-1.53,1.52-2.09-.2-.41-1.38-.13-1.8-.76s-.35-3.33-1.25-3.33c-.35,0-1.52.14-1.52,1.74,0,1.87,2.26,3.17,2.26,5.18C392.79,145,392.47,147.08,392.61,148.05Zm2-9.44c1.25,0,1.31-2.64,1.8-2.77l-.21-.49a6.81,6.81,0,0,1-3.12,1C394.27,136.74,393.09,138.61,394.62,138.61Zm4.79.56c1,.08,1-1.32,1.45-1.88s.35-.69-.07-.83c-1,.83-2.29-.14-2.84-.9l-.14.48C398.43,136.6,397.74,139,399.41,139.17Zm-28.05-18.84v127.6c35.42-15.61,67.33-50,67.33-87.39V120.33Zm39,7.71c-1.33.18.92-2.91,4.29-2.91s4.05,3.26,4.05,4.59c0,2.74-3.2,4.79-2.66,5.32s7.8-2.48,7.8-7.44c0-3.91-3.11-3.75-3.11-3.75s5.22-2.77,5.22,1.82c0,1.06-1.78,3.51,0,3.51,1.15,0,.73-3,.73-3a4,4,0,0,1,1.72,3.43c0,5.54-9.81,5.15-9.81,6.93,0,.7,2,1.37,2,3.94,0,4.88-5.89,5.36-6.52,4.21,2.58-1.36,5-5.84,1-6.28-1.94-.2-3.19,2.22-3.19,3.46s.53,4.88,5.32,4.88a8.12,8.12,0,0,0,2.31-.36,3.88,3.88,0,0,0,.35,2,10.81,10.81,0,0,1-3.1.38c-2,0-7.55-1.27-7.55-7.24,0-5,5.15-6.53,5.15-10.44C414.33,128.75,411.67,127.86,410.34,128Zm-23.11,11.8c-.54-1.53.22-5.09.22-5.33.64-.64,2.61,1,2.61.1s.69-2.61.47-3.36c.75.32,2.76,2.65,2.76,1.8s.13-3.66.88-4c.53,1,1.53,2.78,1.91.64.32-1.81,2.87-.72,2.87-.72s-.95,2.43.54,2.27c.75-.08,1.18-2.13,1.18-2.13s2.34.48,2,1.54-.75,2-.43,2.35,1.93-1.63,1.93-1.63c.32,1.17-.21,4.47.85,5s1.37-1.57,2.65-.4c0,.3.62,4.54-1.51,6.89s-2,1.64-2,2.07c0,.2.74.41,1.28,1.17s.94,2.17,1.28,2.55c-.11.86-1.75,3.55-2.28,2.59a6.83,6.83,0,0,0-2.52-1.84c-.64,1.71,1.27,1.93.95,3.63s-.64,1.92-1,1.92-1.58-2.13-2.13-2.13c-1.17,0,.71,3.52.71,4.27s-1.49,1.69-1.92,1.69-1-1.94-1.62-1.94c-1.06,0,0,2.16,0,2.8s-3.13,3-3.45,4.43c-2-1.81.52-6.67,0-7-1.28-.85-2.35,2.37-2.35,2.37a3.08,3.08,0,0,1-1.6-2.45c0-1.76,1.71-3.09,2.24-4.27.42-.92-.1-1.17-.74-.42s-2.88,2.45-2.77,3.3c-.54-1-1.6-2.24-1-3.51s3.2-3,3.3-3.73c-1.28,0-3.32,1.84-3.8,2.23-1.17,1-.89-2.52-1.73-2.59,2.12-3.27,3.9-3.08,3.9-4.17S387.92,141.8,387.23,139.84Zm-4.78-8.63c.07,1.38,3,7.35,2.82,9.65-.07.9-2.07,1.31-2.62,2.28-.14-1.45.76-1.73.76-2.83s-2.76-5.57-2.76-5.57Zm-4,24.37c-.18-1.06-3-2-2.93-4.17,0-.56,1.51.8,2.22,0-.09-1.24-2.84-2.66-2.66-4.08.8-.44,2.94-2.35,2.94-3.51s-2.53-2-3.09-4.93a32.35,32.35,0,0,1,.33-5l4.45,6.68s-.18,5.15.44,4.26a43.56,43.56,0,0,0,1-4.35c.08-1.06-3.84-5.51-3.84-5.51l.71-3.11,4.19,8.09a24,24,0,0,0-.1,5.68c.33,3.26,1.7,7.53,4.27,10.28.44,4.17,4.59,7.94,5.82,9.89-.26,1.07-3.34,2.26-4.49,2.7s-3.73,1.42-4.52,1.25-2.23-4.1-2.17-4.84c.08-1.12,2.06.83,1.7-.43-.64-2.28-4.27-1-4.87-4.44-.05-.29,2.75,1.07,2.21.09-.87-1.6-3.33-1.91-3.72-4.88C376.32,154.91,378.67,156.64,378.49,155.58Zm.91,32.47s3.28,0,5.25-.21a21.5,21.5,0,0,1-4.25,1.55c-1.06.36-1,3.09-1,3.09l-2.83,1.59Zm30.17,1s-.94-1.3-2.19-.77-5.11,6-5.11,6A24.82,24.82,0,0,1,403.6,187c2-1.07,4-3.71,3.67-4s-2.24,1.88-4.31,3.12c-1.46.88-2.37,3.85-2.37,3.85l-2.49,1.42,3.73-6.1s3.9-2.5,4.61-4.18a28.87,28.87,0,0,1,4.05-5.58c.58-.58-2.47-5.51-2.47-9.86s3.18-5.65,4.16-5.65,1,.42,2.33,1.05c-.71,1-3.28.7-3.64,1.68,0,0,3.55.1,3.55,3.29s-1.61,2.91-2.59,3.62c-1.47,1.07.27,1.6.89,1.86,2.3,1.42.33,5.22,1.48,6.72a70,70,0,0,0-5.9,5.17c-1,1.24-.44,1.77-.44,1.77l8.07-6.71c0-1-1.33-7.71-1-9a3.17,3.17,0,0,1,2-1.86c-2.49,3.72.35,8.78,1.24,9.93s0,1.86-.8,2.22-1.32-.54-2.48,1c-.57.75,1.51,2,.18,3.15,0,0-1.81-1.43-2.87-.54-.8.66,1.94,1.91-.54,4.13,0,0-1-2.78-1.62-2S411.26,187.86,409.57,189.1Zm-12.77-1.76,3.25-4.83s2.75-.36,5-.57c-1,1-2.79,1.26-3.59,2a15.66,15.66,0,0,0-1.95,2.58Zm14,8.52,2.62-6s3.42-.49,6-1c-.46.73-2.94,1.18-4.37,2.45-.75.67-.46,2.18-.77,3.82Zm15.83-9c1.42-3.37,3.9-8.14,4.34-9.38.8.71,2.46,3.81,1.84,4.19-.3.18-3.09-2.74-1.24,1.68.36,1,.55,2.06.18,2.31s-1.86-1.15-1.86-1.15c-.89,1.86,1.81,3.38.39,5.28-.39.54-1.64-2.45-2.43-.94.71,1.33,1.15,3.46.35,4.26-1.86-.71-2.13-.8-3.1.26s-1.11,6.27-1.11,6.27a4.12,4.12,0,0,0-.58.65c-.62-1-4.6-5.64-3.89-7.14,2.66-1.25,4.35-6,4.35-6l-.53-.54a59.76,59.76,0,0,1-3.85,5.5c-.79.71-2.08,1.69-.57,4.71,0,0-3.2.89-4.44,2.22l.85-6.49c1.54-.63,3.06-.77,4.3-2.15,2.24-3.41,2.58-10.11,5-11.59-.18-2.75-7-7.45-7-12.41s.87-8.82-1.9-9c0,0,.68,2.3-.21,2.3s-1.34-1.34-4.79-1.34-5,3.32-5,2.34c0-1.68,1.91-1.92.85-3-3.08,1.42-4,5.26-4,7.4,0,2.93,1,3.34-.2,4.49-1.34-1.15-3.11-1.33-2.4.54s1.6,1.33.54,4.16c-1.69-1.24-3.2-1.59-2.22.89s1.33,2.75.53,4c-1.06-.8-3.37-2-2.31.44s1.25,3.37.54,4.53c-1.86-1-3.2-1.33-2.49.35s1.51,1.86.63,4c-1.16-1.06-1.69-1.59-2.67-.62.45,1.15,2.13,3,.89,5l-2.39-.36s-4.89,3.53-5.6,5a10.23,10.23,0,0,0-.48,2.33l-.28.44a19.89,19.89,0,0,1-1.15-4.26A12.55,12.55,0,0,0,383,193s5-4,5.32-6c-2.13,1.33-6.56,4.61-6.47,6.2a10.13,10.13,0,0,0,.26,2.13l-2.83,2.48,1.33-7.35s5.85-1.6,6.91-5.41,2.13-14.72,4.26-16.94l-.27-.71s3.51-3.28,7.94-7.72,4.41-8.23,11.32-8.23c7.3,0,8.48,1.91,14.6,1.91,3.44,0,4-1.4,4-2.09s1-2.49-2.07-2.49c-1.42,0-1.52,1.2-4.05,1.2-1.87,0-2.87-1.4-2.87-3.35,0-4.38,5.3-5.36,5.3-8.14,0-.15-1.66,1.84-1.65,1.31.07-2.78-4-2.2-3.28-2.88,1.66-1.31,7.6-.59,7.58,3.87,0,2.36-3.34,1.47-5,4.37-.48.83-.81,1.42-.11,1.6s1-2.41,3.16-2.41c5,0,7.5,5.24,7.5,7.53,0,4.58-3.59,6-6.07,6a2.81,2.81,0,0,1-3-1.79s3.11.53,4.7-1.06l-7.17.51c6.56,2.66,4.88,13.54,8.07,14.87.27,2.13,3.46,2.39,3.55,5.59-1.07-.36-4.61-1.13-6.83,5.73C425.34,187.46,426.42,187.43,426.67,186.84Z"/></g></g></svg>