<svg xmlns="http://www.w3.org/2000/svg" viewBox="0 0 666.84 536.65"><defs><style>.cls-1{fill:#fff;}.cls-2{fill:#b91e2b;}.cls-3{fill:#fab600;}</style></defs><title>BangorLogo_vertical_colourCrest_whiteText</title><g id="Layer_2" data-name="Layer 2"><g id="Layer_1-2" data-name="Layer 1"><path class="cls-1" d="M40.22,459.86H0v-3.24H.4c3.54,0,6-.92,7.34-2.73s2.06-5.28,2.06-10.18V391.4c0-5-.66-8.46-2-10.29S4.08,378.42.4,378.42H0v-3.24H33c9.38,0,16.88,1.91,22.28,5.68s8.21,8.9,8.21,15.15c0,9-5.68,15.39-16.89,19.14a29.55,29.55,0,0,1,15.49,8.43,21.71,21.71,0,0,1,6.33,15.33,18.09,18.09,0,0,1-7.79,15.25c-5.14,3.78-12,5.7-20.4,5.7ZM22,418v24.19c0,5.33.6,9,1.78,10.91s3.41,2.77,6.74,2.77h7.17a16.06,16.06,0,0,0,12-4.77c3.08-3.17,4.64-7.49,4.64-12.84a18.22,18.22,0,0,0-6.68-14.71C43.21,419.83,37.21,418,29.81,418Zm0-4h8.53c6.12,0,11.05-1.56,14.65-4.65s5.39-7.29,5.39-12.54c0-5.52-1.77-9.87-5.28-12.92s-8.6-4.62-15.06-4.62H22v34.73Z"/><path class="cls-1" d="M181.88,459.86H150.66v-3.24h.41c4.73,0,7-1.51,7-4.61a9.09,9.09,0,0,0-.63-3.09l-7.94-23H122.36l-5.8,16.58c-1.45,4.19-2.19,7.26-2.19,9.11,0,3.3,2.11,4.95,6.43,5h.4v3.23H98.08v-3.19l.35-.05a13,13,0,0,0,7.23-3c1.71-1.58,3.48-4.92,5.27-9.95l23.89-69.18.09-.27h9.47l.09.27,25.08,72.27c1.44,4.15,2.95,6.86,4.47,8s4,1.78,7.46,1.78h.4v3.24Zm-57.64-39.92h23.23l-11.68-33.89-11.55,33.89Z"/><path class="cls-1" d="M290.17,459.24h-3.24l-.13-.15L226.31,387v57.8c0,4,.84,6.93,2.5,8.63s4.5,2.56,8.44,2.56h.4v3.24h-27V456h.4c4,0,6.76-1,8.14-3s2.14-5.74,2.14-11v-49.1c0-5.16-1-8.92-2.88-11.15s-5.13-3.56-9.57-4l-.36,0v-3.2h22.76l.12.15,53.56,64.42V391.19c0-5-.73-8.57-2.17-10.52s-4.09-2.87-8-2.87h-.4v-3.24h26.88v3.24h-.41c-4,0-6.85.91-8.38,2.72s-2.33,5.22-2.33,10.1v68.62Z"/><path class="cls-1" d="M386.37,461.93c-16,0-28.61-3.88-37.56-11.53s-13.51-17.93-13.51-30.49a48.24,48.24,0,0,1,5.91-23.79,45.11,45.11,0,0,1,39-23,55.7,55.7,0,0,1,15.51,2.45,32.5,32.5,0,0,0,8,1.48c2.3,0,3.77-.83,4.49-2.55l.11-.24h3.39V399.8h-3.18l-.05-.35A24,24,0,0,0,399,383.23a30.31,30.31,0,0,0-18.79-6.1A27.53,27.53,0,0,0,358,387.6c-5.76,7-8.67,16.12-8.67,27.17,0,12.14,3.37,22.35,10,30.34s15.1,12,25.14,12c9.49,0,14.1-2.8,14.1-8.55v-9.11c0-5-.68-8.61-2-10.59s-3.69-2.9-7.07-2.9h-3.71v-3.24h35.78V426h-.4c-3.7,0-6.36.81-7.92,2.42s-2.35,4.46-2.35,8.49v22.88l-.31.08a77.59,77.59,0,0,1-11.37,1.44c-5.51.43-9.84.65-12.89.65Z"/><path class="cls-1" d="M503.44,461.93c-12.92,0-24-4.37-32.91-13a42.7,42.7,0,0,1-13.45-31.82c0-12.5,4.5-23.07,13.38-31.44s20.09-12.58,33.34-12.58c12.86,0,23.89,4.29,32.8,12.77A41.66,41.66,0,0,1,550,417.13,42.59,42.59,0,0,1,536.48,449c-9,8.61-20.08,13-33,13Zm.66-84.8c-9.94,0-18,3.68-24,10.93s-9,17.11-9,29.21,3,22,8.9,29.46a28.35,28.35,0,0,0,23.25,11.18,28.8,28.8,0,0,0,23.58-11.43c6-7.61,9.08-17.25,9.08-28.64,0-12.24-3-22.2-8.9-29.6a28.13,28.13,0,0,0-22.95-11.11Z"/><path class="cls-1" d="M666.84,459.86H648.58l-.12-.14A166.92,166.92,0,0,1,635.24,441c-5.44-8.56-9.76-14.1-12.83-16.45a16.31,16.31,0,0,0-10.1-3.5h-6.59V443.7c0,4.85.7,8.27,2.09,10.15s3.84,2.77,7.37,2.77h.41v3.24H583.7v-3.24h.4c3.67,0,6.18-.93,7.44-2.76s2-5.3,2-10.15v-52.6c0-4.85-.65-8.23-1.92-10s-3.76-2.65-7.48-2.65h-.4v-3.24h35.83c8.78,0,15.92,2.11,21.2,6.27a19.72,19.72,0,0,1,8,16.08c0,10.21-5.81,17.18-17.27,20.73a36.19,36.19,0,0,1,7,6.29,110.89,110.89,0,0,1,9.82,14.19c4.47,7.23,8,12,10.52,14.28a12.87,12.87,0,0,0,7.68,3.6l.38,0v3.21Zm-61.12-43.13h10.2c6.2,0,11.12-1.75,14.63-5.18s5.29-8.05,5.29-13.73A17.11,17.11,0,0,0,630,384.36c-3.91-3.42-9.16-5.16-15.61-5.16h-8.65v37.53Z"/><path class="cls-1" d="M124,536.65c-3.94,0-7.09-1.16-9.36-3.46a12.45,12.45,0,0,1-3.41-9.1V506.62a8,8,0,0,0-.8-4.24c-.51-.73-1.52-1.1-3-1.1H107v-1.67h13.87v1.67h-.32c-1.53,0-2.57.36-3.08,1.08s-.81,2.16-.81,4.2v18a9,9,0,0,0,2.37,6.63,8.9,8.9,0,0,0,6.63,2.41c4.18,0,7.59-1.92,10.13-5.69V506.62a7.77,7.77,0,0,0-.8-4.16,3.38,3.38,0,0,0-2.79-1.18h-.31v-1.66h13.55v1.67h-.32a3.48,3.48,0,0,0-3,1.11c-.56.77-.84,2.19-.84,4.24v22.15a7.72,7.72,0,0,0,.83,4.2,3.45,3.45,0,0,0,3,1.12h.32v1.67h-9.65v-4.46A15.91,15.91,0,0,1,124,536.65Z"/><path class="cls-1" d="M197.75,535.77h-1.59l-.09-.11-25.36-30.22v24.07a5.05,5.05,0,0,0,1,3.55,4.75,4.75,0,0,0,3.47,1h.32v1.67H163.77V534.1h.32c1.65,0,2.77-.41,3.33-1.21s.87-2.38.87-4.56V507.54c0-2.16-.4-3.71-1.18-4.63a5.74,5.74,0,0,0-4-1.63l-.3,0v-1.64h9.87l.1.12,22.41,27V506.8c0-2.1-.3-3.56-.88-4.36s-1.67-1.16-3.26-1.16h-.32v-1.67h11.69v1.67h-.32c-1.67,0-2.82.37-3.44,1.1s-1,2.15-1,4.18v29.21Z"/><path class="cls-1" d="M234.15,535.77H220.34V534.1h.32c1.49,0,2.51-.36,3-1.08s.81-2.17.81-4.24V506.63c0-2.1-.27-3.55-.8-4.28s-1.52-1.07-3-1.07h-.32v-1.67h13.81v1.67h-.32a3.47,3.47,0,0,0-3,1.11c-.56.77-.85,2.19-.85,4.24v22.15c0,2.05.29,3.47.84,4.22a3.51,3.51,0,0,0,3,1.1h.32v1.67Z"/><path class="cls-1" d="M271.18,536.26h-1.47l-.08-.21L258.3,507.22c-1-2.6-1.94-4.26-2.67-4.92a4.69,4.69,0,0,0-3.1-1h-.31v-1.66h13.93v1.67h-.32c-2.58,0-2.88,1.18-2.88,2.07a4.56,4.56,0,0,0,.38,1.67L272,527.17l8.2-21.36a7,7,0,0,0,.5-2.33c0-1-.3-2.2-2.95-2.2h-.32v-1.67h11.31v1.73h-.32c-2.53,0-4.66,2.25-6.35,6.7l-10.8,28-.08.21Z"/><path class="cls-1" d="M329.89,535.77H303V534.1h.33c1.52,0,2.54-.37,3-1.09a7.92,7.92,0,0,0,.78-4.17V506.63c0-2.08-.27-3.52-.81-4.27a3.55,3.55,0,0,0-3-1.08H303v-1.67h27v6.58H328.7l-.06-.25a5.76,5.76,0,0,0-1.49-3.2c-.64-.51-2.1-.76-4.34-.76H312.59v14.55h9.91a4,4,0,0,0,2.63-.63,4.66,4.66,0,0,0,1-2.58l.05-.26h1.68v9.27h-1.66l-.06-.24c-.46-1.78-1-2.44-1.31-2.67s-1.24-.52-3.5-.52h-8.75v12.4a2.17,2.17,0,0,0,.5,1.64,2.82,2.82,0,0,0,1.86.46h6.39a20.13,20.13,0,0,0,4.66-.35,4.34,4.34,0,0,0,2.06-1.25,12.62,12.62,0,0,0,1.88-3.12l.09-.18h1.71l-.11.4L330,535.53l-.06.24Z"/><path class="cls-1" d="M386.69,535.77h-7.95l-.1-.11a69.54,69.54,0,0,1-5.61-8c-2.3-3.61-4.12-5.94-5.4-6.92a6.75,6.75,0,0,0-4.19-1.45H360.8v9.45a7.51,7.51,0,0,0,.86,4.21,3.53,3.53,0,0,0,3,1.11H365v1.67h-13.8V534.1h.32c1.5,0,2.52-.37,3-1.1a8,8,0,0,0,.81-4.22V506.51a7.81,7.81,0,0,0-.79-4.17c-.49-.7-1.52-1.06-3-1.06h-.32v-1.67H366.5c3.76,0,6.81.9,9.07,2.69a8.47,8.47,0,0,1,3.45,6.93c0,4.3-2.4,7.27-7.13,8.83a15.68,15.68,0,0,1,2.74,2.5,47.82,47.82,0,0,1,4.17,6,31.31,31.31,0,0,0,4.43,6,5.38,5.38,0,0,0,3.16,1.48l.3,0v1.65ZM360.8,517.2H365a8.33,8.33,0,0,0,6.09-2.15,7.62,7.62,0,0,0,2.2-5.7,7.1,7.1,0,0,0-2.43-5.59,9.55,9.55,0,0,0-6.51-2.15H360.8V517.2Z"/><path class="cls-1" d="M413.42,536.65A20.72,20.72,0,0,1,407,535.3a8.93,8.93,0,0,0-1.92-.53c-.17,0-.68,0-1.1,1.15l-.08.22h-1.64V525.9H404v.31a8,8,0,0,0,2.56,6.12,8.55,8.55,0,0,0,5.94,2.31,7.57,7.57,0,0,0,5.12-1.65,5.47,5.47,0,0,0,1.9-4.36,6.08,6.08,0,0,0-1.57-3.91c-1.08-1.28-3.37-3-6.82-5a31.62,31.62,0,0,1-5.78-4.1,10,10,0,0,1-2.18-3.37,11,11,0,0,1-.71-4,8.94,8.94,0,0,1,2.86-6.87,10.54,10.54,0,0,1,7.41-2.63,17.32,17.32,0,0,1,5.4,1,7.09,7.09,0,0,0,1.78.4c.28,0,.34-.07.34-.07a1.92,1.92,0,0,0,.28-.7l.07-.23h1.59v9h-1.7l0-.28a7.38,7.38,0,0,0-7.79-7,7.09,7.09,0,0,0-4.57,1.38,4.36,4.36,0,0,0-1.69,3.62,6.08,6.08,0,0,0,1.42,3.89c1,1.19,3.13,2.77,6.41,4.68,3.88,2.25,6.53,4.25,7.88,6a9.37,9.37,0,0,1,2.07,6,10,10,0,0,1-3.15,7.37,10.53,10.53,0,0,1-7.58,3.06Z"/><path class="cls-1" d="M457.73,535.77H443.92V534.1h.32c1.49,0,2.5-.36,3-1.08s.81-2.17.81-4.24V506.63c0-2.1-.27-3.55-.8-4.28s-1.52-1.07-3-1.07h-.32v-1.67h13.81v1.67h-.32a3.49,3.49,0,0,0-3,1.11c-.56.77-.84,2.19-.84,4.24v22.15c0,2,.28,3.46.84,4.22a3.51,3.51,0,0,0,3,1.1h.32v1.67Z"/><path class="cls-1" d="M499.36,535.77H485.77V534.1h.32c1.49,0,2.5-.38,3-1.15a7.86,7.86,0,0,0,.81-4.17V502h-5c-2.46,0-4.26.38-5.36,1.12a4.61,4.61,0,0,0-1.8,3.67l0,.29H476v-8.78h1.54l.09.08c.91.83,2.69,1.25,5.27,1.25h19.19c2.67,0,4.56-.43,5.59-1.26l.09-.07h1.59v8.78h-1.29l-.06-.25a5.76,5.76,0,0,0-2.3-3.8,10,10,0,0,0-5.12-1H495.4v27c0,2.06.25,3.45.75,4.14s1.44,1,2.89,1h.32v1.67Z"/><path class="cls-1" d="M549.76,535.77h-14V534.1h.32c1.69,0,2.81-.38,3.34-1.14a7.73,7.73,0,0,0,.83-4.18v-11.1L532.51,506a15.9,15.9,0,0,0-3.07-3.76,5.67,5.67,0,0,0-3.19-.94h-.31v-1.66h15v1.67h-.32c-2.29,0-3.45.45-3.45,1.35a3.36,3.36,0,0,0,.69,1.69l7,10.36,5.53-8.51a6.46,6.46,0,0,0,1.23-3.24c0-.71-.22-1.65-2.1-1.65h-.32v-1.67H559.8v1.65l-.3,0a6,6,0,0,0-3,.81,11.58,11.58,0,0,0-2.6,3.07l-8.19,12.52v11.1c0,2.09.27,3.52.8,4.26a3.42,3.42,0,0,0,2.91,1.06h.32v1.67Z"/><path class="cls-1" d="M141.42,341.29H127.61v-1.67h.33a3.4,3.4,0,0,0,3-1.14,7.37,7.37,0,0,0,.83-4.05V312.15a7.79,7.79,0,0,0-.83-4.24,3.48,3.48,0,0,0-3-1.11h-.33v-1.67h13.68c4.41,0,8,1,10.56,2.88a9,9,0,0,1,4,7.52,8.2,8.2,0,0,1-3.47,7.07c-2.27,1.61-5.56,2.43-9.76,2.43a51.79,51.79,0,0,1-5.3-.32v9.59c0,2.06.28,3.49.83,4.24a3.51,3.51,0,0,0,3,1.08h.32v1.67Zm-4.15-18.78a15,15,0,0,0,4.2.52,9.4,9.4,0,0,0,6.3-2,6.79,6.79,0,0,0,2.27-5.4,8.52,8.52,0,0,0-2.28-6.11,8.25,8.25,0,0,0-6.29-2.4h-4.2v15.37Z"/><path class="cls-1" d="M209.19,341.29h-7.95l-.1-.11a70.54,70.54,0,0,1-5.61-7.95c-2.3-3.61-4.11-5.94-5.4-6.93a6.78,6.78,0,0,0-4.18-1.45h-2.64v9.45c0,2,.28,3.44.85,4.21a3.53,3.53,0,0,0,3,1.11h.32v1.67h-13.8v-1.67H174c1.5,0,2.52-.37,3-1.1a8,8,0,0,0,.8-4.21V312a7.81,7.81,0,0,0-.79-4.17c-.5-.7-1.52-1.06-3-1.06h-.32v-1.67H189a14.3,14.3,0,0,1,9.08,2.69,8.49,8.49,0,0,1,3.44,6.93c0,4.3-2.4,7.27-7.13,8.82a16.29,16.29,0,0,1,2.74,2.52,47.85,47.85,0,0,1,4.17,6,29.7,29.7,0,0,0,4.43,6,5.25,5.25,0,0,0,3.16,1.49l.3,0v1.65Zm-25.88-18.57h4.16a8.41,8.41,0,0,0,6.1-2.14,7.69,7.69,0,0,0,2.19-5.71,7.13,7.13,0,0,0-2.43-5.59,9.6,9.6,0,0,0-6.51-2.14h-3.51v15.58Z"/><path class="cls-1" d="M240.63,341.29H226.82v-1.67h.32c1.49,0,2.5-.36,3-1.08s.82-2.17.82-4.23V312.15c0-2.1-.27-3.54-.8-4.28s-1.53-1.07-3-1.07h-.32v-1.67h13.81v1.67h-.33a3.51,3.51,0,0,0-3,1.11c-.56.77-.84,2.2-.84,4.24v22.16c0,2,.28,3.46.84,4.21a3.49,3.49,0,0,0,3,1.1h.33v1.67Z"/><path class="cls-1" d="M276,341.29h-13.8v-1.67h.32a3.51,3.51,0,0,0,3-1.09c.55-.76.83-2.18.83-4.22V312.15c0-2.07-.28-3.5-.82-4.25s-1.52-1.1-3-1.1h-.32v-1.67H287.9v6.94h-1.42l-.06-.25a7,7,0,0,0-1.46-3.53c-.4-.36-1.45-.79-4.18-.79h-9v14.23H281a3.58,3.58,0,0,0,2.64-.86,5.35,5.35,0,0,0,1.13-3.07l0-.29h1.61v10.64h-1.63l0-.31c-.11-2.5-1.31-3.71-3.64-3.71h-9.34V334.3c0,2.05.28,3.47.84,4.22a3.53,3.53,0,0,0,3,1.1H276v1.67Z"/><path class="cls-1" d="M329.78,341.29h-14v-1.67h.32c1.69,0,2.81-.38,3.34-1.14a7.68,7.68,0,0,0,.83-4.18V323.21l-7.74-11.71a16.12,16.12,0,0,0-3.08-3.76,5.64,5.64,0,0,0-3.19-.94H306v-1.66h14.95v1.67h-.32c-2.29,0-3.45.45-3.45,1.35a3.36,3.36,0,0,0,.69,1.69l7,10.36,5.53-8.51a6.43,6.43,0,0,0,1.22-3.24c0-.71-.21-1.65-2.1-1.65h-.32v-1.67h10.69v1.65l-.3,0a6.08,6.08,0,0,0-3,.81,11.55,11.55,0,0,0-2.61,3.07l-8.18,12.52v11.1c0,2.08.27,3.52.8,4.26a3.38,3.38,0,0,0,2.9,1.06h.32v1.67Z"/><path class="cls-1" d="M366,342.17a20.66,20.66,0,0,1-6.46-1.35,8.12,8.12,0,0,0-1.92-.53c-.45,0-.82.39-1.09,1.16l-.08.21h-1.64V331.41h1.73v.32a8,8,0,0,0,2.56,6.13,8.58,8.58,0,0,0,5.93,2.31,7.67,7.67,0,0,0,5.13-1.65,5.42,5.42,0,0,0,1.89-4.37,6,6,0,0,0-1.57-3.91c-1.07-1.28-3.36-3-6.81-5a30.33,30.33,0,0,1-5.78-4.1,10.13,10.13,0,0,1-2.19-3.37,11,11,0,0,1-.7-4,8.9,8.9,0,0,1,2.86-6.86,10.52,10.52,0,0,1,7.41-2.64,17.41,17.41,0,0,1,5.4,1,7,7,0,0,0,1.77.4c.28,0,.35-.06.35-.06a2.51,2.51,0,0,0,.28-.7l.06-.24h1.6v9H373l0-.28a7.36,7.36,0,0,0-7.79-7,7.09,7.09,0,0,0-4.57,1.38,4.4,4.4,0,0,0-1.69,3.63,6,6,0,0,0,1.43,3.88c1,1.19,3.12,2.77,6.4,4.68,3.89,2.25,6.54,4.26,7.89,5.95a9.38,9.38,0,0,1,2.06,6,10,10,0,0,1-3.15,7.37,10.49,10.49,0,0,1-7.57,3.06Z"/><path class="cls-1" d="M417.88,342.17c-6.8,0-12.19-1.65-16-4.92a16.37,16.37,0,0,1-5.77-13,20.59,20.59,0,0,1,2.52-10.15,19.25,19.25,0,0,1,16.64-9.83,23.85,23.85,0,0,1,6.61,1,13.16,13.16,0,0,0,3.34.62,1.69,1.69,0,0,0,1.76-1l.09-.19h1.69v11.12h-1.64l0-.28a10,10,0,0,0-3.95-6.77,12.73,12.73,0,0,0-7.87-2.55,11.51,11.51,0,0,0-9.26,4.38c-2.42,2.92-3.64,6.76-3.64,11.4a19.38,19.38,0,0,0,4.21,12.76,13.18,13.18,0,0,0,10.53,5c3.92,0,5.82-1.13,5.82-3.47v-3.85a8.35,8.35,0,0,0-.83-4.4,3.23,3.23,0,0,0-2.87-1.17H417.5v-1.67H433v1.67h-.32a4.42,4.42,0,0,0-3.24,1,5,5,0,0,0-1,3.49v9.81l-.24.06a32.52,32.52,0,0,1-4.84.62c-2.34.18-4.18.27-5.47.27Z"/><path class="cls-1" d="M470.87,342.17a19.52,19.52,0,0,1-14-5.54,18.21,18.21,0,0,1-5.74-13.58,17.76,17.76,0,0,1,5.71-13.43A20,20,0,0,1,471,304.25a19.64,19.64,0,0,1,14,5.45,17.81,17.81,0,0,1,5.73,13.35A18.16,18.16,0,0,1,485,336.63a19.64,19.64,0,0,1-14.1,5.54Zm.28-35.91a12.38,12.38,0,0,0-10,4.57c-2.51,3.06-3.78,7.19-3.78,12.28s1.26,9.25,3.74,12.38a11.88,11.88,0,0,0,9.73,4.68,12,12,0,0,0,9.87-4.79,18.84,18.84,0,0,0,3.81-12c0-5.15-1.26-9.34-3.73-12.44a11.78,11.78,0,0,0-9.61-4.65Z"/><path class="cls-1" d="M536.8,341.3H509.72v-1.68H510A3.32,3.32,0,0,0,513,338.4a8.09,8.09,0,0,0,.89-4.4V311.63a6.45,6.45,0,0,0-.83-3.82,3.65,3.65,0,0,0-3-1h-.32v-1.67h13.74v1.67h-.32a3.33,3.33,0,0,0-2.88,1.17,7.33,7.33,0,0,0-.88,4.11v23.74a3.19,3.19,0,0,0,.74,2.46,5.13,5.13,0,0,0,3.08.64h7.27c2.16,0,3.68-.35,4.5-1.06s1.66-2.3,2.43-4.73l.07-.23h1.76l-.12.41-2.25,7.75-.06.24Z"/><path class="cls-1" d="M333.43,263.39c-24.64,0-52.78-11.54-75.28-30.87-24.16-20.76-38-47.36-38-73V0h226.6V159.52c0,25.63-13.86,52.24-38,73-22.5,19.33-50.64,30.87-75.28,30.87Z"/><path d="M333.43,259.11c23.65,0,50.75-11.15,72.49-29.82,23.22-20,36.54-45.38,36.54-69.77V4.27H224.4V159.52c0,24.39,13.32,49.81,36.54,69.77,21.74,18.67,48.84,29.82,72.49,29.82Z"/><rect class="cls-2" x="371.54" y="8.36" width="66.77" height="107.71"/><path class="cls-2" d="M228.43,119.62h66.84V246.26c-35.16-15.49-66.84-49.61-66.84-86.74Z"/><rect class="cls-3" x="228.49" y="8.36" width="66.77" height="107.71"/><path class="cls-3" d="M371.54,119.62V246.26c35.15-15.49,66.83-49.61,66.83-86.74v-39.9Z"/><path class="cls-1" d="M338.93,233c.26,0,1.52-.73,1.52-2.8a2.52,2.52,0,0,0-2.63-2.75c-1.64,0-2,1.23-2,2.26C335.83,232.39,338.89,233,338.93,233ZM326,235.52a10,10,0,0,0-1.87-.74,3.15,3.15,0,0,0-2.08,3.05c0,2.46,1.22,3.75,3.53,3.75,2.09,0,2.53-1.54,2.53-2.84A3.06,3.06,0,0,0,326,235.52Zm.17-2.55c.27,0,1.52-.73,1.52-2.8a2.52,2.52,0,0,0-2.62-2.75c-1.65,0-2,1.23-2,2.26C323.12,232.39,326.18,233,326.21,233Zm21.7,3.29c0,.21,0,.24.61.24h3.54c.18,0,.22,0,.22,0a1.24,1.24,0,0,0,0-.38v-7.48a48.63,48.63,0,0,0-2.79,4.44A13.73,13.73,0,0,0,347.91,236.26ZM368,8.52V8.36H298.81v.16h-.18V247.65a100.33,100.33,0,0,0,26.84,6.94,69.21,69.21,0,0,0,27.7-2.06A108.12,108.12,0,0,0,368,247.75v-.29l.24-.1V8.52ZM317.48,242.84h-7.71v-1l.2-.05,1.7-.45c.7-.18.7-.22.7-.89V229.21c0-.86,0-.89-.74-.91l-2,0h-.22l0-.22-.1-.49,0-.24.23-.07,4.71-1.4.13,0,.11.08.29.22.11.08v14.38c0,.5,0,.64.78.82l1.7.41.2.06Zm7.33.32c-3.07,0-4.91-1.86-4.91-5a4.12,4.12,0,0,1,2.44-3.85,2.28,2.28,0,0,0,.49-.34h0a1.14,1.14,0,0,1-.33-.17,3.59,3.59,0,0,1-1.86-3.55c0-2.92,2.52-4.44,5-4.44,2.76,0,4.28,1.47,4.28,4.15a3.88,3.88,0,0,1-2.09,3.39c-.08.06-.19.12-.26.18.1.06.27.13.41.2a3.89,3.89,0,0,1,2.65,3.94C330.63,241.07,328.4,243.16,324.81,243.16Zm12.72,0c-3.08,0-4.91-1.85-4.91-5a4.12,4.12,0,0,1,2.43-3.85,2.28,2.28,0,0,0,.49-.34h0a1.52,1.52,0,0,1-.32-.16,3.61,3.61,0,0,1-1.87-3.56c0-2.91,2.52-4.44,5-4.44,2.75,0,4.27,1.47,4.27,4.15a3.86,3.86,0,0,1-2.09,3.39l-.25.18c.1.06.26.13.41.2a3.89,3.89,0,0,1,2.64,3.93C343.34,241.07,341.11,243.15,337.53,243.15Zm20-6-.89,1.22-.08.11H355a.58.58,0,0,0-.23,0s0,.12,0,.3v1.67c0,.84,0,.84.68,1l1.11.31.19.06v1h-6.3v-1l.19-.05,1.3-.4c.4-.1.4-.1.4-.92v-1.62a1.32,1.32,0,0,0,0-.4h0a1.52,1.52,0,0,0-.27,0h-6.34l-.07-.06-.2-.17-.12-.11,0-.16.42-1.67c.37-.62.72-1.23,1.1-1.89.52-.89,1.1-1.9,1.78-3,1.53-2.34,2.85-4.21,3.32-4.84l.05-.07.09,0,2.09-.64.13,0,.11.09.22.17.11.08v9.93a1.67,1.67,0,0,0,0,.4h2.55l.08.11.15.2.13.15Zm-18.8-1.61a10.83,10.83,0,0,0-1.87-.74,3.14,3.14,0,0,0-2.09,3.05c0,2.46,1.22,3.76,3.53,3.76,2.1,0,2.54-1.55,2.54-2.85A3.07,3.07,0,0,0,338.76,235.52Z"/><path d="M388.38,52.28c-.1,1.67-1.13.21-1.13.21a9.41,9.41,0,0,1-2.61-6.16c.76-.46,1.11-2.07,1.41-2.22s2.42-1.17,2.42-2.22-3-7.63-3-10.1L383,35.32l-2-3.43L379.44,36l-1.61-1.92s-.79,5.92-.5,7c.77,2.89,2.06,2.55,2.06,3.56,0,1.56-2.74,2.72-2.74,2.72.31.83,1.87,8.34,3,12,1.3,4.14,2.21,4.5,3.07,6.27.7,1.44,1,4.64,2.73,4.64s6.41-1.72,6.41-1.72c-1.57,1.52-2.27,16.81-4.8,16.81-1.71,0-6.05.13-6.05.13a34.3,34.3,0,0,0-3.44,9l3.74-2.16-1.11,5.9,4.54-3.38,1.87,5.8,1.66-2.72s-.41-1.3,1-3.13c1.21-1.62,3.08-4.29,3.08-4.29l2.32.6a5.22,5.22,0,0,0,.91-3.53l.67-.16.72-1.58,1-2.83c.36-.87,4.3-11.07,5.49-14.16a8.29,8.29,0,0,0,.73-3.32,9.25,9.25,0,0,1-.24-2.13,7.17,7.17,0,0,1,2.38-4.24v.08a1.23,1.23,0,0,0,1.21,1.36,1.64,1.64,0,0,0,1-.38,4.55,4.55,0,0,1,2.91-.88l.59,0c-1.65.64-3.65,2.63-3.65,6.38,0,2.64,1.1,5.59,1.9,7.75.24.61.51,1.35.63,1.79l-.4.31c-1.66,1.28-3.33,2.64-3.9,4l0,.07c-2.54.41-5.1.7-5.1.7L397.6,87.2l2.43-.8-2.32,5.15,4.64-1.92s-1.06,3.53,0,4.85c.15-.12,1.66-1.17,1.66-1.17a12.1,12.1,0,0,1,1.28-2.37l3.37-3.43.71,1.77c3.49-1.74,9.91-10,10.09-11.41,0-1.41-2.52-3.63-2.52-6.91a3.88,3.88,0,0,1,.76-2.68c0,2.32,5.55,7.57,6.05,9-1.26.71-3.68,8-4,9a62.36,62.36,0,0,0-6.3,1.19,17.63,17.63,0,0,0-3.9,7.14l4.24-.86-.73,5,1.88-.39s1.77-3,4.71-3.11l2.62,4.34,1.77-2s.2-5.6,1.16-6.25l2.07.8C433,88,433.78,73,433,72.5c-.49-.29-.69.3-2.17-1.57-2.42-3.07-2.05-10-4.34-12.43,0,0,.24-.21,1.3-.21A6.09,6.09,0,0,0,432.94,52a8.81,8.81,0,0,0-4.89-8.12,5.24,5.24,0,0,0,.55-2.38c0-4.44-4.91-4.45-5-5.1,2.38-.5,4.86-3.24,5-5.25.55-5.69-5.82-8.91-8.53-6.2.86.75,2.93,1.61,2.93,3.73,0,3.64-4,5.5-4,5.5a7.82,7.82,0,0,0,.71-3.18,4.59,4.59,0,0,0-4.85-4.79A6.06,6.06,0,0,0,409,30.43c1.21,0,5-.41,5,1.86,0,2.88-4.84,4.6-4.84,9.34s4.15,8.22,8.83,8.53c1.25.09,1.47.17,2.37.17s1.48,1.09,3.44,1.09c2.42,0,3-1.11,3.78-1.11s.81.81.81,1.26.15,1.67-2.83,1.67c-3.18,0-8.88-1.61-14-1.61-4.05,0-4.59.07-4.82.36a6.89,6.89,0,0,0,.88-2.77c-1-.48-1.76-3.15-2.27-3.15,4.35-3.94,3.72-7.39,3.76-8.18-.3-1-.93-1.15-2-1.15a3,3,0,0,0-1.67.45,21.87,21.87,0,0,0-.88-5c-1.4-2.12-8.28-3.55-10.94.5,0,0-1,2.45-1.4,3.21a3.2,3.2,0,0,0-3.34.24s.09,1.08.11,1.88-.15,1.71-.15,2.62,1.86,4.24,1.86,4.24c-1.05,1.56-4.68,3.28-4.68,3.28A15,15,0,0,1,388.38,52.28Z"/><path class="cls-3" d="M389.61,51.48c.46-.37,1.72-2.33,2.94-2.33-.1.71-1.93,2.23-2.54,3.45s.41,2.44.92,3.35c-.1-.81,1.82-2.13,2.43-2.84s1.11-.47.71.41c-.51,1.11-2.1,2.27-2.13,3.95a2.48,2.48,0,0,0,1.52,2s.31-2.94,1.53-2.13c.49.33-1.93,4.87,0,6.6.3-1.32,3.24-3.55,3.24-4.16s-1-2.64,0-2.64c.61,0,1.12,1.82,1.53,1.82s1.21-.4,1.21-1.11-1.82-3.76-.7-3.76c.51,0,1.72,2,2,2s.61-.2.92-1.82-1.42-2.24-.81-3.86a6.08,6.08,0,0,1,2.13,1.72c.51.92,1.52-1.62,1.62-2.43-.31-.37-.67-1.67-1.22-2.44s-1.21-.92-1.21-1.11c0-.41.61-.51,2.64-2.74a7,7,0,0,0,1.72-5.18c-1.22-1.12-2.23.51-3.25,0s-.5-3.66-.81-4.77c0,0-1.32,2.13-1.62,1.83s.1-1.22.4-2.24-1.42-1.52-1.42-1.52-.41,2.13-1.11,2-.51-2.13-.51-2.13a1.1,1.1,0,0,0-1.73.91c-.36,2-1.32.31-1.82-.61-.72.31-.41,2.64-.41,3.45s-1.42-.71-2.13-1c.2.71-.61,1.77-.61,2.58s-2.64-.45-3.25.16a12.52,12.52,0,0,0,.13,4.34c.66,1.87,1.71,2.7,1.71,3.81s-1.62,1.56-4.55,3.4C388.44,48.71,388.49,52.4,389.61,51.48Zm9.92-14.89c.52.73,1.78,1.65,2.71.86.39.13.52.26.06.79s-.46,1.86-1.38,1.79c-1.59-.14-.93-2.45-1.53-3Zm-1.66-.2.2.46c-.46.13-.53,2.65-1.72,2.65-1.45,0-.33-1.79-1.45-2.12A6.5,6.5,0,0,0,397.87,36.39ZM391.33,40c0-1.53,1.13-1.66,1.46-1.66.85,0,.79,2.58,1.18,3.18s1.52.33,1.72.72c-.33.53-1.45,1.19-1.45,2a1.08,1.08,0,0,0,1.06,1.06c.46,0,2.44-.54,2.44-1.72,0-.6-.45-.92-.66-1.33s-.16-.89-.33-1c.79-.06,1.59-.33,2.18-.33s.66.4.66.93-1.12.92-1.12,1.45,1.45,1.92,1.92,1.92,1.52-.4,1.52-1.13-.43-1.62,0-2c.26-.26.86.27.86.27.89-.89,1.45-2.71,3.24-2.91,1.78,3.11-1.92,4.3-1.92,4.3l-1.46-.6c.57,1.8-1,2.41-.92,3.11.14,2-.26,2.63-1,3.31-.46-.14-1.46-.2-1.52.19.92,1.66-1.85,3.44-1.52,4.17A25.41,25.41,0,0,1,396,51.26c-.33-.39.29-1-.06-1.91-.2-.53-1.39.06-1.52-.86s.17-2.86-.95-3.52C393.49,43.05,391.33,41.81,391.33,40Zm29.59,7c0,1.35.67,3.31,2.76,3.31,2.42,0,2.51-1.14,3.86-1.14s2,1.1,2,2.37-.66,2.76-3.95,2.76c-5.83,0-7.36-1.59-14.32-1.59-6.58,0-6,2.62-10.26,6.85s-7.57,7.35-7.57,7.35l.26.67c-2,2.12-3,12.51-4.06,16.14S383,88.91,383,88.91l-1.26,7,2.7-2.37a9.1,9.1,0,0,1-.26-2c-.08-1.53,4.14-4.65,6.17-5.92-.34,1.94-5.07,5.75-5.07,5.75a11.36,11.36,0,0,1,.51,2.7,18.52,18.52,0,0,0,1.1,4.06l.26-.43a9.48,9.48,0,0,1,.46-2.21c.68-1.35,4.18-6.07,4.18-6.07l2.28.34c1.18-1.86-.42-3.63-.84-4.73.92-.93,1.43-.42,2.53.59.85-2,.08-2.2-.59-3.8s.59-1.27,2.36-.34c.68-1.1.51-2-.5-4.31s1.18-1.18,2.19-.42c.76-1.18.43-1.44-.5-3.8s.5-2,2.11-.85c1-2.7.17-2.19-.51-4s1-1.6,2.28-.51c1.19-1.09.2-1.49.2-4.28,0-2,2.38-5.92,6.52-7.44,1.43,1.44-1.9,1.67-1.9,3.27,0,.93.68-1,4-1s3.47,1.61,4.31,1.61.08-2.37.08-2.37c3.89,0,2.54,3.8,2.54,8.53s6.5,9.21,6.67,11.83c-2.34,1.41-3,7.37-5.1,10.63-1.18,1.31-2.63,1.45-4.11,2.05l-1.43,6c1.18-1.27,4.22-2.12,4.22-2.12-1.43-2.87.43-3.63,1.18-4.31s4-4.81,4-4.81l.5.51s-1.6,4.56-4.14,5.74c-.67,1.44,1.69,5.24,2.28,6.17A4.31,4.31,0,0,1,423,97s.26-5.1,1.06-6,1.18-.93,3-.25c.76-.77.33-2.79-.34-4.06.76-1.44,1.94,1.4,2.32.9,1.35-1.82-1.22-3.27-.38-5,0,0,1.42,1.34,1.78,1.1s.17-1.27-.17-2.2c-1.77-4.21.89-1.43,1.18-1.6.59-.37-.08-3.08-.84-3.76-.42,1.18-3,5.78-4.31,9-.24.57-1.52.76.25-4.73,2.11-6.53,4.48-5.49,5.49-5.15-.08-3-3.12-3.3-3.38-5.32-3-1.27-.5-11.66-6.76-14.2l7.86-.59c-1.52,1.52-4.48,1-4.48,1s0,.93,2.37.93,4.25-2.2,4.25-5.15c0-2.19-2.63-6.92-5.15-6.92-2.1,0-3,3.21-3.46,3-1.25-.63-.38-1.18.08-2,1.6-2.77,4.26-2.14,4.26-4.4,0-4.24-5.44-4.4-6.22-3.61s2.51,0,2.44,2.7c0,.5,1.58-1.39,1.58-1.25C425.34,41.37,420.92,42.86,420.92,47Zm-6-1.74c.61,1.1,5.6.79,5.6-3.86,0-2.44-2.06-3-2.06-3.64,0-1.69,9.13-2.37,9.13-6.76a6.86,6.86,0,0,0-.68-3.38s.17,3.46-.93,3.46c-1.69,0-.17-2-.17-3,0-3.72-4-2.87-4-2.87s2.37.08,2.37,3.8c0,4.73-6.93,7.61-7.44,7.1s1.86-2.11,1.86-4.73c0-1.27-.5-4-3.21-4-3.21,0-5.32,2.19-4.06,2s3.81.68,3.81,2.88c0,3.72-4.9,4.64-4.9,9.38,0,5.91,6,7.35,7.86,7.35a5.38,5.38,0,0,0,2.28-.26,3.68,3.68,0,0,1-.34-1.86,7.71,7.71,0,0,1-2.2.34c-4.56,0-5.07-3.46-5.07-4.65s1.2-3.49,3-3.29C419.7,39.73,417.36,44,414.89,45.29ZM410.49,84c.59-.76,1.52,1.85,1.52,1.85,2.37-2.11-.25-3.25.51-3.88,1-.85,2.7.5,2.7.5,1.27-1.09-.71-2.24-.17-3,1.1-1.44,1.44-.09,2.2-.42s1.61-1,.76-2.12-3.55-5.91-1.18-9.46A3,3,0,0,0,415,69.31c-.34,1.26.93,7.68.93,8.61L409,83.84s-.51-.51.42-1.69a65,65,0,0,1,5.33-4.82c-1.1-1.43.5-5.07-1.69-6.42-.6-.25-2.25-.75-.85-1.77.93-.68,2.45-.34,2.45-3.38a3.14,3.14,0,0,0-2.79-3.3c.34-.93,2.79-.67,3.47-1.6-1.27-.6-1.27-.68-2.2-.68s-3.63,1.35-3.63,5.49,3.08,9.51,2.53,10.06-3.72,2.61-4.39,4.22-4.4,4-4.4,4l-3.54,5.81L402,88.4s.87-2.83,2.26-3.67c2-1.18,3.81-3.29,4.11-3s-1.55,2.84-3.5,3.85c-.59,1.18-2,5.49-1.86,6.42,0,0,4.23-5.07,5.41-5.57s1.61,1,1.61,1C411.67,86.29,409.9,84.77,410.49,84Zm-8.06-1.42c.76-.67,2.4-1,3.33-1.88l-3.92,1-2.37,3.65,1.88-.79A4.49,4.49,0,0,1,402.43,82.59Zm-19.62,5.3a20.62,20.62,0,0,0,4-1.48c-1.87.19-5,.19-5,.19l-2.74,5.74,2.7-1.52S381.79,88.22,382.81,87.89Zm-4-36.16c-.05,2.06,2.62,3,2.79,4s-2.07-.64-2-.34c.37,2.83,2.71,3.12,3.55,4.65.5.93-2.17-.36-2.12-.08.58,3.3,4,2,4.65,4.22.34,1.21-2.16-.69-2.24.38-.05.7,1.31,4.44,2.07,4.61s3.21-.77,4.31-1.19,3.21-.84,3.47-1.86c-1.19-1.86-4.31-6.16-4.74-10.13-2.45-2.62-4.9-6.43-4.9-9.55a18.22,18.22,0,0,1,.93-5.66l-3.46-6.51-.68,3s3.21,3,3.13,4-.93,4.14-.93,4.14c-.59.85-.42-4-.42-4l-3.72-4.73a26.84,26.84,0,0,0,0,4.08c.39,1.82,2.07,2.68,2.07,3.77a5.52,5.52,0,0,1-2.2,3.38c-.17,1.35,2.45,2.71,2.54,3.89C380.24,52.49,378.82,51.2,378.81,51.73ZM385,43.81c.52-.92,2.56-1.32,2.5-2.17S385,35.46,385,34.15l-1.51,2.76s2.23,3.15,2.23,4.21S384.82,42.43,385,43.81Zm34.44,43.65c-2.42.45-5.65,1.18-5.65,1.18L411,93.2l3.29-.7c.29-1.56.47-2.44,1.18-3.07C416.81,88.22,419,88.15,419.39,87.46Z"/><path d="M246.57,150.46c-.1,1.67-1.13.2-1.13.2a9.37,9.37,0,0,1-2.61-6.16c.76-.45,1.11-2.07,1.42-2.22s2.42-1.16,2.42-2.22-3-7.62-3-10.09l-2.52,3.53-2-3.43-1.57,4.09L236,132.24s-.79,5.92-.5,7c.77,2.89,2.06,2.55,2.06,3.56,0,1.56-2.74,2.72-2.74,2.72.32.83,1.87,8.33,3,12,1.29,4.14,2.21,4.5,3.06,6.26.71,1.45,1,4.65,2.73,4.65s6.41-1.72,6.41-1.72c-1.57,1.51-2.27,16.81-4.8,16.81-1.71,0-6.05.12-6.05.12a34.1,34.1,0,0,0-3.43,9l3.73-2.17-1.11,5.91,4.54-3.38,1.87,5.8,1.67-2.73s-.42-1.29,1-3.12c1.21-1.62,3.07-4.29,3.07-4.29l2.33.6a5.2,5.2,0,0,0,.9-3.53l.67-.17.72-1.58,1-2.82c.37-.87,4.31-11.08,5.49-14.16a8.13,8.13,0,0,0,.73-3.32,9.25,9.25,0,0,1-.24-2.13,7.16,7.16,0,0,1,2.39-4.25.25.25,0,0,0,0,.08,1.23,1.23,0,0,0,1.21,1.37,1.58,1.58,0,0,0,1-.39,4.62,4.62,0,0,1,2.91-.87,5.53,5.53,0,0,1,.59,0c-1.65.63-3.65,2.62-3.65,6.38,0,2.64,1.1,5.59,1.91,7.74.23.62.5,1.36.63,1.79l-.41.32c-1.66,1.28-3.33,2.64-3.9,4l0,.08c-2.55.4-5.11.7-5.11.7l-3.85,6.9,2.44-.79-2.33,5.15,4.65-1.92s-1.06,3.53,0,4.84c.14-.11,1.65-1.16,1.65-1.16a11.82,11.82,0,0,1,1.28-2.37c.5-.49,3.38-3.43,3.38-3.43l.7,1.76c3.49-1.73,9.91-9.95,10.1-11.4,0-1.42-2.53-3.64-2.53-6.92a3.86,3.86,0,0,1,.76-2.67c0,2.32,5.55,7.57,6.06,9-1.26.71-3.69,8-4,9a62.08,62.08,0,0,0-6.29,1.19,17.51,17.51,0,0,0-3.91,7.13L272,192l-.73,5,1.88-.39s1.77-3,4.71-3.11l2.62,4.34,1.77-2s.2-5.6,1.16-6.26l2.07.81c5.71-4.17,6.49-19.18,5.71-19.65-.49-.29-.69.3-2.17-1.58-2.42-3.06-2-10-4.34-12.42,0,0,.25-.21,1.31-.21a6.07,6.07,0,0,0,5.14-6.26,8.81,8.81,0,0,0-4.88-8.12,5.36,5.36,0,0,0,.54-2.38c0-4.44-4.9-4.45-5-5.1,2.37-.5,4.85-3.24,5-5.25.56-5.7-5.82-8.91-8.53-6.21.86.76,2.93,1.62,2.93,3.74,0,3.63-4,5.5-4,5.5a7.82,7.82,0,0,0,.71-3.18,4.58,4.58,0,0,0-4.84-4.79,6.06,6.06,0,0,0-6,4.19c1.21,0,5-.41,5,1.86,0,2.88-4.85,4.59-4.85,9.34s4.15,8.22,8.83,8.53c1.25.08,1.47.16,2.37.16s1.49,1.1,3.44,1.1c2.42,0,3-1.11,3.78-1.11s.81.81.81,1.26.15,1.67-2.83,1.67c-3.18,0-8.88-1.62-14-1.62-4,0-4.59.08-4.82.37a6.89,6.89,0,0,0,.88-2.77c-.95-.49-1.76-3.15-2.27-3.15,4.35-3.94,3.72-7.4,3.76-8.18-.29-1-.93-1.16-2-1.16a2.88,2.88,0,0,0-1.66.46,21.94,21.94,0,0,0-.89-5c-1.4-2.12-8.28-3.55-10.94.49,0,0-1,2.46-1.4,3.22a3.18,3.18,0,0,0-3.33.24s.08,1.08.1,1.88c0,.65-.15,1.71-.15,2.62s1.87,4.24,1.87,4.24c-1.06,1.56-4.69,3.28-4.69,3.28A14.74,14.74,0,0,1,246.57,150.46Z"/><path class="cls-3" d="M247.8,149.66c.46-.37,1.73-2.33,2.94-2.33-.1.71-1.93,2.23-2.53,3.45s.4,2.43.91,3.35c-.1-.81,1.83-2.13,2.43-2.84s1.11-.47.72.4c-.51,1.12-2.11,2.28-2.13,4a2.45,2.45,0,0,0,1.52,2s.3-2.94,1.52-2.13c.49.33-1.93,4.87,0,6.6.3-1.32,3.25-3.56,3.25-4.17s-1-2.63,0-2.63c.61,0,1.11,1.82,1.52,1.82s1.22-.4,1.22-1.11-1.83-3.76-.71-3.76c.52,0,1.72,2,2,2s.61-.2.91-1.83-1.42-2.23-.81-3.85a6.08,6.08,0,0,1,2.13,1.72c.51.92,1.52-1.62,1.62-2.43-.31-.37-.67-1.67-1.21-2.44s-1.22-.92-1.22-1.12c0-.4.61-.5,2.64-2.74a6.88,6.88,0,0,0,1.72-5.17c-1.21-1.12-2.23.5-3.24,0s-.51-3.66-.82-4.78c0,0-1.32,2.14-1.62,1.83s.1-1.22.4-2.23-1.42-1.52-1.42-1.52-.4,2.13-1.11,2-.51-2.13-.51-2.13a1.1,1.1,0,0,0-1.73.91c-.36,2-1.32.3-1.82-.61-.71.3-.41,2.64-.41,3.45s-1.42-.71-2.13-1c.2.71-.6,1.77-.6,2.58s-2.65-.45-3.26.16a12.78,12.78,0,0,0,.13,4.34c.66,1.87,1.71,2.7,1.71,3.81s-1.61,1.55-4.54,3.4C246.63,146.89,246.68,150.58,247.8,149.66Zm9.92-14.89c.53.72,1.79,1.65,2.71.86.4.13.53.26.07.79s-.47,1.86-1.39,1.78c-1.59-.13-.93-2.44-1.52-3Zm-1.65-.2.2.46c-.47.13-.53,2.64-1.72,2.64-1.46,0-.33-1.78-1.46-2.11A6.53,6.53,0,0,0,256.07,134.57Zm-6.55,3.63a1.44,1.44,0,0,1,1.46-1.65c.86,0,.79,2.58,1.19,3.17s1.52.34,1.72.73c-.33.53-1.46,1.19-1.46,2a1.07,1.07,0,0,0,1.06,1.06c.46,0,2.45-.53,2.45-1.72,0-.59-.46-.91-.67-1.32s-.16-.89-.33-1c.8-.07,1.59-.33,2.18-.33s.67.4.67.92-1.13.93-1.13,1.46,1.46,1.92,1.92,1.92,1.52-.4,1.52-1.13-.43-1.62,0-2.05c.27-.26.86.27.86.27.89-.9,1.45-2.71,3.24-2.91,1.78,3.11-1.92,4.3-1.92,4.3l-1.45-.6c.56,1.8-1,2.41-.93,3.11.14,2-.26,2.63-1,3.3-.46-.13-1.45-.2-1.52.2.92,1.65-1.85,3.44-1.52,4.17a25.37,25.37,0,0,1-1.65-2.65c-.33-.39.28-1-.07-1.92-.2-.52-1.39.07-1.52-.86s.17-2.85-.95-3.52C251.68,141.23,249.52,140,249.52,138.2Zm29.6,7c0,1.36.67,3.32,2.76,3.32,2.41,0,2.5-1.14,3.86-1.14s2,1.1,2,2.36-.66,2.77-3.95,2.77c-5.83,0-7.36-1.59-14.32-1.59-6.58,0-6,2.62-10.26,6.84s-7.56,7.36-7.56,7.36l.25.67c-2,2.11-3,12.51-4.06,16.14s-6.59,5.15-6.59,5.15l-1.26,7,2.7-2.37a9.08,9.08,0,0,1-.25-2c-.09-1.52,4.14-4.64,6.16-5.91-.33,1.94-5.07,5.74-5.07,5.74a11.51,11.51,0,0,1,.51,2.71,19.17,19.17,0,0,0,1.1,4l.26-.42a10,10,0,0,1,.46-2.21c.68-1.36,4.18-6.07,4.18-6.07l2.28.34c1.19-1.86-.42-3.63-.84-4.73.93-.93,1.43-.43,2.53.59.85-2,.09-2.2-.59-3.8s.59-1.27,2.37-.34c.67-1.1.5-2-.51-4.31s1.18-1.18,2.2-.42c.76-1.18.42-1.44-.51-3.8s.51-2,2.11-.85c1-2.7.17-2.2-.5-4s1-1.61,2.28-.51c1.18-1.1.19-1.49.19-4.28,0-2,2.38-5.92,6.52-7.44,1.44,1.43-1.9,1.67-1.9,3.27,0,.93.68-1,4-1s3.47,1.6,4.31,1.6.09-2.36.09-2.36c3.88,0,2.53,3.8,2.53,8.53s6.51,9.21,6.68,11.83c-2.35,1.41-3,7.37-5.11,10.63-1.18,1.31-2.63,1.44-4.1,2l-1.44,6c1.18-1.26,4.23-2.11,4.23-2.11-1.44-2.87.42-3.63,1.18-4.31s4-4.81,4-4.81l.51.5s-1.61,4.57-4.14,5.75c-.68,1.44,1.69,5.24,2.28,6.17a4.32,4.32,0,0,1,.54-.63s.26-5.09,1.06-6,1.19-.93,3-.26c.76-.76.34-2.79-.34-4.05.76-1.44,1.95,1.4,2.32.89,1.35-1.81-1.22-3.26-.37-5,0,0,1.42,1.33,1.77,1.1s.17-1.27-.17-2.2c-1.76-4.22.9-1.43,1.18-1.61.59-.36-.08-3.07-.84-3.75-.42,1.18-3,5.78-4.31,9-.24.56-1.52.76.25-4.73,2.12-6.53,4.48-5.49,5.49-5.15-.08-3.05-3.12-3.3-3.37-5.33-3-1.26-.51-11.66-6.76-14.19l7.85-.59c-1.52,1.52-4.47,1-4.47,1s0,.93,2.36.93S290,153,290,150.07c0-2.18-2.64-6.91-5.16-6.91-2.09,0-3,3.2-3.46,3-1.24-.63-.37-1.18.09-2,1.59-2.76,4.25-2.13,4.26-4.39,0-4.24-5.45-4.4-6.23-3.61s2.51,0,2.44,2.69c0,.5,1.58-1.39,1.58-1.24C283.53,139.55,279.12,141,279.12,145.2Zm-6-1.73c.61,1.1,5.59.79,5.59-3.86,0-2.45-2.05-3-2.05-3.64,0-1.69,9.12-2.37,9.12-6.76a7,7,0,0,0-.67-3.38s.16,3.46-.93,3.46c-1.69,0-.17-2-.17-3,0-3.72-4-2.87-4-2.87s2.36.08,2.36,3.8c0,4.73-6.93,7.6-7.43,7.1s1.86-2.12,1.86-4.73c0-1.27-.51-4-3.22-4-3.21,0-5.32,2.2-4.05,2s3.8.68,3.8,2.87c0,3.72-4.9,4.65-4.9,9.38,0,5.92,6,7.35,7.86,7.35a5.57,5.57,0,0,0,2.28-.25,3.68,3.68,0,0,1-.34-1.86,7.71,7.71,0,0,1-2.2.34c-4.56,0-5.07-3.46-5.07-4.65s1.2-3.49,3.05-3.29C277.89,137.9,275.55,142.17,273.09,143.47Zm-4.41,38.71c.59-.76,1.53,1.86,1.53,1.86,2.36-2.11-.25-3.25.5-3.88,1-.85,2.71.5,2.71.5,1.26-1.1-.72-2.24-.17-2.95,1.09-1.44,1.43-.09,2.19-.43s1.61-1,.76-2.11-3.55-5.91-1.18-9.46a3,3,0,0,0-1.86,1.77c-.34,1.27.93,7.69.93,8.62L267.16,182s-.5-.5.43-1.69a64.86,64.86,0,0,1,5.32-4.81c-1.1-1.44.51-5.07-1.69-6.42-.59-.26-2.25-.76-.85-1.78.93-.67,2.45-.33,2.45-3.38a3.13,3.13,0,0,0-2.78-3.29c.33-.93,2.78-.68,3.46-1.61-1.27-.59-1.27-.67-2.2-.67s-3.63,1.35-3.63,5.49,3.08,9.5,2.54,10.05-3.72,2.62-4.4,4.23-4.4,4-4.4,4l-3.54,5.81,2.37-1.35s.86-2.83,2.26-3.67c2-1.18,3.8-3.29,4.1-3s-1.55,2.83-3.49,3.85c-.59,1.18-2,5.49-1.86,6.42,0,0,4.22-5.07,5.41-5.58s1.6,1,1.6,1C269.87,184.46,268.09,182.94,268.68,182.18Zm-8.06-1.41c.77-.67,2.4-1,3.33-1.88l-3.92,1-2.36,3.65,1.87-.79A4.49,4.49,0,0,1,260.62,180.77ZM241,186.06a20.62,20.62,0,0,0,4-1.48c-1.87.2-5,.2-5,.2l-2.74,5.74L240,189S240,186.4,241,186.06Zm-4-36.15c0,2.06,2.62,3,2.79,4s-2.07-.64-2-.34c.38,2.83,2.71,3.12,3.55,4.65.51.93-2.16-.37-2.11-.09.57,3.31,4,2.06,4.64,4.23.35,1.21-2.16-.69-2.23.37-.06.71,1.3,4.44,2.06,4.61s3.22-.76,4.31-1.18,3.21-.84,3.47-1.86c-1.19-1.86-4.31-6.17-4.73-10.14-2.45-2.62-4.9-6.42-4.9-9.55a18.3,18.3,0,0,1,.93-5.66l-3.47-6.5-.68,3s3.21,3,3.13,4.06a40.59,40.59,0,0,1-.93,4.14c-.59.85-.42-4.06-.42-4.06l-3.72-4.73a27,27,0,0,0,0,4.09c.4,1.82,2.07,2.67,2.07,3.77a5.55,5.55,0,0,1-2.19,3.38c-.17,1.35,2.45,2.71,2.53,3.89C238.44,150.67,237,149.37,237,149.91Zm6.14-7.92c.53-.92,2.56-1.32,2.5-2.17s-2.43-6.18-2.5-7.5l-1.51,2.76s2.23,3.16,2.23,4.21S243,140.61,243.14,142Zm34.44,43.65c-2.42.44-5.65,1.18-5.65,1.18l-2.76,4.55,3.29-.69c.3-1.56.47-2.44,1.18-3.07C275,186.39,277.15,186.33,277.58,185.64Z"/><path d="M245.55,52.1c-.1,1.67-1.13.21-1.13.21a9.37,9.37,0,0,1-2.6-6.14c.76-.45,1.11-2.06,1.41-2.21s2.42-1.16,2.42-2.21-3-7.6-3-10.06l-2.51,3.52-2-3.42-1.55,4.07L235,34s-.79,5.9-.5,7c.77,2.89,2.05,2.54,2.05,3.55,0,1.56-2.73,2.71-2.73,2.71.32.83,1.87,8.31,3,11.92,1.29,4.13,2.2,4.48,3,6.24.7,1.44,1,4.63,2.72,4.63S249,68.25,249,68.25C247.46,69.76,246.75,85,244.24,85c-1.71,0-6,.13-6,.13a33.92,33.92,0,0,0-3.43,9l3.72-2.17-1.1,5.89,4.53-3.37,1.86,5.78,1.66-2.71s-.42-1.3,1-3.12c1.21-1.61,3.07-4.28,3.07-4.28l2.31.61a5.21,5.21,0,0,0,.91-3.52l.66-.17.72-1.57,1-2.81c.36-.87,4.28-11,5.47-14.12a8.15,8.15,0,0,0,.72-3.3,9.22,9.22,0,0,1-.24-2.12,7.17,7.17,0,0,1,2.38-4.24V59a1.24,1.24,0,0,0,1.2,1.37,1.64,1.64,0,0,0,1-.39,4.5,4.5,0,0,1,2.9-.87,5.34,5.34,0,0,1,.58,0c-1.64.63-3.63,2.61-3.63,6.35,0,2.64,1.1,5.58,1.9,7.72.23.62.5,1.35.62,1.79l-.4.31c-1.65,1.27-3.32,2.63-3.89,4l0,.08c-2.54.4-5.09.7-5.09.7l-3.83,6.87,2.42-.79-2.31,5.13,4.63-1.91s-1.06,3.52,0,4.83c.14-.12,1.64-1.17,1.64-1.17a11.8,11.8,0,0,1,1.28-2.35l3.36-3.42.71,1.76c3.47-1.73,9.87-9.92,10.06-11.37,0-1.41-2.52-3.62-2.52-6.89a3.82,3.82,0,0,1,.76-2.66c0,2.31,5.53,7.54,6,9-1.26.7-3.67,7.94-4,9a61.54,61.54,0,0,0-6.27,1.19,17.39,17.39,0,0,0-3.89,7.11l4.22-.86-.73,5L272,98s1.77-3,4.7-3.1l2.61,4.33,1.76-2s.2-5.58,1.16-6.23l2.06.8c5.69-4.15,6.47-19.11,5.69-19.58-.49-.29-.69.3-2.16-1.57-2.41-3.05-2-10-4.32-12.38,0,0,.24-.21,1.29-.21A6.05,6.05,0,0,0,290,51.85a8.78,8.78,0,0,0-4.87-8.09,5.22,5.22,0,0,0,.55-2.37c0-4.42-4.89-4.43-5-5.08,2.36-.5,4.83-3.22,5-5.23.55-5.67-5.81-8.88-8.5-6.18.85.75,2.92,1.61,2.92,3.72,0,3.62-4,5.48-4,5.48a7.81,7.81,0,0,0,.71-3.17A4.58,4.58,0,0,0,272,26.15a6,6,0,0,0-5.93,4.18c1.2,0,5-.4,5,1.86,0,2.87-4.82,4.58-4.82,9.3s4.13,8.19,8.8,8.5c1.24.08,1.46.16,2.36.16s1.47,1.1,3.42,1.1c2.41,0,3-1.11,3.77-1.11s.81.81.81,1.26.15,1.66-2.82,1.66c-3.17,0-8.85-1.61-14-1.61-4,0-4.58.07-4.8.37a6.9,6.9,0,0,0,.87-2.76c-.95-.49-1.75-3.14-2.26-3.14,4.34-3.93,3.71-7.37,3.75-8.15-.3-1-.93-1.16-2-1.16a2.92,2.92,0,0,0-1.66.46,22.06,22.06,0,0,0-.87-5c-1.4-2.11-8.26-3.54-10.91.49,0,0-1,2.45-1.39,3.2A3.21,3.21,0,0,0,246,36s.09,1.08.11,1.87-.15,1.71-.15,2.62,1.86,4.22,1.86,4.22c-1.06,1.56-4.67,3.27-4.67,3.27A14.74,14.74,0,0,1,245.55,52.1Z"/><path class="cls-2" d="M246.77,51.31c.46-.37,1.72-2.33,2.94-2.33-.1.71-1.93,2.23-2.53,3.44s.4,2.43.91,3.34c-.1-.81,1.82-2.12,2.43-2.83s1.1-.47.7.4c-.5,1.11-2.09,2.27-2.12,4,0,.89.67,1.53,1.52,2,0,0,.3-2.93,1.51-2.12.5.32-1.92,4.85,0,6.57.31-1.31,3.24-3.54,3.24-4.15s-1-2.63,0-2.63c.61,0,1.11,1.82,1.52,1.82s1.21-.4,1.21-1.11-1.82-3.74-.71-3.74c.52,0,1.72,2,2,2s.6-.2.91-1.82-1.42-2.22-.81-3.84A6,6,0,0,1,261.64,52c.51.91,1.52-1.62,1.62-2.43-.31-.37-.67-1.66-1.21-2.43s-1.22-.91-1.22-1.11c0-.4.61-.5,2.63-2.73a6.84,6.84,0,0,0,1.72-5.16c-1.21-1.11-2.22.51-3.23,0s-.51-3.64-.81-4.75c0,0-1.32,2.12-1.62,1.82s.1-1.22.4-2.23-1.41-1.51-1.41-1.51-.41,2.12-1.12,2-.5-2.13-.5-2.13a1.1,1.1,0,0,0-1.72.91c-.36,2-1.32.31-1.82-.6-.71.3-.41,2.63-.41,3.44s-1.41-.71-2.12-1c.2.7-.6,1.76-.6,2.57s-2.64-.45-3.24.16a12.41,12.41,0,0,0,.13,4.32c.65,1.87,1.7,2.69,1.7,3.8s-1.61,1.55-4.53,3.39C245.61,48.55,245.66,52.22,246.77,51.31Zm9.89-14.84c.53.72,1.78,1.64,2.7.85.39.14.53.27.06.79S259,40,258,39.89c-1.58-.13-.92-2.43-1.51-3Zm-1.65-.2.2.46c-.46.13-.53,2.64-1.71,2.64-1.45,0-.33-1.78-1.45-2.11A6.44,6.44,0,0,0,255,36.27Zm-6.52,3.62a1.43,1.43,0,0,1,1.45-1.64c.86,0,.79,2.56,1.19,3.16s1.51.33,1.71.72c-.33.53-1.45,1.19-1.45,2a1.06,1.06,0,0,0,1.05,1c.46,0,2.44-.53,2.44-1.71,0-.59-.45-.91-.66-1.32s-.16-.89-.33-1c.79-.06,1.58-.33,2.18-.33s.66.4.66.93-1.12.92-1.12,1.45,1.45,1.91,1.91,1.91S259,44.7,259,44s-.43-1.62,0-2c.26-.26.86.27.86.27.89-.89,1.45-2.7,3.22-2.9,1.78,3.1-1.91,4.28-1.91,4.28L259.76,43c.56,1.79-1,2.4-.93,3.09.14,2-.26,2.63-1,3.3-.47-.13-1.45-.2-1.52.2.92,1.64-1.84,3.42-1.52,4.15a26.94,26.94,0,0,1-1.64-2.64c-.33-.39.28-1-.07-1.91-.2-.53-1.38.07-1.51-.86s.17-2.85-1-3.51C250.64,42.9,248.49,41.67,248.49,39.89Zm29.49,7c0,1.35.67,3.3,2.75,3.3,2.4,0,2.5-1.14,3.84-1.14s2,1.1,2,2.36-.66,2.75-3.93,2.75c-5.81,0-7.34-1.58-14.27-1.58-6.56,0-6,2.61-10.23,6.82s-7.53,7.33-7.53,7.33l.25.67c-2,2.11-3,12.46-4,16.08s-6.57,5.14-6.57,5.14l-1.26,7,2.69-2.36a9,9,0,0,1-.25-2c-.08-1.52,4.13-4.63,6.15-5.9-.34,1.94-5.05,5.73-5.05,5.73a11.64,11.64,0,0,1,.5,2.69,19,19,0,0,0,1.1,4l.25-.42a9.5,9.5,0,0,1,.47-2.2c.67-1.35,4.16-6.05,4.16-6.05l2.27.34c1.18-1.85-.42-3.62-.84-4.71.92-.93,1.43-.43,2.53.58.84-2,.08-2.18-.59-3.78s.59-1.27,2.35-.34c.68-1.09.51-2-.5-4.29s1.18-1.18,2.19-.43c.75-1.17.42-1.43-.51-3.78s.51-2,2.11-.85c1-2.69.16-2.19-.51-4s1-1.6,2.27-.51c1.18-1.09.2-1.48.2-4.26,0-2,2.37-5.91,6.5-7.42,1.43,1.43-1.9,1.66-1.9,3.26,0,.93.68-1,4-1s3.45,1.6,4.29,1.6.09-2.35.09-2.35c3.87,0,2.52,3.78,2.52,8.5s6.49,9.18,6.65,11.78c-2.33,1.41-3,7.35-5.08,10.59-1.18,1.31-2.62,1.44-4.09,2l-1.43,6c1.18-1.26,4.21-2.11,4.21-2.11-1.43-2.86.42-3.61,1.17-4.29s4-4.8,4-4.8l.51.51s-1.6,4.54-4.13,5.72c-.67,1.43,1.68,5.22,2.27,6.15a3.73,3.73,0,0,1,.55-.62s.26-5.08,1.05-6,1.18-.92,2.95-.25c.76-.76.34-2.78-.34-4,.76-1.43,1.94,1.4,2.32.89,1.34-1.81-1.22-3.25-.38-5,0,0,1.42,1.33,1.77,1.1s.17-1.26-.17-2.19c-1.76-4.2.89-1.42,1.18-1.6.58-.36-.08-3.07-.84-3.74-.42,1.18-3,5.76-4.3,9-.23.56-1.51.76.26-4.72C285.6,73.58,288,74.62,289,75c-.09-3-3.12-3.28-3.37-5.31-3-1.26-.51-11.61-6.74-14.14l7.83-.59c-1.51,1.52-4.46,1-4.46,1s0,.93,2.36.93,4.24-2.19,4.24-5.14c0-2.17-2.63-6.89-5.14-6.89-2.08,0-2.95,3.19-3.44,3-1.25-.62-.38-1.18.08-2,1.59-2.75,4.24-2.13,4.24-4.37,0-4.23-5.42-4.39-6.2-3.61s2.5,0,2.44,2.69c0,.5,1.57-1.38,1.57-1.24C282.38,41.23,278,42.71,278,46.87Zm-6-1.73c.61,1.09,5.58.79,5.58-3.85,0-2.43-2.05-2.95-2.05-3.63,0-1.68,9.09-2.35,9.09-6.73a6.88,6.88,0,0,0-.67-3.37S284.08,31,283,31c-1.68,0-.17-2-.17-3,0-3.7-4-2.86-4-2.86s2.36.08,2.36,3.79c0,4.71-6.9,7.57-7.41,7.07s1.86-2.11,1.86-4.72c0-1.26-.51-4-3.2-4-3.2,0-5.31,2.19-4,2s3.78.67,3.78,2.86c0,3.71-4.88,4.63-4.88,9.35,0,5.89,6,7.32,7.83,7.32a5.53,5.53,0,0,0,2.27-.25,3.61,3.61,0,0,1-.33-1.85,7.89,7.89,0,0,1-2.19.33c-4.55,0-5.05-3.45-5.05-4.63s1.19-3.48,3-3.28C276.75,39.59,274.43,43.84,272,45.14Zm-4.39,38.58c.59-.76,1.52,1.85,1.52,1.85,2.36-2.11-.25-3.25.5-3.88,1-.84,2.7.51,2.7.51,1.26-1.1-.71-2.24-.17-3,1.09-1.43,1.43-.08,2.19-.42s1.6-1,.76-2.1-3.54-5.9-1.18-9.43a3,3,0,0,0-1.85,1.77c-.34,1.26.92,7.66.92,8.58l-6.9,5.9s-.51-.51.42-1.69a66.49,66.49,0,0,1,5.3-4.8c-1.09-1.43.51-5-1.68-6.39-.59-.26-2.24-.76-.84-1.77.92-.68,2.44-.34,2.44-3.37a3.12,3.12,0,0,0-2.78-3.28c.34-.93,2.78-.68,3.45-1.6-1.26-.59-1.26-.68-2.19-.68s-3.62,1.35-3.62,5.47,3.08,9.48,2.53,10-3.7,2.61-4.38,4.21-4.38,4-4.38,4l-3.53,5.79,2.36-1.35s.86-2.82,2.25-3.65c2-1.18,3.79-3.28,4.09-3S264,84.3,262,85.31c-.59,1.18-2,5.48-1.86,6.4,0,0,4.21-5,5.39-5.55s1.6,1,1.6,1C268.76,86,267,84.47,267.58,83.72Zm-8-1.41c.76-.68,2.39-1,3.32-1.88l-3.91,1L256.61,85l1.86-.79A4.54,4.54,0,0,1,259.55,82.31ZM240,87.58a21,21,0,0,0,4-1.47c-1.87.19-5,.19-5,.19L236.32,92l2.7-1.51S239,87.92,240,87.58Zm-4-36c0,2,2.61,2.94,2.78,3.95s-2.06-.64-2-.34c.38,2.82,2.71,3.11,3.54,4.64.5.92-2.16-.37-2.11-.09.57,3.3,4,2.05,4.63,4.21.34,1.2-2.15-.68-2.23.38,0,.7,1.31,4.42,2.06,4.59s3.2-.76,4.3-1.18,3.2-.84,3.45-1.85c-1.18-1.86-4.3-6.15-4.72-10.11-2.44-2.61-4.88-6.39-4.88-9.51a18.17,18.17,0,0,1,.93-5.64l-3.45-6.48-.68,2.94s3.2,3,3.12,4-.93,4.12-.93,4.12c-.59.84-.42-4-.42-4l-3.7-4.72a27.77,27.77,0,0,0,0,4.07c.4,1.82,2.07,2.67,2.07,3.76a5.53,5.53,0,0,1-2.19,3.37c-.17,1.35,2.44,2.7,2.53,3.88C237.44,52.31,236,51,236,51.56Zm6.12-7.9c.52-.91,2.55-1.31,2.49-2.16s-2.42-6.16-2.49-7.47l-1.51,2.76s2.23,3.14,2.23,4.19S242,42.29,242.13,43.66Zm34.32,43.49c-2.41.45-5.63,1.18-5.63,1.18l-2.75,4.54,3.28-.69c.29-1.56.47-2.43,1.17-3.06C273.88,87.91,276,87.84,276.45,87.15Z"/><path d="M387.89,150.65c-.1,1.66-1.13.2-1.13.2a9.35,9.35,0,0,1-2.59-6.14c.75-.45,1.1-2.06,1.41-2.21s2.41-1.15,2.41-2.21-3-7.59-3-10.06l-2.51,3.52-2-3.42L379,134.41l-1.61-1.92s-.78,5.9-.5,7c.77,2.88,2.06,2.54,2.06,3.54,0,1.56-2.74,2.71-2.74,2.71.32.83,1.87,8.31,3,11.92,1.29,4.13,2.2,4.49,3.06,6.25.69,1.43,1,4.62,2.71,4.62s6.39-1.71,6.39-1.71c-1.56,1.51-2.27,16.75-4.78,16.75-1.71,0-6,.12-6,.12a34.18,34.18,0,0,0-3.42,9l3.72-2.16-1.11,5.88,4.53-3.37,1.86,5.79,1.66-2.72s-.42-1.29.95-3.12c1.21-1.61,3.07-4.27,3.07-4.27l2.31.6a5.21,5.21,0,0,0,.91-3.52l.66-.16.72-1.58,1-2.81c.36-.87,4.29-11,5.47-14.11a8.08,8.08,0,0,0,.72-3.31,9.82,9.82,0,0,1-.24-2.12,7.13,7.13,0,0,1,2.38-4.23v.08a1.23,1.23,0,0,0,1.2,1.36,1.56,1.56,0,0,0,1-.39,4.56,4.56,0,0,1,2.9-.87l.59,0c-1.64.64-3.64,2.62-3.64,6.36,0,2.63,1.1,5.57,1.9,7.72.23.61.51,1.35.63,1.78l-.41.31c-1.65,1.28-3.32,2.63-3.88,4l0,.07c-2.53.41-5.09.7-5.09.7l-3.83,6.88,2.43-.79-2.32,5.12,4.63-1.91s-1.06,3.52,0,4.83c.14-.11,1.65-1.16,1.65-1.16a11.64,11.64,0,0,1,1.27-2.36c.5-.49,3.36-3.42,3.36-3.42l.71,1.76c3.48-1.73,9.87-9.92,10.06-11.36,0-1.41-2.52-3.63-2.52-6.89a3.86,3.86,0,0,1,.76-2.67c0,2.31,5.53,7.54,6,9-1.26.71-3.67,7.95-4,8.95-1,0-6.27,1.19-6.27,1.19a17.39,17.39,0,0,0-3.89,7.11l4.22-.85-.72,4.94,1.86-.39s1.77-2.95,4.7-3.09l2.61,4.32,1.76-2s.2-5.58,1.16-6.24l2.06.81c5.69-4.16,6.47-19.12,5.69-19.58-.49-.3-.68.29-2.16-1.57-2.41-3.06-2-9.95-4.32-12.38,0,0,.24-.22,1.3-.22a6,6,0,0,0,5.12-6.23,8.78,8.78,0,0,0-4.87-8.09,5.22,5.22,0,0,0,.55-2.37c0-4.43-4.89-4.43-5-5.08,2.36-.51,4.84-3.23,5-5.23.55-5.68-5.8-8.88-8.5-6.19.86.76,2.92,1.61,2.92,3.72,0,3.62-4,5.49-4,5.49a7.81,7.81,0,0,0,.71-3.17,4.58,4.58,0,0,0-4.83-4.78,6,6,0,0,0-5.93,4.17c1.2,0,5-.4,5,1.86,0,2.87-4.82,4.58-4.82,9.31s4.13,8.18,8.8,8.5c1.24.08,1.46.16,2.36.16s1.48,1.09,3.42,1.09c2.42,0,3-1.1,3.78-1.1s.8.8.8,1.25.15,1.66-2.82,1.66c-3.17,0-8.85-1.6-14-1.6-4,0-4.58.07-4.8.36a6.84,6.84,0,0,0,.87-2.76c-.95-.48-1.75-3.14-2.25-3.14,4.33-3.92,3.7-7.37,3.74-8.15-.3-1-.93-1.15-2-1.15a2.92,2.92,0,0,0-1.66.45,22.23,22.23,0,0,0-.88-5c-1.4-2.11-8.25-3.53-10.91.49,0,0-1,2.45-1.39,3.2a3.21,3.21,0,0,0-3.33.24s.09,1.08.11,1.88-.15,1.71-.15,2.61,1.86,4.23,1.86,4.23c-1,1.55-4.67,3.26-4.67,3.26A14.88,14.88,0,0,1,387.89,150.65Z"/><path class="cls-2" d="M389.12,149.85c.45-.37,1.72-2.32,2.93-2.32-.1.71-1.92,2.22-2.53,3.44s.4,2.42.91,3.33c-.1-.81,1.82-2.12,2.43-2.83s1.1-.47.7.41c-.5,1.11-2.09,2.27-2.12,3.94a2.45,2.45,0,0,0,1.52,2s.3-2.93,1.52-2.12c.49.33-1.93,4.85,0,6.57.3-1.31,3.23-3.53,3.23-4.14s-1-2.63,0-2.63c.61,0,1.11,1.82,1.52,1.82s1.21-.41,1.21-1.11-1.82-3.75-.7-3.75c.51,0,1.72,2,2,2s.61-.21.91-1.82-1.42-2.23-.81-3.85a6,6,0,0,1,2.12,1.72c.51.91,1.52-1.62,1.62-2.43-.31-.36-.67-1.65-1.21-2.42s-1.22-.92-1.22-1.12c0-.4.61-.5,2.63-2.73a6.83,6.83,0,0,0,1.72-5.15c-1.21-1.12-2.22.5-3.23,0s-.51-3.64-.81-4.76c0,0-1.32,2.13-1.62,1.82s.1-1.21.4-2.22-1.41-1.52-1.41-1.52-.41,2.13-1.11,2-.51-2.12-.51-2.12a1.09,1.09,0,0,0-1.72.91c-.36,2-1.31.3-1.82-.61-.71.31-.4,2.63-.4,3.44s-1.42-.71-2.13-1c.2.71-.6,1.76-.6,2.57s-2.64-.44-3.24.17a12.41,12.41,0,0,0,.13,4.32c.66,1.86,1.7,2.69,1.7,3.8s-1.61,1.54-4.53,3.38C388,147.09,388,150.77,389.12,149.85ZM399,135c.53.73,1.78,1.65,2.7.86.4.13.53.26.07.79s-.47,1.85-1.39,1.78c-1.58-.13-.92-2.44-1.51-3Zm-1.65-.2.2.47c-.46.13-.53,2.63-1.71,2.63-1.45,0-.33-1.78-1.45-2.11A6.44,6.44,0,0,0,397.35,134.81Zm-6.52,3.63c0-1.52,1.12-1.65,1.45-1.65.86,0,.79,2.57,1.19,3.16s1.51.33,1.71.73c-.33.52-1.45,1.18-1.45,2a1.08,1.08,0,0,0,1.06,1.06c.46,0,2.43-.53,2.43-1.72,0-.59-.45-.91-.66-1.31s-.16-.89-.32-1c.78-.07,1.58-.33,2.17-.33s.66.39.66.92-1.12.92-1.12,1.45,1.45,1.91,1.91,1.91,1.51-.39,1.51-1.12-.43-1.61,0-2c.27-.26.86.26.86.26.89-.89,1.45-2.7,3.23-2.9,1.77,3.1-1.91,4.29-1.91,4.29l-1.45-.6c.56,1.79-1,2.4-.92,3.1.14,2-.27,2.62-1,3.29-.46-.13-1.45-.2-1.52.2.92,1.65-1.84,3.42-1.51,4.15a25,25,0,0,1-1.65-2.63c-.33-.4.29-1-.06-1.92-.2-.52-1.39.07-1.52-.85s.17-2.85-.95-3.51C393,141.45,390.83,140.21,390.83,138.44Zm29.49,7c0,1.35.67,3.3,2.75,3.3,2.4,0,2.5-1.13,3.85-1.13s2,1.09,2,2.36-.65,2.75-3.93,2.75c-5.81,0-7.34-1.58-14.27-1.58-6.56,0-6,2.61-10.22,6.82s-7.54,7.32-7.54,7.32l.25.68c-2,2.1-3,12.46-4,16.08s-6.57,5.13-6.57,5.13l-1.26,7,2.7-2.36a9.1,9.1,0,0,1-.26-2c-.08-1.51,4.13-4.63,6.15-5.89-.34,1.94-5.05,5.72-5.05,5.72a11.79,11.79,0,0,1,.5,2.7,19,19,0,0,0,1.1,4l.26-.42a9.48,9.48,0,0,1,.46-2.21c.67-1.35,4.16-6,4.16-6l2.27.33c1.18-1.85-.42-3.62-.84-4.71.93-.93,1.43-.42,2.53.59.84-2,.08-2.19-.59-3.79s.59-1.26,2.35-.34c.68-1.09.51-2-.5-4.29s1.18-1.18,2.19-.42c.76-1.18.42-1.43-.51-3.79s.51-2,2.11-.84c1-2.69.17-2.19-.51-4s1-1.6,2.28-.5c1.18-1.1.19-1.49.19-4.27,0-2,2.37-5.9,6.5-7.42,1.43,1.44-1.89,1.67-1.89,3.27,0,.92.67-1,4-1s3.45,1.6,4.3,1.6.08-2.36.08-2.36c3.87,0,2.52,3.79,2.52,8.5s6.49,9.18,6.66,11.79c-2.34,1.4-3,7.34-5.09,10.59-1.18,1.31-2.62,1.44-4.09,2l-1.43,6c1.18-1.26,4.21-2.1,4.21-2.1-1.43-2.86.42-3.62,1.18-4.29s3.95-4.8,3.95-4.8l.51.5s-1.6,4.55-4.13,5.73c-.67,1.43,1.69,5.22,2.28,6.14a3.94,3.94,0,0,1,.54-.62s.26-5.08,1.05-5.94,1.18-.93,2.95-.26c.76-.75.34-2.77-.34-4,.76-1.43,1.94,1.4,2.32.9,1.34-1.81-1.22-3.25-.38-5,0,0,1.42,1.33,1.77,1.09s.17-1.26-.17-2.19c-1.76-4.2.9-1.42,1.18-1.6.58-.36-.08-3.06-.84-3.74-.42,1.18-2.95,5.76-4.29,9-.24.56-1.52.76.25-4.71,2.1-6.51,4.46-5.47,5.47-5.14-.08-3-3.12-3.28-3.37-5.3-3-1.26-.5-11.62-6.73-14.14l7.83-.59c-1.52,1.51-4.47,1-4.47,1s0,.92,2.36.92,4.24-2.19,4.24-5.14c0-2.17-2.63-6.89-5.14-6.89-2.08,0-2.95,3.2-3.44,2.95-1.25-.62-.38-1.17.08-2,1.59-2.76,4.24-2.13,4.25-4.38,0-4.23-5.43-4.38-6.21-3.6s2.5,0,2.44,2.68c0,.5,1.57-1.38,1.57-1.24C424.72,139.78,420.32,141.26,420.32,145.41Zm-6-1.72c.61,1.09,5.58.78,5.58-3.85,0-2.44-2.05-3-2.05-3.63,0-1.69,9.09-2.36,9.09-6.74a6.86,6.86,0,0,0-.67-3.36s.17,3.45-.93,3.45c-1.68,0-.16-2-.16-3,0-3.71-4-2.87-4-2.87s2.35.09,2.35,3.79c0,4.72-6.9,7.58-7.4,7.07s1.85-2.1,1.85-4.71c0-1.26-.51-4-3.2-4-3.2,0-5.31,2.19-4,2s3.79.68,3.79,2.87c0,3.7-4.89,4.63-4.89,9.34,0,5.9,6,7.33,7.83,7.33a5.28,5.28,0,0,0,2.27-.26,3.72,3.72,0,0,1-.33-1.85,7.68,7.68,0,0,1-2.19.34c-4.54,0-5.05-3.45-5.05-4.63s1.19-3.48,3-3.29C419.1,138.14,416.77,142.39,414.31,143.69Zm-4.39,38.57c.6-.76,1.52,1.85,1.52,1.85,2.36-2.1-.25-3.24.51-3.87,1-.84,2.69.5,2.69.5,1.26-1.09-.71-2.23-.17-2.94,1.1-1.43,1.43-.09,2.19-.42s1.6-1,.76-2.11-3.54-5.89-1.18-9.43a3,3,0,0,0-1.85,1.77c-.34,1.26.92,7.66.92,8.59l-6.9,5.89s-.5-.5.42-1.68a66.49,66.49,0,0,1,5.3-4.8c-1.09-1.43.51-5.05-1.68-6.4-.59-.25-2.24-.75-.84-1.77.93-.67,2.44-.33,2.44-3.37a3.12,3.12,0,0,0-2.78-3.28c.34-.92,2.78-.67,3.45-1.6-1.26-.59-1.26-.67-2.18-.67s-3.62,1.35-3.62,5.47,3.07,9.47,2.52,10-3.7,2.61-4.38,4.21-4.38,4-4.38,4L399.15,188l2.36-1.34s.86-2.83,2.25-3.66c2-1.18,3.79-3.28,4.09-3s-1.54,2.83-3.48,3.84c-.59,1.18-2,5.47-1.85,6.4,0,0,4.21-5,5.39-5.56s1.59,1,1.59,1C411.1,184.53,409.34,183,409.92,182.26Zm-8-1.41c.75-.67,2.38-.95,3.31-1.87l-3.91,1L399,183.57l1.86-.78A4.56,4.56,0,0,1,401.9,180.85Zm-19.56,5.28a20.64,20.64,0,0,0,4-1.48c-1.86.2-5,.2-5,.2l-2.73,5.72,2.7-1.52S381.33,186.46,382.34,186.13Zm-4-36c0,2.05,2.62,3,2.78,4s-2.06-.64-2-.34c.38,2.82,2.71,3.11,3.54,4.63.5.93-2.15-.36-2.11-.08.57,3.29,4,2,4.63,4.2.35,1.21-2.15-.68-2.23.38-.05.7,1.31,4.42,2.06,4.59s3.21-.76,4.3-1.18,3.2-.84,3.45-1.85c-1.18-1.85-4.29-6.14-4.71-10.1-2.44-2.61-4.89-6.4-4.89-9.51a18.09,18.09,0,0,1,.93-5.64l-3.45-6.49-.68,3s3.2,3,3.12,4a40.25,40.25,0,0,1-.93,4.13c-.59.84-.42-4-.42-4L378,135a26.71,26.71,0,0,0,0,4.07c.39,1.81,2.06,2.67,2.06,3.76a5.59,5.59,0,0,1-2.18,3.37c-.17,1.34,2.43,2.69,2.52,3.87C379.79,150.86,378.37,149.57,378.35,150.1Zm6.12-7.89c.53-.92,2.56-1.31,2.49-2.16s-2.42-6.16-2.49-7.47L383,135.33s2.23,3.14,2.23,4.19S384.34,140.83,384.47,142.21Zm34.32,43.49c-2.41.45-5.63,1.18-5.63,1.18l-2.74,4.54,3.27-.69c.29-1.56.47-2.44,1.17-3.06C416.22,186.46,418.36,186.39,418.79,185.7Z"/><path d="M335.66,38.37c-.88.24-5.56-.91-6.08-2.88-.77-2.94,2.87-5.05,2.87-10.26,0-4.73-4.88-5.69-6.24-5.69-1.69,0-5.69.72-5.69,4.57a4.07,4.07,0,0,0,3.59,4.21c-1.94,6.29.19,10.89,2.95,12.79,3.56,2.65,7.73,1.19,7.74,2.6-.57.16-3.45,4.27-4.73,5.75-.87,1.11-1.42,1.84-1.42,2.43,0,1.14,4.49.33,7.38-.25,0,0-2.47,2.74-5.39,3a5.19,5.19,0,0,1-.67,0,3.28,3.28,0,0,1-1.77-.6c-.56-.56-1.73-1.81-.67-4.6a6.55,6.55,0,0,1,1.08-2c.89-1.25-8.83.62-7.8,9,.47,3.49,2.38,3.19.94,3.86a8.55,8.55,0,0,0-1.13,2s-.42-3.72-.86-7.54c-.32-2.75-.72-3.25-.88-5.92-.09-1.55.51-2.65,2-2.72,2.27-.11,4.06.46,3.43-4.55C322.53,27.81,309.33,24.1,309,24.33a5.17,5.17,0,0,0,1.41,3.06A10.13,10.13,0,0,1,312.73,33a55.61,55.61,0,0,0-8.87-3.15,10.58,10.58,0,0,0,0,1.3c.68,1.53,3.93,7.12,4.36,10.59a12,12,0,0,0-3.28-3.28c.36,1.42.46,3.72.5,9.86.07,9.72,0,22.89,3.86,30.27.39.77.4,7.55,3.45,7.55s3,.32,3,.32,1.44,1.36,2.16,1.28c0,0-3.87,11.24-7.12,22.4-3,.95-4.56-1.64-5.68-1.73s-2,6.61,1.32,13.51a3.9,3.9,0,0,0-1.91,3.51,17,17,0,0,0,6.89,12.5s.59.29.2-.89.54-5.32,1.1-6c3.52,3.05,8.25.79,8.25.79l-.89-1.48s-1,.63-.49-7.24c.74.23.8,2,.88,2,.41.08.76.11.89-.07a65.91,65.91,0,0,0,2.66-6.22c.19-.77,1.29-.44,3-2.84a7.68,7.68,0,0,0,1-2.62c2.76-1,2.86-5,2.86-5,.89,0,2.12-3.5,2-6.32.31-1.21.93-1.36,1.16-2.24.59.88,5.9,3.64,5.9,11.91,0,6-2.66,6-1.87,8.46.08.24-1.22,1.37-4.9,1.08-2.37-.19-4.76-2.26-5.63-2.41-2.23-.4-2.1.78-2.75,2.49s-3.56,20.57,2.57,33.22c-2.25-.48-9.23-.22-10.12-2.38-.67-1.63,1.85-3.83,1.85-3.83s-.62-2.94-6-2.32a11.24,11.24,0,0,0-9.34,7.08l1.37.22a5.45,5.45,0,0,0-2,3.31,18,18,0,0,0-.07,2.33l1.42-.59s-.09.94.91,5.71c.78,4.23,2.46,5.23,2.46,5.23s.1-.78.18-1.23l.79-4.8c.19-.85,4.14-.2,4.14-.2a16,16,0,0,0-2.37,1.09l0,0a7.2,7.2,0,0,0-.9,3h0a17.48,17.48,0,0,1,4.61.71c1.11.32,1.77,1.18,3.15,1.57.41.12,1.33.08,1.77.2,1.4.39,2.79.75,4.35,1.12.38.09,1-.13,1.36,0a18.28,18.28,0,0,0,5.51.89c1.37-.06,2.21.68,3.61.75,3.92.2,5.28-1.76,6.89-1.12-.08-1,1.6-2.32-2.33-5.45,0-1.84,2.33-2.64,2.33-2.64.42-3.68-4.17-9.19-4.17-9.19s-.55-3.2-.88-6.43a41.16,41.16,0,0,1,1.4-13.65,12.25,12.25,0,0,1,1.32-.37s.21.27-.24,1.36c-.3.73-2.24,6.81.4,15.06,2.34,7.3,8.73,11.06,8.73,15.06l-1.68-.16c-3.68,3.69-3.58,21.77-4.38,23.54-.62,0-1.3.29-1.72,0-1.79-1.27-2.79-2.66-3.78-3.32-.26-.17-.87-.83-1.15-.68-.41,0-2.16,1.43-2.59,1.66-5,2.69-5.28,10.31-3.8,14.68.24,0,1.53-1.93,1.89-2.33,0,0,1,10.54,4.85,11.54l.45-.72s.27-6.83,1.59-6.28c.16.07,1.18,3.42,2.27,4.39,2,1.77,1.49,1.73,3.41,2.57a14,14,0,0,1,3.09,1,7.91,7.91,0,0,0-.34-1.19c.2-.68-1.32-2.12-.51-4.2,0,0,4.41-6.41,4.49-7.69a11.37,11.37,0,0,0,4.09,1.37l.67-1.29s-1.18-1.84-.44-2.73a24.06,24.06,0,0,0,3.57-7.53c.13-.4-.06-1.12.06-1.54.51-1.71,1.3-3.22,1.74-5.07.14-.58.86-1.47,1-2s-.12-1.42,0-1.89c.88-4.69,1.13-8.57.18-9.08a4.57,4.57,0,0,0,1.85-.89,1.68,1.68,0,0,1-1.36-1.68c0-1.44,2.32-3.12.23-7.29a4.06,4.06,0,0,1-3,1c-2,0-3.92-7.31-4.52-9.91l.44-.47a7.47,7.47,0,0,0,3.68,1c2.56,0,6.09-1,6.09-9,0-4.57-2.73-14.74-2.73-14.74,4.33-2.33,2.61-13.94,2.09-15.38s-3.39-11.39-.89-18.27c-3.51,1.92-6,14-6,14-1.33-6,4.49-12,4.81-21.82.19-5.77-4.24-10.34-4.24-10.34s.8-3,2.32-3,1.12,5,1.12,5c2.41-.88,3.53-2.88,3.53-5.68s-1.84-6.25-6.81-6.25-7.54,5.18-7.54,9.27,3,11.24,3,11.24a63,63,0,0,0-1.89,9.09c-.31,5.24-.62,11.5,1.54,19.4,2.74,8.09,7.09,19.09,7.09,26.87a3.62,3.62,0,0,1-.92,2.75c-2.59-.74-6.45-17.45-7.89-31.77a151,151,0,0,1-1.89-15.83l-.65-5.44,1.25.37c.07-.2.15-.38.22-.54a74.7,74.7,0,0,1-.94-8.59c0-2.88.32-16.42,1.28-20.19,1.2,2,7,2.33,7,2.33-3.53-7.13-1.6-15.31-1.76-16.19,3.2.72,5-1.52,5.68-1.76-3.68-2.32-3.28-6.57-3.84-6.81A10.06,10.06,0,0,0,359.45,37a11.83,11.83,0,0,0,1.76-5.45c0-1.76-.48-4.25-1.68-4.73A4.73,4.73,0,0,0,361.05,23c1.69-1.6,2-6.89,2.33-7.53-1.28,1.2-6.25,5.6-11.7,5.6-2,0-2.72-.32-4.41-.32a8.17,8.17,0,0,0-5.92,2.57,29.44,29.44,0,0,0-8,1.36C333.33,26.14,333.3,34.13,335.66,38.37Z"/><path class="cls-3" d="M324.78,27.17s1.09-1.16.33-1.16c-1.52,0-2-2-.86-1.86s1.08-.07.2-.91c-.68-.66,0-1.25,1.41-1.25a1.93,1.93,0,0,1,2,1.9c0,1.31-4.66,6.48-2.91,11.92,2.17,6.71,8,5.91,11,6.52,1.86.38,5.89,1.55,5.69,1.16-.4-.8-5.64-1.71-4.72-1.9.22-.05,5.2,1.13,5.05.91-.53-.72-4-2-4.48-2.19-1.7-.72-6.77-2.55-7.28-2.34s6,2.29,5.87,2.75-1,.43-3.42-.3c-2.69-.83-5.32-3.1-5.32-6.44a15.78,15.78,0,0,1,.52-4.4c.72-4.79.62,3.67,1.05,3.15a27.77,27.77,0,0,0,.92-3.15c.52-1.42,1.31-1.9,1.31-3.92,0-3.74-3.53-4.82-5.25-4.82-1.11,0-4,.69-3.78,3.54S324.78,27.17,324.78,27.17Zm-2.43,15.75c-.05.15-1.57.79-1.8.17-.07-.19.86-.7.9-1a2.87,2.87,0,0,0-.29-1.83c-1.05,1.49-2.72.56-2.79,6,.83-2.62,4.09-1.62,4.58-2.21s-.45-5.27-1-6.45C321.84,38.44,322.51,42.47,322.35,42.92Zm14-4.27c2.17.23,4.08.85,4.18.36-.45-1.3-1-1.6-1.66-1.74C337.34,37,337.43,38.49,336.4,38.65ZM309.65,46c-.48-1.15-2.43-2.44-2.48-3.39-.86,6.39,2.94,8.71,2.53,9.35-.71,1.08-2.82-2.14-2.82-2.14-1.27,5,3.21,8.72,3.21,8.72-.17,1.69-3-.85-3-.85-1.43,4.23,3.64,8.8,3.64,8.8,0,1-3.64-1.52-3.64-1.52,0,4.82,3.39,7.27,3.39,7.95,0,1.18-1.78-.17-1.78-.17a10,10,0,0,0,4.32,7c-.09.93-2.63-.51-2.63-.51.43.93.51,4.91,2.2,5.25s3.39.08,3.89.51,2,2.2,2.37.17a12.73,12.73,0,0,1-3.45-9c0-4.86.92-7.48,4.28-10-.59-3.47-1.19-9.55-2-12.51s-.67-5.53-.49-12.1c.06-2,4.38-4.74,4.38-4.74a17.75,17.75,0,0,0-7.33-9,30.51,30.51,0,0,1,5.8,7.29s-1.38,1.78-1.87,1.38c-1-1,1.06-1.42-.22-3s-6.67-6.83-6.67-6.75c.07.88,4,6.3,2.71,8,0,0,2,2,2.27,3.15-.49.69-1,10.14-1.28,11.22-.69-3.45,0-11.9,0-11.9-3.05-3-2.78-2.32-5.64-3.8-.33-.11,3.95,3.49,3.65,3.42s-.27,7.37-1.06,5.3c-.26-.68-.89-5.41-.89-5.41a67.7,67.7,0,0,0-5.41-5c-.06,1.9,3.51,6.63,4.61,14C310.34,46.17,310.13,47.18,309.65,46Zm11.94,17.15c0,.79,2.72,1.81,10.69-2.54s10.15-10.77,9.9-11-1.44,2.31-3.08,4.15-3.63,3.15-3.78,3,1.68-1.74,3-3.61c1.22-1.68,2-3.65,1.77-3.78s-4.48,6.85-10,6.85A4.54,4.54,0,0,1,326.68,49c-.45-.45-4.72.92-4.72,7,0,3.82,2.55,3.52,2.55,4.3C323.07,60.81,321.59,62.41,321.59,63.19Zm13.66-29.72c.68,3.56,7.51.14,8,7.81.24,3.86-3.18,5.54-6,5.48-2.4-.06-2.83-.59-2.83-.59a11.33,11.33,0,0,1-2.27,2.7,10.08,10.08,0,0,0-1.71,2s.47.57,2.85.08c3.44-.72,5.14-3,8.78-3,1.11,0,1.24,1.81,2.22,1.81-.14-.55.65-1.68,1.12-2.27a1.68,1.68,0,0,0-.19-2.59c.19-1,1.57-.82,1.67-1.41a8.79,8.79,0,0,1-3.25-6.4,1.45,1.45,0,0,1,1.08-1.38c.3,0,1,.07,1,.72s-.89.79-.89,2.36c0,3.09,3.55,4.1,3.55,5s-1.64,1.11-1.64,1.11l-.1,5c-1.61,4.57-4.76,9-6.07,10,.66-.56,4-7.46,3.61-7.71S341,58,338.59,59.29c.39-.33,4.82-7.51,4.33-7.87-.27-.2-3.09,4.77-7.58,8.43a28.11,28.11,0,0,1-12.59,5.31c1.9,2.46,6.89,1.09,6.89,2,0,1.25-2,2.6-2,5.65,0,4.72,2.13,9.41-.2,13.45A20.4,20.4,0,0,0,337.31,73a14.21,14.21,0,0,1-6.76,1.7c-1.28,0-2-.72-2-1,6.53-4.24,12.94-12.1,13.33-13,.63-.19,2.69-3.77,4.1-6.72s2.5-4.13,2.23-3.61a39.33,39.33,0,0,1-6.62,13c-3.51,4.55-10.09,9.86-10.09,9.86s4.75.23,6.77-1.86c.55-.11,1,.14,1,.56s-1,.52-1,2c.07,8,8.58,14.33,9.74,14.57a26,26,0,0,1-1.34-8.24,183.63,183.63,0,0,1,1.78-19.9c.19-1.29-.64-2.46-.39-3.15s.25-.39.52-.39c.82,0,.66,3.92,5.6,4.86-2.61-6.48-.89-13.68-.89-14,0-1.13-.94-1.59-.51-2.64a6.79,6.79,0,0,0,3.07.81,3.61,3.61,0,0,0,2.28-.53,8.58,8.58,0,0,1-2.84-6c0-.46-.83-1-.83-1.43a.48.48,0,0,1,.28-.49c.94.58,2.19-.52,3-.48,0-1,1.59-2,1.78-5.4s-1.29-4-2.47-4c-.89,0-1.49.49-1.88-.16.73-.62,4.27-1.1,4.27-4-2.26,2-5.66,1.21-7.88,2.17,0,0-.47-.17-.47-.58,2-1.65,8.69.64,9.87-5.86-1.57,1.18-5.52,3.56-9.12,3.56-1.14,0-2.93-.31-4.56-.31-3.23,0-4.86,1.62-5.15,2.46a30.81,30.81,0,0,0-6.86.79C335.83,26.78,334.75,30.91,335.25,33.47Zm21-4.66c.73,0,1.09.3,1.35.14-.26.55-2.17,2.65-3.61,2.65a.58.58,0,0,1-.49-.19C353.81,30.42,355.55,28.81,356.27,28.81Zm-.59,2.66c.43.2,1.35,0,1,.66s-.92,1.67-.92,1.67.36.33.52.26,1.28.2,1.58,0c-.2.53-.56,2.79-3,2.79a1.7,1.7,0,0,1-1.71-1.77C353.12,33.57,355.68,31.87,355.68,31.47ZM344.46,26c3.11,0,4.11,4.7,6.93,4-.51,1.07-2.22.6-2.79.88a5.41,5.41,0,0,1-3.19,1.22c-1.79,0-2.6-.75-4.29-.75a3,3,0,0,0-1.64.53s.1-1.26,1.75-1.26,2.52.37,4.18.37A3.75,3.75,0,0,0,348,30c-1.22-.25-2.22-3-3.65-3a2.68,2.68,0,0,0-1.52.77c.19.19,1.11-.36,1.6-.36,1.48,0,1.39,2.43,1.6,2.52a4.42,4.42,0,0,1-1.88.32,15.39,15.39,0,0,1-2.69-.56c.16-.17.09-.51.64-.51s1.09.19,1.09-.26-.93-.49-.83-.74c-.47.3-1.22,1.55-1.88,1.55s-.72-.31-.72-.31C340.74,29.36,341.83,26,344.46,26Zm-6.53,1c.11-.47.75-.23.94-.47.27,1.07-1.37,1.75-1.67,2.16s-.25,1-.79,1S336,29.25,336,29s.28-.7.28-1.08a.81.81,0,0,0-.32-.6A6.35,6.35,0,0,1,337.93,26.92Zm1.53,18.29c-1-.24-1.5-.78-2.37-.75s-1.42.73-1.87.84C337,45.58,337.87,46.41,339.46,45.21Zm-32.22,75.57a47.62,47.62,0,0,0,2-5.31,7.27,7.27,0,0,1,.65-1.07c.34-1.39.35-.94.8-2.89-2,.54-4.79-1.24-4.79-1.24-.66.36,3,2.27,2.64,2.68C305.45,116.29,307.24,120.78,307.24,120.78Zm0,0a47.62,47.62,0,0,0,2-5.31,7.27,7.27,0,0,1,.65-1.07c.34-1.39.35-.94.8-2.89-2,.54-4.79-1.24-4.79-1.24-.66.36,3,2.27,2.64,2.68C305.45,116.29,307.24,120.78,307.24,120.78Zm28,73.22c-.5-.6-1.11-2.19-1.45-2.28s-3.05,4.2-1.83,9.5a23.19,23.19,0,0,0,.3-2.58C332.81,195.83,333.49,195.08,335.25,194Zm-5.7-3c1.05-1.22,3.71-3.89,4.75-4.84l-2.41,1A11,11,0,0,0,329.55,191ZM340,201.14c-.59-.43-2-1.78-2-1.78s.46,6.17,2.84,7.66A9.6,9.6,0,0,1,340,201.14ZM310.63,116c-1,3.27-2.41,6.71-4.68,8.52a5.46,5.46,0,0,1,1.27.26c.67-.51,2.62-4,3.3-4.66a22.72,22.72,0,0,1-2.46,5.5,44.87,44.87,0,0,0,2.54,9c0-1.78.51-4.74,1.27-4.91-1.27-1.18-1.44-3.55-2.28-3.8,1-2.2,2.79-7.2,2.79-8.38s1-4.61,1.35-4.23-1.35,9-2.28,11.17l1,.5a46.11,46.11,0,0,1,2.2-6.59c.34,2.11-1.18,7.1-1.18,7.1,1.35,2.88,3.28,4.45,4.72,4.62-2.1-3.54,1.37-8.26.27-10.88.42-1.18,1.92.85,2.22,2.14a5.93,5.93,0,0,1,.23,1.58,10.27,10.27,0,0,0,1.1-4.65c0-2.71-.84-4-.84-4.91,1.1,0,2,2,2,3.21,0,.91,2.73.43,3.33-3.8.35-2.51-2.54-4.31-2.54-4.31s4.14.51,4.06,2.79c.84-.76,2.28-2.79.34-5.58s-1.78-3.05-.34-2.37a4.21,4.21,0,0,1,2.28,3.3c.6.42,1.7-1.86,1.19-4.32a10.65,10.65,0,0,0-2.29-4.4c1.27-1.44,2.2,1.61,3.22,1.78-.17-3.13,4.23-5.25,4.23-5.25.73-1.22,1.21-4.35,2.28-5.92,1.3-1.89,3.13-2.06,3.13-1.18-2.87.42-3,5.16-3.47,6.09.6-.09,2.12.42,1,1s-3.13.77-3.64,2.46c2.37-.43,4.15-1.36,4.23.08-2.2,1.35-4.82.68-4.82,2.37,0,.68,1.94,1.27,1.94,1.27a19,19,0,0,1,3.75,10.56c0,6.77-1.72,7.38-1.72,8.48s3.05,3,2.71,5.32c1.78-3.55.68-9.3,1.61-10,3.05,8.12-4.92,19.67-4.92,24.91,0,17.26,10.25,16,10.25,27.29a6.06,6.06,0,0,1-.93,3.13c-1.1,0,.51-3.81-1.52-3.89-3.3,4.32-2.73,17.95-4.11,23.07a12.54,12.54,0,0,1-2.81,0c-1.38-.95-3.19-2.32-4-3-1,.93,2.27,3.12,1.74,3.12-.23,0-2.72-1.82-3-1.66a8.47,8.47,0,0,0-3.71,3.71,11.6,11.6,0,0,0-1.62,6.45c.41,0,2.39-6.32,4.65-7.78l.68,0,0,0,1.81.09h0a10.34,10.34,0,0,0,2.09.11l3.46.15s0,.53-.05.53c-1.61-.42-5.87.33-6.92.3.27.67,1.14,1.7,1.31,2.07a45.1,45.1,0,0,0,5.84-1.09c-.25,1.44-5.71,2.07-5.71,2.07-4.76,2.77-2,12.83-2,12.83s.55-1.62.78-2.5c.18-.67.31-2.94,1.16-3.61a4.11,4.11,0,0,0,1.27-3.39c7.11-4.23,6.85-7.7,7.78-7.36,0,3.13-6.69,8.21-6.69,8.21l1.83,1.45s3.08-3.82,3.51-3.82c.19,0-.52.87-1.13,1.82a20.2,20.2,0,0,1-1.92,2.66c.39,1.68.33,6.54,3.37,7.88a17,17,0,0,1-.1-5.28c1.12-2.07,2.32-2.68,2.82-4.12.94-1.94,2.37-4.48,2.37-4.48a7.43,7.43,0,0,0,3.29,3s-1.09-2.61.69-4.14-3.13-5.5-3.13-5.5,1.78-.84,2.79.43,1.27,2.37,1.69,2.53-.08-2.28.76-3.12-.5-4.4-3.12-4.83c1.35-1.52,3.63.85,4.56.85.09-1,1.53-2.62.42-3.89s-2.79-3-2.79-3c1.95-.93,2.88,1.27,4.15,1,0-1.27,1.27-2.46-.42-4.06a12.59,12.59,0,0,0-2.37-1.95,6.82,6.82,0,0,1,3.89,1c-.42-2.11.08-3.55-1.1-4.82a3,3,0,0,0-2.2-1.1c.17-1.86,2.2-.25,3.13-.59-1.1-1.44,1.44-4.06.68-6.34-6.35,2.87-7.28-8.72-8.29-9.31.25-4.57-2.4-17.94-2.63-21.15-.25-3.55.26-5.25.6-2.71.14,1,1.12,4.65,1.6,8.72.69,5.82.85,12.43,5.75,12.43,5.08,0,5.08-5.24,5.08-7.7s-2.71-13.28-2.71-15c2.38-2.12,2.88-6,3-9-.51.76-3.3,4.14-3.3,5.07-1-1.69,2.87-5.07,2.79-7.19a16.07,16.07,0,0,0-.85-4.23c-.1.56-1,2.89-1.52,4.82-.37,1.32-.4,2.54-.68,2.54-.67,0-.25-2.54.09-3.72.19-.67,1.76-3.37,1.77-5.92,0-8.13-1.7-5.6-.45-10.29-1.94,2.9-3.64,9.11-3.64,15.46-.3-.81-.61.92-.85.16a40.78,40.78,0,0,1-1.06-9.56c0-2.76,4.65-11.68,4.65-18.79s-5.5-10.07-5.75-12.94a4.32,4.32,0,0,1,2.11-4.06,4.26,4.26,0,0,0-.08,4.91c1.18-3.22,5.66-4.74,5.58.93,1.53-1.36,1.61-7.53-4.57-7.53-4.82,0-5.87,5.69-5.87,8,0,6.34,5.7,13.42,5.7,17.06,0,4.31-2.28,7.95-2.2,9.14-.08-2.12,1.44-8,1.36-9.65-1.1,1.1-1.7,5.67-2.2,6.6a43,43,0,0,1,1.27-9.39c-.93,1.52-2.71,6.35-2.54,7.7-.17-1,1.27-7.78,1.44-9.81a46.5,46.5,0,0,0-2.5,15.61c0,11,9.35,27.62,9.35,38.87,0,3.64-1.61,4.65-2.45,4.65-6.94,0-11.93-55.67-11.93-55.67-3.69-3-8.34-10.65-8.34-10.65l-.76-.28a30.48,30.48,0,0,1-5.62,7.21c-1.48,1.27-4.28,2.58-6.09,3.74a11.83,11.83,0,0,0-2.63,2.19L321.41,91A38.69,38.69,0,0,1,325,87.63c1.25-.9,2.29-3.5,2.29-5.7s-.86-5.46-.85-7.78c0-3.08,1.41-5.46.85-5.64-1.73-.55-4.22-1.47-5.54-2.06-.91,2.3-2.58,2-3.4,3.74-1.05,2.17-1.18,5.13-1.18,7.88,0,4.06,1.7,5.32,2.42,5.32.4-.93.67-3.89,1.69-6.62.92-2.47,2.59-4.19,2.79-4.83.51.85-1.33,2.84-1.94,6.77-.85,5.42-5.55,16.18-6.85,20.9S311.43,114.15,310.63,116Zm15.79,54.46c5.5,0,6-2.28,6.6-2.28a.7.7,0,0,1,.76.76c0,.34-1.61.93-1.69,1.69,4.23.77,5.67-1.1,7.36-1,0-1.78-2.45-2.45-2.45-3.89a4.37,4.37,0,0,1,2.11-3.56c0-6.6-4.9-2.79-4.9-16.75,0-5.41.76-10.15,1.85-10.66-3.63.43-2.53,12.27-2.53,12.27s-.26,1.18-.76,1,.17-1.27-1.1-1.27c-1,0,.34-1.18.93-.92s.09-1.53-.43-1.53c-.93,0-1.29-1.35,0-1.35,1,0,.6-1.1.09-1.44s-1.78-.84-.17-1.44c0,0,.51-.84-.25-1.1s-.09-.84-.17-1.69c.84.42,1.47.42,1.43-.85-.06-2.06,5-5.66,6.52-4.06.76-.84-.09-1.27-.09-2.45a13.28,13.28,0,0,1,.85-3.38c1.1,0-.59,3.38.59,3.38.09-1.18,1.1-3.38.51-4.15s-.32-1.14-1-2.66a2.84,2.84,0,0,0-1.8-1.6c-1.35.42-5.67,2-11.68-1.74,0,0-.68-.27-1.1,1-.57,1.77-.93,6.12-.93,15,0,13.7,5.33,20.47,5.33,21.49s-2.28-1.36-4.4-1.36c-5.83,0-9.39-.17-13.19-6l-1.44.25,3.32,3.7c-1.27,0-4-3.11-4-3.11s-6,3.21-6,5.25.72-.8,2.37-.68c2,.14,4.23-1.95,4.83-1.61a9.19,9.19,0,0,0,3.13,2.37c3.23,1.33,8.61,2.38,7.95,2.54-2,.48-11.83-2-13-2.5l-3,1.62c.82.22,7.09,1.85,6.6,1.94-2,.39-7.2-1.53-7.43-1.21,0,6,1.11,8,1.11,8,.41-3,.68-5.41,1.53-5.33,2.11.2,6.63.29,6.63,2,0,1.44-4.49,1.53-4.4,2.71,1.18.17,5,.76,5.75.34s2.63-1.18,2.63-.51c0,1.36-2.88,1.44-2.88,1.44a5.41,5.41,0,0,0,3.38,1c2.2,0,2.29-1.19,2.29-1.19,3.38,0-1.1,1.61-1.27,2,1,.17,4.48.59,5.16.09s2.37-1.53,2.71-1S327,169.75,326.42,170.42Zm-10.23-21.56c-1.26.85-1.94-1.12-4-.25,2.07.55,2.75,2.1,4.11,2.77-.34-1.35,1.26-2.91,1.26-2.91s-.67-2.84-5.07-1.37C314.43,147.44,315.87,146.64,316.19,148.86Zm-10.26,3.52c2.78-3.35,5.34-3.75,5.34-3.75-.08-.2-.09-1.26-1.81-.57C308.21,148.72,307.17,149.78,305.93,152.38ZM314,128.12c-.42-1.1-.89-2-1.82-2a4.35,4.35,0,0,0-1.18.09c1.14,1.78,3,4.1,3,4.1a33.43,33.43,0,0,1,3.93.66C316.33,130,314.41,129.22,314,128.12Zm-6.81-15.49-1.53-1.19a8.81,8.81,0,0,0,.45,5.68C306.3,113.79,306,113.78,307.17,112.63Zm-.05,13.48a4.13,4.13,0,0,1-1.42-.53,14.5,14.5,0,0,0,3.39,8.31C307,129.33,307.12,127.81,307.12,126.11Z"/></g></g></svg>