<svg xmlns="http://www.w3.org/2000/svg" viewBox="0 0 1000 961.91"><defs><style>.cls-1{fill:#d73648;}.cls-2{fill:#fff;}</style></defs><title>CardiffUni_logo</title><g id="Layer_2" data-name="Layer 2"><g id="Layer_1-2" data-name="Layer 1"><rect class="cls-1" y="492.71" width="1000" height="469.2"/><path class="cls-2" d="M911.88,641.07c-5.38,3.29-26.27,3.52-38.93,3.52-.24-15.23-.24-31.91-.24-47.6,0-8.45.46-17.51.73-26.41.22-4.48-1.21-6.8-9.17-6.8h-9.38c.69,11.48,1.16,22.65,1.16,33.42v24.65c0,8.66-.23,17.35-.71,26.27-.24,3.51.48,6.81,8.44,6.81h42c3.28,0,6.1-4,6.1-6.58ZM695.17,609.64l-10.08.22c1.17,3.52,1.17,13.39,1.17,19.72,0,4.47-.23,8.92-.23,13.36-5.4,2.35-13.61,3.07-19.47,3.07-21.82,0-34.73-15.5-34.73-36.37s12-37.3,34-37.3c11.95,0,24.39,7.27,30.25,12.67l2.83-8c1.14-4.21-.48-6.83-3.08-8-9.38-4-16.87-6.08-30-6.08-30.52,0-52.8,14.3-52.8,46.67,0,31,22.77,46.46,52.08,46.46,11,0,26.52-3.06,37.54-6.34v-12c0-7.28,0-13.83.23-21.34C703.17,612.93,700.35,609.41,695.17,609.64Zm89.17,111.48h-15a17,17,0,0,1-1.17,7.5c-3.06,6.35-6.83,12.91-10.33,19.25-4,7.25-11.26,19.23-15,25.08-9.15-14.78-16.9-30-25.13-45.28-1.87-3.52-5.16-6.33-11.72-6.33H687.7c15.71,22.54,27.91,42.94,41,65.22,0,12.92.27,29.56-.91,43.17-.25,4,2.34,6.33,7.5,6.33H752c-1.65-16.41-1.65-34.94-1.65-50.67,10.8-19.47,23.23-37.52,36.62-57.23a5.67,5.67,0,0,0,1.17-4C788.1,722.53,786.93,721.12,784.34,721.12ZM545.11,584.7c0-8.21,7.27-12.88,15-12.88,8.44,0,15.27,4.67,19.71,11.23,1.67-2.79,4.94-7.26,4.94-11.23,0-7.77-17.61-9.65-23.45-9.65-15.72,0-31.21,8.7-31.21,25.82,0,30.48,42.7,22,42.7,42,0,9.62-6.81,15.48-16.43,15.48-9.85,0-20.88-5.39-26-13.37-.72,3.51-2.36,7.28-2.36,11s1.4,6.58,4.92,8.21c5.64,3,12.91,4.46,19.24,4.46,18.05,0,35.43-10.33,35.43-30C587.58,597.14,545.11,605.81,545.11,584.7Zm-36.85-21.24-12.21.21c0,3.31-4.92,12.23-10.09,20.9-5.16,8.22-10.31,16.43-12.64,19.7C466,592.53,459,580.58,452,568.85c-2.35-4-5.64-5.18-10.11-5.18H427.09c12.68,17.38,24.39,35.22,35.65,53.51v10.33c.24,8.44-.68,17.58-.68,22.52,0,3.74,3.27,4.68,6.08,4.68h12.43c-1.4-12.9-1.4-26.27-1.4-39.4a368.75,368.75,0,0,1,21.59-32.62c3.06-4.69,6.56-9.14,9.61-13.6a7,7,0,0,0,1.19-3C511.56,564.16,509.91,563.46,508.26,563.46ZM404.07,564H352.45c.23,4.93.71,9.37,1.17,14.3.24,8.68.47,27,.47,33.57,0,15.73-.67,24.14-.67,36.33,0,4.71,2.55,6.57,7,6.57h11.24c-.7-10.53-1.39-20.85-1.39-31.39v-12c8.21,0,28.84.24,36.11,2.33,0-4.2,1.18-12.19-5.15-12.19-6.81,0-18.53,1.41-31,1.41v-19c0-3.54.23-7.05.46-10.56,9.62,0,29.55-.22,38.71,3.29C409.46,572,410.87,564,404.07,564Zm-95.49,40.84c0-18.05.95-22.28.95-33.57,0-5.13-1.88-7.72-7.52-7.72H291.23c.95,8.92,1.39,18.54,1.39,42.23,0,22.52-.93,27.45-.93,41.29,0,4.71,2.36,7.51,7.05,7.51H310C309.06,644.27,308.58,629,308.58,604.85Zm71,188.63c-9.38,4.7-21.83,4.7-35.42,4.7-3.53,0-4-2.12-4.23-6.34V759c12.67,0,26,.47,34.49,3.29l.45-7.26c.25-4.94-2.57-6.81-9.36-6.81-7.51,0-16.2,1.17-25.81,1.17,0-5.65.23-12.91.23-18.55,0-4.68.26-11.71.47-16.4,27.45,0,34.26,2.33,38.24,4v-5.16a9,9,0,0,0-8.91-9.15H318.15c2.34,2.59,2.58,12,2.58,15.24.47,13.83.24,33.56.24,50.44q0,14.78-.71,30.27c-.22,5.16.94,8.21,6.35,8.21h44.57c4.68,0,8.44-2.35,8.44-7.28Zm-156-90.57C207.61,694.69,187,690,168.21,690c-62.87,0-104.64,50.68-104.64,112.62,0,60.06,45.76,99,104.17,99,19.47,0,45.5-5.64,61.24-17.6l-2.37-19.93C216.05,875.11,195,884,179.71,884c-51.84,0-86.34-42.93-86.34-92.9,0-42.71,24.39-84.93,71.33-84.93,15.72,0,31.65,4.94,43.38,15.26,5.63,4.93,12.9,14.78,13.62,22,4.44-6.81,12-18.77,12-27C233.66,710.18,228.5,705.5,223.58,702.91ZM779.15,563c-30,0-50.43,15.93-50.43,46.67,0,28.86,22.54,46.46,50.43,46.46,28.16,0,50.68-17.37,50.68-46.46S807.31,563,779.15,563Zm0,83.73c-21.08,0-31.66-17.82-31.66-37.06,0-19.46,10.58-37.3,31.66-37.3,21.37,0,31.91,17.37,31.91,37.3C811.06,631.22,803.33,646.7,779.15,646.7Zm90.48,57.63c-16.66,0-34,0-50.91.22,2.1,2.57,3.52,8.23,3.76,12,1.16,15.48,1.88,30.49,1.88,46.2-16,0-32.87,0-48.81.24,2.11,2.58,3.28,8.21,3.76,12,1.41,16.68,1.86,32.38,1.86,49,0,21.36-.45,42.94-1.4,64.29-.25,3.29,2.82,5.63,6.33,5.63h38c41,0,71.55-22.07,73.67-63.36,26.05-8.9,43.17-30.25,43.17-62.86C941,722.15,911.84,704.33,869.63,704.33Zm27.91,111.9c-3.27-31.91-23.21-47.64-52.08-52.1,0-17.58.7-32.82,1.41-49A91,91,0,0,1,860.7,714c33.77,0,57.25,20.17,57.25,54.89C918,789.24,911.37,806.6,897.54,816.23Zm-28.39,8H853.2c-4,0-6.1-2.11-6.33-5.4-.93-14.07-1.64-28.15-1.64-40.84,17.36,7.76,28.61,23.72,29.55,46C872.89,824,871,824.21,869.15,824.21Zm-42.94,58.41H810c-4,0-6.33-1.89-6.57-5.15-.94-15.51-1.39-29.57-1.39-45.29,0-19.48.45-40.14,1.63-58.64a87.3,87.3,0,0,1,13.83-1,62.71,62.71,0,0,1,6.83.24q0,28.53-1.42,57c0,3.29,2.81,5.39,6.32,5.39h38c2.36,0,4.93,0,7.27-.23C872.2,862.43,857.19,882.62,826.21,882.62Zm-226-177.84c-20.87,0-43.63.47-61.69.47,3.5,4.93,4.91,14.32,5.86,33.32.7,13.82,1.18,27.92,1.18,42q0,25.7-.73,51.38c-.45,9.38-1.16,18.52-1.16,27.91,0,4.46,3.76,6.81,7.73,6.81h47c52.07,0,91-28.86,91-83.52C689.38,727.08,652.31,704.78,600.24,704.78Zm.47,148.05h-20c-4.69,0-7-1.65-8-6.35-.71-4.7-.95-11.49-1.18-16.41-.46-10.57-.7-26.28-.7-39.41,0-24.17,1.17-48.33,2.1-72.26a105.82,105.82,0,0,1,17.36-1.4c41.77,0,70.61,23.68,70.61,67.56C661,823.27,642.22,852.83,600.71,852.83Zm-126-49.5c24.4-7.76,42-27,42-53.49,0-33.77-30.26-46.23-59.58-46.23-19,0-38.25.48-57.48.72,2.34,4,3.29,13.59,3.29,18.54,0,23.2.47,44.32.47,60.5,0,44.81-2.11,70.63-2.11,79.06,0,3.54,1.41,4,4.46,4,10.09,0,19.69-.23,29.56-.23-1.41-1.41-2.36-4.68-3.06-8.92a367.32,367.32,0,0,1-3.05-49c6.32,0,13.56-.25,19.91-.47,8.28,13.11,18.57,28.36,30.26,43.85,17.69,23.22,41.7,50,69.67,50a204.46,204.46,0,0,0,20.81-1.41C537.06,888.69,494.37,832.88,474.66,803.33Zm-29.31-6.59c-5.66,0-10.8.25-16.44.25v-28.4c0-16.87.24-36.12,1.4-52.52,4.95-.48,10.57-1,16-1,23.93,0,43.18,12.67,43.18,38.48C489.45,779.62,470.46,796.74,445.35,796.74Zm-213-180.86c12.2-3.75,22.76-12.2,22.76-26.75,0-19.47-17.12-25.1-33.31-25.1-7.25,0-14.78-.24-22.05-.24-3.52,0-7.27.24-10.8.24a13.37,13.37,0,0,1,2.11,6.1c.7,10.09.48,25.55.48,38.24,0,8.9-.23,18.08-.48,27-.23,4.47-.46,8.69-.46,13.15,0,4.21,2.57,5.86,6.57,5.86s8-.23,12-.47c-1.41-7.5-1.61-24.16-1.61-35.44h9.58c7.05,11.28,13.87,22.08,22.06,32.87,6.81,9.39,14.56,13.13,26.27,13.13h4.93C264.52,660.7,244.83,634.89,232.38,615.88Zm-19.93-4.94h-5.17v-9.13c0-6.82.27-23,.47-30,2.82,0,5.4-.24,8-.24,12,0,23.21,6.79,23.21,19.7C239,606.72,225.35,611.19,212.45,610.94Zm-80.14-46.62-33.07-.21c1.42,2.11,1.87,9.39,2.1,16.41.48,13.15,0,26.53,0,39.41,0,9.17-.46,18.06-.46,27.22,0,4.22,1.88,7.52,6.57,7.52h11.26c-.95-11-1.17-23.7-1.17-35.42,2.81.21,5.62.21,8.43.21,18.55,0,38.73-8.91,38.73-30.26C164.7,570.21,148.49,564.57,132.31,564.32ZM124.79,612c-2.35,0-5.37-.49-7.25-.49V572.54l9.14-.22c12-.24,21.12,4.68,21.12,18.06C147.8,604.7,137.7,612,124.79,612ZM317.91,840.39,269.12,728.71c-1.64-4.21-3.05-7-8-7h-3.06l-56.3,119.66a11,11,0,0,0-1.4,5.63c0,2.35,2.57,2.8,4.71,2.8h12.4a11,11,0,0,1-.22-2.8,20.73,20.73,0,0,1,1.41-7l12-29.08H279l13.13,32.61c1.65,4,3.53,6.09,8.22,6.09h23.91C321.9,847.9,319.08,843,317.91,840.39Zm-82.36-39.87L256,753.11l18.78,47.41Z"/><rect class="cls-1" width="1000" height="469.21"/><path class="cls-2" d="M933.23,58.42H836.58c3.29,19,3.75,53.5,3.75,93.38,0,32.13-2.58,86.56-2.58,96.19,0,6.09,3.53,9.38,9.63,9.38H872c-1.68-3.77-2.35-9.38-2.6-13.61-2.11-28.86-2.81-58.18-2.81-87,4-.23,13.4-.95,14.79-.95,13.85,0,33.06,0,45.75,5.41,1.18-3,2.81-6.34,2.81-9.62,0-7.27-7.5-8.92-13.37-8.92h-50c0-23.44.95-46.9,1.88-70.37H884c13.85,0,50,0,61,6.8,1.19-3.3.93-7.28.93-10.79C945.89,61.72,939.81,58.42,933.23,58.42ZM809.58,68.76H726.09c4.68,8.2,4.46,66.38,4.46,78.33,0,25.12-2.36,61-2.36,75.32,0,4.7,2.12,9.15,7.5,9.15h24.87c-2.34-6.33-3.52-17.59-4-32.38-.49-13.13-.49-29.32-.49-47.62,3.53,0,10.1-.69,14.56-.69,13.15,0,26,.21,38.24,5.39,0-3.53.92-7,.92-10.57,0-5.39-4.67-7.73-9.58-7.73H756.35c0-18.54.92-36.83,1.63-55.36,5.41,0,10.81-.25,16.19-.25,15.26,0,36.84.45,50.66,6.82v-.7C824.83,77.89,821.8,68.76,809.58,68.76Zm-117.72,84c0-13.37.47-26.76.73-39.86.2-7.06.92-14.32.92-21.38,0-3.51-3.53-5.38-6.57-5.38H664.41c3.28,16.66,3.05,44.57,3.05,62.16,0,12.91-.22,26-.7,39.19,0,5.87-.46,12.19-.46,18.06,0,4.46,2.81,7.73,7.27,7.73,7.28,0,14.31-.23,21.58-.46C692.11,202,691.86,165.16,691.86,152.73ZM914.45,307.1l-12,.24c-.22,3.05-4.94,12.19-10.31,20.86-4.93,8.23-10.32,16.44-12.44,19.49-7.51-11.5-14.31-23.46-21.58-35.19-2.34-4-5.38-5.16-9.85-5.16h-15c12.92,17.34,24.62,35.17,35.9,53.49v10.1c0,8.67-1,17.35-1,22.28,0,3.51,3.28,4.68,6.35,4.68h12.19c-1.18-12.91-1.41-25.82-1.41-38.93,6.57-11.27,14.07-22.08,21.57-32.63,3.31-4.69,6.58-9.15,9.63-13.58a5,5,0,0,0,1.17-3.07C917.75,307.8,916.12,307.1,914.45,307.1Zm-88.59.24h-66.4c-4.9,0-9.85,2.79-9.85,8.21v4.92c6.81-1.4,21.57-1.65,29.79-1.65.47,10.79.47,21.36.47,32.15,0,18.53-.93,27.22-.93,40.83,0,4.68,2.82,6.09,7.28,6.09h11.24c-1.39-12.91-1.39-25.82-1.39-46.21,0-10.79-.24-24.88.22-32.86,8.94,0,17.6,1.18,23.94,1.18,4.45,0,5.63-4.45,5.63-8.21Zm-91.33,40.83c0-18.08.93-22.3.93-33.56,0-5.19-1.88-7.73-7.5-7.73H717.17c.93,8.91,1.4,18.53,1.4,42.2,0,22.54-.92,27.69-.92,41.3,0,4.69,2.33,7.51,7,7.51H736C735,387.57,734.53,372.32,734.53,348.17ZM652.08,328c0-8.23,7.27-12.68,15-12.68,8.44,0,15.25,4.45,19.71,11,1.64-2.81,4.91-7.26,4.91-11.26,0-7.73-17.58-9.37-23.22-9.37-15.93,0-31.43,8.43-31.43,25.55,0,30.52,42.7,22.07,42.7,42,0,9.6-6.8,15.72-16.41,15.72-9.89,0-20.87-5.64-26-13.63-.73,3.53-2.35,7.28-2.35,11s1.4,6.58,4.91,8.22a42.26,42.26,0,0,0,19.25,4.67c18,0,35.41-10.29,35.41-30.25C694.54,340.41,652.08,349.08,652.08,328Zm-130.74,56.3c-7.3,3.51-19.5,3.74-27.47,3.74h-6.34c-3.5,0-3.5-1.86-3.5-4.91-.25-2.36-.25-19-.25-21.35v-7c9.16,0,24.63.21,33.08,2.8.24-2.32.47-4.93.47-7.27,0-4.22-3-5.4-6.8-5.4-8.69,0-18.06,1-26.75,1v-15.5c0-4.45.48-9.15.69-13.83,8.69,0,28.18,0,36.13,3.27,0-5.4,0-12.42-7.72-12.42H465a13.45,13.45,0,0,1,1.88,5.16c.69,11,.69,22,.69,33.07,0,15.26-.69,30.51-.69,45.77,0,3.73,1.17,6.08,5.39,6.08h42c4,0,7-2.12,7-6.33Zm-75-77.41h-12.7c1.17,3.51-1.65,11.49-3.05,14.52-7,17.38-16.44,39.09-23.75,53.85-4.7-9.84-11.92-27.49-17.79-41.56-3.06-7-5.38-13.22-8.44-20.25-2.34-5.39-5.86-6.34-11.49-6.56-3.54,0-8-.26-11.7-.26,14.09,30,28.15,60.3,40.59,91.27h12C422,368.8,435.58,340.65,449,312a3.44,3.44,0,0,0,.47-1.65C449.43,308.52,448.26,306.88,446.38,306.88ZM224.05,67.33c-15.73-8.22-36.37-12.9-55.14-12.9C106,54.43,64.26,105.1,64.26,167c0,60.29,45.77,99,104.18,99,19.46,0,45.51-5.65,61.22-17.6l-2.35-19.95c-10.54,11.26-31.67,19.95-47.14,19.95-51.62,0-86.09-42.93-86.09-92.91,0-42.67,24.39-84.69,71.31-84.69,15.72,0,31.68,4.92,43.41,15.26,5.4,4.69,12.9,14.55,13.61,22,4.44-7,12-19,12-27.22C234.37,74.59,229.2,69.91,224.05,67.33ZM338.29,348.17c0-18.08.95-22.3.95-33.56,0-5.19-1.64-7.73-7.28-7.73h-11c1,8.91,1.41,18.53,1.41,42.2,0,22.54-.93,27.69-.93,41.3,0,4.69,2.34,7.51,7.26,7.51h11C338.76,387.57,338.29,372.32,338.29,348.17ZM289,307.34h-9.39c.7,15.24.95,30.49.95,45.75V368.8c-22-20.42-42.46-41.3-64.06-62.4h-6.33c.24,4.22.24,8.67.24,13.13,0,17.6.22,41.53-.7,52.79-.71,12-1.66,15-1.66,21.57,0,3.08,1.66,4,4.7,4,3.29,0,6.56-.22,10.09-.22a199.87,199.87,0,0,1-1.63-29.11c0-11.26.46-21.83.46-33.08,21.82,21.35,43.4,41.29,64,63.8H292c-.47-15.23-.71-30.48-.71-45.51,0-8.44.71-16.17.95-23.92.25-6.56,1.18-13.85,1.18-17.81C293.42,309,291.78,307.34,289,307.34Zm-112.32-.46h-8.43a153.8,153.8,0,0,1,1.64,25.32c0,5.4-.24,15.26-.24,23,0,18.5-5.62,33.07-27.2,33.07-24.87,0-27.45-15-27.45-36.13,0-13.61,1.4-29.57,1.4-41.06,0-3-1.88-4.21-4.93-4.21H98.31c.69,10.07.93,16.64.93,32.37,0,6.57-.47,15.48-.47,22.28,0,27,15.25,37.75,41.05,37.75,24.63,0,40.12-13.11,41.05-38.22.72-23.93,2.11-41.3,2.11-49.27C183,307.8,180.17,306.88,176.64,306.88ZM552.48,69.45c-21.11,0-43.88.24-61.68.24,3.26,5.16,4.67,14.56,5.62,33.53.94,13.84,1.16,27.92,1.16,42,0,17.11-.22,34-.7,51.14-.25,9.39-.93,18.76-.93,28.13,0,4.26,3.77,6.82,7.72,6.82h46.69c52.33,0,91.27-28.84,91.27-83.51C641.63,91.72,604.56,69.45,552.48,69.45Zm.47,148H533c-4.91,0-7.27-1.63-8-6.57-.93-4.69-.93-11.26-1.18-16.18-.43-10.57-.68-26.29-.68-39.42,0-24.17.93-48.32,1.86-72.51a113.23,113.23,0,0,1,17.6-1.17c41.75,0,70.39,23.72,70.39,67.58C613,187.69,594.47,217.48,553,217.48ZM589.07,359c12.21-3.54,22.77-12,22.77-26.51,0-19.5-16.9-25.11-33.32-25.11-7.27,0-14.55-.24-22-.24-3.52,0-7.05,0-10.8.24,1.42,1.63,1.86,4,2.12,6.1.7,10.08.46,25.34.46,38,0,9.15-.23,18.32-.46,27.22-.26,4.21-.48,8.67-.48,12.89,0,4.47,2.6,5.87,6.57,5.87s8-.24,12-.24c-1.44-7.5-1.65-24.15-1.65-35.41h9.6c7,11.26,13.84,21.8,22.06,32.84,6.81,9.39,14.54,13.13,26.27,13.13h4.92C621.23,404,601.74,377.94,589.07,359Zm-19.94-4.7H564v-9.15c0-6.82.25-23.23.7-30,2.6,0,5.16-.23,7.77-.23,11.93,0,23.21,6.8,23.21,19.7C595.65,350,582,354.26,569.13,354.26ZM327.5,204.55,278.69,92.9c-1.86-4.23-3.05-7-8-7l-3.06.24L211.38,205.52a11.73,11.73,0,0,0-1.41,5.86c0,2.13,2.58,2.59,4.68,2.59H227.1a10,10,0,0,1-.25-2.83,20.44,20.44,0,0,1,1.41-7l12-29.12h48.11l13.35,32.87c1.64,4,3.5,5.85,8.2,5.85h23.92C331.49,212.08,328.66,207.17,327.5,204.55Zm-82.58-39.84,20.65-47.39,18.75,47.39Zm177.5,3.57c24.38-7.73,42-27,42-53.5,0-33.77-30.25-46.2-59.58-46.2-19,0-38.25.45-57.49.7,2.36,4,3.29,13.6,3.29,18.52,0,23.24.48,44.33.48,60.53,0,44.82-2.12,70.61-2.12,79.07,0,3.52,1.41,4,4.47,4,10.09,0,19.68-.24,29.54-.24-1.4-1.41-2.33-4.7-3-8.91a362.14,362.14,0,0,1-3.06-49c6.31,0,13.55-.27,19.89-.47,8.29,13.09,18.57,28.34,30.26,43.85,17.68,23.19,41.72,50,69.69,50a205,205,0,0,0,20.81-1.39C484.82,253.63,442.11,197.84,422.42,168.28Zm-29.35-6.57c-5.62,0-10.77.22-16.42.22V133.56c0-16.89.25-36.15,1.43-52.55,4.9-.48,10.54-.94,15.93-.94,23.94,0,43.17,12.66,43.17,38.46C437.18,144.58,418.15,161.71,393.07,161.71Z"/><rect class="cls-2" y="469.21" width="1000" height="23.5"/></g></g></svg>