<svg xmlns="http://www.w3.org/2000/svg" viewBox="0 0 325.51 135.01"><defs><style>.cls-1{fill:#e7cb1b;}.cls-2,.cls-3{fill:#4a4947;}.cls-3,.cls-4{font-size:18px;font-family:Harabara;}.cls-4{fill:#403f3f;}</style></defs><g id="Layer_2" data-name="Layer 2"><g id="Layer_3" data-name="Layer 3"><rect class="cls-1" x="4.21" y="14.3" width="317.09" height="106.41" transform="translate(-5.5 15.19) rotate(-5.26)"/><path class="cls-2" d="M56.66,45.11a4.65,4.65,0,0,1-4.32,5c-1.12.1-2-.2-3.66-1.18a3.47,3.47,0,0,0-1.25-.49c.35,3.9,1.33,5.55,3.5,9.59,4.55,8.52,8.6,17.39,9.3,25.12.92,10.28-.44,15.39-10.87,16.33-4.43.4-8.79-1.86-9.12-5.53a4.64,4.64,0,0,1,7.42-4.15,20.88,20.88,0,0,0,0-3.56,10,10,0,0,0-1.19-4,116.29,116.29,0,0,0-7.63-13.31,29.7,29.7,0,0,1-2.28-4.34c-1.68-3.55-4.4-7.7-4.78-11.9-.32-3.6,2-9.56,5.85-9.9a4.34,4.34,0,0,1,1.76.22A8,8,0,0,1,45.29,39a20.65,20.65,0,0,1,5.82.76C53.53,40.62,56.41,42.33,56.66,45.11Z"/><path class="cls-2" d="M102.52,81.47A62.19,62.19,0,0,1,101,73c-.23-1.72-.91-9.3-.91-9.3a71.68,71.68,0,0,0-1.91-10.35l-.1-1a4.63,4.63,0,0,0-9.23.83c.84,9.31-2.25,19.65-7,25.07-1-6-2.75-18.81-3.27-24.52a4.73,4.73,0,0,0-5-4.24,4.58,4.58,0,0,0-3,1.56,4,4,0,0,0-1.3-.11c-1.8.16-3,1.71-2.76,4.63.36,4-.29,9.34.27,15.57,1.17,13.05,4.16,21.11,12.49,20.36C86,90.82,89.33,83.71,92.06,76.2c.4,2.77,1.65,8.25,1.8,10a4.64,4.64,0,0,0,5.07,4.23,4.58,4.58,0,0,0,4.16-5.06L103,83.92A22.18,22.18,0,0,0,102.52,81.47Z"/><path class="cls-2" d="M158.79,74.52c-.25-2.78.73-5.28.38-9.19-.89-9.9-4.5-18.13-12.76-17.39-.37,0-2.1.19-2.39.29A10.18,10.18,0,0,0,137.63,53,9.65,9.65,0,0,0,133,49.15a10.26,10.26,0,0,0-5-.69,12.42,12.42,0,0,0-5.65,1.95c-.39-3.45-2-4.74-5.09-4.46a4.21,4.21,0,0,0-1.33.34A6.51,6.51,0,0,0,114,46a4.81,4.81,0,0,0-4.3,4.32c-.18,1.38-.11,5.53,0,9.69l.73,20c0,1,0,2.12.06,3.1.29,3.23,2.08,4.65,4.44,4.82a4.59,4.59,0,0,0,4.74,3,4.73,4.73,0,0,0,4.24-5l-.26-2.85a19.74,19.74,0,0,1-.14-2.41c.09-1.52-.27-14.81-.53-21.06a5.67,5.67,0,0,1,2.27-.81c3-.27,5.53,2.53,6,7.33l1.48,16.44c.26,3,1.74,5.06,4.18,4.46,5-1.28,5.9-4.23,5.66-6.86-.29-5.72-2.23-21.44,4.15-22.92.75-.06.67-.06.75,0a4.46,4.46,0,0,1,1.2,1.56c.55,1.08,1,4,1.22,6.85s-.42,5.33,0,9.84c.46,5.17,2.12,9.34,6.18,9a4.56,4.56,0,0,0,4.16-5,14.34,14.34,0,0,0-.75-2.5A10.11,10.11,0,0,1,158.79,74.52Z"/><path class="cls-2" d="M216.2,69.36c-.25-2.77.73-5.28.38-9.18-.89-9.91-4.5-18.14-12.76-17.39a21.7,21.7,0,0,0-2.39.29A10.17,10.17,0,0,0,195,47.81,9.71,9.71,0,0,0,190.39,44a10.27,10.27,0,0,0-5-.68,12.29,12.29,0,0,0-5.65,1.94c-.39-3.45-2-4.74-5.09-4.46a4.23,4.23,0,0,0-1.33.35,6.18,6.18,0,0,0-1.92-.29,4.82,4.82,0,0,0-4.3,4.33c-.18,1.37-.11,5.53,0,9.68l.74,20c0,1,0,2.12.05,3.09.29,3.23,2.08,4.66,4.44,4.82a4.6,4.6,0,0,0,4.74,3.06,4.74,4.74,0,0,0,4.24-5L181,78a22.06,22.06,0,0,1-.14-2.41c.09-1.52-.27-14.8-.53-21.06a5.76,5.76,0,0,1,2.28-.81c3-.27,5.52,2.53,6,7.34l1.48,16.43c.27,3,1.74,5.07,4.18,4.47,5-1.29,5.9-4.24,5.66-6.87-.28-5.72-2.22-21.43,4.15-22.91.75-.07.67-.06.76,0a4.58,4.58,0,0,1,1.2,1.56c.55,1.09,1,4,1.22,6.85s-.43,5.34,0,9.84c.47,5.18,2.13,9.34,6.18,9a4.57,4.57,0,0,0,4.17-5,15.32,15.32,0,0,0-.76-2.51A10.57,10.57,0,0,1,216.2,69.36Z"/><path class="cls-2" d="M238.68,50.1l-.53,0a19.57,19.57,0,0,1,.1-2.2,9.52,9.52,0,0,1,1-3.72l.33-.48c.52-.12.9-.16,1.26-.27l.86.31a6.8,6.8,0,0,1,1.46,1.07,6.08,6.08,0,0,1,1,1.81,17.78,17.78,0,0,1,.49,3l-2.93.26Zm.15,9.29.3,0,3.38-.23,6-.54a6.87,6.87,0,0,0,2.79-.93,4.44,4.44,0,0,0,2.12-2.53,7,7,0,0,0,.52-2.55,21.45,21.45,0,0,0-.14-4.07A21.51,21.51,0,0,0,253,44a13.35,13.35,0,0,0-2.71-5,12.21,12.21,0,0,0-5-3.72c-.08,0-.23-.06-.55-.25l-.56-.26-.62-.24a2.85,2.85,0,0,0-.62-.17c-.07.08-.23,0-.62-.1s-.54-.1-.61-.1h-.08c-.07.08-.37,0-.75,0a1.81,1.81,0,0,0-.91.08l-2.82.56a7.41,7.41,0,0,0-2.33,1,3,3,0,0,0-.65.43,7,7,0,0,0-2.8.78,8,8,0,0,0-2.88,2.53,17.4,17.4,0,0,0-1.38,2.24A29.15,29.15,0,0,0,225.73,45a34.27,34.27,0,0,0-1.44,6.64,25.47,25.47,0,0,0-.35,6.31c.14.66.24,1.79.38,3.37l.29,4a14.76,14.76,0,0,0,1,4.07,11.83,11.83,0,0,0,3.76,4.81,16.67,16.67,0,0,0,10.15,3.55c1.06,0,2.12,0,3.09-.12l1.28-.12a4.81,4.81,0,0,0,2.27-.81,1.94,1.94,0,0,1,.68,0c1,0,1.82,0,2.64-.09a9.52,9.52,0,0,0,1.42-.2,8.61,8.61,0,0,0,3.79-1.63l1.06-.85.49-.42a4.6,4.6,0,0,0,1.68-4.09,4.25,4.25,0,0,0-1-2.41,4.61,4.61,0,0,0-4.16-1.67,4.25,4.25,0,0,0-2.41,1l-.41.41a3.17,3.17,0,0,0-.78.6c-.45,0-1.21,0-2.19,0a8.94,8.94,0,0,1-3.42-1,7.66,7.66,0,0,1-2.79-1.64,7.66,7.66,0,0,1-1.3-2.61A18.49,18.49,0,0,1,238.83,59.39Z"/><path class="cls-2" d="M293.81,34c-.75-2.51-3.42-3.63-6.28-3.37a10.63,10.63,0,0,0-3.24.89c-4,1.73-6.48,5.43-8.23,8.69-.22-2.48-1-6.8-3.35-7.8a8.51,8.51,0,0,0-3.68-.58,26.37,26.37,0,0,0-2.71.17c-2.92.27-4.11,3.1-3.56,6.68l1.4,12.2c.11,1.2.66,10.69,1,14.82.15,1.72.61,4.33,1.88,5.8a4.77,4.77,0,0,0,5,3.64,4.67,4.67,0,0,0,4.11-3.93,69.52,69.52,0,0,0,1.22-15.92c4.82-7.77,9.59-12.81,14.1-14.81a4.65,4.65,0,0,0,2.76-4.71A5.43,5.43,0,0,0,293.81,34Z"/></g><g id="Layer_2-2" data-name="Layer 2"><text class="cls-3" transform="translate(168.07 107.16) rotate(-5.21)">o</text><text class="cls-3" transform="translate(185.25 105.59) rotate(-5.21)">f</text><text class="cls-4" transform="translate(197.74 104.45) rotate(-5.21)"> </text><text class="cls-3" transform="translate(210.19 103.32) rotate(-5.21)">S</text><text class="cls-3" transform="translate(228.91 101.61) rotate(-5.21)">T</text><text class="cls-3" transform="translate(247.38 99.93) rotate(-5.21)">E</text><text class="cls-3" transform="translate(264.98 98.32) rotate(-5.21)">M</text></g></g></svg>