<svg xmlns="http://www.w3.org/2000/svg" viewBox="0 0 327.54 149.38"><defs><style>.cls-1{fill:#e7cb1b;}.cls-2,.cls-3{fill:#4a4947;}.cls-3{font-size:18px;font-family:Harabara;}.cls-4{fill:#fff;}</style></defs><g id="Layer_2" data-name="Layer 2"><g id="Layer_3" data-name="Layer 3"><rect class="cls-1" x="6.24" y="28.67" width="317.09" height="106.41" transform="translate(-6.81 15.44) rotate(-5.26)"/><path class="cls-2" d="M58.69,59.48a4.65,4.65,0,0,1-4.32,5c-1.13.11-2-.2-3.66-1.18a3.52,3.52,0,0,0-1.26-.49c.35,3.9,1.33,5.55,3.51,9.59,4.55,8.52,8.6,17.39,9.29,25.12.93,10.28-.43,15.4-10.86,16.33-4.43.4-8.79-1.86-9.12-5.53a4.63,4.63,0,0,1,4.16-5.07,4.68,4.68,0,0,1,3.26.92,20.76,20.76,0,0,0,0-3.55,10.34,10.34,0,0,0-1.19-4.06,119.6,119.6,0,0,0-7.63-13.31,29.1,29.1,0,0,1-2.28-4.33c-1.68-3.56-4.4-7.7-4.78-11.91-.32-3.6,2-9.56,5.85-9.9a4.34,4.34,0,0,1,1.76.22,8,8,0,0,1,5.92-3.94,20.65,20.65,0,0,1,5.82.76C55.56,55,58.44,56.71,58.69,59.48Z"/><path class="cls-2" d="M104.55,95.84A62.19,62.19,0,0,1,103,87.35c-.23-1.72-.91-9.3-.91-9.3a70,70,0,0,0-1.92-10.34l-.09-1a4.63,4.63,0,0,0-9.23.82c.83,9.31-2.25,19.65-7.06,25.08-1-6-2.75-18.82-3.26-24.53a4.73,4.73,0,0,0-5-4.24,4.58,4.58,0,0,0-3,1.56,4.29,4.29,0,0,0-1.3-.11c-1.8.16-3,1.71-2.76,4.64.36,4-.29,9.33.26,15.56,1.18,13.06,4.17,21.11,12.5,20.36,6.76-.61,10.13-7.72,12.86-15.23.4,2.77,1.65,8.25,1.8,10a4.66,4.66,0,0,0,5.07,4.24,4.59,4.59,0,0,0,4.16-5.07L105,98.29A19.49,19.49,0,0,0,104.55,95.84Z"/><path class="cls-2" d="M160.81,88.89c-.25-2.77.74-5.28.39-9.19-.89-9.9-4.5-18.13-12.76-17.39a24,24,0,0,0-2.39.3,10.14,10.14,0,0,0-6.39,4.73A9.71,9.71,0,0,0,135,63.52a10.28,10.28,0,0,0-5-.69,12.42,12.42,0,0,0-5.65,2c-.39-3.45-2-4.74-5.1-4.46a4.28,4.28,0,0,0-1.33.34,6.45,6.45,0,0,0-1.91-.28,4.83,4.83,0,0,0-4.31,4.32c-.17,1.38-.1,5.54,0,9.69l.73,20c0,1,0,2.13,0,3.1.29,3.23,2.09,4.66,4.45,4.82a4.58,4.58,0,0,0,4.73,3.06,4.74,4.74,0,0,0,4.25-5l-.26-2.85a19.74,19.74,0,0,1-.14-2.41c.09-1.52-.27-14.8-.53-21.06a5.67,5.67,0,0,1,2.27-.81c3-.27,5.53,2.53,6,7.33L134.68,97c.27,3,1.74,5.06,4.19,4.47,5-1.29,5.9-4.24,5.66-6.87-.29-5.72-2.23-21.43,4.15-22.92.75-.06.67-.06.75,0a4.58,4.58,0,0,1,1.2,1.56c.55,1.08,1,4,1.22,6.85s-.43,5.33,0,9.84c.46,5.18,2.12,9.34,6.18,9a4.55,4.55,0,0,0,4.16-5,15.42,15.42,0,0,0-.75-2.51A10.61,10.61,0,0,1,160.81,88.89Z"/><path class="cls-2" d="M218.23,83.74c-.25-2.78.73-5.29.38-9.19-.89-9.91-4.5-18.13-12.76-17.39-.37,0-2.1.19-2.39.29a10.17,10.17,0,0,0-6.39,4.73,9.77,9.77,0,0,0-4.65-3.82,10.27,10.27,0,0,0-5-.68,12.41,12.41,0,0,0-5.65,1.94c-.39-3.44-2-4.73-5.09-4.46a4.23,4.23,0,0,0-1.33.35,5.91,5.91,0,0,0-1.92-.28,4.8,4.8,0,0,0-4.3,4.32c-.18,1.37-.11,5.53,0,9.68l.73,20c0,1,0,2.12.06,3.09.29,3.23,2.08,4.66,4.44,4.83a4.6,4.6,0,0,0,4.74,3,4.74,4.74,0,0,0,4.24-5l-.26-2.85a19.55,19.55,0,0,1-.14-2.41c.09-1.52-.27-14.8-.53-21.06a5.67,5.67,0,0,1,2.27-.81c3-.27,5.53,2.53,6,7.34l1.48,16.43c.26,3,1.74,5.07,4.18,4.47,5-1.28,5.9-4.24,5.66-6.86-.29-5.73-2.23-21.44,4.15-22.92.75-.07.67-.06.75,0a4.31,4.31,0,0,1,1.2,1.55c.55,1.09,1,4,1.22,6.85s-.42,5.34,0,9.84c.46,5.18,2.13,9.34,6.18,9a4.56,4.56,0,0,0,4.16-5,14.48,14.48,0,0,0-.75-2.51A10.15,10.15,0,0,1,218.23,83.74Z"/><path class="cls-2" d="M240.7,64.47l-.52,0a19.64,19.64,0,0,1,.1-2.21,9.54,9.54,0,0,1,.95-3.72l.34-.48c.52-.12.89-.16,1.26-.26l.86.3a7.09,7.09,0,0,1,1.46,1.08,5.88,5.88,0,0,1,1,1.8,16.74,16.74,0,0,1,.5,3l-2.93.26Zm.16,9.29.3,0,3.38-.23,6-.53a7,7,0,0,0,2.79-.94,4.39,4.39,0,0,0,2.11-2.53A6.76,6.76,0,0,0,256,67a21.45,21.45,0,0,0-.14-4.07,22.17,22.17,0,0,0-.86-4.54,13.35,13.35,0,0,0-2.71-5,12.28,12.28,0,0,0-5-3.72c-.08,0-.24,0-.56-.25l-.55-.26-.63-.24a2.58,2.58,0,0,0-.62-.17c-.06.08-.22,0-.61-.1s-.54-.1-.61-.1h-.08c-.07.08-.37,0-.76,0a1.91,1.91,0,0,0-.9.08l-2.82.56a7.56,7.56,0,0,0-2.34,1,3,3,0,0,0-.64.43,7.15,7.15,0,0,0-2.8.78,8.1,8.1,0,0,0-2.88,2.53,16.89,16.89,0,0,0-1.38,2.25,26.43,26.43,0,0,0-1.38,3.22A34.91,34.91,0,0,0,226.31,66,25.84,25.84,0,0,0,226,72.3c.14.67.24,1.79.38,3.37l.28,4a15.67,15.67,0,0,0,1,4.08,11.93,11.93,0,0,0,3.77,4.8,16.67,16.67,0,0,0,10.15,3.55c1.06,0,2.11,0,3.09-.12l1.28-.12a4.81,4.81,0,0,0,2.27-.81,2,2,0,0,1,.68,0c1,0,1.82,0,2.64-.09a7.47,7.47,0,0,0,1.42-.2,8.61,8.61,0,0,0,3.79-1.63l1.06-.85.49-.42a4.57,4.57,0,0,0,1.67-4.09,4.18,4.18,0,0,0-1-2.4,4.57,4.57,0,0,0-4.16-1.67,4.24,4.24,0,0,0-2.41,1l-.41.41a3.17,3.17,0,0,0-.78.6c-.45,0-1.21,0-2.19,0a8.94,8.94,0,0,1-3.42-1,7.53,7.53,0,0,1-2.79-1.64,7.39,7.39,0,0,1-1.3-2.61A18.49,18.49,0,0,1,240.86,73.76Z"/><path class="cls-2" d="M295.84,48.32c-.75-2.51-3.43-3.63-6.28-3.37a10.51,10.51,0,0,0-3.25.9c-4,1.72-6.47,5.42-8.22,8.68-.22-2.48-1-6.8-3.35-7.8a8.52,8.52,0,0,0-3.68-.57,23,23,0,0,0-2.71.16c-2.93.27-4.11,3.1-3.56,6.68l1.4,12.21c.11,1.2.66,10.68,1,14.81.15,1.72.61,4.33,1.88,5.8a4.76,4.76,0,0,0,5,3.64,4.67,4.67,0,0,0,4.11-3.93,69.52,69.52,0,0,0,1.22-15.92c4.82-7.77,9.59-12.81,14.1-14.81a4.63,4.63,0,0,0,2.75-4.71A5.16,5.16,0,0,0,295.84,48.32Z"/></g><g id="Layer_2-2" data-name="Layer 2"><text class="cls-3" transform="translate(170.12 121.52) rotate(-5.21)">o</text><text class="cls-3" transform="translate(187.3 119.96) rotate(-5.21)">f</text><text class="cls-3" transform="translate(199.78 118.82) rotate(-5.21)"> </text><text class="cls-3" transform="translate(212.24 117.68) rotate(-5.21)">S</text><text class="cls-3" transform="translate(230.95 115.98) rotate(-5.21)">T</text><text class="cls-3" transform="translate(249.43 114.29) rotate(-5.21)">E</text><text class="cls-3" transform="translate(267.03 112.69) rotate(-5.21)">M</text></g><g id="Layer_4" data-name="Layer 4"><g id="Artwork_25" data-name="Artwork 25"><path class="cls-1" d="M11,27.59c-1.2.18-5.7.57-7.11.59s-2.21-.81-2.37-2.5L0,9.52l2-.18a1.73,1.73,0,0,1,1.31.44A1.76,1.76,0,0,1,4,11.05l.23,2.47L9.78,13l.07.77a1.81,1.81,0,0,1-.43,1.4,1.86,1.86,0,0,1-1.27.64l-3.72.34.74,8.13c.06.63.45.9,1.18.84l4.34-.4L11,27.59"/><path class="cls-1" d="M21,22.13l2.75-.25a6,6,0,0,1-2,3.73,7,7,0,0,1-4.17,1.66,6.16,6.16,0,0,1-5.08-1.59,8.28,8.28,0,0,1-2.27-5.5,8.23,8.23,0,0,1,1.2-5.65,6.13,6.13,0,0,1,4.71-2.48,6.6,6.6,0,0,1,5.29,1.51,8.39,8.39,0,0,1,2.28,5.5l0,.38,0,.22a.87.87,0,0,1,0,.39l-9.51.87a3.76,3.76,0,0,0,1.06,2.45,2.61,2.61,0,0,0,2.22.69A3.15,3.15,0,0,0,19,23.53a.74.74,0,0,0,.28-.22l.28-.33A1.23,1.23,0,0,1,20,22.5a1.67,1.67,0,0,1,1-.37m-7-3.68,5.6-.51a3.48,3.48,0,0,0-1-2.13,2.64,2.64,0,0,0-2.1-.59,2.72,2.72,0,0,0-1.91,1A3.12,3.12,0,0,0,14,18.45Z"/><path class="cls-1" d="M34.69,20.88l2.75-.25a6,6,0,0,1-2,3.73A7,7,0,0,1,31.28,26a6.18,6.18,0,0,1-5.08-1.58,8.3,8.3,0,0,1-2.27-5.5,8.27,8.27,0,0,1,1.2-5.66,6.16,6.16,0,0,1,4.71-2.48,6.61,6.61,0,0,1,5.29,1.52A7.52,7.52,0,0,1,36.82,15L33,15.33a3.41,3.41,0,0,0-.63-.78,3,3,0,0,0-4,.37,5.42,5.42,0,0,0-.66,3.72A5.15,5.15,0,0,0,29,22.12a2.6,2.6,0,0,0,2.22.68,3.14,3.14,0,0,0,1.56-.52.68.68,0,0,0,.28-.23c.09-.09.18-.2.28-.32a2.25,2.25,0,0,1,.4-.48,1.47,1.47,0,0,1,1-.37"/><path class="cls-1" d="M46.68,13.75a2.63,2.63,0,0,0-2.36-.95,2.77,2.77,0,0,0-2.26,1.31,4.91,4.91,0,0,0-.55,3.1l.69,7.53-3.74.34L36.73,6.17,38.6,6a1.89,1.89,0,0,1,2,1.7L41,12A4.39,4.39,0,0,1,43.65,9.7a5.68,5.68,0,0,1,3.48-.1,6.28,6.28,0,0,1,2.78,1.86,6.6,6.6,0,0,1,1.4,3.86l.78,8.52-3.68.33-.7-7.58a8,8,0,0,0-.27-1.5,3.73,3.73,0,0,0-.76-1.34"/><path class="cls-1" d="M65.5,22.62l-1.92.17a1.79,1.79,0,0,1-2-1.7l-.69-7.47a2.25,2.25,0,0,0-1-1.85A2.86,2.86,0,0,0,58,11.33a2.75,2.75,0,0,0-1.7.76,2.29,2.29,0,0,0-.6,2l.85,9.35-3.84.35L52,15.2q-.34-3.73,1.49-5.17a8.49,8.49,0,0,1,4.19-1.77,8.3,8.3,0,0,1,4.57.86q2.14,1.08,2.5,4.92l.78,8.58"/><path class="cls-1" d="M67.8,21.08a5.53,5.53,0,0,1-1.9-2.52,12.34,12.34,0,0,1-.81-3.44,11.33,11.33,0,0,1,.14-3A6.18,6.18,0,0,1,66.3,9.52a5.72,5.72,0,0,1,3.5-2.29,8.48,8.48,0,0,1,4.1,0A5.58,5.58,0,0,1,77.24,9.8a9,9,0,0,1,1.32,4.14A10.37,10.37,0,0,1,78.45,17a7.68,7.68,0,0,1-.79,2.23,5.49,5.49,0,0,1-3.15,2.56,7.55,7.55,0,0,1-3.65.42,6.38,6.38,0,0,1-3.06-1.13m1.75-9.92a5.13,5.13,0,0,0-.7,3.86,6,6,0,0,0,1.26,3.41,2.53,2.53,0,0,0,1.22.64A2.69,2.69,0,0,0,73,19a2.86,2.86,0,0,0,1.4-1.38,6.18,6.18,0,0,0,.42-3.25,5.61,5.61,0,0,0-.9-2.91,2.87,2.87,0,0,0-1.57-1.13,2.69,2.69,0,0,0-1.66.12A3,3,0,0,0,69.55,11.16Z"/><path class="cls-4" d="M89.6,15.87l2.75-.25a6,6,0,0,1-2,3.73A7,7,0,0,1,86.19,21a6.16,6.16,0,0,1-5.08-1.59,8.28,8.28,0,0,1-2.27-5.5A8.12,8.12,0,0,1,80,8.27a6.13,6.13,0,0,1,4.71-2.48A6.6,6.6,0,0,1,90,7.3,7.67,7.67,0,0,1,91.72,10l-3.84.35a3.32,3.32,0,0,0-.63-.77A2.64,2.64,0,0,0,85.15,9a2.74,2.74,0,0,0-1.91.95,5.45,5.45,0,0,0-.66,3.72,5.13,5.13,0,0,0,1.32,3.49,2.59,2.59,0,0,0,2.22.68,3.15,3.15,0,0,0,1.56-.53.83.83,0,0,0,.28-.22l.28-.33a2,2,0,0,1,.4-.48,1.52,1.52,0,0,1,1-.37"/><path class="cls-4" d="M102.65,18.62a6.81,6.81,0,0,1-2.37,1,22.38,22.38,0,0,1-2.27.35,5.74,5.74,0,0,1-3.56-.76,4.07,4.07,0,0,1-1.81-3.41,3.86,3.86,0,0,1,1-3.42A7.89,7.89,0,0,1,97,10.71a3.34,3.34,0,0,0,.65-.14c.25-.08.54-.15.87-.22,1.59-.37,2.35-.92,2.29-1.65a1,1,0,0,0-1-1,5.6,5.6,0,0,0-1.59-.11A4.17,4.17,0,0,0,96.91,8a1.49,1.49,0,0,0-.8.9l-3.68.34a4.27,4.27,0,0,1,1.28-2.95,6.41,6.41,0,0,1,4.12-1.65,8.38,8.38,0,0,1,4.71.63,3.52,3.52,0,0,1,1.87,2.93l.46,5a6.43,6.43,0,0,1-.48,3.51,4.93,4.93,0,0,1-1.74,2m-1.49-6.68a10.33,10.33,0,0,1-2.08.91l-1.24.39a3.18,3.18,0,0,0-1.36.84,2.24,2.24,0,0,0-.28,1.25,1.78,1.78,0,0,0,.62,1.27,2,2,0,0,0,1.47.31,3.25,3.25,0,0,0,2.33-1.1,3.23,3.23,0,0,0,.66-2.5Z"/><path class="cls-4" d="M118.7,17.77l-3.79.34-.85-9.34a2.28,2.28,0,0,0-1-1.85,2.83,2.83,0,0,0-1.85-.44,2.8,2.8,0,0,0-1.7.76,2.29,2.29,0,0,0-.59,2l.85,9.35-3.85.35-.78-8.58c-.23-2.49.27-4.21,1.49-5.18a8.56,8.56,0,0,1,4.19-1.76,11,11,0,0,1,2.5,0,5.23,5.23,0,0,1,2.3.9,4.9,4.9,0,0,1,1.86-1.2,10.9,10.9,0,0,1,2.3-.57,8.28,8.28,0,0,1,4.57.86c1.43.72,2.27,2.36,2.5,4.92l.78,8.58-1.92.17a1.83,1.83,0,0,1-1.4-.4,1.81,1.81,0,0,1-.64-1.29L123,8a2.26,2.26,0,0,0-1-1.85,2.95,2.95,0,0,0-3.57.33,2.27,2.27,0,0,0-.62,2l.85,9.35"/><path class="cls-4" d="M132.76,20a1.77,1.77,0,0,1-.43,1.37,1.8,1.8,0,0,1-1.26.67l-1.87.17L128,8.55q-.35-3.84,1.77-5.45a9.16,9.16,0,0,1,4.77-1.85,8.08,8.08,0,0,1,2.82.27,5.17,5.17,0,0,1,2.37,1.31,8.89,8.89,0,0,1,2.15,5.35,9,9,0,0,1-1.14,5.75,5.18,5.18,0,0,1-4,2.48,5.64,5.64,0,0,1-2.47-.28,4.17,4.17,0,0,1-1.91-1.54l.49,5.44m5.29-11.34a5.66,5.66,0,0,0-1.13-3.23,2.75,2.75,0,0,0-2.47-.94,2.7,2.7,0,0,0-2.2,1.37,5.6,5.6,0,0,0-.47,3.37,5.08,5.08,0,0,0,1.11,3.06,2.74,2.74,0,0,0,2.47.93,2.63,2.63,0,0,0,2.15-1.36A5.29,5.29,0,0,0,138.05,8.69Z"/><path class="cls-4" d="M142.39,10.73l3.74-.34a2,2,0,0,0,1,1.57,3.93,3.93,0,0,0,2.25.35,3.55,3.55,0,0,0,1.67-.54,1.16,1.16,0,0,0,.56-1.1c-.06-.66-.87-1.09-2.44-1.28a10.62,10.62,0,0,1-1.51-.19,8.7,8.7,0,0,1-4.06-1.35,3.37,3.37,0,0,1-1.34-2.54,4.4,4.4,0,0,1,1.28-3.61A6.88,6.88,0,0,1,147.68.05a7.56,7.56,0,0,1,4.68.85,4.89,4.89,0,0,1,2,3.41L152,4.53a1.77,1.77,0,0,1-1.68-.79l-.48-.4A3,3,0,0,0,148,3a3.38,3.38,0,0,0-1.62.48,1.14,1.14,0,0,0-.4,1c.05.58,1.05,1,3,1.22.23,0,.43.09.6.11a1.86,1.86,0,0,0,.47,0,10.19,10.19,0,0,1,4.05,1.3,3.45,3.45,0,0,1,1.29,2.54,4.45,4.45,0,0,1-1.42,3.9,8.44,8.44,0,0,1-4.84,1.66,7.3,7.3,0,0,1-4.79-.84,4.4,4.4,0,0,1-1.92-3.54l0-.16"/></g></g></g></svg>