<svg xmlns="http://www.w3.org/2000/svg" xmlns:xlink="http://www.w3.org/1999/xlink" viewBox="0 0 611.93 220.36"><defs><style>.cls-1,.cls-13{fill:none;}.cls-2{font-size:46.08px;fill:#0c2637;font-family:GTPressuraMonoTrial-Regular, GT Pressura Mono Trial;letter-spacing:-0.02em;}.cls-3{fill:#0c2638;}.cls-4{fill:#846cab;}.cls-5{fill:#3680c3;}.cls-6{fill:#fbdfe2;}.cls-7{fill:#25b5e8;}.cls-8{fill:#fcc013;}.cls-9{fill:#7bba47;}.cls-10{fill:#cb6faa;}.cls-11{fill:#dc3b20;}.cls-12{fill:#f18724;}.cls-13{stroke:#0c2638;stroke-miterlimit:10;stroke-width:2px;}.cls-14{fill:#93bc4f;}.cls-15{fill:#fbe33f;}.cls-16{clip-path:url(#clip-path);}.cls-17{fill:#63c5f1;}</style><clipPath id="clip-path"><path id="SVGID" class="cls-1" d="M161.63,53a52.43,52.43,0,0,0-52.43,52.44c0,.26,0,.52,0,.78,1.44.11,2.9.19,4.38.19a54.08,54.08,0,0,0,54.1-53A52.77,52.77,0,0,0,161.63,53Z"/></clipPath></defs><title>ioc_logo_forLightBG</title><g id="Layer_2" data-name="Layer 2"><g id="forLightBG"><text class="cls-2" transform="translate(408.57 210.68)">in wales</text><path class="cls-3" d="M12.24,13.45a.92.92,0,0,1-.92-.92V10.46a.92.92,0,0,1,.92-.92h9.35a.92.92,0,0,1,.92.92V28.19a.43.43,0,0,0,.46.46h5.85a.93.93,0,0,1,.92.93v2.07a.92.92,0,0,1-.92.92h-17a.92.92,0,0,1-.92-.92V29.58a.93.93,0,0,1,.92-.93h6a.43.43,0,0,0,.46-.46V13.91a.44.44,0,0,0-.46-.46ZM22.65,3.92a.72.72,0,0,1-.74.73H18.78A.72.72,0,0,1,18,3.92V.74A.76.76,0,0,1,18.78,0h3.13a.76.76,0,0,1,.74.74Z"/><path class="cls-3" d="M44.49,9.08a8.6,8.6,0,0,1,8.75,8.75V31.65a.92.92,0,0,1-.92.92H50a.92.92,0,0,1-.92-.92V17.83c0-2.67-2.21-4.61-5.06-4.61S39,14.93,39,17.6v14a.92.92,0,0,1-.92.92H35.73a.92.92,0,0,1-.92-.92V10.46a.92.92,0,0,1,.92-.92h2a.84.84,0,0,1,.64.32,1.79,1.79,0,0,0,1.16.74C40.89,10.6,41.26,9.08,44.49,9.08Z"/><path class="cls-3" d="M60,24.14h2.31a.92.92,0,0,1,.92.92c0,3.36,2.85,4,5,4,2.49,0,4.93-.65,4.93-3.41,0-2-2.26-2.63-4.93-3.18-3.78-.78-8.34-1.7-8.34-6.72,0-4.15,4.15-6.68,8.34-6.68s8.2,2.53,8.2,6.91a.92.92,0,0,1-.92.92h-2.3a.92.92,0,0,1-.92-.92c0-1.62-1.2-3-4.06-3s-4,1.43-4,2.77c0,1.65,1.8,2.16,4,2.57,3.87.7,9.08,1.52,9.08,7.33C77.29,30.59,73,33,68.21,33c-4.61,0-9.12-2.3-9.12-8A.92.92,0,0,1,60,24.14Z"/><path class="cls-3" d="M92.4,25.66a3.23,3.23,0,0,0,6.45,0,.92.92,0,0,1,.92-.92h2.3a.92.92,0,0,1,.92.92,7.37,7.37,0,1,1-14.74,0V14.37a.44.44,0,0,0-.46-.46H83.18a.92.92,0,0,1-.92-.92v-2.3a.92.92,0,0,1,.92-.92h4.61a.44.44,0,0,0,.46-.46V2.17a.93.93,0,0,1,.92-.93h2.31a.93.93,0,0,1,.92.93V9.31a.44.44,0,0,0,.46.46h7.37a.92.92,0,0,1,.92.92V13a.92.92,0,0,1-.92.92H92.86a.44.44,0,0,0-.46.46Z"/><path class="cls-3" d="M109.91,13.45a.93.93,0,0,1-.93-.92V10.46a.93.93,0,0,1,.93-.92h9.35a.92.92,0,0,1,.92.92V28.19a.43.43,0,0,0,.46.46h5.85a.93.93,0,0,1,.92.93v2.07a.92.92,0,0,1-.92.92h-17a.92.92,0,0,1-.92-.92V29.58a.93.93,0,0,1,.92-.93h6a.44.44,0,0,0,.46-.46V13.91a.44.44,0,0,0-.46-.46Zm10.4-9.53a.72.72,0,0,1-.73.73h-3.13a.72.72,0,0,1-.74-.73V.74a.76.76,0,0,1,.74-.74h3.13a.76.76,0,0,1,.73.74Z"/><path class="cls-3" d="M141.23,25.66a3.23,3.23,0,0,0,6.45,0,.92.92,0,0,1,.92-.92h2.31a.92.92,0,0,1,.92.92,7.37,7.37,0,1,1-14.74,0V14.37a.44.44,0,0,0-.47-.46H132a.92.92,0,0,1-.92-.92v-2.3a.92.92,0,0,1,.92-.92h4.6a.44.44,0,0,0,.47-.46V2.17a.93.93,0,0,1,.92-.93h2.3a.93.93,0,0,1,.92.93V9.31a.44.44,0,0,0,.46.46h7.37a.92.92,0,0,1,.92.92V13a.92.92,0,0,1-.92.92h-7.37a.44.44,0,0,0-.46.46Z"/><path class="cls-3" d="M165.42,33a8.4,8.4,0,0,1-8.76-8.75V10.46a.93.93,0,0,1,.93-.92h2.3a.92.92,0,0,1,.92.92V24.28c0,2.67,1.89,4.6,5.07,4.6,2.85,0,5.07-1.7,5.07-4.37v-14a.92.92,0,0,1,.92-.92h2.3a.92.92,0,0,1,.92.92V31.65a.92.92,0,0,1-.92.92h-2a.89.89,0,0,1-.64-.32,1.73,1.73,0,0,0-1.15-.74C169,31.51,168.83,33,165.42,33Z"/><path class="cls-3" d="M190.06,25.66a3.23,3.23,0,0,0,6.45,0,.92.92,0,0,1,.92-.92h2.31a.92.92,0,0,1,.92.92,7.37,7.37,0,0,1-14.74,0V14.37a.44.44,0,0,0-.46-.46h-4.61a.92.92,0,0,1-.92-.92v-2.3a.92.92,0,0,1,.92-.92h4.61a.44.44,0,0,0,.46-.46V2.17a.93.93,0,0,1,.92-.93h2.3a.93.93,0,0,1,.92.93V9.31a.44.44,0,0,0,.47.46h7.37a.92.92,0,0,1,.92.92V13a.92.92,0,0,1-.92.92h-7.37a.44.44,0,0,0-.47.46Z"/><path class="cls-3" d="M214.9,28.88c2.39,0,4.19-1.19,4.74-2.9a1,1,0,0,1,1.06-.78h2.35a.74.74,0,0,1,.78.92c-.55,4-4.14,6.91-8.93,6.91a9.16,9.16,0,0,1-9.45-8.75,49.58,49.58,0,0,1,0-6.45,9.15,9.15,0,0,1,9.45-8.75c5.57,0,9.21,3.45,9.21,9.21v3.18a.93.93,0,0,1-.92.92H210a.44.44,0,0,0-.46.46C209.55,27,211.72,28.88,214.9,28.88ZM210.1,18.7h9.59a.44.44,0,0,0,.46-.46,4.88,4.88,0,0,0-5.21-5,5,5,0,0,0-5.3,5A.44.44,0,0,0,210.1,18.7Z"/><path class="cls-3" d="M262.85,17.83a49.58,49.58,0,0,1,0,6.45,9.47,9.47,0,0,1-18.88,0,49.58,49.58,0,0,1,0-6.45,9.47,9.47,0,0,1,18.88,0Zm-4.14,6.45a49.58,49.58,0,0,0,0-6.45,5.35,5.35,0,0,0-10.6,0,49.58,49.58,0,0,0,0,6.45,5.35,5.35,0,0,0,10.6,0Z"/><path class="cls-3" d="M268.66,13.91a.92.92,0,0,1-.92-.92v-2.3a.92.92,0,0,1,.92-.92h5.76a.44.44,0,0,0,.46-.46V8.62A8.44,8.44,0,0,1,283.4,0h2.76a.93.93,0,0,1,.93.92V3.09a.93.93,0,0,1-.93.92H283.4A4.64,4.64,0,0,0,279,8.62v.69a.44.44,0,0,0,.46.46H287a.92.92,0,0,1,.92.92V13a.92.92,0,0,1-.92.92h-7.47a.44.44,0,0,0-.46.46V31.65a.92.92,0,0,1-.92.92h-2.3a.92.92,0,0,1-.92-.92V14.37a.44.44,0,0,0-.46-.46Z"/><path class="cls-4" d="M52.46,153v4.75A52.83,52.83,0,0,1,.27,110.62c0-.42-.08-.85-.11-1.26,0,0,0-.09,0-.14,0-.42-.06-.86-.08-1.29V103.3a51.19,51.19,0,0,1,9.89,1,51.7,51.7,0,0,1,13.56,4.67,29.35,29.35,0,0,0,24.31,25.31A51.33,51.33,0,0,1,52.46,153Z"/><path class="cls-5" d="M77.89,120.15,98,131.94A52.61,52.61,0,0,1,.16,109.36a52.82,52.82,0,0,0,52.29,48.4V153a51.33,51.33,0,0,0-4.63-18.77,30.13,30.13,0,0,0,4.78.38A29.3,29.3,0,0,0,77.89,120.15Z"/><path class="cls-6" d="M47.83,134.24a29.35,29.35,0,0,1-24.31-25.31A53.22,53.22,0,0,1,47.83,134.24Z"/><path class="cls-7" d="M278.26,54.68H233.07v22.4h45.19a28.2,28.2,0,0,1,0,56.4v22.4a50.6,50.6,0,1,0,0-101.2Z"/><path class="cls-8" d="M611.93,98.2v59.71H586.57v-3.69a53.25,53.25,0,0,0,25.35-22.07l-.7-.42a52.47,52.47,0,0,1-24.65,21.6v-3a49.78,49.78,0,0,0,23.28-20.14l-.7-.42a49.18,49.18,0,0,1-22.58,19.67v-2.82a46.47,46.47,0,0,0,20.16-18.1l-.71-.42a45.53,45.53,0,0,1-19.45,17.6v-2.49A43.06,43.06,0,0,0,603.86,127l-.71-.42a42.25,42.25,0,0,1-16.58,15.7v-2.77a39.7,39.7,0,0,0,14.32-14.09l-.7-.42a39.12,39.12,0,0,1-13.62,13.56v-3.26a36.45,36.45,0,0,0,11-11.63l-.7-.42a35.13,35.13,0,0,1-10.34,11V131a32.73,32.73,0,0,0,7.92-9.07l-.71-.42a31.5,31.5,0,0,1-7.21,8.43v-3a29.15,29.15,0,0,0,5.27-6.59l-.7-.41a29.11,29.11,0,0,1-4.57,5.86v-5H563.85V98.2Z"/><path class="cls-8" d="M591.84,120.35a29.15,29.15,0,0,1-5.27,6.59V125.8a29.11,29.11,0,0,0,4.57-5.86Z"/><path class="cls-8" d="M611.92,132.15a53.25,53.25,0,0,1-25.35,22.07v-.89a52.47,52.47,0,0,0,24.65-21.6Z"/><path class="cls-8" d="M594.49,122a32.73,32.73,0,0,1-7.92,9.07V130a31.5,31.5,0,0,0,7.21-8.43Z"/><path class="cls-8" d="M597.61,123.63a36.45,36.45,0,0,1-11,11.63v-1a35.13,35.13,0,0,0,10.34-11Z"/><path class="cls-8" d="M600.89,125.38a39.7,39.7,0,0,1-14.32,14.09v-.95A39.12,39.12,0,0,0,600.19,125Z"/><path class="cls-8" d="M603.86,127a43.06,43.06,0,0,1-17.29,16.21v-.93a42.25,42.25,0,0,0,16.58-15.7Z"/><path class="cls-8" d="M606.73,128.48a46.47,46.47,0,0,1-20.16,18.1v-.92A45.53,45.53,0,0,0,606,128.06Z"/><path class="cls-8" d="M609.85,130.15a49.78,49.78,0,0,1-23.28,20.14v-.89a49.18,49.18,0,0,0,22.58-19.67Z"/><polygon class="cls-8" points="348.92 105.34 348.92 130.48 374.06 130.48 374.06 130.48 348.92 105.34 348.92 105.34"/><polygon class="cls-9" points="348.92 105.34 374.06 130.48 374.06 105.34 348.92 105.34"/><path class="cls-9" d="M348.92,54.91h0a25.14,25.14,0,0,0,25.14,25.14h0L348.92,54.91Z"/><polygon class="cls-8" points="348.92 54.91 374.06 80.05 374.06 54.91 348.92 54.91"/><polygon class="cls-5" points="348.92 80.12 348.92 105.27 374.06 80.12 348.92 80.12"/><polygon class="cls-8" points="374.06 80.12 348.92 105.27 374.06 105.27 374.06 80.12"/><polygon class="cls-5" points="374.06 155.7 374.06 130.56 348.92 155.7 374.06 155.7"/><polygon class="cls-9" points="348.92 130.56 348.92 155.7 348.92 155.7 374.06 130.56 374.06 130.56 348.92 130.56"/><rect class="cls-10" x="468.37" y="54.7" width="25.15" height="101.2"/><path class="cls-8" d="M214.07,104.39a52.62,52.62,0,1,0,0,1.64c0-.27,0-.55,0-.82S214.08,104.66,214.07,104.39Zm-81.9,1a29.46,29.46,0,1,1,29.46,29.47A29.47,29.47,0,0,1,132.17,105.39Z"/><path class="cls-11" d="M190.83,109.4a29.49,29.49,0,0,1-25.08,25.17A52.67,52.67,0,0,1,190.83,109.4Z"/><path class="cls-12" d="M214.08,105.21c0,.27,0,.55,0,.82a52.45,52.45,0,0,1-51.61,51.62h-1.65c0-.28,0-.56,0-.83a52.31,52.31,0,0,1,4.95-22.25,29.49,29.49,0,0,0,25.08-25.17,52.47,52.47,0,0,1,22.42-5h.82C214.08,104.66,214.08,104.94,214.08,105.21Z"/><circle class="cls-8" cx="427.9" cy="60.32" r="2.42"/><circle class="cls-8" cx="432.77" cy="67.48" r="2.42"/><circle class="cls-8" cx="437.64" cy="74.65" r="2.42"/><circle class="cls-8" cx="442.5" cy="81.81" r="2.42"/><circle class="cls-8" cx="447.37" cy="88.97" r="2.42"/><circle class="cls-8" cx="452.24" cy="96.14" r="2.42"/><circle class="cls-8" cx="457.1" cy="103.3" r="2.42"/><circle class="cls-8" cx="461.97" cy="110.47" r="2.42"/><circle class="cls-8" cx="466.83" cy="117.63" r="2.42"/><circle class="cls-8" cx="471.7" cy="124.8" r="2.42"/><circle class="cls-8" cx="476.57" cy="131.96" r="2.42"/><circle class="cls-8" cx="481.43" cy="139.12" r="2.42"/><circle class="cls-8" cx="486.3" cy="146.29" r="2.42"/><circle class="cls-8" cx="491.17" cy="153.45" r="2.42"/><circle class="cls-8" cx="427.9" cy="74.68" r="2.42"/><circle class="cls-8" cx="432.77" cy="81.84" r="2.42"/><circle class="cls-8" cx="437.64" cy="89" r="2.42"/><circle class="cls-8" cx="442.5" cy="96.17" r="2.42"/><circle class="cls-8" cx="447.37" cy="103.33" r="2.42"/><circle class="cls-8" cx="452.24" cy="110.5" r="2.42"/><circle class="cls-8" cx="457.1" cy="117.66" r="2.42"/><circle class="cls-8" cx="461.97" cy="124.82" r="2.42"/><circle class="cls-8" cx="466.83" cy="131.99" r="2.42"/><circle class="cls-8" cx="471.7" cy="139.15" r="2.42"/><circle class="cls-8" cx="476.57" cy="146.32" r="2.42"/><circle class="cls-8" cx="481.43" cy="153.48" r="2.42"/><circle class="cls-8" cx="427.9" cy="89.03" r="2.42"/><circle class="cls-8" cx="432.77" cy="96.2" r="2.42"/><circle class="cls-8" cx="437.64" cy="103.36" r="2.42"/><circle class="cls-8" cx="442.5" cy="110.53" r="2.42"/><circle class="cls-8" cx="447.37" cy="117.69" r="2.42"/><circle class="cls-8" cx="452.24" cy="124.85" r="2.42"/><circle class="cls-8" cx="457.1" cy="132.02" r="2.42"/><circle class="cls-8" cx="461.97" cy="139.18" r="2.42"/><circle class="cls-8" cx="466.83" cy="146.35" r="2.42"/><circle class="cls-8" cx="471.7" cy="153.51" r="2.42"/><circle class="cls-8" cx="427.9" cy="103.39" r="2.42"/><circle class="cls-8" cx="432.77" cy="110.56" r="2.42"/><circle class="cls-8" cx="437.64" cy="117.72" r="2.42"/><circle class="cls-8" cx="442.5" cy="124.88" r="2.42"/><circle class="cls-8" cx="447.37" cy="132.05" r="2.42"/><circle class="cls-8" cx="452.24" cy="139.21" r="2.42"/><circle class="cls-8" cx="457.1" cy="146.38" r="2.42"/><circle class="cls-8" cx="461.97" cy="153.54" r="2.42"/><path class="cls-13" d="M611.08,133.47A53,53,0,1,1,611,77"/><path class="cls-13" d="M605.09,129.4a45.81,45.81,0,1,1-.27-48.61"/><path class="cls-13" d="M598.08,125.35a37.7,37.7,0,1,1-6.18-47.58,38.14,38.14,0,0,1,5.86,7"/><path class="cls-13" d="M591.93,121.51a30.45,30.45,0,1,1-5.15-38.6,31.35,31.35,0,0,1,4.73,5.54"/><polygon class="cls-3" points="393.8 59.86 393.8 69.95 402.68 64.9 393.8 59.86"/><polygon class="cls-3" points="393.8 54.7 393.8 59.75 402.68 54.7 393.8 54.7"/><polygon class="cls-3" points="411.57 54.7 411.57 59.75 420.45 54.7 411.57 54.7"/><polygon class="cls-3" points="393.8 69.95 393.8 80.04 402.68 74.99 393.8 69.95"/><polygon class="cls-3" points="402.68 85.08 393.8 80.04 393.8 90.12 393.8 90.13 402.68 85.08"/><polygon class="cls-3" points="393.8 90.13 393.8 90.13 393.8 90.12 393.8 90.12 393.8 95.13 402.6 95.13 393.8 90.13"/><polygon class="cls-3" points="393.8 90.13 393.8 90.12 393.8 90.13 393.8 90.13"/><polygon class="cls-3" points="402.6 95.13 393.8 95.13 393.8 100.22 402.68 95.17 402.6 95.13"/><polygon class="cls-3" points="393.8 100.21 393.8 110.3 402.68 105.26 393.8 100.21"/><polygon class="cls-3" points="393.8 110.3 393.8 120.39 402.68 115.35 393.8 110.3"/><polygon class="cls-3" points="393.8 120.39 393.8 130.48 402.68 125.44 393.8 120.39"/><polygon class="cls-3" points="393.8 130.48 393.8 140.57 402.68 135.53 393.8 130.48"/><polygon class="cls-3" points="393.8 140.57 393.8 150.66 402.68 145.62 393.8 140.57"/><polygon class="cls-3" points="402.68 155.7 393.8 150.66 393.8 155.88 402.38 155.88 402.68 155.7"/><polygon class="cls-3" points="402.68 64.9 402.68 74.99 411.56 69.95 402.68 64.9"/><polygon class="cls-3" points="402.68 54.81 402.68 64.9 411.56 59.86 402.68 54.81"/><polygon class="cls-3" points="402.68 74.99 402.68 85.08 411.56 80.04 402.68 74.99"/><polygon class="cls-3" points="411.56 90.13 402.68 85.08 402.68 95.17 402.68 95.17 411.56 90.13"/><polygon class="cls-3" points="402.68 95.17 402.68 95.17 402.68 95.17 402.68 95.17 402.68 100.17 411.48 100.17 402.68 95.17"/><polygon class="cls-3" points="402.68 95.17 402.68 95.17 402.68 95.17 402.68 95.17"/><polygon class="cls-3" points="411.56 100.22 411.48 100.17 402.68 100.17 402.68 105.26 402.68 105.26 411.56 100.22"/><polygon class="cls-3" points="402.68 105.26 402.68 115.35 411.56 110.3 402.68 105.26"/><polygon class="cls-3" points="402.68 115.35 402.68 125.44 411.56 120.39 402.68 115.35"/><polygon class="cls-3" points="402.68 125.44 402.68 135.53 411.56 130.48 402.68 125.44"/><polygon class="cls-3" points="402.68 135.53 402.68 145.62 411.56 140.57 402.68 135.53"/><polygon class="cls-3" points="402.68 145.62 402.68 155.7 411.56 150.66 402.68 145.62"/><polygon class="cls-3" points="402.68 155.7 402.68 155.88 402.99 155.88 402.68 155.7"/><polygon class="cls-3" points="411.57 69.95 411.57 80.04 420.45 74.99 411.57 69.95"/><polygon class="cls-3" points="411.57 59.86 411.57 69.95 420.45 64.9 411.57 59.86"/><polygon class="cls-3" points="411.57 80.04 411.57 90.13 420.45 85.08 411.57 80.04"/><polygon class="cls-3" points="420.45 95.17 411.57 90.13 411.57 100.21 411.57 100.21 420.45 95.17"/><polygon class="cls-3" points="411.57 100.21 411.57 100.21 411.57 100.21 411.56 100.21 411.56 105.22 420.36 105.22 411.57 100.21"/><polygon class="cls-3" points="411.57 100.21 411.57 100.21 411.57 100.21 411.57 100.21"/><polygon class="cls-3" points="420.44 105.26 420.36 105.22 411.56 105.22 411.56 110.3 411.56 110.3 420.44 105.26"/><polygon class="cls-3" points="411.57 110.3 411.57 120.39 420.45 115.35 411.57 110.3"/><polygon class="cls-3" points="411.57 120.39 411.57 130.48 420.45 125.44 411.57 120.39"/><polygon class="cls-3" points="411.57 130.48 411.57 140.57 420.45 135.53 411.57 130.48"/><polygon class="cls-3" points="411.57 140.57 411.57 150.66 420.45 145.62 411.57 140.57"/><polygon class="cls-3" points="420.45 155.7 411.57 150.66 411.57 155.88 420.14 155.88 420.45 155.7"/><rect class="cls-14" x="232.99" y="54.61" width="5.59" height="5.59"/><rect class="cls-14" x="244.07" y="54.61" width="5.59" height="5.59"/><rect class="cls-14" x="238.58" y="60.2" width="5.59" height="5.59"/><rect class="cls-14" x="249.66" y="60.2" width="5.59" height="5.59"/><rect class="cls-14" x="232.99" y="65.8" width="5.59" height="5.59"/><rect class="cls-14" x="244.07" y="65.8" width="5.59" height="5.59"/><rect class="cls-14" x="238.58" y="71.39" width="5.59" height="5.59"/><rect class="cls-14" x="249.66" y="71.39" width="5.59" height="5.59"/><rect class="cls-15" x="232.99" y="76.98" width="5.59" height="5.63"/><rect class="cls-15" x="244.07" y="76.98" width="5.59" height="5.63"/><rect class="cls-15" x="238.58" y="82.62" width="5.59" height="5.63"/><rect class="cls-15" x="249.66" y="82.62" width="5.59" height="5.63"/><rect class="cls-15" x="232.99" y="88.25" width="5.59" height="5.63"/><rect class="cls-15" x="244.07" y="88.25" width="5.59" height="5.63"/><rect class="cls-15" x="238.58" y="93.88" width="5.59" height="5.63"/><rect class="cls-15" x="249.66" y="93.88" width="5.59" height="5.63"/><rect class="cls-15" x="232.99" y="99.51" width="5.59" height="5.63"/><rect class="cls-15" x="244.07" y="99.51" width="5.59" height="5.63"/><rect class="cls-15" x="238.58" y="105.15" width="5.59" height="5.63"/><rect class="cls-15" x="249.66" y="105.15" width="5.59" height="5.63"/><rect class="cls-15" x="232.99" y="110.78" width="5.59" height="5.63"/><rect class="cls-15" x="244.07" y="110.78" width="5.59" height="5.63"/><rect class="cls-15" x="238.58" y="116.41" width="5.59" height="5.63"/><rect class="cls-15" x="249.66" y="116.41" width="5.59" height="5.63"/><rect class="cls-15" x="232.99" y="122.05" width="5.59" height="5.63"/><rect class="cls-15" x="244.07" y="122.05" width="5.59" height="5.63"/><rect class="cls-15" x="238.58" y="127.68" width="5.59" height="5.63"/><rect class="cls-15" x="249.66" y="127.68" width="5.59" height="5.63"/><rect class="cls-15" x="232.99" y="133.48" width="5.59" height="5.45"/><rect class="cls-15" x="244.07" y="133.48" width="5.59" height="5.45"/><rect class="cls-15" x="238.58" y="138.93" width="5.59" height="5.45"/><rect class="cls-15" x="249.66" y="138.93" width="5.59" height="5.45"/><rect class="cls-15" x="238.58" y="149.77" width="5.59" height="5.45"/><rect class="cls-15" x="249.66" y="149.77" width="5.59" height="5.45"/><rect class="cls-15" x="232.99" y="144.38" width="5.59" height="5.45"/><rect class="cls-15" x="244.07" y="144.38" width="5.59" height="5.45"/><rect class="cls-14" x="255.26" y="54.61" width="5.59" height="5.59"/><rect class="cls-14" x="255.26" y="65.8" width="5.59" height="5.59"/><rect class="cls-15" x="255.26" y="76.98" width="5.59" height="5.63"/><rect class="cls-15" x="255.26" y="88.25" width="5.59" height="5.63"/><rect class="cls-15" x="255.26" y="99.51" width="5.59" height="5.63"/><rect class="cls-15" x="255.26" y="110.78" width="5.59" height="5.63"/><rect class="cls-15" x="255.26" y="122.05" width="5.59" height="5.63"/><rect class="cls-15" x="255.26" y="133.48" width="5.59" height="5.45"/><rect class="cls-15" x="255.26" y="144.38" width="5.59" height="5.45"/><rect class="cls-11" x="237.83" y="133.54" width="0.81" height="21.68"/><rect class="cls-11" x="243.49" y="133.54" width="0.81" height="21.68"/><rect class="cls-11" x="249.15" y="133.54" width="0.81" height="21.68"/><rect class="cls-11" x="254.81" y="133.54" width="0.81" height="21.68"/><rect class="cls-11" x="260.47" y="133.54" width="0.81" height="21.68"/><rect class="cls-11" x="266.13" y="133.54" width="0.81" height="21.68"/><rect class="cls-11" x="271.79" y="133.54" width="0.81" height="21.68"/><rect class="cls-11" x="232.72" y="149.47" width="45.19" height="0.83"/><rect class="cls-11" x="232.72" y="144.1" width="45.19" height="0.83"/><rect class="cls-11" x="232.72" y="138.72" width="45.19" height="0.83"/><rect class="cls-11" x="232.16" y="133.38" width="0.81" height="22.4"/><rect class="cls-11" x="277.45" y="133.38" width="0.81" height="22.4"/><rect class="cls-11" x="232.57" y="133.35" width="45.29" height="0.83"/><rect class="cls-11" x="232.57" y="155" width="45.29" height="0.83"/><g class="cls-16"><rect class="cls-17" x="95.03" y="49.38" width="0.81" height="21.68"/><rect class="cls-17" x="100.69" y="49.38" width="0.81" height="21.68"/><rect class="cls-17" x="106.35" y="49.38" width="0.81" height="21.68"/><rect class="cls-17" x="112.01" y="49.38" width="0.81" height="21.68"/><rect class="cls-17" x="117.67" y="49.38" width="0.81" height="21.68"/><rect class="cls-17" x="123.33" y="49.38" width="0.81" height="21.68"/><rect class="cls-17" x="129" y="49.38" width="0.81" height="21.68"/><rect class="cls-17" x="89.92" y="65.31" width="45.19" height="0.83"/><rect class="cls-17" x="89.92" y="59.94" width="45.19" height="0.83"/><rect class="cls-17" x="89.92" y="54.56" width="45.19" height="0.83"/><rect class="cls-17" x="89.36" y="49.22" width="0.81" height="22.4"/><rect class="cls-17" x="134.66" y="49.22" width="0.81" height="22.4"/><rect class="cls-17" x="89.77" y="49.19" width="45.29" height="0.83"/><rect class="cls-17" x="89.77" y="70.83" width="45.29" height="0.83"/><rect class="cls-17" x="95.03" y="70.88" width="0.81" height="21.68"/><rect class="cls-17" x="100.69" y="70.88" width="0.81" height="21.68"/><rect class="cls-17" x="106.35" y="70.88" width="0.81" height="21.68"/><rect class="cls-17" x="112.01" y="70.88" width="0.81" height="21.68"/><rect class="cls-17" x="117.67" y="70.88" width="0.81" height="21.68"/><rect class="cls-17" x="123.33" y="70.88" width="0.81" height="21.68"/><rect class="cls-17" x="129" y="70.88" width="0.81" height="21.68"/><rect class="cls-17" x="89.92" y="86.81" width="45.19" height="0.83"/><rect class="cls-17" x="89.92" y="81.44" width="45.19" height="0.83"/><rect class="cls-17" x="89.92" y="76.06" width="45.19" height="0.83"/><rect class="cls-17" x="89.36" y="70.72" width="0.81" height="22.4"/><rect class="cls-17" x="134.66" y="70.72" width="0.81" height="22.4"/><rect class="cls-17" x="89.77" y="70.69" width="45.29" height="0.83"/><rect class="cls-17" x="89.77" y="92.33" width="45.29" height="0.83"/><rect class="cls-17" x="95.03" y="92.38" width="0.81" height="21.68"/><rect class="cls-17" x="100.69" y="92.38" width="0.81" height="21.68"/><rect class="cls-17" x="106.35" y="92.38" width="0.81" height="21.68"/><rect class="cls-17" x="112.01" y="92.38" width="0.81" height="21.68"/><rect class="cls-17" x="117.67" y="92.38" width="0.81" height="21.68"/><rect class="cls-17" x="123.33" y="92.38" width="0.81" height="21.68"/><rect class="cls-17" x="129" y="92.38" width="0.81" height="21.68"/><rect class="cls-17" x="89.92" y="108.31" width="45.19" height="0.83"/><rect class="cls-17" x="89.92" y="102.94" width="45.19" height="0.83"/><rect class="cls-17" x="89.92" y="97.56" width="45.19" height="0.83"/><rect class="cls-17" x="89.36" y="92.22" width="0.81" height="22.4"/><rect class="cls-17" x="134.66" y="92.22" width="0.81" height="22.4"/><rect class="cls-17" x="89.77" y="92.19" width="45.29" height="0.83"/><rect class="cls-17" x="89.77" y="113.83" width="45.29" height="0.83"/><rect class="cls-17" x="140.28" y="49.38" width="0.81" height="21.68"/><rect class="cls-17" x="145.94" y="49.38" width="0.81" height="21.68"/><rect class="cls-17" x="151.6" y="49.38" width="0.81" height="21.68"/><rect class="cls-17" x="157.26" y="49.38" width="0.81" height="21.68"/><rect class="cls-17" x="162.92" y="49.38" width="0.81" height="21.68"/><rect class="cls-17" x="168.58" y="49.38" width="0.81" height="21.68"/><rect class="cls-17" x="174.25" y="49.38" width="0.81" height="21.68"/><rect class="cls-17" x="135.17" y="65.31" width="45.19" height="0.83"/><rect class="cls-17" x="135.17" y="59.94" width="45.19" height="0.83"/><rect class="cls-17" x="135.17" y="54.56" width="45.19" height="0.83"/><rect class="cls-17" x="134.61" y="49.22" width="0.81" height="22.4"/><rect class="cls-17" x="179.91" y="49.22" width="0.81" height="22.4"/><rect class="cls-17" x="135.02" y="49.19" width="45.29" height="0.83"/><rect class="cls-17" x="135.02" y="70.83" width="45.29" height="0.83"/><rect class="cls-17" x="140.28" y="70.88" width="0.81" height="21.68"/><rect class="cls-17" x="145.94" y="70.88" width="0.81" height="21.68"/><rect class="cls-17" x="151.6" y="70.88" width="0.81" height="21.68"/><rect class="cls-17" x="157.26" y="70.88" width="0.81" height="21.68"/><rect class="cls-17" x="162.92" y="70.88" width="0.81" height="21.68"/><rect class="cls-17" x="168.58" y="70.88" width="0.81" height="21.68"/><rect class="cls-17" x="174.25" y="70.88" width="0.81" height="21.68"/><rect class="cls-17" x="135.17" y="86.81" width="45.19" height="0.83"/><rect class="cls-17" x="135.17" y="81.44" width="45.19" height="0.83"/><rect class="cls-17" x="135.17" y="76.06" width="45.19" height="0.83"/><rect class="cls-17" x="134.61" y="70.72" width="0.81" height="22.4"/><rect class="cls-17" x="179.91" y="70.72" width="0.81" height="22.4"/><rect class="cls-17" x="135.02" y="70.69" width="45.29" height="0.83"/><rect class="cls-17" x="135.02" y="92.33" width="45.29" height="0.83"/><rect class="cls-17" x="140.28" y="92.38" width="0.81" height="21.68"/><rect class="cls-17" x="145.94" y="92.38" width="0.81" height="21.68"/><rect class="cls-17" x="151.6" y="92.38" width="0.81" height="21.68"/><rect class="cls-17" x="157.26" y="92.38" width="0.81" height="21.68"/><rect class="cls-17" x="162.92" y="92.38" width="0.81" height="21.68"/><rect class="cls-17" x="168.58" y="92.38" width="0.81" height="21.68"/><rect class="cls-17" x="174.25" y="92.38" width="0.81" height="21.68"/><rect class="cls-17" x="135.17" y="108.31" width="45.19" height="0.83"/><rect class="cls-17" x="135.17" y="102.94" width="45.19" height="0.83"/><rect class="cls-17" x="135.17" y="97.56" width="45.19" height="0.83"/><rect class="cls-17" x="134.61" y="92.22" width="0.81" height="22.4"/><rect class="cls-17" x="179.91" y="92.22" width="0.81" height="22.4"/><rect class="cls-17" x="135.02" y="92.19" width="45.29" height="0.83"/><rect class="cls-17" x="135.02" y="113.83" width="45.29" height="0.83"/></g><path class="cls-5" d="M4.6,83.8v16.26h-2V89A52.49,52.49,0,0,0,0,105.3c0,.87,0,1.75.07,2.61V103.3a51.19,51.19,0,0,1,9.89,1l1.18.25V73A53,53,0,0,0,4.6,83.8Z"/><path class="cls-5" d="M30.22,57.69V86.38a29.44,29.44,0,0,1,6.55-5.74V55.13A52.94,52.94,0,0,0,30.22,57.69Z"/><path class="cls-5" d="M21.68,62.75v41.06h-2V64.28a53.74,53.74,0,0,0-6.54,6.26V105a51.91,51.91,0,0,1,10.38,3.94A29.48,29.48,0,0,1,28.22,89V58.69A54.09,54.09,0,0,0,21.68,62.75Z"/><path class="cls-5" d="M38.77,54.55V79.46a29,29,0,0,1,6.54-2.56V53.21A52.25,52.25,0,0,0,38.77,54.55Z"/><path class="cls-5" d="M55.85,52.8V69.06h-2V52.71l-1.24,0c-1.79,0-3.56.1-5.3.27V76.47a28.94,28.94,0,0,1,5.3-.49A29.29,29.29,0,0,1,77.89,90.46L98,78.67A52.6,52.6,0,0,0,55.85,52.8Z"/><path class="cls-3" d="M4.6,100.06V83.8A53.66,53.66,0,0,0,2.6,89v11.09Z"/><path class="cls-3" d="M11.14,107.44h2V105c-.66-.17-1.33-.33-2-.48Z"/><path class="cls-3" d="M11.14,73v31.56c.67.15,1.34.31,2,.48V70.54C12.45,71.32,11.78,72.13,11.14,73Z"/><path class="cls-3" d="M21.68,103.81V62.75c-.68.5-1.34,1-2,1.53v39.53Z"/><path class="cls-3" d="M28.22,96.69h2V86.38a32.25,32.25,0,0,0-2,2.65Z"/><path class="cls-3" d="M28.22,58.69V89a32.25,32.25,0,0,1,2-2.65V57.69C29.55,58,28.88,58.34,28.22,58.69Z"/><path class="cls-3" d="M36.77,88.19h2V79.46c-.69.36-1.35.76-2,1.18Z"/><path class="cls-3" d="M36.77,55.13V80.64c.65-.42,1.31-.82,2-1.18V54.55C38.1,54.73,37.43,54.92,36.77,55.13Z"/><path class="cls-3" d="M45.31,82.19h2V76.47c-.68.12-1.34.26-2,.43Z"/><path class="cls-3" d="M45.31,53.21V76.9c.66-.17,1.32-.31,2-.43V53C46.64,53,46,53.12,45.31,53.21Z"/><path class="cls-3" d="M55.85,69.06V52.8c-.66,0-1.33-.07-2-.09V69.06Z"/></g></g></svg>