<svg xmlns="http://www.w3.org/2000/svg" xmlns:xlink="http://www.w3.org/1999/xlink" viewBox="0 0 654.49 260"><defs><style>.cls-1,.cls-13{fill:none;}.cls-2{fill:#0c2638;}.cls-18,.cls-3{fill:#fff;}.cls-4{fill:#846cab;}.cls-5{fill:#3680c3;}.cls-6{fill:#fbdfe2;}.cls-7{fill:#25b5e8;}.cls-8{fill:#fcc013;}.cls-9{fill:#7bba47;}.cls-10{fill:#cb6faa;}.cls-11{fill:#dc3b20;}.cls-12{fill:#f18724;}.cls-13{stroke:#fff;stroke-miterlimit:10;stroke-width:2px;}.cls-14{fill:#93bc4f;}.cls-15{fill:#fbe33f;}.cls-16{clip-path:url(#clip-path);}.cls-17{fill:#63c5f1;}.cls-18{font-size:46.08px;font-family:GTPressuraMonoTrial-Regular, GT Pressura Mono Trial;letter-spacing:-0.02em;}.cls-19{clip-path:url(#clip-path-2);}.cls-20{fill:#e7cb1a;}</style><clipPath id="clip-path"><path class="cls-1" d="M182.88,73a52.43,52.43,0,0,0-52.44,52.43c0,.26,0,.52,0,.78,1.45.11,2.91.19,4.39.19a54.07,54.07,0,0,0,54.1-53A52.9,52.9,0,0,0,182.88,73Z"/></clipPath><clipPath id="clip-path-2"><rect class="cls-1" x="356.97" y="198.07" width="265.76" height="41.9"/></clipPath></defs><title>ioc_logo_withTechnocamps_forYellowBG</title><g id="Layer_2" data-name="Layer 2"><g id="withTechnocamps_forYellowBG"><rect class="cls-2" width="654.49" height="260" rx="31.75"/><path class="cls-3" d="M33.49,33.48a.93.93,0,0,1-.93-.92V30.49a.93.93,0,0,1,.93-.92h9.35a.92.92,0,0,1,.92.92V48.23a.44.44,0,0,0,.46.46h5.85a.92.92,0,0,1,.92.92v2.07a.92.92,0,0,1-.92.92H33a.92.92,0,0,1-.92-.92V49.61a.92.92,0,0,1,.92-.92h6a.44.44,0,0,0,.46-.46V34a.44.44,0,0,0-.46-.47ZM43.9,24a.74.74,0,0,1-.74.74H40a.73.73,0,0,1-.74-.74V20.77A.76.76,0,0,1,40,20h3.13a.77.77,0,0,1,.74.74Z"/><path class="cls-3" d="M65.73,29.11a8.61,8.61,0,0,1,8.76,8.75V51.68a.93.93,0,0,1-.93.92h-2.3a.92.92,0,0,1-.92-.92V37.86c0-2.67-2.21-4.61-5.07-4.61S60.21,35,60.21,37.63v14a.93.93,0,0,1-.93.92H57a.92.92,0,0,1-.92-.92V30.49a.92.92,0,0,1,.92-.92h2a.89.89,0,0,1,.64.32,1.77,1.77,0,0,0,1.15.74C62.14,30.63,62.51,29.11,65.73,29.11Z"/><path class="cls-3" d="M81.26,44.17h2.3a.92.92,0,0,1,.92.92c0,3.37,2.86,4,5,4,2.49,0,4.93-.64,4.93-3.41,0-2-2.26-2.62-4.93-3.18-3.78-.78-8.34-1.7-8.34-6.72,0-4.15,4.15-6.68,8.34-6.68s8.2,2.53,8.2,6.91a.92.92,0,0,1-.92.92H94.43a.92.92,0,0,1-.92-.92c0-1.61-1.2-3-4.05-3s-4,1.43-4,2.77c0,1.66,1.79,2.16,4,2.58,3.87.69,9.07,1.52,9.07,7.32,0,4.93-4.28,7.37-9.07,7.37-4.61,0-9.12-2.3-9.12-8A.92.92,0,0,1,81.26,44.17Z"/><path class="cls-3" d="M113.65,45.69a3.22,3.22,0,1,0,6.44,0,.93.93,0,0,1,.93-.92h2.3a.92.92,0,0,1,.92.92,7.37,7.37,0,1,1-14.74,0V34.41A.43.43,0,0,0,109,34h-4.61a.93.93,0,0,1-.92-.93v-2.3a.92.92,0,0,1,.92-.92H109a.43.43,0,0,0,.46-.46V22.2a.92.92,0,0,1,.92-.92h2.3a.93.93,0,0,1,.93.92v7.14a.43.43,0,0,0,.46.46h7.37a.92.92,0,0,1,.92.92V33a.93.93,0,0,1-.92.93h-7.37a.43.43,0,0,0-.46.46Z"/><path class="cls-3" d="M131.15,33.48a.92.92,0,0,1-.92-.92V30.49a.92.92,0,0,1,.92-.92h9.35a.92.92,0,0,1,.92.92V48.23a.44.44,0,0,0,.47.46h5.85a.92.92,0,0,1,.92.92v2.07a.92.92,0,0,1-.92.92H130.69a.92.92,0,0,1-.92-.92V49.61a.92.92,0,0,1,.92-.92h6a.44.44,0,0,0,.46-.46V34a.44.44,0,0,0-.46-.47ZM141.56,24a.73.73,0,0,1-.73.74h-3.14A.73.73,0,0,1,137,24V20.77a.76.76,0,0,1,.73-.74h3.14a.76.76,0,0,1,.73.74Z"/><path class="cls-3" d="M162.48,45.69a3.23,3.23,0,1,0,6.45,0,.92.92,0,0,1,.92-.92h2.3a.92.92,0,0,1,.92.92,7.37,7.37,0,0,1-14.74,0V34.41a.43.43,0,0,0-.46-.46h-4.61a.93.93,0,0,1-.92-.93v-2.3a.92.92,0,0,1,.92-.92h4.61a.43.43,0,0,0,.46-.46V22.2a.92.92,0,0,1,.92-.92h2.31a.92.92,0,0,1,.92.92v7.14a.43.43,0,0,0,.46.46h7.37a.92.92,0,0,1,.92.92V33a.93.93,0,0,1-.92.93h-7.37a.43.43,0,0,0-.46.46Z"/><path class="cls-3" d="M186.66,53.06a8.39,8.39,0,0,1-8.75-8.75V30.49a.92.92,0,0,1,.92-.92h2.31a.92.92,0,0,1,.92.92V44.31c0,2.67,1.89,4.61,5.07,4.61,2.85,0,5.06-1.71,5.06-4.38v-14a.92.92,0,0,1,.92-.92h2.31a.92.92,0,0,1,.92.92V51.68a.92.92,0,0,1-.92.92h-2a.87.87,0,0,1-.64-.32,1.79,1.79,0,0,0-1.16-.74C190.26,51.54,190.07,53.06,186.66,53.06Z"/><path class="cls-3" d="M211.31,45.69a3.23,3.23,0,1,0,6.45,0,.92.92,0,0,1,.92-.92H221a.92.92,0,0,1,.92.92,7.37,7.37,0,1,1-14.74,0V34.41a.44.44,0,0,0-.47-.46h-4.6a.93.93,0,0,1-.92-.93v-2.3a.92.92,0,0,1,.92-.92h4.6a.44.44,0,0,0,.47-.46V22.2a.92.92,0,0,1,.92-.92h2.3a.92.92,0,0,1,.92.92v7.14a.44.44,0,0,0,.46.46h7.37a.92.92,0,0,1,.92.92V33a.93.93,0,0,1-.92.93h-7.37a.44.44,0,0,0-.46.46Z"/><path class="cls-3" d="M236.14,48.92c2.4,0,4.2-1.2,4.75-2.91a1,1,0,0,1,1.06-.78h2.35a.74.74,0,0,1,.78.92c-.55,4-4.15,6.91-8.94,6.91a9.14,9.14,0,0,1-9.44-8.75,49.58,49.58,0,0,1,0-6.45,9.14,9.14,0,0,1,9.44-8.75c5.58,0,9.21,3.45,9.21,9.21V41.5a.92.92,0,0,1-.92.92H231.26a.44.44,0,0,0-.46.46C230.8,47.07,233,48.92,236.14,48.92Zm-4.79-10.18h9.58a.44.44,0,0,0,.46-.46,4.89,4.89,0,0,0-5.2-5,5,5,0,0,0-5.3,5A.44.44,0,0,0,231.35,38.74Z"/><path class="cls-3" d="M284.1,37.86a49.58,49.58,0,0,1,0,6.45,9.47,9.47,0,0,1-18.89,0,49.58,49.58,0,0,1,0-6.45,9.47,9.47,0,0,1,18.89,0ZM280,44.31a49.58,49.58,0,0,0,0-6.45,5.35,5.35,0,0,0-10.59,0,49.58,49.58,0,0,0,0,6.45,5.35,5.35,0,0,0,10.59,0Z"/><path class="cls-3" d="M289.9,34A.93.93,0,0,1,289,33v-2.3a.92.92,0,0,1,.92-.92h5.76a.43.43,0,0,0,.46-.46v-.69A8.45,8.45,0,0,1,304.65,20h2.76a.92.92,0,0,1,.92.92v2.17a.92.92,0,0,1-.92.92h-2.76a4.64,4.64,0,0,0-4.38,4.61v.69a.43.43,0,0,0,.46.46h7.46a.92.92,0,0,1,.92.92V33a.93.93,0,0,1-.92.93h-7.46a.43.43,0,0,0-.46.46V51.68a.92.92,0,0,1-.92.92h-2.3a.93.93,0,0,1-.93-.92V34.41a.43.43,0,0,0-.46-.46Z"/><path class="cls-4" d="M73.71,173.05v4.74a52.83,52.83,0,0,1-52.18-47.14l-.12-1.26s0-.09,0-.13c0-.43-.05-.87-.08-1.29v-4.64a52.06,52.06,0,0,1,9.89,1A51.5,51.5,0,0,1,44.76,129a29.36,29.36,0,0,0,24.32,25.31A51.58,51.58,0,0,1,73.71,173.05Z"/><path class="cls-5" d="M99.14,140.18,119.22,152A52.61,52.61,0,0,1,21.4,129.39a52.82,52.82,0,0,0,52.3,48.4v-4.74a51.58,51.58,0,0,0-4.63-18.78,28.91,28.91,0,0,0,4.78.39A29.31,29.31,0,0,0,99.14,140.18Z"/><path class="cls-6" d="M69.08,154.27A29.36,29.36,0,0,1,44.76,129,53.24,53.24,0,0,1,69.08,154.27Z"/><path class="cls-7" d="M299.51,74.71H254.32v22.4h45.19a28.2,28.2,0,0,1,0,56.4v22.4a50.6,50.6,0,1,0,0-101.2Z"/><path class="cls-8" d="M633.18,118.23v59.71H607.82v-3.69a53.25,53.25,0,0,0,25.35-22.07l-.71-.42a52.4,52.4,0,0,1-24.64,21.6v-3a49.86,49.86,0,0,0,23.28-20.13l-.71-.43a49.18,49.18,0,0,1-22.57,19.68v-2.83A46.57,46.57,0,0,0,628,148.52l-.71-.42a45.77,45.77,0,0,1-19.45,17.6v-2.49A43.2,43.2,0,0,0,625.11,147l-.71-.43a42.32,42.32,0,0,1-16.58,15.7v-2.76a39.8,39.8,0,0,0,14.32-14.1l-.71-.42a39,39,0,0,1-13.61,13.56v-3.26a36.45,36.45,0,0,0,11-11.63l-.71-.42a35.25,35.25,0,0,1-10.33,11v-3.22a32.9,32.9,0,0,0,7.92-9.07l-.71-.42a31.86,31.86,0,0,1-7.21,8.43v-3a29.6,29.6,0,0,0,5.27-6.58l-.71-.42a28.71,28.71,0,0,1-4.56,5.86v-5H585.1V118.23Z"/><path class="cls-8" d="M613.09,140.39a29.6,29.6,0,0,1-5.27,6.58v-1.14a28.71,28.71,0,0,0,4.56-5.86Z"/><path class="cls-8" d="M633.17,152.18a53.25,53.25,0,0,1-25.35,22.07v-.89a52.4,52.4,0,0,0,24.64-21.6Z"/><path class="cls-8" d="M615.74,142a32.9,32.9,0,0,1-7.92,9.07V150a31.86,31.86,0,0,0,7.21-8.43Z"/><path class="cls-8" d="M618.86,143.66a36.45,36.45,0,0,1-11,11.63v-1a35.25,35.25,0,0,0,10.33-11Z"/><path class="cls-8" d="M622.14,145.41a39.8,39.8,0,0,1-14.32,14.1v-1A39,39,0,0,0,621.43,145Z"/><path class="cls-8" d="M625.11,147a43.2,43.2,0,0,1-17.29,16.21v-.94a42.32,42.32,0,0,0,16.58-15.7Z"/><path class="cls-8" d="M628,148.52a46.57,46.57,0,0,1-20.16,18.09v-.91a45.77,45.77,0,0,0,19.45-17.6Z"/><path class="cls-8" d="M631.1,150.19a49.86,49.86,0,0,1-23.28,20.13v-.88a49.18,49.18,0,0,0,22.57-19.68Z"/><polygon class="cls-8" points="370.16 125.37 370.16 150.52 395.31 150.52 395.31 150.52 370.16 125.37 370.16 125.37"/><polygon class="cls-9" points="370.16 125.37 395.31 150.52 395.31 125.37 370.16 125.37"/><path class="cls-9" d="M370.16,74.94h0a25.15,25.15,0,0,0,25.15,25.14h0L370.16,74.94Z"/><polygon class="cls-8" points="370.16 74.94 395.31 100.08 395.31 74.94 370.16 74.94"/><polygon class="cls-5" points="370.16 100.16 370.16 125.3 395.31 100.16 370.16 100.16"/><polygon class="cls-8" points="395.31 100.16 370.16 125.3 395.31 125.3 395.31 100.16"/><polygon class="cls-5" points="395.31 175.73 395.31 150.59 370.16 175.73 395.31 175.73"/><polygon class="cls-9" points="370.16 150.59 370.16 175.73 370.16 175.73 395.31 150.59 395.31 150.59 370.16 150.59"/><rect class="cls-10" x="489.62" y="74.74" width="25.15" height="101.2"/><path class="cls-8" d="M235.32,124.42a52.63,52.63,0,1,0,0,1.64c0-.27,0-.55,0-.82S235.33,124.69,235.32,124.42Zm-81.9,1a29.46,29.46,0,1,1,29.46,29.47A29.46,29.46,0,0,1,153.42,125.42Z"/><path class="cls-11" d="M212.08,129.43A29.49,29.49,0,0,1,187,154.6,52.63,52.63,0,0,1,212.08,129.43Z"/><path class="cls-12" d="M235.33,125.24c0,.27,0,.55,0,.82a52.45,52.45,0,0,1-51.62,51.62h-1.64c0-.27,0-.55,0-.82A52.31,52.31,0,0,1,187,154.6a29.49,29.49,0,0,0,25.08-25.17,52.39,52.39,0,0,1,22.42-5h.82C235.33,124.69,235.33,125,235.33,125.24Z"/><circle class="cls-8" cx="449.15" cy="80.35" r="2.42"/><circle class="cls-8" cx="454.02" cy="87.51" r="2.42"/><circle class="cls-8" cx="458.88" cy="94.68" r="2.42"/><circle class="cls-8" cx="463.75" cy="101.84" r="2.42"/><circle class="cls-8" cx="468.62" cy="109.01" r="2.42"/><circle class="cls-8" cx="473.48" cy="116.17" r="2.42"/><circle class="cls-8" cx="478.35" cy="123.33" r="2.42"/><circle class="cls-8" cx="483.22" cy="130.5" r="2.42"/><circle class="cls-8" cx="488.08" cy="137.66" r="2.42"/><circle class="cls-8" cx="492.95" cy="144.83" r="2.42"/><circle class="cls-8" cx="497.81" cy="151.99" r="2.42"/><circle class="cls-8" cx="502.68" cy="159.16" r="2.42"/><circle class="cls-8" cx="507.55" cy="166.32" r="2.42"/><circle class="cls-8" cx="512.41" cy="173.48" r="2.42"/><circle class="cls-8" cx="449.15" cy="94.71" r="2.42"/><circle class="cls-8" cx="454.02" cy="101.87" r="2.42"/><circle class="cls-8" cx="458.88" cy="109.04" r="2.42"/><circle class="cls-8" cx="463.75" cy="116.2" r="2.42"/><circle class="cls-8" cx="468.62" cy="123.36" r="2.42"/><circle class="cls-8" cx="473.48" cy="130.53" r="2.42"/><circle class="cls-8" cx="478.35" cy="137.69" r="2.42"/><circle class="cls-8" cx="483.22" cy="144.86" r="2.42"/><circle class="cls-8" cx="488.08" cy="152.02" r="2.42"/><circle class="cls-8" cx="492.95" cy="159.19" r="2.42"/><circle class="cls-8" cx="497.81" cy="166.35" r="2.42"/><circle class="cls-8" cx="502.68" cy="173.51" r="2.42"/><circle class="cls-8" cx="449.15" cy="109.07" r="2.42"/><circle class="cls-8" cx="454.02" cy="116.23" r="2.42"/><circle class="cls-8" cx="458.88" cy="123.39" r="2.42"/><circle class="cls-8" cx="463.75" cy="130.56" r="2.42"/><circle class="cls-8" cx="468.62" cy="137.72" r="2.42"/><circle class="cls-8" cx="473.48" cy="144.89" r="2.42"/><circle class="cls-8" cx="478.35" cy="152.05" r="2.42"/><circle class="cls-8" cx="483.22" cy="159.22" r="2.42"/><circle class="cls-8" cx="488.08" cy="166.38" r="2.42"/><circle class="cls-8" cx="492.95" cy="173.54" r="2.42"/><circle class="cls-8" cx="449.15" cy="123.42" r="2.42"/><circle class="cls-8" cx="454.02" cy="130.59" r="2.42"/><circle class="cls-8" cx="458.88" cy="137.75" r="2.42"/><circle class="cls-8" cx="463.75" cy="144.92" r="2.42"/><circle class="cls-8" cx="468.62" cy="152.08" r="2.42"/><circle class="cls-8" cx="473.48" cy="159.24" r="2.42"/><circle class="cls-8" cx="478.35" cy="166.41" r="2.42"/><circle class="cls-8" cx="483.22" cy="173.57" r="2.42"/><path class="cls-13" d="M632.32,153.5A53,53,0,1,1,632.21,97"/><path class="cls-13" d="M626.33,149.43a45.76,45.76,0,1,1-.26-48.61"/><path class="cls-13" d="M619.32,145.38a37.69,37.69,0,1,1-.32-40.59"/><path class="cls-13" d="M613.17,141.54a30.44,30.44,0,1,1-.42-33.06"/><polygon class="cls-3" points="415.05 79.89 415.05 89.98 423.93 84.93 415.05 79.89"/><polygon class="cls-3" points="415.05 74.74 415.05 79.78 423.93 74.74 415.05 74.74"/><polygon class="cls-3" points="432.81 74.74 432.81 79.78 441.69 74.74 432.81 74.74"/><polygon class="cls-3" points="415.05 89.98 415.05 100.07 423.93 95.02 415.05 89.98"/><polygon class="cls-3" points="423.93 105.11 415.05 100.07 415.05 110.16 415.05 110.16 423.93 105.11"/><polygon class="cls-3" points="415.05 110.16 415.05 110.16 415.05 110.16 415.05 110.16 415.05 115.16 423.85 115.16 415.05 110.16"/><polygon class="cls-3" points="415.05 110.16 415.05 110.16 415.05 110.16 415.05 110.16"/><polygon class="cls-3" points="423.85 115.16 415.05 115.16 415.05 120.25 423.93 115.21 423.85 115.16"/><polygon class="cls-3" points="415.05 120.25 415.05 130.34 423.93 125.29 415.05 120.25"/><polygon class="cls-3" points="415.05 130.34 415.05 140.42 423.93 135.38 415.05 130.34"/><polygon class="cls-3" points="415.05 140.42 415.05 150.51 423.93 145.47 415.05 140.42"/><polygon class="cls-3" points="415.05 150.51 415.05 160.6 423.93 155.56 415.05 150.51"/><polygon class="cls-3" points="415.05 160.6 415.05 170.69 423.93 165.65 415.05 160.6"/><polygon class="cls-3" points="423.93 175.74 415.05 170.69 415.05 175.91 423.63 175.91 423.93 175.74"/><polygon class="cls-3" points="423.93 84.93 423.93 95.02 432.81 89.98 423.93 84.93"/><polygon class="cls-3" points="423.93 74.84 423.93 84.93 432.81 79.89 423.93 74.84"/><polygon class="cls-3" points="423.93 95.02 423.93 105.11 432.81 100.07 423.93 95.02"/><polygon class="cls-3" points="432.81 110.16 423.93 105.11 423.93 115.2 423.93 115.2 432.81 110.16"/><polygon class="cls-3" points="423.93 115.2 423.93 115.2 423.93 115.2 423.93 115.2 423.93 120.2 432.73 120.2 423.93 115.2"/><polygon class="cls-3" points="423.93 115.2 423.93 115.2 423.93 115.2 423.93 115.2"/><polygon class="cls-3" points="432.81 120.25 432.73 120.2 423.93 120.2 423.93 125.29 423.93 125.29 432.81 120.25"/><polygon class="cls-3" points="423.93 125.29 423.93 135.38 432.81 130.34 423.93 125.29"/><polygon class="cls-3" points="423.93 135.38 423.93 145.47 432.81 140.42 423.93 135.38"/><polygon class="cls-3" points="423.93 145.47 423.93 155.56 432.81 150.51 423.93 145.47"/><polygon class="cls-3" points="423.93 155.56 423.93 165.65 432.81 160.6 423.93 155.56"/><polygon class="cls-3" points="423.93 165.65 423.93 175.74 432.81 170.69 423.93 165.65"/><polygon class="cls-3" points="423.93 175.74 423.93 175.91 424.23 175.91 423.93 175.74"/><polygon class="cls-3" points="432.81 89.98 432.81 100.07 441.69 95.02 432.81 89.98"/><polygon class="cls-3" points="432.81 79.89 432.81 89.98 441.69 84.93 432.81 79.89"/><polygon class="cls-3" points="432.81 100.07 432.81 110.16 441.69 105.11 432.81 100.07"/><polygon class="cls-3" points="441.69 115.2 432.81 110.16 432.81 120.25 432.81 120.25 441.69 115.2"/><polygon class="cls-3" points="432.81 120.25 432.81 120.25 432.81 120.25 432.81 120.25 432.81 125.25 441.61 125.25 432.81 120.25"/><polygon class="cls-3" points="432.81 120.25 432.81 120.25 432.81 120.25 432.81 120.25"/><polygon class="cls-3" points="441.69 125.3 441.61 125.25 432.81 125.25 432.81 130.34 432.81 130.34 441.69 125.3"/><polygon class="cls-3" points="432.81 130.34 432.81 140.42 441.69 135.38 432.81 130.34"/><polygon class="cls-3" points="432.81 140.42 432.81 150.51 441.69 145.47 432.81 140.42"/><polygon class="cls-3" points="432.81 150.51 432.81 160.6 441.69 155.56 432.81 150.51"/><polygon class="cls-3" points="432.81 160.6 432.81 170.69 441.69 165.65 432.81 160.6"/><polygon class="cls-3" points="441.69 175.74 432.81 170.69 432.81 175.91 441.39 175.91 441.69 175.74"/><rect class="cls-14" x="254.24" y="74.64" width="5.59" height="5.59"/><rect class="cls-14" x="265.32" y="74.64" width="5.59" height="5.59"/><rect class="cls-14" x="259.83" y="80.24" width="5.59" height="5.59"/><rect class="cls-14" x="270.91" y="80.24" width="5.59" height="5.59"/><rect class="cls-14" x="254.24" y="85.83" width="5.59" height="5.59"/><rect class="cls-14" x="265.32" y="85.83" width="5.59" height="5.59"/><rect class="cls-14" x="259.83" y="91.42" width="5.59" height="5.59"/><rect class="cls-14" x="270.91" y="91.42" width="5.59" height="5.59"/><rect class="cls-15" x="254.24" y="97.01" width="5.59" height="5.63"/><rect class="cls-15" x="265.32" y="97.01" width="5.59" height="5.63"/><rect class="cls-15" x="259.83" y="102.65" width="5.59" height="5.63"/><rect class="cls-15" x="270.91" y="102.65" width="5.59" height="5.63"/><rect class="cls-15" x="254.24" y="108.28" width="5.59" height="5.63"/><rect class="cls-15" x="265.32" y="108.28" width="5.59" height="5.63"/><rect class="cls-15" x="259.83" y="113.91" width="5.59" height="5.63"/><rect class="cls-15" x="270.91" y="113.91" width="5.59" height="5.63"/><rect class="cls-15" x="254.24" y="119.55" width="5.59" height="5.63"/><rect class="cls-15" x="265.32" y="119.55" width="5.59" height="5.63"/><rect class="cls-15" x="259.83" y="125.18" width="5.59" height="5.63"/><rect class="cls-15" x="270.91" y="125.18" width="5.59" height="5.63"/><rect class="cls-15" x="254.24" y="130.81" width="5.59" height="5.63"/><rect class="cls-15" x="265.32" y="130.81" width="5.59" height="5.63"/><rect class="cls-15" x="259.83" y="136.44" width="5.59" height="5.63"/><rect class="cls-15" x="270.91" y="136.44" width="5.59" height="5.63"/><rect class="cls-15" x="254.24" y="142.08" width="5.59" height="5.63"/><rect class="cls-15" x="265.32" y="142.08" width="5.59" height="5.63"/><rect class="cls-15" x="259.83" y="147.71" width="5.59" height="5.63"/><rect class="cls-15" x="270.91" y="147.71" width="5.59" height="5.63"/><rect class="cls-15" x="254.24" y="153.51" width="5.59" height="5.45"/><rect class="cls-15" x="265.32" y="153.51" width="5.59" height="5.45"/><rect class="cls-15" x="259.83" y="158.96" width="5.59" height="5.45"/><rect class="cls-15" x="270.91" y="158.96" width="5.59" height="5.45"/><rect class="cls-15" x="259.83" y="169.8" width="5.59" height="5.45"/><rect class="cls-15" x="270.91" y="169.8" width="5.59" height="5.45"/><rect class="cls-15" x="254.24" y="164.41" width="5.59" height="5.45"/><rect class="cls-15" x="265.32" y="164.41" width="5.59" height="5.45"/><rect class="cls-14" x="276.5" y="74.64" width="5.59" height="5.59"/><rect class="cls-14" x="276.5" y="85.83" width="5.59" height="5.59"/><rect class="cls-15" x="276.5" y="97.01" width="5.59" height="5.63"/><rect class="cls-15" x="276.5" y="108.28" width="5.59" height="5.63"/><rect class="cls-15" x="276.5" y="119.55" width="5.59" height="5.63"/><rect class="cls-15" x="276.5" y="130.81" width="5.59" height="5.63"/><rect class="cls-15" x="276.5" y="142.08" width="5.59" height="5.63"/><rect class="cls-15" x="276.5" y="153.51" width="5.59" height="5.45"/><rect class="cls-15" x="276.5" y="164.41" width="5.59" height="5.45"/><rect class="cls-11" x="259.07" y="153.58" width="0.81" height="21.68"/><rect class="cls-11" x="264.73" y="153.58" width="0.81" height="21.68"/><rect class="cls-11" x="270.39" y="153.58" width="0.81" height="21.68"/><rect class="cls-11" x="276.06" y="153.58" width="0.81" height="21.68"/><rect class="cls-11" x="281.72" y="153.58" width="0.81" height="21.68"/><rect class="cls-11" x="287.38" y="153.58" width="0.81" height="21.68"/><rect class="cls-11" x="293.04" y="153.58" width="0.81" height="21.68"/><rect class="cls-11" x="253.96" y="169.51" width="45.19" height="0.83"/><rect class="cls-11" x="253.96" y="164.13" width="45.19" height="0.83"/><rect class="cls-11" x="253.96" y="158.75" width="45.19" height="0.83"/><rect class="cls-11" x="253.41" y="153.41" width="0.81" height="22.4"/><rect class="cls-11" x="298.7" y="153.41" width="0.81" height="22.4"/><rect class="cls-11" x="253.82" y="153.38" width="45.29" height="0.83"/><rect class="cls-11" x="253.82" y="175.03" width="45.29" height="0.83"/><g class="cls-16"><rect class="cls-17" x="116.27" y="69.42" width="0.81" height="21.68"/><rect class="cls-17" x="121.94" y="69.42" width="0.81" height="21.68"/><rect class="cls-17" x="127.6" y="69.42" width="0.81" height="21.68"/><rect class="cls-17" x="133.26" y="69.42" width="0.81" height="21.68"/><rect class="cls-17" x="138.92" y="69.42" width="0.81" height="21.68"/><rect class="cls-17" x="144.58" y="69.42" width="0.81" height="21.68"/><rect class="cls-17" x="150.24" y="69.42" width="0.81" height="21.68"/><rect class="cls-17" x="111.17" y="85.35" width="45.19" height="0.83"/><rect class="cls-17" x="111.17" y="79.97" width="45.19" height="0.83"/><rect class="cls-17" x="111.17" y="74.59" width="45.19" height="0.83"/><rect class="cls-17" x="110.61" y="69.25" width="0.81" height="22.4"/><rect class="cls-17" x="155.9" y="69.25" width="0.81" height="22.4"/><rect class="cls-17" x="111.02" y="69.22" width="45.29" height="0.83"/><rect class="cls-17" x="111.02" y="90.87" width="45.29" height="0.83"/><rect class="cls-17" x="116.27" y="90.92" width="0.81" height="21.68"/><rect class="cls-17" x="121.94" y="90.92" width="0.81" height="21.68"/><rect class="cls-17" x="127.6" y="90.92" width="0.81" height="21.68"/><rect class="cls-17" x="133.26" y="90.92" width="0.81" height="21.68"/><rect class="cls-17" x="138.92" y="90.92" width="0.81" height="21.68"/><rect class="cls-17" x="144.58" y="90.92" width="0.81" height="21.68"/><rect class="cls-17" x="150.24" y="90.92" width="0.81" height="21.68"/><rect class="cls-17" x="111.17" y="106.85" width="45.19" height="0.83"/><rect class="cls-17" x="111.17" y="101.47" width="45.19" height="0.83"/><rect class="cls-17" x="111.17" y="96.09" width="45.19" height="0.83"/><rect class="cls-17" x="110.61" y="90.75" width="0.81" height="22.4"/><rect class="cls-17" x="155.9" y="90.75" width="0.81" height="22.4"/><rect class="cls-17" x="111.02" y="90.72" width="45.29" height="0.83"/><rect class="cls-17" x="111.02" y="112.37" width="45.29" height="0.83"/><rect class="cls-17" x="116.27" y="112.42" width="0.81" height="21.68"/><rect class="cls-17" x="121.94" y="112.42" width="0.81" height="21.68"/><rect class="cls-17" x="127.6" y="112.42" width="0.81" height="21.68"/><rect class="cls-17" x="133.26" y="112.42" width="0.81" height="21.68"/><rect class="cls-17" x="138.92" y="112.42" width="0.81" height="21.68"/><rect class="cls-17" x="144.58" y="112.42" width="0.81" height="21.68"/><rect class="cls-17" x="150.24" y="112.42" width="0.81" height="21.68"/><rect class="cls-17" x="111.17" y="128.35" width="45.19" height="0.83"/><rect class="cls-17" x="111.17" y="122.97" width="45.19" height="0.83"/><rect class="cls-17" x="111.17" y="117.59" width="45.19" height="0.83"/><rect class="cls-17" x="110.61" y="112.25" width="0.81" height="22.4"/><rect class="cls-17" x="155.9" y="112.25" width="0.81" height="22.4"/><rect class="cls-17" x="111.02" y="112.22" width="45.29" height="0.83"/><rect class="cls-17" x="111.02" y="133.87" width="45.29" height="0.83"/><rect class="cls-17" x="161.52" y="69.42" width="0.81" height="21.68"/><rect class="cls-17" x="167.19" y="69.42" width="0.81" height="21.68"/><rect class="cls-17" x="172.85" y="69.42" width="0.81" height="21.68"/><rect class="cls-17" x="178.51" y="69.42" width="0.81" height="21.68"/><rect class="cls-17" x="184.17" y="69.42" width="0.81" height="21.68"/><rect class="cls-17" x="189.83" y="69.42" width="0.81" height="21.68"/><rect class="cls-17" x="195.49" y="69.42" width="0.81" height="21.68"/><rect class="cls-17" x="156.42" y="85.35" width="45.19" height="0.83"/><rect class="cls-17" x="156.42" y="79.97" width="45.19" height="0.83"/><rect class="cls-17" x="156.42" y="74.59" width="45.19" height="0.83"/><rect class="cls-17" x="155.86" y="69.25" width="0.81" height="22.4"/><rect class="cls-17" x="201.15" y="69.25" width="0.81" height="22.4"/><rect class="cls-17" x="156.27" y="69.22" width="45.29" height="0.83"/><rect class="cls-17" x="156.27" y="90.87" width="45.29" height="0.83"/><rect class="cls-17" x="161.52" y="90.92" width="0.81" height="21.68"/><rect class="cls-17" x="167.19" y="90.92" width="0.81" height="21.68"/><rect class="cls-17" x="172.85" y="90.92" width="0.81" height="21.68"/><rect class="cls-17" x="178.51" y="90.92" width="0.81" height="21.68"/><rect class="cls-17" x="184.17" y="90.92" width="0.81" height="21.68"/><rect class="cls-17" x="189.83" y="90.92" width="0.81" height="21.68"/><rect class="cls-17" x="195.49" y="90.92" width="0.81" height="21.68"/><rect class="cls-17" x="156.42" y="106.85" width="45.19" height="0.83"/><rect class="cls-17" x="156.42" y="101.47" width="45.19" height="0.83"/><rect class="cls-17" x="156.42" y="96.09" width="45.19" height="0.83"/><rect class="cls-17" x="155.86" y="90.75" width="0.81" height="22.4"/><rect class="cls-17" x="201.15" y="90.75" width="0.81" height="22.4"/><rect class="cls-17" x="156.27" y="90.72" width="45.29" height="0.83"/><rect class="cls-17" x="156.27" y="112.37" width="45.29" height="0.83"/><rect class="cls-17" x="161.52" y="112.42" width="0.81" height="21.68"/><rect class="cls-17" x="167.19" y="112.42" width="0.81" height="21.68"/><rect class="cls-17" x="172.85" y="112.42" width="0.81" height="21.68"/><rect class="cls-17" x="178.51" y="112.42" width="0.81" height="21.68"/><rect class="cls-17" x="184.17" y="112.42" width="0.81" height="21.68"/><rect class="cls-17" x="189.83" y="112.42" width="0.81" height="21.68"/><rect class="cls-17" x="195.49" y="112.42" width="0.81" height="21.68"/><rect class="cls-17" x="156.42" y="128.35" width="45.19" height="0.83"/><rect class="cls-17" x="156.42" y="122.97" width="45.19" height="0.83"/><rect class="cls-17" x="156.42" y="117.59" width="45.19" height="0.83"/><rect class="cls-17" x="155.86" y="112.25" width="0.81" height="22.4"/><rect class="cls-17" x="201.15" y="112.25" width="0.81" height="22.4"/><rect class="cls-17" x="156.27" y="112.22" width="45.29" height="0.83"/><rect class="cls-17" x="156.27" y="133.87" width="45.29" height="0.83"/></g><path class="cls-5" d="M25.85,103.83v16.26h-2V109a52.5,52.5,0,0,0-2.6,16.34c0,.87,0,1.74.06,2.6v-4.61a52.06,52.06,0,0,1,9.89,1l1.18.25V93A52.09,52.09,0,0,0,25.85,103.83Z"/><path class="cls-5" d="M51.47,77.72v28.69A29.61,29.61,0,0,1,58,100.67V75.16A52.8,52.8,0,0,0,51.47,77.72Z"/><path class="cls-5" d="M42.93,82.79v41.05h-2V84.32a52.21,52.21,0,0,0-6.54,6.25V125A52.2,52.2,0,0,1,44.76,129a30.86,30.86,0,0,1-.22-3.62,29.21,29.21,0,0,1,4.93-16.28V78.72A52.93,52.93,0,0,0,42.93,82.79Z"/><path class="cls-5" d="M60,74.58V99.49a29,29,0,0,1,6.55-2.56V73.24A52.41,52.41,0,0,0,60,74.58Z"/><path class="cls-5" d="M77.1,72.83V89.09h-2V72.75l-1.24,0c-1.79,0-3.56.09-5.3.26V96.5a29.85,29.85,0,0,1,5.3-.49,29.31,29.31,0,0,1,25.28,14.48L119.22,98.7A52.57,52.57,0,0,0,77.1,72.83Z"/><path class="cls-3" d="M25.85,120.09V103.83a48.89,48.89,0,0,0-2,5.17v11.09Z"/><path class="cls-3" d="M32.39,127.47h2V125c-.66-.17-1.33-.33-2-.48Z"/><path class="cls-3" d="M32.39,93v31.56c.67.15,1.34.31,2,.48V90.57C33.7,91.35,33,92.16,32.39,93Z"/><path class="cls-3" d="M42.93,123.84v-41c-.68.49-1.35,1-2,1.53v39.52Z"/><path class="cls-3" d="M49.47,116.72h2V106.41a32.25,32.25,0,0,0-2,2.65Z"/><path class="cls-3" d="M49.47,78.72v30.34a32.25,32.25,0,0,1,2-2.65V77.72C50.8,78,50.13,78.38,49.47,78.72Z"/><path class="cls-3" d="M58,108.22h2V99.49c-.68.36-1.35.76-2,1.18Z"/><path class="cls-3" d="M58,75.16v25.51c.65-.42,1.32-.82,2-1.18V74.58C59.34,74.76,58.67,75,58,75.16Z"/><path class="cls-3" d="M66.56,102.22h2V96.5c-.68.12-1.35.26-2,.43Z"/><path class="cls-3" d="M66.56,73.24V96.93c.65-.17,1.32-.31,2-.43V73C67.88,73.06,67.22,73.15,66.56,73.24Z"/><path class="cls-3" d="M77.1,89.09V72.83c-.67,0-1.33-.07-2-.08V89.09Z"/><text class="cls-18" transform="translate(27.96 230.64)">in wales</text><g id="Artwork_24" data-name="Artwork 24"><g class="cls-19"><g class="cls-19"><path class="cls-20" d="M372.89,230.68c-2.09.12-9.84.09-12.27-.1s-3.65-1.73-3.65-4.64V198.07h3.41a3,3,0,0,1,2.18.94,3.14,3.14,0,0,1,.95,2.28v4.27h9.64v1.32a3.08,3.08,0,0,1-.95,2.33,3.18,3.18,0,0,1-2.27.9h-6.42v14c0,1.07.63,1.61,1.89,1.61h7.49v4.93"/><path class="cls-20" d="M390.84,222.9h4.74a10.3,10.3,0,0,1-4,6.07,12,12,0,0,1-7.39,2.18,10.58,10.58,0,0,1-8.44-3.5q-3-3.42-3-9.77,0-6.06,2.93-9.48a10.58,10.58,0,0,1,8.44-3.51q5.68,0,8.82,3.42t3,9.76v1a1.74,1.74,0,0,1-.09.67h-16.4a6.49,6.49,0,0,0,1.42,4.36,4.48,4.48,0,0,0,3.7,1.51,5.35,5.35,0,0,0,2.74-.66,1.31,1.31,0,0,0,.53-.33c.15-.16.33-.33.52-.52a2.07,2.07,0,0,1,.71-.76,2.78,2.78,0,0,1,1.75-.48m-11.37-7.39h9.67a6.14,6.14,0,0,0-1.33-3.79,4.53,4.53,0,0,0-3.51-1.33,4.59,4.59,0,0,0-3.41,1.33,5.4,5.4,0,0,0-1.42,3.79"/><path class="cls-20" d="M414.54,222.9h4.74a10.3,10.3,0,0,1-4,6.07,12,12,0,0,1-7.39,2.18,10.58,10.58,0,0,1-8.44-3.5q-3-3.42-3-9.77,0-6.06,2.93-9.48a10.58,10.58,0,0,1,8.44-3.51q5.69,0,8.82,3.42a12.86,12.86,0,0,1,2.46,4.83h-6.63a5.88,5.88,0,0,0-.95-1.42,4.53,4.53,0,0,0-3.51-1.33,4.59,4.59,0,0,0-3.41,1.33c-1.14,1.26-1.71,3.35-1.71,6.25s.57,5,1.71,6.17a4.48,4.48,0,0,0,3.7,1.51A5.35,5.35,0,0,0,411,225a1.31,1.31,0,0,0,.53-.33c.15-.16.33-.33.52-.52a4.05,4.05,0,0,1,.76-.76,2.57,2.57,0,0,1,1.7-.48"/><path class="cls-20" d="M436.16,212.57a4.55,4.55,0,0,0-3.89-2,4.79,4.79,0,0,0-4.08,1.9,8.55,8.55,0,0,0-1.42,5.21v13h-6.44V198.07h3.22a3.23,3.23,0,0,1,3.22,3.22v7.49a7.49,7.49,0,0,1,4.84-3.6,9.57,9.57,0,0,1,6,.38,10.76,10.76,0,0,1,4.46,3.6,11.37,11.37,0,0,1,1.8,6.82v14.7h-6.36V217.59a14,14,0,0,0-.23-2.6,6.54,6.54,0,0,0-1.09-2.42"/><path class="cls-20" d="M467,230.68h-3.32a3.1,3.1,0,0,1-3.23-3.22v-12.9a3.9,3.9,0,0,0-1.37-3.32,5,5,0,0,0-3.08-1,4.78,4.78,0,0,0-3,1,4,4,0,0,0-1.33,3.32v16.12H445V215.89q0-6.45,3.37-8.63a14.74,14.74,0,0,1,7.44-2.37,14.31,14.31,0,0,1,7.68,2.18q3.51,2.19,3.51,8.82v14.79"/><path class="cls-20" d="M471.14,228.4a9.35,9.35,0,0,1-2.85-4.59,21.52,21.52,0,0,1-.85-6,19.16,19.16,0,0,1,.71-5.12,10.66,10.66,0,0,1,2.23-4.27,9.78,9.78,0,0,1,6.35-3.36,14.59,14.59,0,0,1,7,.61,9.63,9.63,0,0,1,5.3,4.93,15.68,15.68,0,0,1,1.62,7.3,18.07,18.07,0,0,1-.67,5.21,13.35,13.35,0,0,1-1.7,3.7,9.5,9.5,0,0,1-5.78,3.89,13,13,0,0,1-6.31.14,10.93,10.93,0,0,1-5.07-2.42m4.55-16.68c-1.33,1.45-1.93,3.62-1.8,6.49s.66,4.88,1.61,6a4.16,4.16,0,0,0,2,1.28,4.54,4.54,0,0,0,2.89.1,4.88,4.88,0,0,0,2.61-2.14c.76-1.13,1.17-3,1.23-5.5a9.56,9.56,0,0,0-1.09-5.11,4.89,4.89,0,0,0-2.51-2.18,4.55,4.55,0,0,0-2.85-.05,4.92,4.92,0,0,0-2.08,1.09"/><path class="cls-3" d="M509.25,222.9H514a10.35,10.35,0,0,1-4,6.07,12.05,12.05,0,0,1-7.4,2.18,10.57,10.57,0,0,1-8.43-3.5q-3-3.42-3-9.77,0-6.06,2.94-9.48a10.55,10.55,0,0,1,8.44-3.51q5.69,0,8.81,3.42a13,13,0,0,1,2.47,4.83h-6.64a5.61,5.61,0,0,0-.94-1.42,4.56,4.56,0,0,0-3.51-1.33,4.63,4.63,0,0,0-3.42,1.33c-1.13,1.26-1.7,3.35-1.7,6.25s.57,5,1.7,6.17a4.49,4.49,0,0,0,3.7,1.51,5.38,5.38,0,0,0,2.75-.66,1.28,1.28,0,0,0,.52-.33l.53-.52a3.92,3.92,0,0,1,.75-.76,2.6,2.6,0,0,1,1.71-.48"/><path class="cls-3" d="M531.15,229.64a11.66,11.66,0,0,1-4.22,1.27,37.37,37.37,0,0,1-3.94.24,9.89,9.89,0,0,1-6-1.85c-1.7-1.23-2.56-3.27-2.56-6.11,0-2.65.78-4.55,2.32-5.69a13.53,13.53,0,0,1,5.93-2.28,5.31,5.31,0,0,0,1.14-.14c.44-.09.95-.17,1.51-.23q4.18-.57,4.18-2.47a1.81,1.81,0,0,0-1.47-1.85,9.9,9.9,0,0,0-2.71-.42,6.77,6.77,0,0,0-2.37.38,2.55,2.55,0,0,0-1.51,1.42h-6.36a7.35,7.35,0,0,1,2.66-4.84q2.57-2.17,7.3-2.18,5.31,0,8,1.8a6.09,6.09,0,0,1,2.75,5.31v8.63a10.92,10.92,0,0,1-1.37,5.92,8.49,8.49,0,0,1-3.27,3.09M529.63,218a17.56,17.56,0,0,1-3.7,1.24l-2.18.47a5.68,5.68,0,0,0-2.46,1.23,3.82,3.82,0,0,0-.67,2.09,3.08,3.08,0,0,0,.86,2.28,3.6,3.6,0,0,0,2.46.75,5.26,5.26,0,0,0,5.69-5.68Z"/><path class="cls-3" d="M558.73,230.68h-6.54V214.56a3.93,3.93,0,0,0-1.37-3.32,5,5,0,0,0-3.08-1,4.83,4.83,0,0,0-3,1,4,4,0,0,0-1.32,3.32v16.12h-6.64V215.89q0-6.45,3.37-8.63a14.74,14.74,0,0,1,7.44-2.37,18.93,18.93,0,0,1,4.26.48,9,9,0,0,1,3.8,1.89,8.31,8.31,0,0,1,3.36-1.75,19.13,19.13,0,0,1,4-.62,14.31,14.31,0,0,1,7.68,2.18q3.51,2.19,3.51,8.82v14.79h-3.32a3.1,3.1,0,0,1-3.23-3.22v-12.9a3.9,3.9,0,0,0-1.37-3.32,5.08,5.08,0,0,0-6.16,0,3.91,3.91,0,0,0-1.38,3.32v16.12"/><path class="cls-3" d="M582.43,236.75a3.1,3.1,0,0,1-.94,2.27,3.13,3.13,0,0,1-2.28.95H576V216.36q0-6.63,3.88-9.05a15.74,15.74,0,0,1,8.44-2.42,13.66,13.66,0,0,1,4.79.9,9,9,0,0,1,3.84,2.61,15.16,15.16,0,0,1,2.84,9.48,15.48,15.48,0,0,1-2.84,9.67,8.9,8.9,0,0,1-7.3,3.6,9.62,9.62,0,0,1-4.17-.85,7.11,7.11,0,0,1-3-2.94v9.39m10.81-18.59a9.65,9.65,0,0,0-1.42-5.68,4.71,4.71,0,0,0-4.08-2,4.61,4.61,0,0,0-4,2c-.88,1.2-1.33,3.09-1.33,5.68a8.61,8.61,0,0,0,1.43,5.41,4.68,4.68,0,0,0,4.07,2,4.52,4.52,0,0,0,3.89-2,9.14,9.14,0,0,0,1.42-5.41"/><path class="cls-3" d="M600.35,222.34h6.45a3.47,3.47,0,0,0,1.42,2.84,6.75,6.75,0,0,0,3.79.95,6,6,0,0,0,2.94-.67,2,2,0,0,0,1.14-1.8c0-1.13-1.33-2-4-2.56a19.93,19.93,0,0,1-2.56-.56c-3.35-.83-5.6-1.81-6.73-2.95a5.78,5.78,0,0,1-1.9-4.54,7.53,7.53,0,0,1,2.75-6,11.82,11.82,0,0,1,7.39-2.18,12.93,12.93,0,0,1,7.87,2.18,8.38,8.38,0,0,1,2.94,6.17h-4.08a3,3,0,0,1-2.75-1.62l-.75-.75a5.1,5.1,0,0,0-3.13-.86,5.66,5.66,0,0,0-2.85.57,1.91,1.91,0,0,0-.85,1.71q0,1.52,4.93,2.56c.38.12.71.22,1,.28a3.85,3.85,0,0,0,.8.09q4.84,1.25,6.73,2.85a6,6,0,0,1,1.8,4.55,7.6,7.6,0,0,1-3,6.45q-2.85,2.09-8.53,2.08c-3.6,0-6.29-.72-8.06-2.18a7.63,7.63,0,0,1-2.75-6.35v-.28"/></g></g></g></g></g></svg>