<svg xmlns="http://www.w3.org/2000/svg" xmlns:xlink="http://www.w3.org/1999/xlink" viewBox="0 0 611.93 220.36"><defs><style>.cls-1,.cls-13{fill:none;}.cls-2{font-size:46.08px;fill:#0c2637;font-family:GTPressuraMonoTrial-Regular, GT Pressura Mono Trial;letter-spacing:-0.02em;}.cls-3{fill:#0c2638;}.cls-4{fill:#846cab;}.cls-5{fill:#3680c3;}.cls-6{fill:#fbdfe2;}.cls-7{fill:#25b5e8;}.cls-8{fill:#fcc013;}.cls-9{fill:#7bba47;}.cls-10{fill:#cb6faa;}.cls-11{fill:#dc3b20;}.cls-12{fill:#f18724;}.cls-13{stroke:#0c2638;stroke-miterlimit:10;stroke-width:2px;}.cls-14{fill:#93bc4f;}.cls-15{fill:#fbe33f;}.cls-16{clip-path:url(#clip-path);}.cls-17{fill:#63c5f1;}.cls-18{clip-path:url(#clip-path-2);}.cls-19{fill:#e7cb1a;}.cls-20{fill:#4a4947;}</style><clipPath id="clip-path"><path id="SVGID" class="cls-1" d="M161.63,53a52.43,52.43,0,0,0-52.43,52.44c0,.26,0,.52,0,.78,1.44.11,2.9.19,4.38.19a54.08,54.08,0,0,0,54.1-53A52.77,52.77,0,0,0,161.63,53Z"/></clipPath><clipPath id="clip-path-2"><rect class="cls-1" x="335.82" y="178.11" width="265.76" height="41.9"/></clipPath></defs><title>ioc_logo_withTechnocamps_forLightBG</title><g id="Layer_2" data-name="Layer 2"><g id="withTechnocamps_forLightBG"><text class="cls-2" transform="translate(6.81 210.68)">in wales</text><path class="cls-3" d="M12.24,13.45a.92.92,0,0,1-.92-.92V10.46a.92.92,0,0,1,.92-.92h9.35a.92.92,0,0,1,.92.92V28.19a.43.43,0,0,0,.46.46h5.85a.93.93,0,0,1,.92.93v2.07a.92.92,0,0,1-.92.92h-17a.92.92,0,0,1-.92-.92V29.58a.93.93,0,0,1,.92-.93h6a.43.43,0,0,0,.46-.46V13.91a.44.44,0,0,0-.46-.46ZM22.65,3.92a.72.72,0,0,1-.74.73H18.78A.72.72,0,0,1,18,3.92V.74A.76.76,0,0,1,18.78,0h3.13a.76.76,0,0,1,.74.74Z"/><path class="cls-3" d="M44.49,9.08a8.6,8.6,0,0,1,8.75,8.75V31.65a.92.92,0,0,1-.92.92H50a.92.92,0,0,1-.92-.92V17.83c0-2.67-2.21-4.61-5.06-4.61S39,14.93,39,17.6v14a.92.92,0,0,1-.92.92H35.73a.92.92,0,0,1-.92-.92V10.46a.92.92,0,0,1,.92-.92h2a.84.84,0,0,1,.64.32,1.79,1.79,0,0,0,1.16.74C40.89,10.6,41.26,9.08,44.49,9.08Z"/><path class="cls-3" d="M60,24.14h2.31a.92.92,0,0,1,.92.92c0,3.36,2.85,4,5,4,2.49,0,4.93-.65,4.93-3.41,0-2-2.26-2.63-4.93-3.18-3.78-.78-8.34-1.7-8.34-6.72,0-4.15,4.15-6.68,8.34-6.68s8.2,2.53,8.2,6.91a.92.92,0,0,1-.92.92h-2.3a.92.92,0,0,1-.92-.92c0-1.62-1.2-3-4.06-3s-4,1.43-4,2.77c0,1.65,1.8,2.16,4,2.57,3.87.7,9.08,1.52,9.08,7.33C77.29,30.59,73,33,68.21,33c-4.61,0-9.12-2.3-9.12-8A.92.92,0,0,1,60,24.14Z"/><path class="cls-3" d="M92.4,25.66a3.23,3.23,0,0,0,6.45,0,.92.92,0,0,1,.92-.92h2.3a.92.92,0,0,1,.92.92,7.37,7.37,0,1,1-14.74,0V14.37a.44.44,0,0,0-.46-.46H83.18a.92.92,0,0,1-.92-.92v-2.3a.92.92,0,0,1,.92-.92h4.61a.44.44,0,0,0,.46-.46V2.17a.93.93,0,0,1,.92-.93h2.31a.93.93,0,0,1,.92.93V9.31a.44.44,0,0,0,.46.46h7.37a.92.92,0,0,1,.92.92V13a.92.92,0,0,1-.92.92H92.86a.44.44,0,0,0-.46.46Z"/><path class="cls-3" d="M109.91,13.45a.93.93,0,0,1-.93-.92V10.46a.93.93,0,0,1,.93-.92h9.35a.92.92,0,0,1,.92.92V28.19a.43.43,0,0,0,.46.46h5.85a.93.93,0,0,1,.92.93v2.07a.92.92,0,0,1-.92.92h-17a.92.92,0,0,1-.92-.92V29.58a.93.93,0,0,1,.92-.93h6a.44.44,0,0,0,.46-.46V13.91a.44.44,0,0,0-.46-.46Zm10.4-9.53a.72.72,0,0,1-.73.73h-3.13a.72.72,0,0,1-.74-.73V.74a.76.76,0,0,1,.74-.74h3.13a.76.76,0,0,1,.73.74Z"/><path class="cls-3" d="M141.23,25.66a3.23,3.23,0,0,0,6.45,0,.92.92,0,0,1,.92-.92h2.31a.92.92,0,0,1,.92.92,7.37,7.37,0,1,1-14.74,0V14.37a.44.44,0,0,0-.47-.46H132a.92.92,0,0,1-.92-.92v-2.3a.92.92,0,0,1,.92-.92h4.6a.44.44,0,0,0,.47-.46V2.17a.93.93,0,0,1,.92-.93h2.3a.93.93,0,0,1,.92.93V9.31a.44.44,0,0,0,.46.46h7.37a.92.92,0,0,1,.92.92V13a.92.92,0,0,1-.92.92h-7.37a.44.44,0,0,0-.46.46Z"/><path class="cls-3" d="M165.42,33a8.4,8.4,0,0,1-8.76-8.75V10.46a.93.93,0,0,1,.93-.92h2.3a.92.92,0,0,1,.92.92V24.28c0,2.67,1.89,4.6,5.07,4.6,2.85,0,5.07-1.7,5.07-4.37v-14a.92.92,0,0,1,.92-.92h2.3a.92.92,0,0,1,.92.92V31.65a.92.92,0,0,1-.92.92h-2a.89.89,0,0,1-.64-.32,1.73,1.73,0,0,0-1.15-.74C169,31.51,168.83,33,165.42,33Z"/><path class="cls-3" d="M190.06,25.66a3.23,3.23,0,0,0,6.45,0,.92.92,0,0,1,.92-.92h2.31a.92.92,0,0,1,.92.92,7.37,7.37,0,0,1-14.74,0V14.37a.44.44,0,0,0-.46-.46h-4.61a.92.92,0,0,1-.92-.92v-2.3a.92.92,0,0,1,.92-.92h4.61a.44.44,0,0,0,.46-.46V2.17a.93.93,0,0,1,.92-.93h2.3a.93.93,0,0,1,.92.93V9.31a.44.44,0,0,0,.47.46h7.37a.92.92,0,0,1,.92.92V13a.92.92,0,0,1-.92.92h-7.37a.44.44,0,0,0-.47.46Z"/><path class="cls-3" d="M214.9,28.88c2.39,0,4.19-1.19,4.74-2.9a1,1,0,0,1,1.06-.78h2.35a.74.74,0,0,1,.78.92c-.55,4-4.14,6.91-8.93,6.91a9.16,9.16,0,0,1-9.45-8.75,49.58,49.58,0,0,1,0-6.45,9.15,9.15,0,0,1,9.45-8.75c5.57,0,9.21,3.45,9.21,9.21v3.18a.93.93,0,0,1-.92.92H210a.44.44,0,0,0-.46.46C209.55,27,211.72,28.88,214.9,28.88ZM210.1,18.7h9.59a.44.44,0,0,0,.46-.46,4.88,4.88,0,0,0-5.21-5,5,5,0,0,0-5.3,5A.44.44,0,0,0,210.1,18.7Z"/><path class="cls-3" d="M262.85,17.83a49.58,49.58,0,0,1,0,6.45,9.47,9.47,0,0,1-18.88,0,49.58,49.58,0,0,1,0-6.45,9.47,9.47,0,0,1,18.88,0Zm-4.14,6.45a49.58,49.58,0,0,0,0-6.45,5.35,5.35,0,0,0-10.6,0,49.58,49.58,0,0,0,0,6.45,5.35,5.35,0,0,0,10.6,0Z"/><path class="cls-3" d="M268.66,13.91a.92.92,0,0,1-.92-.92v-2.3a.92.92,0,0,1,.92-.92h5.76a.44.44,0,0,0,.46-.46V8.62A8.44,8.44,0,0,1,283.4,0h2.76a.93.93,0,0,1,.93.92V3.09a.93.93,0,0,1-.93.92H283.4A4.64,4.64,0,0,0,279,8.62v.69a.44.44,0,0,0,.46.46H287a.92.92,0,0,1,.92.92V13a.92.92,0,0,1-.92.92h-7.47a.44.44,0,0,0-.46.46V31.65a.92.92,0,0,1-.92.92h-2.3a.92.92,0,0,1-.92-.92V14.37a.44.44,0,0,0-.46-.46Z"/><path class="cls-4" d="M52.46,153v4.75A52.83,52.83,0,0,1,.27,110.62c0-.42-.08-.85-.11-1.26,0,0,0-.09,0-.14,0-.42-.06-.86-.08-1.29V103.3a51.19,51.19,0,0,1,9.89,1,51.7,51.7,0,0,1,13.56,4.67,29.35,29.35,0,0,0,24.31,25.31A51.33,51.33,0,0,1,52.46,153Z"/><path class="cls-5" d="M77.89,120.15,98,131.94A52.61,52.61,0,0,1,.16,109.36a52.82,52.82,0,0,0,52.29,48.4V153a51.33,51.33,0,0,0-4.63-18.77,30.13,30.13,0,0,0,4.78.38A29.3,29.3,0,0,0,77.89,120.15Z"/><path class="cls-6" d="M47.83,134.24a29.35,29.35,0,0,1-24.31-25.31A53.22,53.22,0,0,1,47.83,134.24Z"/><path class="cls-7" d="M278.26,54.68H233.07v22.4h45.19a28.2,28.2,0,0,1,0,56.4v22.4a50.6,50.6,0,1,0,0-101.2Z"/><path class="cls-8" d="M611.93,98.2v59.71H586.57v-3.69a53.25,53.25,0,0,0,25.35-22.07l-.7-.42a52.47,52.47,0,0,1-24.65,21.6v-3a49.78,49.78,0,0,0,23.28-20.14l-.7-.42a49.18,49.18,0,0,1-22.58,19.67v-2.82a46.47,46.47,0,0,0,20.16-18.1l-.71-.42a45.53,45.53,0,0,1-19.45,17.6v-2.49A43.06,43.06,0,0,0,603.86,127l-.71-.42a42.25,42.25,0,0,1-16.58,15.7v-2.77a39.7,39.7,0,0,0,14.32-14.09l-.7-.42a39.12,39.12,0,0,1-13.62,13.56v-3.26a36.45,36.45,0,0,0,11-11.63l-.7-.42a35.13,35.13,0,0,1-10.34,11V131a32.73,32.73,0,0,0,7.92-9.07l-.71-.42a31.5,31.5,0,0,1-7.21,8.43v-3a29.15,29.15,0,0,0,5.27-6.59l-.7-.41a29.11,29.11,0,0,1-4.57,5.86v-5H563.85V98.2Z"/><path class="cls-8" d="M591.84,120.35a29.15,29.15,0,0,1-5.27,6.59V125.8a29.11,29.11,0,0,0,4.57-5.86Z"/><path class="cls-8" d="M611.92,132.15a53.25,53.25,0,0,1-25.35,22.07v-.89a52.47,52.47,0,0,0,24.65-21.6Z"/><path class="cls-8" d="M594.49,122a32.73,32.73,0,0,1-7.92,9.07V130a31.5,31.5,0,0,0,7.21-8.43Z"/><path class="cls-8" d="M597.61,123.63a36.45,36.45,0,0,1-11,11.63v-1a35.13,35.13,0,0,0,10.34-11Z"/><path class="cls-8" d="M600.89,125.38a39.7,39.7,0,0,1-14.32,14.09v-.95A39.12,39.12,0,0,0,600.19,125Z"/><path class="cls-8" d="M603.86,127a43.06,43.06,0,0,1-17.29,16.21v-.93a42.25,42.25,0,0,0,16.58-15.7Z"/><path class="cls-8" d="M606.73,128.48a46.47,46.47,0,0,1-20.16,18.1v-.92A45.53,45.53,0,0,0,606,128.06Z"/><path class="cls-8" d="M609.85,130.15a49.78,49.78,0,0,1-23.28,20.14v-.89a49.18,49.18,0,0,0,22.58-19.67Z"/><polygon class="cls-8" points="348.92 105.34 348.92 130.48 374.06 130.48 374.06 130.48 348.92 105.34 348.92 105.34"/><polygon class="cls-9" points="348.92 105.34 374.06 130.48 374.06 105.34 348.92 105.34"/><path class="cls-9" d="M348.92,54.91h0a25.14,25.14,0,0,0,25.14,25.14h0L348.92,54.91Z"/><polygon class="cls-8" points="348.92 54.91 374.06 80.05 374.06 54.91 348.92 54.91"/><polygon class="cls-5" points="348.92 80.12 348.92 105.27 374.06 80.12 348.92 80.12"/><polygon class="cls-8" points="374.06 80.12 348.92 105.27 374.06 105.27 374.06 80.12"/><polygon class="cls-5" points="374.06 155.7 374.06 130.56 348.92 155.7 374.06 155.7"/><polygon class="cls-9" points="348.92 130.56 348.92 155.7 348.92 155.7 374.06 130.56 374.06 130.56 348.92 130.56"/><rect class="cls-10" x="468.37" y="54.7" width="25.15" height="101.2"/><path class="cls-8" d="M214.07,104.39a52.62,52.62,0,1,0,0,1.64c0-.27,0-.55,0-.82S214.08,104.66,214.07,104.39Zm-81.9,1a29.46,29.46,0,1,1,29.46,29.47A29.47,29.47,0,0,1,132.17,105.39Z"/><path class="cls-11" d="M190.83,109.4a29.49,29.49,0,0,1-25.08,25.17A52.67,52.67,0,0,1,190.83,109.4Z"/><path class="cls-12" d="M214.08,105.21c0,.27,0,.55,0,.82a52.45,52.45,0,0,1-51.61,51.62h-1.65c0-.28,0-.56,0-.83a52.31,52.31,0,0,1,4.95-22.25,29.49,29.49,0,0,0,25.08-25.17,52.47,52.47,0,0,1,22.42-5h.82C214.08,104.66,214.08,104.94,214.08,105.21Z"/><circle class="cls-8" cx="427.9" cy="60.32" r="2.42"/><circle class="cls-8" cx="432.77" cy="67.48" r="2.42"/><circle class="cls-8" cx="437.64" cy="74.65" r="2.42"/><circle class="cls-8" cx="442.5" cy="81.81" r="2.42"/><circle class="cls-8" cx="447.37" cy="88.97" r="2.42"/><circle class="cls-8" cx="452.24" cy="96.14" r="2.42"/><circle class="cls-8" cx="457.1" cy="103.3" r="2.42"/><circle class="cls-8" cx="461.97" cy="110.47" r="2.42"/><circle class="cls-8" cx="466.83" cy="117.63" r="2.42"/><circle class="cls-8" cx="471.7" cy="124.8" r="2.42"/><circle class="cls-8" cx="476.57" cy="131.96" r="2.42"/><circle class="cls-8" cx="481.43" cy="139.12" r="2.42"/><circle class="cls-8" cx="486.3" cy="146.29" r="2.42"/><circle class="cls-8" cx="491.17" cy="153.45" r="2.42"/><circle class="cls-8" cx="427.9" cy="74.68" r="2.42"/><circle class="cls-8" cx="432.77" cy="81.84" r="2.42"/><circle class="cls-8" cx="437.64" cy="89" r="2.42"/><circle class="cls-8" cx="442.5" cy="96.17" r="2.42"/><circle class="cls-8" cx="447.37" cy="103.33" r="2.42"/><circle class="cls-8" cx="452.24" cy="110.5" r="2.42"/><circle class="cls-8" cx="457.1" cy="117.66" r="2.42"/><circle class="cls-8" cx="461.97" cy="124.82" r="2.42"/><circle class="cls-8" cx="466.83" cy="131.99" r="2.42"/><circle class="cls-8" cx="471.7" cy="139.15" r="2.42"/><circle class="cls-8" cx="476.57" cy="146.32" r="2.42"/><circle class="cls-8" cx="481.43" cy="153.48" r="2.42"/><circle class="cls-8" cx="427.9" cy="89.03" r="2.42"/><circle class="cls-8" cx="432.77" cy="96.2" r="2.42"/><circle class="cls-8" cx="437.64" cy="103.36" r="2.42"/><circle class="cls-8" cx="442.5" cy="110.53" r="2.42"/><circle class="cls-8" cx="447.37" cy="117.69" r="2.42"/><circle class="cls-8" cx="452.24" cy="124.85" r="2.42"/><circle class="cls-8" cx="457.1" cy="132.02" r="2.42"/><circle class="cls-8" cx="461.97" cy="139.18" r="2.42"/><circle class="cls-8" cx="466.83" cy="146.35" r="2.42"/><circle class="cls-8" cx="471.7" cy="153.51" r="2.42"/><circle class="cls-8" cx="427.9" cy="103.39" r="2.42"/><circle class="cls-8" cx="432.77" cy="110.56" r="2.42"/><circle class="cls-8" cx="437.64" cy="117.72" r="2.42"/><circle class="cls-8" cx="442.5" cy="124.88" r="2.42"/><circle class="cls-8" cx="447.37" cy="132.05" r="2.42"/><circle class="cls-8" cx="452.24" cy="139.21" r="2.42"/><circle class="cls-8" cx="457.1" cy="146.38" r="2.42"/><circle class="cls-8" cx="461.97" cy="153.54" r="2.42"/><path class="cls-13" d="M611.08,133.47A53,53,0,1,1,611,77"/><path class="cls-13" d="M605.09,129.4a45.81,45.81,0,1,1-.27-48.61"/><path class="cls-13" d="M598.08,125.35a37.7,37.7,0,1,1-6.18-47.58,38.14,38.14,0,0,1,5.86,7"/><path class="cls-13" d="M591.93,121.51a30.45,30.45,0,1,1-5.15-38.6,31.35,31.35,0,0,1,4.73,5.54"/><polygon class="cls-3" points="393.8 59.86 393.8 69.95 402.68 64.9 393.8 59.86"/><polygon class="cls-3" points="393.8 54.7 393.8 59.75 402.68 54.7 393.8 54.7"/><polygon class="cls-3" points="411.57 54.7 411.57 59.75 420.45 54.7 411.57 54.7"/><polygon class="cls-3" points="393.8 69.95 393.8 80.04 402.68 74.99 393.8 69.95"/><polygon class="cls-3" points="402.68 85.08 393.8 80.04 393.8 90.12 393.8 90.13 402.68 85.08"/><polygon class="cls-3" points="393.8 90.13 393.8 90.13 393.8 90.12 393.8 90.12 393.8 95.13 402.6 95.13 393.8 90.13"/><polygon class="cls-3" points="393.8 90.13 393.8 90.12 393.8 90.13 393.8 90.13"/><polygon class="cls-3" points="402.6 95.13 393.8 95.13 393.8 100.22 402.68 95.17 402.6 95.13"/><polygon class="cls-3" points="393.8 100.21 393.8 110.3 402.68 105.26 393.8 100.21"/><polygon class="cls-3" points="393.8 110.3 393.8 120.39 402.68 115.35 393.8 110.3"/><polygon class="cls-3" points="393.8 120.39 393.8 130.48 402.68 125.44 393.8 120.39"/><polygon class="cls-3" points="393.8 130.48 393.8 140.57 402.68 135.53 393.8 130.48"/><polygon class="cls-3" points="393.8 140.57 393.8 150.66 402.68 145.62 393.8 140.57"/><polygon class="cls-3" points="402.68 155.7 393.8 150.66 393.8 155.88 402.38 155.88 402.68 155.7"/><polygon class="cls-3" points="402.68 64.9 402.68 74.99 411.56 69.95 402.68 64.9"/><polygon class="cls-3" points="402.68 54.81 402.68 64.9 411.56 59.86 402.68 54.81"/><polygon class="cls-3" points="402.68 74.99 402.68 85.08 411.56 80.04 402.68 74.99"/><polygon class="cls-3" points="411.56 90.13 402.68 85.08 402.68 95.17 402.68 95.17 411.56 90.13"/><polygon class="cls-3" points="402.68 95.17 402.68 95.17 402.68 95.17 402.68 95.17 402.68 100.17 411.48 100.17 402.68 95.17"/><polygon class="cls-3" points="402.68 95.17 402.68 95.17 402.68 95.17 402.68 95.17"/><polygon class="cls-3" points="411.56 100.22 411.48 100.17 402.68 100.17 402.68 105.26 402.68 105.26 411.56 100.22"/><polygon class="cls-3" points="402.68 105.26 402.68 115.35 411.56 110.3 402.68 105.26"/><polygon class="cls-3" points="402.68 115.35 402.68 125.44 411.56 120.39 402.68 115.35"/><polygon class="cls-3" points="402.68 125.44 402.68 135.53 411.56 130.48 402.68 125.44"/><polygon class="cls-3" points="402.68 135.53 402.68 145.62 411.56 140.57 402.68 135.53"/><polygon class="cls-3" points="402.68 145.62 402.68 155.7 411.56 150.66 402.68 145.62"/><polygon class="cls-3" points="402.68 155.7 402.68 155.88 402.99 155.88 402.68 155.7"/><polygon class="cls-3" points="411.57 69.95 411.57 80.04 420.45 74.99 411.57 69.95"/><polygon class="cls-3" points="411.57 59.86 411.57 69.95 420.45 64.9 411.57 59.86"/><polygon class="cls-3" points="411.57 80.04 411.57 90.13 420.45 85.08 411.57 80.04"/><polygon class="cls-3" points="420.45 95.17 411.57 90.13 411.57 100.21 411.57 100.21 420.45 95.17"/><polygon class="cls-3" points="411.57 100.21 411.57 100.21 411.57 100.21 411.56 100.21 411.56 105.22 420.36 105.22 411.57 100.21"/><polygon class="cls-3" points="411.57 100.21 411.57 100.21 411.57 100.21 411.57 100.21"/><polygon class="cls-3" points="420.44 105.26 420.36 105.22 411.56 105.22 411.56 110.3 411.56 110.3 420.44 105.26"/><polygon class="cls-3" points="411.57 110.3 411.57 120.39 420.45 115.35 411.57 110.3"/><polygon class="cls-3" points="411.57 120.39 411.57 130.48 420.45 125.44 411.57 120.39"/><polygon class="cls-3" points="411.57 130.48 411.57 140.57 420.45 135.53 411.57 130.48"/><polygon class="cls-3" points="411.57 140.57 411.57 150.66 420.45 145.62 411.57 140.57"/><polygon class="cls-3" points="420.45 155.7 411.57 150.66 411.57 155.88 420.14 155.88 420.45 155.7"/><rect class="cls-14" x="232.99" y="54.61" width="5.59" height="5.59"/><rect class="cls-14" x="244.07" y="54.61" width="5.59" height="5.59"/><rect class="cls-14" x="238.58" y="60.2" width="5.59" height="5.59"/><rect class="cls-14" x="249.66" y="60.2" width="5.59" height="5.59"/><rect class="cls-14" x="232.99" y="65.8" width="5.59" height="5.59"/><rect class="cls-14" x="244.07" y="65.8" width="5.59" height="5.59"/><rect class="cls-14" x="238.58" y="71.39" width="5.59" height="5.59"/><rect class="cls-14" x="249.66" y="71.39" width="5.59" height="5.59"/><rect class="cls-15" x="232.99" y="76.98" width="5.59" height="5.63"/><rect class="cls-15" x="244.07" y="76.98" width="5.59" height="5.63"/><rect class="cls-15" x="238.58" y="82.62" width="5.59" height="5.63"/><rect class="cls-15" x="249.66" y="82.62" width="5.59" height="5.63"/><rect class="cls-15" x="232.99" y="88.25" width="5.59" height="5.63"/><rect class="cls-15" x="244.07" y="88.25" width="5.59" height="5.63"/><rect class="cls-15" x="238.58" y="93.88" width="5.59" height="5.63"/><rect class="cls-15" x="249.66" y="93.88" width="5.59" height="5.63"/><rect class="cls-15" x="232.99" y="99.51" width="5.59" height="5.63"/><rect class="cls-15" x="244.07" y="99.51" width="5.59" height="5.63"/><rect class="cls-15" x="238.58" y="105.15" width="5.59" height="5.63"/><rect class="cls-15" x="249.66" y="105.15" width="5.59" height="5.63"/><rect class="cls-15" x="232.99" y="110.78" width="5.59" height="5.63"/><rect class="cls-15" x="244.07" y="110.78" width="5.59" height="5.63"/><rect class="cls-15" x="238.58" y="116.41" width="5.59" height="5.63"/><rect class="cls-15" x="249.66" y="116.41" width="5.59" height="5.63"/><rect class="cls-15" x="232.99" y="122.05" width="5.59" height="5.63"/><rect class="cls-15" x="244.07" y="122.05" width="5.59" height="5.63"/><rect class="cls-15" x="238.58" y="127.68" width="5.59" height="5.63"/><rect class="cls-15" x="249.66" y="127.68" width="5.59" height="5.63"/><rect class="cls-15" x="232.99" y="133.48" width="5.59" height="5.45"/><rect class="cls-15" x="244.07" y="133.48" width="5.59" height="5.45"/><rect class="cls-15" x="238.58" y="138.93" width="5.59" height="5.45"/><rect class="cls-15" x="249.66" y="138.93" width="5.59" height="5.45"/><rect class="cls-15" x="238.58" y="149.77" width="5.59" height="5.45"/><rect class="cls-15" x="249.66" y="149.77" width="5.59" height="5.45"/><rect class="cls-15" x="232.99" y="144.38" width="5.59" height="5.45"/><rect class="cls-15" x="244.07" y="144.38" width="5.59" height="5.45"/><rect class="cls-14" x="255.26" y="54.61" width="5.59" height="5.59"/><rect class="cls-14" x="255.26" y="65.8" width="5.59" height="5.59"/><rect class="cls-15" x="255.26" y="76.98" width="5.59" height="5.63"/><rect class="cls-15" x="255.26" y="88.25" width="5.59" height="5.63"/><rect class="cls-15" x="255.26" y="99.51" width="5.59" height="5.63"/><rect class="cls-15" x="255.26" y="110.78" width="5.59" height="5.63"/><rect class="cls-15" x="255.26" y="122.05" width="5.59" height="5.63"/><rect class="cls-15" x="255.26" y="133.48" width="5.59" height="5.45"/><rect class="cls-15" x="255.26" y="144.38" width="5.59" height="5.45"/><rect class="cls-11" x="237.83" y="133.54" width="0.81" height="21.68"/><rect class="cls-11" x="243.49" y="133.54" width="0.81" height="21.68"/><rect class="cls-11" x="249.15" y="133.54" width="0.81" height="21.68"/><rect class="cls-11" x="254.81" y="133.54" width="0.81" height="21.68"/><rect class="cls-11" x="260.47" y="133.54" width="0.81" height="21.68"/><rect class="cls-11" x="266.13" y="133.54" width="0.81" height="21.68"/><rect class="cls-11" x="271.79" y="133.54" width="0.81" height="21.68"/><rect class="cls-11" x="232.72" y="149.47" width="45.19" height="0.83"/><rect class="cls-11" x="232.72" y="144.1" width="45.19" height="0.83"/><rect class="cls-11" x="232.72" y="138.72" width="45.19" height="0.83"/><rect class="cls-11" x="232.16" y="133.38" width="0.81" height="22.4"/><rect class="cls-11" x="277.45" y="133.38" width="0.81" height="22.4"/><rect class="cls-11" x="232.57" y="133.35" width="45.29" height="0.83"/><rect class="cls-11" x="232.57" y="155" width="45.29" height="0.83"/><g class="cls-16"><rect class="cls-17" x="95.03" y="49.38" width="0.81" height="21.68"/><rect class="cls-17" x="100.69" y="49.38" width="0.81" height="21.68"/><rect class="cls-17" x="106.35" y="49.38" width="0.81" height="21.68"/><rect class="cls-17" x="112.01" y="49.38" width="0.81" height="21.68"/><rect class="cls-17" x="117.67" y="49.38" width="0.81" height="21.68"/><rect class="cls-17" x="123.33" y="49.38" width="0.81" height="21.68"/><rect class="cls-17" x="129" y="49.38" width="0.81" height="21.68"/><rect class="cls-17" x="89.92" y="65.31" width="45.19" height="0.83"/><rect class="cls-17" x="89.92" y="59.94" width="45.19" height="0.83"/><rect class="cls-17" x="89.92" y="54.56" width="45.19" height="0.83"/><rect class="cls-17" x="89.36" y="49.22" width="0.81" height="22.4"/><rect class="cls-17" x="134.66" y="49.22" width="0.81" height="22.4"/><rect class="cls-17" x="89.77" y="49.19" width="45.29" height="0.83"/><rect class="cls-17" x="89.77" y="70.83" width="45.29" height="0.83"/><rect class="cls-17" x="95.03" y="70.88" width="0.81" height="21.68"/><rect class="cls-17" x="100.69" y="70.88" width="0.81" height="21.68"/><rect class="cls-17" x="106.35" y="70.88" width="0.81" height="21.68"/><rect class="cls-17" x="112.01" y="70.88" width="0.81" height="21.68"/><rect class="cls-17" x="117.67" y="70.88" width="0.81" height="21.68"/><rect class="cls-17" x="123.33" y="70.88" width="0.81" height="21.68"/><rect class="cls-17" x="129" y="70.88" width="0.81" height="21.68"/><rect class="cls-17" x="89.92" y="86.81" width="45.19" height="0.83"/><rect class="cls-17" x="89.92" y="81.44" width="45.19" height="0.83"/><rect class="cls-17" x="89.92" y="76.06" width="45.19" height="0.83"/><rect class="cls-17" x="89.36" y="70.72" width="0.81" height="22.4"/><rect class="cls-17" x="134.66" y="70.72" width="0.81" height="22.4"/><rect class="cls-17" x="89.77" y="70.69" width="45.29" height="0.83"/><rect class="cls-17" x="89.77" y="92.33" width="45.29" height="0.83"/><rect class="cls-17" x="95.03" y="92.38" width="0.81" height="21.68"/><rect class="cls-17" x="100.69" y="92.38" width="0.81" height="21.68"/><rect class="cls-17" x="106.35" y="92.38" width="0.81" height="21.68"/><rect class="cls-17" x="112.01" y="92.38" width="0.81" height="21.68"/><rect class="cls-17" x="117.67" y="92.38" width="0.81" height="21.68"/><rect class="cls-17" x="123.33" y="92.38" width="0.81" height="21.68"/><rect class="cls-17" x="129" y="92.38" width="0.81" height="21.68"/><rect class="cls-17" x="89.92" y="108.31" width="45.19" height="0.83"/><rect class="cls-17" x="89.92" y="102.94" width="45.19" height="0.83"/><rect class="cls-17" x="89.92" y="97.56" width="45.19" height="0.83"/><rect class="cls-17" x="89.36" y="92.22" width="0.81" height="22.4"/><rect class="cls-17" x="134.66" y="92.22" width="0.81" height="22.4"/><rect class="cls-17" x="89.77" y="92.19" width="45.29" height="0.83"/><rect class="cls-17" x="89.77" y="113.83" width="45.29" height="0.83"/><rect class="cls-17" x="140.28" y="49.38" width="0.81" height="21.68"/><rect class="cls-17" x="145.94" y="49.38" width="0.81" height="21.68"/><rect class="cls-17" x="151.6" y="49.38" width="0.81" height="21.68"/><rect class="cls-17" x="157.26" y="49.38" width="0.81" height="21.68"/><rect class="cls-17" x="162.92" y="49.38" width="0.81" height="21.68"/><rect class="cls-17" x="168.58" y="49.38" width="0.81" height="21.68"/><rect class="cls-17" x="174.25" y="49.38" width="0.81" height="21.68"/><rect class="cls-17" x="135.17" y="65.31" width="45.19" height="0.83"/><rect class="cls-17" x="135.17" y="59.94" width="45.19" height="0.83"/><rect class="cls-17" x="135.17" y="54.56" width="45.19" height="0.83"/><rect class="cls-17" x="134.61" y="49.22" width="0.81" height="22.4"/><rect class="cls-17" x="179.91" y="49.22" width="0.81" height="22.4"/><rect class="cls-17" x="135.02" y="49.19" width="45.29" height="0.83"/><rect class="cls-17" x="135.02" y="70.83" width="45.29" height="0.83"/><rect class="cls-17" x="140.28" y="70.88" width="0.81" height="21.68"/><rect class="cls-17" x="145.94" y="70.88" width="0.81" height="21.68"/><rect class="cls-17" x="151.6" y="70.88" width="0.81" height="21.68"/><rect class="cls-17" x="157.26" y="70.88" width="0.81" height="21.68"/><rect class="cls-17" x="162.92" y="70.88" width="0.81" height="21.68"/><rect class="cls-17" x="168.58" y="70.88" width="0.81" height="21.68"/><rect class="cls-17" x="174.25" y="70.88" width="0.81" height="21.68"/><rect class="cls-17" x="135.17" y="86.81" width="45.19" height="0.83"/><rect class="cls-17" x="135.17" y="81.44" width="45.19" height="0.83"/><rect class="cls-17" x="135.17" y="76.06" width="45.19" height="0.83"/><rect class="cls-17" x="134.61" y="70.72" width="0.81" height="22.4"/><rect class="cls-17" x="179.91" y="70.72" width="0.81" height="22.4"/><rect class="cls-17" x="135.02" y="70.69" width="45.29" height="0.83"/><rect class="cls-17" x="135.02" y="92.33" width="45.29" height="0.83"/><rect class="cls-17" x="140.28" y="92.38" width="0.81" height="21.68"/><rect class="cls-17" x="145.94" y="92.38" width="0.81" height="21.68"/><rect class="cls-17" x="151.6" y="92.38" width="0.81" height="21.68"/><rect class="cls-17" x="157.26" y="92.38" width="0.81" height="21.68"/><rect class="cls-17" x="162.92" y="92.38" width="0.81" height="21.68"/><rect class="cls-17" x="168.58" y="92.38" width="0.81" height="21.68"/><rect class="cls-17" x="174.25" y="92.38" width="0.81" height="21.68"/><rect class="cls-17" x="135.17" y="108.31" width="45.19" height="0.83"/><rect class="cls-17" x="135.17" y="102.94" width="45.19" height="0.83"/><rect class="cls-17" x="135.17" y="97.56" width="45.19" height="0.83"/><rect class="cls-17" x="134.61" y="92.22" width="0.81" height="22.4"/><rect class="cls-17" x="179.91" y="92.22" width="0.81" height="22.4"/><rect class="cls-17" x="135.02" y="92.19" width="45.29" height="0.83"/><rect class="cls-17" x="135.02" y="113.83" width="45.29" height="0.83"/></g><path class="cls-5" d="M4.6,83.8v16.26h-2V89A52.49,52.49,0,0,0,0,105.3c0,.87,0,1.75.07,2.61V103.3a51.19,51.19,0,0,1,9.89,1l1.18.25V73A53,53,0,0,0,4.6,83.8Z"/><path class="cls-5" d="M30.22,57.69V86.38a29.44,29.44,0,0,1,6.55-5.74V55.13A52.94,52.94,0,0,0,30.22,57.69Z"/><path class="cls-5" d="M21.68,62.75v41.06h-2V64.28a53.74,53.74,0,0,0-6.54,6.26V105a51.91,51.91,0,0,1,10.38,3.94A29.48,29.48,0,0,1,28.22,89V58.69A54.09,54.09,0,0,0,21.68,62.75Z"/><path class="cls-5" d="M38.77,54.55V79.46a29,29,0,0,1,6.54-2.56V53.21A52.25,52.25,0,0,0,38.77,54.55Z"/><path class="cls-5" d="M55.85,52.8V69.06h-2V52.71l-1.24,0c-1.79,0-3.56.1-5.3.27V76.47a28.94,28.94,0,0,1,5.3-.49A29.29,29.29,0,0,1,77.89,90.46L98,78.67A52.6,52.6,0,0,0,55.85,52.8Z"/><path class="cls-3" d="M4.6,100.06V83.8A53.66,53.66,0,0,0,2.6,89v11.09Z"/><path class="cls-3" d="M11.14,107.44h2V105c-.66-.17-1.33-.33-2-.48Z"/><path class="cls-3" d="M11.14,73v31.56c.67.15,1.34.31,2,.48V70.54C12.45,71.32,11.78,72.13,11.14,73Z"/><path class="cls-3" d="M21.68,103.81V62.75c-.68.5-1.34,1-2,1.53v39.53Z"/><path class="cls-3" d="M28.22,96.69h2V86.38a32.25,32.25,0,0,0-2,2.65Z"/><path class="cls-3" d="M28.22,58.69V89a32.25,32.25,0,0,1,2-2.65V57.69C29.55,58,28.88,58.34,28.22,58.69Z"/><path class="cls-3" d="M36.77,88.19h2V79.46c-.69.36-1.35.76-2,1.18Z"/><path class="cls-3" d="M36.77,55.13V80.64c.65-.42,1.31-.82,2-1.18V54.55C38.1,54.73,37.43,54.92,36.77,55.13Z"/><path class="cls-3" d="M45.31,82.19h2V76.47c-.68.12-1.34.26-2,.43Z"/><path class="cls-3" d="M45.31,53.21V76.9c.66-.17,1.32-.31,2-.43V53C46.64,53,46,53.12,45.31,53.21Z"/><path class="cls-3" d="M55.85,69.06V52.8c-.66,0-1.33-.07-2-.09V69.06Z"/><g id="Artwork_25" data-name="Artwork 25"><g class="cls-18"><g class="cls-18"><path class="cls-19" d="M351.74,210.72c-2.08.13-9.84.09-12.27-.1s-3.65-1.73-3.65-4.64V178.11h3.41a3,3,0,0,1,2.18.95,3.11,3.11,0,0,1,.95,2.27v4.27H352v1.33a3,3,0,0,1-.95,2.32,3.18,3.18,0,0,1-2.27.9h-6.42v14c0,1.08.63,1.61,1.9,1.61h7.48v4.93"/><path class="cls-19" d="M369.7,203h4.74a10.37,10.37,0,0,1-4,6.06,12.05,12.05,0,0,1-7.4,2.18,10.56,10.56,0,0,1-8.44-3.5q-3-3.42-3-9.77,0-6.06,2.94-9.48a10.57,10.57,0,0,1,8.43-3.5q5.7,0,8.82,3.41t3,9.76v1a1.7,1.7,0,0,1-.1.67h-16.4a6.54,6.54,0,0,0,1.42,4.36,4.5,4.5,0,0,0,3.7,1.52,5.31,5.31,0,0,0,2.75-.67,1.28,1.28,0,0,0,.52-.33c.16-.15.33-.33.52-.52a2.07,2.07,0,0,1,.71-.76,2.81,2.81,0,0,1,1.76-.47m-11.38-7.4H368a6.16,6.16,0,0,0-1.33-3.79,4.56,4.56,0,0,0-3.5-1.33,4.65,4.65,0,0,0-3.42,1.33,5.46,5.46,0,0,0-1.42,3.79"/><path class="cls-19" d="M393.4,203h4.74a10.43,10.43,0,0,1-4,6.07,12.11,12.11,0,0,1-7.4,2.17,10.57,10.57,0,0,1-8.44-3.5q-3-3.42-3-9.77,0-6.06,2.94-9.48a10.54,10.54,0,0,1,8.43-3.5q5.7,0,8.82,3.41a13,13,0,0,1,2.47,4.83h-6.64a5.61,5.61,0,0,0-.95-1.42,4.56,4.56,0,0,0-3.5-1.33,4.65,4.65,0,0,0-3.42,1.33c-1.14,1.27-1.7,3.35-1.7,6.26s.56,5,1.7,6.16a4.5,4.5,0,0,0,3.7,1.52,5.31,5.31,0,0,0,2.75-.67,1.28,1.28,0,0,0,.52-.33l.52-.52a4.4,4.4,0,0,1,.76-.76,2.6,2.6,0,0,1,1.71-.47"/><path class="cls-19" d="M415,192.61a4.54,4.54,0,0,0-3.89-2,4.79,4.79,0,0,0-4.07,1.9,8.48,8.48,0,0,0-1.42,5.21v13h-6.45V178.11h3.22a3.24,3.24,0,0,1,3.23,3.22v7.49a7.54,7.54,0,0,1,4.83-3.6,9.63,9.63,0,0,1,6,.38,10.69,10.69,0,0,1,4.46,3.6,11.4,11.4,0,0,1,1.8,6.83v14.69h-6.35V197.64a13.17,13.17,0,0,0-.24-2.61,6.62,6.62,0,0,0-1.09-2.42"/><path class="cls-19" d="M445.82,210.72H442.5a3.08,3.08,0,0,1-3.22-3.22V194.6a3.9,3.9,0,0,0-1.37-3.31,5,5,0,0,0-3.08-1,4.78,4.78,0,0,0-3,1,4,4,0,0,0-1.33,3.31v16.12h-6.63V195.93q0-6.45,3.36-8.62a14.58,14.58,0,0,1,7.44-2.37,14.33,14.33,0,0,1,7.69,2.17q3.49,2.19,3.5,8.82v14.79"/><path class="cls-19" d="M450,208.45a9.43,9.43,0,0,1-2.84-4.6,21.11,21.11,0,0,1-.85-6,18.82,18.82,0,0,1,.71-5.12,10.53,10.53,0,0,1,2.22-4.27,9.91,9.91,0,0,1,6.36-3.36,14.68,14.68,0,0,1,7,.61,9.72,9.72,0,0,1,5.31,4.93,15.8,15.8,0,0,1,1.61,7.3,18.12,18.12,0,0,1-.66,5.22,13.43,13.43,0,0,1-1.71,3.69,9.43,9.43,0,0,1-5.78,3.89,12.84,12.84,0,0,1-6.31.14,11.07,11.07,0,0,1-5.07-2.41m4.55-16.69q-2,2.19-1.8,6.49c.13,2.88.66,4.89,1.61,6a4.29,4.29,0,0,0,2,1.29,4.64,4.64,0,0,0,2.9.09,4.88,4.88,0,0,0,2.6-2.13,10.65,10.65,0,0,0,1.23-5.5A9.6,9.6,0,0,0,462,192.9a4.85,4.85,0,0,0-2.51-2.18,4.6,4.6,0,0,0-2.84-.05,5,5,0,0,0-2.09,1.09"/><path class="cls-20" d="M488.1,203h4.74a10.33,10.33,0,0,1-4,6.07,12.1,12.1,0,0,1-7.39,2.17,10.54,10.54,0,0,1-8.44-3.5q-3-3.42-3-9.77,0-6.06,2.94-9.48a10.56,10.56,0,0,1,8.44-3.5q5.69,0,8.82,3.41a12.86,12.86,0,0,1,2.46,4.83H486a5.88,5.88,0,0,0-.95-1.42,4.57,4.57,0,0,0-3.51-1.33,4.63,4.63,0,0,0-3.41,1.33c-1.14,1.27-1.71,3.35-1.71,6.26s.57,5,1.71,6.16a4.48,4.48,0,0,0,3.7,1.52,5.25,5.25,0,0,0,2.74-.67,1.31,1.31,0,0,0,.53-.33l.52-.52a4.05,4.05,0,0,1,.76-.76,2.56,2.56,0,0,1,1.7-.47"/><path class="cls-20" d="M510,209.68a11.62,11.62,0,0,1-4.22,1.28,36.8,36.8,0,0,1-3.93.23,10,10,0,0,1-6-1.84c-1.7-1.24-2.55-3.27-2.55-6.12q0-4,2.32-5.69a13.48,13.48,0,0,1,5.92-2.27,5.86,5.86,0,0,0,1.14-.14,13.17,13.17,0,0,1,1.52-.24q4.17-.57,4.17-2.47a1.79,1.79,0,0,0-1.47-1.84,9.56,9.56,0,0,0-2.7-.43,6.93,6.93,0,0,0-2.37.38,2.59,2.59,0,0,0-1.52,1.42H494a7.33,7.33,0,0,1,2.65-4.84q2.56-2.18,7.3-2.17,5.31,0,8,1.8a6.08,6.08,0,0,1,2.75,5.31v8.62a11,11,0,0,1-1.38,5.93,8.39,8.39,0,0,1-3.27,3.08M508.49,198a18.23,18.23,0,0,1-3.7,1.23l-2.18.47a5.62,5.62,0,0,0-2.47,1.24,3.86,3.86,0,0,0-.66,2.08,3.08,3.08,0,0,0,.85,2.28,3.58,3.58,0,0,0,2.47.76,5.26,5.26,0,0,0,5.69-5.69Z"/><path class="cls-20" d="M537.59,210.72h-6.54V194.6a3.88,3.88,0,0,0-1.38-3.31,5,5,0,0,0-3.08-1,4.73,4.73,0,0,0-3,1,3.93,3.93,0,0,0-1.33,3.31v16.12h-6.64V195.93c0-4.3,1.13-7.17,3.37-8.62a14.55,14.55,0,0,1,7.44-2.37,19.6,19.6,0,0,1,4.27.47,9,9,0,0,1,3.79,1.9,8.33,8.33,0,0,1,3.36-1.76,18.5,18.5,0,0,1,4-.61,14.27,14.27,0,0,1,7.68,2.17q3.51,2.19,3.51,8.82v14.79h-3.32a3.08,3.08,0,0,1-3.22-3.22V194.6a3.88,3.88,0,0,0-1.38-3.31,5,5,0,0,0-6.16,0,3.9,3.9,0,0,0-1.37,3.31v16.12"/><path class="cls-20" d="M561.29,216.79a3.24,3.24,0,0,1-3.23,3.22h-3.22v-23.6c0-4.43,1.29-7.44,3.89-9.06a15.68,15.68,0,0,1,8.44-2.41,13.6,13.6,0,0,1,4.78.9,9,9,0,0,1,3.84,2.6,15.1,15.1,0,0,1,2.85,9.48,15.4,15.4,0,0,1-2.85,9.67,8.86,8.86,0,0,1-7.3,3.6,9.62,9.62,0,0,1-4.17-.85,7.14,7.14,0,0,1-3-2.94v9.39m10.8-18.58a9.68,9.68,0,0,0-1.42-5.69,4.69,4.69,0,0,0-4.07-2,4.59,4.59,0,0,0-4,2q-1.33,1.8-1.33,5.69a8.6,8.6,0,0,0,1.42,5.4,4.71,4.71,0,0,0,4.08,2,4.5,4.5,0,0,0,3.88-2,9.12,9.12,0,0,0,1.42-5.4"/><path class="cls-20" d="M579.21,202.38h6.44a3.49,3.49,0,0,0,1.42,2.84,6.75,6.75,0,0,0,3.79.95,6.14,6.14,0,0,0,2.94-.66,2,2,0,0,0,1.14-1.8q0-1.71-4-2.56a18.06,18.06,0,0,1-2.56-.57q-5-1.23-6.73-2.94a5.82,5.82,0,0,1-1.9-4.55,7.58,7.58,0,0,1,2.75-6,11.85,11.85,0,0,1,7.4-2.17,12.9,12.9,0,0,1,7.86,2.17,8.31,8.31,0,0,1,2.94,6.17h-4.07a3,3,0,0,1-2.75-1.61l-.76-.76a5.1,5.1,0,0,0-3.13-.86,5.62,5.62,0,0,0-2.84.57,1.92,1.92,0,0,0-.86,1.71c0,1,1.65,1.87,4.93,2.56a8.83,8.83,0,0,0,1,.28,3.32,3.32,0,0,0,.81.1q4.83,1.23,6.73,2.84a6,6,0,0,1,1.8,4.55,7.57,7.57,0,0,1-3,6.45c-1.89,1.39-4.74,2.08-8.53,2.08-3.6,0-6.29-.72-8.06-2.18a7.61,7.61,0,0,1-2.74-6.35v-.28"/></g></g></g></g></g></svg>