<svg xmlns="http://www.w3.org/2000/svg" xmlns:xlink="http://www.w3.org/1999/xlink" viewBox="0 0 1744.37 302.6"><defs><style>.cls-1{fill:none;}.cls-2,.cls-6{font-size:215.75px;font-family:Harabara;}.cls-2{fill:#e7cb1d;}.cls-3{clip-path:url(#clip-path);}.cls-4{fill:#e7cb1b;}.cls-5{fill:#4a4947;}.cls-6{fill:#992065;}</style><clipPath id="clip-path" transform="translate(769.37)"><rect id="SVGID" class="cls-1" x="-769.37" y="256.25" width="294.01" height="46.35"/></clipPath></defs><title>technoclub_logo_withTechnocamps_yellowRaspberry_forLightBG</title><g id="Layer_2" data-name="Layer 2"><g id="yellowGrey_forLightBG"><text class="cls-2" transform="translate(769.42 145.42)">T</text><g id="Artwork_25" data-name="Artwork 25"><g class="cls-3"><g class="cls-3"><path class="cls-4" d="M-751.76,292.33c-2.31.13-10.89.1-13.57-.11s-4-1.92-4-5.14V256.25h3.77a3.29,3.29,0,0,1,2.41,1.05,3.43,3.43,0,0,1,1.05,2.51v4.72h10.67V266a3.38,3.38,0,0,1-1,2.57,3.51,3.51,0,0,1-2.52,1h-7.1v15.52c0,1.19.7,1.78,2.1,1.78h8.28v5.46" transform="translate(769.37)"/><path class="cls-4" d="M-731.9,283.73h5.25a11.46,11.46,0,0,1-4.41,6.71,13.34,13.34,0,0,1-8.18,2.41c-4,0-7.1-1.29-9.33-3.88s-3.36-6.11-3.36-10.8q0-6.71,3.25-10.49t9.34-3.88q6.29,0,9.75,3.77t3.36,10.81v1.15a1.81,1.81,0,0,1-.11.74h-18.14a7.22,7.22,0,0,0,1.57,4.82,5,5,0,0,0,4.09,1.68,6,6,0,0,0,3-.73,1.64,1.64,0,0,0,.58-.37l.58-.58a2.3,2.3,0,0,1,.78-.84,3.13,3.13,0,0,1,1.94-.52m-12.58-8.18h10.7a6.86,6.86,0,0,0-1.47-4.2,5,5,0,0,0-3.88-1.47,5.12,5.12,0,0,0-3.78,1.47,6,6,0,0,0-1.57,4.2" transform="translate(769.37)"/><path class="cls-4" d="M-705.68,283.73h5.25a11.46,11.46,0,0,1-4.41,6.71,13.34,13.34,0,0,1-8.18,2.41c-4,0-7.1-1.29-9.33-3.88s-3.36-6.11-3.36-10.8q0-6.71,3.25-10.49t9.34-3.88q6.29,0,9.75,3.77a14.52,14.52,0,0,1,2.73,5.35H-708a6.25,6.25,0,0,0-1-1.57,5,5,0,0,0-3.88-1.47,5.12,5.12,0,0,0-3.78,1.47q-1.89,2.1-1.89,6.92t1.89,6.82a5,5,0,0,0,4.09,1.68,6,6,0,0,0,3-.73,1.64,1.64,0,0,0,.58-.37l.58-.58a4.29,4.29,0,0,1,.84-.84,2.87,2.87,0,0,1,1.88-.52" transform="translate(769.37)"/><path class="cls-4" d="M-681.77,272.29a5,5,0,0,0-4.3-2.2,5.28,5.28,0,0,0-4.5,2.1,9.41,9.41,0,0,0-1.58,5.77v14.37h-7.13V256.25h3.57a3.43,3.43,0,0,1,2.51,1.05,3.43,3.43,0,0,1,1.05,2.51v8.29a8.31,8.31,0,0,1,5.35-4,10.7,10.7,0,0,1,6.61.41,11.85,11.85,0,0,1,4.93,4c1.33,1.82,2,4.33,2,7.55v16.26h-7V277.85a15,15,0,0,0-.26-2.88,7.21,7.21,0,0,0-1.21-2.68" transform="translate(769.37)"/><path class="cls-4" d="M-647.68,292.33h-3.67a3.49,3.49,0,0,1-2.57-1,3.49,3.49,0,0,1-1-2.57V274.5a4.28,4.28,0,0,0-1.52-3.67,5.49,5.49,0,0,0-3.4-1.16,5.29,5.29,0,0,0-3.36,1.16,4.36,4.36,0,0,0-1.47,3.67v17.83H-672V276q0-7.12,3.72-9.54a16.34,16.34,0,0,1,8.23-2.62,15.78,15.78,0,0,1,8.5,2.41q3.88,2.42,3.88,9.75v16.37" transform="translate(769.37)"/><path class="cls-4" d="M-643.06,289.81a10.35,10.35,0,0,1-3.15-5.09,23.36,23.36,0,0,1-.95-6.66,21.29,21.29,0,0,1,.79-5.66,11.74,11.74,0,0,1,2.47-4.72,10.84,10.84,0,0,1,7-3.72,16.07,16.07,0,0,1,7.76.68,10.72,10.72,0,0,1,5.88,5.45,17.53,17.53,0,0,1,1.78,8.08,20.3,20.3,0,0,1-.73,5.77,14.9,14.9,0,0,1-1.89,4.09,10.51,10.51,0,0,1-6.4,4.3,14.22,14.22,0,0,1-7,.15,12.07,12.07,0,0,1-5.6-2.67m5-18.46q-2.21,2.41-2,7.18t1.78,6.66a4.59,4.59,0,0,0,2.2,1.42,5,5,0,0,0,3.2.1,5.29,5.29,0,0,0,2.88-2.35q1.26-1.89,1.37-6.09a10.61,10.61,0,0,0-1.21-5.66,5.43,5.43,0,0,0-2.78-2.41,5.11,5.11,0,0,0-3.14-.06,5.52,5.52,0,0,0-2.31,1.21" transform="translate(769.37)"/><path class="cls-5" d="M-600.9,283.73h5.24a11.46,11.46,0,0,1-4.41,6.71,13.32,13.32,0,0,1-8.18,2.41q-6,0-9.33-3.88c-2.24-2.52-3.36-6.11-3.36-10.8q0-6.71,3.25-10.49t9.34-3.88c4.19,0,7.45,1.26,9.75,3.77a14.52,14.52,0,0,1,2.73,5.35h-7.34a6.25,6.25,0,0,0-1-1.57,5,5,0,0,0-3.88-1.47,5.12,5.12,0,0,0-3.78,1.47c-1.26,1.4-1.88,3.71-1.88,6.92s.62,5.49,1.88,6.82a5,5,0,0,0,4.09,1.68,6.07,6.07,0,0,0,3.05-.73,1.69,1.69,0,0,0,.57-.37l.58-.58a4.6,4.6,0,0,1,.84-.84,2.9,2.9,0,0,1,1.89-.52" transform="translate(769.37)"/><path class="cls-5" d="M-576.68,291.17a13,13,0,0,1-4.66,1.42,43.24,43.24,0,0,1-4.36.26,11,11,0,0,1-6.61-2.05c-1.88-1.36-2.83-3.61-2.83-6.76q0-4.4,2.57-6.29a14.84,14.84,0,0,1,6.56-2.52,6.45,6.45,0,0,0,1.26-.15,15.39,15.39,0,0,1,1.67-.27q4.62-.63,4.62-2.72a2,2,0,0,0-1.63-2,10.56,10.56,0,0,0-3-.47,7.62,7.62,0,0,0-2.62.42,2.85,2.85,0,0,0-1.68,1.57h-7a8.1,8.1,0,0,1,2.93-5.35q2.84-2.41,8.08-2.41c3.91,0,6.85.67,8.81,2a6.74,6.74,0,0,1,3,5.88v9.54a12,12,0,0,1-1.52,6.55,9.3,9.3,0,0,1-3.62,3.41m-1.67-12.9a20,20,0,0,1-4.1,1.37l-2.41.52a6.3,6.3,0,0,0-2.73,1.36,4.27,4.27,0,0,0-.73,2.31,3.4,3.4,0,0,0,.94,2.52,4,4,0,0,0,2.73.84,6.24,6.24,0,0,0,4.62-1.68,6.27,6.27,0,0,0,1.68-4.62Z" transform="translate(769.37)"/><path class="cls-5" d="M-546.16,292.33h-7.24V274.5a4.28,4.28,0,0,0-1.52-3.67,5.49,5.49,0,0,0-3.4-1.16,5.29,5.29,0,0,0-3.36,1.16,4.36,4.36,0,0,0-1.47,3.67v17.83h-7.34V276q0-7.12,3.72-9.54a16.35,16.35,0,0,1,8.24-2.62,21.88,21.88,0,0,1,4.72.52,10.06,10.06,0,0,1,4.19,2.1,9.33,9.33,0,0,1,3.72-1.94,21.16,21.16,0,0,1,4.46-.68,15.8,15.8,0,0,1,8.5,2.41q3.87,2.42,3.88,9.75v16.37h-3.67a3.49,3.49,0,0,1-2.57-1,3.45,3.45,0,0,1-1-2.57V274.5a4.31,4.31,0,0,0-1.52-3.67,5.49,5.49,0,0,0-3.41-1.16,5.49,5.49,0,0,0-3.41,1.16,4.31,4.31,0,0,0-1.52,3.67v17.83" transform="translate(769.37)"/><path class="cls-5" d="M-519.94,299a3.4,3.4,0,0,1-1,2.51,3.43,3.43,0,0,1-2.51,1.05h-3.57V276.49c0-4.9,1.43-8.23,4.3-10a17.38,17.38,0,0,1,9.33-2.67,15,15,0,0,1,5.3,1,9.85,9.85,0,0,1,4.25,2.88,16.78,16.78,0,0,1,3.14,10.49q0,6.6-3.14,10.7a9.86,9.86,0,0,1-8.08,4,10.6,10.6,0,0,1-4.61-.94,7.9,7.9,0,0,1-3.36-3.25V299m12-20.56a10.8,10.8,0,0,0-1.57-6.29,5.22,5.22,0,0,0-4.52-2.2,5.1,5.1,0,0,0-4.4,2.2q-1.47,2-1.47,6.29c0,2.66.53,4.65,1.57,6a5.21,5.21,0,0,0,4.51,2.2,5,5,0,0,0,4.31-2.2,10.17,10.17,0,0,0,1.57-6" transform="translate(769.37)"/><path class="cls-5" d="M-500.12,283.1H-493a3.86,3.86,0,0,0,1.58,3.14,7.43,7.43,0,0,0,4.19,1.05,6.75,6.75,0,0,0,3.25-.73,2.23,2.23,0,0,0,1.26-2c0-1.26-1.47-2.2-4.4-2.84a21.44,21.44,0,0,1-2.83-.62q-5.56-1.37-7.45-3.26a6.43,6.43,0,0,1-2.1-5,8.35,8.35,0,0,1,3-6.61,13.08,13.08,0,0,1,8.18-2.41q5.46,0,8.71,2.41a9.22,9.22,0,0,1,3.25,6.82h-4.51a3.32,3.32,0,0,1-3-1.78l-.84-.84a5.64,5.64,0,0,0-3.46-1,6.25,6.25,0,0,0-3.15.63,2.12,2.12,0,0,0-.94,1.89c0,1.12,1.81,2.06,5.45,2.83.42.14.79.25,1.1.32a4.18,4.18,0,0,0,.89.1q5.35,1.36,7.45,3.15a6.59,6.59,0,0,1,2,5,8.39,8.39,0,0,1-3.35,7.13q-3.15,2.31-9.44,2.31-6,0-8.92-2.41a8.43,8.43,0,0,1-3-7v-.31" transform="translate(769.37)"/></g></g></g><text class="cls-2" transform="translate(865.36 145.42)">echno</text><text class="cls-6" transform="translate(1391.67 145.42)">club</text></g></g></svg>