<svg xmlns="http://www.w3.org/2000/svg" xmlns:xlink="http://www.w3.org/1999/xlink" viewBox="0 0 1124.37 526.36"><defs><style>.cls-1{fill:none;}.cls-2{clip-path:url(#clip-path);}.cls-3{fill:#4a4947;}.cls-4,.cls-6{fill:#fff;}.cls-5,.cls-6{font-size:215.75px;font-family:Harabara;}.cls-5{fill:#9e1b5e;}</style><clipPath id="clip-path" transform="translate(149.37 333.75)"><rect id="SVGID" class="cls-1" x="-149.37" y="-333.75" width="294.01" height="46.35"/></clipPath></defs><title>technoclub_logo_withTechnocamps_raspberryWhite_forYellowBG</title><g id="Layer_2" data-name="Layer 2"><g id="greyWhite_forYellowBG"><g id="technocamps"><g class="cls-2"><g class="cls-2"><path class="cls-3" d="M-131.76-297.67c-2.31.13-10.89.1-13.57-.11s-4-1.92-4-5.14v-30.83h3.77a3.29,3.29,0,0,1,2.41,1.05,3.43,3.43,0,0,1,1.05,2.51v4.72h10.67V-324a3.38,3.38,0,0,1-1.05,2.57,3.51,3.51,0,0,1-2.52,1h-7.1v15.52c0,1.19.7,1.78,2.1,1.78h8.28v5.46" transform="translate(149.37 333.75)"/><path class="cls-3" d="M-111.9-306.27h5.25a11.46,11.46,0,0,1-4.41,6.71,13.34,13.34,0,0,1-8.18,2.41c-4,0-7.1-1.29-9.33-3.88s-3.36-6.12-3.36-10.8q0-6.72,3.25-10.49t9.34-3.88q6.28,0,9.75,3.77t3.36,10.81v1.15a1.72,1.72,0,0,1-.11.73h-18.14a7.23,7.23,0,0,0,1.57,4.83,5,5,0,0,0,4.09,1.68,5.93,5.93,0,0,0,3-.74,1.4,1.4,0,0,0,.58-.37l.58-.57a2.3,2.3,0,0,1,.78-.84,3.13,3.13,0,0,1,1.94-.52m-12.58-8.18h10.7a6.86,6.86,0,0,0-1.47-4.2,5,5,0,0,0-3.88-1.47,5.12,5.12,0,0,0-3.78,1.47,6,6,0,0,0-1.57,4.2" transform="translate(149.37 333.75)"/><path class="cls-3" d="M-85.68-306.27h5.25a11.46,11.46,0,0,1-4.41,6.71A13.34,13.34,0,0,1-93-297.15c-4,0-7.1-1.29-9.33-3.88s-3.36-6.12-3.36-10.8q0-6.72,3.25-10.49t9.34-3.88q6.28,0,9.75,3.77a14.52,14.52,0,0,1,2.73,5.35H-88a6.33,6.33,0,0,0-1-1.57,5,5,0,0,0-3.88-1.47,5.12,5.12,0,0,0-3.78,1.47q-1.89,2.1-1.89,6.92t1.89,6.82a5,5,0,0,0,4.09,1.68,5.93,5.93,0,0,0,3-.74,1.48,1.48,0,0,0,.58-.36l.58-.58a4.29,4.29,0,0,1,.84-.84,2.87,2.87,0,0,1,1.88-.52" transform="translate(149.37 333.75)"/><path class="cls-3" d="M-61.77-317.71a5,5,0,0,0-4.3-2.2,5.28,5.28,0,0,0-4.5,2.1A9.41,9.41,0,0,0-72.15-312v14.37h-7.13v-36.08h3.57a3.43,3.43,0,0,1,2.51,1.05,3.43,3.43,0,0,1,1,2.51v8.29a8.35,8.35,0,0,1,5.35-4,10.77,10.77,0,0,1,6.61.42,11.85,11.85,0,0,1,4.93,4c1.33,1.82,2,4.33,2,7.55v16.26h-7v-14.48a15,15,0,0,0-.26-2.88,7.21,7.21,0,0,0-1.21-2.68" transform="translate(149.37 333.75)"/><path class="cls-3" d="M-27.68-297.67h-3.67a3.49,3.49,0,0,1-2.57-1,3.49,3.49,0,0,1-1-2.57V-315.5a4.28,4.28,0,0,0-1.52-3.67,5.49,5.49,0,0,0-3.4-1.16,5.29,5.29,0,0,0-3.36,1.16,4.36,4.36,0,0,0-1.47,3.67v17.83H-52V-314q0-7.12,3.72-9.54a16.34,16.34,0,0,1,8.23-2.62,15.78,15.78,0,0,1,8.5,2.41q3.89,2.42,3.88,9.75v16.37" transform="translate(149.37 333.75)"/><path class="cls-3" d="M-23.06-300.19a10.35,10.35,0,0,1-3.15-5.09,23.36,23.36,0,0,1-.95-6.66,21.29,21.29,0,0,1,.79-5.66,11.74,11.74,0,0,1,2.47-4.72,10.84,10.84,0,0,1,7-3.72,16.07,16.07,0,0,1,7.76.68,10.72,10.72,0,0,1,5.88,5.45,17.53,17.53,0,0,1,1.78,8.08,20.23,20.23,0,0,1-.73,5.76A14.83,14.83,0,0,1-4.08-302a10.51,10.51,0,0,1-6.4,4.3,14.22,14.22,0,0,1-7,.15,12.07,12.07,0,0,1-5.6-2.67m5-18.46q-2.2,2.41-2,7.18c.14,3.19.73,5.4,1.78,6.66a4.59,4.59,0,0,0,2.2,1.42,5,5,0,0,0,3.2.1A5.33,5.33,0,0,0-10-305.64q1.26-1.89,1.37-6.09a10.61,10.61,0,0,0-1.21-5.66,5.43,5.43,0,0,0-2.78-2.41,5.11,5.11,0,0,0-3.14-.06A5.52,5.52,0,0,0-18-318.65" transform="translate(149.37 333.75)"/><path class="cls-4" d="M19.1-306.27h5.24a11.46,11.46,0,0,1-4.41,6.71,13.32,13.32,0,0,1-8.18,2.41q-6,0-9.33-3.88t-3.36-10.8q0-6.72,3.25-10.49t9.34-3.88c4.19,0,7.45,1.26,9.75,3.77a14.52,14.52,0,0,1,2.73,5.35H16.79a6.07,6.07,0,0,0-1-1.57,5,5,0,0,0-3.88-1.47,5.12,5.12,0,0,0-3.78,1.47c-1.26,1.4-1.88,3.71-1.88,6.92s.62,5.49,1.88,6.82a5,5,0,0,0,4.09,1.68,6,6,0,0,0,3.05-.74,1.52,1.52,0,0,0,.57-.36l.58-.58a4.6,4.6,0,0,1,.84-.84,2.9,2.9,0,0,1,1.89-.52" transform="translate(149.37 333.75)"/><path class="cls-4" d="M43.32-298.83a13,13,0,0,1-4.66,1.42,43.24,43.24,0,0,1-4.36.26,11,11,0,0,1-6.61-2.05c-1.88-1.36-2.83-3.61-2.83-6.76q0-4.4,2.57-6.29A14.84,14.84,0,0,1,34-314.77a6.45,6.45,0,0,0,1.26-.15,15.39,15.39,0,0,1,1.67-.27q4.62-.63,4.62-2.73a2,2,0,0,0-1.63-2,10.56,10.56,0,0,0-3-.47,7.62,7.62,0,0,0-2.62.42,2.85,2.85,0,0,0-1.68,1.57h-7a8.1,8.1,0,0,1,2.93-5.35q2.84-2.41,8.08-2.41,5.87,0,8.81,2a6.73,6.73,0,0,1,3,5.87v9.55a12,12,0,0,1-1.52,6.55,9.3,9.3,0,0,1-3.62,3.41m-1.67-12.9a20,20,0,0,1-4.1,1.37l-2.41.52a6.3,6.3,0,0,0-2.73,1.36,4.27,4.27,0,0,0-.73,2.31,3.4,3.4,0,0,0,.94,2.52,4,4,0,0,0,2.73.84A6.24,6.24,0,0,0,40-304.49a6.28,6.28,0,0,0,1.68-4.62Z" transform="translate(149.37 333.75)"/><path class="cls-4" d="M73.84-297.67H66.6V-315.5a4.28,4.28,0,0,0-1.52-3.67,5.49,5.49,0,0,0-3.4-1.16,5.29,5.29,0,0,0-3.36,1.16,4.36,4.36,0,0,0-1.47,3.67v17.83H49.51V-314q0-7.12,3.72-9.54a16.35,16.35,0,0,1,8.24-2.62,21.88,21.88,0,0,1,4.72.52,10.06,10.06,0,0,1,4.19,2.1,9.33,9.33,0,0,1,3.72-1.94,21.16,21.16,0,0,1,4.46-.68,15.8,15.8,0,0,1,8.5,2.41q3.87,2.42,3.88,9.75v16.37H87.27a3.49,3.49,0,0,1-2.57-1,3.45,3.45,0,0,1-1-2.57V-315.5a4.31,4.31,0,0,0-1.52-3.67,5.49,5.49,0,0,0-3.41-1.16,5.49,5.49,0,0,0-3.41,1.16,4.31,4.31,0,0,0-1.52,3.67v17.83" transform="translate(149.37 333.75)"/><path class="cls-4" d="M100.06-291a3.41,3.41,0,0,1-1,2.51,3.43,3.43,0,0,1-2.51,1.05H92.93v-26.11c0-4.9,1.43-8.23,4.3-10a17.38,17.38,0,0,1,9.33-2.67,15.18,15.18,0,0,1,5.3,1,10,10,0,0,1,4.25,2.89,16.76,16.76,0,0,1,3.14,10.49q0,6.6-3.14,10.7a9.86,9.86,0,0,1-8.08,4,10.6,10.6,0,0,1-4.61-.94,7.9,7.9,0,0,1-3.36-3.25V-291m12-20.56a10.8,10.8,0,0,0-1.57-6.29,5.22,5.22,0,0,0-4.52-2.2,5.1,5.1,0,0,0-4.4,2.2q-1.47,2-1.47,6.29c0,2.66.53,4.65,1.57,6a5.21,5.21,0,0,0,4.51,2.2,5,5,0,0,0,4.31-2.2,10.17,10.17,0,0,0,1.57-6" transform="translate(149.37 333.75)"/><path class="cls-4" d="M119.88-306.9H127a3.86,3.86,0,0,0,1.58,3.14,7.43,7.43,0,0,0,4.19,1.05,6.75,6.75,0,0,0,3.25-.73,2.23,2.23,0,0,0,1.26-2c0-1.25-1.47-2.2-4.4-2.83a21.44,21.44,0,0,1-2.83-.62q-5.57-1.37-7.45-3.26a6.43,6.43,0,0,1-2.1-5,8.35,8.35,0,0,1,3-6.61,13.08,13.08,0,0,1,8.18-2.41q5.46,0,8.71,2.41a9.22,9.22,0,0,1,3.25,6.82h-4.51a3.32,3.32,0,0,1-3-1.78l-.84-.84a5.64,5.64,0,0,0-3.46-1,6.25,6.25,0,0,0-3.15.63,2.12,2.12,0,0,0-.94,1.89c0,1.12,1.81,2.06,5.45,2.83a9.18,9.18,0,0,0,1.1.31,3.66,3.66,0,0,0,.89.11q5.35,1.36,7.45,3.15a6.59,6.59,0,0,1,2,5,8.39,8.39,0,0,1-3.35,7.13q-3.15,2.31-9.44,2.31-6,0-8.92-2.41a8.43,8.43,0,0,1-3-7v-.31" transform="translate(149.37 333.75)"/></g></g></g><text class="cls-5" transform="translate(149.42 479.17)">T</text><text class="cls-5" transform="translate(245.36 479.17)">echno</text><text class="cls-6" transform="translate(771.67 479.17)">club</text></g></g></svg>