<svg xmlns="http://www.w3.org/2000/svg" xmlns:xlink="http://www.w3.org/1999/xlink" viewBox="0 0 975 225.6"><defs><style>.cls-1{fill:none;}.cls-2{clip-path:url(#clip-path);}.cls-3{fill:#e7cb1a;}.cls-4{fill:#fff;}.cls-5,.cls-6{font-size:215.75px;font-family:Harabara;}.cls-5{fill:#ebcc00;}.cls-6{fill:#9d1b5e;}</style><clipPath id="clip-path"><rect class="cls-1" x="512.59" y="153.3" width="458.58" height="72.3"/></clipPath></defs><title>technoclub_logo_withTechnocamps_yellowRaspberry_forDarkBG</title><g id="Layer_2" data-name="Layer 2"><g id="yellowWhite_forDarkBG"><g id="Artwork_24" data-name="Artwork 24"><g class="cls-2"><g class="cls-2"><path class="cls-3" d="M540.06,209.57c-3.6.22-17,.17-21.18-.16s-6.29-3-6.29-8V153.3h5.88a5.17,5.17,0,0,1,3.76,1.64,5.36,5.36,0,0,1,1.64,3.92v7.37h16.64v2.29a5.27,5.27,0,0,1-1.64,4,5.49,5.49,0,0,1-3.93,1.56H523.87v24.21q0,2.78,3.27,2.78h12.92v8.5"/><path class="cls-3" d="M571,196.16h8.18a17.83,17.83,0,0,1-6.87,10.47q-5.07,3.76-12.76,3.76-9.33,0-14.56-6-5.24-5.9-5.23-16.85,0-10.47,5.06-16.36,5.24-6,14.56-6,9.83,0,15.22,5.89,5.24,6.06,5.23,16.85v1.8a2.74,2.74,0,0,1-.16,1.14h-28.3c.1,3.39.93,5.89,2.45,7.53s3.55,2.61,6.38,2.61a9.33,9.33,0,0,0,4.75-1.14,2.33,2.33,0,0,0,.89-.57l.91-.9A3.46,3.46,0,0,1,568,197a4.86,4.86,0,0,1,3-.82M551.41,183.4h16.68q-.33-4.41-2.29-6.54a7.82,7.82,0,0,0-6-2.29,8,8,0,0,0-5.89,2.29,9.39,9.39,0,0,0-2.45,6.54"/><path class="cls-3" d="M611.94,196.16h8.17a17.83,17.83,0,0,1-6.87,10.47q-5.07,3.76-12.76,3.76-9.32,0-14.56-6-5.24-5.9-5.23-16.85,0-10.47,5.07-16.36,5.24-6,14.56-6,9.82,0,15.21,5.89a22.45,22.45,0,0,1,4.26,8.34H608.33a9.58,9.58,0,0,0-1.63-2.45,7.85,7.85,0,0,0-6.05-2.29,8,8,0,0,0-5.89,2.29q-2.94,3.27-3,10.79t3,10.64c1.42,1.74,3.54,2.61,6.38,2.61a9.19,9.19,0,0,0,4.74-1.14,2.29,2.29,0,0,0,.9-.57l.9-.9A7.12,7.12,0,0,1,609,197a4.51,4.51,0,0,1,3-.82"/><path class="cls-3" d="M649.23,178.33a7.8,7.8,0,0,0-6.71-3.44,8.27,8.27,0,0,0-7,3.28c-1.64,2.18-2.45,5.18-2.45,9v22.41H621.91V153.3h5.56a5.6,5.6,0,0,1,5.57,5.56v12.92a13,13,0,0,1,8.34-6.21,16.61,16.61,0,0,1,10.31.66,18.51,18.51,0,0,1,7.69,6.21q3.11,4.26,3.1,11.78v25.35h-11V187a23.22,23.22,0,0,0-.41-4.5,11.28,11.28,0,0,0-1.88-4.17"/><path class="cls-3" d="M702.4,209.57h-5.73a5.31,5.31,0,0,1-5.56-5.56V181.77q0-3.93-2.37-5.73a8.59,8.59,0,0,0-5.32-1.8,8.22,8.22,0,0,0-5.23,1.8q-2.3,1.8-2.29,5.73v27.8H664.45V184.05q0-11.12,5.8-14.88a25.36,25.36,0,0,1,12.84-4.09,24.64,24.64,0,0,1,13.26,3.76q6,3.76,6,15.21v25.52"/><path class="cls-3" d="M709.6,205.65a16.16,16.16,0,0,1-4.91-7.94,36.48,36.48,0,0,1-1.48-10.38,32.84,32.84,0,0,1,1.23-8.84,18.27,18.27,0,0,1,3.85-7.36,17,17,0,0,1,11-5.8,25.06,25.06,0,0,1,12.1,1.06,16.63,16.63,0,0,1,9.16,8.5,27.21,27.21,0,0,1,2.78,12.6,31.28,31.28,0,0,1-1.14,9,23.15,23.15,0,0,1-2.95,6.38,16.3,16.3,0,0,1-10,6.7,22.18,22.18,0,0,1-10.89.25,19,19,0,0,1-8.74-4.17m7.85-28.79q-3.44,3.76-3.11,11.2t2.78,10.39a7.28,7.28,0,0,0,3.43,2.21,7.82,7.82,0,0,0,5,.16,8.33,8.33,0,0,0,4.5-3.68q2-2.94,2.13-9.49c0-3.92-.63-6.87-1.88-8.83a8.51,8.51,0,0,0-4.34-3.76,7.89,7.89,0,0,0-4.9-.08,8.5,8.5,0,0,0-3.6,1.88"/><path class="cls-4" d="M775.36,196.16h8.17a17.83,17.83,0,0,1-6.87,10.47q-5.07,3.76-12.76,3.76-9.31,0-14.55-6-5.24-5.9-5.24-16.85,0-10.47,5.07-16.36,5.24-6,14.56-6,9.81,0,15.21,5.89a22.45,22.45,0,0,1,4.26,8.34H771.76a9.58,9.58,0,0,0-1.64-2.45,7.85,7.85,0,0,0-6-2.29,8,8,0,0,0-5.89,2.29c-2,2.18-2.94,5.78-2.94,10.79s1,8.57,2.94,10.64q2.12,2.61,6.38,2.61a9.19,9.19,0,0,0,4.74-1.14,2.29,2.29,0,0,0,.9-.57c.27-.27.57-.58.91-.9a7,7,0,0,1,1.3-1.31,4.5,4.5,0,0,1,3-.82"/><path class="cls-4" d="M813.14,207.78a20.09,20.09,0,0,1-7.28,2.2,63,63,0,0,1-6.78.41,17.11,17.11,0,0,1-10.31-3.19q-4.41-3.18-4.42-10.55,0-6.87,4-9.81a23,23,0,0,1,10.22-3.93,9.87,9.87,0,0,0,2-.24,22.47,22.47,0,0,1,2.61-.41q7.2-1,7.2-4.26a3.11,3.11,0,0,0-2.53-3.19,16.87,16.87,0,0,0-4.67-.73,12,12,0,0,0-4.08.65,4.44,4.44,0,0,0-2.62,2.46h-11a12.57,12.57,0,0,1,4.58-8.35q4.41-3.76,12.59-3.76,9.17,0,13.75,3.11a10.5,10.5,0,0,1,4.74,9.16v14.89c0,4.36-.8,7.77-2.37,10.22a14.56,14.56,0,0,1-5.65,5.32m-2.61-20.13a30.37,30.37,0,0,1-6.38,2.13l-3.77.82a9.71,9.71,0,0,0-4.25,2.13,6.59,6.59,0,0,0-1.15,3.6,5.27,5.27,0,0,0,1.48,3.92,6.16,6.16,0,0,0,4.25,1.31,9.06,9.06,0,0,0,9.82-9.82Z"/><path class="cls-4" d="M860.75,209.57H849.46v-27.8q0-3.93-2.37-5.73a8.61,8.61,0,0,0-5.32-1.8,8.22,8.22,0,0,0-5.23,1.8q-2.29,1.8-2.3,5.73v27.8H822.8V184.05q0-11.12,5.8-14.88a25.36,25.36,0,0,1,12.84-4.09,33.57,33.57,0,0,1,7.37.82,15.6,15.6,0,0,1,6.54,3.27,14.39,14.39,0,0,1,5.8-3,32.58,32.58,0,0,1,7-1.06,24.63,24.63,0,0,1,13.25,3.76q6,3.76,6,15.21v25.52h-5.72a5.33,5.33,0,0,1-5.57-5.56V181.77q0-3.93-2.37-5.73a8.75,8.75,0,0,0-10.63,0q-2.37,1.8-2.37,5.73v27.8"/><path class="cls-4" d="M901.64,220.05a5.57,5.57,0,0,1-5.56,5.55h-5.56V184.87q0-11.44,6.71-15.62a27,27,0,0,1,14.56-4.17,23.73,23.73,0,0,1,8.26,1.55,15.54,15.54,0,0,1,6.62,4.5q4.91,6.39,4.91,16.36,0,10.31-4.91,16.69a15.35,15.35,0,0,1-12.59,6.21,16.65,16.65,0,0,1-7.2-1.47,12.35,12.35,0,0,1-5.24-5.07v16.2M920.29,188q0-6.37-2.45-9.81a8.14,8.14,0,0,0-7-3.44,8,8,0,0,0-6.87,3.44q-2.28,3.11-2.29,9.81,0,6.22,2.46,9.33a8.11,8.11,0,0,0,7,3.43,7.81,7.81,0,0,0,6.71-3.43q2.45-3.44,2.45-9.33"/><path class="cls-4" d="M932.56,195.18h11.12a6,6,0,0,0,2.46,4.91,11.6,11.6,0,0,0,6.54,1.63,10.6,10.6,0,0,0,5.07-1.14,3.48,3.48,0,0,0,2-3.11q0-2.94-6.87-4.42a29.87,29.87,0,0,1-4.41-1c-5.79-1.41-9.66-3.11-11.62-5.07a10.06,10.06,0,0,1-3.27-7.85,13.05,13.05,0,0,1,4.74-10.31q4.92-3.76,12.76-3.76,8.51,0,13.58,3.76a14.43,14.43,0,0,1,5.07,10.64h-7a5.21,5.21,0,0,1-4.75-2.79l-1.3-1.3a8.77,8.77,0,0,0-5.4-1.48,9.79,9.79,0,0,0-4.91,1,3.32,3.32,0,0,0-1.47,3q0,2.61,8.5,4.42a15.12,15.12,0,0,0,1.72.48,5.86,5.86,0,0,0,1.39.17q8.34,2.13,11.62,4.91a10.31,10.31,0,0,1,3.11,7.85q0,7.2-5.24,11.12-4.9,3.6-14.72,3.6-9.33,0-13.91-3.76-4.74-3.76-4.74-11v-.49"/></g></g></g><text class="cls-5" transform="translate(0.05 145.42)">T</text><text class="cls-5" transform="translate(95.98 145.42)">echno</text><text class="cls-6" transform="translate(622.3 145.42)">club</text></g></g></svg>